<svg width="400" height="400" viewBox="0 0 400 400" fill="none" xmlns="http://www.w3.org/2000/svg">
<g style="mix-blend-mode:multiply" opacity="0.2">
<circle cx="200" cy="200" r="200" fill="#E3DECE"/>
</g>
<path d="M134 169.976C134 133.538 163.538 104 199.976 104C236.414 104 265.952 133.538 265.952 169.976C265.952 177.885 262.823 186.445 257.875 195.335C252.945 204.191 246.439 212.981 240.094 221.346C235.696 227.146 234.209 232.464 233.006 236.764C232.931 237.033 232.856 237.298 232.783 237.559C231.552 241.918 230.5 244.968 227.122 247.896C222.969 251.495 219.355 252.636 215.4 252.958C213.31 253.128 211.095 253.07 208.512 252.952C208.055 252.931 207.586 252.908 207.105 252.885C204.933 252.78 202.532 252.663 199.976 252.663C197.753 252.663 195.751 252.712 193.898 252.758C190.355 252.846 187.359 252.921 184.404 252.608C180.282 252.172 176.819 250.988 173.395 247.934C170.579 245.422 169.206 241.927 167.47 236.977C167.404 236.788 167.337 236.597 167.269 236.404C165.658 231.798 163.702 226.204 159.46 221.183C151.902 212.235 145.49 202.806 140.986 193.855C136.451 184.843 134 176.611 134 169.976Z" fill="#FCFAF7" stroke="#827344" stroke-width="8"/>
<rect x="173.855" y="269.719" width="52.2209" height="9.39977" rx="4.69989" fill="#827344" stroke="#827344" stroke-width="0.714534"/>
<rect x="182.223" y="290.602" width="35.5102" height="9.39977" rx="4.69989" fill="#827344" stroke="#827344" stroke-width="0.714534"/>
</svg>
