<svg width="400" height="400" viewBox="0 0 400 400" fill="none" xmlns="http://www.w3.org/2000/svg">
<g style="mix-blend-mode:multiply" opacity="0.2">
<circle cx="200" cy="200" r="200" fill="#E3DECE"/>
</g>
<path d="M296.081 113.677C295.657 112.157 295.061 108.394 292.647 109.084C291.063 109.538 289.856 112.69 288.696 113.787C277.564 124.449 263.751 125.938 249.013 126.032C245.282 126.064 231.375 124.872 229.054 128.541C228.27 129.811 230.246 130.344 230.716 131.535C232.755 136.521 227.753 142.526 224.131 145.254C219.553 148.719 213.094 149.958 207.888 147.12C204.721 145.411 202.275 142.495 203.843 138.653C204.47 137.133 208.5 134.797 206.885 133.182C206.007 132.304 204.031 132.649 202.934 132.774C200.112 133.088 197.368 133.903 194.64 134.702C188.039 136.584 181.705 139.202 175.637 142.369C163.643 148.609 152.919 157.045 143.763 166.969C134.199 177.301 128.021 190.55 125.419 204.347C124.384 209.913 123.898 215.589 124.023 221.264C124.29 233.164 129.276 243.638 122.252 254.754C121.091 256.588 119.994 258.344 118.583 259.99C115.823 263.22 112.954 266.215 110.069 269.335C107.341 272.251 104.221 274.619 101.54 277.582C98.2162 281.251 100.897 285.155 103.704 288.322C106.322 291.285 110.885 292.555 114.679 291.175C118.896 289.639 120.057 284.559 122.048 281.031C124.149 277.3 126.328 273.631 128.743 270.119C130.593 267.453 132.537 264.49 135.281 262.656C139.169 260.053 141.411 261.496 145.55 262.483C147.902 263.032 150.16 263.769 152.402 264.694C156.854 266.497 161.135 268.786 165.713 270.26C178.851 274.446 192.978 276.484 206.759 275.559C208.751 275.434 212.749 275.998 212.31 272.8C211.949 270.197 208.641 270.605 206.869 269.476C189.215 258.25 199.594 233.196 215.524 225.842C230.513 218.928 254.893 221.562 259.424 240.282C259.722 241.49 259.314 244.923 260.349 245.707C266.95 250.599 290.907 195.441 292.835 189.311C300.298 165.699 302.822 137.744 296.081 113.677Z" fill="#FCFAF7" stroke="#827344" stroke-width="8"/>
<path d="M291.486 119.806C291.282 119.759 291.031 119.837 290.702 120.088C289.871 120.731 289.228 122.565 288.867 123.537C283.082 139.059 273.596 149.501 260.63 159.457C253.7 164.772 246.065 169.084 238.445 173.317C228.097 179.071 217.702 184.715 207.527 190.767C195.752 197.76 180.042 205.96 169.161 214.238C161.871 219.804 154.517 225.307 147.807 231.563C145.533 233.695 143.307 235.89 141.222 238.227C138.995 240.719 135.703 244.059 135.233 247.54C134.997 249.233 136.503 251.208 138.353 251.083C140.579 250.911 142.507 247.257 143.903 245.737C146.27 243.181 148.748 240.751 151.162 238.227C154.674 234.573 158.202 230.936 162.09 227.706C171.168 220.165 180.904 213.172 190.876 206.838C196.583 203.232 202.384 199.814 208.311 196.584C219.662 190.391 231.029 184.198 242.145 177.597C258.388 167.939 275.305 157.341 285.183 140.674C286.186 138.981 295.139 120.527 291.486 119.806Z" fill="#827344"/>
</svg>
