<svg width="400" height="400" viewBox="0 0 400 400" fill="none" xmlns="http://www.w3.org/2000/svg">
<g style="mix-blend-mode:multiply" opacity="0.2">
<circle cx="200" cy="200" r="200" fill="#E3DECE"/>
</g>
<path fill-rule="evenodd" clip-rule="evenodd" d="M229.752 132.516C229.832 131.624 229.873 130.721 229.873 129.808C229.873 113.345 216.528 100 200.066 100C183.603 100 170.258 113.345 170.258 129.808C170.258 130.721 170.299 131.624 170.379 132.516H170.258V218.642C160.31 227.113 154 239.729 154 253.819C154 279.324 174.676 300 200.181 300C225.686 300 246.362 279.324 246.362 253.819C246.362 239.62 239.955 226.918 229.873 218.447V132.516H229.752Z" fill="#FCFAF7"/>
<path d="M229.752 132.516L225.768 132.157C225.667 133.276 226.042 134.386 226.799 135.215C227.557 136.044 228.629 136.516 229.752 136.516V132.516ZM170.379 132.516V136.516C171.503 136.516 172.574 136.044 173.332 135.215C174.09 134.386 174.464 133.276 174.363 132.157L170.379 132.516ZM170.258 132.516V128.516C168.049 128.516 166.258 130.307 166.258 132.516H170.258ZM170.258 218.642L172.851 221.688C173.744 220.928 174.258 219.815 174.258 218.642H170.258ZM229.873 218.447H225.873C225.873 219.628 226.396 220.749 227.3 221.509L229.873 218.447ZM229.873 132.516H233.873C233.873 130.307 232.083 128.516 229.873 128.516V132.516ZM225.873 129.808C225.873 130.601 225.838 131.384 225.768 132.157L233.736 132.875C233.827 131.864 233.873 130.841 233.873 129.808H225.873ZM200.066 104C214.319 104 225.873 115.555 225.873 129.808H233.873C233.873 111.136 218.737 96 200.066 96V104ZM174.258 129.808C174.258 115.555 185.812 104 200.066 104V96C181.394 96 166.258 111.136 166.258 129.808H174.258ZM174.363 132.157C174.294 131.384 174.258 130.601 174.258 129.808H166.258C166.258 130.841 166.304 131.864 166.395 132.875L174.363 132.157ZM170.379 128.516H170.258V136.516H170.379V128.516ZM166.258 132.516V218.642H174.258V132.516H166.258ZM167.665 215.597C156.862 224.795 150 238.508 150 253.819H158C158 240.95 163.757 229.431 172.851 221.688L167.665 215.597ZM150 253.819C150 281.533 172.467 304 200.181 304V296C176.885 296 158 277.115 158 253.819H150ZM200.181 304C227.895 304 250.362 281.533 250.362 253.819H242.362C242.362 277.115 223.477 296 200.181 296V304ZM250.362 253.819C250.362 238.389 243.394 224.583 232.447 215.385L227.3 221.509C236.516 229.253 242.362 240.851 242.362 253.819H250.362ZM233.873 218.447V132.516H225.873V218.447H233.873ZM229.873 128.516H229.752V136.516H229.873V128.516Z" fill="#827344"/>
<mask id="path-4-inside-1_306_7360" fill="white">
<path fill-rule="evenodd" clip-rule="evenodd" d="M208.189 135.557C208.193 135.447 208.196 135.335 208.196 135.223C208.196 130.733 204.556 127.094 200.066 127.094C195.576 127.094 191.937 130.733 191.937 135.223C191.937 135.335 191.939 135.447 191.944 135.557H191.938V231.458C182.465 234.806 175.679 243.839 175.679 254.458C175.679 267.927 186.598 278.846 200.067 278.846C213.536 278.846 224.455 267.927 224.455 254.458C224.455 243.839 217.669 234.806 208.197 231.458V135.557H208.189Z"/>
</mask>
<path fill-rule="evenodd" clip-rule="evenodd" d="M208.189 135.557C208.193 135.447 208.196 135.335 208.196 135.223C208.196 130.733 204.556 127.094 200.066 127.094C195.576 127.094 191.937 130.733 191.937 135.223C191.937 135.335 191.939 135.447 191.944 135.557H191.938V231.458C182.465 234.806 175.679 243.839 175.679 254.458C175.679 267.927 186.598 278.846 200.067 278.846C213.536 278.846 224.455 267.927 224.455 254.458C224.455 243.839 217.669 234.806 208.197 231.458V135.557H208.189Z" fill="#827344"/>
<path d="M208.189 135.557L203.004 135.348L202.786 140.746H208.189V135.557ZM191.944 135.557V140.746H197.347L197.128 135.348L191.944 135.557ZM191.938 135.557V130.368H186.749V135.557H191.938ZM191.938 231.458L193.667 236.35L197.127 235.127V231.458H191.938ZM208.197 231.458H203.008V235.127L206.467 236.35L208.197 231.458ZM208.197 135.557H213.386V130.368H208.197V135.557ZM203.007 135.223C203.007 135.265 203.006 135.307 203.004 135.348L213.374 135.767C213.381 135.586 213.385 135.405 213.385 135.223H203.007ZM200.066 132.283C201.69 132.283 203.007 133.599 203.007 135.223H213.385C213.385 127.868 207.422 121.905 200.066 121.905V132.283ZM197.126 135.223C197.126 133.599 198.442 132.283 200.066 132.283V121.905C192.711 121.905 186.748 127.868 186.748 135.223H197.126ZM197.128 135.348C197.127 135.307 197.126 135.265 197.126 135.223H186.748C186.748 135.405 186.752 135.586 186.759 135.767L197.128 135.348ZM191.944 130.368H191.938V140.746H191.944V130.368ZM186.749 135.557V231.458H197.127V135.557H186.749ZM190.209 226.565C178.728 230.623 170.49 241.572 170.49 254.458H180.868C180.868 246.107 186.203 238.988 193.667 236.35L190.209 226.565ZM170.49 254.458C170.49 270.793 183.732 284.035 200.067 284.035V273.657C189.464 273.657 180.868 265.061 180.868 254.458H170.49ZM200.067 284.035C216.402 284.035 229.644 270.793 229.644 254.458H219.266C219.266 265.061 210.671 273.657 200.067 273.657V284.035ZM229.644 254.458C229.644 241.572 221.406 230.623 209.926 226.565L206.467 236.35C213.931 238.988 219.266 246.107 219.266 254.458H229.644ZM213.386 231.458V135.557H203.008V231.458H213.386ZM208.197 130.368H208.189V140.746H208.197V130.368Z" fill="#827344" mask="url(#path-4-inside-1_306_7360)"/>
</svg>
