<svg width="631" height="630" viewBox="0 0 631 630" fill="none" xmlns="http://www.w3.org/2000/svg">
<circle cx="315.25" cy="315" r="310" fill="white" stroke="#E66534" stroke-width="10"/>
<path d="M147.25 143.75C147.25 142.645 148.145 141.75 149.25 141.75H308.715C309.819 141.75 310.715 142.645 310.715 143.75V303.215C310.715 304.319 309.819 305.215 308.715 305.215H149.25C148.145 305.215 147.25 304.319 147.25 303.215V143.75ZM325.035 143.75C325.035 142.645 325.931 141.75 327.035 141.75H486.5C487.605 141.75 488.5 142.645 488.5 143.75V303.215C488.5 304.319 487.605 305.215 486.5 305.215H327.035C325.931 305.215 325.035 304.319 325.035 303.215V143.75ZM147.25 321.535C147.25 320.431 148.145 319.535 149.25 319.535H308.715C309.819 319.535 310.715 320.431 310.715 321.535V481C310.715 482.105 309.819 483 308.715 483H149.25C148.145 483 147.25 482.105 147.25 481V321.535ZM325.035 321.535C325.035 320.431 325.931 319.535 327.035 319.535H486.5C487.605 319.535 488.5 320.431 488.5 321.535V481C488.5 482.105 487.605 483 486.5 483H327.035C325.931 483 325.035 482.105 325.035 481V321.535Z" fill="#E66534"/>
</svg>
