<svg width="631" height="630" viewBox="0 0 631 630" fill="none" xmlns="http://www.w3.org/2000/svg">
<circle cx="315.75" cy="315" r="310" fill="white" stroke="#E66534" stroke-width="10"/>
<path d="M317.837 141.75C264.637 141.75 230.18 163.547 203.127 202.419C198.22 209.471 199.733 219.139 206.578 224.33L235.33 246.131C242.244 251.373 252.081 250.147 257.493 243.366C274.188 222.45 286.573 210.408 312.651 210.408C333.155 210.408 358.517 223.604 358.517 243.487C358.517 258.518 346.109 266.238 325.863 277.588C302.254 290.825 271.011 307.298 271.011 348.508V355.031C271.011 363.866 278.172 371.027 287.007 371.027H335.309C344.143 371.027 351.305 363.866 351.305 355.031V351.184C351.305 322.617 434.797 321.427 434.797 244.125C434.797 185.91 374.411 141.75 317.837 141.75ZM311.158 390.662C285.7 390.662 264.989 411.373 264.989 436.831C264.989 462.288 285.7 483 311.158 483C336.616 483 357.327 462.288 357.327 436.831C357.327 411.373 336.616 390.662 311.158 390.662Z" fill="#E66534"/>
</svg>
