<svg width="630" height="630" viewBox="0 0 630 630" fill="none" xmlns="http://www.w3.org/2000/svg">
<circle cx="315" cy="315" r="310" fill="white" stroke="#E66534" stroke-width="10"/>
<path d="M466.594 381.691V157.746C466.594 148.882 459.462 141.75 450.598 141.75H231.984C196.66 141.75 168 170.41 168 205.734V419.016C168 454.34 196.66 483 231.984 483H450.598C459.462 483 466.594 475.868 466.594 467.004V456.34C466.594 451.341 464.261 446.809 460.662 443.876C457.863 433.612 457.863 404.353 460.662 394.088C464.261 391.222 466.594 386.69 466.594 381.691ZM253.312 231.062C253.312 228.862 255.112 227.062 257.312 227.062H398.61C400.81 227.062 402.609 228.862 402.609 231.062V244.392C402.609 246.591 400.81 248.391 398.61 248.391H257.312C255.112 248.391 253.312 246.591 253.312 244.392V231.062ZM253.312 273.718C253.312 271.518 255.112 269.719 257.312 269.719H398.61C400.81 269.719 402.609 271.518 402.609 273.718V287.048C402.609 289.247 400.81 291.047 398.61 291.047H257.312C255.112 291.047 253.312 289.247 253.312 287.048V273.718ZM422.205 440.344H231.984C220.187 440.344 210.656 430.813 210.656 419.016C210.656 407.285 220.254 397.688 231.984 397.688H422.205C420.938 409.085 420.938 428.947 422.205 440.344Z" fill="#E66534"/>
</svg>
