<svg width="631" height="630" viewBox="0 0 631 630" fill="none" xmlns="http://www.w3.org/2000/svg">
<circle cx="315.5" cy="315" r="310" fill="white" stroke="#E66534" stroke-width="10"/>
<path d="M516.148 419.016H354.548C354.055 432.219 344.744 440.344 332.727 440.344H292.203C279.746 440.344 270.195 428.7 270.362 419.016H110.914C105.049 419.016 100.25 423.814 100.25 429.68V440.344C100.25 463.805 119.445 483 142.906 483H484.156C507.617 483 526.812 463.805 526.812 440.344V429.68C526.812 423.814 522.014 419.016 516.148 419.016ZM484.156 173.742C484.156 156.146 469.76 141.75 452.164 141.75H174.898C157.303 141.75 142.906 156.146 142.906 173.742V397.688H484.156V173.742ZM441.5 355.031H185.562V184.406H441.5V355.031Z" fill="#E66534"/>
</svg>
