<svg width="630" height="630" viewBox="0 0 630 630" fill="none" xmlns="http://www.w3.org/2000/svg">
<circle cx="315" cy="315" r="310" fill="white" stroke="#E66534" stroke-width="10"/>
<path d="M480.155 214.464C478.662 208.446 471.131 206.406 466.745 210.792L417.184 260.353L371.942 252.815L364.404 207.573L413.965 158.012C418.377 153.599 416.251 146.081 410.192 144.575C378.613 136.75 343.842 145.182 319.161 169.855C292.741 196.276 285.47 234.573 296.467 267.965L154.242 410.19C137.586 426.845 137.586 453.852 154.242 470.508C170.898 487.164 197.905 487.164 214.56 470.508L356.665 328.403C390.071 339.54 428.294 332.189 454.888 305.595C479.595 280.888 488.013 246.063 480.155 214.464V214.464ZM184.408 456.338C175.577 456.338 168.412 449.173 168.412 440.342C168.412 431.504 175.577 424.346 184.408 424.346C193.239 424.346 200.404 431.504 200.404 440.342C200.404 449.173 193.239 456.338 184.408 456.338Z" fill="#E66534"/>
</svg>
