<svg width="631" height="630" viewBox="0 0 631 630" fill="none" xmlns="http://www.w3.org/2000/svg">
<circle cx="315.75" cy="315" r="310" fill="white" stroke="#E66534" stroke-width="10"/>
<path d="M479.6 236.414L448.873 267.141C445.74 270.274 440.674 270.274 437.542 267.141L363.557 193.156C360.424 190.023 360.424 184.958 363.557 181.825L394.284 151.098C406.748 138.634 427.01 138.634 439.541 151.098L479.6 191.157C492.13 203.621 492.13 223.883 479.6 236.414ZM337.162 208.22L162.131 383.251L148.001 464.234C146.068 475.165 155.599 484.63 166.53 482.764L247.514 468.567L422.545 293.536C425.677 290.403 425.677 285.337 422.545 282.205L348.56 208.22C345.36 205.087 340.295 205.087 337.162 208.22V208.22ZM230.451 368.254C226.785 364.588 226.785 358.722 230.451 355.056L333.096 252.411C336.762 248.745 342.628 248.745 346.294 252.411C349.96 256.077 349.96 261.942 346.294 265.608L243.648 368.254C239.982 371.92 234.117 371.92 230.451 368.254V368.254ZM206.389 424.309H238.382V448.504L195.391 456.036L174.662 435.307L182.194 392.315H206.389V424.309Z" fill="#E66534"/>
</svg>
