<svg width="375" height="667" viewBox="0 0 375 667" fill="none" xmlns="http://www.w3.org/2000/svg">
<rect width="375" height="667" fill="#9D9FA2"/>
<rect width="375" height="667" fill="white"/>
<path d="M36.34 194.544H35.188L34.9 196.164C34.864 196.38 34.792 196.434 34.648 196.488C33.964 196.776 32.938 196.866 32.128 196.866C29.32 196.866 27.592 194.994 27.592 191.484C27.592 187.956 29.428 186.084 32.254 186.084C33.1 186.084 33.91 186.264 34.54 186.48C34.72 186.534 34.756 186.642 34.774 186.804L35.08 188.514L36.304 188.586V185.706C35.404 185.112 33.91 184.734 32.326 184.734C28.006 184.734 25.864 187.578 25.864 191.484C25.864 195.444 27.628 198.216 32.02 198.216C33.676 198.216 35.368 197.91 36.34 197.262V194.544ZM46.612 198V197.028L45.694 196.902C45.424 196.866 45.406 196.83 45.406 196.542V191.772C45.406 189.288 44.542 188.568 41.986 188.568C40.564 188.568 38.512 188.82 38.512 191.034L40.06 191.196C40.078 189.846 40.87 189.81 41.968 189.81C43.534 189.81 43.786 190.458 43.786 191.772V192.726L41.356 192.924C39.196 193.104 38.08 193.95 38.08 195.75C38.08 196.668 38.368 198.216 40.618 198.216C42.004 198.216 43.012 197.622 43.876 196.812L43.93 196.83L44.092 198H46.612ZM43.786 195.552C43.228 196.074 42.094 196.938 41.032 196.938C40.186 196.938 39.772 196.542 39.772 195.57C39.772 194.634 40.204 194.184 41.752 194.04L43.786 193.86V195.552ZM51.9402 198V197.028L50.8602 196.902C50.5902 196.866 50.5722 196.83 50.5722 196.542V184.41H47.7822L47.6202 185.364L48.7002 185.706C48.8802 185.76 48.9342 185.886 48.9342 186.084V196.542C48.9342 196.812 48.8982 196.884 48.6462 196.902L47.5302 197.01V198H51.9402ZM60.128 196.182C59.174 196.65 58.544 196.83 57.536 196.83C55.574 196.83 54.836 195.588 54.782 193.77H60.83C60.848 193.464 60.866 193.104 60.866 192.87C60.866 189.756 59.354 188.568 57.158 188.568C54.89 188.568 53.054 190.098 53.054 193.392C53.054 196.074 54.116 198.216 57.374 198.216C58.67 198.216 59.75 197.91 60.65 197.406L60.128 196.182ZM54.8 192.528C54.944 190.53 55.952 189.882 57.158 189.882C58.256 189.882 59.192 190.476 59.228 192.528H54.8ZM72.4173 198V197.028L71.3913 196.902C71.1213 196.866 71.1033 196.83 71.1033 196.542V191.862C71.1033 189.9 70.3293 188.568 68.2593 188.568C66.9633 188.568 65.8653 189.162 64.9293 189.828L64.8753 189.81L64.7313 188.748H62.3733L62.2113 189.702L63.2373 190.044C63.4173 190.098 63.4713 190.224 63.4713 190.422V196.542C63.4713 196.812 63.4353 196.866 63.1833 196.902L62.2833 197.01V198H66.4053V197.028L65.3973 196.902C65.1273 196.866 65.1093 196.83 65.1093 196.542V191.124C65.9013 190.476 66.8733 189.972 67.8993 189.972C69.2313 189.972 69.4653 191.106 69.4653 192.276V196.542C69.4653 196.794 69.3753 196.884 69.1413 196.902L68.2773 197.01V198H72.4173ZM83.0532 198V197.028L82.1352 196.902C81.8652 196.866 81.8472 196.83 81.8472 196.542V184.41H79.0932L78.9312 185.364L80.0112 185.706C80.1732 185.76 80.2452 185.886 80.2452 186.066V189.432C79.5432 188.928 78.5712 188.568 77.4912 188.568C75.3312 188.568 73.7292 190.026 73.7292 193.572C73.7292 196.884 75.0792 198.216 77.1312 198.216C78.5352 198.216 79.4712 197.586 80.2992 196.794L80.3712 196.812L80.5152 198H83.0532ZM80.2092 195.354C79.4172 196.146 78.5532 196.848 77.4912 196.848C76.2312 196.848 75.3852 196.038 75.3852 193.536C75.3852 191.394 76.0512 189.918 77.7432 189.918C78.6972 189.918 79.6692 190.44 80.2092 190.89V195.354ZM92.9127 198V197.028L91.9947 196.902C91.7247 196.866 91.7067 196.83 91.7067 196.542V191.772C91.7067 189.288 90.8427 188.568 88.2867 188.568C86.8647 188.568 84.8127 188.82 84.8127 191.034L86.3607 191.196C86.3787 189.846 87.1707 189.81 88.2687 189.81C89.8347 189.81 90.0867 190.458 90.0867 191.772V192.726L87.6567 192.924C85.4967 193.104 84.3807 193.95 84.3807 195.75C84.3807 196.668 84.6687 198.216 86.9187 198.216C88.3047 198.216 89.3127 197.622 90.1767 196.812L90.2307 196.83L90.3927 198H92.9127ZM90.0867 195.552C89.5287 196.074 88.3947 196.938 87.3327 196.938C86.4867 196.938 86.0727 196.542 86.0727 195.57C86.0727 194.634 86.5047 194.184 88.0527 194.04L90.0867 193.86V195.552ZM98.817 198V197.028L97.161 196.884C96.891 196.866 96.873 196.812 96.873 196.524V191.106C97.287 190.71 98.205 189.972 99.015 189.972C99.177 189.972 99.213 190.008 99.231 190.152L99.447 191.394L100.725 191.448V188.73C100.401 188.64 99.843 188.568 99.429 188.568C98.205 188.568 97.323 189.342 96.729 190.008L96.675 189.99L96.495 188.748H94.137L93.975 189.702L95.001 190.044C95.181 190.098 95.235 190.224 95.235 190.422V196.542C95.235 196.812 95.199 196.866 94.947 196.902L94.047 197.01V198H98.817ZM35.53 238V234.904H34.324L34.036 236.524C34 236.704 33.946 236.722 33.748 236.722H29.176V226.444C29.176 226.192 29.194 226.12 29.464 226.102L30.958 225.958V224.968H26.098V225.958L27.232 226.084C27.484 226.102 27.52 226.174 27.52 226.444V236.542C27.52 236.812 27.484 236.866 27.232 236.902L26.098 237.028V238H35.53ZM39.8165 225.598C39.8165 224.878 39.4025 224.464 38.6645 224.464C37.9265 224.464 37.4945 224.878 37.4945 225.598C37.4945 226.336 37.9265 226.75 38.6645 226.75C39.4025 226.75 39.8165 226.336 39.8165 225.598ZM41.1665 238V237.028L40.0145 236.902C39.7445 236.866 39.7265 236.83 39.7265 236.542V228.748H36.9905L36.8285 229.702L37.8545 230.044C38.0345 230.098 38.0885 230.224 38.0885 230.422V236.542C38.0885 236.812 38.0525 236.884 37.8005 236.902L36.6125 237.01V238H41.1665ZM47.3467 238L50.3707 230.152C50.4607 229.936 50.5687 229.9 50.8207 229.846L51.4147 229.738V228.748H47.9227L47.7247 229.738L48.9307 229.882L46.4647 236.596L44.0347 229.882L45.2767 229.738V228.748H41.4967L41.2807 229.738L42.0547 229.9C42.2707 229.954 42.3427 229.99 42.4327 230.206L45.4747 238H47.3467ZM55.2501 225.598C55.2501 224.878 54.8361 224.464 54.0981 224.464C53.3601 224.464 52.9281 224.878 52.9281 225.598C52.9281 226.336 53.3601 226.75 54.0981 226.75C54.8361 226.75 55.2501 226.336 55.2501 225.598ZM56.6001 238V237.028L55.4481 236.902C55.1781 236.866 55.1601 236.83 55.1601 236.542V228.748H52.4241L52.2621 229.702L53.2881 230.044C53.4681 230.098 53.5221 230.224 53.5221 230.422V236.542C53.5221 236.812 53.4861 236.884 53.2341 236.902L52.0461 237.01V238H56.6001ZM67.8119 238V237.028L66.7859 236.902C66.5159 236.866 66.4979 236.83 66.4979 236.542V231.862C66.4979 229.9 65.7239 228.568 63.6539 228.568C62.3579 228.568 61.2599 229.162 60.3239 229.828L60.2699 229.81L60.1259 228.748H57.7679L57.6059 229.702L58.6319 230.044C58.8119 230.098 58.8659 230.224 58.8659 230.422V236.542C58.8659 236.812 58.8299 236.866 58.5779 236.902L57.6779 237.01V238H61.7999V237.028L60.7919 236.902C60.5219 236.866 60.5039 236.83 60.5039 236.542V231.124C61.2959 230.476 62.2679 229.972 63.2939 229.972C64.6259 229.972 64.8599 231.106 64.8599 232.276V236.542C64.8599 236.794 64.7699 236.884 64.5359 236.902L63.6719 237.01V238H67.8119ZM77.8898 229.9V228.748H74.6858C74.3078 228.64 73.7318 228.568 73.0838 228.568C70.6358 228.568 69.1778 229.972 69.1778 231.988C69.1778 233.212 69.7358 234.112 70.5278 234.544C70.2038 234.976 69.8258 235.426 69.5378 235.84C69.2858 236.218 69.1418 236.524 69.1418 236.83C69.1418 237.316 69.4298 237.64 69.9338 237.802C69.3218 238.432 68.8358 238.954 68.8358 239.836C68.8358 241.204 69.9158 242.05 73.0298 242.05C76.1618 242.05 77.6918 240.934 77.6918 239.152C77.6918 237.028 76.2338 236.866 72.9938 236.686L70.7798 236.56L71.5898 234.994C71.9678 235.138 72.5078 235.21 73.1198 235.21C75.2258 235.21 76.8638 234.022 76.8638 231.898C76.8638 231.052 76.5758 230.494 76.1978 230.026L77.8898 229.9ZM75.2618 231.826C75.2618 233.068 74.4158 233.86 73.0658 233.86C71.4818 233.86 70.8698 232.996 70.8698 231.934C70.8698 230.53 71.8058 229.882 73.1198 229.882C74.4698 229.882 75.2618 230.602 75.2618 231.826ZM74.1458 238.252C75.3158 238.36 76.0178 238.432 76.0178 239.278C76.0178 240.646 74.1818 240.79 73.2278 240.79C71.4638 240.772 70.4558 240.556 70.4558 239.584C70.4558 238.954 70.9238 238.432 71.2478 238.09L74.1458 238.252ZM94.155 238V237.028L93.165 236.866C92.931 236.812 92.841 236.758 92.697 236.596L91.419 235.084C91.779 234.328 92.049 233.338 92.193 232.456C92.229 232.222 92.301 232.168 92.517 232.132L93.327 231.988V231.034H90.969C90.897 232.006 90.753 232.816 90.357 233.968L87.927 231.088C86.793 229.738 86.433 229.234 86.433 228.406C86.433 227.668 86.919 227.182 87.945 227.182C88.341 227.182 88.683 227.218 88.953 227.326C89.133 227.38 89.187 227.47 89.223 227.65L89.439 228.874L90.645 228.928V226.498C90.231 226.264 89.025 225.868 87.891 225.868C86.199 225.868 84.867 226.786 84.867 228.55C84.867 229.36 85.299 230.206 85.803 230.818C83.751 231.376 82.671 232.708 82.671 234.598C82.671 236.812 84.219 238.216 86.523 238.216C88.143 238.216 89.439 237.658 90.519 236.326L91.905 238H94.155ZM89.565 235.282C88.827 236.344 87.801 236.866 86.703 236.866C84.975 236.866 84.273 235.696 84.273 234.562C84.273 232.978 85.245 232.132 86.649 231.862L89.565 235.282ZM109.323 238V234.904H108.117L107.829 236.524C107.793 236.704 107.739 236.722 107.541 236.722H102.969V226.444C102.969 226.192 102.987 226.12 103.257 226.102L104.751 225.958V224.968H99.891V225.958L101.025 226.084C101.277 226.102 101.313 226.174 101.313 226.444V236.542C101.313 236.812 101.277 236.866 101.025 236.902L99.891 237.028V238H109.323ZM117.732 236.182C116.778 236.65 116.148 236.83 115.14 236.83C113.178 236.83 112.44 235.588 112.386 233.77H118.434C118.452 233.464 118.47 233.104 118.47 232.87C118.47 229.756 116.958 228.568 114.762 228.568C112.494 228.568 110.658 230.098 110.658 233.392C110.658 236.074 111.72 238.216 114.978 238.216C116.274 238.216 117.354 237.91 118.254 237.406L117.732 236.182ZM112.404 232.528C112.548 230.53 113.556 229.882 114.762 229.882C115.86 229.882 116.796 230.476 116.832 232.528H112.404ZM128.262 238V237.028L127.344 236.902C127.074 236.866 127.056 236.83 127.056 236.542V231.772C127.056 229.288 126.192 228.568 123.636 228.568C122.214 228.568 120.162 228.82 120.162 231.034L121.71 231.196C121.728 229.846 122.52 229.81 123.618 229.81C125.184 229.81 125.436 230.458 125.436 231.772V232.726L123.006 232.924C120.846 233.104 119.73 233.95 119.73 235.75C119.73 236.668 120.018 238.216 122.268 238.216C123.654 238.216 124.662 237.622 125.526 236.812L125.58 236.83L125.742 238H128.262ZM125.436 235.552C124.878 236.074 123.744 236.938 122.682 236.938C121.836 236.938 121.422 236.542 121.422 235.57C121.422 234.634 121.854 234.184 123.402 234.04L125.436 233.86V235.552ZM134.167 238V237.028L132.511 236.884C132.241 236.866 132.223 236.812 132.223 236.524V231.106C132.637 230.71 133.555 229.972 134.365 229.972C134.527 229.972 134.563 230.008 134.581 230.152L134.797 231.394L136.075 231.448V228.73C135.751 228.64 135.193 228.568 134.779 228.568C133.555 228.568 132.673 229.342 132.079 230.008L132.025 229.99L131.845 228.748H129.487L129.325 229.702L130.351 230.044C130.531 230.098 130.585 230.224 130.585 230.422V236.542C130.585 236.812 130.549 236.866 130.297 236.902L129.397 237.01V238H134.167ZM147.318 238V237.028L146.292 236.902C146.022 236.866 146.004 236.83 146.004 236.542V231.862C146.004 229.9 145.23 228.568 143.16 228.568C141.864 228.568 140.766 229.162 139.83 229.828L139.776 229.81L139.632 228.748H137.274L137.112 229.702L138.138 230.044C138.318 230.098 138.372 230.224 138.372 230.422V236.542C138.372 236.812 138.336 236.866 138.084 236.902L137.184 237.01V238H141.306V237.028L140.298 236.902C140.028 236.866 140.01 236.83 140.01 236.542V231.124C140.802 230.476 141.774 229.972 142.8 229.972C144.132 229.972 144.366 231.106 144.366 232.276V236.542C144.366 236.794 144.276 236.884 144.042 236.902L143.178 237.01V238H147.318ZM151.438 225.598C151.438 224.878 151.024 224.464 150.286 224.464C149.548 224.464 149.116 224.878 149.116 225.598C149.116 226.336 149.548 226.75 150.286 226.75C151.024 226.75 151.438 226.336 151.438 225.598ZM152.788 238V237.028L151.636 236.902C151.366 236.866 151.348 236.83 151.348 236.542V228.748H148.612L148.45 229.702L149.476 230.044C149.656 230.098 149.71 230.224 149.71 230.422V236.542C149.71 236.812 149.674 236.884 149.422 236.902L148.234 237.01V238H152.788ZM163.999 238V237.028L162.973 236.902C162.703 236.866 162.685 236.83 162.685 236.542V231.862C162.685 229.9 161.911 228.568 159.841 228.568C158.545 228.568 157.447 229.162 156.511 229.828L156.457 229.81L156.313 228.748H153.955L153.793 229.702L154.819 230.044C154.999 230.098 155.053 230.224 155.053 230.422V236.542C155.053 236.812 155.017 236.866 154.765 236.902L153.865 237.01V238H157.987V237.028L156.979 236.902C156.709 236.866 156.691 236.83 156.691 236.542V231.124C157.483 230.476 158.455 229.972 159.481 229.972C160.813 229.972 161.047 231.106 161.047 232.276V236.542C161.047 236.794 160.957 236.884 160.723 236.902L159.859 237.01V238H163.999ZM174.077 229.9V228.748H170.873C170.495 228.64 169.919 228.568 169.271 228.568C166.823 228.568 165.365 229.972 165.365 231.988C165.365 233.212 165.923 234.112 166.715 234.544C166.391 234.976 166.013 235.426 165.725 235.84C165.473 236.218 165.329 236.524 165.329 236.83C165.329 237.316 165.617 237.64 166.121 237.802C165.509 238.432 165.023 238.954 165.023 239.836C165.023 241.204 166.103 242.05 169.217 242.05C172.349 242.05 173.879 240.934 173.879 239.152C173.879 237.028 172.421 236.866 169.181 236.686L166.967 236.56L167.777 234.994C168.155 235.138 168.695 235.21 169.307 235.21C171.413 235.21 173.051 234.022 173.051 231.898C173.051 231.052 172.763 230.494 172.385 230.026L174.077 229.9ZM171.449 231.826C171.449 233.068 170.603 233.86 169.253 233.86C167.669 233.86 167.057 232.996 167.057 231.934C167.057 230.53 167.993 229.882 169.307 229.882C170.657 229.882 171.449 230.602 171.449 231.826ZM170.333 238.252C171.503 238.36 172.205 238.432 172.205 239.278C172.205 240.646 170.369 240.79 169.415 240.79C167.651 240.772 166.643 240.556 166.643 239.584C166.643 238.954 167.111 238.432 167.435 238.09L170.333 238.252ZM185.141 238.216C189.263 238.216 191.315 235.462 191.315 231.214C191.315 227.596 189.479 224.734 185.393 224.734C181.289 224.734 179.129 227.596 179.129 231.412C179.129 235.39 180.965 238.216 185.141 238.216ZM185.231 236.83C182.585 236.83 180.839 235.03 180.839 231.412C180.839 227.956 182.711 226.12 185.357 226.12C187.967 226.12 189.605 227.938 189.605 231.394C189.605 235.102 187.841 236.83 185.231 236.83ZM203.111 238V237.028L202.085 236.902C201.815 236.866 201.797 236.83 201.797 236.542V231.862C201.797 229.9 201.023 228.568 198.953 228.568C197.657 228.568 196.559 229.162 195.623 229.828L195.569 229.81L195.425 228.748H193.067L192.905 229.702L193.931 230.044C194.111 230.098 194.165 230.224 194.165 230.422V236.542C194.165 236.812 194.129 236.866 193.877 236.902L192.977 237.01V238H197.099V237.028L196.091 236.902C195.821 236.866 195.803 236.83 195.803 236.542V231.124C196.595 230.476 197.567 229.972 198.593 229.972C199.925 229.972 200.159 231.106 200.159 232.276V236.542C200.159 236.794 200.069 236.884 199.835 236.902L198.971 237.01V238H203.111ZM208.509 238V237.028L207.429 236.902C207.159 236.866 207.141 236.83 207.141 236.542V224.41H204.351L204.189 225.364L205.269 225.706C205.449 225.76 205.503 225.886 205.503 226.084V236.542C205.503 236.812 205.467 236.884 205.215 236.902L204.099 237.01V238H208.509ZM212.574 225.598C212.574 224.878 212.16 224.464 211.422 224.464C210.684 224.464 210.252 224.878 210.252 225.598C210.252 226.336 210.684 226.75 211.422 226.75C212.16 226.75 212.574 226.336 212.574 225.598ZM213.924 238V237.028L212.772 236.902C212.502 236.866 212.484 236.83 212.484 236.542V228.748H209.748L209.586 229.702L210.612 230.044C210.792 230.098 210.846 230.224 210.846 230.422V236.542C210.846 236.812 210.81 236.884 210.558 236.902L209.37 237.01V238H213.924ZM225.136 238V237.028L224.11 236.902C223.84 236.866 223.822 236.83 223.822 236.542V231.862C223.822 229.9 223.048 228.568 220.978 228.568C219.682 228.568 218.584 229.162 217.648 229.828L217.594 229.81L217.45 228.748H215.092L214.93 229.702L215.956 230.044C216.136 230.098 216.19 230.224 216.19 230.422V236.542C216.19 236.812 216.154 236.866 215.902 236.902L215.002 237.01V238H219.124V237.028L218.116 236.902C217.846 236.866 217.828 236.83 217.828 236.542V231.124C218.62 230.476 219.592 229.972 220.618 229.972C221.95 229.972 222.184 231.106 222.184 232.276V236.542C222.184 236.794 222.094 236.884 221.86 236.902L220.996 237.01V238H225.136ZM233.378 236.182C232.424 236.65 231.794 236.83 230.786 236.83C228.824 236.83 228.086 235.588 228.032 233.77H234.08C234.098 233.464 234.116 233.104 234.116 232.87C234.116 229.756 232.604 228.568 230.408 228.568C228.14 228.568 226.304 230.098 226.304 233.392C226.304 236.074 227.366 238.216 230.624 238.216C231.92 238.216 233 237.91 233.9 237.406L233.378 236.182ZM228.05 232.528C228.194 230.53 229.202 229.882 230.408 229.882C231.506 229.882 232.442 230.476 232.478 232.528H228.05ZM34.162 268.424V265.364C33.55 265.13 32.326 264.734 30.814 264.734C28.312 264.734 26.296 265.832 26.296 268.406C26.296 271.124 28.402 271.592 30.22 272.132C31.624 272.546 32.866 273.014 32.866 274.598C32.866 276.164 31.768 276.866 29.932 276.866C28.888 276.866 28.186 276.65 27.916 276.56C27.664 276.47 27.61 276.398 27.556 276.164L27.214 274.58H26.008V277.532C26.566 277.802 28.15 278.216 29.788 278.216C32.362 278.216 34.558 277.208 34.558 274.418C34.558 271.718 32.524 271.124 30.724 270.566C29.284 270.116 27.988 269.684 27.988 268.19C27.988 266.912 28.888 266.102 30.742 266.102C31.678 266.102 32.2 266.264 32.452 266.408C32.542 266.462 32.596 266.534 32.65 266.786L32.92 268.316L34.162 268.424ZM42.0277 276.506C41.5417 276.704 40.9117 276.866 40.3537 276.866C39.3277 276.866 39.0577 276.434 39.0577 275.3V269.99H41.8477V268.748H39.2017C39.0577 268.748 39.0577 268.676 39.0577 268.568V266.372H37.9957C37.7617 268.208 37.3657 268.766 35.9617 268.946V269.99H37.2757C37.4197 269.99 37.4197 270.062 37.4197 270.17V275.786C37.4197 277.406 38.1937 278.216 39.9217 278.216C40.8397 278.216 41.7037 277.946 42.4237 277.658L42.0277 276.506ZM52.9709 278V277.028L52.0169 276.902C51.8189 276.884 51.7649 276.794 51.7649 276.524V268.748H49.0829L48.9389 269.72L49.8389 269.954C50.1089 270.008 50.1269 270.062 50.1269 270.35V275.318C49.4969 276.038 48.4529 276.884 47.2289 276.884C46.0949 276.884 45.8249 276.128 45.8249 274.562V268.748H43.1069L42.9629 269.72L43.8989 269.954C44.1689 270.008 44.1869 270.08 44.1869 270.368V274.94C44.1869 277.01 44.7989 278.216 46.7789 278.216C48.3629 278.216 49.4249 277.46 50.2529 276.758L50.2889 276.776L50.4329 278H52.9709ZM63.7349 278V277.028L62.8169 276.902C62.5469 276.866 62.5289 276.83 62.5289 276.542V264.41H59.7749L59.6129 265.364L60.6929 265.706C60.8549 265.76 60.9269 265.886 60.9269 266.066V269.432C60.2249 268.928 59.2529 268.568 58.1729 268.568C56.0129 268.568 54.4109 270.026 54.4109 273.572C54.4109 276.884 55.7609 278.216 57.8129 278.216C59.2169 278.216 60.1529 277.586 60.9809 276.794L61.0529 276.812L61.1969 278H63.7349ZM60.8909 275.354C60.0989 276.146 59.2349 276.848 58.1729 276.848C56.9129 276.848 56.0669 276.038 56.0669 273.536C56.0669 271.394 56.7329 269.918 58.4249 269.918C59.3789 269.918 60.3509 270.44 60.8909 270.89V275.354ZM72.0284 276.182C71.0744 276.65 70.4444 276.83 69.4364 276.83C67.4744 276.83 66.7364 275.588 66.6824 273.77H72.7304C72.7484 273.464 72.7664 273.104 72.7664 272.87C72.7664 269.756 71.2544 268.568 69.0584 268.568C66.7904 268.568 64.9544 270.098 64.9544 273.392C64.9544 276.074 66.0164 278.216 69.2744 278.216C70.5704 278.216 71.6504 277.91 72.5504 277.406L72.0284 276.182ZM66.7004 272.528C66.8444 270.53 67.8524 269.882 69.0584 269.882C70.1564 269.882 71.0924 270.476 71.1284 272.528H66.7004ZM84.3177 278V277.028L83.2917 276.902C83.0217 276.866 83.0037 276.83 83.0037 276.542V271.862C83.0037 269.9 82.2297 268.568 80.1597 268.568C78.8637 268.568 77.7657 269.162 76.8297 269.828L76.7757 269.81L76.6317 268.748H74.2737L74.1117 269.702L75.1377 270.044C75.3177 270.098 75.3717 270.224 75.3717 270.422V276.542C75.3717 276.812 75.3357 276.866 75.0837 276.902L74.1837 277.01V278H78.3057V277.028L77.2977 276.902C77.0277 276.866 77.0097 276.83 77.0097 276.542V271.124C77.8017 270.476 78.7737 269.972 79.7997 269.972C81.1317 269.972 81.3657 271.106 81.3657 272.276V276.542C81.3657 276.794 81.2757 276.884 81.0417 276.902L80.1777 277.01V278H84.3177ZM91.1937 276.506C90.7077 276.704 90.0777 276.866 89.5197 276.866C88.4937 276.866 88.2237 276.434 88.2237 275.3V269.99H91.0137V268.748H88.3677C88.2237 268.748 88.2237 268.676 88.2237 268.568V266.372H87.1617C86.9277 268.208 86.5317 268.766 85.1277 268.946V269.99H86.4417C86.5857 269.99 86.5857 270.062 86.5857 270.17V275.786C86.5857 277.406 87.3597 278.216 89.0877 278.216C90.0057 278.216 90.8697 277.946 91.5897 277.658L91.1937 276.506ZM103.196 278V277.028L100.55 276.884C100.28 276.848 100.262 276.812 100.262 276.524V272.024H104.996V270.728H100.262V266.246H104.366C104.564 266.246 104.636 266.3 104.672 266.48L104.924 267.866L106.148 267.938V264.968H97.1839V265.958L98.3179 266.084C98.5699 266.102 98.6059 266.174 98.6059 266.444V276.542C98.6059 276.812 98.5699 276.866 98.3179 276.902L97.1839 277.028V278H103.196ZM118.092 278V277.028L117.282 276.83C117.066 276.776 116.922 276.74 116.85 276.524L112.818 264.968H110.73L106.77 276.506C106.698 276.722 106.608 276.776 106.32 276.848L105.546 277.046V278H109.686V277.028L108.228 276.866L109.182 274.022H114.204L115.176 276.866L113.7 277.028V278H118.092ZM113.808 272.708H109.596L111.72 266.372L113.808 272.708ZM128.017 279.854C127.729 279.98 127.279 280.088 126.811 280.088C125.947 280.088 125.677 279.656 125.677 278.918C125.677 278.63 125.695 278.396 125.731 278.162C129.205 277.784 130.969 275.138 130.969 271.214C130.969 267.596 129.151 264.734 125.047 264.734C120.943 264.734 118.783 267.596 118.783 271.412C118.783 275.192 120.457 277.928 124.183 278.18C124.147 278.414 124.111 278.756 124.111 279.134C124.111 280.52 124.741 281.366 126.559 281.366C127.243 281.366 127.963 281.186 128.377 280.952L128.017 279.854ZM124.885 276.83C122.239 276.83 120.493 275.03 120.493 271.412C120.493 267.956 122.365 266.12 125.029 266.12C127.639 266.12 129.259 267.938 129.259 271.394C129.259 275.102 127.513 276.83 124.885 276.83ZM138.175 267.128L135.403 264.176L134.305 265.256L137.473 267.794L138.175 267.128ZM148.255 271.394V269.072C147.877 268.91 146.707 268.568 145.411 268.568C143.557 268.568 141.829 269.324 141.829 271.376C141.829 273.356 143.413 273.716 144.817 274.04C145.969 274.31 146.995 274.562 146.995 275.642C146.995 276.614 146.221 277.064 145.015 277.064C144.115 277.064 143.485 276.866 143.251 276.776C143.089 276.722 143.053 276.65 143.035 276.524L142.819 275.282L141.613 275.21V277.604C141.937 277.802 143.413 278.216 144.871 278.216C146.779 278.216 148.525 277.496 148.525 275.408C148.525 273.464 146.995 273.032 145.591 272.672C144.421 272.366 143.341 272.15 143.341 271.124C143.341 270.35 143.935 269.774 145.249 269.774C145.861 269.774 146.401 269.882 146.653 269.972C146.797 270.008 146.815 270.08 146.833 270.206L147.049 271.322L148.255 271.394ZM34.036 318V317.01L32.056 316.866C31.786 316.848 31.768 316.776 31.768 316.524V306.246H34.558C34.756 306.246 34.81 306.264 34.846 306.444L35.134 308.01H36.34V304.968H25.54V308.01H26.746L27.034 306.444C27.07 306.264 27.124 306.246 27.322 306.246H30.112V316.524C30.112 316.794 30.076 316.866 29.824 316.884L27.97 317.01V318H34.036ZM40.5548 305.598C40.5548 304.878 40.1408 304.464 39.4028 304.464C38.6648 304.464 38.2328 304.878 38.2328 305.598C38.2328 306.336 38.6648 306.75 39.4028 306.75C40.1408 306.75 40.5548 306.336 40.5548 305.598ZM41.9048 318V317.028L40.7528 316.902C40.4828 316.866 40.4648 316.83 40.4648 316.542V308.748H37.7288L37.5668 309.702L38.5928 310.044C38.7728 310.098 38.8268 310.224 38.8268 310.422V316.542C38.8268 316.812 38.7908 316.884 38.5388 316.902L37.3508 317.01V318H41.9048ZM47.7526 321.816V320.844L46.0606 320.7C45.7906 320.682 45.7726 320.628 45.7726 320.34V317.226C46.6186 317.964 47.4826 318.216 48.5086 318.216C51.3346 318.216 52.2526 315.732 52.2526 313.032C52.2526 309.864 50.8846 308.568 48.8686 308.568C47.6446 308.568 46.6366 309.072 45.6466 309.81L45.5926 309.792L45.4306 308.748H43.0546L42.8926 309.702L43.9186 310.044C44.0986 310.098 44.1526 310.224 44.1526 310.422V320.358C44.1526 320.628 44.0986 320.682 43.8466 320.718L43.1086 320.826V321.816H47.7526ZM45.7726 311.07C46.2946 310.656 47.3746 309.954 48.5266 309.954C49.6426 309.954 50.5966 310.728 50.5966 313.176C50.5966 315.444 49.9486 316.866 48.2386 316.866C47.2846 316.866 46.3846 316.29 45.7726 315.696V311.07ZM60.4698 311.394V309.072C60.0918 308.91 58.9218 308.568 57.6258 308.568C55.7718 308.568 54.0438 309.324 54.0438 311.376C54.0438 313.356 55.6278 313.716 57.0318 314.04C58.1838 314.31 59.2098 314.562 59.2098 315.642C59.2098 316.614 58.4358 317.064 57.2298 317.064C56.3298 317.064 55.6998 316.866 55.4658 316.776C55.3038 316.722 55.2678 316.65 55.2498 316.524L55.0338 315.282L53.8278 315.21V317.604C54.1518 317.802 55.6278 318.216 57.0858 318.216C58.9938 318.216 60.7398 317.496 60.7398 315.408C60.7398 313.464 59.2098 313.032 57.8058 312.672C56.6358 312.366 55.5558 312.15 55.5558 311.124C55.5558 310.35 56.1498 309.774 57.4638 309.774C58.0758 309.774 58.6158 309.882 58.8678 309.972C59.0118 310.008 59.0298 310.08 59.0478 310.206L59.2638 311.322L60.4698 311.394ZM77.4734 318V317.028L76.4834 316.866C76.2494 316.812 76.1594 316.758 76.0154 316.596L74.7374 315.084C75.0974 314.328 75.3674 313.338 75.5114 312.456C75.5474 312.222 75.6194 312.168 75.8354 312.132L76.6454 311.988V311.034H74.2874C74.2154 312.006 74.0714 312.816 73.6754 313.968L71.2454 311.088C70.1114 309.738 69.7514 309.234 69.7514 308.406C69.7514 307.668 70.2374 307.182 71.2634 307.182C71.6594 307.182 72.0014 307.218 72.2714 307.326C72.4514 307.38 72.5054 307.47 72.5414 307.65L72.7574 308.874L73.9634 308.928V306.498C73.5494 306.264 72.3434 305.868 71.2094 305.868C69.5174 305.868 68.1854 306.786 68.1854 308.55C68.1854 309.36 68.6174 310.206 69.1214 310.818C67.0694 311.376 65.9894 312.708 65.9894 314.598C65.9894 316.812 67.5374 318.216 69.8414 318.216C71.4614 318.216 72.7574 317.658 73.8374 316.326L75.2234 318H77.4734ZM72.8834 315.282C72.1454 316.344 71.1194 316.866 70.0214 316.866C68.2934 316.866 67.5914 315.696 67.5914 314.562C67.5914 312.978 68.5634 312.132 69.9674 311.862L72.8834 315.282ZM94.1713 318V317.046L93.0733 316.884C92.8033 316.848 92.6233 316.758 92.5153 316.47L91.2913 313.32C91.0213 312.654 90.8773 312.276 90.2833 312.006C91.7413 311.484 92.7853 310.422 92.7853 308.496C92.7853 306.768 91.9573 304.968 88.7173 304.968H83.2093V305.958L84.3433 306.084C84.5953 306.102 84.6313 306.174 84.6313 306.444V316.542C84.6313 316.812 84.5953 316.866 84.3433 316.902L83.2093 317.028V318H87.7453V317.028L86.5573 316.884C86.2873 316.848 86.2693 316.812 86.2693 316.524V312.438H88.2493C88.9693 312.438 89.2393 312.618 89.4733 313.194L90.9673 316.92L89.5453 317.028V318H94.1713ZM86.2693 311.142V306.282H87.6733C89.8693 306.282 91.0573 306.714 91.0573 308.55C91.0573 310.638 89.6353 311.142 87.9253 311.142H86.2693ZM102.052 316.182C101.098 316.65 100.468 316.83 99.4598 316.83C97.4978 316.83 96.7598 315.588 96.7058 313.77H102.754C102.772 313.464 102.79 313.104 102.79 312.87C102.79 309.756 101.278 308.568 99.0818 308.568C96.8138 308.568 94.9778 310.098 94.9778 313.392C94.9778 316.074 96.0398 318.216 99.2978 318.216C100.594 318.216 101.674 317.91 102.574 317.406L102.052 316.182ZM96.7238 312.528C96.8678 310.53 97.8758 309.882 99.0818 309.882C100.18 309.882 101.116 310.476 101.152 312.528H96.7238ZM110.796 311.394V309.072C110.418 308.91 109.248 308.568 107.952 308.568C106.098 308.568 104.37 309.324 104.37 311.376C104.37 313.356 105.954 313.716 107.358 314.04C108.51 314.31 109.536 314.562 109.536 315.642C109.536 316.614 108.762 317.064 107.556 317.064C106.656 317.064 106.026 316.866 105.792 316.776C105.63 316.722 105.594 316.65 105.576 316.524L105.36 315.282L104.154 315.21V317.604C104.478 317.802 105.954 318.216 107.412 318.216C109.32 318.216 111.066 317.496 111.066 315.408C111.066 313.464 109.536 313.032 108.132 312.672C106.962 312.366 105.882 312.15 105.882 311.124C105.882 310.35 106.476 309.774 107.79 309.774C108.402 309.774 108.942 309.882 109.194 309.972C109.338 310.008 109.356 310.08 109.374 310.206L109.59 311.322L110.796 311.394ZM116.753 318.216C119.831 318.216 121.199 316.254 121.199 313.23C121.199 310.53 120.011 308.568 116.933 308.568C113.855 308.568 112.415 310.512 112.415 313.338C112.415 316.2 113.621 318.216 116.753 318.216ZM116.807 316.902C115.025 316.902 114.107 315.75 114.107 313.356C114.107 310.98 115.133 309.936 116.897 309.936C118.643 309.936 119.507 310.98 119.507 313.338C119.507 315.804 118.553 316.902 116.807 316.902ZM132.6 318V317.028L131.646 316.902C131.448 316.884 131.394 316.794 131.394 316.524V308.748H128.712L128.568 309.72L129.468 309.954C129.738 310.008 129.756 310.062 129.756 310.35V315.318C129.126 316.038 128.082 316.884 126.858 316.884C125.724 316.884 125.454 316.128 125.454 314.562V308.748H122.736L122.592 309.72L123.528 309.954C123.798 310.008 123.816 310.08 123.816 310.368V314.94C123.816 317.01 124.428 318.216 126.408 318.216C127.992 318.216 129.054 317.46 129.882 316.758L129.918 316.776L130.062 318H132.6ZM138.737 318V317.028L137.081 316.884C136.811 316.866 136.793 316.812 136.793 316.524V311.106C137.207 310.71 138.125 309.972 138.935 309.972C139.097 309.972 139.133 310.008 139.151 310.152L139.367 311.394L140.645 311.448V308.73C140.321 308.64 139.763 308.568 139.349 308.568C138.125 308.568 137.243 309.342 136.649 310.008L136.595 309.99L136.415 308.748H134.057L133.895 309.702L134.921 310.044C135.101 310.098 135.155 310.224 135.155 310.422V316.542C135.155 316.812 135.119 316.866 134.867 316.902L133.967 317.01V318H138.737ZM148.561 316.272C148.057 316.578 147.157 316.866 146.257 316.866C144.511 316.866 143.323 315.894 143.323 313.374C143.323 310.8 144.601 309.864 146.203 309.864C146.707 309.864 147.175 309.936 147.427 310.026C147.589 310.08 147.625 310.152 147.643 310.278L147.859 311.466L149.065 311.52V309.126C148.669 308.928 147.643 308.568 146.329 308.568C143.593 308.568 141.613 310.062 141.613 313.482C141.613 316.326 142.927 318.216 146.005 318.216C147.193 318.216 148.399 317.91 149.083 317.46L148.561 316.272ZM157.247 316.182C156.293 316.65 155.663 316.83 154.655 316.83C152.693 316.83 151.955 315.588 151.901 313.77H157.949C157.967 313.464 157.985 313.104 157.985 312.87C157.985 309.756 156.473 308.568 154.277 308.568C152.009 308.568 150.173 310.098 150.173 313.392C150.173 316.074 151.235 318.216 154.493 318.216C155.789 318.216 156.869 317.91 157.769 317.406L157.247 316.182ZM151.919 312.528C152.063 310.53 153.071 309.882 154.277 309.882C155.375 309.882 156.311 310.476 156.347 312.528H151.919ZM165.991 311.394V309.072C165.613 308.91 164.443 308.568 163.147 308.568C161.293 308.568 159.565 309.324 159.565 311.376C159.565 313.356 161.149 313.716 162.553 314.04C163.705 314.31 164.731 314.562 164.731 315.642C164.731 316.614 163.957 317.064 162.751 317.064C161.851 317.064 161.221 316.866 160.987 316.776C160.825 316.722 160.789 316.65 160.771 316.524L160.555 315.282L159.349 315.21V317.604C159.673 317.802 161.149 318.216 162.607 318.216C164.515 318.216 166.261 317.496 166.261 315.408C166.261 313.464 164.731 313.032 163.327 312.672C162.157 312.366 161.077 312.15 161.077 311.124C161.077 310.35 161.671 309.774 162.985 309.774C163.597 309.774 164.137 309.882 164.389 309.972C164.533 310.008 164.551 310.08 164.569 310.206L164.785 311.322L165.991 311.394ZM31.912 358.216C36.034 358.216 38.086 355.462 38.086 351.214C38.086 347.596 36.25 344.734 32.164 344.734C28.06 344.734 25.9 347.596 25.9 351.412C25.9 355.39 27.736 358.216 31.912 358.216ZM32.002 356.83C29.356 356.83 27.61 355.03 27.61 351.412C27.61 347.956 29.482 346.12 32.128 346.12C34.738 346.12 36.376 347.938 36.376 351.394C36.376 355.102 34.612 356.83 32.002 356.83ZM49.8822 358V357.028L48.8562 356.902C48.5862 356.866 48.5682 356.83 48.5682 356.542V351.862C48.5682 349.9 47.7942 348.568 45.7242 348.568C44.4282 348.568 43.3302 349.162 42.3942 349.828L42.3402 349.81L42.1962 348.748H39.8382L39.6762 349.702L40.7022 350.044C40.8822 350.098 40.9362 350.224 40.9362 350.422V356.542C40.9362 356.812 40.9002 356.866 40.6482 356.902L39.7482 357.01V358H43.8702V357.028L42.8622 356.902C42.5922 356.866 42.5742 356.83 42.5742 356.542V351.124C43.3662 350.476 44.3382 349.972 45.3642 349.972C46.6962 349.972 46.9302 351.106 46.9302 352.276V356.542C46.9302 356.794 46.8402 356.884 46.6062 356.902L45.7422 357.01V358H49.8822ZM55.2801 358V357.028L54.2001 356.902C53.9301 356.866 53.9121 356.83 53.9121 356.542V344.41H51.1221L50.9601 345.364L52.0401 345.706C52.2201 345.76 52.2741 345.886 52.2741 346.084V356.542C52.2741 356.812 52.2381 356.884 51.9861 356.902L50.8701 357.01V358H55.2801ZM59.3458 345.598C59.3458 344.878 58.9318 344.464 58.1938 344.464C57.4558 344.464 57.0238 344.878 57.0238 345.598C57.0238 346.336 57.4558 346.75 58.1938 346.75C58.9318 346.75 59.3458 346.336 59.3458 345.598ZM60.6958 358V357.028L59.5438 356.902C59.2738 356.866 59.2558 356.83 59.2558 356.542V348.748H56.5198L56.3578 349.702L57.3838 350.044C57.5638 350.098 57.6178 350.224 57.6178 350.422V356.542C57.6178 356.812 57.5818 356.884 57.3298 356.902L56.1418 357.01V358H60.6958ZM71.9076 358V357.028L70.8816 356.902C70.6116 356.866 70.5936 356.83 70.5936 356.542V351.862C70.5936 349.9 69.8196 348.568 67.7496 348.568C66.4536 348.568 65.3556 349.162 64.4196 349.828L64.3656 349.81L64.2216 348.748H61.8636L61.7016 349.702L62.7276 350.044C62.9076 350.098 62.9616 350.224 62.9616 350.422V356.542C62.9616 356.812 62.9256 356.866 62.6736 356.902L61.7736 357.01V358H65.8956V357.028L64.8876 356.902C64.6176 356.866 64.5996 356.83 64.5996 356.542V351.124C65.3916 350.476 66.3636 349.972 67.3896 349.972C68.7216 349.972 68.9556 351.106 68.9556 352.276V356.542C68.9556 356.794 68.8656 356.884 68.6316 356.902L67.7676 357.01V358H71.9076ZM80.1495 356.182C79.1955 356.65 78.5655 356.83 77.5575 356.83C75.5955 356.83 74.8575 355.588 74.8035 353.77H80.8515C80.8695 353.464 80.8875 353.104 80.8875 352.87C80.8875 349.756 79.3755 348.568 77.1795 348.568C74.9115 348.568 73.0755 350.098 73.0755 353.392C73.0755 356.074 74.1375 358.216 77.3955 358.216C78.6915 358.216 79.7715 357.91 80.6715 357.406L80.1495 356.182ZM74.8215 352.528C74.9655 350.53 75.9735 349.882 77.1795 349.882C78.2775 349.882 79.2135 350.476 79.2495 352.528H74.8215ZM96.0691 358V354.904H94.8631L94.5751 356.524C94.5391 356.704 94.4851 356.722 94.2871 356.722H89.7151V346.444C89.7151 346.192 89.7331 346.12 90.0031 346.102L91.4971 345.958V344.968H86.6371V345.958L87.7711 346.084C88.0231 346.102 88.0591 346.174 88.0591 346.444V356.542C88.0591 356.812 88.0231 356.866 87.7711 356.902L86.6371 357.028V358H96.0691ZM104.478 356.182C103.524 356.65 102.894 356.83 101.886 356.83C99.9236 356.83 99.1856 355.588 99.1316 353.77H105.18C105.198 353.464 105.216 353.104 105.216 352.87C105.216 349.756 103.704 348.568 101.508 348.568C99.2396 348.568 97.4036 350.098 97.4036 353.392C97.4036 356.074 98.4656 358.216 101.724 358.216C103.02 358.216 104.1 357.91 105 357.406L104.478 356.182ZM99.1496 352.528C99.2936 350.53 100.302 349.882 101.508 349.882C102.606 349.882 103.542 350.476 103.578 352.528H99.1496ZM115.008 358V357.028L114.09 356.902C113.82 356.866 113.802 356.83 113.802 356.542V351.772C113.802 349.288 112.938 348.568 110.382 348.568C108.96 348.568 106.908 348.82 106.908 351.034L108.456 351.196C108.474 349.846 109.266 349.81 110.364 349.81C111.93 349.81 112.182 350.458 112.182 351.772V352.726L109.752 352.924C107.592 353.104 106.476 353.95 106.476 355.75C106.476 356.668 106.764 358.216 109.014 358.216C110.4 358.216 111.408 357.622 112.272 356.812L112.326 356.83L112.488 358H115.008ZM112.182 355.552C111.624 356.074 110.49 356.938 109.428 356.938C108.582 356.938 108.168 356.542 108.168 355.57C108.168 354.634 108.6 354.184 110.148 354.04L112.182 353.86V355.552ZM120.913 358V357.028L119.257 356.884C118.987 356.866 118.969 356.812 118.969 356.524V351.106C119.383 350.71 120.301 349.972 121.111 349.972C121.273 349.972 121.309 350.008 121.327 350.152L121.543 351.394L122.821 351.448V348.73C122.497 348.64 121.939 348.568 121.525 348.568C120.301 348.568 119.419 349.342 118.825 350.008L118.771 349.99L118.591 348.748H116.233L116.071 349.702L117.097 350.044C117.277 350.098 117.331 350.224 117.331 350.422V356.542C117.331 356.812 117.295 356.866 117.043 356.902L116.143 357.01V358H120.913ZM134.064 358V357.028L133.038 356.902C132.768 356.866 132.75 356.83 132.75 356.542V351.862C132.75 349.9 131.976 348.568 129.906 348.568C128.61 348.568 127.512 349.162 126.576 349.828L126.522 349.81L126.378 348.748H124.02L123.858 349.702L124.884 350.044C125.064 350.098 125.118 350.224 125.118 350.422V356.542C125.118 356.812 125.082 356.866 124.83 356.902L123.93 357.01V358H128.052V357.028L127.044 356.902C126.774 356.866 126.756 356.83 126.756 356.542V351.124C127.548 350.476 128.52 349.972 129.546 349.972C130.878 349.972 131.112 351.106 131.112 352.276V356.542C131.112 356.794 131.022 356.884 130.788 356.902L129.924 357.01V358H134.064ZM138.184 345.598C138.184 344.878 137.77 344.464 137.032 344.464C136.294 344.464 135.862 344.878 135.862 345.598C135.862 346.336 136.294 346.75 137.032 346.75C137.77 346.75 138.184 346.336 138.184 345.598ZM139.534 358V357.028L138.382 356.902C138.112 356.866 138.094 356.83 138.094 356.542V348.748H135.358L135.196 349.702L136.222 350.044C136.402 350.098 136.456 350.224 136.456 350.422V356.542C136.456 356.812 136.42 356.884 136.168 356.902L134.98 357.01V358H139.534ZM150.745 358V357.028L149.719 356.902C149.449 356.866 149.431 356.83 149.431 356.542V351.862C149.431 349.9 148.657 348.568 146.587 348.568C145.291 348.568 144.193 349.162 143.257 349.828L143.203 349.81L143.059 348.748H140.701L140.539 349.702L141.565 350.044C141.745 350.098 141.799 350.224 141.799 350.422V356.542C141.799 356.812 141.763 356.866 141.511 356.902L140.611 357.01V358H144.733V357.028L143.725 356.902C143.455 356.866 143.437 356.83 143.437 356.542V351.124C144.229 350.476 145.201 349.972 146.227 349.972C147.559 349.972 147.793 351.106 147.793 352.276V356.542C147.793 356.794 147.703 356.884 147.469 356.902L146.605 357.01V358H150.745ZM160.823 349.9V348.748H157.619C157.241 348.64 156.665 348.568 156.017 348.568C153.569 348.568 152.111 349.972 152.111 351.988C152.111 353.212 152.669 354.112 153.461 354.544C153.137 354.976 152.759 355.426 152.471 355.84C152.219 356.218 152.075 356.524 152.075 356.83C152.075 357.316 152.363 357.64 152.867 357.802C152.255 358.432 151.769 358.954 151.769 359.836C151.769 361.204 152.849 362.05 155.963 362.05C159.095 362.05 160.625 360.934 160.625 359.152C160.625 357.028 159.167 356.866 155.927 356.686L153.713 356.56L154.523 354.994C154.901 355.138 155.441 355.21 156.053 355.21C158.159 355.21 159.797 354.022 159.797 351.898C159.797 351.052 159.509 350.494 159.131 350.026L160.823 349.9ZM158.195 351.826C158.195 353.068 157.349 353.86 155.999 353.86C154.415 353.86 153.803 352.996 153.803 351.934C153.803 350.53 154.739 349.882 156.053 349.882C157.403 349.882 158.195 350.602 158.195 351.826ZM157.079 358.252C158.249 358.36 158.951 358.432 158.951 359.278C158.951 360.646 157.115 360.79 156.161 360.79C154.397 360.772 153.389 360.556 153.389 359.584C153.389 358.954 153.857 358.432 154.181 358.09L157.079 358.252ZM174.011 358V357.01L172.031 356.866C171.761 356.848 171.743 356.776 171.743 356.524V346.246H174.533C174.731 346.246 174.785 346.264 174.821 346.444L175.109 348.01H176.315V344.968H165.515V348.01H166.721L167.009 346.444C167.045 346.264 167.099 346.246 167.297 346.246H170.087V356.524C170.087 356.794 170.051 356.866 169.799 356.884L167.945 357.01V358H174.011ZM180.474 358.216C183.552 358.216 184.92 356.254 184.92 353.23C184.92 350.53 183.732 348.568 180.654 348.568C177.576 348.568 176.136 350.512 176.136 353.338C176.136 356.2 177.342 358.216 180.474 358.216ZM180.528 356.902C178.746 356.902 177.828 355.75 177.828 353.356C177.828 350.98 178.854 349.936 180.618 349.936C182.364 349.936 183.228 350.98 183.228 353.338C183.228 355.804 182.274 356.902 180.528 356.902ZM190.704 358.216C193.782 358.216 195.15 356.254 195.15 353.23C195.15 350.53 193.962 348.568 190.884 348.568C187.806 348.568 186.366 350.512 186.366 353.338C186.366 356.2 187.572 358.216 190.704 358.216ZM190.758 356.902C188.976 356.902 188.058 355.75 188.058 353.356C188.058 350.98 189.084 349.936 190.848 349.936C192.594 349.936 193.458 350.98 193.458 353.338C193.458 355.804 192.504 356.902 190.758 356.902ZM200.827 358V357.028L199.747 356.902C199.477 356.866 199.459 356.83 199.459 356.542V344.41H196.669L196.507 345.364L197.587 345.706C197.767 345.76 197.821 345.886 197.821 346.084V356.542C197.821 356.812 197.785 356.884 197.533 356.902L196.417 357.01V358H200.827ZM208.601 351.394V349.072C208.223 348.91 207.053 348.568 205.757 348.568C203.903 348.568 202.175 349.324 202.175 351.376C202.175 353.356 203.759 353.716 205.163 354.04C206.315 354.31 207.341 354.562 207.341 355.642C207.341 356.614 206.567 357.064 205.361 357.064C204.461 357.064 203.831 356.866 203.597 356.776C203.435 356.722 203.399 356.65 203.381 356.524L203.165 355.282L201.959 355.21V357.604C202.283 357.802 203.759 358.216 205.217 358.216C207.125 358.216 208.871 357.496 208.871 355.408C208.871 353.464 207.341 353.032 205.937 352.672C204.767 352.366 203.687 352.15 203.687 351.124C203.687 350.35 204.281 349.774 205.595 349.774C206.207 349.774 206.747 349.882 206.999 349.972C207.143 350.008 207.161 350.08 207.179 350.206L207.395 351.322L208.601 351.394ZM37.69 398V397.028L36.88 396.83C36.664 396.776 36.52 396.74 36.448 396.524L32.416 384.968H30.328L26.368 396.506C26.296 396.722 26.206 396.776 25.918 396.848L25.144 397.046V398H29.284V397.028L27.826 396.866L28.78 394.022H33.802L34.774 396.866L33.298 397.028V398H37.69ZM33.406 392.708H29.194L31.318 386.372L33.406 392.708ZM43.358 401.816V400.844L41.666 400.7C41.396 400.682 41.378 400.628 41.378 400.34V397.226C42.224 397.964 43.088 398.216 44.114 398.216C46.94 398.216 47.858 395.732 47.858 393.032C47.858 389.864 46.49 388.568 44.474 388.568C43.25 388.568 42.242 389.072 41.252 389.81L41.198 389.792L41.036 388.748H38.66L38.498 389.702L39.524 390.044C39.704 390.098 39.758 390.224 39.758 390.422V400.358C39.758 400.628 39.704 400.682 39.452 400.718L38.714 400.826V401.816H43.358ZM41.378 391.07C41.9 390.656 42.98 389.954 44.132 389.954C45.248 389.954 46.202 390.728 46.202 393.176C46.202 395.444 45.554 396.866 43.844 396.866C42.89 396.866 41.99 396.29 41.378 395.696V391.07ZM54.2565 401.816V400.844L52.5645 400.7C52.2945 400.682 52.2765 400.628 52.2765 400.34V397.226C53.1225 397.964 53.9865 398.216 55.0125 398.216C57.8385 398.216 58.7565 395.732 58.7565 393.032C58.7565 389.864 57.3885 388.568 55.3725 388.568C54.1485 388.568 53.1405 389.072 52.1505 389.81L52.0965 389.792L51.9345 388.748H49.5585L49.3965 389.702L50.4225 390.044C50.6025 390.098 50.6565 390.224 50.6565 390.422V400.358C50.6565 400.628 50.6025 400.682 50.3505 400.718L49.6125 400.826V401.816H54.2565ZM52.2765 391.07C52.7985 390.656 53.8785 389.954 55.0305 389.954C56.1465 389.954 57.1005 390.728 57.1005 393.176C57.1005 395.444 56.4525 396.866 54.7425 396.866C53.7885 396.866 52.8885 396.29 52.2765 395.696V391.07ZM66.9738 391.394V389.072C66.5958 388.91 65.4258 388.568 64.1298 388.568C62.2758 388.568 60.5478 389.324 60.5478 391.376C60.5478 393.356 62.1318 393.716 63.5358 394.04C64.6878 394.31 65.7138 394.562 65.7138 395.642C65.7138 396.614 64.9398 397.064 63.7338 397.064C62.8338 397.064 62.2038 396.866 61.9697 396.776C61.8078 396.722 61.7718 396.65 61.7538 396.524L61.5378 395.282L60.3318 395.21V397.604C60.6558 397.802 62.1318 398.216 63.5898 398.216C65.4978 398.216 67.2438 397.496 67.2438 395.408C67.2438 393.464 65.7138 393.032 64.3098 392.672C63.1398 392.366 62.0598 392.15 62.0598 391.124C62.0598 390.35 62.6538 389.774 63.9678 389.774C64.5798 389.774 65.1198 389.882 65.3718 389.972C65.5158 390.008 65.5338 390.08 65.5518 390.206L65.7678 391.322L66.9738 391.394ZM83.9773 398V397.028L82.9873 396.866C82.7533 396.812 82.6633 396.758 82.5193 396.596L81.2413 395.084C81.6013 394.328 81.8713 393.338 82.0153 392.456C82.0513 392.222 82.1233 392.168 82.3393 392.132L83.1493 391.988V391.034H80.7913C80.7193 392.006 80.5753 392.816 80.1793 393.968L77.7493 391.088C76.6153 389.738 76.2553 389.234 76.2553 388.406C76.2553 387.668 76.7413 387.182 77.7673 387.182C78.1633 387.182 78.5053 387.218 78.7753 387.326C78.9553 387.38 79.0093 387.47 79.0453 387.65L79.2613 388.874L80.4673 388.928V386.498C80.0533 386.264 78.8473 385.868 77.7133 385.868C76.0213 385.868 74.6893 386.786 74.6893 388.55C74.6893 389.36 75.1213 390.206 75.6253 390.818C73.5733 391.376 72.4933 392.708 72.4933 394.598C72.4933 396.812 74.0413 398.216 76.3453 398.216C77.9653 398.216 79.2613 397.658 80.3413 396.326L81.7273 398H83.9773ZM79.3873 395.282C78.6493 396.344 77.6233 396.866 76.5253 396.866C74.7973 396.866 74.0953 395.696 74.0953 394.562C74.0953 392.978 75.0673 392.132 76.4713 391.862L79.3873 395.282ZM95.0232 398C97.8492 398 99.8472 397.136 99.8472 394.472C99.8472 392.672 98.8572 391.466 96.8052 391.232V391.178C97.9032 390.818 99.0012 389.864 99.0012 388.154C99.0012 386.372 98.1552 384.968 95.0772 384.968H89.7132V385.958L90.8472 386.084C91.0992 386.102 91.1352 386.174 91.1352 386.444V396.542C91.1352 396.812 91.0992 396.866 90.8472 396.902L89.7132 397.028V398H95.0232ZM92.7732 396.686V391.97H95.1852C96.8412 391.97 98.1192 392.618 98.1192 394.364C98.1192 396.362 96.7152 396.686 94.8252 396.686H92.7732ZM92.7732 390.71V386.282H94.6272C96.4272 386.282 97.3452 386.714 97.3452 388.37C97.3452 390.296 95.7792 390.71 94.3572 390.71H92.7732ZM106.147 398V397.028L104.491 396.884C104.221 396.866 104.203 396.812 104.203 396.524V391.106C104.617 390.71 105.535 389.972 106.345 389.972C106.507 389.972 106.543 390.008 106.561 390.152L106.777 391.394L108.055 391.448V388.73C107.731 388.64 107.173 388.568 106.759 388.568C105.535 388.568 104.653 389.342 104.059 390.008L104.005 389.99L103.825 388.748H101.467L101.305 389.702L102.331 390.044C102.511 390.098 102.565 390.224 102.565 390.422V396.542C102.565 396.812 102.529 396.866 102.277 396.902L101.377 397.01V398H106.147ZM112.08 385.598C112.08 384.878 111.666 384.464 110.928 384.464C110.19 384.464 109.758 384.878 109.758 385.598C109.758 386.336 110.19 386.75 110.928 386.75C111.666 386.75 112.08 386.336 112.08 385.598ZM113.43 398V397.028L112.278 396.902C112.008 396.866 111.99 396.83 111.99 396.542V388.748H109.254L109.092 389.702L110.118 390.044C110.298 390.098 110.352 390.224 110.352 390.422V396.542C110.352 396.812 110.316 396.884 110.064 396.902L108.876 397.01V398H113.43ZM123.294 389.9V388.748H120.09C119.712 388.64 119.136 388.568 118.488 388.568C116.04 388.568 114.582 389.972 114.582 391.988C114.582 393.212 115.14 394.112 115.932 394.544C115.608 394.976 115.23 395.426 114.942 395.84C114.69 396.218 114.546 396.524 114.546 396.83C114.546 397.316 114.834 397.64 115.338 397.802C114.726 398.432 114.24 398.954 114.24 399.836C114.24 401.204 115.32 402.05 118.434 402.05C121.566 402.05 123.096 400.934 123.096 399.152C123.096 397.028 121.638 396.866 118.398 396.686L116.184 396.56L116.994 394.994C117.372 395.138 117.912 395.21 118.524 395.21C120.63 395.21 122.268 394.022 122.268 391.898C122.268 391.052 121.98 390.494 121.602 390.026L123.294 389.9ZM120.666 391.826C120.666 393.068 119.82 393.86 118.47 393.86C116.886 393.86 116.274 392.996 116.274 391.934C116.274 390.53 117.21 389.882 118.524 389.882C119.874 389.882 120.666 390.602 120.666 391.826ZM119.55 398.252C120.72 398.36 121.422 398.432 121.422 399.278C121.422 400.646 119.586 400.79 118.632 400.79C116.868 400.772 115.86 400.556 115.86 399.584C115.86 398.954 116.328 398.432 116.652 398.09L119.55 398.252ZM134.345 398V397.028L133.319 396.902C133.049 396.866 133.031 396.83 133.031 396.542V391.844C133.031 389.81 132.185 388.568 130.259 388.568C128.891 388.568 127.847 389.162 127.019 389.756V384.41H124.247L124.085 385.364L125.165 385.706C125.345 385.76 125.399 385.886 125.399 386.084V396.542C125.399 396.812 125.363 396.866 125.111 396.902L124.211 397.01V398H128.333V397.028L127.325 396.902C127.055 396.866 127.037 396.83 127.037 396.542V391.124C127.739 390.566 128.801 389.954 129.881 389.954C131.159 389.954 131.393 391.016 131.393 392.348V396.542C131.393 396.794 131.303 396.884 131.069 396.902L130.205 397.01V398H134.345ZM141.221 396.506C140.735 396.704 140.105 396.866 139.547 396.866C138.521 396.866 138.251 396.434 138.251 395.3V389.99H141.041V388.748H138.395C138.251 388.748 138.251 388.676 138.251 388.568V386.372H137.189C136.955 388.208 136.559 388.766 135.155 388.946V389.99H136.469C136.613 389.99 136.613 390.062 136.613 390.17V395.786C136.613 397.406 137.387 398.216 139.115 398.216C140.033 398.216 140.897 397.946 141.617 397.658L141.221 396.506ZM149.222 391.394V389.072C148.844 388.91 147.674 388.568 146.378 388.568C144.524 388.568 142.796 389.324 142.796 391.376C142.796 393.356 144.38 393.716 145.784 394.04C146.936 394.31 147.962 394.562 147.962 395.642C147.962 396.614 147.188 397.064 145.982 397.064C145.082 397.064 144.452 396.866 144.218 396.776C144.056 396.722 144.02 396.65 144.002 396.524L143.786 395.282L142.58 395.21V397.604C142.904 397.802 144.38 398.216 145.838 398.216C147.746 398.216 149.492 397.496 149.492 395.408C149.492 393.464 147.962 393.032 146.558 392.672C145.388 392.366 144.308 392.15 144.308 391.124C144.308 390.35 144.902 389.774 146.216 389.774C146.828 389.774 147.368 389.882 147.62 389.972C147.764 390.008 147.782 390.08 147.8 390.206L148.016 391.322L149.222 391.394ZM155.647 401.816V400.844L153.955 400.7C153.685 400.682 153.667 400.628 153.667 400.34V397.226C154.513 397.964 155.377 398.216 156.403 398.216C159.229 398.216 160.147 395.732 160.147 393.032C160.147 389.864 158.779 388.568 156.763 388.568C155.539 388.568 154.531 389.072 153.541 389.81L153.487 389.792L153.325 388.748H150.949L150.787 389.702L151.813 390.044C151.993 390.098 152.047 390.224 152.047 390.422V400.358C152.047 400.628 151.993 400.682 151.741 400.718L151.003 400.826V401.816H155.647ZM153.667 391.07C154.189 390.656 155.269 389.954 156.421 389.954C157.537 389.954 158.491 390.728 158.491 393.176C158.491 395.444 157.843 396.866 156.133 396.866C155.179 396.866 154.279 396.29 153.667 395.696V391.07ZM170.116 398V397.028L169.198 396.902C168.928 396.866 168.91 396.83 168.91 396.542V391.772C168.91 389.288 168.046 388.568 165.49 388.568C164.068 388.568 162.016 388.82 162.016 391.034L163.564 391.196C163.582 389.846 164.374 389.81 165.472 389.81C167.038 389.81 167.29 390.458 167.29 391.772V392.726L164.86 392.924C162.7 393.104 161.584 393.95 161.584 395.75C161.584 396.668 161.872 398.216 164.122 398.216C165.508 398.216 166.516 397.622 167.38 396.812L167.434 396.83L167.596 398H170.116ZM167.29 395.552C166.732 396.074 165.598 396.938 164.536 396.938C163.69 396.938 163.276 396.542 163.276 395.57C163.276 394.634 163.708 394.184 165.256 394.04L167.29 393.86V395.552ZM178.127 396.272C177.623 396.578 176.723 396.866 175.823 396.866C174.077 396.866 172.889 395.894 172.889 393.374C172.889 390.8 174.167 389.864 175.769 389.864C176.273 389.864 176.741 389.936 176.993 390.026C177.155 390.08 177.191 390.152 177.209 390.278L177.425 391.466L178.631 391.52V389.126C178.235 388.928 177.209 388.568 175.895 388.568C173.159 388.568 171.179 390.062 171.179 393.482C171.179 396.326 172.493 398.216 175.571 398.216C176.759 398.216 177.965 397.91 178.649 397.46L178.127 396.272ZM186.814 396.182C185.86 396.65 185.23 396.83 184.222 396.83C182.26 396.83 181.522 395.588 181.468 393.77H187.516C187.534 393.464 187.552 393.104 187.552 392.87C187.552 389.756 186.04 388.568 183.844 388.568C181.576 388.568 179.74 390.098 179.74 393.392C179.74 396.074 180.802 398.216 184.06 398.216C185.356 398.216 186.436 397.91 187.336 397.406L186.814 396.182ZM181.486 392.528C181.63 390.53 182.638 389.882 183.844 389.882C184.942 389.882 185.878 390.476 185.914 392.528H181.486ZM201.365 388.424V385.364C200.753 385.13 199.529 384.734 198.017 384.734C195.515 384.734 193.499 385.832 193.499 388.406C193.499 391.124 195.605 391.592 197.423 392.132C198.827 392.546 200.069 393.014 200.069 394.598C200.069 396.164 198.971 396.866 197.135 396.866C196.091 396.866 195.389 396.65 195.119 396.56C194.867 396.47 194.813 396.398 194.759 396.164L194.417 394.58H193.211V397.532C193.769 397.802 195.353 398.216 196.991 398.216C199.565 398.216 201.761 397.208 201.761 394.418C201.761 391.718 199.727 391.124 197.927 390.566C196.487 390.116 195.191 389.684 195.191 388.19C195.191 386.912 196.091 386.102 197.945 386.102C198.881 386.102 199.403 386.264 199.655 386.408C199.745 386.462 199.799 386.534 199.853 386.786L200.123 388.316L201.365 388.424ZM213.072 398V397.028L212.118 396.902C211.92 396.884 211.866 396.794 211.866 396.524V388.748H209.184L209.04 389.72L209.94 389.954C210.21 390.008 210.228 390.062 210.228 390.35V395.318C209.598 396.038 208.554 396.884 207.33 396.884C206.196 396.884 205.926 396.128 205.926 394.562V388.748H203.208L203.064 389.72L204 389.954C204.27 390.008 204.288 390.08 204.288 390.368V394.94C204.288 397.01 204.9 398.216 206.88 398.216C208.464 398.216 209.526 397.46 210.354 396.758L210.39 396.776L210.534 398H213.072ZM219.21 401.816V400.844L217.518 400.7C217.248 400.682 217.23 400.628 217.23 400.34V397.226C218.076 397.964 218.94 398.216 219.966 398.216C222.792 398.216 223.71 395.732 223.71 393.032C223.71 389.864 222.342 388.568 220.326 388.568C219.102 388.568 218.094 389.072 217.104 389.81L217.05 389.792L216.888 388.748H214.512L214.35 389.702L215.376 390.044C215.556 390.098 215.61 390.224 215.61 390.422V400.358C215.61 400.628 215.556 400.682 215.304 400.718L214.566 400.826V401.816H219.21ZM217.23 391.07C217.752 390.656 218.832 389.954 219.984 389.954C221.1 389.954 222.054 390.728 222.054 393.176C222.054 395.444 221.406 396.866 219.696 396.866C218.742 396.866 217.842 396.29 217.23 395.696V391.07ZM230.108 401.816V400.844L228.416 400.7C228.146 400.682 228.128 400.628 228.128 400.34V397.226C228.974 397.964 229.838 398.216 230.864 398.216C233.69 398.216 234.608 395.732 234.608 393.032C234.608 389.864 233.24 388.568 231.224 388.568C230 388.568 228.992 389.072 228.002 389.81L227.948 389.792L227.786 388.748H225.41L225.248 389.702L226.274 390.044C226.454 390.098 226.508 390.224 226.508 390.422V400.358C226.508 400.628 226.454 400.682 226.202 400.718L225.464 400.826V401.816H230.108ZM228.128 391.07C228.65 390.656 229.73 389.954 230.882 389.954C231.998 389.954 232.952 390.728 232.952 393.176C232.952 395.444 232.304 396.866 230.594 396.866C229.64 396.866 228.74 396.29 228.128 395.696V391.07ZM240.451 398.216C243.529 398.216 244.897 396.254 244.897 393.23C244.897 390.53 243.709 388.568 240.631 388.568C237.553 388.568 236.113 390.512 236.113 393.338C236.113 396.2 237.319 398.216 240.451 398.216ZM240.505 396.902C238.723 396.902 237.805 395.75 237.805 393.356C237.805 390.98 238.831 389.936 240.595 389.936C242.341 389.936 243.205 390.98 243.205 393.338C243.205 395.804 242.251 396.902 240.505 396.902ZM251.149 398V397.028L249.493 396.884C249.223 396.866 249.205 396.812 249.205 396.524V391.106C249.619 390.71 250.537 389.972 251.347 389.972C251.509 389.972 251.545 390.008 251.563 390.152L251.779 391.394L253.057 391.448V388.73C252.733 388.64 252.175 388.568 251.761 388.568C250.537 388.568 249.655 389.342 249.061 390.008L249.007 389.99L248.827 388.748H246.469L246.307 389.702L247.333 390.044C247.513 390.098 247.567 390.224 247.567 390.422V396.542C247.567 396.812 247.531 396.866 247.279 396.902L246.379 397.01V398H251.149ZM260.032 396.506C259.546 396.704 258.916 396.866 258.358 396.866C257.332 396.866 257.062 396.434 257.062 395.3V389.99H259.852V388.748H257.206C257.062 388.748 257.062 388.676 257.062 388.568V386.372H256C255.766 388.208 255.37 388.766 253.966 388.946V389.99H255.28C255.424 389.99 255.424 390.062 255.424 390.17V395.786C255.424 397.406 256.198 398.216 257.926 398.216C258.844 398.216 259.708 397.946 260.428 397.658L260.032 396.506ZM38.482 438L41.38 426.462C41.452 426.192 41.524 426.138 41.776 426.102L42.712 425.94V424.968H38.5L38.32 425.94L39.958 426.12L37.42 436.362L34.972 427.596H33.118L30.67 436.218L28.258 426.12L29.86 425.94V424.968H25.342L25.162 425.94L26.224 426.12C26.44 426.156 26.53 426.228 26.584 426.462L29.572 438H31.624L34.036 429.648L36.304 438H38.482ZM47.5944 438V437.028L45.9384 436.884C45.6684 436.866 45.6504 436.812 45.6504 436.524V431.106C46.0644 430.71 46.9824 429.972 47.7924 429.972C47.9544 429.972 47.9904 430.008 48.0084 430.152L48.2244 431.394L49.5024 431.448V428.73C49.1784 428.64 48.6204 428.568 48.2064 428.568C46.9824 428.568 46.1004 429.342 45.5064 430.008L45.4524 429.99L45.2724 428.748H42.9144L42.7524 429.702L43.7784 430.044C43.9584 430.098 44.0124 430.224 44.0124 430.422V436.542C44.0124 436.812 43.9764 436.866 43.7244 436.902L42.8244 437.01V438H47.5944ZM53.5275 425.598C53.5275 424.878 53.1135 424.464 52.3755 424.464C51.6375 424.464 51.2055 424.878 51.2055 425.598C51.2055 426.336 51.6375 426.75 52.3755 426.75C53.1135 426.75 53.5275 426.336 53.5275 425.598ZM54.8775 438V437.028L53.7255 436.902C53.4555 436.866 53.4375 436.83 53.4375 436.542V428.748H50.7015L50.5395 429.702L51.5655 430.044C51.7455 430.098 51.7995 430.224 51.7995 430.422V436.542C51.7995 436.812 51.7635 436.884 51.5115 436.902L50.3235 437.01V438H54.8775ZM61.7152 436.506C61.2292 436.704 60.5992 436.866 60.0412 436.866C59.0152 436.866 58.7452 436.434 58.7452 435.3V429.99H61.5352V428.748H58.8892C58.7452 428.748 58.7452 428.676 58.7452 428.568V426.372H57.6832C57.4492 428.208 57.0532 428.766 55.6492 428.946V429.99H56.9632C57.1072 429.99 57.1072 430.062 57.1072 430.17V435.786C57.1072 437.406 57.8812 438.216 59.6092 438.216C60.5272 438.216 61.3912 437.946 62.1112 437.658L61.7152 436.506ZM66.2892 425.598C66.2892 424.878 65.8752 424.464 65.1372 424.464C64.3992 424.464 63.9672 424.878 63.9672 425.598C63.9672 426.336 64.3992 426.75 65.1372 426.75C65.8752 426.75 66.2892 426.336 66.2892 425.598ZM67.6392 438V437.028L66.4872 436.902C66.2172 436.866 66.1992 436.83 66.1992 436.542V428.748H63.4632L63.3012 429.702L64.3272 430.044C64.5072 430.098 64.5612 430.224 64.5612 430.422V436.542C64.5612 436.812 64.5252 436.884 64.2732 436.902L63.0852 437.01V438H67.6392ZM78.8509 438V437.028L77.8249 436.902C77.5549 436.866 77.5369 436.83 77.5369 436.542V431.862C77.5369 429.9 76.7629 428.568 74.6929 428.568C73.3969 428.568 72.2989 429.162 71.3629 429.828L71.3089 429.81L71.1649 428.748H68.8069L68.6449 429.702L69.6709 430.044C69.8509 430.098 69.9049 430.224 69.9049 430.422V436.542C69.9049 436.812 69.8689 436.866 69.6169 436.902L68.7169 437.01V438H72.8389V437.028L71.8309 436.902C71.5609 436.866 71.5429 436.83 71.5429 436.542V431.124C72.3349 430.476 73.3069 429.972 74.3329 429.972C75.6649 429.972 75.8989 431.106 75.8989 432.276V436.542C75.8989 436.794 75.8089 436.884 75.5749 436.902L74.7109 437.01V438H78.8509ZM88.9288 429.9V428.748H85.7248C85.3468 428.64 84.7708 428.568 84.1228 428.568C81.6748 428.568 80.2168 429.972 80.2168 431.988C80.2168 433.212 80.7748 434.112 81.5668 434.544C81.2428 434.976 80.8648 435.426 80.5768 435.84C80.3248 436.218 80.1808 436.524 80.1808 436.83C80.1808 437.316 80.4688 437.64 80.9728 437.802C80.3608 438.432 79.8748 438.954 79.8748 439.836C79.8748 441.204 80.9548 442.05 84.0688 442.05C87.2008 442.05 88.7308 440.934 88.7308 439.152C88.7308 437.028 87.2728 436.866 84.0328 436.686L81.8188 436.56L82.6288 434.994C83.0068 435.138 83.5468 435.21 84.1588 435.21C86.2648 435.21 87.9028 434.022 87.9028 431.898C87.9028 431.052 87.6148 430.494 87.2368 430.026L88.9288 429.9ZM86.3008 431.826C86.3008 433.068 85.4548 433.86 84.1048 433.86C82.5208 433.86 81.9088 432.996 81.9088 431.934C81.9088 430.53 82.8448 429.882 84.1588 429.882C85.5088 429.882 86.3008 430.602 86.3008 431.826ZM85.1848 438.252C86.3548 438.36 87.0568 438.432 87.0568 439.278C87.0568 440.646 85.2208 440.79 84.2668 440.79C82.5028 440.772 81.4948 440.556 81.4948 439.584C81.4948 438.954 81.9628 438.432 82.2868 438.09L85.1848 438.252ZM105.194 438V437.028L104.204 436.866C103.97 436.812 103.88 436.758 103.736 436.596L102.458 435.084C102.818 434.328 103.088 433.338 103.232 432.456C103.268 432.222 103.34 432.168 103.556 432.132L104.366 431.988V431.034H102.008C101.936 432.006 101.792 432.816 101.396 433.968L98.9661 431.088C97.8321 429.738 97.4721 429.234 97.4721 428.406C97.4721 427.668 97.9581 427.182 98.9841 427.182C99.3801 427.182 99.7221 427.218 99.9921 427.326C100.172 427.38 100.226 427.47 100.262 427.65L100.478 428.874L101.684 428.928V426.498C101.27 426.264 100.064 425.868 98.9301 425.868C97.2381 425.868 95.9061 426.786 95.9061 428.55C95.9061 429.36 96.3381 430.206 96.8421 430.818C94.7901 431.376 93.7101 432.708 93.7101 434.598C93.7101 436.812 95.2581 438.216 97.5621 438.216C99.1821 438.216 100.478 437.658 101.558 436.326L102.944 438H105.194ZM100.604 435.282C99.8661 436.344 98.8401 436.866 97.7421 436.866C96.0141 436.866 95.3121 435.696 95.3121 434.562C95.3121 432.978 96.2841 432.132 97.6881 431.862L100.604 435.282ZM118.868 438V437.01L116.888 436.866C116.618 436.848 116.6 436.776 116.6 436.524V426.246H119.39C119.588 426.246 119.642 426.264 119.678 426.444L119.966 428.01H121.172V424.968H110.372V428.01H111.578L111.866 426.444C111.902 426.264 111.956 426.246 112.154 426.246H114.944V436.524C114.944 436.794 114.908 436.866 114.656 436.884L112.802 437.01V438H118.868ZM131 438V437.028L130.046 436.902C129.848 436.884 129.794 436.794 129.794 436.524V428.748H127.112L126.968 429.72L127.868 429.954C128.138 430.008 128.156 430.062 128.156 430.35V435.318C127.526 436.038 126.482 436.884 125.258 436.884C124.124 436.884 123.854 436.128 123.854 434.562V428.748H121.136L120.992 429.72L121.928 429.954C122.198 430.008 122.216 430.08 122.216 430.368V434.94C122.216 437.01 122.828 438.216 124.808 438.216C126.392 438.216 127.454 437.46 128.282 436.758L128.318 436.776L128.462 438H131ZM138.127 436.506C137.641 436.704 137.011 436.866 136.453 436.866C135.427 436.866 135.157 436.434 135.157 435.3V429.99H137.947V428.748H135.301C135.157 428.748 135.157 428.676 135.157 428.568V426.372H134.095C133.861 428.208 133.465 428.766 132.061 428.946V429.99H133.375C133.519 429.99 133.519 430.062 133.519 430.17V435.786C133.519 437.406 134.293 438.216 136.021 438.216C136.939 438.216 137.803 437.946 138.523 437.658L138.127 436.506ZM143.472 438.216C146.55 438.216 147.918 436.254 147.918 433.23C147.918 430.53 146.73 428.568 143.652 428.568C140.574 428.568 139.134 430.512 139.134 433.338C139.134 436.2 140.34 438.216 143.472 438.216ZM143.526 436.902C141.744 436.902 140.826 435.75 140.826 433.356C140.826 430.98 141.852 429.936 143.616 429.936C145.362 429.936 146.226 430.98 146.226 433.338C146.226 435.804 145.272 436.902 143.526 436.902ZM154.171 438V437.028L152.515 436.884C152.245 436.866 152.227 436.812 152.227 436.524V431.106C152.641 430.71 153.559 429.972 154.369 429.972C154.531 429.972 154.567 430.008 154.585 430.152L154.801 431.394L156.079 431.448V428.73C155.755 428.64 155.197 428.568 154.783 428.568C153.559 428.568 152.677 429.342 152.083 430.008L152.029 429.99L151.849 428.748H149.491L149.329 429.702L150.355 430.044C150.535 430.098 150.589 430.224 150.589 430.422V436.542C150.589 436.812 150.553 436.866 150.301 436.902L149.401 437.01V438H154.171ZM160.104 425.598C160.104 424.878 159.69 424.464 158.952 424.464C158.214 424.464 157.782 424.878 157.782 425.598C157.782 426.336 158.214 426.75 158.952 426.75C159.69 426.75 160.104 426.336 160.104 425.598ZM161.454 438V437.028L160.302 436.902C160.032 436.866 160.014 436.83 160.014 436.542V428.748H157.278L157.116 429.702L158.142 430.044C158.322 430.098 158.376 430.224 158.376 430.422V436.542C158.376 436.812 158.34 436.884 158.088 436.902L156.9 437.01V438H161.454ZM172.665 438V437.028L171.639 436.902C171.369 436.866 171.351 436.83 171.351 436.542V431.862C171.351 429.9 170.577 428.568 168.507 428.568C167.211 428.568 166.113 429.162 165.177 429.828L165.123 429.81L164.979 428.748H162.621L162.459 429.702L163.485 430.044C163.665 430.098 163.719 430.224 163.719 430.422V436.542C163.719 436.812 163.683 436.866 163.431 436.902L162.531 437.01V438H166.653V437.028L165.645 436.902C165.375 436.866 165.357 436.83 165.357 436.542V431.124C166.149 430.476 167.121 429.972 168.147 429.972C169.479 429.972 169.713 431.106 169.713 432.276V436.542C169.713 436.794 169.623 436.884 169.389 436.902L168.525 437.01V438H172.665ZM182.743 429.9V428.748H179.539C179.161 428.64 178.585 428.568 177.937 428.568C175.489 428.568 174.031 429.972 174.031 431.988C174.031 433.212 174.589 434.112 175.381 434.544C175.057 434.976 174.679 435.426 174.391 435.84C174.139 436.218 173.995 436.524 173.995 436.83C173.995 437.316 174.283 437.64 174.787 437.802C174.175 438.432 173.689 438.954 173.689 439.836C173.689 441.204 174.769 442.05 177.883 442.05C181.015 442.05 182.545 440.934 182.545 439.152C182.545 437.028 181.087 436.866 177.847 436.686L175.633 436.56L176.443 434.994C176.821 435.138 177.361 435.21 177.973 435.21C180.079 435.21 181.717 434.022 181.717 431.898C181.717 431.052 181.429 430.494 181.051 430.026L182.743 429.9ZM180.115 431.826C180.115 433.068 179.269 433.86 177.919 433.86C176.335 433.86 175.723 432.996 175.723 431.934C175.723 430.53 176.659 429.882 177.973 429.882C179.323 429.882 180.115 430.602 180.115 431.826ZM178.999 438.252C180.169 438.36 180.871 438.432 180.871 439.278C180.871 440.646 179.035 440.79 178.081 440.79C176.317 440.772 175.309 440.556 175.309 439.584C175.309 438.954 175.777 438.432 176.101 438.09L178.999 438.252ZM196.057 428.424V425.364C195.445 425.13 194.221 424.734 192.709 424.734C190.207 424.734 188.191 425.832 188.191 428.406C188.191 431.124 190.297 431.592 192.115 432.132C193.519 432.546 194.761 433.014 194.761 434.598C194.761 436.164 193.663 436.866 191.827 436.866C190.783 436.866 190.081 436.65 189.811 436.56C189.559 436.47 189.505 436.398 189.451 436.164L189.109 434.58H187.903V437.532C188.461 437.802 190.045 438.216 191.683 438.216C194.257 438.216 196.453 437.208 196.453 434.418C196.453 431.718 194.419 431.124 192.619 430.566C191.179 430.116 189.883 429.684 189.883 428.19C189.883 426.912 190.783 426.102 192.637 426.102C193.573 426.102 194.095 426.264 194.347 426.408C194.437 426.462 194.491 426.534 194.545 426.786L194.815 428.316L196.057 428.424ZM207.764 438V437.028L206.81 436.902C206.612 436.884 206.558 436.794 206.558 436.524V428.748H203.876L203.732 429.72L204.632 429.954C204.902 430.008 204.92 430.062 204.92 430.35V435.318C204.29 436.038 203.246 436.884 202.022 436.884C200.888 436.884 200.618 436.128 200.618 434.562V428.748H197.9L197.756 429.72L198.692 429.954C198.962 430.008 198.98 430.08 198.98 430.368V434.94C198.98 437.01 199.592 438.216 201.572 438.216C203.156 438.216 204.218 437.46 205.046 436.758L205.082 436.776L205.226 438H207.764ZM213.901 441.816V440.844L212.209 440.7C211.939 440.682 211.921 440.628 211.921 440.34V437.226C212.767 437.964 213.631 438.216 214.657 438.216C217.483 438.216 218.401 435.732 218.401 433.032C218.401 429.864 217.033 428.568 215.017 428.568C213.793 428.568 212.785 429.072 211.795 429.81L211.741 429.792L211.579 428.748H209.203L209.041 429.702L210.067 430.044C210.247 430.098 210.301 430.224 210.301 430.422V440.358C210.301 440.628 210.247 440.682 209.995 440.718L209.257 440.826V441.816H213.901ZM211.921 431.07C212.443 430.656 213.523 429.954 214.675 429.954C215.791 429.954 216.745 430.728 216.745 433.176C216.745 435.444 216.097 436.866 214.387 436.866C213.433 436.866 212.533 436.29 211.921 435.696V431.07ZM224.799 441.816V440.844L223.107 440.7C222.837 440.682 222.819 440.628 222.819 440.34V437.226C223.665 437.964 224.529 438.216 225.555 438.216C228.381 438.216 229.299 435.732 229.299 433.032C229.299 429.864 227.931 428.568 225.915 428.568C224.691 428.568 223.683 429.072 222.693 429.81L222.639 429.792L222.477 428.748H220.101L219.939 429.702L220.965 430.044C221.145 430.098 221.199 430.224 221.199 430.422V440.358C221.199 440.628 221.145 440.682 220.893 440.718L220.155 440.826V441.816H224.799ZM222.819 431.07C223.341 430.656 224.421 429.954 225.573 429.954C226.689 429.954 227.643 430.728 227.643 433.176C227.643 435.444 226.995 436.866 225.285 436.866C224.331 436.866 223.431 436.29 222.819 435.696V431.07ZM235.142 438.216C238.22 438.216 239.588 436.254 239.588 433.23C239.588 430.53 238.4 428.568 235.322 428.568C232.244 428.568 230.804 430.512 230.804 433.338C230.804 436.2 232.01 438.216 235.142 438.216ZM235.196 436.902C233.414 436.902 232.496 435.75 232.496 433.356C232.496 430.98 233.522 429.936 235.286 429.936C237.032 429.936 237.896 430.98 237.896 433.338C237.896 435.804 236.942 436.902 235.196 436.902ZM245.84 438V437.028L244.184 436.884C243.914 436.866 243.896 436.812 243.896 436.524V431.106C244.31 430.71 245.228 429.972 246.038 429.972C246.2 429.972 246.236 430.008 246.254 430.152L246.47 431.394L247.748 431.448V428.73C247.424 428.64 246.866 428.568 246.452 428.568C245.228 428.568 244.346 429.342 243.752 430.008L243.698 429.99L243.518 428.748H241.16L240.998 429.702L242.024 430.044C242.204 430.098 242.258 430.224 242.258 430.422V436.542C242.258 436.812 242.222 436.866 241.97 436.902L241.07 437.01V438H245.84ZM254.723 436.506C254.237 436.704 253.607 436.866 253.049 436.866C252.023 436.866 251.753 436.434 251.753 435.3V429.99H254.543V428.748H251.897C251.753 428.748 251.753 428.676 251.753 428.568V426.372H250.691C250.457 428.208 250.061 428.766 248.657 428.946V429.99H249.971C250.115 429.99 250.115 430.062 250.115 430.17V435.786C250.115 437.406 250.889 438.216 252.617 438.216C253.535 438.216 254.399 437.946 255.119 437.658L254.723 436.506ZM35.53 478V474.904H34.324L34.036 476.524C34 476.704 33.946 476.722 33.748 476.722H29.176V466.444C29.176 466.192 29.194 466.12 29.464 466.102L30.958 465.958V464.968H26.098V465.958L27.232 466.084C27.484 466.102 27.52 466.174 27.52 466.444V476.542C27.52 476.812 27.484 476.866 27.232 476.902L26.098 477.028V478H35.53ZM39.8165 465.598C39.8165 464.878 39.4025 464.464 38.6645 464.464C37.9265 464.464 37.4945 464.878 37.4945 465.598C37.4945 466.336 37.9265 466.75 38.6645 466.75C39.4025 466.75 39.8165 466.336 39.8165 465.598ZM41.1665 478V477.028L40.0145 476.902C39.7445 476.866 39.7265 476.83 39.7265 476.542V468.748H36.9905L36.8285 469.702L37.8545 470.044C38.0345 470.098 38.0885 470.224 38.0885 470.422V476.542C38.0885 476.812 38.0525 476.884 37.8005 476.902L36.6125 477.01V478H41.1665ZM44.6023 478L44.6923 477.136L44.7463 477.1C45.5203 477.838 46.4563 478.216 47.5363 478.216C49.8043 478.216 51.3343 476.74 51.3343 473.032C51.3343 469.864 49.9483 468.568 47.9323 468.568C46.6723 468.568 45.7003 469.072 44.8543 469.612V464.41H42.0823L41.9203 465.364L42.9823 465.706C43.1623 465.76 43.2163 465.886 43.2163 466.084V475.426C43.2163 476.29 43.1083 477.334 43.0003 478H44.6023ZM44.8543 470.944C45.4843 470.494 46.4563 469.936 47.5003 469.936C48.7783 469.936 49.6783 470.854 49.6783 473.176C49.6783 475.462 49.0123 476.866 47.3203 476.866C46.3483 476.866 45.4303 476.236 44.8543 475.696V470.944ZM57.7194 478V477.028L56.0634 476.884C55.7934 476.866 55.7754 476.812 55.7754 476.524V471.106C56.1894 470.71 57.1074 469.972 57.9174 469.972C58.0794 469.972 58.1154 470.008 58.1334 470.152L58.3494 471.394L59.6274 471.448V468.73C59.3034 468.64 58.7454 468.568 58.3314 468.568C57.1074 468.568 56.2254 469.342 55.6314 470.008L55.5774 469.99L55.3974 468.748H53.0394L52.8774 469.702L53.9034 470.044C54.0834 470.098 54.1374 470.224 54.1374 470.422V476.542C54.1374 476.812 54.1014 476.866 53.8494 476.902L52.9494 477.01V478H57.7194ZM68.8834 478V477.028L67.9654 476.902C67.6954 476.866 67.6774 476.83 67.6774 476.542V471.772C67.6774 469.288 66.8134 468.568 64.2574 468.568C62.8354 468.568 60.7834 468.82 60.7834 471.034L62.3314 471.196C62.3494 469.846 63.1414 469.81 64.2394 469.81C65.8054 469.81 66.0574 470.458 66.0574 471.772V472.726L63.6274 472.924C61.4674 473.104 60.3514 473.95 60.3514 475.75C60.3514 476.668 60.6394 478.216 62.8894 478.216C64.2754 478.216 65.2834 477.622 66.1474 476.812L66.2014 476.83L66.3634 478H68.8834ZM66.0574 475.552C65.4994 476.074 64.3654 476.938 63.3034 476.938C62.4574 476.938 62.0434 476.542 62.0434 475.57C62.0434 474.634 62.4754 474.184 64.0234 474.04L66.0574 473.86V475.552ZM74.7877 478V477.028L73.1317 476.884C72.8617 476.866 72.8437 476.812 72.8437 476.524V471.106C73.2577 470.71 74.1757 469.972 74.9857 469.972C75.1477 469.972 75.1837 470.008 75.2017 470.152L75.4177 471.394L76.6957 471.448V468.73C76.3717 468.64 75.8137 468.568 75.3997 468.568C74.1757 468.568 73.2937 469.342 72.6997 470.008L72.6457 469.99L72.4657 468.748H70.1077L69.9457 469.702L70.9717 470.044C71.1517 470.098 71.2057 470.224 71.2057 470.422V476.542C71.2057 476.812 71.1697 476.866 70.9177 476.902L70.0177 477.01V478H74.7877ZM83.6908 481.816V480.844L81.9448 480.664L86.3188 470.134C86.4088 469.936 86.5528 469.864 86.7688 469.828L87.3808 469.738V468.748H83.8168L83.6188 469.738L84.8428 469.882L82.3408 475.93L79.9468 469.882L81.1348 469.738V468.748H77.4088L77.1928 469.738L77.9308 469.918C78.1468 469.972 78.2188 470.008 78.3088 470.224L81.5488 477.892L80.5048 480.286C80.3968 480.538 80.3248 480.646 80.1088 480.664L78.8128 480.826V481.816H83.6908ZM100.678 468.424V465.364C100.066 465.13 98.8416 464.734 97.3296 464.734C94.8276 464.734 92.8116 465.832 92.8116 468.406C92.8116 471.124 94.9176 471.592 96.7356 472.132C98.1396 472.546 99.3816 473.014 99.3816 474.598C99.3816 476.164 98.2836 476.866 96.4476 476.866C95.4036 476.866 94.7016 476.65 94.4316 476.56C94.1796 476.47 94.1256 476.398 94.0716 476.164L93.7296 474.58H92.5236V477.532C93.0816 477.802 94.6656 478.216 96.3036 478.216C98.8776 478.216 101.074 477.208 101.074 474.418C101.074 471.718 99.0396 471.124 97.2396 470.566C95.7996 470.116 94.5036 469.684 94.5036 468.19C94.5036 466.912 95.4036 466.102 97.2576 466.102C98.1936 466.102 98.7156 466.264 98.9676 466.408C99.0576 466.462 99.1116 466.534 99.1656 466.786L99.4356 468.316L100.678 468.424ZM109.733 476.182C108.779 476.65 108.149 476.83 107.141 476.83C105.179 476.83 104.441 475.588 104.387 473.77H110.435C110.453 473.464 110.471 473.104 110.471 472.87C110.471 469.756 108.959 468.568 106.763 468.568C104.495 468.568 102.659 470.098 102.659 473.392C102.659 476.074 103.721 478.216 106.979 478.216C108.275 478.216 109.355 477.91 110.255 477.406L109.733 476.182ZM104.405 472.528C104.549 470.53 105.557 469.882 106.763 469.882C107.861 469.882 108.797 470.476 108.833 472.528H104.405ZM116.659 478V477.028L115.003 476.884C114.733 476.866 114.715 476.812 114.715 476.524V471.106C115.129 470.71 116.047 469.972 116.857 469.972C117.019 469.972 117.055 470.008 117.073 470.152L117.289 471.394L118.567 471.448V468.73C118.243 468.64 117.685 468.568 117.271 468.568C116.047 468.568 115.165 469.342 114.571 470.008L114.517 469.99L114.337 468.748H111.979L111.817 469.702L112.843 470.044C113.023 470.098 113.077 470.224 113.077 470.422V476.542C113.077 476.812 113.041 476.866 112.789 476.902L111.889 477.01V478H116.659ZM125.13 478L128.154 470.152C128.244 469.936 128.352 469.9 128.604 469.846L129.198 469.738V468.748H125.706L125.508 469.738L126.714 469.882L124.248 476.596L121.818 469.882L123.06 469.738V468.748H119.28L119.064 469.738L119.838 469.9C120.054 469.954 120.126 469.99 120.216 470.206L123.258 478H125.13ZM133.033 465.598C133.033 464.878 132.619 464.464 131.881 464.464C131.143 464.464 130.711 464.878 130.711 465.598C130.711 466.336 131.143 466.75 131.881 466.75C132.619 466.75 133.033 466.336 133.033 465.598ZM134.383 478V477.028L133.231 476.902C132.961 476.866 132.943 476.83 132.943 476.542V468.748H130.207L130.045 469.702L131.071 470.044C131.251 470.098 131.305 470.224 131.305 470.422V476.542C131.305 476.812 131.269 476.884 131.017 476.902L129.829 477.01V478H134.383ZM142.197 476.272C141.693 476.578 140.793 476.866 139.893 476.866C138.147 476.866 136.959 475.894 136.959 473.374C136.959 470.8 138.237 469.864 139.839 469.864C140.343 469.864 140.811 469.936 141.063 470.026C141.225 470.08 141.261 470.152 141.279 470.278L141.495 471.466L142.701 471.52V469.126C142.305 468.928 141.279 468.568 139.965 468.568C137.229 468.568 135.249 470.062 135.249 473.482C135.249 476.326 136.563 478.216 139.641 478.216C140.829 478.216 142.035 477.91 142.719 477.46L142.197 476.272ZM150.884 476.182C149.93 476.65 149.3 476.83 148.292 476.83C146.33 476.83 145.592 475.588 145.538 473.77H151.586C151.604 473.464 151.622 473.104 151.622 472.87C151.622 469.756 150.11 468.568 147.914 468.568C145.646 468.568 143.81 470.098 143.81 473.392C143.81 476.074 144.872 478.216 148.13 478.216C149.426 478.216 150.506 477.91 151.406 477.406L150.884 476.182ZM145.556 472.528C145.7 470.53 146.708 469.882 147.914 469.882C149.012 469.882 149.948 470.476 149.984 472.528H145.556ZM159.628 471.394V469.072C159.25 468.91 158.08 468.568 156.784 468.568C154.93 468.568 153.202 469.324 153.202 471.376C153.202 473.356 154.786 473.716 156.19 474.04C157.342 474.31 158.368 474.562 158.368 475.642C158.368 476.614 157.594 477.064 156.388 477.064C155.488 477.064 154.858 476.866 154.624 476.776C154.462 476.722 154.426 476.65 154.408 476.524L154.192 475.282L152.986 475.21V477.604C153.31 477.802 154.786 478.216 156.244 478.216C158.152 478.216 159.898 477.496 159.898 475.408C159.898 473.464 158.368 473.032 156.964 472.672C155.794 472.366 154.714 472.15 154.714 471.124C154.714 470.35 155.308 469.774 156.622 469.774C157.234 469.774 157.774 469.882 158.026 469.972C158.17 470.008 158.188 470.08 158.206 470.206L158.422 471.322L159.628 471.394Z" fill="#A81913"/>
<g opacity="0.5">
<path d="M17 213H357.5" stroke="#9D9FA2"/>
<path d="M17 373H357.5" stroke="#9D9FA2"/>
<path d="M17 293H357.5" stroke="#9D9FA2"/>
<path d="M17 253H357.5" stroke="#9D9FA2"/>
<path d="M17 413H357.5" stroke="#9D9FA2"/>
<path d="M17 453H357.5" stroke="#9D9FA2"/>
<path d="M17 333H357.5" stroke="#9D9FA2"/>
</g>
<path d="M324 38.5259C324 39.0782 324.448 39.5259 325 39.5259H350C350.552 39.5259 351 39.0782 351 38.5259V37.2716C351 36.7193 350.552 36.2716 350 36.2716H325C324.448 36.2716 324 36.7193 324 37.2716V38.5259ZM324 30.3901C324 30.9424 324.448 31.3901 325 31.3901H350C350.552 31.3901 351 30.9424 351 30.3901V29.1358C351 28.5835 350.552 28.1358 350 28.1358H325C324.448 28.1358 324 28.5835 324 29.1358V30.3901ZM325 20C324.448 20 324 20.4477 324 21V22.2543C324 22.8066 324.448 23.2543 325 23.2543H350C350.552 23.2543 351 22.8066 351 22.2543V21C351 20.4477 350.552 20 350 20H325Z" fill="black"/>
</svg>
