<svg width="375" height="667" viewBox="0 0 375 667" fill="none" xmlns="http://www.w3.org/2000/svg">
<g clip-path="url(#clip0)">
<rect width="375" height="667" fill="white"/>
<rect x="375" y="68" width="375" height="68" transform="rotate(-180 375 68)" fill="white"/>
<path d="M114.717 42C120.035 42 123.189 38.7102 123.189 33.2557C123.189 27.8182 120.035 24.5455 114.837 24.5455H108.803V42H114.717ZM111.964 39.2642V27.2812H114.658C118.203 27.2812 120.053 29.2585 120.053 33.2557C120.053 37.2699 118.203 39.2642 114.564 39.2642H111.964ZM129.344 42.2642C131.398 42.2642 132.625 41.3011 133.188 40.2017H133.29V42H136.256V33.2386C136.256 29.7784 133.435 28.7386 130.938 28.7386C128.185 28.7386 126.071 29.9659 125.389 32.3523L128.27 32.7614C128.577 31.8665 129.446 31.0994 130.955 31.0994C132.386 31.0994 133.171 31.8324 133.171 33.1193V33.1705C133.171 34.0568 132.242 34.0994 129.932 34.3466C127.392 34.6193 124.963 35.3778 124.963 38.3267C124.963 40.9006 126.847 42.2642 129.344 42.2642ZM130.145 39.9972C128.858 39.9972 127.938 39.4091 127.938 38.2756C127.938 37.0909 128.969 36.5966 130.35 36.4006C131.159 36.2898 132.778 36.0852 133.179 35.7614V37.304C133.179 38.7614 132.003 39.9972 130.145 39.9972ZM145.415 28.9091H142.833V25.7727H139.747V28.9091H137.889V31.2955H139.747V38.5739C139.73 41.0369 141.52 42.2472 143.838 42.179C144.716 42.1534 145.321 41.983 145.654 41.8722L145.134 39.4602C144.963 39.5028 144.614 39.5795 144.23 39.5795C143.455 39.5795 142.833 39.3068 142.833 38.0625V31.2955H145.415V28.9091ZM153.17 42.2557C156.221 42.2557 158.318 40.7642 158.863 38.4886L155.983 38.1648C155.565 39.2727 154.542 39.8523 153.213 39.8523C151.218 39.8523 149.897 38.5398 149.872 36.2983H158.991V35.3523C158.991 30.7585 156.23 28.7386 153.008 28.7386C149.258 28.7386 146.812 31.4915 146.812 35.5312C146.812 39.6392 149.224 42.2557 153.17 42.2557ZM149.88 34.2188C149.974 32.5483 151.21 31.142 153.051 31.142C154.823 31.142 156.017 32.4375 156.034 34.2188H149.88ZM176.216 29.3438H179.259C179.199 26.3949 176.685 24.3068 172.969 24.3068C169.305 24.3068 166.552 26.3693 166.56 29.4545C166.56 31.9602 168.341 33.4006 171.214 34.142L173.199 34.6534C175.083 35.1307 176.327 35.7188 176.336 37.0739C176.327 38.5653 174.912 39.5625 172.85 39.5625C170.873 39.5625 169.339 38.6761 169.211 36.8438H166.1C166.228 40.3125 168.81 42.2642 172.876 42.2642C177.06 42.2642 179.489 40.1761 179.498 37.0994C179.489 34.0739 176.992 32.6932 174.367 32.071L172.731 31.6619C171.299 31.321 169.748 30.7159 169.765 29.2585C169.773 27.946 170.949 26.983 172.927 26.983C174.81 26.983 176.055 27.8608 176.216 29.3438ZM187.496 42.2557C190.547 42.2557 192.643 40.7642 193.189 38.4886L190.308 38.1648C189.891 39.2727 188.868 39.8523 187.538 39.8523C185.544 39.8523 184.223 38.5398 184.197 36.2983H193.317V35.3523C193.317 30.7585 190.555 28.7386 187.334 28.7386C183.584 28.7386 181.138 31.4915 181.138 35.5312C181.138 39.6392 183.55 42.2557 187.496 42.2557ZM184.206 34.2188C184.3 32.5483 185.535 31.142 187.376 31.142C189.149 31.142 190.342 32.4375 190.359 34.2188H184.206ZM198.532 24.5455H195.447V42H198.532V24.5455ZM207.02 42.2557C210.071 42.2557 212.168 40.7642 212.713 38.4886L209.833 38.1648C209.415 39.2727 208.392 39.8523 207.063 39.8523C205.068 39.8523 203.747 38.5398 203.722 36.2983H212.841V35.3523C212.841 30.7585 210.08 28.7386 206.858 28.7386C203.108 28.7386 200.662 31.4915 200.662 35.5312C200.662 39.6392 203.074 42.2557 207.02 42.2557ZM203.73 34.2188C203.824 32.5483 205.06 31.142 206.901 31.142C208.673 31.142 209.867 32.4375 209.884 34.2188H203.73ZM220.681 42.2557C223.971 42.2557 226.068 40.304 226.289 37.5256H223.34C223.076 38.9318 222.062 39.7415 220.707 39.7415C218.781 39.7415 217.537 38.1307 217.537 35.4545C217.537 32.8125 218.806 31.2273 220.707 31.2273C222.19 31.2273 223.102 32.1818 223.34 33.4432H226.289C226.076 30.6051 223.86 28.7386 220.664 28.7386C216.829 28.7386 214.409 31.5085 214.409 35.5057C214.409 39.4688 216.769 42.2557 220.681 42.2557ZM234.88 28.9091H232.297V25.7727H229.212V28.9091H227.354V31.2955H229.212V38.5739C229.195 41.0369 230.985 42.2472 233.303 42.179C234.181 42.1534 234.786 41.983 235.118 41.8722L234.598 39.4602C234.428 39.5028 234.079 39.5795 233.695 39.5795C232.919 39.5795 232.297 39.3068 232.297 38.0625V31.2955H234.88V28.9091ZM236.98 42H240.065V28.9091H236.98V42ZM238.531 27.0511C239.511 27.0511 240.312 26.3011 240.312 25.3807C240.312 24.4517 239.511 23.7017 238.531 23.7017C237.542 23.7017 236.741 24.4517 236.741 25.3807C236.741 26.3011 237.542 27.0511 238.531 27.0511ZM248.468 42.2557C252.303 42.2557 254.741 39.554 254.741 35.5057C254.741 31.4489 252.303 28.7386 248.468 28.7386C244.633 28.7386 242.195 31.4489 242.195 35.5057C242.195 39.554 244.633 42.2557 248.468 42.2557ZM248.485 39.7841C246.363 39.7841 245.323 37.892 245.323 35.4972C245.323 33.1023 246.363 31.1847 248.485 31.1847C250.573 31.1847 251.613 33.1023 251.613 35.4972C251.613 37.892 250.573 39.7841 248.485 39.7841ZM259.965 34.3295C259.965 32.4375 261.107 31.3466 262.734 31.3466C264.328 31.3466 265.283 32.3949 265.283 34.142V42H268.368V33.6648C268.376 30.5284 266.587 28.7386 263.885 28.7386C261.925 28.7386 260.578 29.6761 259.982 31.1335H259.828V28.9091H256.879V42H259.965V34.3295Z" fill="#444444"/>
<line x1="341" y1="41.8787" x2="355.849" y2="27.0294" stroke="#BBBBBB" stroke-width="3" stroke-linecap="round"/>
<line x1="341.121" y1="27" x2="355.971" y2="41.8492" stroke="#BBBBBB" stroke-width="3" stroke-linecap="round"/>
<path d="M375 67.5L3.05176e-05 67.5" stroke="#DDDDDD"/>
<path d="M45.8636 118.273H46.892C46.8125 116.506 45.2841 115.199 43.1193 115.199C40.9716 115.199 39.3182 116.489 39.3182 118.364C39.3182 119.858 40.375 120.795 42.1989 121.335L43.5909 121.744C45.0341 122.165 46.0227 122.705 46.0227 123.892C46.0227 125.29 44.7557 126.227 43.017 126.227C41.4489 126.227 40.2216 125.472 40.108 124.091H39.017C39.142 125.932 40.642 127.199 43.017 127.199C45.5398 127.199 47.0511 125.773 47.0511 123.909C47.0511 121.977 45.3693 121.205 43.892 120.79L42.6648 120.438C41.5341 120.119 40.3466 119.545 40.3466 118.318C40.3466 117.068 41.4659 116.153 43.0909 116.153C44.6307 116.153 45.733 116.977 45.8636 118.273ZM52.9261 127.182C54.6761 127.182 55.8523 126.233 56.25 125.136L55.2898 124.824C54.9545 125.608 54.1648 126.256 52.9261 126.256C51.142 126.256 50.0114 124.955 49.9659 122.938H56.4659V122.438C56.4659 119.523 54.6648 118.153 52.7727 118.153C50.5114 118.153 48.9489 120.045 48.9489 122.688C48.9489 125.335 50.483 127.182 52.9261 127.182ZM49.9716 122.045C50.0795 120.42 51.1761 119.074 52.7727 119.074C54.3352 119.074 55.4318 120.364 55.4318 122.045H49.9716ZM59.706 115.364H58.6946V127H59.706V115.364ZM65.9105 127.182C67.6605 127.182 68.8366 126.233 69.2344 125.136L68.2741 124.824C67.9389 125.608 67.1491 126.256 65.9105 126.256C64.1264 126.256 62.9957 124.955 62.9503 122.938H69.4503V122.438C69.4503 119.523 67.6491 118.153 65.7571 118.153C63.4957 118.153 61.9332 120.045 61.9332 122.688C61.9332 125.335 63.4673 127.182 65.9105 127.182ZM62.956 122.045C63.0639 120.42 64.1605 119.074 65.7571 119.074C67.3196 119.074 68.4162 120.364 68.4162 122.045H62.956ZM75.0881 127.182C76.9062 127.182 78.1847 126.034 78.4176 124.455H77.3949C77.1619 125.568 76.2472 126.256 75.0881 126.256C73.3778 126.256 72.2472 124.767 72.2472 122.642C72.2472 120.528 73.4119 119.074 75.0881 119.074C76.3324 119.074 77.1733 119.875 77.3892 120.864H78.4119C78.1733 119.244 76.821 118.153 75.071 118.153C72.7869 118.153 71.2301 120.051 71.2301 122.676C71.2301 125.278 72.7415 127.182 75.0881 127.182ZM84.0227 118.273H82.1761V116.182H81.1591V118.273H79.858V119.153H81.1591V124.96C81.1591 126.386 82.2841 127.131 83.4034 127.131C83.8239 127.131 84.108 127.051 84.3011 126.977L84.0852 126.062C83.9432 126.102 83.7614 126.142 83.4943 126.142C82.8068 126.142 82.1761 125.818 82.1761 124.722V119.153H84.0227V118.273ZM97.348 118.273H98.3764C98.2969 116.506 96.7685 115.199 94.6037 115.199C92.456 115.199 90.8026 116.489 90.8026 118.364C90.8026 119.858 91.8594 120.795 93.6832 121.335L95.0753 121.744C96.5185 122.165 97.5071 122.705 97.5071 123.892C97.5071 125.29 96.2401 126.227 94.5014 126.227C92.9332 126.227 91.706 125.472 91.5923 124.091H90.5014C90.6264 125.932 92.1264 127.199 94.5014 127.199C97.0241 127.199 98.5355 125.773 98.5355 123.909C98.5355 121.977 96.8537 121.205 95.3764 120.79L94.1491 120.438C93.0185 120.119 91.831 119.545 91.831 118.318C91.831 117.068 92.9503 116.153 94.5753 116.153C96.1151 116.153 97.2173 116.977 97.348 118.273ZM104.32 118.273H102.473V116.182H101.456V118.273H100.155V119.153H101.456V124.96C101.456 126.386 102.581 127.131 103.7 127.131C104.121 127.131 104.405 127.051 104.598 126.977L104.382 126.062C104.24 126.102 104.058 126.142 103.791 126.142C103.104 126.142 102.473 125.818 102.473 124.722V119.153H104.32V118.273ZM109.054 127.199C110.509 127.199 111.395 126.392 111.759 125.619H111.821V127H112.832V121.074C112.832 118.733 111.071 118.153 109.736 118.153C108.401 118.153 107.026 118.682 106.435 120.108L107.395 120.455C107.713 119.705 108.503 119.062 109.764 119.062C111.088 119.062 111.821 119.79 111.821 120.983V121.188C111.821 121.847 111.003 121.858 109.537 122.04C107.565 122.284 106.185 122.835 106.185 124.562C106.185 126.244 107.469 127.199 109.054 127.199ZM109.19 126.273C108.048 126.273 107.196 125.665 107.196 124.608C107.196 123.551 108.06 123.108 109.537 122.926C110.253 122.841 111.526 122.682 111.821 122.392V123.653C111.821 125.085 110.804 126.273 109.19 126.273ZM115.523 127H116.534V121.364C116.534 120.068 117.528 119.131 118.892 119.131C119.159 119.131 119.409 119.176 119.5 119.188V118.159C119.364 118.153 119.131 118.142 118.966 118.142C117.869 118.142 116.932 118.733 116.58 119.614H116.506V118.273H115.523V127ZM125.21 118.273H123.364V116.182H122.347V118.273H121.045V119.153H122.347V124.96C122.347 126.386 123.472 127.131 124.591 127.131C125.011 127.131 125.295 127.051 125.489 126.977L125.273 126.062C125.131 126.102 124.949 126.142 124.682 126.142C123.994 126.142 123.364 125.818 123.364 124.722V119.153H125.21V118.273ZM135.626 127C139.126 127 141.121 124.812 141.126 121.153C141.126 117.534 139.161 115.364 135.831 115.364H132.217V127H135.626ZM133.28 126.045V116.318H135.768C138.592 116.318 140.092 118.142 140.098 121.153C140.098 124.193 138.564 126.045 135.564 126.045H133.28ZM145.929 127.199C147.384 127.199 148.27 126.392 148.634 125.619H148.696V127H149.707V121.074C149.707 118.733 147.946 118.153 146.611 118.153C145.276 118.153 143.901 118.682 143.31 120.108L144.27 120.455C144.588 119.705 145.378 119.062 146.639 119.062C147.963 119.062 148.696 119.79 148.696 120.983V121.188C148.696 121.847 147.878 121.858 146.412 122.04C144.44 122.284 143.06 122.835 143.06 124.562C143.06 126.244 144.344 127.199 145.929 127.199ZM146.065 126.273C144.923 126.273 144.071 125.665 144.071 124.608C144.071 123.551 144.935 123.108 146.412 122.926C147.128 122.841 148.401 122.682 148.696 122.392V123.653C148.696 125.085 147.679 126.273 146.065 126.273ZM155.835 118.273H153.989V116.182H152.972V118.273H151.67V119.153H152.972V124.96C152.972 126.386 154.097 127.131 155.216 127.131C155.636 127.131 155.92 127.051 156.114 126.977L155.898 126.062C155.756 126.102 155.574 126.142 155.307 126.142C154.619 126.142 153.989 125.818 153.989 124.722V119.153H155.835V118.273ZM161.567 127.182C163.317 127.182 164.493 126.233 164.891 125.136L163.93 124.824C163.595 125.608 162.805 126.256 161.567 126.256C159.783 126.256 158.652 124.955 158.607 122.938H165.107V122.438C165.107 119.523 163.305 118.153 161.413 118.153C159.152 118.153 157.589 120.045 157.589 122.688C157.589 125.335 159.124 127.182 161.567 127.182ZM158.612 122.045C158.72 120.42 159.817 119.074 161.413 119.074C162.976 119.074 164.072 120.364 164.072 122.045H158.612Z" fill="#444444"/>
<path d="M37 101H167V99H37V101ZM167 141H37V143H167V141ZM37 141C25.9543 141 17 132.046 17 121H15C15 133.15 24.8497 143 37 143V141ZM187 121C187 132.046 178.046 141 167 141V143C179.15 143 189 133.15 189 121H187ZM167 101C178.046 101 187 109.954 187 121H189C189 108.85 179.15 99 167 99V101ZM37 99C24.8497 99 15 108.85 15 121H17C17 109.954 25.9543 101 37 101V99Z" fill="#BBBBBB"/>
<path d="M22.8807 157.364H23.7805C23.7109 155.817 22.3736 154.674 20.4794 154.674C18.6001 154.674 17.1534 155.803 17.1534 157.443C17.1534 158.751 18.0781 159.571 19.674 160.043L20.892 160.401C22.1548 160.769 23.0199 161.241 23.0199 162.281C23.0199 163.504 21.9112 164.324 20.3899 164.324C19.0178 164.324 17.9439 163.663 17.8445 162.455H16.8899C16.9993 164.065 18.3118 165.174 20.3899 165.174C22.5973 165.174 23.9197 163.926 23.9197 162.295C23.9197 160.605 22.4482 159.929 21.1555 159.566L20.0817 159.258C19.0923 158.979 18.0533 158.477 18.0533 157.403C18.0533 156.31 19.0327 155.509 20.4545 155.509C21.8018 155.509 22.7663 156.23 22.8807 157.364ZM29.0604 165.159C30.5916 165.159 31.6207 164.329 31.9688 163.369L31.1286 163.096C30.8352 163.782 30.1442 164.349 29.0604 164.349C27.4993 164.349 26.5099 163.21 26.4702 161.445H32.1577V161.008C32.1577 158.457 30.5817 157.259 28.9261 157.259C26.9474 157.259 25.5803 158.915 25.5803 161.227C25.5803 163.543 26.9226 165.159 29.0604 165.159ZM26.4751 160.665C26.5696 159.243 27.5291 158.065 28.9261 158.065C30.2933 158.065 31.2528 159.193 31.2528 160.665H26.4751ZM34.9927 154.818H34.1078V165H34.9927V154.818ZM40.4217 165.159C41.9529 165.159 42.9821 164.329 43.3301 163.369L42.4899 163.096C42.1966 163.782 41.5055 164.349 40.4217 164.349C38.8606 164.349 37.8713 163.21 37.8315 161.445H43.519V161.008C43.519 158.457 41.943 157.259 40.2875 157.259C38.3088 157.259 36.9416 158.915 36.9416 161.227C36.9416 163.543 38.2839 165.159 40.4217 165.159ZM37.8365 160.665C37.9309 159.243 38.8904 158.065 40.2875 158.065C41.6547 158.065 42.6142 159.193 42.6142 160.665H37.8365ZM48.4521 165.159C50.043 165.159 51.1616 164.155 51.3654 162.773H50.4705C50.2667 163.747 49.4663 164.349 48.4521 164.349C46.9556 164.349 45.9663 163.046 45.9663 161.187C45.9663 159.337 46.9854 158.065 48.4521 158.065C49.5408 158.065 50.2766 158.766 50.4656 159.631H51.3604C51.1516 158.214 49.9684 157.259 48.4371 157.259C46.4386 157.259 45.0763 158.92 45.0763 161.217C45.0763 163.494 46.3988 165.159 48.4521 165.159ZM56.2699 157.364H54.6541V155.534H53.7642V157.364H52.6257V158.134H53.7642V163.215C53.7642 164.463 54.7486 165.114 55.728 165.114C56.0959 165.114 56.3445 165.045 56.5135 164.98L56.3246 164.18C56.2003 164.214 56.0412 164.249 55.8075 164.249C55.206 164.249 54.6541 163.966 54.6541 163.006V158.134H56.2699V157.364ZM65.225 157.364H63.6092V155.534H62.7193V157.364H61.5808V158.134H62.7193V163.215C62.7193 164.463 63.7037 165.114 64.6831 165.114C65.051 165.114 65.2995 165.045 65.4686 164.98L65.2797 164.18C65.1554 164.214 64.9963 164.249 64.7626 164.249C64.161 164.249 63.6092 163.966 63.6092 163.006V158.134H65.225V157.364ZM68.2837 160.227C68.2837 158.895 69.1786 158.075 70.4016 158.075C71.5849 158.075 72.3406 158.85 72.3406 160.108V165H73.2305V160.053C73.2305 158.234 72.1765 157.264 70.6254 157.264C69.4719 157.264 68.7212 157.771 68.3633 158.562H68.2837V154.818H67.3988V165H68.2837V160.227ZM78.6483 165.159C80.1795 165.159 81.2086 164.329 81.5566 163.369L80.7164 163.096C80.4231 163.782 79.7321 164.349 78.6483 164.349C77.0872 164.349 76.0978 163.21 76.0581 161.445H81.7456V161.008C81.7456 158.457 80.1696 157.259 78.514 157.259C76.5353 157.259 75.1681 158.915 75.1681 161.227C75.1681 163.543 76.5105 165.159 78.6483 165.159ZM76.063 160.665C76.1575 159.243 77.117 158.065 78.514 158.065C79.8812 158.065 80.8407 159.193 80.8407 160.665H76.063ZM92.7638 159.039C92.391 157.935 91.5756 157.259 90.1786 157.259C88.6374 157.259 87.5188 158.139 87.5188 159.397C87.5188 160.421 88.1403 161.117 89.4677 161.435L90.7156 161.734C91.5558 161.933 91.9585 162.365 91.9585 162.977C91.9585 163.772 91.1978 164.364 90.0245 164.364C88.9805 164.364 88.3292 163.891 88.1154 162.987L87.2653 163.195C87.5337 164.468 88.543 165.159 90.0394 165.159C91.7198 165.159 92.8732 164.234 92.8732 162.937C92.8732 161.918 92.2319 161.237 90.9542 160.923L89.8008 160.64C88.8512 160.401 88.4087 160.018 88.4087 159.357C88.4087 158.582 89.1495 158.04 90.1786 158.04C91.2077 158.04 91.7148 158.582 91.9535 159.268L92.7638 159.039ZM97.8187 157.364H96.2029V155.534H95.313V157.364H94.1745V158.134H95.313V163.215C95.313 164.463 96.2974 165.114 97.2768 165.114C97.6447 165.114 97.8933 165.045 98.0623 164.98L97.8734 164.18C97.7491 164.214 97.59 164.249 97.3564 164.249C96.7548 164.249 96.2029 163.966 96.2029 163.006V158.134H97.8187V157.364ZM101.961 165.174C103.234 165.174 104.01 164.468 104.328 163.792H104.382V165H105.267V159.815C105.267 157.766 103.726 157.259 102.558 157.259C101.39 157.259 100.186 157.722 99.6694 158.969L100.51 159.273C100.788 158.616 101.479 158.055 102.583 158.055C103.741 158.055 104.382 158.691 104.382 159.735V159.914C104.382 160.491 103.667 160.501 102.384 160.66C100.659 160.874 99.4506 161.356 99.4506 162.867C99.4506 164.339 100.574 165.174 101.961 165.174ZM102.081 164.364C101.081 164.364 100.336 163.832 100.336 162.907C100.336 161.982 101.091 161.594 102.384 161.435C103.01 161.361 104.124 161.222 104.382 160.968V162.072C104.382 163.325 103.493 164.364 102.081 164.364ZM107.621 165H108.506V160.068C108.506 158.935 109.376 158.114 110.57 158.114C110.803 158.114 111.022 158.154 111.102 158.164V157.264C110.982 157.259 110.778 157.249 110.634 157.249C109.675 157.249 108.854 157.766 108.546 158.537H108.482V157.364H107.621V165ZM116.098 157.364H114.482V155.534H113.592V157.364H112.454V158.134H113.592V163.215C113.592 164.463 114.577 165.114 115.556 165.114C115.924 165.114 116.173 165.045 116.342 164.98L116.153 164.18C116.028 164.214 115.869 164.249 115.636 164.249C115.034 164.249 114.482 163.966 114.482 163.006V158.134H116.098V157.364ZM124.795 165.159C126.182 165.159 126.828 164.279 127.141 163.583H127.246V165H128.111V154.818H127.221V158.82H127.141C126.838 158.134 126.206 157.259 124.809 157.259C122.925 157.259 121.653 158.85 121.653 161.202C121.653 163.573 122.92 165.159 124.795 165.159ZM124.899 164.349C123.378 164.349 122.542 162.967 122.542 161.187C122.542 159.427 123.368 158.065 124.899 158.065C126.39 158.065 127.236 159.357 127.236 161.187C127.236 163.031 126.381 164.349 124.899 164.349ZM132.764 165.174C134.037 165.174 134.812 164.468 135.131 163.792H135.185V165H136.07V159.815C136.07 157.766 134.529 157.259 133.361 157.259C132.192 157.259 130.989 157.722 130.472 158.969L131.312 159.273C131.591 158.616 132.282 158.055 133.385 158.055C134.544 158.055 135.185 158.691 135.185 159.735V159.914C135.185 160.491 134.469 160.501 133.187 160.66C131.461 160.874 130.253 161.356 130.253 162.867C130.253 164.339 131.377 165.174 132.764 165.174ZM132.883 164.364C131.884 164.364 131.138 163.832 131.138 162.907C131.138 161.982 131.894 161.594 133.187 161.435C133.813 161.361 134.927 161.222 135.185 160.968V162.072C135.185 163.325 134.295 164.364 132.883 164.364ZM141.432 157.364H139.816V155.534H138.926V157.364H137.788V158.134H138.926V163.215C138.926 164.463 139.911 165.114 140.89 165.114C141.258 165.114 141.507 165.045 141.676 164.98L141.487 164.18C141.362 164.214 141.203 164.249 140.97 164.249C140.368 164.249 139.816 163.966 139.816 163.006V158.134H141.432V157.364ZM146.447 165.159C147.978 165.159 149.007 164.329 149.355 163.369L148.515 163.096C148.222 163.782 147.531 164.349 146.447 164.349C144.886 164.349 143.897 163.21 143.857 161.445H149.544V161.008C149.544 158.457 147.968 157.259 146.313 157.259C144.334 157.259 142.967 158.915 142.967 161.227C142.967 163.543 144.309 165.159 146.447 165.159ZM143.862 160.665C143.956 159.243 144.916 158.065 146.313 158.065C147.68 158.065 148.64 159.193 148.64 160.665H143.862ZM158.4 165.159C160.379 165.159 161.761 163.543 161.761 161.217C161.761 158.875 160.379 157.259 158.4 157.259C156.421 157.259 155.039 158.875 155.039 161.217C155.039 163.543 156.421 165.159 158.4 165.159ZM158.4 164.349C156.814 164.349 155.929 162.927 155.929 161.217C155.929 159.506 156.814 158.065 158.4 158.065C159.986 158.065 160.871 159.506 160.871 161.217C160.871 162.927 159.986 164.349 158.4 164.349ZM166.846 157.364H165.155V156.429C165.155 155.629 165.588 155.181 166.358 155.181C166.652 155.181 166.831 155.246 166.965 155.29L167.223 154.515C167.044 154.44 166.746 154.346 166.279 154.346C165.24 154.346 164.265 155.012 164.265 156.245V157.364H163.092V158.134H164.265V165H165.15L165.155 158.134H166.846V157.364ZM175.557 157.364H173.941V155.534H173.051V157.364H171.913V158.134H173.051V163.215C173.051 164.463 174.036 165.114 175.015 165.114C175.383 165.114 175.632 165.045 175.801 164.98L175.612 164.18C175.487 164.214 175.328 164.249 175.095 164.249C174.493 164.249 173.941 163.966 173.941 163.006V158.134H175.557V157.364ZM178.616 160.227C178.616 158.895 179.511 158.075 180.734 158.075C181.917 158.075 182.673 158.85 182.673 160.108V165H183.562V160.053C183.562 158.234 182.509 157.264 180.957 157.264C179.804 157.264 179.053 157.771 178.695 158.562H178.616V154.818H177.731V165H178.616V160.227ZM188.98 165.159C190.512 165.159 191.541 164.329 191.889 163.369L191.048 163.096C190.755 163.782 190.064 164.349 188.98 164.349C187.419 164.349 186.43 163.21 186.39 161.445H192.078V161.008C192.078 158.457 190.502 157.259 188.846 157.259C186.867 157.259 185.5 158.915 185.5 161.227C185.5 163.543 186.843 165.159 188.98 165.159ZM186.395 160.665C186.49 159.243 187.449 158.065 188.846 158.065C190.213 158.065 191.173 159.193 191.173 160.665H186.395ZM198.85 154.818H197.965V165H198.85V154.818ZM201.202 165H202.092V157.364H201.202V165ZM201.654 156.051C202.017 156.051 202.32 155.763 202.32 155.415C202.32 155.067 202.017 154.778 201.654 154.778C201.291 154.778 200.993 155.067 200.993 155.415C200.993 155.763 201.291 156.051 201.654 156.051ZM209.563 159.039C209.19 157.935 208.374 157.259 206.977 157.259C205.436 157.259 204.318 158.139 204.318 159.397C204.318 160.421 204.939 161.117 206.267 161.435L207.514 161.734C208.355 161.933 208.757 162.365 208.757 162.977C208.757 163.772 207.997 164.364 206.823 164.364C205.779 164.364 205.128 163.891 204.914 162.987L204.064 163.195C204.333 164.468 205.342 165.159 206.838 165.159C208.519 165.159 209.672 164.234 209.672 162.937C209.672 161.918 209.031 161.237 207.753 160.923L206.6 160.64C205.65 160.401 205.208 160.018 205.208 159.357C205.208 158.582 205.948 158.04 206.977 158.04C208.007 158.04 208.514 158.582 208.752 159.268L209.563 159.039ZM214.618 157.364H213.002V155.534H212.112V157.364H210.973V158.134H212.112V163.215C212.112 164.463 213.096 165.114 214.076 165.114C214.444 165.114 214.692 165.045 214.861 164.98L214.672 164.18C214.548 164.214 214.389 164.249 214.155 164.249C213.554 164.249 213.002 163.966 213.002 163.006V158.134H214.618V157.364ZM216.637 165H217.527V157.364H216.637V165ZM217.09 156.051C217.453 156.051 217.756 155.763 217.756 155.415C217.756 155.067 217.453 154.778 217.09 154.778C216.727 154.778 216.428 155.067 216.428 155.415C216.428 155.763 216.727 156.051 217.09 156.051ZM220.752 160.227C220.752 158.895 221.627 158.075 222.831 158.075C224.004 158.075 224.76 158.86 224.76 160.108V165H225.645V160.053C225.645 158.244 224.596 157.264 223.054 157.264C221.936 157.264 221.165 157.781 220.807 158.562H220.728V157.364H219.868V165H220.752V160.227ZM230.888 168.023C232.698 168.023 234.04 167.138 234.04 165.199V157.364H233.175V158.82H233.086C232.773 158.134 232.141 157.259 230.739 157.259C228.85 157.259 227.582 158.84 227.582 161.162C227.582 163.504 228.895 164.92 230.724 164.92C232.096 164.92 232.768 164.125 233.071 163.424H233.15V165.144C233.15 166.566 232.241 167.227 230.888 167.227C229.581 167.227 228.954 166.596 228.631 166.014L227.905 166.491C228.353 167.366 229.327 168.023 230.888 168.023ZM230.829 164.11C229.312 164.11 228.472 162.897 228.472 161.147C228.472 159.427 229.297 158.065 230.829 158.065C232.325 158.065 233.165 159.357 233.165 161.147C233.165 162.991 232.3 164.11 230.829 164.11ZM240.321 165H241.206V160.068C241.206 158.935 242.076 158.114 243.269 158.114C243.502 158.114 243.721 158.154 243.801 158.164V157.264C243.681 157.259 243.478 157.249 243.333 157.249C242.374 157.249 241.554 157.766 241.245 158.537H241.181V157.364H240.321V165ZM248.166 165.159C249.697 165.159 250.726 164.329 251.074 163.369L250.234 163.096C249.941 163.782 249.25 164.349 248.166 164.349C246.605 164.349 245.615 163.21 245.576 161.445H251.263V161.008C251.263 158.457 249.687 157.259 248.032 157.259C246.053 157.259 244.686 158.915 244.686 161.227C244.686 163.543 246.028 165.159 248.166 165.159ZM245.581 160.665C245.675 159.243 246.635 158.065 248.032 158.065C249.399 158.065 250.358 159.193 250.358 160.665H245.581ZM254.098 160.227C254.098 158.895 254.973 158.075 256.176 158.075C257.35 158.075 258.105 158.86 258.105 160.108V165H258.99V160.053C258.99 158.244 257.941 157.264 256.4 157.264C255.281 157.264 254.511 157.781 254.153 158.562H254.073V157.364H253.213V165H254.098V160.227ZM264.328 157.364H262.713V155.534H261.823V157.364H260.684V158.134H261.823V163.215C261.823 164.463 262.807 165.114 263.787 165.114C264.154 165.114 264.403 165.045 264.572 164.98L264.383 164.18C264.259 164.214 264.1 164.249 263.866 164.249C263.265 164.249 262.713 163.966 262.713 163.006V158.134H264.328V157.364ZM268.471 165.174C269.744 165.174 270.519 164.468 270.838 163.792H270.892V165H271.777V159.815C271.777 157.766 270.236 157.259 269.068 157.259C267.899 157.259 266.696 157.722 266.179 158.969L267.019 159.273C267.298 158.616 267.989 158.055 269.093 158.055C270.251 158.055 270.892 158.691 270.892 159.735V159.914C270.892 160.491 270.176 160.501 268.894 160.66C267.169 160.874 265.96 161.356 265.96 162.867C265.96 164.339 267.084 165.174 268.471 165.174ZM268.59 164.364C267.591 164.364 266.845 163.832 266.845 162.907C266.845 161.982 267.601 161.594 268.894 161.435C269.52 161.361 270.634 161.222 270.892 160.968V162.072C270.892 163.325 270.002 164.364 268.59 164.364ZM275.016 154.818H274.131V165H275.016V154.818Z" fill="#777777"/>
<path d="M16 194H359" stroke="#DDDDDD"/>
<path d="M39.5455 245H40.608V240.295H43.3182C43.4716 240.295 43.6193 240.29 43.7614 240.278L46.3125 245H47.5398L44.8523 240.074C46.3011 239.597 47.0511 238.403 47.0511 236.847C47.0511 234.812 45.7727 233.364 43.3011 233.364H39.5455V245ZM40.608 239.324V234.318H43.2727C45.1136 234.318 46.0057 235.324 46.0057 236.847C46.0057 238.369 45.1136 239.324 43.2898 239.324H40.608ZM52.8636 245.182C54.6136 245.182 55.7898 244.233 56.1875 243.136L55.2273 242.824C54.892 243.608 54.1023 244.256 52.8636 244.256C51.0795 244.256 49.9489 242.955 49.9034 240.938H56.4034V240.438C56.4034 237.523 54.6023 236.153 52.7102 236.153C50.4489 236.153 48.8864 238.045 48.8864 240.688C48.8864 243.335 50.4205 245.182 52.8636 245.182ZM49.9091 240.045C50.017 238.42 51.1136 237.074 52.7102 237.074C54.2727 237.074 55.3693 238.364 55.3693 240.045H49.9091ZM59.6435 239.545C59.6435 238.023 60.6435 237.085 62.0185 237.085C63.3594 237.085 64.223 237.983 64.223 239.409V245H65.2344V239.347C65.2344 237.278 64.0355 236.159 62.2741 236.159C60.9957 236.159 60.1151 236.75 59.706 237.642H59.6151V236.273H58.6321V245H59.6435V239.545ZM71.3352 236.273H69.4886V234.182H68.4716V236.273H67.1705V237.153H68.4716V242.96C68.4716 244.386 69.5966 245.131 70.7159 245.131C71.1364 245.131 71.4205 245.051 71.6136 244.977L71.3977 244.062C71.2557 244.102 71.0739 244.142 70.8068 244.142C70.1193 244.142 69.4886 243.818 69.4886 242.722V237.153H71.3352V236.273ZM76.0696 245.199C77.5241 245.199 78.4105 244.392 78.7741 243.619H78.8366V245H79.848V239.074C79.848 236.733 78.0866 236.153 76.7514 236.153C75.4162 236.153 74.0412 236.682 73.4503 238.108L74.4105 238.455C74.7287 237.705 75.5185 237.062 76.7798 237.062C78.1037 237.062 78.8366 237.79 78.8366 238.983V239.188C78.8366 239.847 78.0185 239.858 76.5526 240.04C74.581 240.284 73.2003 240.835 73.2003 242.562C73.2003 244.244 74.4844 245.199 76.0696 245.199ZM76.206 244.273C75.0639 244.273 74.2116 243.665 74.2116 242.608C74.2116 241.551 75.0753 241.108 76.5526 240.926C77.2685 240.841 78.5412 240.682 78.8366 240.392V241.653C78.8366 243.085 77.8196 244.273 76.206 244.273ZM83.5497 233.364H82.5384V245H83.5497V233.364ZM94.3452 245C97.8452 245 99.8395 242.812 99.8452 239.153C99.8452 235.534 97.8793 233.364 94.5497 233.364H90.9361V245H94.3452ZM91.9986 244.045V234.318H94.4872C97.3111 234.318 98.8111 236.142 98.8168 239.153C98.8168 242.193 97.2827 244.045 94.2827 244.045H91.9986ZM107.756 241.665C107.756 243.267 106.551 244.131 105.369 244.131C104.108 244.131 103.222 243.227 103.222 241.864V236.273H102.21V241.926C102.21 243.994 103.403 245.114 105.08 245.114C106.358 245.114 107.267 244.449 107.676 243.551H107.756V245H108.767V236.273H107.756V241.665ZM111.445 245H112.456V239.364C112.456 238.068 113.45 237.131 114.814 237.131C115.081 237.131 115.331 237.176 115.422 237.188V236.159C115.286 236.153 115.053 236.142 114.888 236.142C113.791 236.142 112.854 236.733 112.501 237.614H112.428V236.273H111.445V245ZM119.585 245.199C121.04 245.199 121.926 244.392 122.29 243.619H122.352V245H123.364V239.074C123.364 236.733 121.602 236.153 120.267 236.153C118.932 236.153 117.557 236.682 116.966 238.108L117.926 238.455C118.244 237.705 119.034 237.062 120.295 237.062C121.619 237.062 122.352 237.79 122.352 238.983V239.188C122.352 239.847 121.534 239.858 120.068 240.04C118.097 240.284 116.716 240.835 116.716 242.562C116.716 244.244 118 245.199 119.585 245.199ZM119.722 244.273C118.58 244.273 117.727 243.665 117.727 242.608C117.727 241.551 118.591 241.108 120.068 240.926C120.784 240.841 122.057 240.682 122.352 240.392V241.653C122.352 243.085 121.335 244.273 119.722 244.273ZM129.491 236.273H127.645V234.182H126.628V236.273H125.327V237.153H126.628V242.96C126.628 244.386 127.753 245.131 128.872 245.131C129.293 245.131 129.577 245.051 129.77 244.977L129.554 244.062C129.412 244.102 129.23 244.142 128.963 244.142C128.276 244.142 127.645 243.818 127.645 242.722V237.153H129.491V236.273ZM131.8 245H132.817V236.273H131.8V245ZM132.317 234.773C132.732 234.773 133.078 234.443 133.078 234.045C133.078 233.648 132.732 233.318 132.317 233.318C131.902 233.318 131.561 233.648 131.561 234.045C131.561 234.443 131.902 234.773 132.317 234.773ZM138.884 245.182C141.145 245.182 142.724 243.335 142.724 240.676C142.724 238 141.145 236.153 138.884 236.153C136.622 236.153 135.043 238 135.043 240.676C135.043 243.335 136.622 245.182 138.884 245.182ZM138.884 244.256C137.071 244.256 136.06 242.631 136.06 240.676C136.06 238.722 137.071 237.074 138.884 237.074C140.696 237.074 141.707 238.722 141.707 240.676C141.707 242.631 140.696 244.256 138.884 244.256ZM145.956 239.545C145.956 238.023 146.956 237.085 148.331 237.085C149.672 237.085 150.536 237.983 150.536 239.409V245H151.547V239.347C151.547 237.278 150.348 236.159 148.587 236.159C147.308 236.159 146.428 236.75 146.018 237.642H145.928V236.273H144.945V245H145.956V239.545Z" fill="#444444"/>
<path d="M37 219H154V217H37V219ZM154 259H37V261H154V259ZM37 259C25.9543 259 17 250.046 17 239H15C15 251.15 24.8497 261 37 261V259ZM174 239C174 250.046 165.046 259 154 259V261C166.15 261 176 251.15 176 239H174ZM154 219C165.046 219 174 227.954 174 239H176C176 226.85 166.15 217 154 217V219ZM37 217C24.8497 217 15 226.85 15 239H17C17 227.954 25.9543 219 37 219V217Z" fill="#BBBBBB"/>
<path d="M17.3523 283H23.1342V282.165H18.282V272.818H17.3523V283ZM28.1307 283.159C29.6619 283.159 30.6911 282.329 31.0391 281.369L30.1989 281.096C29.9055 281.782 29.2145 282.349 28.1307 282.349C26.5696 282.349 25.5803 281.21 25.5405 279.445H31.228V279.008C31.228 276.457 29.652 275.259 27.9964 275.259C26.0178 275.259 24.6506 276.915 24.6506 279.227C24.6506 281.543 25.9929 283.159 28.1307 283.159ZM25.5455 278.665C25.6399 277.243 26.5994 276.065 27.9964 276.065C29.3636 276.065 30.3232 277.193 30.3232 278.665H25.5455ZM36.1859 275.364H34.5701V273.534H33.6802V275.364H32.5417V276.134H33.6802V281.215C33.6802 282.463 34.6646 283.114 35.644 283.114C36.0119 283.114 36.2605 283.045 36.4295 282.98L36.2406 282.18C36.1163 282.214 35.9572 282.249 35.7235 282.249C35.122 282.249 34.5701 281.966 34.5701 281.006V276.134H36.1859V275.364ZM45.141 275.364H43.5252V273.534H42.6353V275.364H41.4968V276.134H42.6353V281.215C42.6353 282.463 43.6197 283.114 44.5991 283.114C44.967 283.114 45.2156 283.045 45.3846 282.98L45.1957 282.18C45.0714 282.214 44.9123 282.249 44.6786 282.249C44.0771 282.249 43.5252 281.966 43.5252 281.006V276.134H45.141V275.364ZM48.1998 278.227C48.1998 276.895 49.0946 276.075 50.3176 276.075C51.5009 276.075 52.2566 276.85 52.2566 278.108V283H53.1465V278.053C53.1465 276.234 52.0925 275.264 50.5414 275.264C49.388 275.264 48.6373 275.771 48.2793 276.562H48.1998V272.818H47.3148V283H48.1998V278.227ZM58.5643 283.159C60.0955 283.159 61.1246 282.329 61.4727 281.369L60.6325 281.096C60.3391 281.782 59.6481 282.349 58.5643 282.349C57.0032 282.349 56.0138 281.21 55.9741 279.445H61.6616V279.008C61.6616 276.457 60.0856 275.259 58.43 275.259C56.4513 275.259 55.0842 276.915 55.0842 279.227C55.0842 281.543 56.4265 283.159 58.5643 283.159ZM55.979 278.665C56.0735 277.243 57.033 276.065 58.43 276.065C59.7972 276.065 60.7567 277.193 60.7567 278.665H55.979ZM68.4341 278.227C68.4341 276.895 69.329 276.075 70.552 276.075C71.7353 276.075 72.4909 276.85 72.4909 278.108V283H73.3809V278.053C73.3809 276.234 72.3269 275.264 70.7757 275.264C69.6223 275.264 68.8716 275.771 68.5137 276.562H68.4341V272.818H67.5492V283H68.4341V278.227ZM78.6793 283.159C80.658 283.159 82.0401 281.543 82.0401 279.217C82.0401 276.875 80.658 275.259 78.6793 275.259C76.7006 275.259 75.3185 276.875 75.3185 279.217C75.3185 281.543 76.7006 283.159 78.6793 283.159ZM78.6793 282.349C77.0934 282.349 76.2085 280.927 76.2085 279.217C76.2085 277.506 77.0934 276.065 78.6793 276.065C80.2653 276.065 81.1502 277.506 81.1502 279.217C81.1502 280.927 80.2653 282.349 78.6793 282.349ZM89.1135 277.039C88.7406 275.935 87.9252 275.259 86.5282 275.259C84.987 275.259 83.8684 276.139 83.8684 277.397C83.8684 278.421 84.4899 279.117 85.8173 279.435L87.0652 279.734C87.9054 279.933 88.3081 280.365 88.3081 280.977C88.3081 281.772 87.5474 282.364 86.3741 282.364C85.3301 282.364 84.6788 281.891 84.465 280.987L83.6149 281.195C83.8833 282.468 84.8926 283.159 86.389 283.159C88.0694 283.159 89.2228 282.234 89.2228 280.937C89.2228 279.918 88.5815 279.237 87.3038 278.923L86.1504 278.64C85.2008 278.401 84.7583 278.018 84.7583 277.357C84.7583 276.582 85.4991 276.04 86.5282 276.04C87.5574 276.04 88.0645 276.582 88.3031 277.268L89.1135 277.039ZM94.1683 275.364H92.5526V273.534H91.6626V275.364H90.5241V276.134H91.6626V281.215C91.6626 282.463 92.647 283.114 93.6264 283.114C93.9943 283.114 94.2429 283.045 94.4119 282.98L94.223 282.18C94.0987 282.214 93.9396 282.249 93.706 282.249C93.1044 282.249 92.5526 281.966 92.5526 281.006V276.134H94.1683V275.364ZM100.116 283H101.001V280.042L101.881 279.217L104.873 283H106.007L102.542 278.635L105.808 275.364H104.689L101.11 278.958H101.001V272.818H100.116V283ZM108.356 278.227C108.356 276.895 109.231 276.075 110.434 276.075C111.607 276.075 112.363 276.86 112.363 278.108V283H113.248V278.053C113.248 276.244 112.199 275.264 110.658 275.264C109.539 275.264 108.769 275.781 108.411 276.562H108.331V275.364H107.471V283H108.356V278.227ZM118.547 283.159C120.525 283.159 121.907 281.543 121.907 279.217C121.907 276.875 120.525 275.259 118.547 275.259C116.568 275.259 115.186 276.875 115.186 279.217C115.186 281.543 116.568 283.159 118.547 283.159ZM118.547 282.349C116.961 282.349 116.076 280.927 116.076 279.217C116.076 277.506 116.961 276.065 118.547 276.065C120.132 276.065 121.017 277.506 121.017 279.217C121.017 280.927 120.132 282.349 118.547 282.349ZM125.286 283H126.2L128.01 276.741H128.104L129.914 283H130.829L133.136 275.364H132.201L130.391 281.648H130.322L128.532 275.364H127.592L125.788 281.663H125.723L123.913 275.364H122.979L125.286 283ZM139.678 278.227C139.678 276.895 140.573 276.075 141.796 276.075C142.979 276.075 143.735 276.85 143.735 278.108V283H144.625V278.053C144.625 276.234 143.571 275.264 142.02 275.264C140.866 275.264 140.116 275.771 139.758 276.562H139.678V272.818H138.793V283H139.678V278.227ZM149.923 283.159C151.902 283.159 153.284 281.543 153.284 279.217C153.284 276.875 151.902 275.259 149.923 275.259C147.945 275.259 146.563 276.875 146.563 279.217C146.563 281.543 147.945 283.159 149.923 283.159ZM149.923 282.349C148.338 282.349 147.453 280.927 147.453 279.217C147.453 277.506 148.338 276.065 149.923 276.065C151.509 276.065 152.394 277.506 152.394 279.217C152.394 280.927 151.509 282.349 149.923 282.349ZM156.662 283H157.577L159.387 276.741H159.481L161.291 283H162.206L164.513 275.364H163.578L161.768 281.648H161.699L159.909 275.364H158.969L157.165 281.663H157.1L155.29 275.364H154.356L156.662 283ZM171.055 272.818H170.17V283H171.055V272.818ZM176.365 283.159C178.344 283.159 179.726 281.543 179.726 279.217C179.726 276.875 178.344 275.259 176.365 275.259C174.386 275.259 173.004 276.875 173.004 279.217C173.004 281.543 174.386 283.159 176.365 283.159ZM176.365 282.349C174.779 282.349 173.894 280.927 173.894 279.217C173.894 277.506 174.779 276.065 176.365 276.065C177.951 276.065 178.836 277.506 178.836 279.217C178.836 280.927 177.951 282.349 176.365 282.349ZM182.553 278.227C182.553 276.895 183.428 276.075 184.631 276.075C185.805 276.075 186.56 276.86 186.56 278.108V283H187.445V278.053C187.445 276.244 186.396 275.264 184.855 275.264C183.737 275.264 182.966 275.781 182.608 276.562H182.528V275.364H181.668V283H182.553V278.227ZM192.689 286.023C194.499 286.023 195.841 285.138 195.841 283.199V275.364H194.976V276.82H194.887C194.573 276.134 193.942 275.259 192.54 275.259C190.651 275.259 189.383 276.84 189.383 279.162C189.383 281.504 190.695 282.92 192.525 282.92C193.897 282.92 194.568 282.125 194.872 281.424H194.951V283.144C194.951 284.566 194.041 285.227 192.689 285.227C191.382 285.227 190.755 284.596 190.432 284.014L189.706 284.491C190.154 285.366 191.128 286.023 192.689 286.023ZM192.629 282.11C191.113 282.11 190.273 280.897 190.273 279.147C190.273 277.427 191.098 276.065 192.629 276.065C194.126 276.065 194.966 277.357 194.966 279.147C194.966 280.991 194.101 282.11 192.629 282.11ZM203.817 283H204.732L206.541 276.741H206.636L208.445 283H209.36L211.667 275.364H210.732L208.923 281.648H208.853L207.063 275.364H206.124L204.319 281.663H204.254L202.445 275.364H201.51L203.817 283ZM213.397 283H214.287V275.364H213.397V283ZM213.849 274.051C214.212 274.051 214.516 273.763 214.516 273.415C214.516 273.067 214.212 272.778 213.849 272.778C213.487 272.778 213.188 273.067 213.188 273.415C213.188 273.763 213.487 274.051 213.849 274.051ZM217.512 272.818H216.627V283H217.512V272.818ZM220.739 272.818H219.854V283H220.739V272.818ZM227.634 285.864C228.589 285.864 229.29 285.317 229.698 284.208L232.934 275.379L231.97 275.364L229.703 281.832H229.633L227.366 275.364H226.406L229.215 283.075L228.937 283.85C228.514 285.004 227.918 285.207 227.018 284.924L226.779 285.705C226.958 285.789 227.286 285.864 227.634 285.864ZM237.355 283.159C239.334 283.159 240.716 281.543 240.716 279.217C240.716 276.875 239.334 275.259 237.355 275.259C235.376 275.259 233.994 276.875 233.994 279.217C233.994 281.543 235.376 283.159 237.355 283.159ZM237.355 282.349C235.769 282.349 234.884 280.927 234.884 279.217C234.884 277.506 235.769 276.065 237.355 276.065C238.941 276.065 239.826 277.506 239.826 279.217C239.826 280.927 238.941 282.349 237.355 282.349ZM247.511 280.082C247.511 281.484 246.457 282.239 245.423 282.239C244.319 282.239 243.544 281.449 243.544 280.256V275.364H242.659V280.31C242.659 282.12 243.703 283.099 245.169 283.099C246.288 283.099 247.083 282.518 247.441 281.732H247.511V283H248.396V275.364H247.511V280.082ZM254.86 283H255.72V281.583H255.83C256.138 282.284 256.784 283.159 258.176 283.159C260.05 283.159 261.318 281.573 261.318 279.202C261.318 276.85 260.045 275.259 258.161 275.259C256.764 275.259 256.133 276.134 255.83 276.82H255.75V272.818H254.86V283ZM255.735 279.187C255.735 277.357 256.575 276.065 258.067 276.065C259.598 276.065 260.428 277.427 260.428 279.187C260.428 280.967 259.588 282.349 258.067 282.349C256.585 282.349 255.735 281.031 255.735 279.187ZM266.349 283.159C267.881 283.159 268.91 282.329 269.258 281.369L268.418 281.096C268.124 281.782 267.433 282.349 266.349 282.349C264.788 282.349 263.799 281.21 263.759 279.445H269.447V279.008C269.447 276.457 267.871 275.259 266.215 275.259C264.237 275.259 262.869 276.915 262.869 279.227C262.869 281.543 264.212 283.159 266.349 283.159ZM263.764 278.665C263.859 277.243 264.818 276.065 266.215 276.065C267.582 276.065 268.542 277.193 268.542 278.665H263.764ZM17.1683 303H18.0533V298.068C18.0533 296.935 18.9233 296.114 20.1165 296.114C20.3501 296.114 20.5689 296.154 20.6484 296.164V295.264C20.5291 295.259 20.3253 295.249 20.1811 295.249C19.2216 295.249 18.4013 295.766 18.093 296.537H18.0284V295.364H17.1683V303ZM25.0135 303.159C26.5447 303.159 27.5739 302.329 27.9219 301.369L27.0817 301.096C26.7884 301.782 26.0973 302.349 25.0135 302.349C23.4524 302.349 22.4631 301.21 22.4233 299.445H28.1108V299.008C28.1108 296.457 26.5348 295.259 24.8793 295.259C22.9006 295.259 21.5334 296.915 21.5334 299.227C21.5334 301.543 22.8757 303.159 25.0135 303.159ZM22.4283 298.665C22.5227 297.243 23.4822 296.065 24.8793 296.065C26.2464 296.065 27.206 297.193 27.206 298.665H22.4283ZM30.9458 298.227C30.9458 296.895 31.8208 296.075 33.024 296.075C34.1973 296.075 34.9529 296.86 34.9529 298.108V303H35.8379V298.053C35.8379 296.244 34.7889 295.264 33.2477 295.264C32.1291 295.264 31.3585 295.781 31.0005 296.562H30.921V295.364H30.0609V303H30.9458V298.227ZM41.1761 295.364H39.5604V293.534H38.6705V295.364H37.532V296.134H38.6705V301.215C38.6705 302.463 39.6548 303.114 40.6342 303.114C41.0021 303.114 41.2507 303.045 41.4197 302.98L41.2308 302.18C41.1065 302.214 40.9474 302.249 40.7138 302.249C40.1122 302.249 39.5604 301.966 39.5604 301.006V296.134H41.1761V295.364ZM43.1958 303H44.0858V295.364H43.1958V303ZM43.6483 294.051C44.0112 294.051 44.3145 293.763 44.3145 293.415C44.3145 293.067 44.0112 292.778 43.6483 292.778C43.2853 292.778 42.987 293.067 42.987 293.415C42.987 293.763 43.2853 294.051 43.6483 294.051ZM47.3111 298.227C47.3111 296.895 48.1861 296.075 49.3892 296.075C50.5625 296.075 51.3182 296.86 51.3182 298.108V303H52.2031V298.053C52.2031 296.244 51.1541 295.264 49.6129 295.264C48.4943 295.264 47.7237 295.781 47.3658 296.562H47.2862V295.364H46.4261V303H47.3111V298.227ZM57.4469 306.023C59.2566 306.023 60.5989 305.138 60.5989 303.199V295.364H59.7338V296.82H59.6444C59.3311 296.134 58.6998 295.259 57.2978 295.259C55.4086 295.259 54.1408 296.84 54.1408 299.162C54.1408 301.504 55.4533 302.92 57.2828 302.92C58.655 302.92 59.3262 302.125 59.6294 301.424H59.709V303.144C59.709 304.566 58.7992 305.227 57.4469 305.227C56.1394 305.227 55.513 304.596 55.1898 304.014L54.464 304.491C54.9114 305.366 55.8858 306.023 57.4469 306.023ZM57.3873 302.11C55.8709 302.11 55.0307 300.897 55.0307 299.147C55.0307 297.427 55.856 296.065 57.3873 296.065C58.8837 296.065 59.7239 297.357 59.7239 299.147C59.7239 300.991 58.8588 302.11 57.3873 302.11ZM69.8871 295.364H68.2713V293.534H67.3814V295.364H66.2429V296.134H67.3814V301.215C67.3814 302.463 68.3658 303.114 69.3452 303.114C69.7131 303.114 69.9616 303.045 70.1307 302.98L69.9418 302.18C69.8175 302.214 69.6584 302.249 69.4247 302.249C68.8232 302.249 68.2713 301.966 68.2713 301.006V296.134H69.8871V295.364ZM72.9458 298.227C72.9458 296.895 73.8407 296.075 75.0637 296.075C76.247 296.075 77.0027 296.85 77.0027 298.108V303H77.8926V298.053C77.8926 296.234 76.8386 295.264 75.2875 295.264C74.1341 295.264 73.3833 295.771 73.0254 296.562H72.9458V292.818H72.0609V303H72.9458V298.227ZM83.3104 303.159C84.8416 303.159 85.8707 302.329 86.2188 301.369L85.3786 301.096C85.0852 301.782 84.3942 302.349 83.3104 302.349C81.7493 302.349 80.7599 301.21 80.7202 299.445H86.4077V299.008C86.4077 296.457 84.8317 295.259 83.1761 295.259C81.1974 295.259 79.8303 296.915 79.8303 299.227C79.8303 301.543 81.1726 303.159 83.3104 303.159ZM80.7251 298.665C80.8196 297.243 81.7791 296.065 83.1761 296.065C84.5433 296.065 85.5028 297.193 85.5028 298.665H80.7251ZM93.9906 303H94.9054L96.715 296.741H96.8095L98.6191 303H99.5339L101.841 295.364H100.906L99.0964 301.648H99.0268L97.237 295.364H96.2974L94.4927 301.663H94.4281L92.6184 295.364H91.6838L93.9906 303ZM106.269 303.159C108.248 303.159 109.63 301.543 109.63 299.217C109.63 296.875 108.248 295.259 106.269 295.259C104.29 295.259 102.908 296.875 102.908 299.217C102.908 301.543 104.29 303.159 106.269 303.159ZM106.269 302.349C104.683 302.349 103.798 300.927 103.798 299.217C103.798 297.506 104.683 296.065 106.269 296.065C107.855 296.065 108.74 297.506 108.74 299.217C108.74 300.927 107.855 302.349 106.269 302.349ZM111.573 303H112.458V298.068C112.458 296.935 113.328 296.114 114.521 296.114C114.754 296.114 114.973 296.154 115.053 296.164V295.264C114.933 295.259 114.73 295.249 114.585 295.249C113.626 295.249 112.806 295.766 112.497 296.537H112.433V295.364H111.573V303ZM116.563 303H117.448V300.042L118.328 299.217L121.321 303H122.454L118.989 298.635L122.255 295.364H121.137L117.557 298.958H117.448V292.818H116.563V303ZM129.049 297.039C128.676 295.935 127.861 295.259 126.464 295.259C124.923 295.259 123.804 296.139 123.804 297.397C123.804 298.421 124.425 299.117 125.753 299.435L127.001 299.734C127.841 299.933 128.244 300.365 128.244 300.977C128.244 301.772 127.483 302.364 126.31 302.364C125.266 302.364 124.614 301.891 124.401 300.987L123.55 301.195C123.819 302.468 124.828 303.159 126.325 303.159C128.005 303.159 129.158 302.234 129.158 300.937C129.158 299.918 128.517 299.237 127.239 298.923L126.086 298.64C125.136 298.401 124.694 298.018 124.694 297.357C124.694 296.582 125.435 296.04 126.464 296.04C127.493 296.04 128 296.582 128.239 297.268L129.049 297.039ZM131.081 305.864H131.971V301.583H132.051C132.354 302.284 133.01 303.159 134.397 303.159C136.267 303.159 137.539 301.568 137.539 299.202C137.539 296.845 136.271 295.259 134.382 295.259C132.98 295.259 132.359 296.134 132.051 296.82H131.941V295.364H131.081V305.864ZM131.956 299.187C131.956 297.357 132.796 296.065 134.288 296.065C135.824 296.065 136.649 297.427 136.649 299.187C136.649 300.967 135.809 302.349 134.288 302.349C132.811 302.349 131.956 301.031 131.956 299.187ZM141.61 303.174C142.882 303.174 143.658 302.468 143.976 301.792H144.031V303H144.916V297.815C144.916 295.766 143.375 295.259 142.206 295.259C141.038 295.259 139.835 295.722 139.318 296.969L140.158 297.273C140.436 296.616 141.127 296.055 142.231 296.055C143.39 296.055 144.031 296.691 144.031 297.735V297.914C144.031 298.491 143.315 298.501 142.032 298.66C140.307 298.874 139.099 299.356 139.099 300.867C139.099 302.339 140.223 303.174 141.61 303.174ZM141.729 302.364C140.73 302.364 139.984 301.832 139.984 300.907C139.984 299.982 140.74 299.594 142.032 299.435C142.659 299.361 143.772 299.222 144.031 298.968V300.072C144.031 301.325 143.141 302.364 141.729 302.364ZM150.253 303.159C151.844 303.159 152.962 302.155 153.166 300.773H152.271C152.067 301.747 151.267 302.349 150.253 302.349C148.756 302.349 147.767 301.046 147.767 299.187C147.767 297.337 148.786 296.065 150.253 296.065C151.342 296.065 152.077 296.766 152.266 297.631H153.161C152.952 296.214 151.769 295.259 150.238 295.259C148.239 295.259 146.877 296.92 146.877 299.217C146.877 301.494 148.2 303.159 150.253 303.159ZM158.15 303.159C159.681 303.159 160.711 302.329 161.059 301.369L160.218 301.096C159.925 301.782 159.234 302.349 158.15 302.349C156.589 302.349 155.6 301.21 155.56 299.445H161.248V299.008C161.248 296.457 159.672 295.259 158.016 295.259C156.037 295.259 154.67 296.915 154.67 299.227C154.67 301.543 156.012 303.159 158.15 303.159ZM155.565 298.665C155.659 297.243 156.619 296.065 158.016 296.065C159.383 296.065 160.343 297.193 160.343 298.665H155.565Z" fill="#777777"/>
<path d="M16 332H359" stroke="#DDDDDD"/>
<rect y="599" width="375" height="68" fill="white"/>
<path d="M375 599H3.05176e-05" stroke="#DDDDDD"/>
<g filter="url(#filter0_d)">
<path d="M227 614C227 610.686 229.686 608 233 608H377C380.314 608 383 610.686 383 614V652C383 655.314 380.314 658 377 658H233C229.686 658 227 655.314 227 652V614Z" fill="#444444"/>
<path d="M265.943 631.148C265.545 628.659 263.597 627.205 261.136 627.205C258.125 627.205 255.903 629.46 255.903 633.182C255.903 636.903 258.114 639.159 261.136 639.159C263.693 639.159 265.562 637.557 265.943 635.256L264.17 635.25C263.869 636.739 262.619 637.557 261.148 637.557C259.153 637.557 257.648 636.028 257.648 633.182C257.648 630.358 259.148 628.807 261.153 628.807C262.636 628.807 263.881 629.642 264.17 631.148H265.943ZM271.584 639.176C274.044 639.176 275.652 637.375 275.652 634.676C275.652 631.96 274.044 630.159 271.584 630.159C269.124 630.159 267.516 631.96 267.516 634.676C267.516 637.375 269.124 639.176 271.584 639.176ZM271.589 637.75C269.982 637.75 269.232 636.347 269.232 634.67C269.232 633 269.982 631.58 271.589 631.58C273.186 631.58 273.936 633 273.936 634.67C273.936 636.347 273.186 637.75 271.589 637.75ZM279.247 633.818C279.247 632.426 280.099 631.631 281.281 631.631C282.435 631.631 283.134 632.386 283.134 633.653V639H284.832V633.449C284.832 631.29 283.645 630.159 281.861 630.159C280.548 630.159 279.69 630.767 279.287 631.693H279.179V630.273H277.548V639H279.247V633.818ZM291.185 630.273H289.395V628.182H287.696V630.273H286.418V631.636H287.696V636.79C287.69 638.375 288.901 639.142 290.241 639.114C290.781 639.108 291.145 639.006 291.344 638.932L291.037 637.528C290.923 637.551 290.713 637.602 290.44 637.602C289.889 637.602 289.395 637.42 289.395 636.438V631.636H291.185V630.273ZM295.604 639.193C297.047 639.193 297.859 638.46 298.183 637.807H298.251V639H299.911V633.205C299.911 630.665 297.911 630.159 296.524 630.159C294.945 630.159 293.49 630.795 292.922 632.386L294.518 632.75C294.768 632.131 295.405 631.534 296.547 631.534C297.643 631.534 298.206 632.108 298.206 633.097V633.136C298.206 633.756 297.57 633.744 296.001 633.926C294.348 634.119 292.655 634.551 292.655 636.534C292.655 638.25 293.945 639.193 295.604 639.193ZM295.973 637.83C295.013 637.83 294.32 637.398 294.32 636.557C294.32 635.648 295.126 635.324 296.109 635.193C296.661 635.119 297.967 634.972 298.212 634.727V635.852C298.212 636.886 297.388 637.83 295.973 637.83ZM305.849 639.176C307.912 639.176 309.247 637.938 309.435 636.239H307.781C307.565 637.182 306.832 637.739 305.861 637.739C304.423 637.739 303.497 636.54 303.497 634.636C303.497 632.767 304.44 631.591 305.861 631.591C306.94 631.591 307.599 632.273 307.781 633.091H309.435C309.253 631.33 307.815 630.159 305.832 630.159C303.372 630.159 301.781 632.011 301.781 634.676C301.781 637.307 303.315 639.176 305.849 639.176ZM315.325 630.273H313.536V628.182H311.837V630.273H310.558V631.636H311.837V636.79C311.831 638.375 313.041 639.142 314.382 639.114C314.922 639.108 315.286 639.006 315.484 638.932L315.178 637.528C315.064 637.551 314.854 637.602 314.581 637.602C314.03 637.602 313.536 637.42 313.536 636.438V631.636H315.325V630.273ZM323.138 633.818C323.138 632.426 324.018 631.631 325.229 631.631C326.399 631.631 327.098 632.375 327.098 633.653V639H328.797V633.449C328.797 631.273 327.604 630.159 325.808 630.159C324.45 630.159 323.632 630.75 323.223 631.693H323.115V627.364H321.439V639H323.138V633.818ZM334.74 639.176C337.2 639.176 338.808 637.375 338.808 634.676C338.808 631.96 337.2 630.159 334.74 630.159C332.28 630.159 330.672 631.96 330.672 634.676C330.672 637.375 332.28 639.176 334.74 639.176ZM334.746 637.75C333.138 637.75 332.388 636.347 332.388 634.67C332.388 633 333.138 631.58 334.746 631.58C336.342 631.58 337.092 633 337.092 634.67C337.092 636.347 336.342 637.75 334.746 637.75ZM347.244 632.403C346.892 631.045 345.83 630.159 343.943 630.159C341.972 630.159 340.574 631.199 340.574 632.744C340.574 633.983 341.324 634.807 342.96 635.17L344.438 635.494C345.278 635.682 345.67 636.057 345.67 636.602C345.67 637.278 344.949 637.807 343.835 637.807C342.818 637.807 342.165 637.369 341.96 636.511L340.318 636.761C340.602 638.307 341.886 639.176 343.847 639.176C345.955 639.176 347.415 638.057 347.415 636.477C347.415 635.244 346.631 634.483 345.028 634.114L343.642 633.795C342.682 633.568 342.267 633.244 342.273 632.653C342.267 631.983 342.994 631.506 343.96 631.506C345.017 631.506 345.506 632.091 345.705 632.676L347.244 632.403ZM353.357 630.273H351.567V628.182H349.868V630.273H348.589V631.636H349.868V636.79C349.862 638.375 351.072 639.142 352.413 639.114C352.953 639.108 353.317 639.006 353.516 638.932L353.209 637.528C353.095 637.551 352.885 637.602 352.612 637.602C352.061 637.602 351.567 637.42 351.567 636.438V631.636H353.357V630.273Z" fill="white"/>
</g>
<path d="M23.1176 644.182H24.9244L24.9329 642.23C28.5891 641.966 30.6857 639.955 30.6943 637.099C30.6857 634.074 28.1886 632.693 25.5636 632.071L25.0011 631.926L25.0352 627.06C26.3988 627.298 27.2766 628.116 27.413 629.344H30.4556C30.4045 626.634 28.2738 624.656 25.0522 624.349L25.0607 622.364H23.2539L23.2454 624.349C20.0494 624.673 17.7482 626.634 17.7568 629.455C17.7568 631.96 19.538 633.401 22.4102 634.142L23.1772 634.338L23.1431 639.494C21.6176 639.256 20.5181 638.386 20.4073 636.844H17.2965C17.4159 640.04 19.6147 641.94 23.1261 642.23L23.1176 644.182ZM24.9499 639.494L24.984 634.815C26.5352 635.267 27.5238 635.864 27.5323 637.074C27.5238 638.335 26.5096 639.239 24.9499 639.494ZM23.1943 631.466C22.0181 631.091 20.9443 630.469 20.9613 629.259C20.9698 628.159 21.7965 627.307 23.2284 627.06L23.1943 631.466ZM39.1269 642.239C42.8599 642.239 45.5786 640.099 45.5701 637.151C45.5786 634.969 44.215 633.401 41.7689 633.051V632.915C43.661 632.506 44.9309 631.099 44.9224 629.139C44.9309 626.48 42.6638 624.307 39.178 624.307C35.786 624.307 33.161 626.327 33.0928 629.25H36.1354C36.1866 627.784 37.5502 626.872 39.161 626.872C40.7888 626.872 41.8712 627.861 41.8627 629.327C41.8712 630.852 40.6099 631.866 38.803 631.866H37.2604V634.304H38.803C41.0104 634.304 42.3229 635.412 42.3144 636.989C42.3229 638.531 40.9849 639.588 39.1184 639.588C37.3627 639.588 36.0076 638.676 35.9309 637.253H32.7263C32.8116 640.202 35.4451 642.239 39.1269 642.239ZM54.4672 642.332C58.6774 642.341 61.1916 639.017 61.1916 633.29C61.1916 627.597 58.6604 624.307 54.4672 624.307C50.274 624.307 47.7513 627.588 47.7428 633.29C47.7428 639.009 50.257 642.332 54.4672 642.332ZM54.4672 639.665C52.2939 639.665 50.9303 637.483 50.9388 633.29C50.9473 629.131 52.3024 626.94 54.4672 626.94C56.6405 626.94 57.9956 629.131 58.0041 633.29C58.0041 637.483 56.649 639.665 54.4672 639.665ZM69.995 642.332C74.2053 642.341 76.7195 639.017 76.7195 633.29C76.7195 627.597 74.1882 624.307 69.995 624.307C65.8018 624.307 63.2791 627.588 63.2706 633.29C63.2706 639.009 65.7848 642.332 69.995 642.332ZM69.995 639.665C67.8217 639.665 66.4581 637.483 66.4666 633.29C66.4751 629.131 67.8303 626.94 69.995 626.94C72.1683 626.94 73.5234 629.131 73.532 633.29C73.532 637.483 72.1768 639.665 69.995 639.665Z" fill="#444444"/>
<path d="M87.3793 628.818H86.4304L82.6804 642.75H83.6293L87.3793 628.818ZM93.6321 641H94.6435V635.409C94.6435 634.051 95.5469 633.085 96.7571 633.085C97.9503 633.085 98.6435 633.881 98.6435 635.062V641H99.6776V635.256C99.6776 634 100.428 633.085 101.757 633.085C102.911 633.085 103.678 633.778 103.678 635.153V641H104.689V635.153C104.689 633.199 103.683 632.159 102.064 632.159C100.791 632.159 99.8707 632.778 99.4787 633.744H99.4048C99.0185 632.756 98.2514 632.159 97.0469 632.159C95.9048 632.159 95.0526 632.71 94.706 633.614H94.6151V632.273H93.6321V641ZM110.759 641.182C113.02 641.182 114.599 639.335 114.599 636.676C114.599 634 113.02 632.153 110.759 632.153C108.497 632.153 106.918 634 106.918 636.676C106.918 639.335 108.497 641.182 110.759 641.182ZM110.759 640.256C108.946 640.256 107.935 638.631 107.935 636.676C107.935 634.722 108.946 633.074 110.759 633.074C112.571 633.074 113.582 634.722 113.582 636.676C113.582 638.631 112.571 640.256 110.759 640.256ZM117.831 635.545C117.831 634.023 118.831 633.085 120.206 633.085C121.547 633.085 122.411 633.983 122.411 635.409V641H123.422V635.347C123.422 633.278 122.223 632.159 120.462 632.159C119.183 632.159 118.303 632.75 117.893 633.642H117.803V632.273H116.82V641H117.831V635.545ZM129.523 632.273H127.676V630.182H126.659V632.273H125.358V633.153H126.659V638.96C126.659 640.386 127.784 641.131 128.903 641.131C129.324 641.131 129.608 641.051 129.801 640.977L129.585 640.062C129.443 640.102 129.261 640.142 128.994 640.142C128.307 640.142 127.676 639.818 127.676 638.722V633.153H129.523V632.273ZM133.018 635.545C133.018 634.023 134.041 633.085 135.439 633.085C136.791 633.085 137.655 633.972 137.655 635.409V641H138.672V635.347C138.672 633.267 137.467 632.159 135.695 632.159C134.376 632.159 133.518 632.739 133.109 633.642H133.018V629.364H132.007V641H133.018V635.545Z" fill="#444444"/>
</g>
<defs>
<filter id="filter0_d" x="223" y="607" width="164" height="58" filterUnits="userSpaceOnUse" color-interpolation-filters="sRGB">
<feFlood flood-opacity="0" result="BackgroundImageFix"/>
<feColorMatrix in="SourceAlpha" type="matrix" values="0 0 0 0 0 0 0 0 0 0 0 0 0 0 0 0 0 0 127 0" result="hardAlpha"/>
<feOffset dy="3"/>
<feGaussianBlur stdDeviation="2"/>
<feColorMatrix type="matrix" values="0 0 0 0 0 0 0 0 0 0 0 0 0 0 0 0 0 0 0.16 0"/>
<feBlend mode="normal" in2="BackgroundImageFix" result="effect1_dropShadow"/>
<feBlend mode="normal" in="SourceGraphic" in2="effect1_dropShadow" result="shape"/>
</filter>
<clipPath id="clip0">
<rect width="375" height="667" fill="white"/>
</clipPath>
</defs>
</svg>
