<svg width="375" height="667" viewBox="0 0 375 667" fill="none" xmlns="http://www.w3.org/2000/svg">
<g clip-path="url(#clip0)">
<rect width="375" height="667" fill="white"/>
<path opacity="0.5" d="M33.5455 237H34.608V232.551H37.3182C39.7784 232.551 41.0511 230.989 41.0511 228.955C41.0511 226.92 39.7784 225.364 37.3011 225.364H33.5455V237ZM34.608 231.597V226.318H37.2727C39.1136 226.318 40.0057 227.426 40.0057 228.955C40.0057 230.477 39.1136 231.597 37.2898 231.597H34.608ZM43.3352 237H44.3466V231.364C44.3466 230.068 45.3409 229.131 46.7045 229.131C46.9716 229.131 47.2216 229.176 47.3125 229.188V228.159C47.1761 228.153 46.9432 228.142 46.7784 228.142C45.6818 228.142 44.7443 228.733 44.392 229.614H44.3182V228.273H43.3352V237ZM52.1648 237.182C54.4261 237.182 56.0057 235.335 56.0057 232.676C56.0057 230 54.4261 228.153 52.1648 228.153C49.9034 228.153 48.3239 230 48.3239 232.676C48.3239 235.335 49.9034 237.182 52.1648 237.182ZM52.1648 236.256C50.3523 236.256 49.3409 234.631 49.3409 232.676C49.3409 230.722 50.3523 229.074 52.1648 229.074C53.9773 229.074 54.9886 230.722 54.9886 232.676C54.9886 234.631 53.9773 236.256 52.1648 236.256ZM61.8168 228.273H59.8849V227.205C59.8849 226.29 60.3793 225.778 61.2599 225.778C61.5952 225.778 61.7997 225.852 61.9531 225.903L62.2486 225.017C62.044 224.932 61.7031 224.824 61.169 224.824C59.9815 224.824 58.8679 225.585 58.8679 226.994V228.273H57.527V229.153H58.8679V237H59.8793L59.8849 229.153H61.8168V228.273ZM67.0043 237.182C68.7543 237.182 69.9304 236.233 70.3281 235.136L69.3679 234.824C69.0327 235.608 68.2429 236.256 67.0043 236.256C65.2202 236.256 64.0895 234.955 64.044 232.938H70.544V232.438C70.544 229.523 68.7429 228.153 66.8509 228.153C64.5895 228.153 63.027 230.045 63.027 232.688C63.027 235.335 64.5611 237.182 67.0043 237.182ZM64.0497 232.045C64.1577 230.42 65.2543 229.074 66.8509 229.074C68.4134 229.074 69.5099 230.364 69.5099 232.045H64.0497ZM78.6364 230.188C78.2102 228.926 77.2784 228.153 75.6818 228.153C73.9205 228.153 72.642 229.159 72.642 230.597C72.642 231.767 73.3523 232.562 74.8693 232.926L76.2955 233.267C77.2557 233.494 77.7159 233.989 77.7159 234.688C77.7159 235.597 76.8466 236.273 75.5057 236.273C74.3125 236.273 73.5682 235.733 73.3239 234.699L72.3523 234.938C72.6591 236.392 73.8125 237.182 75.5227 237.182C77.4432 237.182 78.7614 236.125 78.7614 234.642C78.7614 233.477 78.0284 232.699 76.5682 232.341L75.25 232.017C74.1648 231.744 73.6591 231.307 73.6591 230.551C73.6591 229.665 74.5057 229.045 75.6818 229.045C76.858 229.045 77.4375 229.665 77.7102 230.449L78.6364 230.188ZM86.8395 230.188C86.4134 228.926 85.4815 228.153 83.8849 228.153C82.1236 228.153 80.8452 229.159 80.8452 230.597C80.8452 231.767 81.5554 232.562 83.0724 232.926L84.4986 233.267C85.4588 233.494 85.919 233.989 85.919 234.688C85.919 235.597 85.0497 236.273 83.7088 236.273C82.5156 236.273 81.7713 235.733 81.527 234.699L80.5554 234.938C80.8622 236.392 82.0156 237.182 83.7259 237.182C85.6463 237.182 86.9645 236.125 86.9645 234.642C86.9645 233.477 86.2315 232.699 84.7713 232.341L83.4531 232.017C82.3679 231.744 81.8622 231.307 81.8622 230.551C81.8622 229.665 82.7088 229.045 83.8849 229.045C85.0611 229.045 85.6406 229.665 85.9134 230.449L86.8395 230.188ZM89.1903 237H90.2074V228.273H89.1903V237ZM89.7074 226.773C90.1222 226.773 90.4688 226.443 90.4688 226.045C90.4688 225.648 90.1222 225.318 89.7074 225.318C89.2926 225.318 88.9517 225.648 88.9517 226.045C88.9517 226.443 89.2926 226.773 89.7074 226.773ZM96.2741 237.182C98.5355 237.182 100.115 235.335 100.115 232.676C100.115 230 98.5355 228.153 96.2741 228.153C94.0128 228.153 92.4332 230 92.4332 232.676C92.4332 235.335 94.0128 237.182 96.2741 237.182ZM96.2741 236.256C94.4616 236.256 93.4503 234.631 93.4503 232.676C93.4503 230.722 94.4616 229.074 96.2741 229.074C98.0866 229.074 99.098 230.722 99.098 232.676C99.098 234.631 98.0866 236.256 96.2741 236.256ZM103.347 231.545C103.347 230.023 104.347 229.085 105.722 229.085C107.062 229.085 107.926 229.983 107.926 231.409V237H108.938V231.347C108.938 229.278 107.739 228.159 105.977 228.159C104.699 228.159 103.818 228.75 103.409 229.642H103.318V228.273H102.335V237H103.347V231.545ZM114.038 237.199C115.493 237.199 116.379 236.392 116.743 235.619H116.805V237H117.817V231.074C117.817 228.733 116.055 228.153 114.72 228.153C113.385 228.153 112.01 228.682 111.419 230.108L112.379 230.455C112.697 229.705 113.487 229.062 114.749 229.062C116.072 229.062 116.805 229.79 116.805 230.983V231.188C116.805 231.847 115.987 231.858 114.521 232.04C112.55 232.284 111.169 232.835 111.169 234.562C111.169 236.244 112.453 237.199 114.038 237.199ZM114.175 236.273C113.033 236.273 112.18 235.665 112.18 234.608C112.18 233.551 113.044 233.108 114.521 232.926C115.237 232.841 116.51 232.682 116.805 232.392V233.653C116.805 235.085 115.788 236.273 114.175 236.273ZM121.518 225.364H120.507V237H121.518V225.364ZM128.2 226.318H131.888V237H132.95V226.318H136.638V225.364H128.2V226.318ZM138.831 237H139.848V228.273H138.831V237ZM139.348 226.773C139.763 226.773 140.109 226.443 140.109 226.045C140.109 225.648 139.763 225.318 139.348 225.318C138.933 225.318 138.592 225.648 138.592 226.045C138.592 226.443 138.933 226.773 139.348 226.773ZM145.96 228.273H144.114V226.182H143.097V228.273H141.795V229.153H143.097V234.96C143.097 236.386 144.222 237.131 145.341 237.131C145.761 237.131 146.045 237.051 146.239 236.977L146.023 236.062C145.881 236.102 145.699 236.142 145.432 236.142C144.744 236.142 144.114 235.818 144.114 234.722V229.153H145.96V228.273ZM149.456 225.364H148.445V237H149.456V225.364ZM155.661 237.182C157.411 237.182 158.587 236.233 158.984 235.136L158.024 234.824C157.689 235.608 156.899 236.256 155.661 236.256C153.876 236.256 152.746 234.955 152.7 232.938H159.2V232.438C159.2 229.523 157.399 228.153 155.507 228.153C153.246 228.153 151.683 230.045 151.683 232.688C151.683 235.335 153.217 237.182 155.661 237.182ZM152.706 232.045C152.814 230.42 153.911 229.074 155.507 229.074C157.07 229.074 158.166 230.364 158.166 232.045H152.706Z" fill="#444444"/>
<rect x="16.5" y="206.5" width="342" height="49" rx="5.5" stroke="#BBBBBB"/>
<g opacity="0.5">
<circle cx="45" cy="297" r="13" fill="#FAFAFA"/>
<path d="M48.05 292.2V292.35H48.2H50.6C51.1967 292.35 51.769 292.587 52.191 293.009C52.6129 293.431 52.85 294.003 52.85 294.6V301.8C52.85 302.397 52.6129 302.969 52.191 303.391C51.769 303.813 51.1967 304.05 50.6 304.05H39.4C38.8033 304.05 38.231 303.813 37.809 303.391C37.3871 302.969 37.15 302.397 37.15 301.8V294.6C37.15 294.003 37.3871 293.431 37.809 293.009C38.231 292.587 38.8033 292.35 39.4 292.35H41.8H41.95V292.2V291.4C41.95 290.803 42.1871 290.231 42.609 289.809C43.031 289.387 43.6033 289.15 44.2 289.15H45.8C46.3967 289.15 46.969 289.387 47.391 289.809C47.8129 290.231 48.05 290.803 48.05 291.4V292.2ZM46.6 292.35H46.75V292.2V291.4C46.75 291.148 46.6499 290.906 46.4718 290.728C46.2936 290.55 46.052 290.45 45.8 290.45H44.2C43.948 290.45 43.7064 290.55 43.5282 290.728C43.3501 290.906 43.25 291.148 43.25 291.4V292.2V292.35H43.4H46.6ZM38.6 297.61H38.45V297.76V301.8C38.45 302.052 38.5501 302.294 38.7282 302.472C38.9064 302.65 39.148 302.75 39.4 302.75H50.6C50.852 302.75 51.0936 302.65 51.2718 302.472C51.4499 302.294 51.55 302.052 51.55 301.8V297.76V297.61H51.4H49H48.85V297.76V298.6C48.85 298.772 48.7815 298.938 48.6596 299.06C48.5377 299.182 48.3724 299.25 48.2 299.25C48.0276 299.25 47.8623 299.182 47.7404 299.06C47.6185 298.938 47.55 298.772 47.55 298.6V297.76V297.61H47.4H42.6H42.45V297.76V298.6C42.45 298.772 42.3815 298.938 42.2596 299.06C42.1377 299.182 41.9724 299.25 41.8 299.25C41.6276 299.25 41.4623 299.182 41.3404 299.06C41.2185 298.938 41.15 298.772 41.15 298.6V297.76V297.61H41H38.6ZM51.4 296.35H51.55V296.2V294.6C51.55 294.348 51.4499 294.106 51.2718 293.928C51.0936 293.75 50.852 293.65 50.6 293.65H39.4C39.148 293.65 38.9064 293.75 38.7282 293.928C38.5501 294.106 38.45 294.348 38.45 294.6V296.2V296.35H38.6H51.4Z" fill="#444444" stroke="#FAFAFA" stroke-width="0.3"/>
</g>
<path opacity="0.5" d="M71.5455 303H72.608V297.653H77.75V296.699H72.608V292.318H78.2784V291.364H71.5455V303ZM80.7216 303H81.7386V294.273H80.7216V303ZM81.2386 292.773C81.6534 292.773 82 292.443 82 292.045C82 291.648 81.6534 291.318 81.2386 291.318C80.8239 291.318 80.483 291.648 80.483 292.045C80.483 292.443 80.8239 292.773 81.2386 292.773ZM87.9418 303.182C89.6918 303.182 90.8679 302.233 91.2656 301.136L90.3054 300.824C89.9702 301.608 89.1804 302.256 87.9418 302.256C86.1577 302.256 85.027 300.955 84.9815 298.938H91.4815V298.438C91.4815 295.523 89.6804 294.153 87.7884 294.153C85.527 294.153 83.9645 296.045 83.9645 298.688C83.9645 301.335 85.4986 303.182 87.9418 303.182ZM84.9872 298.045C85.0952 296.42 86.1918 295.074 87.7884 295.074C89.3509 295.074 90.4474 296.364 90.4474 298.045H84.9872ZM94.7216 291.364H93.7102V303H94.7216V291.364ZM100.54 303.182C102.125 303.182 102.864 302.176 103.222 301.381H103.341V303H104.33V291.364H103.312V295.938H103.222C102.875 295.153 102.153 294.153 100.557 294.153C98.4034 294.153 96.9489 295.972 96.9489 298.659C96.9489 301.369 98.3977 303.182 100.54 303.182ZM100.659 302.256C98.9205 302.256 97.9659 300.676 97.9659 298.642C97.9659 296.631 98.9091 295.074 100.659 295.074C102.364 295.074 103.33 296.551 103.33 298.642C103.33 300.75 102.352 302.256 100.659 302.256Z" fill="#444444"/>
<rect x="16.5" y="272.5" width="342" height="49" rx="5.5" stroke="#BBBBBB"/>
<g opacity="0.5">
<circle cx="45" cy="363" r="13" fill="#FAFAFA"/>
<path d="M37 359.71V370.222H53V356L47.24 359.71V356L41.736 359.71V356L37 359.71Z" stroke="#444444" stroke-linecap="round" stroke-linejoin="round"/>
<path d="M41.0178 362.756V363.751H40.4489H39.88V362.756H41.0178Z" fill="#444444"/>
<path d="M41.0178 366.418V367.414H40.4489H39.88V366.418H41.0178Z" fill="#444444"/>
<path d="M43.9334 362.756V363.751H43.3645H42.7956V362.756H43.9334Z" fill="#444444"/>
<path d="M43.9334 366.418V367.414H43.3645H42.7956V366.418H43.9334Z" fill="#444444"/>
<path d="M46.8489 362.756V363.751H46.28H45.7111V362.756H46.8489Z" fill="#444444"/>
<path d="M46.8489 366.418V367.414H46.28H45.7111V366.418H46.8489Z" fill="#444444"/>
<path d="M49.7644 362.756V363.751H49.1955H48.6266V362.756H49.7644Z" fill="#444444"/>
<path d="M49.7644 366.418V367.414H49.1955H48.6266V366.418H49.7644Z" fill="#444444"/>
</g>
<path opacity="0.5" d="M68.608 357.364H67.5455V369H68.608V357.364ZM72.5028 363.545C72.5028 362.023 73.5028 361.085 74.8778 361.085C76.2188 361.085 77.0824 361.983 77.0824 363.409V369H78.0938V363.347C78.0938 361.278 76.8949 360.159 75.1335 360.159C73.8551 360.159 72.9744 360.75 72.5653 361.642H72.4744V360.273H71.4915V369H72.5028V363.545ZM83.8991 369.182C85.4844 369.182 86.223 368.176 86.581 367.381H86.7003V369H87.6889V357.364H86.6719V361.938H86.581C86.2344 361.153 85.5128 360.153 83.9162 360.153C81.7628 360.153 80.3082 361.972 80.3082 364.659C80.3082 367.369 81.7571 369.182 83.8991 369.182ZM84.0185 368.256C82.2798 368.256 81.3253 366.676 81.3253 364.642C81.3253 362.631 82.2685 361.074 84.0185 361.074C85.723 361.074 86.6889 362.551 86.6889 364.642C86.6889 366.75 85.7116 368.256 84.0185 368.256ZM96.1151 365.665C96.1151 367.267 94.9105 368.131 93.7287 368.131C92.4673 368.131 91.581 367.227 91.581 365.864V360.273H90.5696V365.926C90.5696 367.994 91.7628 369.114 93.4389 369.114C94.7173 369.114 95.6264 368.449 96.0355 367.551H96.1151V369H97.1264V360.273H96.1151V365.665ZM105.668 362.188C105.241 360.926 104.31 360.153 102.713 360.153C100.952 360.153 99.6733 361.159 99.6733 362.597C99.6733 363.767 100.384 364.562 101.901 364.926L103.327 365.267C104.287 365.494 104.747 365.989 104.747 366.688C104.747 367.597 103.878 368.273 102.537 368.273C101.344 368.273 100.599 367.733 100.355 366.699L99.3835 366.938C99.6903 368.392 100.844 369.182 102.554 369.182C104.474 369.182 105.793 368.125 105.793 366.642C105.793 365.477 105.06 364.699 103.599 364.341L102.281 364.017C101.196 363.744 100.69 363.307 100.69 362.551C100.69 361.665 101.537 361.045 102.713 361.045C103.889 361.045 104.469 361.665 104.741 362.449L105.668 362.188ZM111.445 360.273H109.598V358.182H108.581V360.273H107.28V361.153H108.581V366.96C108.581 368.386 109.706 369.131 110.825 369.131C111.246 369.131 111.53 369.051 111.723 368.977L111.507 368.062C111.365 368.102 111.183 368.142 110.916 368.142C110.229 368.142 109.598 367.818 109.598 366.722V361.153H111.445V360.273ZM113.741 369H114.753V363.364C114.753 362.068 115.747 361.131 117.111 361.131C117.378 361.131 117.628 361.176 117.719 361.188V360.159C117.582 360.153 117.349 360.142 117.185 360.142C116.088 360.142 115.151 360.733 114.798 361.614H114.724V360.273H113.741V369ZM120.415 372.273C121.506 372.273 122.307 371.648 122.773 370.381L126.472 360.29L125.369 360.273L122.778 367.665H122.699L120.108 360.273H119.011L122.222 369.085L121.903 369.972C121.42 371.29 120.739 371.523 119.71 371.199L119.438 372.091C119.642 372.188 120.017 372.273 120.415 372.273Z" fill="#444444"/>
<path d="M327 359.5L334 366.5L341 359.5" stroke="#BBBBBB" stroke-width="3" stroke-linecap="round" stroke-linejoin="round"/>
<rect x="16.5" y="338.5" width="342" height="49" rx="5.5" stroke="#BBBBBB"/>
<path d="M16.9943 132.186H23.2287V149H27.4844V132.186H33.7188V128.636H16.9943V132.186ZM40.8588 149.298C44.6373 149.298 47.1827 147.459 47.7793 144.625L43.8617 144.366C43.4341 145.53 42.3404 146.136 40.9285 146.136C38.8106 146.136 37.4682 144.734 37.4682 142.457V142.447H47.8688V141.284C47.8688 136.094 44.7267 133.528 40.6898 133.528C36.1955 133.528 33.2821 136.72 33.2821 141.433C33.2821 146.276 36.1557 149.298 40.8588 149.298ZM37.4682 139.822C37.5577 138.082 38.8802 136.69 40.7594 136.69C42.5989 136.69 43.8716 138.003 43.8816 139.822H37.4682ZM54.5888 128.636H50.353V149H54.5888V128.636ZM61.9377 128.636H57.7019V149H61.9377V128.636ZM81.0453 142.497C81.0553 144.545 79.6533 145.619 78.132 145.619C76.5311 145.619 75.497 144.496 75.4871 142.696V133.727H71.2513V143.452C71.2612 147.021 73.3493 149.199 76.4217 149.199C78.7186 149.199 80.3692 148.016 81.0553 146.226H81.2143V149H85.2811V133.727H81.0453V142.497ZM101.097 138.082C100.719 135.268 98.4517 133.528 94.5938 133.528C90.6861 133.528 88.1108 135.338 88.1208 138.281C88.1108 140.568 89.5526 142.05 92.5356 142.646L95.1804 143.173C96.5128 143.442 97.1194 143.929 97.1392 144.695C97.1194 145.599 96.135 146.246 94.6535 146.246C93.1421 146.246 92.1378 145.599 91.8793 144.357L87.7131 144.575C88.1108 147.499 90.5966 149.298 94.6435 149.298C98.6009 149.298 101.435 147.28 101.445 144.267C101.435 142.06 99.9929 140.737 97.0299 140.131L94.2657 139.574C92.8438 139.266 92.3168 138.778 92.3267 138.043C92.3168 137.128 93.3509 136.531 94.6634 136.531C96.135 136.531 97.01 137.337 97.2188 138.321L101.097 138.082ZM114.387 149.288C116.645 149.288 118.106 148.304 118.852 146.882H118.971V149H122.988V138.699C122.988 135.06 119.906 133.528 116.505 133.528C112.846 133.528 110.44 135.278 109.853 138.062L113.771 138.381C114.059 137.366 114.964 136.621 116.485 136.621C117.927 136.621 118.753 137.347 118.753 138.599V138.659C118.753 139.643 117.709 139.773 115.054 140.031C112.031 140.31 109.316 141.324 109.316 144.734C109.316 147.757 111.474 149.288 114.387 149.288ZM115.601 146.365C114.298 146.365 113.363 145.759 113.363 144.595C113.363 143.402 114.348 142.815 115.839 142.607C116.764 142.477 118.275 142.259 118.782 141.92V143.541C118.782 145.142 117.46 146.365 115.601 146.365ZM126.074 149H130.25V146.554H130.439C131.026 147.827 132.308 149.249 134.774 149.249C138.255 149.249 140.969 146.494 140.969 141.384C140.969 136.134 138.135 133.528 134.784 133.528C132.229 133.528 131.006 135.05 130.439 136.293H130.31V128.636H126.074V149ZM130.22 141.364C130.22 138.639 131.374 136.899 133.432 136.899C135.53 136.899 136.644 138.719 136.644 141.364C136.644 144.028 135.51 145.878 133.432 145.878C131.394 145.878 130.22 144.088 130.22 141.364ZM150.416 149.298C155.049 149.298 157.933 146.126 157.933 141.423C157.933 136.69 155.049 133.528 150.416 133.528C145.782 133.528 142.899 136.69 142.899 141.423C142.899 146.126 145.782 149.298 150.416 149.298ZM150.436 146.017C148.298 146.017 147.204 144.058 147.204 141.393C147.204 138.729 148.298 136.76 150.436 136.76C152.534 136.76 153.628 138.729 153.628 141.393C153.628 144.058 152.534 146.017 150.436 146.017ZM170.201 142.497C170.211 144.545 168.809 145.619 167.288 145.619C165.687 145.619 164.653 144.496 164.643 142.696V133.727H160.407V143.452C160.417 147.021 162.505 149.199 165.578 149.199C167.875 149.199 169.525 148.016 170.211 146.226H170.37V149H174.437V133.727H170.201V142.497ZM185.669 133.727H182.795V130.068H178.559V133.727H176.471V136.909H178.559V144.864C178.54 147.857 180.578 149.338 183.65 149.209C184.744 149.169 185.52 148.95 185.947 148.811L185.281 145.659C185.072 145.699 184.625 145.798 184.227 145.798C183.382 145.798 182.795 145.48 182.795 144.307V136.909H185.669V133.727ZM196.964 154.727C200.116 154.727 201.786 153.116 202.651 150.651L208.587 133.747L204.103 133.727L200.911 144.943H200.752L197.59 133.727H193.135L198.614 149.438L198.366 150.084C197.809 151.516 196.745 151.585 195.253 151.128L194.299 154.29C194.905 154.548 195.89 154.727 196.964 154.727ZM216.856 149.298C221.489 149.298 224.373 146.126 224.373 141.423C224.373 136.69 221.489 133.528 216.856 133.528C212.222 133.528 209.339 136.69 209.339 141.423C209.339 146.126 212.222 149.298 216.856 149.298ZM216.876 146.017C214.738 146.017 213.644 144.058 213.644 141.393C213.644 138.729 214.738 136.76 216.876 136.76C218.974 136.76 220.067 138.729 220.067 141.393C220.067 144.058 218.974 146.017 216.876 146.017ZM236.641 142.497C236.651 144.545 235.249 145.619 233.728 145.619C232.127 145.619 231.093 144.496 231.083 142.696V133.727H226.847V143.452C226.857 147.021 228.945 149.199 232.018 149.199C234.314 149.199 235.965 148.016 236.651 146.226H236.81V149H240.877V133.727H236.641V142.497ZM243.985 149H248.221V140.359C248.221 138.48 249.593 137.188 251.462 137.188C252.049 137.188 252.854 137.287 253.252 137.416V133.658C252.874 133.568 252.347 133.509 251.92 133.509C250.209 133.509 248.807 134.503 248.251 136.392H248.092V133.727H243.985V149ZM267.869 138.082C267.492 135.268 265.225 133.528 261.367 133.528C257.459 133.528 254.884 135.338 254.894 138.281C254.884 140.568 256.325 142.05 259.308 142.646L261.953 143.173C263.286 143.442 263.892 143.929 263.912 144.695C263.892 145.599 262.908 146.246 261.426 146.246C259.915 146.246 258.911 145.599 258.652 144.357L254.486 144.575C254.884 147.499 257.369 149.298 261.416 149.298C265.374 149.298 268.208 147.28 268.217 144.267C268.208 142.06 266.766 140.737 263.803 140.131L261.038 139.574C259.617 139.266 259.09 138.778 259.1 138.043C259.09 137.128 260.124 136.531 261.436 136.531C262.908 136.531 263.783 137.337 263.992 138.321L267.869 138.082ZM277.565 149.298C281.343 149.298 283.889 147.459 284.485 144.625L280.568 144.366C280.14 145.53 279.046 146.136 277.635 146.136C275.517 146.136 274.174 144.734 274.174 142.457V142.447H284.575V141.284C284.575 136.094 281.433 133.528 277.396 133.528C272.902 133.528 269.988 136.72 269.988 141.433C269.988 146.276 272.862 149.298 277.565 149.298ZM274.174 139.822C274.264 138.082 275.586 136.69 277.466 136.69C279.305 136.69 280.578 138.003 280.588 139.822H274.174ZM291.295 128.636H287.059V149H291.295V128.636ZM302.621 133.727H299.588V132.703C299.588 131.669 300.006 131.062 301.249 131.062C301.756 131.062 302.273 131.172 302.611 131.281L303.357 128.099C302.83 127.94 301.667 127.682 300.364 127.682C297.49 127.682 295.353 129.303 295.353 132.624V133.727H293.195V136.909H295.353V149H299.588V136.909H302.621V133.727Z" fill="#555555"/>
<rect x="375" y="68" width="375" height="68" transform="rotate(-180 375 68)" fill="white"/>
<path d="M155.636 29.3438H158.678C158.619 26.3949 156.104 24.3068 152.389 24.3068C148.724 24.3068 145.971 26.3693 145.979 29.4545C145.979 31.9602 147.761 33.4006 150.633 34.142L152.619 34.6534C154.502 35.1307 155.746 35.7188 155.755 37.0739C155.746 38.5653 154.332 39.5625 152.269 39.5625C150.292 39.5625 148.758 38.6761 148.63 36.8438H145.519C145.647 40.3125 148.229 42.2642 152.295 42.2642C156.479 42.2642 158.908 40.1761 158.917 37.0994C158.908 34.0739 156.411 32.6932 153.786 32.071L152.15 31.6619C150.718 31.321 149.167 30.7159 149.184 29.2585C149.192 27.946 150.369 26.983 152.346 26.983C154.229 26.983 155.474 27.8608 155.636 29.3438ZM161.119 42H164.205V28.9091H161.119V42ZM162.671 27.0511C163.651 27.0511 164.452 26.3011 164.452 25.3807C164.452 24.4517 163.651 23.7017 162.671 23.7017C161.682 23.7017 160.881 24.4517 160.881 25.3807C160.881 26.3011 161.682 27.0511 162.671 27.0511ZM172.59 47.1818C176.127 47.1818 178.735 45.5625 178.735 42.2131V28.9091H175.693V31.0739H175.522C175.054 30.1278 174.073 28.7386 171.764 28.7386C168.738 28.7386 166.36 31.108 166.36 35.4119C166.36 39.6818 168.738 41.8125 171.755 41.8125C173.997 41.8125 175.045 40.6108 175.522 39.6477H175.676V42.1278C175.676 44.054 174.397 44.8466 172.642 44.8466C170.784 44.8466 169.965 43.9688 169.59 43.2017L166.812 43.875C167.375 45.7074 169.258 47.1818 172.59 47.1818ZM172.616 39.392C170.579 39.392 169.505 37.8068 169.505 35.3949C169.505 33.017 170.562 31.2699 172.616 31.2699C174.602 31.2699 175.693 32.9148 175.693 35.3949C175.693 37.892 174.585 39.392 172.616 39.392ZM184.502 34.3295C184.502 32.4375 185.645 31.3466 187.272 31.3466C188.866 31.3466 189.821 32.3949 189.821 34.142V42H192.906V33.6648C192.914 30.5284 191.125 28.7386 188.423 28.7386C186.463 28.7386 185.116 29.6761 184.52 31.1335H184.366V28.9091H181.417V42H184.502V34.3295ZM212.175 24.5455V35.6847C212.175 37.875 210.649 39.4432 208.254 39.4432C205.851 39.4432 204.334 37.875 204.334 35.6847V24.5455H201.172V35.9489C201.172 39.6989 203.984 42.2642 208.254 42.2642C212.507 42.2642 215.337 39.6989 215.337 35.9489V24.5455H212.175ZM218.157 46.9091H221.242V39.9375H221.37C221.856 40.892 222.87 42.2301 225.12 42.2301C228.205 42.2301 230.515 39.7841 230.515 35.4716C230.515 31.108 228.137 28.7386 225.111 28.7386C222.802 28.7386 221.839 30.1278 221.37 31.0739H221.191V28.9091H218.157V46.9091ZM221.183 35.4545C221.183 32.9148 222.273 31.2699 224.259 31.2699C226.313 31.2699 227.37 33.017 227.37 35.4545C227.37 37.9091 226.296 39.6989 224.259 39.6989C222.29 39.6989 221.183 37.9943 221.183 35.4545Z" fill="#555555"/>
<line x1="341" y1="41.8787" x2="355.849" y2="27.0294" stroke="#BBBBBB" stroke-width="3" stroke-linecap="round"/>
<line x1="341.121" y1="27" x2="355.971" y2="41.8492" stroke="#BBBBBB" stroke-width="3" stroke-linecap="round"/>
<rect y="68" width="375" height="4" fill="#DDDDDD"/>
<rect y="68" width="93.75" height="4" fill="#444444"/>
<rect y="599" width="375" height="68" fill="white"/>
<path d="M375 599H3.05176e-05" stroke="#DDDDDD"/>
<g filter="url(#filter0_d)">
<path d="M233 614C233 610.686 235.686 608 239 608H353C356.314 608 359 610.686 359 614V652C359 655.314 356.314 658 353 658H239C235.686 658 233 655.314 233 652V614Z" fill="#BBBBBB"/>
<path d="M271.943 631.148C271.545 628.659 269.597 627.205 267.136 627.205C264.125 627.205 261.903 629.46 261.903 633.182C261.903 636.903 264.114 639.159 267.136 639.159C269.693 639.159 271.562 637.557 271.943 635.256L270.17 635.25C269.869 636.739 268.619 637.557 267.148 637.557C265.153 637.557 263.648 636.028 263.648 633.182C263.648 630.358 265.148 628.807 267.153 628.807C268.636 628.807 269.881 629.642 270.17 631.148H271.943ZM277.584 639.176C280.044 639.176 281.652 637.375 281.652 634.676C281.652 631.96 280.044 630.159 277.584 630.159C275.124 630.159 273.516 631.96 273.516 634.676C273.516 637.375 275.124 639.176 277.584 639.176ZM277.589 637.75C275.982 637.75 275.232 636.347 275.232 634.67C275.232 633 275.982 631.58 277.589 631.58C279.186 631.58 279.936 633 279.936 634.67C279.936 636.347 279.186 637.75 277.589 637.75ZM285.247 633.818C285.247 632.426 286.099 631.631 287.281 631.631C288.435 631.631 289.134 632.386 289.134 633.653V639H290.832V633.449C290.832 631.29 289.645 630.159 287.861 630.159C286.548 630.159 285.69 630.767 285.287 631.693H285.179V630.273H283.548V639H285.247V633.818ZM297.185 630.273H295.395V628.182H293.696V630.273H292.418V631.636H293.696V636.79C293.69 638.375 294.901 639.142 296.241 639.114C296.781 639.108 297.145 639.006 297.344 638.932L297.037 637.528C296.923 637.551 296.713 637.602 296.44 637.602C295.889 637.602 295.395 637.42 295.395 636.438V631.636H297.185V630.273ZM299.064 639H300.763V630.273H299.064V639ZM299.922 628.926C300.507 628.926 300.996 628.472 300.996 627.915C300.996 627.358 300.507 626.898 299.922 626.898C299.331 626.898 298.848 627.358 298.848 627.915C298.848 628.472 299.331 628.926 299.922 628.926ZM304.747 633.818C304.747 632.426 305.599 631.631 306.781 631.631C307.935 631.631 308.634 632.386 308.634 633.653V639H310.332V633.449C310.332 631.29 309.145 630.159 307.361 630.159C306.048 630.159 305.19 630.767 304.787 631.693H304.679V630.273H303.048V639H304.747V633.818ZM318.139 635.381C318.145 636.864 317.043 637.568 316.088 637.568C315.037 637.568 314.31 636.807 314.31 635.619V630.273H312.611V635.824C312.611 637.989 313.798 639.114 315.474 639.114C316.787 639.114 317.679 638.42 318.082 637.489H318.173V639H319.844V630.273H318.139V635.381ZM325.888 639.176C327.791 639.176 329.138 638.239 329.524 636.818L327.916 636.528C327.609 637.352 326.871 637.773 325.905 637.773C324.45 637.773 323.473 636.83 323.428 635.148H329.632V634.545C329.632 631.392 327.746 630.159 325.768 630.159C323.337 630.159 321.734 632.011 321.734 634.693C321.734 637.403 323.314 639.176 325.888 639.176ZM323.433 633.875C323.501 632.636 324.399 631.562 325.78 631.562C327.098 631.562 327.962 632.54 327.967 633.875H323.433Z" fill="white"/>
</g>
<path d="M23.625 630.42H25.3182C25.267 628.557 23.6193 627.205 21.2557 627.205C18.9205 627.205 17.1307 628.54 17.1307 630.545C17.1307 632.165 18.2898 633.114 20.1591 633.619L21.5341 633.994C22.7784 634.324 23.7386 634.733 23.7386 635.767C23.7386 636.903 22.6534 637.653 21.1591 637.653C19.8068 637.653 18.6818 637.051 18.5795 635.784H16.8182C16.9318 637.892 18.5625 639.193 21.1705 639.193C23.9034 639.193 25.4773 637.756 25.4773 635.784C25.4773 633.688 23.608 632.875 22.1307 632.511L20.9943 632.216C20.0852 631.983 18.875 631.557 18.8807 630.443C18.8807 629.455 19.7841 628.722 21.2159 628.722C22.5511 628.722 23.5 629.347 23.625 630.42ZM27.4389 639H29.1378V635.903L29.9844 635.057L32.9503 639H35.0355L31.2628 634.017L34.7969 630.273H32.7628L29.2855 633.966H29.1378V627.364H27.4389V639ZM36.3452 639H38.044V630.273H36.3452V639ZM37.2031 628.926C37.7884 628.926 38.277 628.472 38.277 627.915C38.277 627.358 37.7884 626.898 37.2031 626.898C36.6122 626.898 36.1293 627.358 36.1293 627.915C36.1293 628.472 36.6122 628.926 37.2031 628.926ZM40.3295 642.273H42.0284V637.642H42.1307C42.4375 638.199 43.0625 639.17 44.6534 639.17C46.767 639.17 48.3011 637.477 48.3011 634.653C48.3011 631.824 46.7443 630.159 44.6364 630.159C43.017 630.159 42.4318 631.148 42.1307 631.688H41.9886V630.273H40.3295V642.273ZM41.9943 634.636C41.9943 632.812 42.7898 631.602 44.2727 631.602C45.8125 631.602 46.5852 632.903 46.5852 634.636C46.5852 636.386 45.7898 637.722 44.2727 637.722C42.8125 637.722 41.9943 636.472 41.9943 634.636ZM58.5923 630.273H56.7116V629.489C56.7116 628.716 57.0298 628.295 57.8594 628.295C58.2116 628.295 58.4616 628.375 58.6207 628.426L59.0185 627.051C58.7798 626.96 58.2855 626.818 57.598 626.818C56.2173 626.818 55.0071 627.625 55.0071 629.261V630.273H53.6605V631.636H55.0071V639H56.7116V631.636H58.5923V630.273ZM63.6776 639.176C66.1378 639.176 67.7457 637.375 67.7457 634.676C67.7457 631.96 66.1378 630.159 63.6776 630.159C61.2173 630.159 59.6094 631.96 59.6094 634.676C59.6094 637.375 61.2173 639.176 63.6776 639.176ZM63.6832 637.75C62.0753 637.75 61.3253 636.347 61.3253 634.67C61.3253 633 62.0753 631.58 63.6832 631.58C65.2798 631.58 66.0298 633 66.0298 634.67C66.0298 636.347 65.2798 637.75 63.6832 637.75ZM69.642 639H71.3409V633.67C71.3409 632.528 72.2216 631.705 73.4261 631.705C73.7784 631.705 74.1761 631.767 74.3125 631.807V630.182C74.142 630.159 73.8068 630.142 73.5909 630.142C72.5682 630.142 71.6932 630.722 71.375 631.659H71.2841V630.273H69.642V639ZM81.7159 633.818C81.7159 632.426 82.5682 631.631 83.75 631.631C84.9034 631.631 85.6023 632.386 85.6023 633.653V639H87.3011V633.449C87.3011 631.29 86.1136 630.159 84.3295 630.159C83.017 630.159 82.1591 630.767 81.7557 631.693H81.6477V630.273H80.017V639H81.7159V633.818ZM93.2557 639.176C95.7159 639.176 97.3239 637.375 97.3239 634.676C97.3239 631.96 95.7159 630.159 93.2557 630.159C90.7955 630.159 89.1875 631.96 89.1875 634.676C89.1875 637.375 90.7955 639.176 93.2557 639.176ZM93.2614 637.75C91.6534 637.75 90.9034 636.347 90.9034 634.67C90.9034 633 91.6534 631.58 93.2614 631.58C94.858 631.58 95.608 633 95.608 634.67C95.608 636.347 94.858 637.75 93.2614 637.75ZM100.847 639H102.574L104.347 632.699H104.477L106.25 639H107.983L110.545 630.273H108.79L107.091 636.653H107.006L105.301 630.273H103.545L101.83 636.682H101.744L100.034 630.273H98.2784L100.847 639Z" fill="#444444"/>
<path d="M16 642.199H111.011V643.438H16V642.199Z" fill="#444444"/>
</g>
<defs>
<filter id="filter0_d" x="229" y="607" width="134" height="58" filterUnits="userSpaceOnUse" color-interpolation-filters="sRGB">
<feFlood flood-opacity="0" result="BackgroundImageFix"/>
<feColorMatrix in="SourceAlpha" type="matrix" values="0 0 0 0 0 0 0 0 0 0 0 0 0 0 0 0 0 0 127 0" result="hardAlpha"/>
<feOffset dy="3"/>
<feGaussianBlur stdDeviation="2"/>
<feColorMatrix type="matrix" values="0 0 0 0 0 0 0 0 0 0 0 0 0 0 0 0 0 0 0.16 0"/>
<feBlend mode="normal" in2="BackgroundImageFix" result="effect1_dropShadow"/>
<feBlend mode="normal" in="SourceGraphic" in2="effect1_dropShadow" result="shape"/>
</filter>
<clipPath id="clip0">
<rect width="375" height="667" fill="white"/>
</clipPath>
</defs>
</svg>
