<svg width="375" height="667" viewBox="0 0 375 667" fill="none" xmlns="http://www.w3.org/2000/svg">
<g clip-path="url(#clip0)">
<rect width="375" height="667" fill="white"/>
<g filter="url(#filter0_b)">
<rect width="375" height="291" transform="translate(0 376)" fill="#D1D5DB"/>
<rect x="122" y="654" width="134" height="5" rx="2.5" fill="black"/>
<path fill-rule="evenodd" clip-rule="evenodd" d="M330.833 627.332C331.294 627.332 331.667 627.705 331.667 628.165C331.667 628.193 331.665 628.22 331.663 628.247V630.542H331.658V630.549C331.658 630.564 331.659 630.58 331.661 630.596C331.662 630.61 331.663 630.624 331.663 630.639V630.952H331.678C331.926 633.916 334.351 636.226 337.324 636.329H337.66C340.634 636.228 343.06 633.917 343.307 630.952H343.327V628.175L343.333 628.175L343.333 628.165C343.333 627.705 343.706 627.332 344.167 627.332C344.627 627.332 345 627.705 345 628.165C345 628.189 344.999 628.213 344.997 628.236V630.282H344.987H344.987C344.989 634.111 342.128 637.336 338.327 637.79V640.323H341.467V640.334C341.478 640.333 341.489 640.333 341.5 640.333C341.96 640.333 342.333 640.706 342.333 641.167C342.333 641.627 341.96 642 341.5 642C341.489 642 341.478 642 341.467 641.999V642H333.53V641.999C333.52 642 333.51 642 333.5 642C333.04 642 332.667 641.627 332.667 641.167C332.667 640.706 333.04 640.333 333.5 640.333C333.51 640.333 333.52 640.333 333.53 640.334V640.323H336.677V637.79C332.867 637.347 329.995 634.118 330 630.282C330 630.262 330.002 630.243 330.003 630.225L330.003 630.225C330.005 630.209 330.006 630.194 330.006 630.179V628.268C330.002 628.235 330 628.2 330 628.165C330 627.705 330.373 627.332 330.833 627.332ZM341.993 628.879C341.993 629.382 341.993 629.912 341.967 630.415C341.946 630.869 341.877 631.32 341.76 631.759C341.499 632.681 340.943 633.491 340.177 634.066C338.605 635.306 336.388 635.306 334.817 634.066C334.048 633.493 333.492 632.682 333.233 631.759C333.115 631.32 333.046 630.869 333.026 630.415C332.997 629.912 333 629.382 333 628.879V624.665C333 624.165 333.003 621.955 333 621.581C333.013 621.125 333.092 620.672 333.233 620.238C333.767 618.324 335.51 617 337.497 617C339.484 617 341.227 618.324 341.761 620.238C341.886 620.676 341.964 621.126 341.994 621.581C342.024 622.085 341.994 624.165 341.994 624.665V628.879H341.993ZM340.327 629.665C340.327 629.985 340.32 630.092 340.3 630.412C340.288 630.703 340.245 630.991 340.17 631.272C340.01 631.862 339.663 632.384 339.18 632.759C338.191 633.528 336.806 633.528 335.817 632.759C335.332 632.385 334.983 631.863 334.823 631.272C334.75 630.991 334.706 630.703 334.693 630.412C334.677 630.092 334.673 629.985 334.673 629.665C334.673 625.232 334.653 621.945 334.68 621.591C334.699 621.3 334.747 621.012 334.823 620.731C334.983 620.14 335.332 619.618 335.817 619.244C336.806 618.475 338.191 618.475 339.18 619.244C339.663 619.619 340.01 620.141 340.17 620.731C340.255 621.011 340.308 621.3 340.33 621.591C340.353 621.971 340.327 625.218 340.327 629.665Z" fill="#50555C"/>
<path fill-rule="evenodd" clip-rule="evenodd" d="M38.5 616C45.9558 616 52 622.044 52 629.5C52 636.956 45.9558 643 38.5 643C31.0442 643 25 636.956 25 629.5C25 622.044 31.0442 616 38.5 616ZM38.5 617.573C45.0871 617.573 50.4264 622.914 50.4259 629.501C50.4254 636.088 45.0853 641.427 38.4982 641.427C31.9111 641.427 26.5714 636.087 26.5714 629.5C26.5715 626.336 27.8283 623.303 30.0654 621.066C32.3025 618.829 35.3365 617.572 38.5 617.573ZM34.2293 623.644C33.812 623.639 33.4102 623.802 33.1137 624.096C32.8173 624.389 32.651 624.79 32.6521 625.207C32.6521 626.078 33.3582 626.784 34.2293 626.784C35.1003 626.784 35.8064 626.078 35.8064 625.207C35.8075 624.79 35.6413 624.389 35.3448 624.096C35.0484 623.802 34.6465 623.639 34.2293 623.644ZM47.4967 631.825C46.7779 635.71 43.0286 638.953 38.4983 638.953C34.0042 638.953 30.2768 635.757 29.5157 631.917C29.3615 630.958 30.1465 630.732 30.886 630.911C33.3597 631.626 35.9251 631.974 38.5 631.943C41.0691 631.973 43.6286 631.626 46.0971 630.914C46.816 630.732 47.5858 630.938 47.4967 631.825ZM45.0563 632.365C44.9861 632.392 44.9149 632.413 44.843 632.436C44.8356 632.44 45.0731 632.362 45.0661 632.365C42.9315 632.953 40.725 633.238 38.5111 633.212C35.8692 633.212 33.5063 632.919 31.8803 632.335C30.7014 631.984 30.9275 633.371 31.7561 633.796C33.8758 634.761 36.182 635.248 38.5108 635.221C41.281 635.221 43.7495 634.576 45.3799 633.742C46.1515 633.246 46.304 631.916 45.0563 632.365ZM42.7795 623.644C42.3622 623.639 41.9603 623.802 41.6638 624.096C41.3673 624.389 41.201 624.79 41.202 625.207C41.1937 625.776 41.4925 626.305 41.9839 626.592C42.4754 626.879 43.0833 626.879 43.5747 626.592C44.0662 626.305 44.365 625.776 44.3566 625.207C44.3577 624.79 44.1914 624.389 43.8949 624.096C43.5985 623.802 43.1967 623.639 42.7795 623.644Z" fill="#50555C"/>
<g filter="url(#filter1_d)">
<path fill-rule="evenodd" clip-rule="evenodd" d="M284 553.36C284 550.784 284 549.496 284.501 548.512C284.942 547.646 285.646 546.942 286.512 546.501C287.496 546 288.784 546 291.36 546H364.64C367.216 546 368.504 546 369.488 546.501C370.354 546.942 371.058 547.646 371.499 548.512C372 549.496 372 550.784 372 553.36V580.64C372 583.216 372 584.504 371.499 585.488C371.058 586.354 370.354 587.058 369.488 587.499C368.504 588 367.216 588 364.64 588H291.36C288.784 588 287.496 588 286.512 587.499C285.646 587.058 284.942 586.354 284.501 585.488C284 584.504 284 583.216 284 580.64V553.36Z" fill="#ADB3BC"/>
</g>
<path d="M328.355 568.641V567.266H323.785V568.5H326.957V568.773C326.957 570.68 325.59 571.969 323.574 571.969C321.308 571.969 319.902 570.203 319.902 567.359C319.902 564.555 321.332 562.758 323.566 562.758C325.238 562.758 326.371 563.562 326.855 565.086H328.285C327.879 562.852 326.066 561.461 323.566 561.461C320.48 561.461 318.457 563.797 318.457 567.359C318.457 570.969 320.449 573.266 323.566 573.266C326.449 573.266 328.355 571.422 328.355 568.641ZM333.817 573.148C336.215 573.148 337.699 571.492 337.699 568.789C337.699 566.078 336.215 564.43 333.817 564.43C331.418 564.43 329.934 566.078 329.934 568.789C329.934 571.492 331.418 573.148 333.817 573.148ZM333.817 571.938C332.223 571.938 331.324 570.781 331.324 568.789C331.324 566.789 332.223 565.641 333.817 565.641C335.41 565.641 336.309 566.789 336.309 568.789C336.309 570.781 335.41 571.938 333.817 571.938Z" fill="black"/>
<g filter="url(#filter2_d)">
<path fill-rule="evenodd" clip-rule="evenodd" d="M96 553.36C96 550.784 96 549.496 96.5014 548.512C96.9424 547.646 97.6461 546.942 98.5116 546.501C99.4956 546 100.784 546 103.36 546H270.64C273.216 546 274.504 546 275.488 546.501C276.354 546.942 277.058 547.646 277.499 548.512C278 549.496 278 550.784 278 553.36V580.64C278 583.216 278 584.504 277.499 585.488C277.058 586.354 276.354 587.058 275.488 587.499C274.504 588 273.216 588 270.64 588H103.36C100.784 588 99.4956 588 98.5116 587.499C97.6461 587.058 96.9424 586.354 96.5014 585.488C96 584.504 96 583.216 96 580.64V553.36Z" fill="#FCFCFE"/>
</g>
<path d="M166.187 566.883C166.187 568.102 166.906 568.781 168.484 569.164L169.929 569.516C170.827 569.734 171.265 570.125 171.265 570.703C171.265 571.477 170.452 572.016 169.32 572.016C168.242 572.016 167.57 571.562 167.343 570.852H165.96C166.109 572.25 167.398 573.148 169.273 573.148C171.187 573.148 172.648 572.109 172.648 570.602C172.648 569.391 171.882 568.703 170.296 568.32L168.999 568.008C168.007 567.766 167.538 567.406 167.538 566.828C167.538 566.078 168.32 565.57 169.32 565.57C170.335 565.57 170.992 566.016 171.171 566.688H172.499C172.32 565.305 171.093 564.43 169.327 564.43C167.538 564.43 166.187 565.484 166.187 566.883ZM178.539 564.43C177.39 564.43 176.382 565.016 175.843 565.984H175.718V564.578H174.437V575.812H175.781V571.734H175.906C176.367 572.625 177.336 573.148 178.539 573.148C180.679 573.148 182.078 571.422 182.078 568.789C182.078 566.141 180.687 564.43 178.539 564.43ZM178.218 571.938C176.703 571.938 175.742 570.719 175.742 568.789C175.742 566.852 176.703 565.641 178.226 565.641C179.765 565.641 180.687 566.82 180.687 568.789C180.687 570.758 179.765 571.938 178.218 571.938ZM186.461 571.969C185.484 571.969 184.758 571.469 184.758 570.609C184.758 569.766 185.32 569.32 186.602 569.234L188.867 569.086V569.859C188.867 571.062 187.844 571.969 186.461 571.969ZM186.211 573.148C187.336 573.148 188.258 572.656 188.805 571.758H188.93V573H190.211V567.234C190.211 565.484 189.062 564.43 187.008 564.43C185.211 564.43 183.883 565.32 183.703 566.672H185.062C185.25 566.008 185.953 565.625 186.961 565.625C188.219 565.625 188.867 566.195 188.867 567.234V568L186.438 568.148C184.477 568.266 183.367 569.133 183.367 570.641C183.367 572.18 184.578 573.148 186.211 573.148ZM199.344 567.156C199.11 565.656 197.86 564.43 195.813 564.43C193.453 564.43 191.953 566.133 191.953 568.758C191.953 571.438 193.461 573.148 195.821 573.148C197.844 573.148 199.102 572.008 199.344 570.461H197.985C197.735 571.414 196.946 571.938 195.813 571.938C194.313 571.938 193.344 570.703 193.344 568.758C193.344 566.852 194.297 565.641 195.813 565.641C197.024 565.641 197.766 566.32 197.985 567.156H199.344ZM204.368 565.617C205.704 565.617 206.594 566.602 206.626 568.094H201.985C202.087 566.602 203.024 565.617 204.368 565.617ZM206.587 570.82C206.235 571.562 205.501 571.961 204.415 571.961C202.985 571.961 202.055 570.906 201.985 569.242V569.18H208.04V568.664C208.04 566.047 206.657 564.43 204.383 564.43C202.071 564.43 200.587 566.148 200.587 568.797C200.587 571.461 202.048 573.148 204.383 573.148C206.227 573.148 207.524 572.266 207.93 570.82H206.587Z" fill="black"/>
<g filter="url(#filter3_d)">
<path fill-rule="evenodd" clip-rule="evenodd" d="M3 553.36C3 550.784 3 549.496 3.50137 548.512C3.94239 547.646 4.6461 546.942 5.51164 546.501C6.49564 546 7.78376 546 10.36 546H82.64C85.2162 546 86.5044 546 87.4884 546.501C88.3539 546.942 89.0576 547.646 89.4986 548.512C90 549.496 90 550.784 90 553.36V580.64C90 583.216 90 584.504 89.4986 585.488C89.0576 586.354 88.3539 587.058 87.4884 587.499C86.5044 588 85.2162 588 82.64 588H10.36C7.78376 588 6.49564 588 5.51164 587.499C4.6461 587.058 3.94239 586.354 3.50137 585.488C3 584.504 3 583.216 3 580.64V553.36Z" fill="#ADB3BC"/>
</g>
<path d="M37.1872 573H38.5934V561.727H37.195L34.195 563.883V565.367L37.0622 563.289H37.1872V573ZM41.5703 564.898V564.906H42.9297V564.898C42.9297 563.57 43.8203 562.688 45.1406 562.688C46.3828 562.688 47.3438 563.555 47.3438 564.68C47.3438 565.586 46.9922 566.195 45.5391 567.773L41.6406 572.031V573H48.9375V571.734H43.6562V571.609L46.3672 568.695C48.2188 566.711 48.75 565.797 48.75 564.625C48.75 562.836 47.2031 561.461 45.1797 561.461C43.0859 561.461 41.5703 562.898 41.5703 564.898ZM53.2972 567.805H54.7269C56.3284 567.805 57.3206 568.617 57.3206 569.922C57.3206 571.156 56.2659 572.039 54.7816 572.039C53.3284 572.039 52.3128 571.266 52.1878 570.062H50.8284C50.93 571.992 52.5081 573.266 54.7972 573.266C57.0238 573.266 58.7659 571.82 58.7659 569.961C58.7659 568.422 57.8363 567.359 56.305 567.164V567.039C57.5394 566.742 58.2816 565.758 58.2816 564.414C58.2816 562.773 56.7113 561.461 54.7425 561.461C52.5941 561.461 51.1956 562.664 51.055 564.617H52.4222C52.5394 563.406 53.3909 562.688 54.6878 562.688C55.9847 562.688 56.8519 563.453 56.8519 564.602C56.8519 565.773 55.9456 566.602 54.6644 566.602H53.2972V567.805Z" fill="black"/>
<g filter="url(#filter4_d)">
<path fill-rule="evenodd" clip-rule="evenodd" d="M330 499.36C330 496.784 330 495.496 330.501 494.512C330.942 493.646 331.646 492.942 332.512 492.501C333.496 492 334.784 492 337.36 492H364.64C367.216 492 368.504 492 369.488 492.501C370.354 492.942 371.058 493.646 371.499 494.512C372 495.496 372 496.784 372 499.36V526.64C372 529.216 372 530.504 371.499 531.488C371.058 532.354 370.354 533.058 369.488 533.499C368.504 534 367.216 534 364.64 534H337.36C334.784 534 333.496 534 332.512 533.499C331.646 533.058 330.942 532.354 330.501 531.488C330 530.504 330 529.216 330 526.64V499.36Z" fill="#ADB3BC"/>
</g>
<path fill-rule="evenodd" clip-rule="evenodd" d="M343.213 508.778C343.198 508.792 343.169 508.82 343.136 508.852C343.113 508.875 343.094 508.894 343.055 508.933L340.912 511.076C340.856 511.134 340.817 511.174 340.727 511.265C340.676 511.315 340.639 511.354 340.559 511.439C340.411 511.582 340.254 511.754 340.107 511.935C339.969 512.081 339.859 512.252 339.781 512.438C339.623 512.922 339.623 513.393 339.764 513.83L339.783 513.88C339.861 514.065 339.971 514.234 340.107 514.379C340.254 514.559 340.411 514.731 340.576 514.893C340.639 514.961 340.676 514.999 340.727 515.05L340.912 515.236L342.866 517.193C342.958 517.284 343.003 517.329 343.054 517.378C343.11 517.437 343.168 517.494 343.226 517.549C343.237 517.559 345.727 520.048 345.727 520.048C345.804 520.124 345.866 520.185 346.006 520.32C346.021 520.334 346.043 520.357 346.05 520.364C346.086 520.402 346.107 520.424 346.121 520.438C346.411 520.729 346.745 520.973 347.11 521.162C347.485 521.348 347.874 521.477 348.276 521.547C348.655 521.609 349.031 521.643 349.408 521.648C349.473 521.649 349.527 521.65 349.647 521.651C349.763 521.652 349.814 521.653 349.876 521.654L357.297 521.654C357.374 521.653 357.426 521.652 357.543 521.651C357.664 521.65 357.718 521.649 357.788 521.648C358.166 521.641 358.545 521.607 358.92 521.545C359.33 521.476 359.725 521.345 360.094 521.158C360.465 520.969 360.804 520.723 361.098 520.427C361.391 520.134 361.636 519.796 361.826 519.427C362.013 519.053 362.141 518.66 362.21 518.254C362.273 517.875 362.306 517.495 362.311 517.113C362.314 517.035 362.315 516.96 362.318 516.794C362.319 516.715 362.319 516.68 362.32 516.638L362.32 509.648C362.319 509.594 362.319 509.559 362.318 509.482L362.316 509.401C362.315 509.3 362.313 509.224 362.31 509.148C362.306 508.789 362.274 508.413 362.215 508.042C362.142 507.63 362.014 507.241 361.832 506.875C361.641 506.502 361.398 506.168 361.106 505.877C360.816 505.584 360.479 505.338 360.11 505.15C359.743 504.967 359.355 504.838 358.955 504.767C358.572 504.706 358.195 504.674 357.818 504.67C357.693 504.664 357.583 504.663 357.338 504.663C357.258 504.662 357.164 504.661 357.059 504.661C356.98 504.66 356.917 504.66 356.775 504.66H350.452C350.169 504.66 350.04 504.661 349.879 504.663C349.645 504.663 349.534 504.664 349.392 504.67C349.033 504.674 348.657 504.706 348.285 504.766C347.874 504.838 347.485 504.966 347.119 505.148C346.745 505.342 346.411 505.586 346.12 505.877C346.107 505.891 346.086 505.912 346.051 505.949C346.043 505.958 346.006 505.995 346.006 505.995C345.866 506.13 345.804 506.19 345.727 506.267L345.406 506.588L343.271 508.726C343.253 508.741 343.233 508.759 343.213 508.778ZM356.775 505.919C356.915 505.919 356.977 505.919 357.054 505.919C357.154 505.92 357.243 505.921 357.328 505.922C357.566 505.922 357.665 505.923 357.785 505.928C358.119 505.932 358.434 505.959 358.747 506.009C359.016 506.057 359.288 506.147 359.542 506.274C359.789 506.4 360.017 506.566 360.215 506.765C360.415 506.965 360.581 507.193 360.709 507.443C360.833 507.693 360.923 507.967 360.973 508.25C361.021 508.551 361.048 508.866 361.052 509.181C361.055 509.262 361.056 509.328 361.058 509.42L361.059 509.498C361.06 509.579 361.06 509.615 361.061 509.661L361.061 516.625C361.06 516.659 361.06 516.696 361.059 516.778C361.057 516.933 361.055 517 361.052 517.082C361.048 517.417 361.021 517.733 360.969 518.046C360.921 518.326 360.831 518.601 360.703 518.859C360.576 519.106 360.407 519.337 360.206 519.539C360.006 519.74 359.776 519.908 359.524 520.036C359.268 520.166 358.995 520.256 358.712 520.304C358.401 520.355 358.083 520.384 357.764 520.389C357.699 520.391 357.647 520.391 357.53 520.392C357.409 520.394 357.355 520.394 357.285 520.396L349.889 520.396C349.833 520.394 349.779 520.394 349.659 520.392C349.543 520.391 349.492 520.391 349.43 520.389C349.111 520.385 348.797 520.357 348.486 520.306C348.211 520.258 347.937 520.168 347.68 520.04C347.439 519.915 347.21 519.747 347.011 519.548L346.962 519.496C346.913 519.445 346.892 519.423 346.868 519.402C346.742 519.281 346.685 519.225 346.617 519.157L344.122 516.662C344.099 516.641 344.085 516.628 344.076 516.62C344.031 516.577 343.994 516.539 343.959 516.502C343.887 516.433 343.847 516.394 343.757 516.303L341.803 514.346L341.617 514.16C341.578 514.121 341.547 514.089 341.476 514.013C341.321 513.86 341.191 513.717 341.069 513.567L341.031 513.524C340.999 513.491 340.973 513.454 340.953 513.413C340.905 513.245 340.905 513.067 340.953 512.899C340.972 512.86 340.998 512.825 341.028 512.794L341.071 512.745C341.191 512.596 341.319 512.455 341.456 512.321C341.547 512.226 341.578 512.193 341.617 512.155C341.715 512.056 341.759 512.012 341.814 511.954L343.757 510.012L343.946 509.823C343.983 509.785 343.999 509.769 344.02 509.749L344.061 509.712L344.061 509.712L344.061 509.711C344.092 509.684 344.108 509.669 344.125 509.653L346.297 507.478L346.617 507.157C346.685 507.089 346.742 507.034 346.868 506.913C346.892 506.891 346.913 506.869 346.96 506.82L347.011 506.767C347.21 506.567 347.439 506.4 347.689 506.27C347.937 506.147 348.211 506.057 348.494 506.007C348.795 505.959 349.109 505.932 349.424 505.928C349.562 505.923 349.661 505.922 349.889 505.922C350.052 505.92 350.176 505.919 350.452 505.919H356.775ZM350.813 516.489C350.762 516.539 350.701 516.579 350.633 516.608C350.421 516.695 350.177 516.646 350.015 516.484C349.795 516.263 349.795 515.905 350.015 515.684C350.047 515.652 350.082 515.624 350.12 515.601L352.564 513.155L350.015 510.608L350.023 510.6C349.973 510.549 349.932 510.489 349.904 510.42C349.816 510.208 349.865 509.964 350.028 509.802C350.249 509.582 350.606 509.582 350.827 509.802C350.859 509.835 350.887 509.87 350.91 509.907L353.362 512.356L355.837 509.878C355.856 509.851 355.877 509.826 355.9 509.802C356.061 509.641 356.304 509.592 356.515 509.679C356.726 509.766 356.864 509.972 356.864 510.201C356.864 510.353 356.803 510.495 356.7 510.599L356.706 510.605L354.161 513.153L356.644 515.633C356.667 515.649 356.688 515.667 356.709 515.687C356.871 515.849 356.919 516.092 356.832 516.303C356.745 516.514 356.539 516.652 356.311 516.652C356.158 516.652 356.016 516.59 355.912 516.487L355.906 516.493L353.362 513.952L350.821 516.496L350.813 516.489Z" fill="black"/>
<g filter="url(#filter5_d)">
<rect x="3" y="492" width="42" height="42" rx="4.6" fill="#FCFCFE"/>
</g>
<path d="M32.8 514.664H28.603V518.634C28.603 518.714 28.603 518.787 28.603 518.864C28.603 518.93 28.603 518.994 28.6003 519.06C28.5985 519.203 28.5861 519.346 28.5633 519.487C28.5385 519.627 28.4936 519.763 28.43 519.89C28.3649 520.017 28.2799 520.133 28.1781 520.233C28.0758 520.333 27.9591 520.418 27.8318 520.483C27.7029 520.546 27.566 520.591 27.4249 520.616C27.2834 520.639 27.1406 520.651 26.9974 520.653C26.9307 520.653 26.866 520.656 26.8007 520.656H21.4016C21.335 520.656 21.2706 520.653 21.205 520.653C21.0618 520.651 20.9189 520.639 20.7774 520.616C20.6365 520.591 20.4997 520.546 20.3709 520.483C20.2436 520.418 20.1268 520.333 20.0246 520.233C19.9228 520.133 19.8377 520.017 19.7727 519.89C19.709 519.763 19.6642 519.627 19.6394 519.487C19.6164 519.346 19.604 519.203 19.602 519.06C19.602 518.994 19.5994 518.93 19.5994 518.864C19.5994 518.787 19.5994 518.714 19.5994 518.634V514.664H15.336C14.9048 514.664 14.3515 513.735 14.8694 513.218C15.3097 512.782 22.2288 505.883 23.6768 504.447C23.7832 504.316 23.9335 504.228 24.0997 504.2H24.111C24.2548 504.208 24.3883 504.277 24.4776 504.39C25.9256 505.826 32.8684 512.782 33.3089 513.218C33.8271 513.735 33.3932 514.664 32.8 514.664Z" fill="black"/>
<g filter="url(#filter6_d)">
<rect x="285" y="492" width="32" height="42" rx="4.6" fill="#FCFCFE"/>
</g>
<path d="M308.811 521V505.147H306.515L301.088 518.264H300.912L295.485 505.147H293.189V521H295.034V508.893H295.166L300.165 520.89H301.835L306.834 508.893H306.966V521H308.811Z" fill="black"/>
<g filter="url(#filter7_d)">
<rect x="247" y="492" width="32" height="42" rx="4.6" fill="#FCFCFE"/>
</g>
<path d="M259.127 521V508.706H259.303L267.906 521H269.828V505.147H267.873V517.484H267.697L259.094 505.147H257.172V521H259.127Z" fill="black"/>
<g filter="url(#filter8_d)">
<rect x="209" y="492" width="32" height="42" rx="4.6" fill="#FCFCFE"/>
</g>
<path d="M226.313 521C229.686 521 231.685 519.341 231.685 516.551C231.685 514.452 230.312 512.969 228.148 512.694V512.519C229.675 512.244 230.883 510.75 230.883 509.102C230.883 506.674 229.104 505.147 226.192 505.147H220.128V521H226.313ZM222.105 506.894H225.775C227.741 506.894 228.884 507.827 228.884 509.442C228.884 511.123 227.664 511.98 225.269 511.98H222.105V506.894ZM222.105 519.253V513.683H225.83C228.356 513.683 229.653 514.617 229.653 516.452C229.653 518.286 228.4 519.253 226.016 519.253H222.105Z" fill="black"/>
<g filter="url(#filter9_d)">
<rect x="172" y="492" width="32" height="42" rx="4.6" fill="#FCFCFE"/>
</g>
<path d="M188.978 521L194.823 505.147H192.746L188.088 518.44H187.912L183.254 505.147H181.177L187.022 521H188.978Z" fill="black"/>
<g filter="url(#filter10_d)">
<rect x="134" y="492" width="32" height="42" rx="4.6" fill="#FCFCFE"/>
</g>
<path d="M150.852 521.374C154.224 521.374 156.729 519.495 157.257 516.583H155.246C154.741 518.418 153.06 519.55 150.852 519.55C147.797 519.55 145.886 517.056 145.886 513.079C145.886 509.102 147.797 506.597 150.841 506.597C153.027 506.597 154.719 507.882 155.246 509.926H157.257C156.784 506.872 154.18 504.773 150.841 504.773C146.534 504.773 143.853 507.959 143.853 513.079C143.853 518.188 146.545 521.374 150.852 521.374Z" fill="black"/>
<g filter="url(#filter11_d)">
<rect x="97" y="492" width="32" height="42" rx="4.6" fill="#FCFCFE"/>
</g>
<path d="M106.353 521H108.594L112.824 514.749H113L117.153 521H119.526L114.154 513.112L119.647 505.147H117.395L113.154 511.453H112.978L108.803 505.147H106.419L111.781 513.024L106.353 521Z" fill="black"/>
<g filter="url(#filter12_d)">
<rect x="59" y="492" width="32" height="42" rx="4.6" fill="#FCFCFE"/>
</g>
<path d="M69.6333 521H81.3557V519.22H72.2371V519.044L81.1689 506.553V505.147H69.9409V506.927H78.6091V507.102L69.6333 519.594V521Z" fill="black"/>
<g filter="url(#filter13_d)">
<rect x="322" y="438" width="32" height="42" rx="4.6" fill="#FCFCFE"/>
</g>
<path d="M343.751 465.22H336.105V451.147H334.127V467H343.751V465.22Z" fill="black"/>
<g filter="url(#filter14_d)">
<rect x="284" y="438" width="32" height="42" rx="4.6" fill="#FCFCFE"/>
</g>
<path d="M297.083 467V461.463L298.984 459.365L304.708 467H307.268L300.346 457.991L306.685 451.147H304.202L297.259 458.848H297.083V451.147H295.106V467H297.083Z" fill="black"/>
<g filter="url(#filter15_d)">
<rect x="247" y="438" width="32" height="42" rx="4.6" fill="#FCFCFE"/>
</g>
<path d="M258.391 463.298C258.391 465.726 260.259 467.374 262.918 467.374C265.785 467.374 267.532 465.605 267.532 462.583V451.147H265.554V462.573C265.554 464.517 264.599 465.55 262.907 465.55C261.413 465.55 260.402 464.627 260.358 463.298H258.391Z" fill="black"/>
<g filter="url(#filter16_d)">
<rect x="209" y="438" width="32" height="42" rx="4.6" fill="#FCFCFE"/>
</g>
<path d="M231.828 467V451.147H229.851V458.002H221.149V451.147H219.172V467H221.149V459.782H229.851V467H231.828Z" fill="black"/>
<g filter="url(#filter17_d)">
<rect x="172" y="438" width="32" height="42" rx="4.6" fill="#FCFCFE"/>
</g>
<path d="M195.421 460.87V458.936H188.994V460.672H193.455V461.056C193.455 463.737 191.532 465.55 188.698 465.55C185.512 465.55 183.534 463.067 183.534 459.068C183.534 455.124 185.545 452.597 188.687 452.597C191.038 452.597 192.631 453.729 193.312 455.871H195.323C194.751 452.729 192.202 450.773 188.687 450.773C184.347 450.773 181.502 454.058 181.502 459.068C181.502 464.144 184.303 467.374 188.687 467.374C192.741 467.374 195.421 464.781 195.421 460.87Z" fill="black"/>
<g filter="url(#filter18_d)">
<rect x="134" y="438" width="32" height="42" rx="4.6" fill="#FCFCFE"/>
</g>
<path d="M148.061 467V460.134H155.081V458.376H148.061V452.927H155.708V451.147H146.083V467H148.061Z" fill="black"/>
<g filter="url(#filter19_d)">
<rect x="97" y="438" width="32" height="42" rx="4.6" fill="#FCFCFE"/>
</g>
<path d="M107.348 451.147V467H112.786C117.499 467 120.268 464.067 120.268 459.068C120.268 454.08 117.488 451.147 112.786 451.147H107.348ZM109.325 452.927H112.654C116.17 452.927 118.246 455.212 118.246 459.09C118.246 462.957 116.192 465.22 112.654 465.22H109.325V452.927Z" fill="black"/>
<g filter="url(#filter20_d)">
<rect x="59" y="438" width="32" height="42" rx="4.6" fill="#FCFCFE"/>
</g>
<path d="M69.5894 462.858C69.7981 465.594 72.1162 467.374 75.478 467.374C79.1035 467.374 81.3997 465.517 81.3997 462.605C81.3997 460.276 80.0813 459.002 76.7964 458.178L75.1375 457.739C72.9512 457.178 72.0833 456.464 72.0833 455.223C72.0833 453.619 73.4785 452.564 75.5879 452.564C77.5654 452.564 78.9058 453.531 79.1804 455.157H81.1689C81.0042 452.597 78.719 450.773 75.6538 450.773C72.303 450.773 70.0508 452.597 70.0508 455.289C70.0508 457.541 71.2922 458.837 74.1597 459.562L76.1921 460.09C78.3784 460.639 79.3672 461.496 79.3672 462.847C79.3672 464.418 77.7961 465.572 75.6648 465.572C73.4126 465.572 71.8306 464.517 71.5889 462.858H69.5894Z" fill="black"/>
<g filter="url(#filter21_d)">
<rect x="22" y="438" width="32" height="42" rx="4.6" fill="#FCFCFE"/>
</g>
<path d="M42.7461 467H44.8225L38.9778 451.147H37.0222L31.1775 467H33.2539L34.8469 462.463H41.1531L42.7461 467ZM37.9121 453.707H38.0879L40.5708 460.782H35.4292L37.9121 453.707Z" fill="black"/>
<g filter="url(#filter22_d)">
<rect x="340" y="384" width="32" height="42" rx="4.6" fill="#FCFCFE"/>
</g>
<path d="M351.369 397.147V413H353.347V407.342H357.335C360.312 407.342 362.433 405.244 362.433 402.277C362.433 399.256 360.356 397.147 357.357 397.147H351.369ZM353.347 398.905H356.841C359.137 398.905 360.4 400.102 360.4 402.277C360.4 404.376 359.093 405.584 356.841 405.584H353.347V398.905Z" fill="black"/>
<g filter="url(#filter23_d)">
<rect x="303" y="384" width="32" height="42" rx="4.6" fill="#FCFCFE"/>
</g>
<path d="M319.011 396.773C314.529 396.773 311.727 399.97 311.727 405.068C311.727 410.144 314.463 413.374 319.011 413.374C323.537 413.374 326.262 410.133 326.262 405.068C326.262 399.981 323.515 396.773 319.011 396.773ZM319.011 398.597C322.252 398.597 324.229 401.102 324.229 405.068C324.229 409.001 322.263 411.55 319.011 411.55C315.715 411.55 313.76 409.001 313.76 405.068C313.76 401.102 315.781 398.597 319.011 398.597Z" fill="black"/>
<g filter="url(#filter24_d)">
<rect x="265" y="384" width="32" height="42" rx="4.6" fill="#FCFCFE"/>
</g>
<path d="M282.489 413V397.147H280.511V413H282.489Z" fill="black"/>
<g filter="url(#filter25_d)">
<rect x="228" y="384" width="32" height="42" rx="4.6" fill="#FCFCFE"/>
</g>
<path d="M240.182 397.147H238.205V407.551C238.205 410.935 240.567 413.374 244.5 413.374C248.433 413.374 250.795 410.935 250.795 407.551V397.147H248.818V407.419C248.818 409.814 247.247 411.55 244.5 411.55C241.753 411.55 240.182 409.814 240.182 407.419V397.147Z" fill="black"/>
<g filter="url(#filter26_d)">
<rect x="190" y="384" width="32" height="42" rx="4.6" fill="#FCFCFE"/>
</g>
<path d="M207.489 413V406.177L213.114 397.147H210.862L206.588 404.189H206.412L202.138 397.147H199.886L205.511 406.177V413H207.489Z" fill="black"/>
<g filter="url(#filter27_d)">
<rect x="153" y="384" width="32" height="42" rx="4.6" fill="#FCFCFE"/>
</g>
<path d="M170.489 413V398.927H175.597V397.147H163.403V398.927H168.511V413H170.489Z" fill="black"/>
<g filter="url(#filter28_d)">
<rect x="115" y="384" width="32" height="42" rx="4.6" fill="#FCFCFE"/>
</g>
<path d="M128.149 398.905H131.961C134.005 398.905 135.235 400.036 135.235 401.937C135.235 403.881 134.082 404.969 132.049 404.969H128.149V398.905ZM128.149 406.727H132.049L135.444 413H137.762L134.093 406.419C136.081 405.793 137.279 404.079 137.279 401.871C137.279 399.014 135.279 397.147 132.225 397.147H126.172V413H128.149V406.727Z" fill="black"/>
<g filter="url(#filter29_d)">
<rect x="78" y="384" width="32" height="42" rx="4.6" fill="#FCFCFE"/>
</g>
<path d="M99.1416 411.22H91.2974V405.771H98.7351V404.013H91.2974V398.927H99.1416V397.147H89.3198V413H99.1416V411.22Z" fill="black"/>
<g filter="url(#filter30_d)">
<rect x="40" y="384" width="32" height="42" rx="4.6" fill="#FCFCFE"/>
</g>
<path d="M55.9341 400.487H56.0659L59.7134 413H61.5811L65.8987 397.147H63.8333L60.6802 410.034H60.5483L56.9998 397.147H55.0002L51.4517 410.034H51.3198L48.1667 397.147H46.1013L50.4189 413H52.2866L55.9341 400.487Z" fill="black"/>
<g filter="url(#filter31_d)">
<rect x="3" y="384" width="32" height="42" rx="4.6" fill="#FCFCFE"/>
</g>
<path d="M19.011 413.374C20.0327 413.374 20.9995 413.209 21.8455 412.89L23.2407 414.791H25.46L23.4495 412C25.2512 410.704 26.262 408.232 26.262 405.079C26.262 399.97 23.4714 396.773 19.011 396.773C14.5286 396.773 11.7271 399.959 11.7271 405.079C11.7271 410.22 14.4956 413.374 19.011 413.374ZM19.022 411.55C15.77 411.55 13.7595 409.078 13.7595 405.079C13.7595 401.091 15.781 398.597 19.011 398.597C22.219 398.597 24.2295 401.102 24.2295 405.079C24.2295 407.496 23.5374 409.385 22.2959 410.374L20.8567 408.463H18.6155L20.7139 411.308C20.1646 411.473 19.6042 411.55 19.022 411.55Z" fill="black"/>
</g>
<rect width="343" height="48" transform="translate(16 84)" fill="white"/>
<path d="M57.3672 102.818H56.3928L60.0966 113H61.0909L64.7947 102.818H63.8203L60.6385 111.792H60.549L57.3672 102.818ZM67.7777 113.174C69.0504 113.174 69.826 112.468 70.1442 111.792H70.1989V113H71.0838V107.815C71.0838 105.766 69.5426 105.259 68.3743 105.259C67.206 105.259 66.0028 105.722 65.4858 106.969L66.326 107.273C66.6044 106.616 67.2955 106.055 68.3991 106.055C69.5575 106.055 70.1989 106.691 70.1989 107.735V107.914C70.1989 108.491 69.483 108.501 68.2003 108.66C66.4751 108.874 65.267 109.356 65.267 110.867C65.267 112.339 66.3906 113.174 67.7777 113.174ZM67.897 112.364C66.8977 112.364 66.152 111.832 66.152 110.907C66.152 109.982 66.9077 109.594 68.2003 109.435C68.8267 109.361 69.9403 109.222 70.1989 108.968V110.072C70.1989 111.325 69.3089 112.364 67.897 112.364ZM74.3228 108.227C74.3228 106.895 75.1978 106.075 76.4009 106.075C77.5742 106.075 78.3299 106.86 78.3299 108.108V113H79.2148V108.053C79.2148 106.244 78.1658 105.264 76.6246 105.264C75.506 105.264 74.7354 105.781 74.3775 106.562H74.2979V105.364H73.4379V113H74.3228V108.227ZM84.5282 113.159C86.1191 113.159 87.2377 112.155 87.4416 110.773H86.5467C86.3429 111.747 85.5424 112.349 84.5282 112.349C83.0318 112.349 82.0424 111.046 82.0424 109.187C82.0424 107.337 83.0616 106.065 84.5282 106.065C85.617 106.065 86.3528 106.766 86.5417 107.631H87.4366C87.2278 106.214 86.0446 105.259 84.5133 105.259C82.5147 105.259 81.1525 106.92 81.1525 109.217C81.1525 111.494 82.475 113.159 84.5282 113.159ZM92.3063 113.159C94.285 113.159 95.6671 111.543 95.6671 109.217C95.6671 106.875 94.285 105.259 92.3063 105.259C90.3276 105.259 88.9455 106.875 88.9455 109.217C88.9455 111.543 90.3276 113.159 92.3063 113.159ZM92.3063 112.349C90.7203 112.349 89.8354 110.927 89.8354 109.217C89.8354 107.506 90.7203 106.065 92.3063 106.065C93.8922 106.065 94.7772 107.506 94.7772 109.217C94.7772 110.927 93.8922 112.349 92.3063 112.349ZM102.462 110.082C102.462 111.484 101.408 112.239 100.374 112.239C99.2702 112.239 98.4947 111.449 98.4947 110.256V105.364H97.6097V110.31C97.6097 112.12 98.6538 113.099 100.12 113.099C101.239 113.099 102.034 112.518 102.392 111.732H102.462V113H103.347V105.364H102.462V110.082ZM111.601 105.364H110.642L108.374 111.832H108.305L106.038 105.364H105.078L107.867 113H108.812L111.601 105.364ZM116.146 113.159C117.678 113.159 118.707 112.329 119.055 111.369L118.214 111.096C117.921 111.782 117.23 112.349 116.146 112.349C114.585 112.349 113.596 111.21 113.556 109.445H119.244V109.008C119.244 106.457 117.668 105.259 116.012 105.259C114.033 105.259 112.666 106.915 112.666 109.227C112.666 111.543 114.009 113.159 116.146 113.159ZM113.561 108.665C113.656 107.243 114.615 106.065 116.012 106.065C117.379 106.065 118.339 107.193 118.339 108.665H113.561ZM121.194 113H122.079V108.068C122.079 106.935 122.949 106.114 124.142 106.114C124.376 106.114 124.594 106.154 124.674 106.164V105.264C124.555 105.259 124.351 105.249 124.206 105.249C123.247 105.249 122.427 105.766 122.118 106.537H122.054V105.364H121.194V113ZM126.781 111.608H125.816L125.746 112.165C125.567 113.512 125.299 114.815 125.17 115.486H125.851C126.089 114.785 126.517 113.214 126.691 112.14L126.781 111.608ZM133.245 113H136.869C139.057 113 140.066 111.871 140.066 110.33C140.066 108.784 139.042 107.854 138.052 107.785V107.705C138.962 107.462 139.668 106.756 139.668 105.483C139.668 103.952 138.669 102.818 136.68 102.818H133.245V113ZM134.175 112.165V108.242H136.909C138.276 108.242 139.176 109.167 139.176 110.33C139.176 111.384 138.44 112.165 136.869 112.165H134.175ZM134.175 107.417V103.653H136.68C138.072 103.653 138.778 104.404 138.778 105.483C138.778 106.602 137.968 107.417 136.765 107.417H134.175ZM150.284 106C149.951 104.126 148.419 102.679 146.252 102.679C143.681 102.679 141.852 104.722 141.852 107.909C141.852 111.096 143.681 113.139 146.252 113.139C148.419 113.139 149.951 111.688 150.284 109.818H149.349C149.066 111.215 147.848 112.264 146.252 112.264C144.323 112.264 142.752 110.738 142.752 107.909C142.752 105.09 144.323 103.554 146.252 103.554C147.848 103.554 149.066 104.608 149.349 106H150.284Z" fill="#444444"/>
<rect width="343" height="48" transform="translate(16 134)" fill="white"/>
<path d="M57.3672 152.818H56.3928L60.0966 163H61.0909L64.7947 152.818H63.8203L60.6385 161.792H60.549L57.3672 152.818ZM67.7777 163.174C69.0504 163.174 69.826 162.468 70.1442 161.792H70.1989V163H71.0838V157.815C71.0838 155.766 69.5426 155.259 68.3743 155.259C67.206 155.259 66.0028 155.722 65.4858 156.969L66.326 157.273C66.6044 156.616 67.2955 156.055 68.3991 156.055C69.5575 156.055 70.1989 156.691 70.1989 157.735V157.914C70.1989 158.491 69.483 158.501 68.2003 158.66C66.4751 158.874 65.267 159.356 65.267 160.867C65.267 162.339 66.3906 163.174 67.7777 163.174ZM67.897 162.364C66.8977 162.364 66.152 161.832 66.152 160.907C66.152 159.982 66.9077 159.594 68.2003 159.435C68.8267 159.361 69.9403 159.222 70.1989 158.968V160.072C70.1989 161.325 69.3089 162.364 67.897 162.364ZM74.3228 158.227C74.3228 156.895 75.1978 156.075 76.4009 156.075C77.5742 156.075 78.3299 156.86 78.3299 158.108V163H79.2148V158.053C79.2148 156.244 78.1658 155.264 76.6246 155.264C75.506 155.264 74.7354 155.781 74.3775 156.562H74.2979V155.364H73.4379V163H74.3228V158.227ZM84.5282 163.159C86.1191 163.159 87.2377 162.155 87.4416 160.773H86.5467C86.3429 161.747 85.5424 162.349 84.5282 162.349C83.0318 162.349 82.0424 161.046 82.0424 159.187C82.0424 157.337 83.0616 156.065 84.5282 156.065C85.617 156.065 86.3528 156.766 86.5417 157.631H87.4366C87.2278 156.214 86.0446 155.259 84.5133 155.259C82.5147 155.259 81.1525 156.92 81.1525 159.217C81.1525 161.494 82.475 163.159 84.5282 163.159ZM92.3063 163.159C94.285 163.159 95.6671 161.543 95.6671 159.217C95.6671 156.875 94.285 155.259 92.3063 155.259C90.3276 155.259 88.9455 156.875 88.9455 159.217C88.9455 161.543 90.3276 163.159 92.3063 163.159ZM92.3063 162.349C90.7203 162.349 89.8354 160.927 89.8354 159.217C89.8354 157.506 90.7203 156.065 92.3063 156.065C93.8922 156.065 94.7772 157.506 94.7772 159.217C94.7772 160.927 93.8922 162.349 92.3063 162.349ZM102.462 160.082C102.462 161.484 101.408 162.239 100.374 162.239C99.2702 162.239 98.4947 161.449 98.4947 160.256V155.364H97.6097V160.31C97.6097 162.12 98.6538 163.099 100.12 163.099C101.239 163.099 102.034 162.518 102.392 161.732H102.462V163H103.347V155.364H102.462V160.082ZM111.601 155.364H110.642L108.374 161.832H108.305L106.038 155.364H105.078L107.867 163H108.812L111.601 155.364ZM116.146 163.159C117.678 163.159 118.707 162.329 119.055 161.369L118.214 161.096C117.921 161.782 117.23 162.349 116.146 162.349C114.585 162.349 113.596 161.21 113.556 159.445H119.244V159.008C119.244 156.457 117.668 155.259 116.012 155.259C114.033 155.259 112.666 156.915 112.666 159.227C112.666 161.543 114.009 163.159 116.146 163.159ZM113.561 158.665C113.656 157.243 114.615 156.065 116.012 156.065C117.379 156.065 118.339 157.193 118.339 158.665H113.561ZM121.194 163H122.079V158.068C122.079 156.935 122.949 156.114 124.142 156.114C124.376 156.114 124.594 156.154 124.674 156.164V155.264C124.555 155.259 124.351 155.249 124.206 155.249C123.247 155.249 122.427 155.766 122.118 156.537H122.054V155.364H121.194V163ZM126.781 161.608H125.816L125.746 162.165C125.567 163.512 125.299 164.815 125.17 165.486H125.851C126.089 164.785 126.517 163.214 126.691 162.14L126.781 161.608ZM136.228 163C139.29 163 141.035 161.086 141.04 157.884C141.04 154.717 139.32 152.818 136.407 152.818H133.245V163H136.228ZM134.175 162.165V153.653H136.352C138.823 153.653 140.135 155.249 140.14 157.884C140.14 160.544 138.798 162.165 136.173 162.165H134.175ZM146.078 163.159C148.056 163.159 149.439 161.543 149.439 159.217C149.439 156.875 148.056 155.259 146.078 155.259C144.099 155.259 142.717 156.875 142.717 159.217C142.717 161.543 144.099 163.159 146.078 163.159ZM146.078 162.349C144.492 162.349 143.607 160.927 143.607 159.217C143.607 157.506 144.492 156.065 146.078 156.065C147.664 156.065 148.549 157.506 148.549 159.217C148.549 160.927 147.664 162.349 146.078 162.349ZM152.817 163H153.732L155.541 156.741H155.636L157.445 163H158.36L160.667 155.364H159.732L157.923 161.648H157.853L156.063 155.364H155.124L153.319 161.663H153.254L151.445 155.364H150.51L152.817 163ZM163.272 158.227C163.272 156.895 164.147 156.075 165.35 156.075C166.523 156.075 167.279 156.86 167.279 158.108V163H168.164V158.053C168.164 156.244 167.115 155.264 165.574 155.264C164.455 155.264 163.685 155.781 163.327 156.562H163.247V155.364H162.387V163H163.272V158.227ZM173.502 155.364H171.887V153.534H170.997V155.364H169.858V156.134H170.997V161.215C170.997 162.463 171.981 163.114 172.96 163.114C173.328 163.114 173.577 163.045 173.746 162.98L173.557 162.18C173.433 162.214 173.274 162.249 173.04 162.249C172.438 162.249 171.887 161.966 171.887 161.006V156.134H173.502V155.364ZM178.398 163.159C180.377 163.159 181.759 161.543 181.759 159.217C181.759 156.875 180.377 155.259 178.398 155.259C176.419 155.259 175.037 156.875 175.037 159.217C175.037 161.543 176.419 163.159 178.398 163.159ZM178.398 162.349C176.812 162.349 175.927 160.927 175.927 159.217C175.927 157.506 176.812 156.065 178.398 156.065C179.984 156.065 180.869 157.506 180.869 159.217C180.869 160.927 179.984 162.349 178.398 162.349ZM185.137 163H186.052L187.862 156.741H187.956L189.766 163H190.68L192.987 155.364H192.053L190.243 161.648H190.173L188.384 155.364H187.444L185.639 161.663H185.575L183.765 155.364H182.83L185.137 163ZM195.592 158.227C195.592 156.895 196.467 156.075 197.67 156.075C198.844 156.075 199.599 156.86 199.599 158.108V163H200.484V158.053C200.484 156.244 199.435 155.264 197.894 155.264C196.776 155.264 196.005 155.781 195.647 156.562H195.567V155.364H194.707V163H195.592V158.227Z" fill="#444444"/>
<g filter="url(#filter32_d)">
<rect x="375" y="68" width="375" height="68" transform="rotate(-180 375 68)" fill="white"/>
</g>
<path d="M37.1413 35.858H23.5882L27.7365 30.8755C27.9304 30.6422 28.0237 30.3413 27.9959 30.0391C27.968 29.737 27.8213 29.4582 27.5879 29.2643C27.3545 29.0703 27.0537 28.977 26.7515 29.0048C26.4493 29.0327 26.1706 29.1795 25.9766 29.4128L20.2628 36.2694C20.2244 36.3239 20.19 36.3812 20.16 36.4408C20.16 36.4979 20.16 36.5322 20.08 36.5893C20.0282 36.7203 20.0011 36.8598 20 37.0007C20.0011 37.1416 20.0282 37.2811 20.08 37.4121C20.08 37.4692 20.08 37.5035 20.16 37.5607C20.19 37.6202 20.2244 37.6775 20.2628 37.7321L25.9766 44.5886C26.0841 44.7176 26.2186 44.8213 26.3707 44.8924C26.5228 44.9635 26.6886 45.0003 26.8565 45C27.1235 45.0005 27.3823 44.9075 27.5879 44.7372C27.7036 44.6412 27.7993 44.5234 27.8694 44.3905C27.9395 44.2575 27.9827 44.112 27.9965 43.9623C28.0103 43.8127 27.9944 43.6617 27.9498 43.5182C27.9052 43.3747 27.8327 43.2414 27.7365 43.1259L23.5882 38.1435H37.1413C37.4444 38.1435 37.7351 38.0231 37.9494 37.8088C38.1637 37.5945 38.2841 37.3038 38.2841 37.0007C38.2841 36.6976 38.1637 36.407 37.9494 36.1927C37.7351 35.9784 37.4444 35.858 37.1413 35.858Z" fill="#BBBBBB"/>
<path d="M60.5796 31.3636H58.6819L62.8694 43H64.8978L69.0853 31.3636H67.1876L63.949 40.8409H63.8183L60.5796 31.3636ZM72.2941 43.1932C73.7373 43.1932 74.5498 42.4602 74.8737 41.8068H74.9419V43H76.6009V37.2045C76.6009 34.6648 74.6009 34.1591 73.2146 34.1591C71.635 34.1591 70.1805 34.7955 69.6123 36.3864L71.2089 36.75C71.4589 36.1307 72.0953 35.5341 73.2373 35.5341C74.3339 35.5341 74.8964 36.108 74.8964 37.0966V37.1364C74.8964 37.7557 74.26 37.7443 72.6919 37.9261C71.0384 38.1193 69.3453 38.5511 69.3453 40.5341C69.3453 42.25 70.635 43.1932 72.2941 43.1932ZM72.6634 41.8295C71.7032 41.8295 71.01 41.3977 71.01 40.5568C71.01 39.6477 71.8169 39.3239 72.7998 39.1932C73.3509 39.1193 74.6578 38.9716 74.9021 38.7273V39.8523C74.9021 40.8864 74.0782 41.8295 72.6634 41.8295ZM80.5626 37.8182C80.5626 36.4261 81.4149 35.6307 82.5967 35.6307C83.7501 35.6307 84.449 36.3864 84.449 37.6534V43H86.1478V37.4489C86.1478 35.2898 84.9603 34.1591 83.1762 34.1591C81.8637 34.1591 81.0058 34.767 80.6024 35.6932H80.4944V34.2727H78.8637V43H80.5626V37.8182ZM92.1024 43.1761C94.1649 43.1761 95.5001 41.9375 95.6876 40.2386H94.0342C93.8183 41.1818 93.0853 41.7386 92.1137 41.7386C90.6762 41.7386 89.7501 40.5398 89.7501 38.6364C89.7501 36.767 90.6933 35.5909 92.1137 35.5909C93.1933 35.5909 93.8524 36.2727 94.0342 37.0909H95.6876C95.5058 35.3295 94.0683 34.1591 92.0853 34.1591C89.6251 34.1591 88.0342 36.0114 88.0342 38.6761C88.0342 41.3068 89.5683 43.1761 92.1024 43.1761ZM101.18 43.1761C103.641 43.1761 105.249 41.375 105.249 38.6761C105.249 35.9602 103.641 34.1591 101.18 34.1591C98.7203 34.1591 97.1123 35.9602 97.1123 38.6761C97.1123 41.375 98.7203 43.1761 101.18 43.1761ZM101.186 41.75C99.5782 41.75 98.8282 40.3466 98.8282 38.6705C98.8282 37 99.5782 35.5795 101.186 35.5795C102.783 35.5795 103.533 37 103.533 38.6705C103.533 40.3466 102.783 41.75 101.186 41.75ZM112.673 39.3807C112.679 40.8636 111.577 41.5682 110.622 41.5682C109.571 41.5682 108.844 40.8068 108.844 39.6193V34.2727H107.145V39.8239C107.145 41.9886 108.332 43.1136 110.009 43.1136C111.321 43.1136 112.213 42.4205 112.617 41.4886H112.707V43H114.378V34.2727H112.673V39.3807ZM124.127 34.2727H122.303L120.098 40.9886H120.007L117.797 34.2727H115.973L119.144 43H120.962L124.127 34.2727ZM129.172 43.1761C131.075 43.1761 132.422 42.2386 132.808 40.8182L131.2 40.5284C130.894 41.3523 130.155 41.7727 129.189 41.7727C127.734 41.7727 126.757 40.8295 126.712 39.1477H132.916V38.5455C132.916 35.392 131.03 34.1591 129.053 34.1591C126.621 34.1591 125.019 36.0114 125.019 38.6932C125.019 41.4034 126.598 43.1761 129.172 43.1761ZM126.717 37.875C126.786 36.6364 127.683 35.5625 129.064 35.5625C130.382 35.5625 131.246 36.5398 131.252 37.875H126.717ZM134.801 43H136.5V37.6705C136.5 36.5284 137.381 35.7045 138.585 35.7045C138.938 35.7045 139.335 35.767 139.472 35.8068V34.1818C139.301 34.1591 138.966 34.142 138.75 34.142C137.727 34.142 136.852 34.7216 136.534 35.6591H136.443V34.2727H134.801V43ZM142.152 41.4091H140.516L140.459 42.0455C140.328 43.5852 139.965 45.1364 139.811 45.8409H141.016C141.288 45.0966 141.891 43.392 142.067 42.0284L142.152 41.4091ZM148.734 43H153.195C155.899 43 157.121 41.6534 157.121 39.8693C157.121 38.0682 155.859 37.0511 154.706 36.9886V36.875C155.774 36.6023 156.666 35.875 156.666 34.4205C156.666 32.6989 155.473 31.3636 152.996 31.3636H148.734V43ZM150.49 41.4943V37.767H153.087C154.496 37.767 155.377 38.6761 155.377 39.7841C155.377 40.7614 154.712 41.4943 153.024 41.4943H150.49ZM150.49 36.3977V32.858H152.888C154.28 32.858 154.945 33.5909 154.945 34.5568C154.945 35.6818 154.024 36.3977 152.842 36.3977H150.49ZM168.868 35.1477C168.47 32.6591 166.521 31.2045 164.061 31.2045C161.05 31.2045 158.828 33.4602 158.828 37.1818C158.828 40.9034 161.038 43.1591 164.061 43.1591C166.618 43.1591 168.487 41.5568 168.868 39.2557L167.095 39.25C166.794 40.7386 165.544 41.5568 164.073 41.5568C162.078 41.5568 160.573 40.0284 160.573 37.1818C160.573 34.358 162.073 32.8068 164.078 32.8068C165.561 32.8068 166.805 33.642 167.095 35.1477H168.868Z" fill="#444444"/>
<rect width="343" height="48" transform="translate(16 184)" fill="white"/>
<path d="M57.3672 202.818H56.3928L60.0966 213H61.0909L64.7947 202.818H63.8203L60.6385 211.792H60.549L57.3672 202.818ZM67.7777 213.174C69.0504 213.174 69.826 212.468 70.1442 211.792H70.1989V213H71.0838V207.815C71.0838 205.766 69.5426 205.259 68.3743 205.259C67.206 205.259 66.0028 205.722 65.4858 206.969L66.326 207.273C66.6044 206.616 67.2955 206.055 68.3991 206.055C69.5575 206.055 70.1989 206.691 70.1989 207.735V207.914C70.1989 208.491 69.483 208.501 68.2003 208.66C66.4751 208.874 65.267 209.356 65.267 210.867C65.267 212.339 66.3906 213.174 67.7777 213.174ZM67.897 212.364C66.8977 212.364 66.152 211.832 66.152 210.907C66.152 209.982 66.9077 209.594 68.2003 209.435C68.8267 209.361 69.9403 209.222 70.1989 208.968V210.072C70.1989 211.325 69.3089 212.364 67.897 212.364ZM74.3228 208.227C74.3228 206.895 75.1978 206.075 76.4009 206.075C77.5742 206.075 78.3299 206.86 78.3299 208.108V213H79.2148V208.053C79.2148 206.244 78.1658 205.264 76.6246 205.264C75.506 205.264 74.7354 205.781 74.3775 206.562H74.2979V205.364H73.4379V213H74.3228V208.227ZM84.5282 213.159C86.1191 213.159 87.2377 212.155 87.4416 210.773H86.5467C86.3429 211.747 85.5424 212.349 84.5282 212.349C83.0318 212.349 82.0424 211.046 82.0424 209.187C82.0424 207.337 83.0616 206.065 84.5282 206.065C85.617 206.065 86.3528 206.766 86.5417 207.631H87.4366C87.2278 206.214 86.0446 205.259 84.5133 205.259C82.5147 205.259 81.1525 206.92 81.1525 209.217C81.1525 211.494 82.475 213.159 84.5282 213.159ZM92.3063 213.159C94.285 213.159 95.6671 211.543 95.6671 209.217C95.6671 206.875 94.285 205.259 92.3063 205.259C90.3276 205.259 88.9455 206.875 88.9455 209.217C88.9455 211.543 90.3276 213.159 92.3063 213.159ZM92.3063 212.349C90.7203 212.349 89.8354 210.927 89.8354 209.217C89.8354 207.506 90.7203 206.065 92.3063 206.065C93.8922 206.065 94.7772 207.506 94.7772 209.217C94.7772 210.927 93.8922 212.349 92.3063 212.349ZM102.462 210.082C102.462 211.484 101.408 212.239 100.374 212.239C99.2702 212.239 98.4947 211.449 98.4947 210.256V205.364H97.6097V210.31C97.6097 212.12 98.6538 213.099 100.12 213.099C101.239 213.099 102.034 212.518 102.392 211.732H102.462V213H103.347V205.364H102.462V210.082ZM111.601 205.364H110.642L108.374 211.832H108.305L106.038 205.364H105.078L107.867 213H108.812L111.601 205.364ZM116.146 213.159C117.678 213.159 118.707 212.329 119.055 211.369L118.214 211.096C117.921 211.782 117.23 212.349 116.146 212.349C114.585 212.349 113.596 211.21 113.556 209.445H119.244V209.008C119.244 206.457 117.668 205.259 116.012 205.259C114.033 205.259 112.666 206.915 112.666 209.227C112.666 211.543 114.009 213.159 116.146 213.159ZM113.561 208.665C113.656 207.243 114.615 206.065 116.012 206.065C117.379 206.065 118.339 207.193 118.339 208.665H113.561ZM121.194 213H122.079V208.068C122.079 206.935 122.949 206.114 124.142 206.114C124.376 206.114 124.594 206.154 124.674 206.164V205.264C124.555 205.259 124.351 205.249 124.206 205.249C123.247 205.249 122.427 205.766 122.118 206.537H122.054V205.364H121.194V213ZM131.235 202.818H130.305V213H131.235V202.818ZM138.889 207.039C138.516 205.935 137.701 205.259 136.304 205.259C134.762 205.259 133.644 206.139 133.644 207.397C133.644 208.421 134.265 209.117 135.593 209.435L136.841 209.734C137.681 209.933 138.083 210.365 138.083 210.977C138.083 211.772 137.323 212.364 136.15 212.364C135.105 212.364 134.454 211.891 134.24 210.987L133.39 211.195C133.659 212.468 134.668 213.159 136.164 213.159C137.845 213.159 138.998 212.234 138.998 210.937C138.998 209.918 138.357 209.237 137.079 208.923L135.926 208.64C134.976 208.401 134.534 208.018 134.534 207.357C134.534 206.582 135.275 206.04 136.304 206.04C137.333 206.04 137.84 206.582 138.078 207.268L138.889 207.039ZM141.821 202.818H140.936V213H141.821V202.818ZM146.295 213.174C147.568 213.174 148.344 212.468 148.662 211.792H148.716V213H149.601V207.815C149.601 205.766 148.06 205.259 146.892 205.259C145.724 205.259 144.52 205.722 144.003 206.969L144.844 207.273C145.122 206.616 145.813 206.055 146.917 206.055C148.075 206.055 148.716 206.691 148.716 207.735V207.914C148.716 208.491 148.001 208.501 146.718 208.66C144.993 208.874 143.785 209.356 143.785 210.867C143.785 212.339 144.908 213.174 146.295 213.174ZM146.415 212.364C145.415 212.364 144.67 211.832 144.67 210.907C144.67 209.982 145.425 209.594 146.718 209.435C147.344 209.361 148.458 209.222 148.716 208.968V210.072C148.716 211.325 147.827 212.364 146.415 212.364ZM152.84 208.227C152.84 206.895 153.715 206.075 154.919 206.075C156.092 206.075 156.847 206.86 156.847 208.108V213H157.732V208.053C157.732 206.244 156.683 205.264 155.142 205.264C154.024 205.264 153.253 205.781 152.895 206.562H152.816V205.364H151.955V213H152.84V208.227ZM162.812 213.159C164.199 213.159 164.846 212.279 165.159 211.583H165.263V213H166.128V202.818H165.238V206.82H165.159C164.855 206.134 164.224 205.259 162.827 205.259C160.943 205.259 159.67 206.85 159.67 209.202C159.67 211.573 160.938 213.159 162.812 213.159ZM162.917 212.349C161.395 212.349 160.56 210.967 160.56 209.187C160.56 207.427 161.385 206.065 162.917 206.065C164.408 206.065 165.253 207.357 165.253 209.187C165.253 211.031 164.398 212.349 162.917 212.349ZM170.12 211.608H169.156L169.086 212.165C168.907 213.512 168.639 214.815 168.51 215.486H169.191C169.429 214.785 169.857 213.214 170.031 212.14L170.12 211.608ZM176.585 213H180.209C182.396 213 183.406 211.871 183.406 210.33C183.406 208.784 182.382 207.854 181.392 207.785V207.705C182.302 207.462 183.008 206.756 183.008 205.483C183.008 203.952 182.009 202.818 180.02 202.818H176.585V213ZM177.514 212.165V208.242H180.249C181.616 208.242 182.516 209.167 182.516 210.33C182.516 211.384 181.78 212.165 180.209 212.165H177.514ZM177.514 207.417V203.653H180.02C181.412 203.653 182.118 204.404 182.118 205.483C182.118 206.602 181.308 207.417 180.105 207.417H177.514ZM193.624 206C193.29 204.126 191.759 202.679 189.592 202.679C187.021 202.679 185.192 204.722 185.192 207.909C185.192 211.096 187.021 213.139 189.592 213.139C191.759 213.139 193.29 211.688 193.624 209.818H192.689C192.406 211.215 191.188 212.264 189.592 212.264C187.663 212.264 186.092 210.738 186.092 207.909C186.092 205.09 187.663 203.554 189.592 203.554C191.188 203.554 192.406 204.608 192.689 206H193.624Z" fill="#444444"/>
<rect width="343" height="48" transform="translate(16 234)" fill="white"/>
<path d="M65.282 252.818H64.3672V261.354H64.2876L58.2521 252.818H57.3523V263H58.282V254.474H58.3615L64.3771 263H65.282V252.818ZM70.7731 263.159C72.7518 263.159 74.1339 261.543 74.1339 259.217C74.1339 256.875 72.7518 255.259 70.7731 255.259C68.7944 255.259 67.4123 256.875 67.4123 259.217C67.4123 261.543 68.7944 263.159 70.7731 263.159ZM70.7731 262.349C69.1871 262.349 68.3022 260.927 68.3022 259.217C68.3022 257.506 69.1871 256.065 70.7731 256.065C72.359 256.065 73.244 257.506 73.244 259.217C73.244 260.927 72.359 262.349 70.7731 262.349ZM76.0765 263H76.9615V258.068C76.9615 256.935 77.8315 256.114 79.0247 256.114C79.2583 256.114 79.4771 256.154 79.5566 256.164V255.264C79.4373 255.259 79.2335 255.249 79.0893 255.249C78.1298 255.249 77.3095 255.766 77.0012 256.537H76.9366V255.364H76.0765V263ZM84.5531 255.364H82.9373V253.534H82.0474V255.364H80.9089V256.134H82.0474V261.215C82.0474 262.463 83.0318 263.114 84.0112 263.114C84.3791 263.114 84.6277 263.045 84.7967 262.98L84.6078 262.18C84.4835 262.214 84.3244 262.249 84.0907 262.249C83.4892 262.249 82.9373 261.966 82.9373 261.006V256.134H84.5531V255.364ZM87.6119 258.227C87.6119 256.895 88.5067 256.075 89.7298 256.075C90.913 256.075 91.6687 256.85 91.6687 258.108V263H92.5586V258.053C92.5586 256.234 91.5046 255.264 89.9535 255.264C88.8001 255.264 88.0494 255.771 87.6914 256.562H87.6119V252.818H86.7269V263H87.6119V258.227ZM99.0254 252.818H98.051L101.755 263H102.749L106.453 252.818H105.479L102.297 261.792H102.207L99.0254 252.818ZM109.436 263.174C110.709 263.174 111.484 262.468 111.802 261.792H111.857V263H112.742V257.815C112.742 255.766 111.201 255.259 110.032 255.259C108.864 255.259 107.661 255.722 107.144 256.969L107.984 257.273C108.263 256.616 108.954 256.055 110.057 256.055C111.216 256.055 111.857 256.691 111.857 257.735V257.914C111.857 258.491 111.141 258.501 109.858 258.66C108.133 258.874 106.925 259.356 106.925 260.867C106.925 262.339 108.049 263.174 109.436 263.174ZM109.555 262.364C108.556 262.364 107.81 261.832 107.81 260.907C107.81 259.982 108.566 259.594 109.858 259.435C110.485 259.361 111.599 259.222 111.857 258.968V260.072C111.857 261.325 110.967 262.364 109.555 262.364ZM115.981 258.227C115.981 256.895 116.856 256.075 118.059 256.075C119.232 256.075 119.988 256.86 119.988 258.108V263H120.873V258.053C120.873 256.244 119.824 255.264 118.283 255.264C117.164 255.264 116.394 255.781 116.036 256.562H115.956V255.364H115.096V263H115.981V258.227ZM126.186 263.159C127.777 263.159 128.896 262.155 129.1 260.773H128.205C128.001 261.747 127.201 262.349 126.186 262.349C124.69 262.349 123.701 261.046 123.701 259.187C123.701 257.337 124.72 256.065 126.186 256.065C127.275 256.065 128.011 256.766 128.2 257.631H129.095C128.886 256.214 127.703 255.259 126.172 255.259C124.173 255.259 122.811 256.92 122.811 259.217C122.811 261.494 124.133 263.159 126.186 263.159ZM133.964 263.159C135.943 263.159 137.325 261.543 137.325 259.217C137.325 256.875 135.943 255.259 133.964 255.259C131.986 255.259 130.604 256.875 130.604 259.217C130.604 261.543 131.986 263.159 133.964 263.159ZM133.964 262.349C132.379 262.349 131.494 260.927 131.494 259.217C131.494 257.506 132.379 256.065 133.964 256.065C135.55 256.065 136.435 257.506 136.435 259.217C136.435 260.927 135.55 262.349 133.964 262.349ZM144.12 260.082C144.12 261.484 143.066 262.239 142.032 262.239C140.928 262.239 140.153 261.449 140.153 260.256V255.364H139.268V260.31C139.268 262.12 140.312 263.099 141.779 263.099C142.897 263.099 143.693 262.518 144.051 261.732H144.12V263H145.005V255.364H144.12V260.082ZM153.259 255.364H152.3L150.033 261.832H149.963L147.696 255.364H146.737L149.526 263H150.47L153.259 255.364ZM157.805 263.159C159.336 263.159 160.365 262.329 160.713 261.369L159.873 261.096C159.579 261.782 158.888 262.349 157.805 262.349C156.243 262.349 155.254 261.21 155.214 259.445H160.902V259.008C160.902 256.457 159.326 255.259 157.67 255.259C155.692 255.259 154.324 256.915 154.324 259.227C154.324 261.543 155.667 263.159 157.805 263.159ZM155.219 258.665C155.314 257.243 156.273 256.065 157.67 256.065C159.037 256.065 159.997 257.193 159.997 258.665H155.219ZM162.852 263H163.737V258.068C163.737 256.935 164.607 256.114 165.8 256.114C166.034 256.114 166.252 256.154 166.332 256.164V255.264C166.213 255.259 166.009 255.249 165.865 255.249C164.905 255.249 164.085 255.766 163.777 256.537H163.712V255.364H162.852V263ZM168.439 261.608H167.474L167.405 262.165C167.226 263.512 166.957 264.815 166.828 265.486H167.509C167.748 264.785 168.175 263.214 168.349 262.14L168.439 261.608ZM174.903 263H178.527C180.715 263 181.724 261.871 181.724 260.33C181.724 258.784 180.7 257.854 179.711 257.785V257.705C180.62 257.462 181.326 256.756 181.326 255.483C181.326 253.952 180.327 252.818 178.338 252.818H174.903V263ZM175.833 262.165V258.242H178.567C179.934 258.242 180.834 259.167 180.834 260.33C180.834 261.384 180.098 262.165 178.527 262.165H175.833ZM175.833 257.417V253.653H178.338C179.73 253.653 180.436 254.404 180.436 255.483C180.436 256.602 179.626 257.417 178.423 257.417H175.833ZM191.942 256C191.609 254.126 190.078 252.679 187.91 252.679C185.34 252.679 183.51 254.722 183.51 257.909C183.51 261.096 185.34 263.139 187.91 263.139C190.078 263.139 191.609 261.688 191.942 259.818H191.007C190.724 261.215 189.506 262.264 187.91 262.264C185.981 262.264 184.41 260.738 184.41 257.909C184.41 255.09 185.981 253.554 187.91 253.554C189.506 253.554 190.724 254.608 191.007 256H191.942Z" fill="#444444"/>
<rect width="343" height="48" transform="translate(16 284)" fill="white"/>
<path d="M59.1222 313H60.1165L62.478 304.364H62.5426L64.9041 313H65.8984L68.6875 302.818H67.7379L65.4311 311.573H65.3516L63.0447 302.818H61.9709L59.6641 311.573H59.5845L57.2777 302.818H56.3331L59.1222 313ZM72.5604 313.159C74.0916 313.159 75.1207 312.329 75.4688 311.369L74.6286 311.096C74.3352 311.782 73.6442 312.349 72.5604 312.349C70.9993 312.349 70.0099 311.21 69.9702 309.445H75.6577V309.008C75.6577 306.457 74.0817 305.259 72.4261 305.259C70.4474 305.259 69.0803 306.915 69.0803 309.227C69.0803 311.543 70.4226 313.159 72.5604 313.159ZM69.9751 308.665C70.0696 307.243 71.0291 306.065 72.4261 306.065C73.7933 306.065 74.7528 307.193 74.7528 308.665H69.9751ZM82.7385 307.039C82.3656 305.935 81.5502 305.259 80.1532 305.259C78.612 305.259 77.4934 306.139 77.4934 307.397C77.4934 308.421 78.1149 309.117 79.4423 309.435L80.6902 309.734C81.5304 309.933 81.9331 310.365 81.9331 310.977C81.9331 311.772 81.1724 312.364 79.9991 312.364C78.9551 312.364 78.3038 311.891 78.09 310.987L77.2399 311.195C77.5083 312.468 78.5176 313.159 80.014 313.159C81.6944 313.159 82.8478 312.234 82.8478 310.937C82.8478 309.918 82.2065 309.237 80.9288 308.923L79.7754 308.64C78.8258 308.401 78.3833 308.018 78.3833 307.357C78.3833 306.582 79.1241 306.04 80.1532 306.04C81.1824 306.04 81.6895 306.582 81.9281 307.268L82.7385 307.039ZM87.7933 305.364H86.1776V303.534H85.2876V305.364H84.1491V306.134H85.2876V311.215C85.2876 312.463 86.272 313.114 87.2514 313.114C87.6193 313.114 87.8679 313.045 88.0369 312.98L87.848 312.18C87.7237 312.214 87.5646 312.249 87.331 312.249C86.7294 312.249 86.1776 311.966 86.1776 311.006V306.134H87.7933V305.364ZM93.9395 302.818H92.965L96.6689 313H97.6632L101.367 302.818H100.393L97.2108 311.792H97.1213L93.9395 302.818ZM104.35 313.174C105.623 313.174 106.398 312.468 106.716 311.792H106.771V313H107.656V307.815C107.656 305.766 106.115 305.259 104.947 305.259C103.778 305.259 102.575 305.722 102.058 306.969L102.898 307.273C103.177 306.616 103.868 306.055 104.971 306.055C106.13 306.055 106.771 306.691 106.771 307.735V307.914C106.771 308.491 106.055 308.501 104.773 308.66C103.047 308.874 101.839 309.356 101.839 310.867C101.839 312.339 102.963 313.174 104.35 313.174ZM104.469 312.364C103.47 312.364 102.724 311.832 102.724 310.907C102.724 309.982 103.48 309.594 104.773 309.435C105.399 309.361 106.513 309.222 106.771 308.968V310.072C106.771 311.325 105.881 312.364 104.469 312.364ZM110.895 308.227C110.895 306.895 111.77 306.075 112.973 306.075C114.146 306.075 114.902 306.86 114.902 308.108V313H115.787V308.053C115.787 306.244 114.738 305.264 113.197 305.264C112.078 305.264 111.308 305.781 110.95 306.562H110.87V305.364H110.01V313H110.895V308.227ZM121.1 313.159C122.691 313.159 123.81 312.155 124.014 310.773H123.119C122.915 311.747 122.115 312.349 121.1 312.349C119.604 312.349 118.615 311.046 118.615 309.187C118.615 307.337 119.634 306.065 121.1 306.065C122.189 306.065 122.925 306.766 123.114 307.631H124.009C123.8 306.214 122.617 305.259 121.086 305.259C119.087 305.259 117.725 306.92 117.725 309.217C117.725 311.494 119.047 313.159 121.1 313.159ZM128.879 313.159C130.857 313.159 132.239 311.543 132.239 309.217C132.239 306.875 130.857 305.259 128.879 305.259C126.9 305.259 125.518 306.875 125.518 309.217C125.518 311.543 126.9 313.159 128.879 313.159ZM128.879 312.349C127.293 312.349 126.408 310.927 126.408 309.217C126.408 307.506 127.293 306.065 128.879 306.065C130.464 306.065 131.349 307.506 131.349 309.217C131.349 310.927 130.464 312.349 128.879 312.349ZM139.034 310.082C139.034 311.484 137.98 312.239 136.946 312.239C135.843 312.239 135.067 311.449 135.067 310.256V305.364H134.182V310.31C134.182 312.12 135.226 313.099 136.693 313.099C137.811 313.099 138.607 312.518 138.965 311.732H139.034V313H139.919V305.364H139.034V310.082ZM148.173 305.364H147.214L144.947 311.832H144.877L142.61 305.364H141.651L144.44 313H145.384L148.173 305.364ZM152.719 313.159C154.25 313.159 155.279 312.329 155.627 311.369L154.787 311.096C154.493 311.782 153.802 312.349 152.719 312.349C151.157 312.349 150.168 311.21 150.128 309.445H155.816V309.008C155.816 306.457 154.24 305.259 152.584 305.259C150.606 305.259 149.238 306.915 149.238 309.227C149.238 311.543 150.581 313.159 152.719 313.159ZM150.133 308.665C150.228 307.243 151.187 306.065 152.584 306.065C153.952 306.065 154.911 307.193 154.911 308.665H150.133ZM157.766 313H158.651V308.068C158.651 306.935 159.521 306.114 160.714 306.114C160.948 306.114 161.167 306.154 161.246 306.164V305.264C161.127 305.259 160.923 305.249 160.779 305.249C159.819 305.249 158.999 305.766 158.691 306.537H158.626V305.364H157.766V313ZM163.353 311.608H162.388L162.319 312.165C162.14 313.512 161.871 314.815 161.742 315.486H162.423C162.662 314.785 163.089 313.214 163.263 312.14L163.353 311.608ZM169.817 313H173.441C175.629 313 176.638 311.871 176.638 310.33C176.638 308.784 175.614 307.854 174.625 307.785V307.705C175.534 307.462 176.24 306.756 176.24 305.483C176.24 303.952 175.241 302.818 173.252 302.818H169.817V313ZM170.747 312.165V308.242H173.481C174.848 308.242 175.748 309.167 175.748 310.33C175.748 311.384 175.012 312.165 173.441 312.165H170.747ZM170.747 307.417V303.653H173.252C174.645 303.653 175.35 304.404 175.35 305.483C175.35 306.602 174.54 307.417 173.337 307.417H170.747ZM186.856 306C186.523 304.126 184.992 302.679 182.824 302.679C180.254 302.679 178.424 304.722 178.424 307.909C178.424 311.096 180.254 313.139 182.824 313.139C184.992 313.139 186.523 311.688 186.856 309.818H185.921C185.638 311.215 184.42 312.264 182.824 312.264C180.895 312.264 179.324 310.738 179.324 307.909C179.324 305.09 180.895 303.554 182.824 303.554C184.42 303.554 185.638 304.608 185.921 306H186.856Z" fill="#444444"/>
</g>
<defs>
<filter id="filter0_b" x="-108.731" y="267.269" width="593.463" height="508.463" filterUnits="userSpaceOnUse" color-interpolation-filters="sRGB">
<feFlood flood-opacity="0" result="BackgroundImageFix"/>
<feGaussianBlur in="BackgroundImage" stdDeviation="54.3656"/>
<feComposite in2="SourceAlpha" operator="in" result="effect1_backgroundBlur"/>
<feBlend mode="normal" in="SourceGraphic" in2="effect1_backgroundBlur" result="shape"/>
</filter>
<filter id="filter1_d" x="284" y="546" width="88" height="43" filterUnits="userSpaceOnUse" color-interpolation-filters="sRGB">
<feFlood flood-opacity="0" result="BackgroundImageFix"/>
<feColorMatrix in="SourceAlpha" type="matrix" values="0 0 0 0 0 0 0 0 0 0 0 0 0 0 0 0 0 0 127 0" result="hardAlpha"/>
<feOffset dy="1"/>
<feColorMatrix type="matrix" values="0 0 0 0 0.537255 0 0 0 0 0.541176 0 0 0 0 0.552941 0 0 0 1 0"/>
<feBlend mode="normal" in2="BackgroundImageFix" result="effect1_dropShadow"/>
<feBlend mode="normal" in="SourceGraphic" in2="effect1_dropShadow" result="shape"/>
</filter>
<filter id="filter2_d" x="96" y="546" width="182" height="43" filterUnits="userSpaceOnUse" color-interpolation-filters="sRGB">
<feFlood flood-opacity="0" result="BackgroundImageFix"/>
<feColorMatrix in="SourceAlpha" type="matrix" values="0 0 0 0 0 0 0 0 0 0 0 0 0 0 0 0 0 0 127 0" result="hardAlpha"/>
<feOffset dy="1"/>
<feColorMatrix type="matrix" values="0 0 0 0 0.537255 0 0 0 0 0.541176 0 0 0 0 0.552941 0 0 0 1 0"/>
<feBlend mode="normal" in2="BackgroundImageFix" result="effect1_dropShadow"/>
<feBlend mode="normal" in="SourceGraphic" in2="effect1_dropShadow" result="shape"/>
</filter>
<filter id="filter3_d" x="3" y="546" width="87" height="43" filterUnits="userSpaceOnUse" color-interpolation-filters="sRGB">
<feFlood flood-opacity="0" result="BackgroundImageFix"/>
<feColorMatrix in="SourceAlpha" type="matrix" values="0 0 0 0 0 0 0 0 0 0 0 0 0 0 0 0 0 0 127 0" result="hardAlpha"/>
<feOffset dy="1"/>
<feColorMatrix type="matrix" values="0 0 0 0 0.537255 0 0 0 0 0.541176 0 0 0 0 0.552941 0 0 0 1 0"/>
<feBlend mode="normal" in2="BackgroundImageFix" result="effect1_dropShadow"/>
<feBlend mode="normal" in="SourceGraphic" in2="effect1_dropShadow" result="shape"/>
</filter>
<filter id="filter4_d" x="330" y="492" width="42" height="43" filterUnits="userSpaceOnUse" color-interpolation-filters="sRGB">
<feFlood flood-opacity="0" result="BackgroundImageFix"/>
<feColorMatrix in="SourceAlpha" type="matrix" values="0 0 0 0 0 0 0 0 0 0 0 0 0 0 0 0 0 0 127 0" result="hardAlpha"/>
<feOffset dy="1"/>
<feColorMatrix type="matrix" values="0 0 0 0 0.537255 0 0 0 0 0.541176 0 0 0 0 0.552941 0 0 0 1 0"/>
<feBlend mode="normal" in2="BackgroundImageFix" result="effect1_dropShadow"/>
<feBlend mode="normal" in="SourceGraphic" in2="effect1_dropShadow" result="shape"/>
</filter>
<filter id="filter5_d" x="3" y="492" width="42" height="43" filterUnits="userSpaceOnUse" color-interpolation-filters="sRGB">
<feFlood flood-opacity="0" result="BackgroundImageFix"/>
<feColorMatrix in="SourceAlpha" type="matrix" values="0 0 0 0 0 0 0 0 0 0 0 0 0 0 0 0 0 0 127 0" result="hardAlpha"/>
<feOffset dy="1"/>
<feColorMatrix type="matrix" values="0 0 0 0 0.537255 0 0 0 0 0.541176 0 0 0 0 0.552941 0 0 0 1 0"/>
<feBlend mode="normal" in2="BackgroundImageFix" result="effect1_dropShadow"/>
<feBlend mode="normal" in="SourceGraphic" in2="effect1_dropShadow" result="shape"/>
</filter>
<filter id="filter6_d" x="285" y="492" width="32" height="43" filterUnits="userSpaceOnUse" color-interpolation-filters="sRGB">
<feFlood flood-opacity="0" result="BackgroundImageFix"/>
<feColorMatrix in="SourceAlpha" type="matrix" values="0 0 0 0 0 0 0 0 0 0 0 0 0 0 0 0 0 0 127 0" result="hardAlpha"/>
<feOffset dy="1"/>
<feColorMatrix type="matrix" values="0 0 0 0 0.537255 0 0 0 0 0.541176 0 0 0 0 0.552941 0 0 0 1 0"/>
<feBlend mode="normal" in2="BackgroundImageFix" result="effect1_dropShadow"/>
<feBlend mode="normal" in="SourceGraphic" in2="effect1_dropShadow" result="shape"/>
</filter>
<filter id="filter7_d" x="247" y="492" width="32" height="43" filterUnits="userSpaceOnUse" color-interpolation-filters="sRGB">
<feFlood flood-opacity="0" result="BackgroundImageFix"/>
<feColorMatrix in="SourceAlpha" type="matrix" values="0 0 0 0 0 0 0 0 0 0 0 0 0 0 0 0 0 0 127 0" result="hardAlpha"/>
<feOffset dy="1"/>
<feColorMatrix type="matrix" values="0 0 0 0 0.537255 0 0 0 0 0.541176 0 0 0 0 0.552941 0 0 0 1 0"/>
<feBlend mode="normal" in2="BackgroundImageFix" result="effect1_dropShadow"/>
<feBlend mode="normal" in="SourceGraphic" in2="effect1_dropShadow" result="shape"/>
</filter>
<filter id="filter8_d" x="209" y="492" width="32" height="43" filterUnits="userSpaceOnUse" color-interpolation-filters="sRGB">
<feFlood flood-opacity="0" result="BackgroundImageFix"/>
<feColorMatrix in="SourceAlpha" type="matrix" values="0 0 0 0 0 0 0 0 0 0 0 0 0 0 0 0 0 0 127 0" result="hardAlpha"/>
<feOffset dy="1"/>
<feColorMatrix type="matrix" values="0 0 0 0 0.537255 0 0 0 0 0.541176 0 0 0 0 0.552941 0 0 0 1 0"/>
<feBlend mode="normal" in2="BackgroundImageFix" result="effect1_dropShadow"/>
<feBlend mode="normal" in="SourceGraphic" in2="effect1_dropShadow" result="shape"/>
</filter>
<filter id="filter9_d" x="172" y="492" width="32" height="43" filterUnits="userSpaceOnUse" color-interpolation-filters="sRGB">
<feFlood flood-opacity="0" result="BackgroundImageFix"/>
<feColorMatrix in="SourceAlpha" type="matrix" values="0 0 0 0 0 0 0 0 0 0 0 0 0 0 0 0 0 0 127 0" result="hardAlpha"/>
<feOffset dy="1"/>
<feColorMatrix type="matrix" values="0 0 0 0 0.537255 0 0 0 0 0.541176 0 0 0 0 0.552941 0 0 0 1 0"/>
<feBlend mode="normal" in2="BackgroundImageFix" result="effect1_dropShadow"/>
<feBlend mode="normal" in="SourceGraphic" in2="effect1_dropShadow" result="shape"/>
</filter>
<filter id="filter10_d" x="134" y="492" width="32" height="43" filterUnits="userSpaceOnUse" color-interpolation-filters="sRGB">
<feFlood flood-opacity="0" result="BackgroundImageFix"/>
<feColorMatrix in="SourceAlpha" type="matrix" values="0 0 0 0 0 0 0 0 0 0 0 0 0 0 0 0 0 0 127 0" result="hardAlpha"/>
<feOffset dy="1"/>
<feColorMatrix type="matrix" values="0 0 0 0 0.537255 0 0 0 0 0.541176 0 0 0 0 0.552941 0 0 0 1 0"/>
<feBlend mode="normal" in2="BackgroundImageFix" result="effect1_dropShadow"/>
<feBlend mode="normal" in="SourceGraphic" in2="effect1_dropShadow" result="shape"/>
</filter>
<filter id="filter11_d" x="97" y="492" width="32" height="43" filterUnits="userSpaceOnUse" color-interpolation-filters="sRGB">
<feFlood flood-opacity="0" result="BackgroundImageFix"/>
<feColorMatrix in="SourceAlpha" type="matrix" values="0 0 0 0 0 0 0 0 0 0 0 0 0 0 0 0 0 0 127 0" result="hardAlpha"/>
<feOffset dy="1"/>
<feColorMatrix type="matrix" values="0 0 0 0 0.537255 0 0 0 0 0.541176 0 0 0 0 0.552941 0 0 0 1 0"/>
<feBlend mode="normal" in2="BackgroundImageFix" result="effect1_dropShadow"/>
<feBlend mode="normal" in="SourceGraphic" in2="effect1_dropShadow" result="shape"/>
</filter>
<filter id="filter12_d" x="59" y="492" width="32" height="43" filterUnits="userSpaceOnUse" color-interpolation-filters="sRGB">
<feFlood flood-opacity="0" result="BackgroundImageFix"/>
<feColorMatrix in="SourceAlpha" type="matrix" values="0 0 0 0 0 0 0 0 0 0 0 0 0 0 0 0 0 0 127 0" result="hardAlpha"/>
<feOffset dy="1"/>
<feColorMatrix type="matrix" values="0 0 0 0 0.537255 0 0 0 0 0.541176 0 0 0 0 0.552941 0 0 0 1 0"/>
<feBlend mode="normal" in2="BackgroundImageFix" result="effect1_dropShadow"/>
<feBlend mode="normal" in="SourceGraphic" in2="effect1_dropShadow" result="shape"/>
</filter>
<filter id="filter13_d" x="322" y="438" width="32" height="43" filterUnits="userSpaceOnUse" color-interpolation-filters="sRGB">
<feFlood flood-opacity="0" result="BackgroundImageFix"/>
<feColorMatrix in="SourceAlpha" type="matrix" values="0 0 0 0 0 0 0 0 0 0 0 0 0 0 0 0 0 0 127 0" result="hardAlpha"/>
<feOffset dy="1"/>
<feColorMatrix type="matrix" values="0 0 0 0 0.537255 0 0 0 0 0.541176 0 0 0 0 0.552941 0 0 0 1 0"/>
<feBlend mode="normal" in2="BackgroundImageFix" result="effect1_dropShadow"/>
<feBlend mode="normal" in="SourceGraphic" in2="effect1_dropShadow" result="shape"/>
</filter>
<filter id="filter14_d" x="284" y="438" width="32" height="43" filterUnits="userSpaceOnUse" color-interpolation-filters="sRGB">
<feFlood flood-opacity="0" result="BackgroundImageFix"/>
<feColorMatrix in="SourceAlpha" type="matrix" values="0 0 0 0 0 0 0 0 0 0 0 0 0 0 0 0 0 0 127 0" result="hardAlpha"/>
<feOffset dy="1"/>
<feColorMatrix type="matrix" values="0 0 0 0 0.537255 0 0 0 0 0.541176 0 0 0 0 0.552941 0 0 0 1 0"/>
<feBlend mode="normal" in2="BackgroundImageFix" result="effect1_dropShadow"/>
<feBlend mode="normal" in="SourceGraphic" in2="effect1_dropShadow" result="shape"/>
</filter>
<filter id="filter15_d" x="247" y="438" width="32" height="43" filterUnits="userSpaceOnUse" color-interpolation-filters="sRGB">
<feFlood flood-opacity="0" result="BackgroundImageFix"/>
<feColorMatrix in="SourceAlpha" type="matrix" values="0 0 0 0 0 0 0 0 0 0 0 0 0 0 0 0 0 0 127 0" result="hardAlpha"/>
<feOffset dy="1"/>
<feColorMatrix type="matrix" values="0 0 0 0 0.537255 0 0 0 0 0.541176 0 0 0 0 0.552941 0 0 0 1 0"/>
<feBlend mode="normal" in2="BackgroundImageFix" result="effect1_dropShadow"/>
<feBlend mode="normal" in="SourceGraphic" in2="effect1_dropShadow" result="shape"/>
</filter>
<filter id="filter16_d" x="209" y="438" width="32" height="43" filterUnits="userSpaceOnUse" color-interpolation-filters="sRGB">
<feFlood flood-opacity="0" result="BackgroundImageFix"/>
<feColorMatrix in="SourceAlpha" type="matrix" values="0 0 0 0 0 0 0 0 0 0 0 0 0 0 0 0 0 0 127 0" result="hardAlpha"/>
<feOffset dy="1"/>
<feColorMatrix type="matrix" values="0 0 0 0 0.537255 0 0 0 0 0.541176 0 0 0 0 0.552941 0 0 0 1 0"/>
<feBlend mode="normal" in2="BackgroundImageFix" result="effect1_dropShadow"/>
<feBlend mode="normal" in="SourceGraphic" in2="effect1_dropShadow" result="shape"/>
</filter>
<filter id="filter17_d" x="172" y="438" width="32" height="43" filterUnits="userSpaceOnUse" color-interpolation-filters="sRGB">
<feFlood flood-opacity="0" result="BackgroundImageFix"/>
<feColorMatrix in="SourceAlpha" type="matrix" values="0 0 0 0 0 0 0 0 0 0 0 0 0 0 0 0 0 0 127 0" result="hardAlpha"/>
<feOffset dy="1"/>
<feColorMatrix type="matrix" values="0 0 0 0 0.537255 0 0 0 0 0.541176 0 0 0 0 0.552941 0 0 0 1 0"/>
<feBlend mode="normal" in2="BackgroundImageFix" result="effect1_dropShadow"/>
<feBlend mode="normal" in="SourceGraphic" in2="effect1_dropShadow" result="shape"/>
</filter>
<filter id="filter18_d" x="134" y="438" width="32" height="43" filterUnits="userSpaceOnUse" color-interpolation-filters="sRGB">
<feFlood flood-opacity="0" result="BackgroundImageFix"/>
<feColorMatrix in="SourceAlpha" type="matrix" values="0 0 0 0 0 0 0 0 0 0 0 0 0 0 0 0 0 0 127 0" result="hardAlpha"/>
<feOffset dy="1"/>
<feColorMatrix type="matrix" values="0 0 0 0 0.537255 0 0 0 0 0.541176 0 0 0 0 0.552941 0 0 0 1 0"/>
<feBlend mode="normal" in2="BackgroundImageFix" result="effect1_dropShadow"/>
<feBlend mode="normal" in="SourceGraphic" in2="effect1_dropShadow" result="shape"/>
</filter>
<filter id="filter19_d" x="97" y="438" width="32" height="43" filterUnits="userSpaceOnUse" color-interpolation-filters="sRGB">
<feFlood flood-opacity="0" result="BackgroundImageFix"/>
<feColorMatrix in="SourceAlpha" type="matrix" values="0 0 0 0 0 0 0 0 0 0 0 0 0 0 0 0 0 0 127 0" result="hardAlpha"/>
<feOffset dy="1"/>
<feColorMatrix type="matrix" values="0 0 0 0 0.537255 0 0 0 0 0.541176 0 0 0 0 0.552941 0 0 0 1 0"/>
<feBlend mode="normal" in2="BackgroundImageFix" result="effect1_dropShadow"/>
<feBlend mode="normal" in="SourceGraphic" in2="effect1_dropShadow" result="shape"/>
</filter>
<filter id="filter20_d" x="59" y="438" width="32" height="43" filterUnits="userSpaceOnUse" color-interpolation-filters="sRGB">
<feFlood flood-opacity="0" result="BackgroundImageFix"/>
<feColorMatrix in="SourceAlpha" type="matrix" values="0 0 0 0 0 0 0 0 0 0 0 0 0 0 0 0 0 0 127 0" result="hardAlpha"/>
<feOffset dy="1"/>
<feColorMatrix type="matrix" values="0 0 0 0 0.537255 0 0 0 0 0.541176 0 0 0 0 0.552941 0 0 0 1 0"/>
<feBlend mode="normal" in2="BackgroundImageFix" result="effect1_dropShadow"/>
<feBlend mode="normal" in="SourceGraphic" in2="effect1_dropShadow" result="shape"/>
</filter>
<filter id="filter21_d" x="22" y="438" width="32" height="43" filterUnits="userSpaceOnUse" color-interpolation-filters="sRGB">
<feFlood flood-opacity="0" result="BackgroundImageFix"/>
<feColorMatrix in="SourceAlpha" type="matrix" values="0 0 0 0 0 0 0 0 0 0 0 0 0 0 0 0 0 0 127 0" result="hardAlpha"/>
<feOffset dy="1"/>
<feColorMatrix type="matrix" values="0 0 0 0 0.537255 0 0 0 0 0.541176 0 0 0 0 0.552941 0 0 0 1 0"/>
<feBlend mode="normal" in2="BackgroundImageFix" result="effect1_dropShadow"/>
<feBlend mode="normal" in="SourceGraphic" in2="effect1_dropShadow" result="shape"/>
</filter>
<filter id="filter22_d" x="340" y="384" width="32" height="43" filterUnits="userSpaceOnUse" color-interpolation-filters="sRGB">
<feFlood flood-opacity="0" result="BackgroundImageFix"/>
<feColorMatrix in="SourceAlpha" type="matrix" values="0 0 0 0 0 0 0 0 0 0 0 0 0 0 0 0 0 0 127 0" result="hardAlpha"/>
<feOffset dy="1"/>
<feColorMatrix type="matrix" values="0 0 0 0 0.537255 0 0 0 0 0.541176 0 0 0 0 0.552941 0 0 0 1 0"/>
<feBlend mode="normal" in2="BackgroundImageFix" result="effect1_dropShadow"/>
<feBlend mode="normal" in="SourceGraphic" in2="effect1_dropShadow" result="shape"/>
</filter>
<filter id="filter23_d" x="303" y="384" width="32" height="43" filterUnits="userSpaceOnUse" color-interpolation-filters="sRGB">
<feFlood flood-opacity="0" result="BackgroundImageFix"/>
<feColorMatrix in="SourceAlpha" type="matrix" values="0 0 0 0 0 0 0 0 0 0 0 0 0 0 0 0 0 0 127 0" result="hardAlpha"/>
<feOffset dy="1"/>
<feColorMatrix type="matrix" values="0 0 0 0 0.537255 0 0 0 0 0.541176 0 0 0 0 0.552941 0 0 0 1 0"/>
<feBlend mode="normal" in2="BackgroundImageFix" result="effect1_dropShadow"/>
<feBlend mode="normal" in="SourceGraphic" in2="effect1_dropShadow" result="shape"/>
</filter>
<filter id="filter24_d" x="265" y="384" width="32" height="43" filterUnits="userSpaceOnUse" color-interpolation-filters="sRGB">
<feFlood flood-opacity="0" result="BackgroundImageFix"/>
<feColorMatrix in="SourceAlpha" type="matrix" values="0 0 0 0 0 0 0 0 0 0 0 0 0 0 0 0 0 0 127 0" result="hardAlpha"/>
<feOffset dy="1"/>
<feColorMatrix type="matrix" values="0 0 0 0 0.537255 0 0 0 0 0.541176 0 0 0 0 0.552941 0 0 0 1 0"/>
<feBlend mode="normal" in2="BackgroundImageFix" result="effect1_dropShadow"/>
<feBlend mode="normal" in="SourceGraphic" in2="effect1_dropShadow" result="shape"/>
</filter>
<filter id="filter25_d" x="228" y="384" width="32" height="43" filterUnits="userSpaceOnUse" color-interpolation-filters="sRGB">
<feFlood flood-opacity="0" result="BackgroundImageFix"/>
<feColorMatrix in="SourceAlpha" type="matrix" values="0 0 0 0 0 0 0 0 0 0 0 0 0 0 0 0 0 0 127 0" result="hardAlpha"/>
<feOffset dy="1"/>
<feColorMatrix type="matrix" values="0 0 0 0 0.537255 0 0 0 0 0.541176 0 0 0 0 0.552941 0 0 0 1 0"/>
<feBlend mode="normal" in2="BackgroundImageFix" result="effect1_dropShadow"/>
<feBlend mode="normal" in="SourceGraphic" in2="effect1_dropShadow" result="shape"/>
</filter>
<filter id="filter26_d" x="190" y="384" width="32" height="43" filterUnits="userSpaceOnUse" color-interpolation-filters="sRGB">
<feFlood flood-opacity="0" result="BackgroundImageFix"/>
<feColorMatrix in="SourceAlpha" type="matrix" values="0 0 0 0 0 0 0 0 0 0 0 0 0 0 0 0 0 0 127 0" result="hardAlpha"/>
<feOffset dy="1"/>
<feColorMatrix type="matrix" values="0 0 0 0 0.537255 0 0 0 0 0.541176 0 0 0 0 0.552941 0 0 0 1 0"/>
<feBlend mode="normal" in2="BackgroundImageFix" result="effect1_dropShadow"/>
<feBlend mode="normal" in="SourceGraphic" in2="effect1_dropShadow" result="shape"/>
</filter>
<filter id="filter27_d" x="153" y="384" width="32" height="43" filterUnits="userSpaceOnUse" color-interpolation-filters="sRGB">
<feFlood flood-opacity="0" result="BackgroundImageFix"/>
<feColorMatrix in="SourceAlpha" type="matrix" values="0 0 0 0 0 0 0 0 0 0 0 0 0 0 0 0 0 0 127 0" result="hardAlpha"/>
<feOffset dy="1"/>
<feColorMatrix type="matrix" values="0 0 0 0 0.537255 0 0 0 0 0.541176 0 0 0 0 0.552941 0 0 0 1 0"/>
<feBlend mode="normal" in2="BackgroundImageFix" result="effect1_dropShadow"/>
<feBlend mode="normal" in="SourceGraphic" in2="effect1_dropShadow" result="shape"/>
</filter>
<filter id="filter28_d" x="115" y="384" width="32" height="43" filterUnits="userSpaceOnUse" color-interpolation-filters="sRGB">
<feFlood flood-opacity="0" result="BackgroundImageFix"/>
<feColorMatrix in="SourceAlpha" type="matrix" values="0 0 0 0 0 0 0 0 0 0 0 0 0 0 0 0 0 0 127 0" result="hardAlpha"/>
<feOffset dy="1"/>
<feColorMatrix type="matrix" values="0 0 0 0 0.537255 0 0 0 0 0.541176 0 0 0 0 0.552941 0 0 0 1 0"/>
<feBlend mode="normal" in2="BackgroundImageFix" result="effect1_dropShadow"/>
<feBlend mode="normal" in="SourceGraphic" in2="effect1_dropShadow" result="shape"/>
</filter>
<filter id="filter29_d" x="78" y="384" width="32" height="43" filterUnits="userSpaceOnUse" color-interpolation-filters="sRGB">
<feFlood flood-opacity="0" result="BackgroundImageFix"/>
<feColorMatrix in="SourceAlpha" type="matrix" values="0 0 0 0 0 0 0 0 0 0 0 0 0 0 0 0 0 0 127 0" result="hardAlpha"/>
<feOffset dy="1"/>
<feColorMatrix type="matrix" values="0 0 0 0 0.537255 0 0 0 0 0.541176 0 0 0 0 0.552941 0 0 0 1 0"/>
<feBlend mode="normal" in2="BackgroundImageFix" result="effect1_dropShadow"/>
<feBlend mode="normal" in="SourceGraphic" in2="effect1_dropShadow" result="shape"/>
</filter>
<filter id="filter30_d" x="40" y="384" width="32" height="43" filterUnits="userSpaceOnUse" color-interpolation-filters="sRGB">
<feFlood flood-opacity="0" result="BackgroundImageFix"/>
<feColorMatrix in="SourceAlpha" type="matrix" values="0 0 0 0 0 0 0 0 0 0 0 0 0 0 0 0 0 0 127 0" result="hardAlpha"/>
<feOffset dy="1"/>
<feColorMatrix type="matrix" values="0 0 0 0 0.537255 0 0 0 0 0.541176 0 0 0 0 0.552941 0 0 0 1 0"/>
<feBlend mode="normal" in2="BackgroundImageFix" result="effect1_dropShadow"/>
<feBlend mode="normal" in="SourceGraphic" in2="effect1_dropShadow" result="shape"/>
</filter>
<filter id="filter31_d" x="3" y="384" width="32" height="43" filterUnits="userSpaceOnUse" color-interpolation-filters="sRGB">
<feFlood flood-opacity="0" result="BackgroundImageFix"/>
<feColorMatrix in="SourceAlpha" type="matrix" values="0 0 0 0 0 0 0 0 0 0 0 0 0 0 0 0 0 0 127 0" result="hardAlpha"/>
<feOffset dy="1"/>
<feColorMatrix type="matrix" values="0 0 0 0 0.537255 0 0 0 0 0.541176 0 0 0 0 0.552941 0 0 0 1 0"/>
<feBlend mode="normal" in2="BackgroundImageFix" result="effect1_dropShadow"/>
<feBlend mode="normal" in="SourceGraphic" in2="effect1_dropShadow" result="shape"/>
</filter>
<filter id="filter32_d" x="-4" y="-1" width="383" height="76" filterUnits="userSpaceOnUse" color-interpolation-filters="sRGB">
<feFlood flood-opacity="0" result="BackgroundImageFix"/>
<feColorMatrix in="SourceAlpha" type="matrix" values="0 0 0 0 0 0 0 0 0 0 0 0 0 0 0 0 0 0 127 0" result="hardAlpha"/>
<feOffset dy="3"/>
<feGaussianBlur stdDeviation="2"/>
<feColorMatrix type="matrix" values="0 0 0 0 0 0 0 0 0 0 0 0 0 0 0 0 0 0 0.12 0"/>
<feBlend mode="normal" in2="BackgroundImageFix" result="effect1_dropShadow"/>
<feBlend mode="normal" in="SourceGraphic" in2="effect1_dropShadow" result="shape"/>
</filter>
<clipPath id="clip0">
<rect width="375" height="667" fill="white"/>
</clipPath>
</defs>
</svg>
