<svg width="375" height="667" viewBox="0 0 375 667" fill="none" xmlns="http://www.w3.org/2000/svg">
<g clip-path="url(#clip0)">
<rect width="375" height="667" fill="white"/>
<path d="M21.4489 128.636H16.6662L23.696 149H29.2443L36.2642 128.636H31.4915L26.5597 144.108H26.3707L21.4489 128.636ZM41.0155 149.288C43.2726 149.288 44.7342 148.304 45.4799 146.882H45.5993V149H49.6163V138.699C49.6163 135.06 46.5339 133.528 43.1334 133.528C39.4743 133.528 37.068 135.278 36.4814 138.062L40.399 138.381C40.6873 137.366 41.5922 136.621 43.1135 136.621C44.5552 136.621 45.3805 137.347 45.3805 138.599V138.659C45.3805 139.643 44.3365 139.773 41.6816 140.031C38.6589 140.31 35.9444 141.324 35.9444 144.734C35.9444 147.757 38.1021 149.288 41.0155 149.288ZM42.2285 146.365C40.926 146.365 39.9913 145.759 39.9913 144.595C39.9913 143.402 40.9757 142.815 42.4672 142.607C43.3919 142.477 44.9032 142.259 45.4103 141.92V143.541C45.4103 145.142 44.0879 146.365 42.2285 146.365ZM59.5231 149.298C63.5899 149.298 66.1453 146.912 66.3441 143.402H62.347C62.0984 145.033 61.0245 145.947 59.5728 145.947C57.5941 145.947 56.3114 144.287 56.3114 141.364C56.3114 138.48 57.6041 136.83 59.5728 136.83C61.1239 136.83 62.1183 137.854 62.347 139.375H66.3441C66.1651 135.845 63.4904 133.528 59.5032 133.528C54.8697 133.528 52.006 136.74 52.006 141.423C52.006 146.067 54.82 149.298 59.5231 149.298ZM75.6767 149.298C79.7435 149.298 82.2988 146.912 82.4977 143.402H78.5006C78.252 145.033 77.1781 145.947 75.7264 145.947C73.7477 145.947 72.465 144.287 72.465 141.364C72.465 138.48 73.7577 136.83 75.7264 136.83C77.2775 136.83 78.2719 137.854 78.5006 139.375H82.4977C82.3187 135.845 79.644 133.528 75.6568 133.528C71.0233 133.528 68.1596 136.74 68.1596 141.423C68.1596 146.067 70.9736 149.298 75.6767 149.298ZM84.9297 149H89.1655V133.727H84.9297V149ZM87.0576 131.759C88.3203 131.759 89.3544 130.794 89.3544 129.611C89.3544 128.438 88.3203 127.473 87.0576 127.473C85.8047 127.473 84.7706 128.438 84.7706 129.611C84.7706 130.794 85.8047 131.759 87.0576 131.759ZM96.5144 140.17C96.5244 138.202 97.6977 137.048 99.4079 137.048C101.108 137.048 102.132 138.162 102.122 140.031V149H106.358V139.276C106.358 135.716 104.27 133.528 101.088 133.528C98.8212 133.528 97.1806 134.642 96.4945 136.422H96.3156V133.727H92.2786V149H96.5144V140.17ZM113.772 149.288C116.029 149.288 117.49 148.304 118.236 146.882H118.356V149H122.373V138.699C122.373 135.06 119.29 133.528 115.89 133.528C112.231 133.528 109.824 135.278 109.238 138.062L113.155 138.381C113.444 137.366 114.348 136.621 115.87 136.621C117.311 136.621 118.137 137.347 118.137 138.599V138.659C118.137 139.643 117.093 139.773 114.438 140.031C111.415 140.31 108.701 141.324 108.701 144.734C108.701 147.757 110.858 149.288 113.772 149.288ZM114.985 146.365C113.682 146.365 112.748 145.759 112.748 144.595C112.748 143.402 113.732 142.815 115.223 142.607C116.148 142.477 117.659 142.259 118.167 141.92V143.541C118.167 145.142 116.844 146.365 114.985 146.365ZM133.502 133.727H130.629V130.068H126.393V133.727H124.305V136.909H126.393V144.864C126.373 147.857 128.411 149.338 131.484 149.209C132.578 149.169 133.353 148.95 133.781 148.811L133.115 145.659C132.906 145.699 132.458 145.798 132.061 145.798C131.215 145.798 130.629 145.48 130.629 144.307V136.909H133.502V133.727ZM135.982 149H140.217V133.727H135.982V149ZM138.109 131.759C139.372 131.759 140.406 130.794 140.406 129.611C140.406 128.438 139.372 127.473 138.109 127.473C136.857 127.473 135.823 128.438 135.823 129.611C135.823 130.794 136.857 131.759 138.109 131.759ZM150.231 149.298C154.865 149.298 157.748 146.126 157.748 141.423C157.748 136.69 154.865 133.528 150.231 133.528C145.598 133.528 142.714 136.69 142.714 141.423C142.714 146.126 145.598 149.298 150.231 149.298ZM150.251 146.017C148.113 146.017 147.019 144.058 147.019 141.393C147.019 138.729 148.113 136.76 150.251 136.76C152.349 136.76 153.443 138.729 153.443 141.393C153.443 144.058 152.349 146.017 150.251 146.017ZM164.458 140.17C164.468 138.202 165.641 137.048 167.352 137.048C169.052 137.048 170.076 138.162 170.066 140.031V149H174.302V139.276C174.302 135.716 172.214 133.528 169.032 133.528C166.765 133.528 165.124 134.642 164.438 136.422H164.259V133.727H160.222V149H164.458V140.17ZM196.268 138.082C195.89 135.268 193.623 133.528 189.765 133.528C185.858 133.528 183.282 135.338 183.292 138.281C183.282 140.568 184.724 142.05 187.707 142.646L190.352 143.173C191.684 143.442 192.291 143.929 192.311 144.695C192.291 145.599 191.307 146.246 189.825 146.246C188.314 146.246 187.309 145.599 187.051 144.357L182.885 144.575C183.282 147.499 185.768 149.298 189.815 149.298C193.772 149.298 196.606 147.28 196.616 144.267C196.606 142.06 195.165 140.737 192.201 140.131L189.437 139.574C188.015 139.266 187.488 138.778 187.498 138.043C187.488 137.128 188.522 136.531 189.835 136.531C191.307 136.531 192.182 137.337 192.39 138.321L196.268 138.082ZM207.127 133.727H204.253V130.068H200.018V133.727H197.93V136.909H200.018V144.864C199.998 147.857 202.036 149.338 205.109 149.209C206.202 149.169 206.978 148.95 207.405 148.811L206.739 145.659C206.53 145.699 206.083 145.798 205.685 145.798C204.84 145.798 204.253 145.48 204.253 144.307V136.909H207.127V133.727ZM213.961 149.288C216.218 149.288 217.68 148.304 218.426 146.882H218.545V149H222.562V138.699C222.562 135.06 219.48 133.528 216.079 133.528C212.42 133.528 210.014 135.278 209.427 138.062L213.345 138.381C213.633 137.366 214.538 136.621 216.059 136.621C217.501 136.621 218.326 137.347 218.326 138.599V138.659C218.326 139.643 217.282 139.773 214.628 140.031C211.605 140.31 208.89 141.324 208.89 144.734C208.89 147.757 211.048 149.288 213.961 149.288ZM215.174 146.365C213.872 146.365 212.937 145.759 212.937 144.595C212.937 143.402 213.922 142.815 215.413 142.607C216.338 142.477 217.849 142.259 218.356 141.92V143.541C218.356 145.142 217.034 146.365 215.174 146.365ZM233.692 133.727H230.818V130.068H226.583V133.727H224.495V136.909H226.583V144.864C226.563 147.857 228.601 149.338 231.674 149.209C232.767 149.169 233.543 148.95 233.97 148.811L233.304 145.659C233.095 145.699 232.648 145.798 232.25 145.798C231.405 145.798 230.818 145.48 230.818 144.307V136.909H233.692V133.727ZM245.965 142.497C245.975 144.545 244.573 145.619 243.052 145.619C241.451 145.619 240.417 144.496 240.407 142.696V133.727H236.171V143.452C236.181 147.021 238.269 149.199 241.342 149.199C243.639 149.199 245.289 148.016 245.975 146.226H246.134V149H250.201V133.727H245.965V142.497ZM266.017 138.082C265.639 135.268 263.372 133.528 259.514 133.528C255.606 133.528 253.031 135.338 253.041 138.281C253.031 140.568 254.473 142.05 257.456 142.646L260.1 143.173C261.433 143.442 262.039 143.929 262.059 144.695C262.039 145.599 261.055 146.246 259.573 146.246C258.062 146.246 257.058 145.599 256.799 144.357L252.633 144.575C253.031 147.499 255.517 149.298 259.564 149.298C263.521 149.298 266.355 147.28 266.365 144.267C266.355 142.06 264.913 140.737 261.95 140.131L259.186 139.574C257.764 139.266 257.237 138.778 257.247 138.043C257.237 137.128 258.271 136.531 259.583 136.531C261.055 136.531 261.93 137.337 262.139 138.321L266.017 138.082ZM272.391 142.895H276.16V142.557C276.179 140.618 276.875 139.713 278.447 138.768C280.306 137.665 281.519 136.203 281.519 133.866C281.519 130.386 278.715 128.358 274.768 128.358C271.158 128.358 268.215 130.247 268.125 134.224H272.182C272.242 132.604 273.445 131.739 274.748 131.739C276.09 131.739 277.174 132.634 277.174 134.016C277.174 135.318 276.229 136.183 275.006 136.959C273.336 138.013 272.401 139.077 272.391 142.557V142.895ZM274.35 149.259C275.623 149.259 276.726 148.195 276.736 146.872C276.726 145.57 275.623 144.506 274.35 144.506C273.037 144.506 271.954 145.57 271.964 146.872C271.954 148.195 273.037 149.259 274.35 149.259Z" fill="#444444"/>
<path d="M60.6626 215.909H58.2912V229H60.6626V215.909ZM65.0907 215.909H63.2498V217.226C63.2498 218.268 62.8407 219.067 62.3741 219.77L63.448 220.467C64.3876 219.687 65.0907 218.344 65.0907 217.213V215.909ZM66.5913 229H68.9052V223.03C68.9052 221.822 69.7106 221.004 70.7077 221.004C71.6857 221.004 72.3569 221.662 72.3569 222.672V229H74.6261V222.876C74.6261 221.771 75.2844 221.004 76.4031 221.004C77.3363 221.004 78.0778 221.553 78.0778 222.768V229H80.3981V222.41C80.3981 220.217 79.1325 219.054 77.3299 219.054C75.9045 219.054 74.8178 219.757 74.3832 220.85H74.2809C73.9038 219.738 72.9513 219.054 71.6282 219.054C70.3114 219.054 69.3271 219.732 68.918 220.85H68.8029V219.182H66.5913V229ZM92.1834 219.182H90.1444V218.408C90.1444 217.641 90.464 217.213 91.3269 217.213C91.6912 217.213 91.998 217.296 92.1898 217.354L92.6564 215.564C92.356 215.462 91.6976 215.295 90.8986 215.295C89.1919 215.295 87.8304 216.273 87.8304 218.255V219.182H86.3794V220.972H87.8304V229H90.1444V220.972H92.1834V219.182ZM100.253 224.871C100.253 226.366 99.1859 227.108 98.1632 227.108C97.051 227.108 96.3095 226.322 96.3095 225.075V219.182H93.9956V225.433C93.9956 227.792 95.3379 229.128 97.2683 229.128C98.7385 229.128 99.774 228.354 100.221 227.255H100.324V229H102.567V219.182H100.253V224.871ZM107.261 215.909H104.947V229H107.261V215.909ZM111.954 215.909H109.64V229H111.954V215.909ZM115.772 232.682C117.574 232.682 118.616 231.755 119.172 230.189L123.116 219.195L120.642 219.182L118.373 226.597H118.271L116.008 219.182H113.554L117.114 229.205L116.916 229.735C116.488 230.854 115.81 230.93 114.8 230.636L114.263 232.439C114.576 232.567 115.139 232.682 115.772 232.682ZM137.957 219.182H135.496L133.233 226.475H133.131L130.874 219.182H128.407L131.904 229H134.46L137.957 219.182ZM142.102 229.198C143.643 229.198 144.563 228.476 144.985 227.651H145.062V229H147.286V222.429C147.286 219.834 145.17 219.054 143.297 219.054C141.233 219.054 139.648 219.974 139.136 221.764L141.297 222.071C141.527 221.4 142.179 220.825 143.31 220.825C144.384 220.825 144.972 221.374 144.972 222.339V222.378C144.972 223.043 144.275 223.075 142.543 223.26C140.638 223.464 138.817 224.033 138.817 226.245C138.817 228.175 140.229 229.198 142.102 229.198ZM142.703 227.498C141.738 227.498 141.047 227.057 141.047 226.207C141.047 225.318 141.821 224.947 142.856 224.8C143.464 224.717 144.678 224.564 144.979 224.321V225.478C144.979 226.571 144.096 227.498 142.703 227.498ZM153.895 229.192C156.363 229.192 157.935 227.728 158.101 225.644H155.89C155.692 226.699 154.931 227.306 153.915 227.306C152.47 227.306 151.537 226.098 151.537 224.091C151.537 222.109 152.489 220.92 153.915 220.92C155.027 220.92 155.711 221.636 155.89 222.582H158.101C157.942 220.454 156.28 219.054 153.883 219.054C151.006 219.054 149.191 221.131 149.191 224.129C149.191 227.102 150.961 229.192 153.895 229.192ZM164.284 229.192C166.751 229.192 168.324 227.728 168.49 225.644H166.278C166.08 226.699 165.32 227.306 164.303 227.306C162.859 227.306 161.925 226.098 161.925 224.091C161.925 222.109 162.878 220.92 164.303 220.92C165.415 220.92 166.099 221.636 166.278 222.582H168.49C168.33 220.454 166.668 219.054 164.271 219.054C161.395 219.054 159.58 221.131 159.58 224.129C159.58 227.102 161.35 229.192 164.284 229.192ZM170.39 229H172.704V219.182H170.39V229ZM171.553 217.788C172.289 217.788 172.889 217.226 172.889 216.536C172.889 215.839 172.289 215.276 171.553 215.276C170.812 215.276 170.211 215.839 170.211 216.536C170.211 217.226 170.812 217.788 171.553 217.788ZM177.397 223.247C177.397 221.828 178.254 221.01 179.475 221.01C180.67 221.01 181.386 221.796 181.386 223.107V229H183.7V222.749C183.706 220.396 182.364 219.054 180.338 219.054C178.868 219.054 177.858 219.757 177.41 220.85H177.295V219.182H175.083V229H177.397V223.247ZM188.877 229.198C190.418 229.198 191.338 228.476 191.76 227.651H191.837V229H194.061V222.429C194.061 219.834 191.946 219.054 190.073 219.054C188.008 219.054 186.423 219.974 185.912 221.764L188.072 222.071C188.302 221.4 188.954 220.825 190.086 220.825C191.159 220.825 191.748 221.374 191.748 222.339V222.378C191.748 223.043 191.051 223.075 189.319 223.26C187.414 223.464 185.592 224.033 185.592 226.245C185.592 228.175 187.005 229.198 188.877 229.198ZM189.478 227.498C188.513 227.498 187.823 227.057 187.823 226.207C187.823 225.318 188.596 224.947 189.632 224.8C190.239 224.717 191.453 224.564 191.754 224.321V225.478C191.754 226.571 190.872 227.498 189.478 227.498ZM201.291 219.182H199.354V216.83H197.04V219.182H195.647V220.972H197.04V226.43C197.027 228.278 198.37 229.185 200.108 229.134C200.767 229.115 201.221 228.987 201.47 228.904L201.08 227.095C200.952 227.127 200.69 227.185 200.402 227.185C199.821 227.185 199.354 226.98 199.354 226.047V220.972H201.291V219.182ZM207.467 229.192C209.756 229.192 211.328 228.073 211.737 226.366L209.577 226.124C209.263 226.955 208.496 227.389 207.499 227.389C206.003 227.389 205.013 226.405 204.993 224.724H211.833V224.014C211.833 220.569 209.762 219.054 207.346 219.054C204.533 219.054 202.699 221.119 202.699 224.148C202.699 227.229 204.508 229.192 207.467 229.192ZM205 223.164C205.07 221.911 205.997 220.857 207.378 220.857C208.707 220.857 209.602 221.828 209.615 223.164H205ZM217.434 229.173C219.121 229.173 219.882 228.169 220.246 227.453H220.387V229H222.663V215.909H220.342V220.805H220.246C219.895 220.096 219.173 219.054 217.44 219.054C215.171 219.054 213.388 220.831 213.388 224.104C213.388 227.338 215.12 229.173 217.434 229.173ZM218.08 227.274C216.552 227.274 215.746 225.932 215.746 224.091C215.746 222.263 216.539 220.952 218.08 220.952C219.569 220.952 220.387 222.186 220.387 224.091C220.387 225.996 219.556 227.274 218.08 227.274ZM227.96 215.909H225.486L225.691 225.152H227.749L227.96 215.909ZM226.72 229.141C227.474 229.141 228.12 228.514 228.126 227.734C228.12 226.967 227.474 226.341 226.72 226.341C225.94 226.341 225.307 226.967 225.314 227.734C225.307 228.514 225.94 229.141 226.72 229.141Z" fill="#BBBBBB"/>
<path fill-rule="evenodd" clip-rule="evenodd" d="M324.168 206.095C325.942 205.992 327.714 206 329.488 206C329.5 206 338.478 206 338.478 206C340.287 206 342.059 205.992 343.832 206.095C345.444 206.188 347.014 206.386 348.577 206.829C351.868 207.76 354.741 209.705 356.818 212.462C358.883 215.202 360 218.555 360 221.999C360 225.447 358.883 228.798 356.818 231.538C354.741 234.294 351.868 236.24 348.577 237.171C347.014 237.614 345.444 237.811 343.832 237.905C342.059 238.008 340.287 237.999 338.513 237.999C338.501 237.999 329.521 238 329.521 238C327.714 237.999 325.942 238.008 324.168 237.905C322.557 237.811 320.987 237.614 319.424 237.171C316.133 236.24 313.26 234.294 311.183 231.538C309.119 228.798 308 225.447 308 222C308 218.555 309.119 215.202 311.183 212.462C313.26 209.705 316.133 207.76 319.424 206.829C320.987 206.386 322.557 206.188 324.168 206.095Z" fill="#DDDDDD"/>
<g filter="url(#filter0_dd)">
<path fill-rule="evenodd" clip-rule="evenodd" d="M324 236C331.732 236 338 229.732 338 222C338 214.268 331.732 208 324 208C316.268 208 310 214.268 310 222C310 229.732 316.268 236 324 236Z" fill="white"/>
</g>
<path d="M42.7857 212.167L31.1348 206.784C30.7872 206.624 30.3871 206.621 30.0376 206.778L18.7194 211.836C16.7413 212.83 16.4971 213.825 16.7413 217.14C17.394 226.001 21.9236 235.511 30.33 237.31C30.4989 237.346 30.6772 237.345 30.8459 237.307C40.5412 235.159 44.1073 223.055 44.4341 217.14C44.5634 214.799 44.7638 213.162 42.7857 212.167Z" fill="#BBBBBB"/>
<path fill-rule="evenodd" clip-rule="evenodd" d="M29.767 206.173C30.2913 205.939 30.8914 205.943 31.4128 206.183L43.0637 211.566C43.0704 211.569 43.077 211.573 43.0835 211.576C44.2492 212.162 44.8236 212.984 45.0478 214.008C45.2318 214.848 45.1746 215.827 45.1162 216.827C45.1093 216.943 45.1025 217.06 45.096 217.177C44.928 220.22 43.933 224.82 41.7386 228.948C39.5437 233.077 36.0969 236.824 30.9892 237.956L30.8458 237.308L30.9892 237.956C30.7282 238.014 30.4536 238.015 30.1912 237.959C25.7625 237.011 22.3929 234.038 20.062 230.219C17.7332 226.404 16.4127 221.706 16.08 217.19C15.9593 215.551 15.9407 214.336 16.2716 213.398C16.6304 212.381 17.3588 211.779 18.4215 211.244C18.4305 211.24 18.4396 211.235 18.4488 211.231L29.767 206.173ZM30.8566 207.387C30.6828 207.307 30.4828 207.306 30.308 207.384L19.0039 212.436C18.098 212.893 17.718 213.284 17.5221 213.839C17.2975 214.476 17.279 215.416 17.4024 217.092C17.7225 221.436 18.9931 225.923 21.1938 229.528C23.3926 233.13 26.4909 235.811 30.4687 236.662C30.544 236.678 30.6261 236.678 30.7023 236.661C35.29 235.644 38.4739 232.265 40.5677 228.326C42.6619 224.386 43.6133 219.977 43.772 217.104C43.7781 216.994 43.7843 216.886 43.7902 216.781C43.8502 215.726 43.8948 214.942 43.7524 214.292C43.6152 213.665 43.3026 213.173 42.4972 212.765L30.8566 207.387Z" fill="#BBBBBB"/>
<path d="M28.0083 223.277L26.1502 221.415C25.5187 220.782 24.4989 220.765 23.8459 221.376C23.1755 222.003 23.1428 223.055 23.7728 223.723L27.0365 227.18C27.6748 227.856 28.7442 227.875 29.4061 227.222L37.2509 219.482C37.9564 218.786 37.9424 217.643 37.22 216.964C36.5366 216.322 35.4684 216.334 34.7992 216.991L28.3933 223.279C28.2861 223.384 28.1143 223.383 28.0083 223.277Z" fill="white"/>
<path fill-rule="evenodd" clip-rule="evenodd" d="M37.1065 217.085C36.4879 216.504 35.521 216.514 34.9153 217.109L28.5093 223.397C28.3373 223.566 28.0612 223.565 27.8909 223.394L26.0328 221.532C25.4645 220.962 24.5467 220.947 23.9591 221.496C23.3558 222.061 23.3263 223.008 23.8933 223.609L27.157 227.066C27.7314 227.675 28.6939 227.692 29.2896 227.104L37.1344 219.363C37.773 218.733 37.7603 217.699 37.1065 217.085ZM34.6831 216.872C35.4157 216.153 36.5853 216.14 37.3335 216.843C38.1243 217.586 38.1397 218.837 37.3672 219.599L29.5224 227.34C28.7944 228.058 27.618 228.037 26.9159 227.294L23.6523 223.836C22.9591 223.102 22.9952 221.944 23.7326 221.254C24.451 220.582 25.5728 220.602 26.2675 221.298L28.1256 223.16C28.1673 223.202 28.2349 223.202 28.2771 223.161L34.6831 216.872Z" fill="white"/>
<rect x="375" y="68" width="375" height="68" transform="rotate(-180 375 68)" fill="white"/>
<path d="M155.636 29.3438H158.678C158.619 26.3949 156.104 24.3068 152.389 24.3068C148.724 24.3068 145.971 26.3693 145.979 29.4545C145.979 31.9602 147.761 33.4006 150.633 34.142L152.619 34.6534C154.502 35.1307 155.746 35.7188 155.755 37.0739C155.746 38.5653 154.332 39.5625 152.269 39.5625C150.292 39.5625 148.758 38.6761 148.63 36.8438H145.519C145.647 40.3125 148.229 42.2642 152.295 42.2642C156.479 42.2642 158.908 40.1761 158.917 37.0994C158.908 34.0739 156.411 32.6932 153.786 32.071L152.15 31.6619C150.718 31.321 149.167 30.7159 149.184 29.2585C149.192 27.946 150.369 26.983 152.346 26.983C154.229 26.983 155.474 27.8608 155.636 29.3438ZM161.119 42H164.205V28.9091H161.119V42ZM162.671 27.0511C163.651 27.0511 164.452 26.3011 164.452 25.3807C164.452 24.4517 163.651 23.7017 162.671 23.7017C161.682 23.7017 160.881 24.4517 160.881 25.3807C160.881 26.3011 161.682 27.0511 162.671 27.0511ZM172.59 47.1818C176.127 47.1818 178.735 45.5625 178.735 42.2131V28.9091H175.693V31.0739H175.522C175.054 30.1278 174.073 28.7386 171.764 28.7386C168.738 28.7386 166.36 31.108 166.36 35.4119C166.36 39.6818 168.738 41.8125 171.755 41.8125C173.997 41.8125 175.045 40.6108 175.522 39.6477H175.676V42.1278C175.676 44.054 174.397 44.8466 172.642 44.8466C170.784 44.8466 169.965 43.9688 169.59 43.2017L166.812 43.875C167.375 45.7074 169.258 47.1818 172.59 47.1818ZM172.616 39.392C170.579 39.392 169.505 37.8068 169.505 35.3949C169.505 33.017 170.562 31.2699 172.616 31.2699C174.602 31.2699 175.693 32.9148 175.693 35.3949C175.693 37.892 174.585 39.392 172.616 39.392ZM184.502 34.3295C184.502 32.4375 185.645 31.3466 187.272 31.3466C188.866 31.3466 189.821 32.3949 189.821 34.142V42H192.906V33.6648C192.914 30.5284 191.125 28.7386 188.423 28.7386C186.463 28.7386 185.116 29.6761 184.52 31.1335H184.366V28.9091H181.417V42H184.502V34.3295ZM212.175 24.5455V35.6847C212.175 37.875 210.649 39.4432 208.254 39.4432C205.851 39.4432 204.334 37.875 204.334 35.6847V24.5455H201.172V35.9489C201.172 39.6989 203.984 42.2642 208.254 42.2642C212.507 42.2642 215.337 39.6989 215.337 35.9489V24.5455H212.175ZM218.157 46.9091H221.242V39.9375H221.37C221.856 40.892 222.87 42.2301 225.12 42.2301C228.205 42.2301 230.515 39.7841 230.515 35.4716C230.515 31.108 228.137 28.7386 225.111 28.7386C222.802 28.7386 221.839 30.1278 221.37 31.0739H221.191V28.9091H218.157V46.9091ZM221.183 35.4545C221.183 32.9148 222.273 31.2699 224.259 31.2699C226.313 31.2699 227.37 33.017 227.37 35.4545C227.37 37.9091 226.296 39.6989 224.259 39.6989C222.29 39.6989 221.183 37.9943 221.183 35.4545Z" fill="#444444"/>
<line x1="341" y1="41.8787" x2="355.849" y2="27.0294" stroke="#BBBBBB" stroke-width="3" stroke-linecap="round"/>
<line x1="341.121" y1="27" x2="355.971" y2="41.8492" stroke="#BBBBBB" stroke-width="3" stroke-linecap="round"/>
<rect y="68" width="375" height="4" fill="#DDDDDD"/>
<rect y="68" width="281.25" height="4" fill="#444444"/>
<rect y="599" width="375" height="68" fill="white"/>
<path d="M375 599H3.05176e-05" stroke="#DDDDDD"/>
<g filter="url(#filter1_d)">
<path d="M233 614C233 610.686 235.686 608 239 608H353C356.314 608 359 610.686 359 614V652C359 655.314 356.314 658 353 658H239C235.686 658 233 655.314 233 652V614Z" fill="#BBBBBB"/>
<path d="M271.943 631.148C271.545 628.659 269.597 627.205 267.136 627.205C264.125 627.205 261.903 629.46 261.903 633.182C261.903 636.903 264.114 639.159 267.136 639.159C269.693 639.159 271.562 637.557 271.943 635.256L270.17 635.25C269.869 636.739 268.619 637.557 267.148 637.557C265.153 637.557 263.648 636.028 263.648 633.182C263.648 630.358 265.148 628.807 267.153 628.807C268.636 628.807 269.881 629.642 270.17 631.148H271.943ZM277.584 639.176C280.044 639.176 281.652 637.375 281.652 634.676C281.652 631.96 280.044 630.159 277.584 630.159C275.124 630.159 273.516 631.96 273.516 634.676C273.516 637.375 275.124 639.176 277.584 639.176ZM277.589 637.75C275.982 637.75 275.232 636.347 275.232 634.67C275.232 633 275.982 631.58 277.589 631.58C279.186 631.58 279.936 633 279.936 634.67C279.936 636.347 279.186 637.75 277.589 637.75ZM285.247 633.818C285.247 632.426 286.099 631.631 287.281 631.631C288.435 631.631 289.134 632.386 289.134 633.653V639H290.832V633.449C290.832 631.29 289.645 630.159 287.861 630.159C286.548 630.159 285.69 630.767 285.287 631.693H285.179V630.273H283.548V639H285.247V633.818ZM297.185 630.273H295.395V628.182H293.696V630.273H292.418V631.636H293.696V636.79C293.69 638.375 294.901 639.142 296.241 639.114C296.781 639.108 297.145 639.006 297.344 638.932L297.037 637.528C296.923 637.551 296.713 637.602 296.44 637.602C295.889 637.602 295.395 637.42 295.395 636.438V631.636H297.185V630.273ZM299.064 639H300.763V630.273H299.064V639ZM299.922 628.926C300.507 628.926 300.996 628.472 300.996 627.915C300.996 627.358 300.507 626.898 299.922 626.898C299.331 626.898 298.848 627.358 298.848 627.915C298.848 628.472 299.331 628.926 299.922 628.926ZM304.747 633.818C304.747 632.426 305.599 631.631 306.781 631.631C307.935 631.631 308.634 632.386 308.634 633.653V639H310.332V633.449C310.332 631.29 309.145 630.159 307.361 630.159C306.048 630.159 305.19 630.767 304.787 631.693H304.679V630.273H303.048V639H304.747V633.818ZM318.139 635.381C318.145 636.864 317.043 637.568 316.088 637.568C315.037 637.568 314.31 636.807 314.31 635.619V630.273H312.611V635.824C312.611 637.989 313.798 639.114 315.474 639.114C316.787 639.114 317.679 638.42 318.082 637.489H318.173V639H319.844V630.273H318.139V635.381ZM325.888 639.176C327.791 639.176 329.138 638.239 329.524 636.818L327.916 636.528C327.609 637.352 326.871 637.773 325.905 637.773C324.45 637.773 323.473 636.83 323.428 635.148H329.632V634.545C329.632 631.392 327.746 630.159 325.768 630.159C323.337 630.159 321.734 632.011 321.734 634.693C321.734 637.403 323.314 639.176 325.888 639.176ZM323.433 633.875C323.501 632.636 324.399 631.562 325.78 631.562C327.098 631.562 327.962 632.54 327.967 633.875H323.433Z" fill="white"/>
</g>
<path d="M23.625 630.42H25.3182C25.267 628.557 23.6193 627.205 21.2557 627.205C18.9205 627.205 17.1307 628.54 17.1307 630.545C17.1307 632.165 18.2898 633.114 20.1591 633.619L21.5341 633.994C22.7784 634.324 23.7386 634.733 23.7386 635.767C23.7386 636.903 22.6534 637.653 21.1591 637.653C19.8068 637.653 18.6818 637.051 18.5795 635.784H16.8182C16.9318 637.892 18.5625 639.193 21.1705 639.193C23.9034 639.193 25.4773 637.756 25.4773 635.784C25.4773 633.688 23.608 632.875 22.1307 632.511L20.9943 632.216C20.0852 631.983 18.875 631.557 18.8807 630.443C18.8807 629.455 19.7841 628.722 21.2159 628.722C22.5511 628.722 23.5 629.347 23.625 630.42ZM27.4389 639H29.1378V635.903L29.9844 635.057L32.9503 639H35.0355L31.2628 634.017L34.7969 630.273H32.7628L29.2855 633.966H29.1378V627.364H27.4389V639ZM36.3452 639H38.044V630.273H36.3452V639ZM37.2031 628.926C37.7884 628.926 38.277 628.472 38.277 627.915C38.277 627.358 37.7884 626.898 37.2031 626.898C36.6122 626.898 36.1293 627.358 36.1293 627.915C36.1293 628.472 36.6122 628.926 37.2031 628.926ZM40.3295 642.273H42.0284V637.642H42.1307C42.4375 638.199 43.0625 639.17 44.6534 639.17C46.767 639.17 48.3011 637.477 48.3011 634.653C48.3011 631.824 46.7443 630.159 44.6364 630.159C43.017 630.159 42.4318 631.148 42.1307 631.688H41.9886V630.273H40.3295V642.273ZM41.9943 634.636C41.9943 632.812 42.7898 631.602 44.2727 631.602C45.8125 631.602 46.5852 632.903 46.5852 634.636C46.5852 636.386 45.7898 637.722 44.2727 637.722C42.8125 637.722 41.9943 636.472 41.9943 634.636ZM58.5923 630.273H56.7116V629.489C56.7116 628.716 57.0298 628.295 57.8594 628.295C58.2116 628.295 58.4616 628.375 58.6207 628.426L59.0185 627.051C58.7798 626.96 58.2855 626.818 57.598 626.818C56.2173 626.818 55.0071 627.625 55.0071 629.261V630.273H53.6605V631.636H55.0071V639H56.7116V631.636H58.5923V630.273ZM63.6776 639.176C66.1378 639.176 67.7457 637.375 67.7457 634.676C67.7457 631.96 66.1378 630.159 63.6776 630.159C61.2173 630.159 59.6094 631.96 59.6094 634.676C59.6094 637.375 61.2173 639.176 63.6776 639.176ZM63.6832 637.75C62.0753 637.75 61.3253 636.347 61.3253 634.67C61.3253 633 62.0753 631.58 63.6832 631.58C65.2798 631.58 66.0298 633 66.0298 634.67C66.0298 636.347 65.2798 637.75 63.6832 637.75ZM69.642 639H71.3409V633.67C71.3409 632.528 72.2216 631.705 73.4261 631.705C73.7784 631.705 74.1761 631.767 74.3125 631.807V630.182C74.142 630.159 73.8068 630.142 73.5909 630.142C72.5682 630.142 71.6932 630.722 71.375 631.659H71.2841V630.273H69.642V639ZM81.7159 633.818C81.7159 632.426 82.5682 631.631 83.75 631.631C84.9034 631.631 85.6023 632.386 85.6023 633.653V639H87.3011V633.449C87.3011 631.29 86.1136 630.159 84.3295 630.159C83.017 630.159 82.1591 630.767 81.7557 631.693H81.6477V630.273H80.017V639H81.7159V633.818ZM93.2557 639.176C95.7159 639.176 97.3239 637.375 97.3239 634.676C97.3239 631.96 95.7159 630.159 93.2557 630.159C90.7955 630.159 89.1875 631.96 89.1875 634.676C89.1875 637.375 90.7955 639.176 93.2557 639.176ZM93.2614 637.75C91.6534 637.75 90.9034 636.347 90.9034 634.67C90.9034 633 91.6534 631.58 93.2614 631.58C94.858 631.58 95.608 633 95.608 634.67C95.608 636.347 94.858 637.75 93.2614 637.75ZM100.847 639H102.574L104.347 632.699H104.477L106.25 639H107.983L110.545 630.273H108.79L107.091 636.653H107.006L105.301 630.273H103.545L101.83 636.682H101.744L100.034 630.273H98.2784L100.847 639Z" fill="#444444"/>
<path d="M16 642.199H111.011V643.438H16V642.199Z" fill="#444444"/>
</g>
<defs>
<filter id="filter0_dd" x="302" y="203" width="44" height="44" filterUnits="userSpaceOnUse" color-interpolation-filters="sRGB">
<feFlood flood-opacity="0" result="BackgroundImageFix"/>
<feColorMatrix in="SourceAlpha" type="matrix" values="0 0 0 0 0 0 0 0 0 0 0 0 0 0 0 0 0 0 127 0" result="hardAlpha"/>
<feOffset dy="3"/>
<feGaussianBlur stdDeviation="0.5"/>
<feColorMatrix type="matrix" values="0 0 0 0 0 0 0 0 0 0 0 0 0 0 0 0 0 0 0.06 0"/>
<feBlend mode="normal" in2="BackgroundImageFix" result="effect1_dropShadow"/>
<feColorMatrix in="SourceAlpha" type="matrix" values="0 0 0 0 0 0 0 0 0 0 0 0 0 0 0 0 0 0 127 0" result="hardAlpha"/>
<feOffset dy="3"/>
<feGaussianBlur stdDeviation="4"/>
<feColorMatrix type="matrix" values="0 0 0 0 0 0 0 0 0 0 0 0 0 0 0 0 0 0 0.15 0"/>
<feBlend mode="normal" in2="effect1_dropShadow" result="effect2_dropShadow"/>
<feBlend mode="normal" in="SourceGraphic" in2="effect2_dropShadow" result="shape"/>
</filter>
<filter id="filter1_d" x="229" y="607" width="134" height="58" filterUnits="userSpaceOnUse" color-interpolation-filters="sRGB">
<feFlood flood-opacity="0" result="BackgroundImageFix"/>
<feColorMatrix in="SourceAlpha" type="matrix" values="0 0 0 0 0 0 0 0 0 0 0 0 0 0 0 0 0 0 127 0" result="hardAlpha"/>
<feOffset dy="3"/>
<feGaussianBlur stdDeviation="2"/>
<feColorMatrix type="matrix" values="0 0 0 0 0 0 0 0 0 0 0 0 0 0 0 0 0 0 0.16 0"/>
<feBlend mode="normal" in2="BackgroundImageFix" result="effect1_dropShadow"/>
<feBlend mode="normal" in="SourceGraphic" in2="effect1_dropShadow" result="shape"/>
</filter>
<clipPath id="clip0">
<rect width="375" height="667" fill="white"/>
</clipPath>
</defs>
</svg>
