<svg width="375" height="669" viewBox="0 0 375 669" fill="none" xmlns="http://www.w3.org/2000/svg">
<g clip-path="url(#clip0)">
<rect width="375" height="669" fill="white"/>
<rect x="16.5" y="100.5" width="175" height="41" rx="20.5" fill="#EEEEEE"/>
<path d="M41.5682 127H42.7045L45.4034 117.131H45.4773L48.1761 127H49.3125L52.5 115.364H51.4148L48.7784 125.369H48.6875L46.0511 115.364H44.8239L42.1875 125.369H42.0966L39.4602 115.364H38.3807L41.5682 127ZM56.7898 127.182C59.0511 127.182 60.6307 125.335 60.6307 122.676C60.6307 120 59.0511 118.153 56.7898 118.153C54.5284 118.153 52.9489 120 52.9489 122.676C52.9489 125.335 54.5284 127.182 56.7898 127.182ZM56.7898 126.256C54.9773 126.256 53.9659 124.631 53.9659 122.676C53.9659 120.722 54.9773 119.074 56.7898 119.074C58.6023 119.074 59.6136 120.722 59.6136 122.676C59.6136 124.631 58.6023 126.256 56.7898 126.256ZM62.8509 127H63.8622V121.364C63.8622 120.068 64.8565 119.131 66.2202 119.131C66.4872 119.131 66.7372 119.176 66.8281 119.188V118.159C66.6918 118.153 66.4588 118.142 66.294 118.142C65.1974 118.142 64.2599 118.733 63.9077 119.614H63.8338V118.273H62.8509V127ZM68.554 127H69.5653V123.619L70.571 122.676L73.9915 127H75.2869L71.3267 122.011L75.0597 118.273H73.7812L69.6903 122.381H69.5653V115.364H68.554V127ZM82.8239 120.188C82.3977 118.926 81.4659 118.153 79.8693 118.153C78.108 118.153 76.8295 119.159 76.8295 120.597C76.8295 121.767 77.5398 122.562 79.0568 122.926L80.483 123.267C81.4432 123.494 81.9034 123.989 81.9034 124.688C81.9034 125.597 81.0341 126.273 79.6932 126.273C78.5 126.273 77.7557 125.733 77.5114 124.699L76.5398 124.938C76.8466 126.392 78 127.182 79.7102 127.182C81.6307 127.182 82.9489 126.125 82.9489 124.642C82.9489 123.477 82.2159 122.699 80.7557 122.341L79.4375 122.017C78.3523 121.744 77.8466 121.307 77.8466 120.551C77.8466 119.665 78.6932 119.045 79.8693 119.045C81.0455 119.045 81.625 119.665 81.8977 120.449L82.8239 120.188ZM85.1463 130.273H86.1634V125.381H86.2543C86.6009 126.182 87.3509 127.182 88.9361 127.182C91.0724 127.182 92.527 125.364 92.527 122.659C92.527 119.966 91.0781 118.153 88.919 118.153C87.3168 118.153 86.6065 119.153 86.2543 119.938H86.1293V118.273H85.1463V130.273ZM86.1463 122.642C86.1463 120.551 87.1065 119.074 88.8111 119.074C90.5668 119.074 91.5099 120.631 91.5099 122.642C91.5099 124.676 90.5497 126.256 88.8111 126.256C87.1236 126.256 86.1463 124.75 86.1463 122.642ZM97.179 127.199C98.6335 127.199 99.5199 126.392 99.8835 125.619H99.946V127H100.957V121.074C100.957 118.733 99.196 118.153 97.8608 118.153C96.5256 118.153 95.1506 118.682 94.5597 120.108L95.5199 120.455C95.8381 119.705 96.6278 119.062 97.8892 119.062C99.2131 119.062 99.946 119.79 99.946 120.983V121.188C99.946 121.847 99.1278 121.858 97.6619 122.04C95.6903 122.284 94.3097 122.835 94.3097 124.562C94.3097 126.244 95.5938 127.199 97.179 127.199ZM97.3153 126.273C96.1733 126.273 95.321 125.665 95.321 124.608C95.321 123.551 96.1847 123.108 97.6619 122.926C98.3778 122.841 99.6506 122.682 99.946 122.392V123.653C99.946 125.085 98.929 126.273 97.3153 126.273ZM107.057 127.182C108.875 127.182 110.153 126.034 110.386 124.455H109.364C109.131 125.568 108.216 126.256 107.057 126.256C105.347 126.256 104.216 124.767 104.216 122.642C104.216 120.528 105.381 119.074 107.057 119.074C108.301 119.074 109.142 119.875 109.358 120.864H110.381C110.142 119.244 108.79 118.153 107.04 118.153C104.756 118.153 103.199 120.051 103.199 122.676C103.199 125.278 104.71 127.182 107.057 127.182ZM116.082 127.182C117.832 127.182 119.009 126.233 119.406 125.136L118.446 124.824C118.111 125.608 117.321 126.256 116.082 126.256C114.298 126.256 113.168 124.955 113.122 122.938H119.622V122.438C119.622 119.523 117.821 118.153 115.929 118.153C113.668 118.153 112.105 120.045 112.105 122.688C112.105 125.335 113.639 127.182 116.082 127.182ZM113.128 122.045C113.236 120.42 114.332 119.074 115.929 119.074C117.491 119.074 118.588 120.364 118.588 122.045H113.128ZM125.857 116.318H129.544V127H130.607V116.318H134.294V115.364H125.857V116.318ZM136.18 130.273C137.271 130.273 138.072 129.648 138.538 128.381L142.237 118.29L141.135 118.273L138.544 125.665H138.464L135.874 118.273H134.777L137.987 127.085L137.669 127.972C137.186 129.29 136.504 129.523 135.476 129.199L135.203 130.091C135.408 130.188 135.783 130.273 136.18 130.273ZM144.193 130.273H145.21V125.381H145.301C145.648 126.182 146.398 127.182 147.983 127.182C150.119 127.182 151.574 125.364 151.574 122.659C151.574 119.966 150.125 118.153 147.966 118.153C146.364 118.153 145.653 119.153 145.301 119.938H145.176V118.273H144.193V130.273ZM145.193 122.642C145.193 120.551 146.153 119.074 147.858 119.074C149.614 119.074 150.557 120.631 150.557 122.642C150.557 124.676 149.597 126.256 147.858 126.256C146.17 126.256 145.193 124.75 145.193 122.642ZM157.317 127.182C159.067 127.182 160.243 126.233 160.641 125.136L159.68 124.824C159.345 125.608 158.555 126.256 157.317 126.256C155.533 126.256 154.402 124.955 154.357 122.938H160.857V122.438C160.857 119.523 159.055 118.153 157.163 118.153C154.902 118.153 153.339 120.045 153.339 122.688C153.339 125.335 154.874 127.182 157.317 127.182ZM154.362 122.045C154.47 120.42 155.567 119.074 157.163 119.074C158.726 119.074 159.822 120.364 159.822 122.045H154.362ZM168.949 120.188C168.523 118.926 167.591 118.153 165.994 118.153C164.233 118.153 162.955 119.159 162.955 120.597C162.955 121.767 163.665 122.562 165.182 122.926L166.608 123.267C167.568 123.494 168.028 123.989 168.028 124.688C168.028 125.597 167.159 126.273 165.818 126.273C164.625 126.273 163.881 125.733 163.636 124.699L162.665 124.938C162.972 126.392 164.125 127.182 165.835 127.182C167.756 127.182 169.074 126.125 169.074 124.642C169.074 123.477 168.341 122.699 166.881 122.341L165.562 122.017C164.477 121.744 163.972 121.307 163.972 120.551C163.972 119.665 164.818 119.045 165.994 119.045C167.17 119.045 167.75 119.665 168.023 120.449L168.949 120.188Z" fill="#444444"/>
<rect x="16.5" y="100.5" width="175" height="41" rx="20.5" stroke="#444444"/>
<rect x="16.5" y="166.5" width="101" height="37" rx="18.5" fill="#EEEEEE"/>
<path d="M31.5455 191H32.608V186.551H35.3182C37.7784 186.551 39.0511 184.989 39.0511 182.955C39.0511 180.92 37.7784 179.364 35.3011 179.364H31.5455V191ZM32.608 185.597V180.318H35.2727C37.1136 180.318 38.0057 181.426 38.0057 182.955C38.0057 184.477 37.1136 185.597 35.2898 185.597H32.608ZM41.3352 191H42.3466V185.364C42.3466 184.068 43.3409 183.131 44.7045 183.131C44.9716 183.131 45.2216 183.176 45.3125 183.188V182.159C45.1761 182.153 44.9432 182.142 44.7784 182.142C43.6818 182.142 42.7443 182.733 42.392 183.614H42.3182V182.273H41.3352V191ZM47.0497 191H48.0668V182.273H47.0497V191ZM47.5668 180.773C47.9815 180.773 48.3281 180.443 48.3281 180.045C48.3281 179.648 47.9815 179.318 47.5668 179.318C47.152 179.318 46.8111 179.648 46.8111 180.045C46.8111 180.443 47.152 180.773 47.5668 180.773ZM57.4972 182.273H56.4006L53.8097 189.665H53.7301L51.1392 182.273H50.0426L53.2301 191H54.3097L57.4972 182.273ZM61.6477 191.199C63.1023 191.199 63.9886 190.392 64.3523 189.619H64.4148V191H65.4261V185.074C65.4261 182.733 63.6648 182.153 62.3295 182.153C60.9943 182.153 59.6193 182.682 59.0284 184.108L59.9886 184.455C60.3068 183.705 61.0966 183.062 62.358 183.062C63.6818 183.062 64.4148 183.79 64.4148 184.983V185.188C64.4148 185.847 63.5966 185.858 62.1307 186.04C60.1591 186.284 58.7784 186.835 58.7784 188.562C58.7784 190.244 60.0625 191.199 61.6477 191.199ZM61.7841 190.273C60.642 190.273 59.7898 189.665 59.7898 188.608C59.7898 187.551 60.6534 187.108 62.1307 186.926C62.8466 186.841 64.1193 186.682 64.4148 186.392V187.653C64.4148 189.085 63.3977 190.273 61.7841 190.273ZM71.554 182.273H69.7074V180.182H68.6903V182.273H67.3892V183.153H68.6903V188.96C68.6903 190.386 69.8153 191.131 70.9347 191.131C71.3551 191.131 71.6392 191.051 71.8324 190.977L71.6165 190.062C71.4744 190.102 71.2926 190.142 71.0256 190.142C70.3381 190.142 69.7074 189.818 69.7074 188.722V183.153H71.554V182.273ZM77.2855 191.182C79.0355 191.182 80.2116 190.233 80.6094 189.136L79.6491 188.824C79.3139 189.608 78.5241 190.256 77.2855 190.256C75.5014 190.256 74.3707 188.955 74.3253 186.938H80.8253V186.438C80.8253 183.523 79.0241 182.153 77.1321 182.153C74.8707 182.153 73.3082 184.045 73.3082 186.688C73.3082 189.335 74.8423 191.182 77.2855 191.182ZM74.331 186.045C74.4389 184.42 75.5355 183.074 77.1321 183.074C78.6946 183.074 79.7912 184.364 79.7912 186.045H74.331Z" fill="#444444"/>
<path d="M100.273 185L102.819 182.455C102.902 182.371 102.969 182.272 103.014 182.163C103.059 182.053 103.082 181.936 103.082 181.818C103.082 181.7 103.059 181.583 103.014 181.473C102.969 181.364 102.902 181.265 102.819 181.181C102.735 181.098 102.636 181.031 102.527 180.986C102.417 180.941 102.3 180.918 102.182 180.918C102.064 180.918 101.947 180.941 101.837 180.986C101.728 181.031 101.629 181.098 101.545 181.181L99 183.727L96.4548 181.181C96.2859 181.012 96.0569 180.918 95.8181 180.918C95.5792 180.918 95.3502 181.012 95.1813 181.181C95.0124 181.35 94.9175 181.579 94.9175 181.818C94.9175 181.936 94.9408 182.053 94.9861 182.163C95.0314 182.272 95.0977 182.371 95.1813 182.455L97.7274 185L95.1813 187.545C95.0124 187.714 94.9175 187.943 94.9175 188.182C94.9175 188.421 95.0124 188.65 95.1813 188.819C95.3502 188.988 95.5792 189.082 95.8181 189.082C96.0569 189.082 96.2859 188.988 96.4548 188.819L99 186.273L101.545 188.819C101.714 188.988 101.943 189.082 102.182 189.082C102.421 189.082 102.65 188.988 102.819 188.819C102.988 188.65 103.082 188.421 103.082 188.182C103.082 187.943 102.988 187.714 102.819 187.545L100.273 185ZM99 194C94.0293 194 90 189.971 90 185C90 180.029 94.0293 176 99 176C103.971 176 108 180.029 108 185C108 189.971 103.971 194 99 194Z" fill="#444444"/>
<rect x="16.5" y="166.5" width="101" height="37" rx="18.5" stroke="#444444"/>
<path d="M26.9432 239.148C26.5455 236.659 24.5966 235.205 22.1364 235.205C19.125 235.205 16.9034 237.46 16.9034 241.182C16.9034 244.903 19.1136 247.159 22.1364 247.159C24.6932 247.159 26.5625 245.557 26.9432 243.256L25.1705 243.25C24.8693 244.739 23.6193 245.557 22.1477 245.557C20.1534 245.557 18.6477 244.028 18.6477 241.182C18.6477 238.358 20.1477 236.807 22.1534 236.807C23.6364 236.807 24.8807 237.642 25.1705 239.148H26.9432ZM30.6065 235.364H28.9077V247H30.6065V235.364ZM36.6534 247.176C38.5568 247.176 39.9034 246.239 40.2898 244.818L38.6818 244.528C38.375 245.352 37.6364 245.773 36.6705 245.773C35.2159 245.773 34.2386 244.83 34.1932 243.148H40.3977V242.545C40.3977 239.392 38.5114 238.159 36.5341 238.159C34.1023 238.159 32.5 240.011 32.5 242.693C32.5 245.403 34.0795 247.176 36.6534 247.176ZM34.1989 241.875C34.267 240.636 35.1648 239.562 36.5455 239.562C37.8636 239.562 38.7273 240.54 38.733 241.875H34.1989ZM44.8224 247.193C46.2656 247.193 47.0781 246.46 47.402 245.807H47.4702V247H49.1293V241.205C49.1293 238.665 47.1293 238.159 45.7429 238.159C44.1634 238.159 42.7088 238.795 42.1406 240.386L43.7372 240.75C43.9872 240.131 44.6236 239.534 45.7656 239.534C46.8622 239.534 47.4247 240.108 47.4247 241.097V241.136C47.4247 241.756 46.7884 241.744 45.2202 241.926C43.5668 242.119 41.8736 242.551 41.8736 244.534C41.8736 246.25 43.1634 247.193 44.8224 247.193ZM45.1918 245.83C44.2315 245.83 43.5384 245.398 43.5384 244.557C43.5384 243.648 44.3452 243.324 45.3281 243.193C45.8793 243.119 47.1861 242.972 47.4304 242.727V243.852C47.4304 244.886 46.6065 245.83 45.1918 245.83ZM51.392 247H53.0909V241.67C53.0909 240.528 53.9716 239.705 55.1761 239.705C55.5284 239.705 55.9261 239.767 56.0625 239.807V238.182C55.892 238.159 55.5568 238.142 55.3409 238.142C54.3182 238.142 53.4432 238.722 53.125 239.659H53.0341V238.273H51.392V247ZM68.3068 240.403C67.9545 239.045 66.892 238.159 65.0057 238.159C63.0341 238.159 61.6364 239.199 61.6364 240.744C61.6364 241.983 62.3864 242.807 64.0227 243.17L65.5 243.494C66.3409 243.682 66.733 244.057 66.733 244.602C66.733 245.278 66.0114 245.807 64.8977 245.807C63.8807 245.807 63.2273 245.369 63.0227 244.511L61.3807 244.761C61.6648 246.307 62.9489 247.176 64.9091 247.176C67.017 247.176 68.4773 246.057 68.4773 244.477C68.4773 243.244 67.6932 242.483 66.0909 242.114L64.7045 241.795C63.7443 241.568 63.3295 241.244 63.3352 240.653C63.3295 239.983 64.0568 239.506 65.0227 239.506C66.0795 239.506 66.5682 240.091 66.767 240.676L68.3068 240.403ZM74.1065 247.176C76.0099 247.176 77.3565 246.239 77.7429 244.818L76.1349 244.528C75.8281 245.352 75.0895 245.773 74.1236 245.773C72.669 245.773 71.6918 244.83 71.6463 243.148H77.8509V242.545C77.8509 239.392 75.9645 238.159 73.9872 238.159C71.5554 238.159 69.9531 240.011 69.9531 242.693C69.9531 245.403 71.5327 247.176 74.1065 247.176ZM71.652 241.875C71.7202 240.636 72.6179 239.562 73.9986 239.562C75.3168 239.562 76.1804 240.54 76.1861 241.875H71.652ZM81.4347 235.364H79.7358V247H81.4347V235.364ZM87.4815 247.176C89.3849 247.176 90.7315 246.239 91.1179 244.818L89.5099 244.528C89.2031 245.352 88.4645 245.773 87.4986 245.773C86.044 245.773 85.0668 244.83 85.0213 243.148H91.2259V242.545C91.2259 239.392 89.3395 238.159 87.3622 238.159C84.9304 238.159 83.3281 240.011 83.3281 242.693C83.3281 245.403 84.9077 247.176 87.4815 247.176ZM85.027 241.875C85.0952 240.636 85.9929 239.562 87.3736 239.562C88.6918 239.562 89.5554 240.54 89.5611 241.875H85.027ZM96.7869 247.176C98.8494 247.176 100.185 245.938 100.372 244.239H98.7188C98.5028 245.182 97.7699 245.739 96.7983 245.739C95.3608 245.739 94.4347 244.54 94.4347 242.636C94.4347 240.767 95.3778 239.591 96.7983 239.591C97.8778 239.591 98.5369 240.273 98.7188 241.091H100.372C100.19 239.33 98.7528 238.159 96.7699 238.159C94.3097 238.159 92.7188 240.011 92.7188 242.676C92.7188 245.307 94.2528 247.176 96.7869 247.176ZM106.263 238.273H104.473V236.182H102.774V238.273H101.496V239.636H102.774V244.79C102.768 246.375 103.979 247.142 105.32 247.114C105.859 247.108 106.223 247.006 106.422 246.932L106.115 245.528C106.001 245.551 105.791 245.602 105.518 245.602C104.967 245.602 104.473 245.42 104.473 244.438V239.636H106.263V238.273ZM108.142 247H109.841V238.273H108.142V247ZM109 236.926C109.585 236.926 110.074 236.472 110.074 235.915C110.074 235.358 109.585 234.898 109 234.898C108.409 234.898 107.926 235.358 107.926 235.915C107.926 236.472 108.409 236.926 109 236.926ZM115.803 247.176C118.263 247.176 119.871 245.375 119.871 242.676C119.871 239.96 118.263 238.159 115.803 238.159C113.342 238.159 111.734 239.96 111.734 242.676C111.734 245.375 113.342 247.176 115.803 247.176ZM115.808 245.75C114.2 245.75 113.45 244.347 113.45 242.67C113.45 241 114.2 239.58 115.808 239.58C117.405 239.58 118.155 241 118.155 242.67C118.155 244.347 117.405 245.75 115.808 245.75ZM123.466 241.818C123.466 240.426 124.318 239.631 125.5 239.631C126.653 239.631 127.352 240.386 127.352 241.653V247H129.051V241.449C129.051 239.29 127.864 238.159 126.08 238.159C124.767 238.159 123.909 238.767 123.506 239.693H123.398V238.273H121.767V247H123.466V241.818Z" fill="#444444"/>
<path d="M16 250.199H130.182V251.438H16V250.199Z" fill="#444444"/>
<path d="M16 278H359" stroke="#DDDDDD"/>
<rect x="16.5" y="302.5" width="141" height="41" rx="20.5" fill="#EEEEEE"/>
<path d="M39.5455 329H40.608V324.295H43.3182C43.4716 324.295 43.6193 324.29 43.7614 324.278L46.3125 329H47.5398L44.8523 324.074C46.3011 323.597 47.0511 322.403 47.0511 320.847C47.0511 318.812 45.7727 317.364 43.3011 317.364H39.5455V329ZM40.608 323.324V318.318H43.2727C45.1136 318.318 46.0057 319.324 46.0057 320.847C46.0057 322.369 45.1136 323.324 43.2898 323.324H40.608ZM52.8636 329.182C54.6136 329.182 55.7898 328.233 56.1875 327.136L55.2273 326.824C54.892 327.608 54.1023 328.256 52.8636 328.256C51.0795 328.256 49.9489 326.955 49.9034 324.938H56.4034V324.438C56.4034 321.523 54.6023 320.153 52.7102 320.153C50.4489 320.153 48.8864 322.045 48.8864 324.688C48.8864 327.335 50.4205 329.182 52.8636 329.182ZM49.9091 324.045C50.017 322.42 51.1136 321.074 52.7102 321.074C54.2727 321.074 55.3693 322.364 55.3693 324.045H49.9091ZM59.6435 323.545C59.6435 322.023 60.6435 321.085 62.0185 321.085C63.3594 321.085 64.223 321.983 64.223 323.409V329H65.2344V323.347C65.2344 321.278 64.0355 320.159 62.2741 320.159C60.9957 320.159 60.1151 320.75 59.706 321.642H59.6151V320.273H58.6321V329H59.6435V323.545ZM71.3352 320.273H69.4886V318.182H68.4716V320.273H67.1705V321.153H68.4716V326.96C68.4716 328.386 69.5966 329.131 70.7159 329.131C71.1364 329.131 71.4205 329.051 71.6136 328.977L71.3977 328.062C71.2557 328.102 71.0739 328.142 70.8068 328.142C70.1193 328.142 69.4886 327.818 69.4886 326.722V321.153H71.3352V320.273ZM76.0696 329.199C77.5241 329.199 78.4105 328.392 78.7741 327.619H78.8366V329H79.848V323.074C79.848 320.733 78.0866 320.153 76.7514 320.153C75.4162 320.153 74.0412 320.682 73.4503 322.108L74.4105 322.455C74.7287 321.705 75.5185 321.062 76.7798 321.062C78.1037 321.062 78.8366 321.79 78.8366 322.983V323.188C78.8366 323.847 78.0185 323.858 76.5526 324.04C74.581 324.284 73.2003 324.835 73.2003 326.562C73.2003 328.244 74.4844 329.199 76.0696 329.199ZM76.206 328.273C75.0639 328.273 74.2116 327.665 74.2116 326.608C74.2116 325.551 75.0753 325.108 76.5526 324.926C77.2685 324.841 78.5412 324.682 78.8366 324.392V325.653C78.8366 327.085 77.8196 328.273 76.206 328.273ZM83.5497 317.364H82.5384V329H83.5497V317.364ZM90.2315 318.318H93.919V329H94.9815V318.318H98.669V317.364H90.2315V318.318ZM103.114 329.182C104.864 329.182 106.04 328.233 106.438 327.136L105.477 326.824C105.142 327.608 104.352 328.256 103.114 328.256C101.33 328.256 100.199 326.955 100.153 324.938H106.653V324.438C106.653 321.523 104.852 320.153 102.96 320.153C100.699 320.153 99.1364 322.045 99.1364 324.688C99.1364 327.335 100.67 329.182 103.114 329.182ZM100.159 324.045C100.267 322.42 101.364 321.074 102.96 321.074C104.523 321.074 105.619 322.364 105.619 324.045H100.159ZM108.882 329H109.893V323.364C109.893 322.068 110.888 321.131 112.251 321.131C112.518 321.131 112.768 321.176 112.859 321.188V320.159C112.723 320.153 112.49 320.142 112.325 320.142C111.229 320.142 110.291 320.733 109.939 321.614H109.865V320.273H108.882V329ZM114.585 329H115.597V323.409C115.597 322.051 116.5 321.085 117.71 321.085C118.903 321.085 119.597 321.881 119.597 323.062V329H120.631V323.256C120.631 322 121.381 321.085 122.71 321.085C123.864 321.085 124.631 321.778 124.631 323.153V329H125.642V323.153C125.642 321.199 124.636 320.159 123.017 320.159C121.744 320.159 120.824 320.778 120.432 321.744H120.358C119.972 320.756 119.205 320.159 118 320.159C116.858 320.159 116.006 320.71 115.659 321.614H115.568V320.273H114.585V329ZM134.183 322.188C133.757 320.926 132.825 320.153 131.229 320.153C129.467 320.153 128.189 321.159 128.189 322.597C128.189 323.767 128.899 324.562 130.416 324.926L131.842 325.267C132.803 325.494 133.263 325.989 133.263 326.688C133.263 327.597 132.393 328.273 131.053 328.273C129.859 328.273 129.115 327.733 128.871 326.699L127.899 326.938C128.206 328.392 129.359 329.182 131.07 329.182C132.99 329.182 134.308 328.125 134.308 326.642C134.308 325.477 133.575 324.699 132.115 324.341L130.797 324.017C129.712 323.744 129.206 323.307 129.206 322.551C129.206 321.665 130.053 321.045 131.229 321.045C132.405 321.045 132.984 321.665 133.257 322.449L134.183 322.188Z" fill="#444444"/>
<rect x="16.5" y="302.5" width="141" height="41" rx="20.5" stroke="#444444"/>
<rect x="16.5" y="368.5" width="110" height="37" rx="18.5" fill="#EEEEEE"/>
<path d="M31.5455 381.364V393H32.5455V383.608H32.6364L36.5625 393H37.5284L41.4545 383.608H41.5455V393H42.5455V381.364H41.3182L37.0966 391.5H36.9943L32.7727 381.364H31.5455ZM48.821 393.182C51.0824 393.182 52.6619 391.335 52.6619 388.676C52.6619 386 51.0824 384.153 48.821 384.153C46.5597 384.153 44.9801 386 44.9801 388.676C44.9801 391.335 46.5597 393.182 48.821 393.182ZM48.821 392.256C47.0085 392.256 45.9972 390.631 45.9972 388.676C45.9972 386.722 47.0085 385.074 48.821 385.074C50.6335 385.074 51.6449 386.722 51.6449 388.676C51.6449 390.631 50.6335 392.256 48.821 392.256ZM55.8935 387.545C55.8935 386.023 56.8935 385.085 58.2685 385.085C59.6094 385.085 60.473 385.983 60.473 387.409V393H61.4844V387.347C61.4844 385.278 60.2855 384.159 58.5241 384.159C57.2457 384.159 56.3651 384.75 55.956 385.642H55.8651V384.273H54.8821V393H55.8935V387.545ZM67.5852 384.273H65.7386V382.182H64.7216V384.273H63.4205V385.153H64.7216V390.96C64.7216 392.386 65.8466 393.131 66.9659 393.131C67.3864 393.131 67.6705 393.051 67.8636 392.977L67.6477 392.062C67.5057 392.102 67.3239 392.142 67.0568 392.142C66.3693 392.142 65.7386 391.818 65.7386 390.722V385.153H67.5852V384.273ZM71.081 387.545C71.081 386.023 72.1037 385.085 73.5014 385.085C74.8537 385.085 75.7173 385.972 75.7173 387.409V393H76.7344V387.347C76.7344 385.267 75.5298 384.159 73.7571 384.159C72.4389 384.159 71.581 384.739 71.1719 385.642H71.081V381.364H70.0696V393H71.081V387.545ZM80.4091 381.364H79.3977V393H80.4091V381.364ZM83.7898 396.273C84.8807 396.273 85.6818 395.648 86.1477 394.381L89.8466 384.29L88.7443 384.273L86.1534 391.665H86.0739L83.483 384.273H82.3864L85.5966 393.085L85.2784 393.972C84.7955 395.29 84.1136 395.523 83.0852 395.199L82.8125 396.091C83.017 396.188 83.392 396.273 83.7898 396.273Z" fill="#444444"/>
<path d="M109.273 387L111.819 384.455C111.902 384.371 111.969 384.272 112.014 384.163C112.059 384.053 112.082 383.936 112.082 383.818C112.082 383.7 112.059 383.583 112.014 383.473C111.969 383.364 111.902 383.265 111.819 383.181C111.735 383.098 111.636 383.031 111.527 382.986C111.417 382.941 111.3 382.918 111.182 382.918C111.064 382.918 110.947 382.941 110.837 382.986C110.728 383.031 110.629 383.098 110.545 383.181L108 385.727L105.455 383.181C105.286 383.012 105.057 382.918 104.818 382.918C104.579 382.918 104.35 383.012 104.181 383.181C104.012 383.35 103.918 383.579 103.918 383.818C103.918 383.936 103.941 384.053 103.986 384.163C104.031 384.272 104.098 384.371 104.181 384.455L106.727 387L104.181 389.545C104.012 389.714 103.918 389.943 103.918 390.182C103.918 390.421 104.012 390.65 104.181 390.819C104.35 390.988 104.579 391.082 104.818 391.082C105.057 391.082 105.286 390.988 105.455 390.819L108 388.273L110.545 390.819C110.714 390.988 110.943 391.082 111.182 391.082C111.421 391.082 111.65 390.988 111.819 390.819C111.988 390.65 112.082 390.421 112.082 390.182C112.082 389.943 111.988 389.714 111.819 389.545L109.273 387ZM108 396C103.029 396 99 391.971 99 387C99 382.029 103.029 378 108 378C112.971 378 117 382.029 117 387C117 391.971 112.971 396 108 396Z" fill="#444444"/>
<rect x="16.5" y="368.5" width="110" height="37" rx="18.5" stroke="#444444"/>
<path d="M26.9432 441.148C26.5455 438.659 24.5966 437.205 22.1364 437.205C19.125 437.205 16.9034 439.46 16.9034 443.182C16.9034 446.903 19.1136 449.159 22.1364 449.159C24.6932 449.159 26.5625 447.557 26.9432 445.256L25.1705 445.25C24.8693 446.739 23.6193 447.557 22.1477 447.557C20.1534 447.557 18.6477 446.028 18.6477 443.182C18.6477 440.358 20.1477 438.807 22.1534 438.807C23.6364 438.807 24.8807 439.642 25.1705 441.148H26.9432ZM30.6065 437.364H28.9077V449H30.6065V437.364ZM36.6534 449.176C38.5568 449.176 39.9034 448.239 40.2898 446.818L38.6818 446.528C38.375 447.352 37.6364 447.773 36.6705 447.773C35.2159 447.773 34.2386 446.83 34.1932 445.148H40.3977V444.545C40.3977 441.392 38.5114 440.159 36.5341 440.159C34.1023 440.159 32.5 442.011 32.5 444.693C32.5 447.403 34.0795 449.176 36.6534 449.176ZM34.1989 443.875C34.267 442.636 35.1648 441.562 36.5455 441.562C37.8636 441.562 38.7273 442.54 38.733 443.875H34.1989ZM44.8224 449.193C46.2656 449.193 47.0781 448.46 47.402 447.807H47.4702V449H49.1293V443.205C49.1293 440.665 47.1293 440.159 45.7429 440.159C44.1634 440.159 42.7088 440.795 42.1406 442.386L43.7372 442.75C43.9872 442.131 44.6236 441.534 45.7656 441.534C46.8622 441.534 47.4247 442.108 47.4247 443.097V443.136C47.4247 443.756 46.7884 443.744 45.2202 443.926C43.5668 444.119 41.8736 444.551 41.8736 446.534C41.8736 448.25 43.1634 449.193 44.8224 449.193ZM45.1918 447.83C44.2315 447.83 43.5384 447.398 43.5384 446.557C43.5384 445.648 44.3452 445.324 45.3281 445.193C45.8793 445.119 47.1861 444.972 47.4304 444.727V445.852C47.4304 446.886 46.6065 447.83 45.1918 447.83ZM51.392 449H53.0909V443.67C53.0909 442.528 53.9716 441.705 55.1761 441.705C55.5284 441.705 55.9261 441.767 56.0625 441.807V440.182C55.892 440.159 55.5568 440.142 55.3409 440.142C54.3182 440.142 53.4432 440.722 53.125 441.659H53.0341V440.273H51.392V449ZM68.3068 442.403C67.9545 441.045 66.892 440.159 65.0057 440.159C63.0341 440.159 61.6364 441.199 61.6364 442.744C61.6364 443.983 62.3864 444.807 64.0227 445.17L65.5 445.494C66.3409 445.682 66.733 446.057 66.733 446.602C66.733 447.278 66.0114 447.807 64.8977 447.807C63.8807 447.807 63.2273 447.369 63.0227 446.511L61.3807 446.761C61.6648 448.307 62.9489 449.176 64.9091 449.176C67.017 449.176 68.4773 448.057 68.4773 446.477C68.4773 445.244 67.6932 444.483 66.0909 444.114L64.7045 443.795C63.7443 443.568 63.3295 443.244 63.3352 442.653C63.3295 441.983 64.0568 441.506 65.0227 441.506C66.0795 441.506 66.5682 442.091 66.767 442.676L68.3068 442.403ZM74.1065 449.176C76.0099 449.176 77.3565 448.239 77.7429 446.818L76.1349 446.528C75.8281 447.352 75.0895 447.773 74.1236 447.773C72.669 447.773 71.6918 446.83 71.6463 445.148H77.8509V444.545C77.8509 441.392 75.9645 440.159 73.9872 440.159C71.5554 440.159 69.9531 442.011 69.9531 444.693C69.9531 447.403 71.5327 449.176 74.1065 449.176ZM71.652 443.875C71.7202 442.636 72.6179 441.562 73.9986 441.562C75.3168 441.562 76.1804 442.54 76.1861 443.875H71.652ZM81.4347 437.364H79.7358V449H81.4347V437.364ZM87.4815 449.176C89.3849 449.176 90.7315 448.239 91.1179 446.818L89.5099 446.528C89.2031 447.352 88.4645 447.773 87.4986 447.773C86.044 447.773 85.0668 446.83 85.0213 445.148H91.2259V444.545C91.2259 441.392 89.3395 440.159 87.3622 440.159C84.9304 440.159 83.3281 442.011 83.3281 444.693C83.3281 447.403 84.9077 449.176 87.4815 449.176ZM85.027 443.875C85.0952 442.636 85.9929 441.562 87.3736 441.562C88.6918 441.562 89.5554 442.54 89.5611 443.875H85.027ZM96.7869 449.176C98.8494 449.176 100.185 447.938 100.372 446.239H98.7188C98.5028 447.182 97.7699 447.739 96.7983 447.739C95.3608 447.739 94.4347 446.54 94.4347 444.636C94.4347 442.767 95.3778 441.591 96.7983 441.591C97.8778 441.591 98.5369 442.273 98.7188 443.091H100.372C100.19 441.33 98.7528 440.159 96.7699 440.159C94.3097 440.159 92.7188 442.011 92.7188 444.676C92.7188 447.307 94.2528 449.176 96.7869 449.176ZM106.263 440.273H104.473V438.182H102.774V440.273H101.496V441.636H102.774V446.79C102.768 448.375 103.979 449.142 105.32 449.114C105.859 449.108 106.223 449.006 106.422 448.932L106.115 447.528C106.001 447.551 105.791 447.602 105.518 447.602C104.967 447.602 104.473 447.42 104.473 446.438V441.636H106.263V440.273ZM108.142 449H109.841V440.273H108.142V449ZM109 438.926C109.585 438.926 110.074 438.472 110.074 437.915C110.074 437.358 109.585 436.898 109 436.898C108.409 436.898 107.926 437.358 107.926 437.915C107.926 438.472 108.409 438.926 109 438.926ZM115.803 449.176C118.263 449.176 119.871 447.375 119.871 444.676C119.871 441.96 118.263 440.159 115.803 440.159C113.342 440.159 111.734 441.96 111.734 444.676C111.734 447.375 113.342 449.176 115.803 449.176ZM115.808 447.75C114.2 447.75 113.45 446.347 113.45 444.67C113.45 443 114.2 441.58 115.808 441.58C117.405 441.58 118.155 443 118.155 444.67C118.155 446.347 117.405 447.75 115.808 447.75ZM123.466 443.818C123.466 442.426 124.318 441.631 125.5 441.631C126.653 441.631 127.352 442.386 127.352 443.653V449H129.051V443.449C129.051 441.29 127.864 440.159 126.08 440.159C124.767 440.159 123.909 440.767 123.506 441.693H123.398V440.273H121.767V449H123.466V443.818Z" fill="#444444"/>
<path d="M16 452.199H130.182V453.438H16V452.199Z" fill="#444444"/>
<path d="M16 480H359" stroke="#DDDDDD"/>
<rect x="16.5" y="504.5" width="117" height="41" rx="20.5" fill="#EEEEEE"/>
<path d="M39.5625 531L40.8068 527.494H45.6932L46.9375 531H48.0511L43.8182 519.364H42.6818L38.4489 531H39.5625ZM41.1477 526.54L43.2102 520.744H43.2898L45.3523 526.54H41.1477ZM49.8352 531H50.8466V525.409C50.8466 524.051 51.75 523.085 52.9602 523.085C54.1534 523.085 54.8466 523.881 54.8466 525.062V531H55.8807V525.256C55.8807 524 56.6307 523.085 57.9602 523.085C59.1136 523.085 59.8807 523.778 59.8807 525.153V531H60.892V525.153C60.892 523.199 59.8864 522.159 58.267 522.159C56.9943 522.159 56.0739 522.778 55.6818 523.744H55.608C55.2216 522.756 54.4545 522.159 53.25 522.159C52.108 522.159 51.2557 522.71 50.9091 523.614H50.8182V522.273H49.8352V531ZM67.098 531.182C68.848 531.182 70.0241 530.233 70.4219 529.136L69.4616 528.824C69.1264 529.608 68.3366 530.256 67.098 530.256C65.3139 530.256 64.1832 528.955 64.1378 526.938H70.6378V526.438C70.6378 523.523 68.8366 522.153 66.9446 522.153C64.6832 522.153 63.1207 524.045 63.1207 526.688C63.1207 529.335 64.6548 531.182 67.098 531.182ZM64.1435 526.045C64.2514 524.42 65.348 523.074 66.9446 523.074C68.5071 523.074 69.6037 524.364 69.6037 526.045H64.1435ZM73.8778 525.545C73.8778 524.023 74.8778 523.085 76.2528 523.085C77.5938 523.085 78.4574 523.983 78.4574 525.409V531H79.4688V525.347C79.4688 523.278 78.2699 522.159 76.5085 522.159C75.2301 522.159 74.3494 522.75 73.9403 523.642H73.8494V522.273H72.8665V531H73.8778V525.545ZM82.1435 531H83.1605V522.273H82.1435V531ZM82.6605 520.773C83.0753 520.773 83.4219 520.443 83.4219 520.045C83.4219 519.648 83.0753 519.318 82.6605 519.318C82.2457 519.318 81.9048 519.648 81.9048 520.045C81.9048 520.443 82.2457 520.773 82.6605 520.773ZM89.2727 522.273H87.4261V520.182H86.4091V522.273H85.108V523.153H86.4091V528.96C86.4091 530.386 87.5341 531.131 88.6534 531.131C89.0739 531.131 89.358 531.051 89.5511 530.977L89.3352 530.062C89.1932 530.102 89.0114 530.142 88.7443 530.142C88.0568 530.142 87.4261 529.818 87.4261 528.722V523.153H89.2727V522.273ZM91.581 531H92.598V522.273H91.581V531ZM92.098 520.773C92.5128 520.773 92.8594 520.443 92.8594 520.045C92.8594 519.648 92.5128 519.318 92.098 519.318C91.6832 519.318 91.3423 519.648 91.3423 520.045C91.3423 520.443 91.6832 520.773 92.098 520.773ZM98.8011 531.182C100.551 531.182 101.727 530.233 102.125 529.136L101.165 528.824C100.83 529.608 100.04 530.256 98.8011 530.256C97.017 530.256 95.8864 528.955 95.8409 526.938H102.341V526.438C102.341 523.523 100.54 522.153 98.6477 522.153C96.3864 522.153 94.8239 524.045 94.8239 526.688C94.8239 529.335 96.358 531.182 98.8011 531.182ZM95.8466 526.045C95.9545 524.42 97.0511 523.074 98.6477 523.074C100.21 523.074 101.307 524.364 101.307 526.045H95.8466ZM110.433 524.188C110.007 522.926 109.075 522.153 107.479 522.153C105.717 522.153 104.439 523.159 104.439 524.597C104.439 525.767 105.149 526.562 106.666 526.926L108.092 527.267C109.053 527.494 109.513 527.989 109.513 528.688C109.513 529.597 108.643 530.273 107.303 530.273C106.109 530.273 105.365 529.733 105.121 528.699L104.149 528.938C104.456 530.392 105.609 531.182 107.32 531.182C109.24 531.182 110.558 530.125 110.558 528.642C110.558 527.477 109.825 526.699 108.365 526.341L107.047 526.017C105.962 525.744 105.456 525.307 105.456 524.551C105.456 523.665 106.303 523.045 107.479 523.045C108.655 523.045 109.234 523.665 109.507 524.449L110.433 524.188Z" fill="#444444"/>
<rect x="16.5" y="504.5" width="117" height="41" rx="20.5" stroke="#444444"/>
<rect x="16.5" y="570.5" width="99" height="37" rx="18.5" fill="#EEEEEE"/>
<path d="M31.5455 595H32.608V590.551H35.3182C37.7784 590.551 39.0511 588.989 39.0511 586.955C39.0511 584.92 37.7784 583.364 35.3011 583.364H31.5455V595ZM32.608 589.597V584.318H35.2727C37.1136 584.318 38.0057 585.426 38.0057 586.955C38.0057 588.477 37.1136 589.597 35.2898 589.597H32.608ZM41.3352 595H42.3466V589.364C42.3466 588.068 43.3409 587.131 44.7045 587.131C44.9716 587.131 45.2216 587.176 45.3125 587.188V586.159C45.1761 586.153 44.9432 586.142 44.7784 586.142C43.6818 586.142 42.7443 586.733 42.392 587.614H42.3182V586.273H41.3352V595ZM47.0497 595H48.0668V586.273H47.0497V595ZM47.5668 584.773C47.9815 584.773 48.3281 584.443 48.3281 584.045C48.3281 583.648 47.9815 583.318 47.5668 583.318C47.152 583.318 46.8111 583.648 46.8111 584.045C46.8111 584.443 47.152 584.773 47.5668 584.773ZM51.7528 589.545C51.7528 588.023 52.7528 587.085 54.1278 587.085C55.4688 587.085 56.3324 587.983 56.3324 589.409V595H57.3438V589.347C57.3438 587.278 56.1449 586.159 54.3835 586.159C53.1051 586.159 52.2244 586.75 51.8153 587.642H51.7244V586.273H50.7415V595H51.7528V589.545ZM63.4446 586.273H61.598V584.182H60.581V586.273H59.2798V587.153H60.581V592.96C60.581 594.386 61.706 595.131 62.8253 595.131C63.2457 595.131 63.5298 595.051 63.723 594.977L63.5071 594.062C63.3651 594.102 63.1832 594.142 62.9162 594.142C62.2287 594.142 61.598 593.818 61.598 592.722V587.153H63.4446V586.273ZM69.1761 595.182C70.9261 595.182 72.1023 594.233 72.5 593.136L71.5398 592.824C71.2045 593.608 70.4148 594.256 69.1761 594.256C67.392 594.256 66.2614 592.955 66.2159 590.938H72.7159V590.438C72.7159 587.523 70.9148 586.153 69.0227 586.153C66.7614 586.153 65.1989 588.045 65.1989 590.688C65.1989 593.335 66.733 595.182 69.1761 595.182ZM66.2216 590.045C66.3295 588.42 67.4261 587.074 69.0227 587.074C70.5852 587.074 71.6818 588.364 71.6818 590.045H66.2216ZM74.9446 595H75.956V589.364C75.956 588.068 76.9503 587.131 78.3139 587.131C78.581 587.131 78.831 587.176 78.9219 587.188V586.159C78.7855 586.153 78.5526 586.142 78.3878 586.142C77.2912 586.142 76.3537 586.733 76.0014 587.614H75.9276V586.273H74.9446V595Z" fill="#444444"/>
<path d="M98.2726 589L100.819 586.455C100.902 586.371 100.969 586.272 101.014 586.163C101.059 586.053 101.082 585.936 101.082 585.818C101.082 585.7 101.059 585.583 101.014 585.473C100.969 585.364 100.902 585.265 100.819 585.181C100.735 585.098 100.636 585.031 100.527 584.986C100.417 584.941 100.3 584.918 100.182 584.918C100.064 584.918 99.9466 584.941 99.8373 584.986C99.7281 585.031 99.6288 585.098 99.5452 585.181L97 587.727L94.4548 585.181C94.2859 585.012 94.0569 584.918 93.8181 584.918C93.5792 584.918 93.3502 585.012 93.1813 585.181C93.0124 585.35 92.9175 585.579 92.9175 585.818C92.9175 585.936 92.9408 586.053 92.9861 586.163C93.0314 586.272 93.0977 586.371 93.1813 586.455L95.7274 589L93.1813 591.545C93.0124 591.714 92.9175 591.943 92.9175 592.182C92.9175 592.421 93.0124 592.65 93.1813 592.819C93.3502 592.988 93.5792 593.082 93.8181 593.082C94.0569 593.082 94.2859 592.988 94.4548 592.819L97 590.273L99.5452 592.819C99.7141 592.988 99.9431 593.082 100.182 593.082C100.421 593.082 100.65 592.988 100.819 592.819C100.988 592.65 101.082 592.421 101.082 592.182C101.082 591.943 100.988 591.714 100.819 591.545L98.2726 589ZM97 598C92.0293 598 88 593.971 88 589C88 584.029 92.0293 580 97 580C101.971 580 106 584.029 106 589C106 593.971 101.971 598 97 598Z" fill="#444444"/>
<rect x="16.5" y="570.5" width="99" height="37" rx="18.5" stroke="#444444"/>
<rect x="122.5" y="570.5" width="111" height="37" rx="18.5" fill="#EEEEEE"/>
<path d="M143.864 586.273H144.892C144.812 584.506 143.284 583.199 141.119 583.199C138.972 583.199 137.318 584.489 137.318 586.364C137.318 587.858 138.375 588.795 140.199 589.335L141.591 589.744C143.034 590.165 144.023 590.705 144.023 591.892C144.023 593.29 142.756 594.227 141.017 594.227C139.449 594.227 138.222 593.472 138.108 592.091H137.017C137.142 593.932 138.642 595.199 141.017 595.199C143.54 595.199 145.051 593.773 145.051 591.909C145.051 589.977 143.369 589.205 141.892 588.79L140.665 588.438C139.534 588.119 138.347 587.545 138.347 586.318C138.347 585.068 139.466 584.153 141.091 584.153C142.631 584.153 143.733 584.977 143.864 586.273ZM150.807 595.182C152.625 595.182 153.903 594.034 154.136 592.455H153.114C152.881 593.568 151.966 594.256 150.807 594.256C149.097 594.256 147.966 592.767 147.966 590.642C147.966 588.528 149.131 587.074 150.807 587.074C152.051 587.074 152.892 587.875 153.108 588.864H154.131C153.892 587.244 152.54 586.153 150.79 586.153C148.506 586.153 146.949 588.051 146.949 590.676C146.949 593.278 148.46 595.182 150.807 595.182ZM158.741 595.199C160.196 595.199 161.082 594.392 161.446 593.619H161.509V595H162.52V589.074C162.52 586.733 160.759 586.153 159.423 586.153C158.088 586.153 156.713 586.682 156.122 588.108L157.082 588.455C157.401 587.705 158.19 587.062 159.452 587.062C160.776 587.062 161.509 587.79 161.509 588.983V589.188C161.509 589.847 160.69 589.858 159.224 590.04C157.253 590.284 155.872 590.835 155.872 592.562C155.872 594.244 157.156 595.199 158.741 595.199ZM158.878 594.273C157.736 594.273 156.884 593.665 156.884 592.608C156.884 591.551 157.747 591.108 159.224 590.926C159.94 590.841 161.213 590.682 161.509 590.392V591.653C161.509 593.085 160.491 594.273 158.878 594.273ZM166.222 589.545C166.222 588.023 167.222 587.085 168.597 587.085C169.938 587.085 170.801 587.983 170.801 589.409V595H171.812V589.347C171.812 587.278 170.614 586.159 168.852 586.159C167.574 586.159 166.693 586.75 166.284 587.642H166.193V586.273H165.21V595H166.222V589.545ZM175.487 589.545C175.487 588.023 176.487 587.085 177.862 587.085C179.203 587.085 180.067 587.983 180.067 589.409V595H181.078V589.347C181.078 587.278 179.879 586.159 178.118 586.159C176.839 586.159 175.959 586.75 175.55 587.642H175.459V586.273H174.476V595H175.487V589.545ZM187.27 595.182C189.02 595.182 190.196 594.233 190.594 593.136L189.634 592.824C189.298 593.608 188.509 594.256 187.27 594.256C185.486 594.256 184.355 592.955 184.31 590.938H190.81V590.438C190.81 587.523 189.009 586.153 187.116 586.153C184.855 586.153 183.293 588.045 183.293 590.688C183.293 593.335 184.827 595.182 187.27 595.182ZM184.315 590.045C184.423 588.42 185.52 587.074 187.116 587.074C188.679 587.074 189.776 588.364 189.776 590.045H184.315ZM193.038 595H194.05V589.364C194.05 588.068 195.044 587.131 196.408 587.131C196.675 587.131 196.925 587.176 197.016 587.188V586.159C196.879 586.153 196.646 586.142 196.482 586.142C195.385 586.142 194.447 586.733 194.095 587.614H194.021V586.273H193.038V595Z" fill="#444444"/>
<path d="M216.273 589L218.819 586.455C218.902 586.371 218.969 586.272 219.014 586.163C219.059 586.053 219.082 585.936 219.082 585.818C219.082 585.7 219.059 585.583 219.014 585.473C218.969 585.364 218.902 585.265 218.819 585.181C218.735 585.098 218.636 585.031 218.527 584.986C218.417 584.941 218.3 584.918 218.182 584.918C218.064 584.918 217.947 584.941 217.837 584.986C217.728 585.031 217.629 585.098 217.545 585.181L215 587.727L212.455 585.181C212.286 585.012 212.057 584.918 211.818 584.918C211.579 584.918 211.35 585.012 211.181 585.181C211.012 585.35 210.918 585.579 210.918 585.818C210.918 585.936 210.941 586.053 210.986 586.163C211.031 586.272 211.098 586.371 211.181 586.455L213.727 589L211.181 591.545C211.012 591.714 210.918 591.943 210.918 592.182C210.918 592.421 211.012 592.65 211.181 592.819C211.35 592.988 211.579 593.082 211.818 593.082C212.057 593.082 212.286 592.988 212.455 592.819L215 590.273L217.545 592.819C217.714 592.988 217.943 593.082 218.182 593.082C218.421 593.082 218.65 592.988 218.819 592.819C218.988 592.65 219.082 592.421 219.082 592.182C219.082 591.943 218.988 591.714 218.819 591.545L216.273 589ZM215 598C210.029 598 206 593.971 206 589C206 584.029 210.029 580 215 580C219.971 580 224 584.029 224 589C224 593.971 219.971 598 215 598Z" fill="#444444"/>
<rect x="122.5" y="570.5" width="111" height="37" rx="18.5" stroke="#444444"/>
<rect x="240.5" y="570.5" width="77" height="37" rx="18.5" fill="#EEEEEE"/>
<path d="M257.568 595H258.705L261.403 585.131H261.477L264.176 595H265.312L268.5 583.364H267.415L264.778 593.369H264.688L262.051 583.364H260.824L258.188 593.369H258.097L255.46 583.364H254.381L257.568 595ZM270.222 595H271.239V586.273H270.222V595ZM270.739 584.773C271.153 584.773 271.5 584.443 271.5 584.045C271.5 583.648 271.153 583.318 270.739 583.318C270.324 583.318 269.983 583.648 269.983 584.045C269.983 584.443 270.324 584.773 270.739 584.773ZM277.504 586.273H275.572V585.205C275.572 584.29 276.067 583.778 276.947 583.778C277.283 583.778 277.487 583.852 277.641 583.903L277.936 583.017C277.732 582.932 277.391 582.824 276.857 582.824C275.669 582.824 274.555 583.585 274.555 584.994V586.273H273.214V587.153H274.555V595H275.567L275.572 587.153H277.504V586.273ZM279.534 595H280.551V586.273H279.534V595ZM280.051 584.773C280.466 584.773 280.812 584.443 280.812 584.045C280.812 583.648 280.466 583.318 280.051 583.318C279.636 583.318 279.295 583.648 279.295 584.045C279.295 584.443 279.636 584.773 280.051 584.773Z" fill="#444444"/>
<path d="M300.273 589L302.819 586.455C302.902 586.371 302.969 586.272 303.014 586.163C303.059 586.053 303.082 585.936 303.082 585.818C303.082 585.7 303.059 585.583 303.014 585.473C302.969 585.364 302.902 585.265 302.819 585.181C302.735 585.098 302.636 585.031 302.527 584.986C302.417 584.941 302.3 584.918 302.182 584.918C302.064 584.918 301.947 584.941 301.837 584.986C301.728 585.031 301.629 585.098 301.545 585.181L299 587.727L296.455 585.181C296.286 585.012 296.057 584.918 295.818 584.918C295.579 584.918 295.35 585.012 295.181 585.181C295.012 585.35 294.918 585.579 294.918 585.818C294.918 585.936 294.941 586.053 294.986 586.163C295.031 586.272 295.098 586.371 295.181 586.455L297.727 589L295.181 591.545C295.012 591.714 294.918 591.943 294.918 592.182C294.918 592.421 295.012 592.65 295.181 592.819C295.35 592.988 295.579 593.082 295.818 593.082C296.057 593.082 296.286 592.988 296.455 592.819L299 590.273L301.545 592.819C301.714 592.988 301.943 593.082 302.182 593.082C302.421 593.082 302.65 592.988 302.819 592.819C302.988 592.65 303.082 592.421 303.082 592.182C303.082 591.943 302.988 591.714 302.819 591.545L300.273 589ZM299 598C294.029 598 290 593.971 290 589C290 584.029 294.029 580 299 580C303.971 580 308 584.029 308 589C308 593.971 303.971 598 299 598Z" fill="#444444"/>
<rect x="240.5" y="570.5" width="77" height="37" rx="18.5" stroke="#444444"/>
<rect x="16.5" y="618.5" width="115" height="37" rx="18.5" fill="#EEEEEE"/>
<path d="M40.6591 635C40.2784 632.858 38.5284 631.205 36.0511 631.205C33.1136 631.205 31.0227 633.54 31.0227 637.182C31.0227 640.824 33.1136 643.159 36.0511 643.159C38.5284 643.159 40.2784 641.5 40.6591 639.364H39.5909C39.267 640.96 37.875 642.159 36.0511 642.159C33.8466 642.159 32.0511 640.415 32.0511 637.182C32.0511 633.96 33.8466 632.205 36.0511 632.205C37.875 632.205 39.267 633.409 39.5909 635H40.6591ZM43.956 631.364H42.9446V643H43.956V631.364ZM50.1605 643.182C51.9105 643.182 53.0866 642.233 53.4844 641.136L52.5241 640.824C52.1889 641.608 51.3991 642.256 50.1605 642.256C48.3764 642.256 47.2457 640.955 47.2003 638.938H53.7003V638.438C53.7003 635.523 51.8991 634.153 50.0071 634.153C47.7457 634.153 46.1832 636.045 46.1832 638.688C46.1832 641.335 47.7173 643.182 50.1605 643.182ZM47.206 638.045C47.3139 636.42 48.4105 635.074 50.0071 635.074C51.5696 635.074 52.6662 636.364 52.6662 638.045H47.206ZM58.3665 643.199C59.821 643.199 60.7074 642.392 61.071 641.619H61.1335V643H62.1449V637.074C62.1449 634.733 60.3835 634.153 59.0483 634.153C57.7131 634.153 56.3381 634.682 55.7472 636.108L56.7074 636.455C57.0256 635.705 57.8153 635.062 59.0767 635.062C60.4006 635.062 61.1335 635.79 61.1335 636.983V637.188C61.1335 637.847 60.3153 637.858 58.8494 638.04C56.8778 638.284 55.4972 638.835 55.4972 640.562C55.4972 642.244 56.7812 643.199 58.3665 643.199ZM58.5028 642.273C57.3608 642.273 56.5085 641.665 56.5085 640.608C56.5085 639.551 57.3722 639.108 58.8494 638.926C59.5653 638.841 60.8381 638.682 61.1335 638.392V639.653C61.1335 641.085 60.1165 642.273 58.5028 642.273ZM65.8466 637.545C65.8466 636.023 66.8466 635.085 68.2216 635.085C69.5625 635.085 70.4261 635.983 70.4261 637.409V643H71.4375V637.347C71.4375 635.278 70.2386 634.159 68.4773 634.159C67.1989 634.159 66.3182 634.75 65.9091 635.642H65.8182V634.273H64.8352V643H65.8466V637.545ZM74.1122 643H75.1293V634.273H74.1122V643ZM74.6293 632.773C75.044 632.773 75.3906 632.443 75.3906 632.045C75.3906 631.648 75.044 631.318 74.6293 631.318C74.2145 631.318 73.8736 631.648 73.8736 632.045C73.8736 632.443 74.2145 632.773 74.6293 632.773ZM78.8153 637.545C78.8153 636.023 79.8153 635.085 81.1903 635.085C82.5312 635.085 83.3949 635.983 83.3949 637.409V643H84.4062V637.347C84.4062 635.278 83.2074 634.159 81.446 634.159C80.1676 634.159 79.2869 634.75 78.8778 635.642H78.7869V634.273H77.804V643H78.8153V637.545ZM90.3991 646.455C92.4673 646.455 94.0014 645.443 94.0014 643.227V634.273H93.0128V635.938H92.9105C92.5526 635.153 91.831 634.153 90.2287 634.153C88.0696 634.153 86.6207 635.96 86.6207 638.614C86.6207 641.29 88.1207 642.909 90.2116 642.909C91.7798 642.909 92.5469 642 92.8935 641.199H92.9844V643.165C92.9844 644.79 91.9446 645.545 90.3991 645.545C88.9048 645.545 88.1889 644.824 87.8196 644.159L86.9901 644.705C87.5014 645.705 88.6151 646.455 90.3991 646.455ZM90.331 641.983C88.598 641.983 87.6378 640.597 87.6378 638.597C87.6378 636.631 88.581 635.074 90.331 635.074C92.0412 635.074 93.0014 636.551 93.0014 638.597C93.0014 640.705 92.0128 641.983 90.331 641.983Z" fill="#444444"/>
<path d="M114.273 637L116.819 634.455C116.902 634.371 116.969 634.272 117.014 634.163C117.059 634.053 117.082 633.936 117.082 633.818C117.082 633.7 117.059 633.583 117.014 633.473C116.969 633.364 116.902 633.265 116.819 633.181C116.735 633.098 116.636 633.031 116.527 632.986C116.417 632.941 116.3 632.918 116.182 632.918C116.064 632.918 115.947 632.941 115.837 632.986C115.728 633.031 115.629 633.098 115.545 633.181L113 635.727L110.455 633.181C110.286 633.012 110.057 632.918 109.818 632.918C109.579 632.918 109.35 633.012 109.181 633.181C109.012 633.35 108.918 633.579 108.918 633.818C108.918 633.936 108.941 634.053 108.986 634.163C109.031 634.272 109.098 634.371 109.181 634.455L111.727 637L109.181 639.545C109.012 639.714 108.918 639.943 108.918 640.182C108.918 640.421 109.012 640.65 109.181 640.819C109.35 640.988 109.579 641.082 109.818 641.082C110.057 641.082 110.286 640.988 110.455 640.819L113 638.273L115.545 640.819C115.714 640.988 115.943 641.082 116.182 641.082C116.421 641.082 116.65 640.988 116.819 640.819C116.988 640.65 117.082 640.421 117.082 640.182C117.082 639.943 116.988 639.714 116.819 639.545L114.273 637ZM113 646C108.029 646 104 641.971 104 637C104 632.029 108.029 628 113 628C117.971 628 122 632.029 122 637C122 641.971 117.971 646 113 646Z" fill="#444444"/>
<rect x="16.5" y="618.5" width="115" height="37" rx="18.5" stroke="#444444"/>
<rect x="138.5" y="618.5" width="169" height="37" rx="18.5" fill="#EEEEEE"/>
<path d="M153.562 643L154.807 639.494H159.693L160.938 643H162.051L157.818 631.364H156.682L152.449 643H153.562ZM155.148 638.54L157.21 632.744H157.29L159.352 638.54H155.148ZM163.94 643H164.957V634.273H163.94V643ZM164.457 632.773C164.872 632.773 165.219 632.443 165.219 632.045C165.219 631.648 164.872 631.318 164.457 631.318C164.043 631.318 163.702 631.648 163.702 632.045C163.702 632.443 164.043 632.773 164.457 632.773ZM167.632 643H168.643V637.364C168.643 636.068 169.638 635.131 171.001 635.131C171.268 635.131 171.518 635.176 171.609 635.188V634.159C171.473 634.153 171.24 634.142 171.075 634.142C169.979 634.142 169.041 634.733 168.689 635.614H168.615V634.273H167.632V643ZM187.159 635C186.778 632.858 185.028 631.205 182.551 631.205C179.614 631.205 177.523 633.54 177.523 637.182C177.523 640.824 179.614 643.159 182.551 643.159C185.028 643.159 186.778 641.5 187.159 639.364H186.091C185.767 640.96 184.375 642.159 182.551 642.159C180.347 642.159 178.551 640.415 178.551 637.182C178.551 633.96 180.347 632.205 182.551 632.205C184.375 632.205 185.767 633.409 186.091 635H187.159ZM192.837 643.182C195.098 643.182 196.678 641.335 196.678 638.676C196.678 636 195.098 634.153 192.837 634.153C190.575 634.153 188.996 636 188.996 638.676C188.996 641.335 190.575 643.182 192.837 643.182ZM192.837 642.256C191.024 642.256 190.013 640.631 190.013 638.676C190.013 636.722 191.024 635.074 192.837 635.074C194.649 635.074 195.661 636.722 195.661 638.676C195.661 640.631 194.649 642.256 192.837 642.256ZM199.909 637.545C199.909 636.023 200.909 635.085 202.284 635.085C203.625 635.085 204.489 635.983 204.489 637.409V643H205.5V637.347C205.5 635.278 204.301 634.159 202.54 634.159C201.261 634.159 200.381 634.75 199.972 635.642H199.881V634.273H198.898V643H199.909V637.545ZM211.305 643.182C212.891 643.182 213.629 642.176 213.987 641.381H214.107V643H215.095V631.364H214.078V635.938H213.987C213.641 635.153 212.919 634.153 211.322 634.153C209.169 634.153 207.714 635.972 207.714 638.659C207.714 641.369 209.163 643.182 211.305 643.182ZM211.425 642.256C209.686 642.256 208.732 640.676 208.732 638.642C208.732 636.631 209.675 635.074 211.425 635.074C213.129 635.074 214.095 636.551 214.095 638.642C214.095 640.75 213.118 642.256 211.425 642.256ZM217.987 643H219.004V634.273H217.987V643ZM218.504 632.773C218.919 632.773 219.266 632.443 219.266 632.045C219.266 631.648 218.919 631.318 218.504 631.318C218.089 631.318 217.749 631.648 217.749 632.045C217.749 632.443 218.089 632.773 218.504 632.773ZM225.116 634.273H223.27V632.182H222.253V634.273H220.952V635.153H222.253V640.96C222.253 642.386 223.378 643.131 224.497 643.131C224.918 643.131 225.202 643.051 225.395 642.977L225.179 642.062C225.037 642.102 224.855 642.142 224.588 642.142C223.901 642.142 223.27 641.818 223.27 640.722V635.153H225.116V634.273ZM227.425 643H228.442V634.273H227.425V643ZM227.942 632.773C228.357 632.773 228.703 632.443 228.703 632.045C228.703 631.648 228.357 631.318 227.942 631.318C227.527 631.318 227.186 631.648 227.186 632.045C227.186 632.443 227.527 632.773 227.942 632.773ZM234.509 643.182C236.77 643.182 238.349 641.335 238.349 638.676C238.349 636 236.77 634.153 234.509 634.153C232.247 634.153 230.668 636 230.668 638.676C230.668 641.335 232.247 643.182 234.509 643.182ZM234.509 642.256C232.696 642.256 231.685 640.631 231.685 638.676C231.685 636.722 232.696 635.074 234.509 635.074C236.321 635.074 237.332 636.722 237.332 638.676C237.332 640.631 236.321 642.256 234.509 642.256ZM241.581 637.545C241.581 636.023 242.581 635.085 243.956 635.085C245.297 635.085 246.161 635.983 246.161 637.409V643H247.172V637.347C247.172 635.278 245.973 634.159 244.212 634.159C242.933 634.159 242.053 634.75 241.643 635.642H241.553V634.273H240.57V643H241.581V637.545ZM249.847 643H250.864V634.273H249.847V643ZM250.364 632.773C250.778 632.773 251.125 632.443 251.125 632.045C251.125 631.648 250.778 631.318 250.364 631.318C249.949 631.318 249.608 631.648 249.608 632.045C249.608 632.443 249.949 632.773 250.364 632.773ZM254.55 637.545C254.55 636.023 255.55 635.085 256.925 635.085C258.266 635.085 259.129 635.983 259.129 637.409V643H260.141V637.347C260.141 635.278 258.942 634.159 257.18 634.159C255.902 634.159 255.021 634.75 254.612 635.642H254.521V634.273H253.538V643H254.55V637.545ZM266.134 646.455C268.202 646.455 269.736 645.443 269.736 643.227V634.273H268.747V635.938H268.645C268.287 635.153 267.565 634.153 265.963 634.153C263.804 634.153 262.355 635.96 262.355 638.614C262.355 641.29 263.855 642.909 265.946 642.909C267.514 642.909 268.281 642 268.628 641.199H268.719V643.165C268.719 644.79 267.679 645.545 266.134 645.545C264.639 645.545 263.923 644.824 263.554 644.159L262.724 644.705C263.236 645.705 264.349 646.455 266.134 646.455ZM266.065 641.983C264.332 641.983 263.372 640.597 263.372 638.597C263.372 636.631 264.315 635.074 266.065 635.074C267.776 635.074 268.736 636.551 268.736 638.597C268.736 640.705 267.747 641.983 266.065 641.983Z" fill="#444444"/>
<path d="M290.273 637L292.819 634.455C292.902 634.371 292.969 634.272 293.014 634.163C293.059 634.053 293.082 633.936 293.082 633.818C293.082 633.7 293.059 633.583 293.014 633.473C292.969 633.364 292.902 633.265 292.819 633.181C292.735 633.098 292.636 633.031 292.527 632.986C292.417 632.941 292.3 632.918 292.182 632.918C292.064 632.918 291.947 632.941 291.837 632.986C291.728 633.031 291.629 633.098 291.545 633.181L289 635.727L286.455 633.181C286.286 633.012 286.057 632.918 285.818 632.918C285.579 632.918 285.35 633.012 285.181 633.181C285.012 633.35 284.918 633.579 284.918 633.818C284.918 633.936 284.941 634.053 284.986 634.163C285.031 634.272 285.098 634.371 285.181 634.455L287.727 637L285.181 639.545C285.012 639.714 284.918 639.943 284.918 640.182C284.918 640.421 285.012 640.65 285.181 640.819C285.35 640.988 285.579 641.082 285.818 641.082C286.057 641.082 286.286 640.988 286.455 640.819L289 638.273L291.545 640.819C291.714 640.988 291.943 641.082 292.182 641.082C292.421 641.082 292.65 640.988 292.819 640.819C292.988 640.65 293.082 640.421 293.082 640.182C293.082 639.943 292.988 639.714 292.819 639.545L290.273 637ZM289 646C284.029 646 280 641.971 280 637C280 632.029 284.029 628 289 628C293.971 628 298 632.029 298 637C298 641.971 293.971 646 289 646Z" fill="#444444"/>
<rect x="138.5" y="618.5" width="169" height="37" rx="18.5" stroke="#444444"/>
<rect x="16.5" y="666.5" width="106" height="37" rx="18.5" fill="#EEEEEE"/>
<rect x="16.5" y="666.5" width="106" height="37" rx="18.5" stroke="#444444"/>
<rect x="129.5" y="666.5" width="122" height="37" rx="18.5" fill="#EEEEEE"/>
<rect x="129.5" y="666.5" width="122" height="37" rx="18.5" stroke="#444444"/>
<rect x="375" y="68" width="375" height="68" transform="rotate(-180 375 68)" fill="white"/>
<path d="M154.927 42H158.089V34.5852H165.342V31.9347H158.089V27.196H166.109V24.5455H154.927V42ZM168.373 42H171.459V28.9091H168.373V42ZM169.924 27.0511C170.905 27.0511 171.706 26.3011 171.706 25.3807C171.706 24.4517 170.905 23.7017 169.924 23.7017C168.936 23.7017 168.135 24.4517 168.135 25.3807C168.135 26.3011 168.936 27.0511 169.924 27.0511ZM177.236 24.5455H174.151V42H177.236V24.5455ZM186.466 28.9091H183.884V25.7727H180.798V28.9091H178.94V31.2955H180.798V38.5739C180.781 41.0369 182.571 42.2472 184.889 42.179C185.767 42.1534 186.372 41.983 186.705 41.8722L186.185 39.4602C186.014 39.5028 185.665 39.5795 185.281 39.5795C184.506 39.5795 183.884 39.3068 183.884 38.0625V31.2955H186.466V28.9091ZM194.221 42.2557C197.272 42.2557 199.369 40.7642 199.914 38.4886L197.033 38.1648C196.616 39.2727 195.593 39.8523 194.264 39.8523C192.269 39.8523 190.948 38.5398 190.923 36.2983H200.042V35.3523C200.042 30.7585 197.281 28.7386 194.059 28.7386C190.309 28.7386 187.863 31.4915 187.863 35.5312C187.863 39.6392 190.275 42.2557 194.221 42.2557ZM190.931 34.2188C191.025 32.5483 192.261 31.142 194.102 31.142C195.874 31.142 197.068 32.4375 197.085 34.2188H190.931ZM202.172 42H205.257V34.304C205.257 32.642 206.51 31.4659 208.206 31.4659C208.726 31.4659 209.374 31.5597 209.638 31.6449V28.8068C209.357 28.7557 208.871 28.7216 208.53 28.7216C207.03 28.7216 205.777 29.5739 205.3 31.0909H205.164V28.9091H202.172V42ZM221.554 32.3693C221.128 30.1534 219.355 28.7386 216.287 28.7386C213.134 28.7386 210.986 30.2898 210.995 32.7102C210.986 34.6193 212.162 35.8807 214.676 36.4006L216.909 36.8693C218.111 37.1335 218.674 37.6193 218.674 38.3608C218.674 39.2557 217.702 39.929 216.236 39.929C214.821 39.929 213.901 39.3153 213.637 38.1392L210.628 38.429C211.012 40.8324 213.032 42.2557 216.245 42.2557C219.517 42.2557 221.827 40.5597 221.836 38.0795C221.827 36.2131 220.625 35.071 218.154 34.5341L215.921 34.0568C214.591 33.7585 214.063 33.2983 214.071 32.5398C214.063 31.6534 215.043 31.0398 216.33 31.0398C217.753 31.0398 218.503 31.8153 218.742 32.6761L221.554 32.3693Z" fill="#555555"/>
<line x1="341" y1="41.8787" x2="355.849" y2="27.0294" stroke="#BBBBBB" stroke-width="3" stroke-linecap="round"/>
<line x1="341.121" y1="27" x2="355.971" y2="41.8492" stroke="#BBBBBB" stroke-width="3" stroke-linecap="round"/>
<path d="M375 67.5L3.05176e-05 67.5" stroke="#DDDDDD"/>
</g>
<defs>
<clipPath id="clip0">
<rect width="375" height="669" fill="white"/>
</clipPath>
</defs>
</svg>
