<svg width="375" height="667" viewBox="0 0 375 667" fill="none" xmlns="http://www.w3.org/2000/svg">
<g clip-path="url(#clip0)">
<rect width="375" height="667" fill="white"/>
<path opacity="0.5" d="M37.7045 224H38.5852L39.1364 220.642H40.983L41.1307 219.767H39.2784L39.8011 216.597H41.6591L41.8011 215.722H39.9432L40.4943 212.364H39.6136L39.0625 215.722H35.8523L36.4034 212.364H35.5227L34.9716 215.722H33.1193L32.9773 216.597H34.8295L34.3068 219.767H32.4489L32.3011 220.642H34.1648L33.6136 224H34.4943L35.0455 220.642H38.2557L37.7045 224ZM35.1875 219.767L35.7102 216.597H38.9205L38.3977 219.767H35.1875ZM51.3366 224.182C53.598 224.182 55.1776 222.335 55.1776 219.676C55.1776 217 53.598 215.153 51.3366 215.153C49.0753 215.153 47.4957 217 47.4957 219.676C47.4957 222.335 49.0753 224.182 51.3366 224.182ZM51.3366 223.256C49.5241 223.256 48.5128 221.631 48.5128 219.676C48.5128 217.722 49.5241 216.074 51.3366 216.074C53.1491 216.074 54.1605 217.722 54.1605 219.676C54.1605 221.631 53.1491 223.256 51.3366 223.256ZM60.9886 215.273H59.0568V214.205C59.0568 213.29 59.5511 212.778 60.4318 212.778C60.767 212.778 60.9716 212.852 61.125 212.903L61.4205 212.017C61.2159 211.932 60.875 211.824 60.3409 211.824C59.1534 211.824 58.0398 212.585 58.0398 213.994V215.273H56.6989V216.153H58.0398V224H59.0511L59.0568 216.153H60.9886V215.273ZM67.5071 224H68.5185V218.409C68.5185 217.051 69.4219 216.085 70.6321 216.085C71.8253 216.085 72.5185 216.881 72.5185 218.062V224H73.5526V218.256C73.5526 217 74.3026 216.085 75.6321 216.085C76.7855 216.085 77.5526 216.778 77.5526 218.153V224H78.5639V218.153C78.5639 216.199 77.5582 215.159 75.9389 215.159C74.6662 215.159 73.7457 215.778 73.3537 216.744H73.2798C72.8935 215.756 72.1264 215.159 70.9219 215.159C69.7798 215.159 68.9276 215.71 68.581 216.614H68.4901V215.273H67.5071V224ZM84.6335 224.182C86.8949 224.182 88.4744 222.335 88.4744 219.676C88.4744 217 86.8949 215.153 84.6335 215.153C82.3722 215.153 80.7926 217 80.7926 219.676C80.7926 222.335 82.3722 224.182 84.6335 224.182ZM84.6335 223.256C82.821 223.256 81.8097 221.631 81.8097 219.676C81.8097 217.722 82.821 216.074 84.6335 216.074C86.446 216.074 87.4574 217.722 87.4574 219.676C87.4574 221.631 86.446 223.256 84.6335 223.256ZM91.706 218.545C91.706 217.023 92.706 216.085 94.081 216.085C95.4219 216.085 96.2855 216.983 96.2855 218.409V224H97.2969V218.347C97.2969 216.278 96.098 215.159 94.3366 215.159C93.0582 215.159 92.1776 215.75 91.7685 216.642H91.6776V215.273H90.6946V224H91.706V218.545ZM103.398 215.273H101.551V213.182H100.534V215.273H99.233V216.153H100.534V221.96C100.534 223.386 101.659 224.131 102.778 224.131C103.199 224.131 103.483 224.051 103.676 223.977L103.46 223.062C103.318 223.102 103.136 223.142 102.869 223.142C102.182 223.142 101.551 222.818 101.551 221.722V216.153H103.398V215.273ZM106.893 218.545C106.893 217.023 107.916 216.085 109.314 216.085C110.666 216.085 111.53 216.972 111.53 218.409V224H112.547V218.347C112.547 216.267 111.342 215.159 109.57 215.159C108.251 215.159 107.393 215.739 106.984 216.642H106.893V212.364H105.882V224H106.893V218.545ZM121.074 217.188C120.648 215.926 119.716 215.153 118.119 215.153C116.358 215.153 115.08 216.159 115.08 217.597C115.08 218.767 115.79 219.562 117.307 219.926L118.733 220.267C119.693 220.494 120.153 220.989 120.153 221.688C120.153 222.597 119.284 223.273 117.943 223.273C116.75 223.273 116.006 222.733 115.761 221.699L114.79 221.938C115.097 223.392 116.25 224.182 117.96 224.182C119.881 224.182 121.199 223.125 121.199 221.642C121.199 220.477 120.466 219.699 119.006 219.341L117.688 219.017C116.602 218.744 116.097 218.307 116.097 217.551C116.097 216.665 116.943 216.045 118.119 216.045C119.295 216.045 119.875 216.665 120.148 217.449L121.074 217.188Z" fill="#444444"/>
<rect x="16.5" y="193.5" width="342" height="49" rx="5.5" stroke="#BBBBBB"/>
<rect x="375" y="64" width="375" height="68" transform="rotate(-180 375 64)" fill="white"/>
<path d="M104.074 38H107.236V31.608H110.457L113.883 38H117.412L113.636 31.0795C115.69 30.2528 116.773 28.4972 116.773 26.1278C116.773 22.7955 114.625 20.5455 110.619 20.5455H104.074V38ZM107.236 28.983V23.1875H110.133C112.494 23.1875 113.551 24.2699 113.551 26.1278C113.551 27.9858 112.494 28.983 110.15 28.983H107.236ZM124.675 38.2557C127.726 38.2557 129.822 36.7642 130.368 34.4886L127.487 34.1648C127.07 35.2727 126.047 35.8523 124.717 35.8523C122.723 35.8523 121.402 34.5398 121.376 32.2983H130.496V31.3523C130.496 26.7585 127.734 24.7386 124.513 24.7386C120.763 24.7386 118.317 27.4915 118.317 31.5312C118.317 35.6392 120.729 38.2557 124.675 38.2557ZM121.385 30.2188C121.479 28.5483 122.715 27.142 124.555 27.142C126.328 27.142 127.521 28.4375 127.538 30.2188H121.385ZM135.711 30.3295C135.711 28.4375 136.853 27.3466 138.481 27.3466C140.075 27.3466 141.029 28.3949 141.029 30.142V38H144.114V29.6648C144.123 26.5284 142.333 24.7386 139.632 24.7386C137.671 24.7386 136.325 25.6761 135.728 27.1335H135.575V24.9091H132.626V38H135.711V30.3295ZM153.308 24.9091H150.725V21.7727H147.64V24.9091H145.782V27.2955H147.64V34.5739C147.623 37.0369 149.413 38.2472 151.731 38.179C152.609 38.1534 153.214 37.983 153.546 37.8722L153.027 35.4602C152.856 35.5028 152.507 35.5795 152.123 35.5795C151.348 35.5795 150.725 35.3068 150.725 34.0625V27.2955H153.308V24.9091ZM159.175 38.2642C161.229 38.2642 162.456 37.3011 163.019 36.2017H163.121V38H166.087V29.2386C166.087 25.7784 163.266 24.7386 160.769 24.7386C158.016 24.7386 155.902 25.9659 155.221 28.3523L158.101 28.7614C158.408 27.8665 159.277 27.0994 160.786 27.0994C162.218 27.0994 163.002 27.8324 163.002 29.1193V29.1705C163.002 30.0568 162.073 30.0994 159.763 30.3466C157.223 30.6193 154.794 31.3778 154.794 34.3267C154.794 36.9006 156.678 38.2642 159.175 38.2642ZM159.976 35.9972C158.689 35.9972 157.769 35.4091 157.769 34.2756C157.769 33.0909 158.8 32.5966 160.181 32.4006C160.99 32.2898 162.61 32.0852 163.01 31.7614V33.304C163.01 34.7614 161.834 35.9972 159.976 35.9972ZM171.795 20.5455H168.709V38H171.795V20.5455ZM186.011 38C191.33 38 194.483 34.7102 194.483 29.2557C194.483 23.8182 191.33 20.5455 186.131 20.5455H180.097V38H186.011ZM183.259 35.2642V23.2812H185.952C189.497 23.2812 191.347 25.2585 191.347 29.2557C191.347 33.2699 189.497 35.2642 185.858 35.2642H183.259ZM205.215 32.4943C205.215 34.4886 203.791 35.4773 202.428 35.4773C200.945 35.4773 199.956 34.429 199.956 32.767V24.9091H196.871V33.2443C196.871 36.3892 198.661 38.1705 201.234 38.1705C203.195 38.1705 204.575 37.1392 205.172 35.6733H205.308V38H208.3V24.9091H205.215V32.4943ZM210.992 38H214.078V30.304C214.078 28.642 215.33 27.4659 217.027 27.4659C217.546 27.4659 218.194 27.5597 218.458 27.6449V24.8068C218.177 24.7557 217.691 24.7216 217.35 24.7216C215.85 24.7216 214.598 25.5739 214.12 27.0909H213.984V24.9091H210.992V38ZM223.537 38.2642C225.591 38.2642 226.819 37.3011 227.381 36.2017H227.483V38H230.449V29.2386C230.449 25.7784 227.628 24.7386 225.131 24.7386C222.378 24.7386 220.265 25.9659 219.583 28.3523L222.463 28.7614C222.77 27.8665 223.64 27.0994 225.148 27.0994C226.58 27.0994 227.364 27.8324 227.364 29.1193V29.1705C227.364 30.0568 226.435 30.0994 224.125 30.3466C221.586 30.6193 219.157 31.3778 219.157 34.3267C219.157 36.9006 221.04 38.2642 223.537 38.2642ZM224.338 35.9972C223.051 35.9972 222.131 35.4091 222.131 34.2756C222.131 33.0909 223.162 32.5966 224.543 32.4006C225.353 32.2898 226.972 32.0852 227.372 31.7614V33.304C227.372 34.7614 226.196 35.9972 224.338 35.9972ZM239.608 24.9091H237.026V21.7727H233.941V24.9091H232.083V27.2955H233.941V34.5739C233.924 37.0369 235.714 38.2472 238.032 38.179C238.91 38.1534 239.515 37.983 239.847 37.8722L239.327 35.4602C239.157 35.5028 238.807 35.5795 238.424 35.5795C237.648 35.5795 237.026 35.3068 237.026 34.0625V27.2955H239.608V24.9091ZM241.709 38H244.794V24.9091H241.709V38ZM243.26 23.0511C244.24 23.0511 245.041 22.3011 245.041 21.3807C245.041 20.4517 244.24 19.7017 243.26 19.7017C242.271 19.7017 241.47 20.4517 241.47 21.3807C241.47 22.3011 242.271 23.0511 243.26 23.0511ZM253.197 38.2557C257.032 38.2557 259.469 35.554 259.469 31.5057C259.469 27.4489 257.032 24.7386 253.197 24.7386C249.361 24.7386 246.924 27.4489 246.924 31.5057C246.924 35.554 249.361 38.2557 253.197 38.2557ZM253.214 35.7841C251.092 35.7841 250.052 33.892 250.052 31.4972C250.052 29.1023 251.092 27.1847 253.214 27.1847C255.302 27.1847 256.342 29.1023 256.342 31.4972C256.342 33.892 255.302 35.7841 253.214 35.7841ZM264.693 30.3295C264.693 28.4375 265.835 27.3466 267.463 27.3466C269.057 27.3466 270.011 28.3949 270.011 30.142V38H273.097V29.6648C273.105 26.5284 271.315 24.7386 268.614 24.7386C266.653 24.7386 265.307 25.6761 264.71 27.1335H264.557V24.9091H261.608V38H264.693V30.3295Z" fill="#444444"/>
<line x1="341" y1="37.8787" x2="355.849" y2="23.0294" stroke="#BBBBBB" stroke-width="3" stroke-linecap="round"/>
<line x1="341.121" y1="23" x2="355.971" y2="37.8492" stroke="#BBBBBB" stroke-width="3" stroke-linecap="round"/>
<rect y="64" width="375" height="4" fill="#DDDDDD"/>
<rect y="64" width="375" height="4" fill="#444444"/>
<rect y="599" width="375" height="68" fill="white"/>
<path d="M375 599H3.05176e-05" stroke="#DDDDDD"/>
<g filter="url(#filter0_d)">
<path d="M227 614C227 610.686 229.686 608 233 608H377C380.314 608 383 610.686 383 614V652C383 655.314 380.314 658 377 658H233C229.686 658 227 655.314 227 652V614Z" fill="#BBBBBB"/>
<path d="M265.943 631.148C265.545 628.659 263.597 627.205 261.136 627.205C258.125 627.205 255.903 629.46 255.903 633.182C255.903 636.903 258.114 639.159 261.136 639.159C263.693 639.159 265.562 637.557 265.943 635.256L264.17 635.25C263.869 636.739 262.619 637.557 261.148 637.557C259.153 637.557 257.648 636.028 257.648 633.182C257.648 630.358 259.148 628.807 261.153 628.807C262.636 628.807 263.881 629.642 264.17 631.148H265.943ZM271.584 639.176C274.044 639.176 275.652 637.375 275.652 634.676C275.652 631.96 274.044 630.159 271.584 630.159C269.124 630.159 267.516 631.96 267.516 634.676C267.516 637.375 269.124 639.176 271.584 639.176ZM271.589 637.75C269.982 637.75 269.232 636.347 269.232 634.67C269.232 633 269.982 631.58 271.589 631.58C273.186 631.58 273.936 633 273.936 634.67C273.936 636.347 273.186 637.75 271.589 637.75ZM279.247 633.818C279.247 632.426 280.099 631.631 281.281 631.631C282.435 631.631 283.134 632.386 283.134 633.653V639H284.832V633.449C284.832 631.29 283.645 630.159 281.861 630.159C280.548 630.159 279.69 630.767 279.287 631.693H279.179V630.273H277.548V639H279.247V633.818ZM291.185 630.273H289.395V628.182H287.696V630.273H286.418V631.636H287.696V636.79C287.69 638.375 288.901 639.142 290.241 639.114C290.781 639.108 291.145 639.006 291.344 638.932L291.037 637.528C290.923 637.551 290.713 637.602 290.44 637.602C289.889 637.602 289.395 637.42 289.395 636.438V631.636H291.185V630.273ZM295.604 639.193C297.047 639.193 297.859 638.46 298.183 637.807H298.251V639H299.911V633.205C299.911 630.665 297.911 630.159 296.524 630.159C294.945 630.159 293.49 630.795 292.922 632.386L294.518 632.75C294.768 632.131 295.405 631.534 296.547 631.534C297.643 631.534 298.206 632.108 298.206 633.097V633.136C298.206 633.756 297.57 633.744 296.001 633.926C294.348 634.119 292.655 634.551 292.655 636.534C292.655 638.25 293.945 639.193 295.604 639.193ZM295.973 637.83C295.013 637.83 294.32 637.398 294.32 636.557C294.32 635.648 295.126 635.324 296.109 635.193C296.661 635.119 297.967 634.972 298.212 634.727V635.852C298.212 636.886 297.388 637.83 295.973 637.83ZM305.849 639.176C307.912 639.176 309.247 637.938 309.435 636.239H307.781C307.565 637.182 306.832 637.739 305.861 637.739C304.423 637.739 303.497 636.54 303.497 634.636C303.497 632.767 304.44 631.591 305.861 631.591C306.94 631.591 307.599 632.273 307.781 633.091H309.435C309.253 631.33 307.815 630.159 305.832 630.159C303.372 630.159 301.781 632.011 301.781 634.676C301.781 637.307 303.315 639.176 305.849 639.176ZM315.325 630.273H313.536V628.182H311.837V630.273H310.558V631.636H311.837V636.79C311.831 638.375 313.041 639.142 314.382 639.114C314.922 639.108 315.286 639.006 315.484 638.932L315.178 637.528C315.064 637.551 314.854 637.602 314.581 637.602C314.03 637.602 313.536 637.42 313.536 636.438V631.636H315.325V630.273ZM323.138 633.818C323.138 632.426 324.018 631.631 325.229 631.631C326.399 631.631 327.098 632.375 327.098 633.653V639H328.797V633.449C328.797 631.273 327.604 630.159 325.808 630.159C324.45 630.159 323.632 630.75 323.223 631.693H323.115V627.364H321.439V639H323.138V633.818ZM334.74 639.176C337.2 639.176 338.808 637.375 338.808 634.676C338.808 631.96 337.2 630.159 334.74 630.159C332.28 630.159 330.672 631.96 330.672 634.676C330.672 637.375 332.28 639.176 334.74 639.176ZM334.746 637.75C333.138 637.75 332.388 636.347 332.388 634.67C332.388 633 333.138 631.58 334.746 631.58C336.342 631.58 337.092 633 337.092 634.67C337.092 636.347 336.342 637.75 334.746 637.75ZM347.244 632.403C346.892 631.045 345.83 630.159 343.943 630.159C341.972 630.159 340.574 631.199 340.574 632.744C340.574 633.983 341.324 634.807 342.96 635.17L344.438 635.494C345.278 635.682 345.67 636.057 345.67 636.602C345.67 637.278 344.949 637.807 343.835 637.807C342.818 637.807 342.165 637.369 341.96 636.511L340.318 636.761C340.602 638.307 341.886 639.176 343.847 639.176C345.955 639.176 347.415 638.057 347.415 636.477C347.415 635.244 346.631 634.483 345.028 634.114L343.642 633.795C342.682 633.568 342.267 633.244 342.273 632.653C342.267 631.983 342.994 631.506 343.96 631.506C345.017 631.506 345.506 632.091 345.705 632.676L347.244 632.403ZM353.357 630.273H351.567V628.182H349.868V630.273H348.589V631.636H349.868V636.79C349.862 638.375 351.072 639.142 352.413 639.114C352.953 639.108 353.317 639.006 353.516 638.932L353.209 637.528C353.095 637.551 352.885 637.602 352.612 637.602C352.061 637.602 351.567 637.42 351.567 636.438V631.636H353.357V630.273Z" fill="white"/>
</g>
<path d="M23.1176 644.182H24.9244L24.9329 642.23C28.5891 641.966 30.6857 639.955 30.6943 637.099C30.6857 634.074 28.1886 632.693 25.5636 632.071L25.0011 631.926L25.0352 627.06C26.3988 627.298 27.2766 628.116 27.413 629.344H30.4556C30.4045 626.634 28.2738 624.656 25.0522 624.349L25.0607 622.364H23.2539L23.2454 624.349C20.0494 624.673 17.7482 626.634 17.7568 629.455C17.7568 631.96 19.538 633.401 22.4102 634.142L23.1772 634.338L23.1431 639.494C21.6176 639.256 20.5181 638.386 20.4073 636.844H17.2965C17.4159 640.04 19.6147 641.94 23.1261 642.23L23.1176 644.182ZM24.9499 639.494L24.984 634.815C26.5352 635.267 27.5238 635.864 27.5323 637.074C27.5238 638.335 26.5096 639.239 24.9499 639.494ZM23.1943 631.466C22.0181 631.091 20.9443 630.469 20.9613 629.259C20.9698 628.159 21.7965 627.307 23.2284 627.06L23.1943 631.466ZM39.1269 642.239C42.8599 642.239 45.5786 640.099 45.5701 637.151C45.5786 634.969 44.215 633.401 41.7689 633.051V632.915C43.661 632.506 44.9309 631.099 44.9224 629.139C44.9309 626.48 42.6638 624.307 39.178 624.307C35.786 624.307 33.161 626.327 33.0928 629.25H36.1354C36.1866 627.784 37.5502 626.872 39.161 626.872C40.7888 626.872 41.8712 627.861 41.8627 629.327C41.8712 630.852 40.6099 631.866 38.803 631.866H37.2604V634.304H38.803C41.0104 634.304 42.3229 635.412 42.3144 636.989C42.3229 638.531 40.9849 639.588 39.1184 639.588C37.3627 639.588 36.0076 638.676 35.9309 637.253H32.7263C32.8116 640.202 35.4451 642.239 39.1269 642.239ZM54.4672 642.332C58.6774 642.341 61.1916 639.017 61.1916 633.29C61.1916 627.597 58.6604 624.307 54.4672 624.307C50.274 624.307 47.7513 627.588 47.7428 633.29C47.7428 639.009 50.257 642.332 54.4672 642.332ZM54.4672 639.665C52.2939 639.665 50.9303 637.483 50.9388 633.29C50.9473 629.131 52.3024 626.94 54.4672 626.94C56.6405 626.94 57.9956 629.131 58.0041 633.29C58.0041 637.483 56.649 639.665 54.4672 639.665ZM69.995 642.332C74.2053 642.341 76.7195 639.017 76.7195 633.29C76.7195 627.597 74.1882 624.307 69.995 624.307C65.8018 624.307 63.2791 627.588 63.2706 633.29C63.2706 639.009 65.7848 642.332 69.995 642.332ZM69.995 639.665C67.8217 639.665 66.4581 637.483 66.4666 633.29C66.4751 629.131 67.8303 626.94 69.995 626.94C72.1683 626.94 73.5234 629.131 73.532 633.29C73.532 637.483 72.1768 639.665 69.995 639.665Z" fill="#444444"/>
<path d="M87.3793 628.818H86.4304L82.6804 642.75H83.6293L87.3793 628.818ZM93.6321 641H94.6435V635.409C94.6435 634.051 95.5469 633.085 96.7571 633.085C97.9503 633.085 98.6435 633.881 98.6435 635.062V641H99.6776V635.256C99.6776 634 100.428 633.085 101.757 633.085C102.911 633.085 103.678 633.778 103.678 635.153V641H104.689V635.153C104.689 633.199 103.683 632.159 102.064 632.159C100.791 632.159 99.8707 632.778 99.4787 633.744H99.4048C99.0185 632.756 98.2514 632.159 97.0469 632.159C95.9048 632.159 95.0526 632.71 94.706 633.614H94.6151V632.273H93.6321V641ZM110.759 641.182C113.02 641.182 114.599 639.335 114.599 636.676C114.599 634 113.02 632.153 110.759 632.153C108.497 632.153 106.918 634 106.918 636.676C106.918 639.335 108.497 641.182 110.759 641.182ZM110.759 640.256C108.946 640.256 107.935 638.631 107.935 636.676C107.935 634.722 108.946 633.074 110.759 633.074C112.571 633.074 113.582 634.722 113.582 636.676C113.582 638.631 112.571 640.256 110.759 640.256ZM117.831 635.545C117.831 634.023 118.831 633.085 120.206 633.085C121.547 633.085 122.411 633.983 122.411 635.409V641H123.422V635.347C123.422 633.278 122.223 632.159 120.462 632.159C119.183 632.159 118.303 632.75 117.893 633.642H117.803V632.273H116.82V641H117.831V635.545ZM129.523 632.273H127.676V630.182H126.659V632.273H125.358V633.153H126.659V638.96C126.659 640.386 127.784 641.131 128.903 641.131C129.324 641.131 129.608 641.051 129.801 640.977L129.585 640.062C129.443 640.102 129.261 640.142 128.994 640.142C128.307 640.142 127.676 639.818 127.676 638.722V633.153H129.523V632.273ZM133.018 635.545C133.018 634.023 134.041 633.085 135.439 633.085C136.791 633.085 137.655 633.972 137.655 635.409V641H138.672V635.347C138.672 633.267 137.467 632.159 135.695 632.159C134.376 632.159 133.518 632.739 133.109 633.642H133.018V629.364H132.007V641H133.018V635.545Z" fill="#444444"/>
<path d="M17.7216 139H20.8835V131.585H28.9716V139H32.142V121.545H28.9716V128.935H20.8835V121.545H17.7216V139ZM40.6748 139.256C44.5101 139.256 46.9476 136.554 46.9476 132.506C46.9476 128.449 44.5101 125.739 40.6748 125.739C36.8396 125.739 34.4021 128.449 34.4021 132.506C34.4021 136.554 36.8396 139.256 40.6748 139.256ZM40.6919 136.784C38.5697 136.784 37.5299 134.892 37.5299 132.497C37.5299 130.102 38.5697 128.185 40.6919 128.185C42.7799 128.185 43.8197 130.102 43.8197 132.497C43.8197 134.892 42.7799 136.784 40.6919 136.784ZM51.4363 139H54.6579L57.1124 130.153H57.2914L59.746 139H62.959L66.6664 125.909H63.513L61.246 135.062H61.1181L58.7659 125.909H55.6551L53.3028 135.114H53.1835L50.8823 125.909H47.7374L51.4363 139ZM76.8989 121.545H73.8137V139H76.8989V121.545ZM85.3017 139.256C89.1369 139.256 91.5744 136.554 91.5744 132.506C91.5744 128.449 89.1369 125.739 85.3017 125.739C81.4665 125.739 79.029 128.449 79.029 132.506C79.029 136.554 81.4665 139.256 85.3017 139.256ZM85.3187 136.784C83.1966 136.784 82.1568 134.892 82.1568 132.497C82.1568 130.102 83.1966 128.185 85.3187 128.185C87.4068 128.185 88.4466 130.102 88.4466 132.497C88.4466 134.892 87.4068 136.784 85.3187 136.784ZM96.7983 131.33C96.7983 129.438 97.9403 128.347 99.5682 128.347C101.162 128.347 102.116 129.395 102.116 131.142V139H105.202V130.665C105.21 127.528 103.42 125.739 100.719 125.739C98.7585 125.739 97.4119 126.676 96.8153 128.134H96.6619V125.909H93.713V139H96.7983V131.33ZM113.551 144.182C117.088 144.182 119.696 142.562 119.696 139.213V125.909H116.653V128.074H116.483C116.014 127.128 115.034 125.739 112.725 125.739C109.699 125.739 107.321 128.108 107.321 132.412C107.321 136.682 109.699 138.812 112.716 138.812C114.957 138.812 116.006 137.611 116.483 136.648H116.636V139.128C116.636 141.054 115.358 141.847 113.602 141.847C111.744 141.847 110.926 140.969 110.551 140.202L107.773 140.875C108.335 142.707 110.219 144.182 113.551 144.182ZM113.577 136.392C111.54 136.392 110.466 134.807 110.466 132.395C110.466 130.017 111.523 128.27 113.577 128.27C115.563 128.27 116.653 129.915 116.653 132.395C116.653 134.892 115.546 136.392 113.577 136.392ZM130.553 139H133.774L136.229 130.153H136.408L138.863 139H142.076L145.783 125.909H142.63L140.363 135.062H140.235L137.882 125.909H134.772L132.419 135.114H132.3L129.999 125.909H126.854L130.553 139ZM147.457 139H150.542V125.909H147.457V139ZM149.008 124.051C149.988 124.051 150.789 123.301 150.789 122.381C150.789 121.452 149.988 120.702 149.008 120.702C148.02 120.702 147.218 121.452 147.218 122.381C147.218 123.301 148.02 124.051 149.008 124.051ZM156.32 121.545H153.235V139H156.32V121.545ZM162.098 121.545H159.013V139H162.098V121.545ZM172.181 143.909C174.585 143.909 175.974 142.673 176.715 140.585L181.974 125.926L178.676 125.909L175.65 135.795H175.514L172.497 125.909H169.224L173.971 139.273L173.707 139.98C173.136 141.472 172.232 141.574 170.886 141.182L170.17 143.585C170.588 143.756 171.338 143.909 172.181 143.909ZM188.9 139.256C192.735 139.256 195.173 136.554 195.173 132.506C195.173 128.449 192.735 125.739 188.9 125.739C185.065 125.739 182.627 128.449 182.627 132.506C182.627 136.554 185.065 139.256 188.9 139.256ZM188.917 136.784C186.795 136.784 185.755 134.892 185.755 132.497C185.755 130.102 186.795 128.185 188.917 128.185C191.005 128.185 192.045 130.102 192.045 132.497C192.045 134.892 191.005 136.784 188.917 136.784ZM205.655 133.494C205.655 135.489 204.232 136.477 202.868 136.477C201.385 136.477 200.397 135.429 200.397 133.767V125.909H197.311V134.244C197.311 137.389 199.101 139.17 201.675 139.17C203.635 139.17 205.016 138.139 205.613 136.673H205.749V139H208.74V125.909H205.655V133.494ZM217.043 139H220.077V136.938H220.256C220.741 137.892 221.756 139.23 224.006 139.23C227.091 139.23 229.4 136.784 229.4 132.472C229.4 128.108 227.023 125.739 223.997 125.739C221.687 125.739 220.724 127.128 220.256 128.074H220.128V121.545H217.043V139ZM220.068 132.455C220.068 129.915 221.159 128.27 223.145 128.27C225.199 128.27 226.256 130.017 226.256 132.455C226.256 134.909 225.182 136.699 223.145 136.699C221.176 136.699 220.068 134.994 220.068 132.455ZM237.339 139.256C240.39 139.256 242.487 137.764 243.032 135.489L240.151 135.165C239.734 136.273 238.711 136.852 237.381 136.852C235.387 136.852 234.066 135.54 234.041 133.298H243.16V132.352C243.16 127.759 240.398 125.739 237.177 125.739C233.427 125.739 230.981 128.491 230.981 132.531C230.981 136.639 233.393 139.256 237.339 139.256ZM234.049 131.219C234.143 129.548 235.379 128.142 237.219 128.142C238.992 128.142 240.185 129.438 240.202 131.219H234.049ZM250.763 139H253.848V131.304C253.848 129.642 255.101 128.466 256.797 128.466C257.317 128.466 257.965 128.56 258.229 128.645V125.807C257.948 125.756 257.462 125.722 257.121 125.722C255.621 125.722 254.368 126.574 253.891 128.091H253.755V125.909H250.763V139ZM265.055 139.256C268.106 139.256 270.203 137.764 270.748 135.489L267.868 135.165C267.45 136.273 266.427 136.852 265.098 136.852C263.103 136.852 261.782 135.54 261.757 133.298H270.876V132.352C270.876 127.759 268.115 125.739 264.893 125.739C261.143 125.739 258.697 128.491 258.697 132.531C258.697 136.639 261.109 139.256 265.055 139.256ZM261.765 131.219C261.859 129.548 263.095 128.142 264.936 128.142C266.708 128.142 267.902 129.438 267.919 131.219H261.765ZM276.091 131.33C276.091 129.438 277.233 128.347 278.861 128.347C280.455 128.347 281.41 129.395 281.41 131.142V139H284.495V130.665C284.503 127.528 282.714 125.739 280.012 125.739C278.052 125.739 276.705 126.676 276.108 128.134H275.955V125.909H273.006V139H276.091V131.33ZM293.688 125.909H291.106V122.773H288.02V125.909H286.163V128.295H288.02V135.574C288.003 138.037 289.793 139.247 292.111 139.179C292.989 139.153 293.594 138.983 293.927 138.872L293.407 136.46C293.236 136.503 292.887 136.58 292.503 136.58C291.728 136.58 291.106 136.307 291.106 135.062V128.295H293.688V125.909ZM295.788 139H298.874V125.909H295.788V139ZM297.339 124.051C298.32 124.051 299.121 123.301 299.121 122.381C299.121 121.452 298.32 120.702 297.339 120.702C296.351 120.702 295.55 121.452 295.55 122.381C295.55 123.301 296.351 124.051 297.339 124.051ZM304.651 131.33C304.651 129.438 305.793 128.347 307.421 128.347C309.015 128.347 309.97 129.395 309.97 131.142V139H313.055V130.665C313.063 127.528 311.274 125.739 308.572 125.739C306.612 125.739 305.265 126.676 304.668 128.134H304.515V125.909H301.566V139H304.651V131.33ZM321.404 144.182C324.941 144.182 327.549 142.562 327.549 139.213V125.909H324.507V128.074H324.336C323.867 127.128 322.887 125.739 320.578 125.739C317.552 125.739 315.174 128.108 315.174 132.412C315.174 136.682 317.552 138.812 320.569 138.812C322.811 138.812 323.859 137.611 324.336 136.648H324.49V139.128C324.49 141.054 323.211 141.847 321.455 141.847C319.598 141.847 318.779 140.969 318.404 140.202L315.626 140.875C316.188 142.707 318.072 144.182 321.404 144.182ZM321.43 136.392C319.393 136.392 318.319 134.807 318.319 132.395C318.319 130.017 319.376 128.27 321.43 128.27C323.416 128.27 324.507 129.915 324.507 132.395C324.507 134.892 323.399 136.392 321.43 136.392ZM333.18 133.869H336.018V133.648C336.035 131.841 336.623 131.014 338.012 130.162C339.581 129.224 340.561 127.946 340.561 125.994C340.561 123.114 338.319 121.307 335.064 121.307C332.081 121.307 329.66 122.96 329.575 126.199H332.609C332.686 124.597 333.845 123.83 335.047 123.83C336.35 123.83 337.399 124.699 337.399 126.037C337.399 127.23 336.606 128.048 335.575 128.696C334.066 129.634 333.197 130.58 333.18 133.648V133.869ZM334.672 139.188C335.677 139.188 336.538 138.352 336.547 137.312C336.538 136.29 335.677 135.455 334.672 135.455C333.632 135.455 332.788 136.29 332.797 137.312C332.788 138.352 333.632 139.188 334.672 139.188Z" fill="#444444"/>
</g>
<defs>
<filter id="filter0_d" x="223" y="607" width="164" height="58" filterUnits="userSpaceOnUse" color-interpolation-filters="sRGB">
<feFlood flood-opacity="0" result="BackgroundImageFix"/>
<feColorMatrix in="SourceAlpha" type="matrix" values="0 0 0 0 0 0 0 0 0 0 0 0 0 0 0 0 0 0 127 0" result="hardAlpha"/>
<feOffset dy="3"/>
<feGaussianBlur stdDeviation="2"/>
<feColorMatrix type="matrix" values="0 0 0 0 0 0 0 0 0 0 0 0 0 0 0 0 0 0 0.16 0"/>
<feBlend mode="normal" in2="BackgroundImageFix" result="effect1_dropShadow"/>
<feBlend mode="normal" in="SourceGraphic" in2="effect1_dropShadow" result="shape"/>
</filter>
<clipPath id="clip0">
<rect width="375" height="667" fill="white"/>
</clipPath>
</defs>
</svg>
