<svg width="375" height="667" viewBox="0 0 375 667" fill="none" xmlns="http://www.w3.org/2000/svg">
<g clip-path="url(#clip0)">
<rect width="375" height="667" fill="white"/>
<rect x="375" y="68" width="375" height="68" transform="rotate(-180 375 68)" fill="white"/>
<path d="M114.717 42C120.035 42 123.189 38.7102 123.189 33.2557C123.189 27.8182 120.035 24.5455 114.837 24.5455H108.803V42H114.717ZM111.964 39.2642V27.2812H114.658C118.203 27.2812 120.053 29.2585 120.053 33.2557C120.053 37.2699 118.203 39.2642 114.564 39.2642H111.964ZM129.344 42.2642C131.398 42.2642 132.625 41.3011 133.188 40.2017H133.29V42H136.256V33.2386C136.256 29.7784 133.435 28.7386 130.938 28.7386C128.185 28.7386 126.071 29.9659 125.389 32.3523L128.27 32.7614C128.577 31.8665 129.446 31.0994 130.955 31.0994C132.386 31.0994 133.171 31.8324 133.171 33.1193V33.1705C133.171 34.0568 132.242 34.0994 129.932 34.3466C127.392 34.6193 124.963 35.3778 124.963 38.3267C124.963 40.9006 126.847 42.2642 129.344 42.2642ZM130.145 39.9972C128.858 39.9972 127.938 39.4091 127.938 38.2756C127.938 37.0909 128.969 36.5966 130.35 36.4006C131.159 36.2898 132.778 36.0852 133.179 35.7614V37.304C133.179 38.7614 132.003 39.9972 130.145 39.9972ZM145.415 28.9091H142.833V25.7727H139.747V28.9091H137.889V31.2955H139.747V38.5739C139.73 41.0369 141.52 42.2472 143.838 42.179C144.716 42.1534 145.321 41.983 145.654 41.8722L145.134 39.4602C144.963 39.5028 144.614 39.5795 144.23 39.5795C143.455 39.5795 142.833 39.3068 142.833 38.0625V31.2955H145.415V28.9091ZM153.17 42.2557C156.221 42.2557 158.318 40.7642 158.863 38.4886L155.983 38.1648C155.565 39.2727 154.542 39.8523 153.213 39.8523C151.218 39.8523 149.897 38.5398 149.872 36.2983H158.991V35.3523C158.991 30.7585 156.23 28.7386 153.008 28.7386C149.258 28.7386 146.812 31.4915 146.812 35.5312C146.812 39.6392 149.224 42.2557 153.17 42.2557ZM149.88 34.2188C149.974 32.5483 151.21 31.142 153.051 31.142C154.823 31.142 156.017 32.4375 156.034 34.2188H149.88ZM176.216 29.3438H179.259C179.199 26.3949 176.685 24.3068 172.969 24.3068C169.305 24.3068 166.552 26.3693 166.56 29.4545C166.56 31.9602 168.341 33.4006 171.214 34.142L173.199 34.6534C175.083 35.1307 176.327 35.7188 176.336 37.0739C176.327 38.5653 174.912 39.5625 172.85 39.5625C170.873 39.5625 169.339 38.6761 169.211 36.8438H166.1C166.228 40.3125 168.81 42.2642 172.876 42.2642C177.06 42.2642 179.489 40.1761 179.498 37.0994C179.489 34.0739 176.992 32.6932 174.367 32.071L172.731 31.6619C171.299 31.321 169.748 30.7159 169.765 29.2585C169.773 27.946 170.949 26.983 172.927 26.983C174.81 26.983 176.055 27.8608 176.216 29.3438ZM187.496 42.2557C190.547 42.2557 192.643 40.7642 193.189 38.4886L190.308 38.1648C189.891 39.2727 188.868 39.8523 187.538 39.8523C185.544 39.8523 184.223 38.5398 184.197 36.2983H193.317V35.3523C193.317 30.7585 190.555 28.7386 187.334 28.7386C183.584 28.7386 181.138 31.4915 181.138 35.5312C181.138 39.6392 183.55 42.2557 187.496 42.2557ZM184.206 34.2188C184.3 32.5483 185.535 31.142 187.376 31.142C189.149 31.142 190.342 32.4375 190.359 34.2188H184.206ZM198.532 24.5455H195.447V42H198.532V24.5455ZM207.02 42.2557C210.071 42.2557 212.168 40.7642 212.713 38.4886L209.833 38.1648C209.415 39.2727 208.392 39.8523 207.063 39.8523C205.068 39.8523 203.747 38.5398 203.722 36.2983H212.841V35.3523C212.841 30.7585 210.08 28.7386 206.858 28.7386C203.108 28.7386 200.662 31.4915 200.662 35.5312C200.662 39.6392 203.074 42.2557 207.02 42.2557ZM203.73 34.2188C203.824 32.5483 205.06 31.142 206.901 31.142C208.673 31.142 209.867 32.4375 209.884 34.2188H203.73ZM220.681 42.2557C223.971 42.2557 226.068 40.304 226.289 37.5256H223.34C223.076 38.9318 222.062 39.7415 220.707 39.7415C218.781 39.7415 217.537 38.1307 217.537 35.4545C217.537 32.8125 218.806 31.2273 220.707 31.2273C222.19 31.2273 223.102 32.1818 223.34 33.4432H226.289C226.076 30.6051 223.86 28.7386 220.664 28.7386C216.829 28.7386 214.409 31.5085 214.409 35.5057C214.409 39.4688 216.769 42.2557 220.681 42.2557ZM234.88 28.9091H232.297V25.7727H229.212V28.9091H227.354V31.2955H229.212V38.5739C229.195 41.0369 230.985 42.2472 233.303 42.179C234.181 42.1534 234.786 41.983 235.118 41.8722L234.598 39.4602C234.428 39.5028 234.079 39.5795 233.695 39.5795C232.919 39.5795 232.297 39.3068 232.297 38.0625V31.2955H234.88V28.9091ZM236.98 42H240.065V28.9091H236.98V42ZM238.531 27.0511C239.511 27.0511 240.312 26.3011 240.312 25.3807C240.312 24.4517 239.511 23.7017 238.531 23.7017C237.542 23.7017 236.741 24.4517 236.741 25.3807C236.741 26.3011 237.542 27.0511 238.531 27.0511ZM248.468 42.2557C252.303 42.2557 254.741 39.554 254.741 35.5057C254.741 31.4489 252.303 28.7386 248.468 28.7386C244.633 28.7386 242.195 31.4489 242.195 35.5057C242.195 39.554 244.633 42.2557 248.468 42.2557ZM248.485 39.7841C246.363 39.7841 245.323 37.892 245.323 35.4972C245.323 33.1023 246.363 31.1847 248.485 31.1847C250.573 31.1847 251.613 33.1023 251.613 35.4972C251.613 37.892 250.573 39.7841 248.485 39.7841ZM259.965 34.3295C259.965 32.4375 261.107 31.3466 262.734 31.3466C264.328 31.3466 265.283 32.3949 265.283 34.142V42H268.368V33.6648C268.376 30.5284 266.587 28.7386 263.885 28.7386C261.925 28.7386 260.578 29.6761 259.982 31.1335H259.828V28.9091H256.879V42H259.965V34.3295Z" fill="#444444"/>
<line x1="341" y1="41.8787" x2="355.849" y2="27.0294" stroke="#BBBBBB" stroke-width="3" stroke-linecap="round"/>
<line x1="341.121" y1="27" x2="355.971" y2="41.8492" stroke="#BBBBBB" stroke-width="3" stroke-linecap="round"/>
<path d="M375 67.5L3.05176e-05 67.5" stroke="#DDDDDD"/>
<path d="M48.6591 119C48.2784 116.858 46.5284 115.205 44.0511 115.205C41.1136 115.205 39.0227 117.54 39.0227 121.182C39.0227 124.824 41.1136 127.159 44.0511 127.159C46.5284 127.159 48.2784 125.5 48.6591 123.364H47.5909C47.267 124.96 45.875 126.159 44.0511 126.159C41.8466 126.159 40.0511 124.415 40.0511 121.182C40.0511 117.96 41.8466 116.205 44.0511 116.205C45.875 116.205 47.267 117.409 47.5909 119H48.6591ZM51.956 121.545C51.956 120.023 52.9787 119.085 54.3764 119.085C55.7287 119.085 56.5923 119.972 56.5923 121.409V127H57.6094V121.347C57.6094 119.267 56.4048 118.159 54.6321 118.159C53.3139 118.159 52.456 118.739 52.0469 119.642H51.956V115.364H50.9446V127H51.956V121.545ZM63.6648 127.182C65.9261 127.182 67.5057 125.335 67.5057 122.676C67.5057 120 65.9261 118.153 63.6648 118.153C61.4034 118.153 59.8239 120 59.8239 122.676C59.8239 125.335 61.4034 127.182 63.6648 127.182ZM63.6648 126.256C61.8523 126.256 60.8409 124.631 60.8409 122.676C60.8409 120.722 61.8523 119.074 63.6648 119.074C65.4773 119.074 66.4886 120.722 66.4886 122.676C66.4886 124.631 65.4773 126.256 63.6648 126.256ZM73.1179 127.182C75.3793 127.182 76.9588 125.335 76.9588 122.676C76.9588 120 75.3793 118.153 73.1179 118.153C70.8565 118.153 69.277 120 69.277 122.676C69.277 125.335 70.8565 127.182 73.1179 127.182ZM73.1179 126.256C71.3054 126.256 70.294 124.631 70.294 122.676C70.294 120.722 71.3054 119.074 73.1179 119.074C74.9304 119.074 75.9418 120.722 75.9418 122.676C75.9418 124.631 74.9304 126.256 73.1179 126.256ZM85.0426 120.188C84.6165 118.926 83.6847 118.153 82.0881 118.153C80.3267 118.153 79.0483 119.159 79.0483 120.597C79.0483 121.767 79.7585 122.562 81.2756 122.926L82.7017 123.267C83.6619 123.494 84.1222 123.989 84.1222 124.688C84.1222 125.597 83.2528 126.273 81.9119 126.273C80.7188 126.273 79.9744 125.733 79.7301 124.699L78.7585 124.938C79.0653 126.392 80.2188 127.182 81.929 127.182C83.8494 127.182 85.1676 126.125 85.1676 124.642C85.1676 123.477 84.4347 122.699 82.9744 122.341L81.6562 122.017C80.571 121.744 80.0653 121.307 80.0653 120.551C80.0653 119.665 80.9119 119.045 82.0881 119.045C83.2642 119.045 83.8438 119.665 84.1165 120.449L85.0426 120.188ZM90.9105 127.182C92.6605 127.182 93.8366 126.233 94.2344 125.136L93.2741 124.824C92.9389 125.608 92.1491 126.256 90.9105 126.256C89.1264 126.256 87.9957 124.955 87.9503 122.938H94.4503V122.438C94.4503 119.523 92.6491 118.153 90.7571 118.153C88.4957 118.153 86.9332 120.045 86.9332 122.688C86.9332 125.335 88.4673 127.182 90.9105 127.182ZM87.956 122.045C88.0639 120.42 89.1605 119.074 90.7571 119.074C92.3196 119.074 93.4162 120.364 93.4162 122.045H87.956ZM107.707 118.273H108.736C108.656 116.506 107.128 115.199 104.963 115.199C102.815 115.199 101.162 116.489 101.162 118.364C101.162 119.858 102.219 120.795 104.043 121.335L105.435 121.744C106.878 122.165 107.866 122.705 107.866 123.892C107.866 125.29 106.599 126.227 104.861 126.227C103.293 126.227 102.065 125.472 101.952 124.091H100.861C100.986 125.932 102.486 127.199 104.861 127.199C107.384 127.199 108.895 125.773 108.895 123.909C108.895 121.977 107.213 121.205 105.736 120.79L104.509 120.438C103.378 120.119 102.19 119.545 102.19 118.318C102.19 117.068 103.31 116.153 104.935 116.153C106.474 116.153 107.577 116.977 107.707 118.273ZM114.679 118.273H112.832V116.182H111.815V118.273H110.514V119.153H111.815V124.96C111.815 126.386 112.94 127.131 114.06 127.131C114.48 127.131 114.764 127.051 114.957 126.977L114.741 126.062C114.599 126.102 114.418 126.142 114.151 126.142C113.463 126.142 112.832 125.818 112.832 124.722V119.153H114.679V118.273ZM119.413 127.199C120.868 127.199 121.754 126.392 122.118 125.619H122.18V127H123.192V121.074C123.192 118.733 121.43 118.153 120.095 118.153C118.76 118.153 117.385 118.682 116.794 120.108L117.754 120.455C118.072 119.705 118.862 119.062 120.124 119.062C121.447 119.062 122.18 119.79 122.18 120.983V121.188C122.18 121.847 121.362 121.858 119.896 122.04C117.925 122.284 116.544 122.835 116.544 124.562C116.544 126.244 117.828 127.199 119.413 127.199ZM119.55 126.273C118.408 126.273 117.555 125.665 117.555 124.608C117.555 123.551 118.419 123.108 119.896 122.926C120.612 122.841 121.885 122.682 122.18 122.392V123.653C122.18 125.085 121.163 126.273 119.55 126.273ZM125.882 127H126.893V121.364C126.893 120.068 127.888 119.131 129.251 119.131C129.518 119.131 129.768 119.176 129.859 119.188V118.159C129.723 118.153 129.49 118.142 129.325 118.142C128.229 118.142 127.291 118.733 126.939 119.614H126.865V118.273H125.882V127ZM135.57 118.273H133.723V116.182H132.706V118.273H131.405V119.153H132.706V124.96C132.706 126.386 133.831 127.131 134.95 127.131C135.371 127.131 135.655 127.051 135.848 126.977L135.632 126.062C135.49 126.102 135.308 126.142 135.041 126.142C134.354 126.142 133.723 125.818 133.723 124.722V119.153H135.57V118.273ZM145.986 127C149.486 127 151.48 124.812 151.486 121.153C151.486 117.534 149.52 115.364 146.19 115.364H142.577V127H145.986ZM143.639 126.045V116.318H146.128C148.952 116.318 150.452 118.142 150.457 121.153C150.457 124.193 148.923 126.045 145.923 126.045H143.639ZM156.288 127.199C157.743 127.199 158.629 126.392 158.993 125.619H159.055V127H160.067V121.074C160.067 118.733 158.305 118.153 156.97 118.153C155.635 118.153 154.26 118.682 153.669 120.108L154.629 120.455C154.947 119.705 155.737 119.062 156.999 119.062C158.322 119.062 159.055 119.79 159.055 120.983V121.188C159.055 121.847 158.237 121.858 156.771 122.04C154.8 122.284 153.419 122.835 153.419 124.562C153.419 126.244 154.703 127.199 156.288 127.199ZM156.425 126.273C155.283 126.273 154.43 125.665 154.43 124.608C154.43 123.551 155.294 123.108 156.771 122.926C157.487 122.841 158.76 122.682 159.055 122.392V123.653C159.055 125.085 158.038 126.273 156.425 126.273ZM166.195 118.273H164.348V116.182H163.331V118.273H162.03V119.153H163.331V124.96C163.331 126.386 164.456 127.131 165.575 127.131C165.996 127.131 166.28 127.051 166.473 126.977L166.257 126.062C166.115 126.102 165.933 126.142 165.666 126.142C164.979 126.142 164.348 125.818 164.348 124.722V119.153H166.195V118.273ZM171.926 127.182C173.676 127.182 174.852 126.233 175.25 125.136L174.29 124.824C173.955 125.608 173.165 126.256 171.926 126.256C170.142 126.256 169.011 124.955 168.966 122.938H175.466V122.438C175.466 119.523 173.665 118.153 171.773 118.153C169.511 118.153 167.949 120.045 167.949 122.688C167.949 125.335 169.483 127.182 171.926 127.182ZM168.972 122.045C169.08 120.42 170.176 119.074 171.773 119.074C173.335 119.074 174.432 120.364 174.432 122.045H168.972Z" fill="#444444"/>
<path d="M37 101H178V99H37V101ZM178 141H37V143H178V141ZM37 141C25.9543 141 17 132.046 17 121H15C15 133.15 24.8497 143 37 143V141ZM198 121C198 132.046 189.046 141 178 141V143C190.15 143 200 133.15 200 121H198ZM178 101C189.046 101 198 109.954 198 121H200C200 108.85 190.15 99 178 99V101ZM37 99C24.8497 99 15 108.85 15 121H17C17 109.954 25.9543 101 37 101V99Z" fill="#BBBBBB"/>
<path d="M22.8807 157.364H23.7805C23.7109 155.817 22.3736 154.674 20.4794 154.674C18.6001 154.674 17.1534 155.803 17.1534 157.443C17.1534 158.751 18.0781 159.571 19.674 160.043L20.892 160.401C22.1548 160.769 23.0199 161.241 23.0199 162.281C23.0199 163.504 21.9112 164.324 20.3899 164.324C19.0178 164.324 17.9439 163.663 17.8445 162.455H16.8899C16.9993 164.065 18.3118 165.174 20.3899 165.174C22.5973 165.174 23.9197 163.926 23.9197 162.295C23.9197 160.605 22.4482 159.929 21.1555 159.566L20.0817 159.258C19.0923 158.979 18.0533 158.477 18.0533 157.403C18.0533 156.31 19.0327 155.509 20.4545 155.509C21.8018 155.509 22.7663 156.23 22.8807 157.364ZM29.0604 165.159C30.5916 165.159 31.6207 164.329 31.9688 163.369L31.1286 163.096C30.8352 163.782 30.1442 164.349 29.0604 164.349C27.4993 164.349 26.5099 163.21 26.4702 161.445H32.1577V161.008C32.1577 158.457 30.5817 157.259 28.9261 157.259C26.9474 157.259 25.5803 158.915 25.5803 161.227C25.5803 163.543 26.9226 165.159 29.0604 165.159ZM26.4751 160.665C26.5696 159.243 27.5291 158.065 28.9261 158.065C30.2933 158.065 31.2528 159.193 31.2528 160.665H26.4751ZM34.9927 154.818H34.1078V165H34.9927V154.818ZM40.4217 165.159C41.9529 165.159 42.9821 164.329 43.3301 163.369L42.4899 163.096C42.1966 163.782 41.5055 164.349 40.4217 164.349C38.8606 164.349 37.8713 163.21 37.8315 161.445H43.519V161.008C43.519 158.457 41.943 157.259 40.2875 157.259C38.3088 157.259 36.9416 158.915 36.9416 161.227C36.9416 163.543 38.2839 165.159 40.4217 165.159ZM37.8365 160.665C37.9309 159.243 38.8904 158.065 40.2875 158.065C41.6547 158.065 42.6142 159.193 42.6142 160.665H37.8365ZM48.4521 165.159C50.043 165.159 51.1616 164.155 51.3654 162.773H50.4705C50.2667 163.747 49.4663 164.349 48.4521 164.349C46.9556 164.349 45.9663 163.046 45.9663 161.187C45.9663 159.337 46.9854 158.065 48.4521 158.065C49.5408 158.065 50.2766 158.766 50.4656 159.631H51.3604C51.1516 158.214 49.9684 157.259 48.4371 157.259C46.4386 157.259 45.0763 158.92 45.0763 161.217C45.0763 163.494 46.3988 165.159 48.4521 165.159ZM56.2699 157.364H54.6541V155.534H53.7642V157.364H52.6257V158.134H53.7642V163.215C53.7642 164.463 54.7486 165.114 55.728 165.114C56.0959 165.114 56.3445 165.045 56.5135 164.98L56.3246 164.18C56.2003 164.214 56.0412 164.249 55.8075 164.249C55.206 164.249 54.6541 163.966 54.6541 163.006V158.134H56.2699V157.364ZM65.225 157.364H63.6092V155.534H62.7193V157.364H61.5808V158.134H62.7193V163.215C62.7193 164.463 63.7037 165.114 64.6831 165.114C65.051 165.114 65.2995 165.045 65.4686 164.98L65.2797 164.18C65.1554 164.214 64.9963 164.249 64.7626 164.249C64.161 164.249 63.6092 163.966 63.6092 163.006V158.134H65.225V157.364ZM68.2837 160.227C68.2837 158.895 69.1786 158.075 70.4016 158.075C71.5849 158.075 72.3406 158.85 72.3406 160.108V165H73.2305V160.053C73.2305 158.234 72.1765 157.264 70.6254 157.264C69.4719 157.264 68.7212 157.771 68.3633 158.562H68.2837V154.818H67.3988V165H68.2837V160.227ZM78.6483 165.159C80.1795 165.159 81.2086 164.329 81.5566 163.369L80.7164 163.096C80.4231 163.782 79.7321 164.349 78.6483 164.349C77.0872 164.349 76.0978 163.21 76.0581 161.445H81.7456V161.008C81.7456 158.457 80.1696 157.259 78.514 157.259C76.5353 157.259 75.1681 158.915 75.1681 161.227C75.1681 163.543 76.5105 165.159 78.6483 165.159ZM76.063 160.665C76.1575 159.243 77.117 158.065 78.514 158.065C79.8812 158.065 80.8407 159.193 80.8407 160.665H76.063ZM92.7638 159.039C92.391 157.935 91.5756 157.259 90.1786 157.259C88.6374 157.259 87.5188 158.139 87.5188 159.397C87.5188 160.421 88.1403 161.117 89.4677 161.435L90.7156 161.734C91.5558 161.933 91.9585 162.365 91.9585 162.977C91.9585 163.772 91.1978 164.364 90.0245 164.364C88.9805 164.364 88.3292 163.891 88.1154 162.987L87.2653 163.195C87.5337 164.468 88.543 165.159 90.0394 165.159C91.7198 165.159 92.8732 164.234 92.8732 162.937C92.8732 161.918 92.2319 161.237 90.9542 160.923L89.8008 160.64C88.8512 160.401 88.4087 160.018 88.4087 159.357C88.4087 158.582 89.1495 158.04 90.1786 158.04C91.2077 158.04 91.7148 158.582 91.9535 159.268L92.7638 159.039ZM97.8187 157.364H96.2029V155.534H95.313V157.364H94.1745V158.134H95.313V163.215C95.313 164.463 96.2974 165.114 97.2768 165.114C97.6447 165.114 97.8933 165.045 98.0623 164.98L97.8734 164.18C97.7491 164.214 97.59 164.249 97.3564 164.249C96.7548 164.249 96.2029 163.966 96.2029 163.006V158.134H97.8187V157.364ZM101.961 165.174C103.234 165.174 104.01 164.468 104.328 163.792H104.382V165H105.267V159.815C105.267 157.766 103.726 157.259 102.558 157.259C101.39 157.259 100.186 157.722 99.6694 158.969L100.51 159.273C100.788 158.616 101.479 158.055 102.583 158.055C103.741 158.055 104.382 158.691 104.382 159.735V159.914C104.382 160.491 103.667 160.501 102.384 160.66C100.659 160.874 99.4506 161.356 99.4506 162.867C99.4506 164.339 100.574 165.174 101.961 165.174ZM102.081 164.364C101.081 164.364 100.336 163.832 100.336 162.907C100.336 161.982 101.091 161.594 102.384 161.435C103.01 161.361 104.124 161.222 104.382 160.968V162.072C104.382 163.325 103.493 164.364 102.081 164.364ZM107.621 165H108.506V160.068C108.506 158.935 109.376 158.114 110.57 158.114C110.803 158.114 111.022 158.154 111.102 158.164V157.264C110.982 157.259 110.778 157.249 110.634 157.249C109.675 157.249 108.854 157.766 108.546 158.537H108.482V157.364H107.621V165ZM116.098 157.364H114.482V155.534H113.592V157.364H112.454V158.134H113.592V163.215C113.592 164.463 114.577 165.114 115.556 165.114C115.924 165.114 116.173 165.045 116.342 164.98L116.153 164.18C116.028 164.214 115.869 164.249 115.636 164.249C115.034 164.249 114.482 163.966 114.482 163.006V158.134H116.098V157.364ZM124.795 165.159C126.182 165.159 126.828 164.279 127.141 163.583H127.246V165H128.111V154.818H127.221V158.82H127.141C126.838 158.134 126.206 157.259 124.809 157.259C122.925 157.259 121.653 158.85 121.653 161.202C121.653 163.573 122.92 165.159 124.795 165.159ZM124.899 164.349C123.378 164.349 122.542 162.967 122.542 161.187C122.542 159.427 123.368 158.065 124.899 158.065C126.39 158.065 127.236 159.357 127.236 161.187C127.236 163.031 126.381 164.349 124.899 164.349ZM132.764 165.174C134.037 165.174 134.812 164.468 135.131 163.792H135.185V165H136.07V159.815C136.07 157.766 134.529 157.259 133.361 157.259C132.192 157.259 130.989 157.722 130.472 158.969L131.312 159.273C131.591 158.616 132.282 158.055 133.385 158.055C134.544 158.055 135.185 158.691 135.185 159.735V159.914C135.185 160.491 134.469 160.501 133.187 160.66C131.461 160.874 130.253 161.356 130.253 162.867C130.253 164.339 131.377 165.174 132.764 165.174ZM132.883 164.364C131.884 164.364 131.138 163.832 131.138 162.907C131.138 161.982 131.894 161.594 133.187 161.435C133.813 161.361 134.927 161.222 135.185 160.968V162.072C135.185 163.325 134.295 164.364 132.883 164.364ZM141.432 157.364H139.816V155.534H138.926V157.364H137.788V158.134H138.926V163.215C138.926 164.463 139.911 165.114 140.89 165.114C141.258 165.114 141.507 165.045 141.676 164.98L141.487 164.18C141.362 164.214 141.203 164.249 140.97 164.249C140.368 164.249 139.816 163.966 139.816 163.006V158.134H141.432V157.364ZM146.447 165.159C147.978 165.159 149.007 164.329 149.355 163.369L148.515 163.096C148.222 163.782 147.531 164.349 146.447 164.349C144.886 164.349 143.897 163.21 143.857 161.445H149.544V161.008C149.544 158.457 147.968 157.259 146.313 157.259C144.334 157.259 142.967 158.915 142.967 161.227C142.967 163.543 144.309 165.159 146.447 165.159ZM143.862 160.665C143.956 159.243 144.916 158.065 146.313 158.065C147.68 158.065 148.64 159.193 148.64 160.665H143.862ZM158.4 165.159C160.379 165.159 161.761 163.543 161.761 161.217C161.761 158.875 160.379 157.259 158.4 157.259C156.421 157.259 155.039 158.875 155.039 161.217C155.039 163.543 156.421 165.159 158.4 165.159ZM158.4 164.349C156.814 164.349 155.929 162.927 155.929 161.217C155.929 159.506 156.814 158.065 158.4 158.065C159.986 158.065 160.871 159.506 160.871 161.217C160.871 162.927 159.986 164.349 158.4 164.349ZM166.846 157.364H165.155V156.429C165.155 155.629 165.588 155.181 166.358 155.181C166.652 155.181 166.831 155.246 166.965 155.29L167.223 154.515C167.044 154.44 166.746 154.346 166.279 154.346C165.24 154.346 164.265 155.012 164.265 156.245V157.364H163.092V158.134H164.265V165H165.15L165.155 158.134H166.846V157.364ZM175.557 157.364H173.941V155.534H173.051V157.364H171.913V158.134H173.051V163.215C173.051 164.463 174.036 165.114 175.015 165.114C175.383 165.114 175.632 165.045 175.801 164.98L175.612 164.18C175.487 164.214 175.328 164.249 175.095 164.249C174.493 164.249 173.941 163.966 173.941 163.006V158.134H175.557V157.364ZM178.616 160.227C178.616 158.895 179.511 158.075 180.734 158.075C181.917 158.075 182.673 158.85 182.673 160.108V165H183.562V160.053C183.562 158.234 182.509 157.264 180.957 157.264C179.804 157.264 179.053 157.771 178.695 158.562H178.616V154.818H177.731V165H178.616V160.227ZM188.98 165.159C190.512 165.159 191.541 164.329 191.889 163.369L191.048 163.096C190.755 163.782 190.064 164.349 188.98 164.349C187.419 164.349 186.43 163.21 186.39 161.445H192.078V161.008C192.078 158.457 190.502 157.259 188.846 157.259C186.867 157.259 185.5 158.915 185.5 161.227C185.5 163.543 186.843 165.159 188.98 165.159ZM186.395 160.665C186.49 159.243 187.449 158.065 188.846 158.065C190.213 158.065 191.173 159.193 191.173 160.665H186.395ZM198.85 154.818H197.965V165H198.85V154.818ZM201.202 165H202.092V157.364H201.202V165ZM201.654 156.051C202.017 156.051 202.32 155.763 202.32 155.415C202.32 155.067 202.017 154.778 201.654 154.778C201.291 154.778 200.993 155.067 200.993 155.415C200.993 155.763 201.291 156.051 201.654 156.051ZM209.563 159.039C209.19 157.935 208.374 157.259 206.977 157.259C205.436 157.259 204.318 158.139 204.318 159.397C204.318 160.421 204.939 161.117 206.267 161.435L207.514 161.734C208.355 161.933 208.757 162.365 208.757 162.977C208.757 163.772 207.997 164.364 206.823 164.364C205.779 164.364 205.128 163.891 204.914 162.987L204.064 163.195C204.333 164.468 205.342 165.159 206.838 165.159C208.519 165.159 209.672 164.234 209.672 162.937C209.672 161.918 209.031 161.237 207.753 160.923L206.6 160.64C205.65 160.401 205.208 160.018 205.208 159.357C205.208 158.582 205.948 158.04 206.977 158.04C208.007 158.04 208.514 158.582 208.752 159.268L209.563 159.039ZM214.618 157.364H213.002V155.534H212.112V157.364H210.973V158.134H212.112V163.215C212.112 164.463 213.096 165.114 214.076 165.114C214.444 165.114 214.692 165.045 214.861 164.98L214.672 164.18C214.548 164.214 214.389 164.249 214.155 164.249C213.554 164.249 213.002 163.966 213.002 163.006V158.134H214.618V157.364ZM216.637 165H217.527V157.364H216.637V165ZM217.09 156.051C217.453 156.051 217.756 155.763 217.756 155.415C217.756 155.067 217.453 154.778 217.09 154.778C216.727 154.778 216.428 155.067 216.428 155.415C216.428 155.763 216.727 156.051 217.09 156.051ZM220.752 160.227C220.752 158.895 221.627 158.075 222.831 158.075C224.004 158.075 224.76 158.86 224.76 160.108V165H225.645V160.053C225.645 158.244 224.596 157.264 223.054 157.264C221.936 157.264 221.165 157.781 220.807 158.562H220.728V157.364H219.868V165H220.752V160.227ZM230.888 168.023C232.698 168.023 234.04 167.138 234.04 165.199V157.364H233.175V158.82H233.086C232.773 158.134 232.141 157.259 230.739 157.259C228.85 157.259 227.582 158.84 227.582 161.162C227.582 163.504 228.895 164.92 230.724 164.92C232.096 164.92 232.768 164.125 233.071 163.424H233.15V165.144C233.15 166.566 232.241 167.227 230.888 167.227C229.581 167.227 228.954 166.596 228.631 166.014L227.905 166.491C228.353 167.366 229.327 168.023 230.888 168.023ZM230.829 164.11C229.312 164.11 228.472 162.897 228.472 161.147C228.472 159.427 229.297 158.065 230.829 158.065C232.325 158.065 233.165 159.357 233.165 161.147C233.165 162.991 232.3 164.11 230.829 164.11ZM240.321 165H241.206V160.068C241.206 158.935 242.076 158.114 243.269 158.114C243.502 158.114 243.721 158.154 243.801 158.164V157.264C243.681 157.259 243.478 157.249 243.333 157.249C242.374 157.249 241.554 157.766 241.245 158.537H241.181V157.364H240.321V165ZM248.166 165.159C249.697 165.159 250.726 164.329 251.074 163.369L250.234 163.096C249.941 163.782 249.25 164.349 248.166 164.349C246.605 164.349 245.615 163.21 245.576 161.445H251.263V161.008C251.263 158.457 249.687 157.259 248.032 157.259C246.053 157.259 244.686 158.915 244.686 161.227C244.686 163.543 246.028 165.159 248.166 165.159ZM245.581 160.665C245.675 159.243 246.635 158.065 248.032 158.065C249.399 158.065 250.358 159.193 250.358 160.665H245.581ZM254.098 160.227C254.098 158.895 254.973 158.075 256.176 158.075C257.35 158.075 258.105 158.86 258.105 160.108V165H258.99V160.053C258.99 158.244 257.941 157.264 256.4 157.264C255.281 157.264 254.511 157.781 254.153 158.562H254.073V157.364H253.213V165H254.098V160.227ZM264.328 157.364H262.713V155.534H261.823V157.364H260.684V158.134H261.823V163.215C261.823 164.463 262.807 165.114 263.787 165.114C264.154 165.114 264.403 165.045 264.572 164.98L264.383 164.18C264.259 164.214 264.1 164.249 263.866 164.249C263.265 164.249 262.713 163.966 262.713 163.006V158.134H264.328V157.364ZM268.471 165.174C269.744 165.174 270.519 164.468 270.838 163.792H270.892V165H271.777V159.815C271.777 157.766 270.236 157.259 269.068 157.259C267.899 157.259 266.696 157.722 266.179 158.969L267.019 159.273C267.298 158.616 267.989 158.055 269.093 158.055C270.251 158.055 270.892 158.691 270.892 159.735V159.914C270.892 160.491 270.176 160.501 268.894 160.66C267.169 160.874 265.96 161.356 265.96 162.867C265.96 164.339 267.084 165.174 268.471 165.174ZM268.59 164.364C267.591 164.364 266.845 163.832 266.845 162.907C266.845 161.982 267.601 161.594 268.894 161.435C269.52 161.361 270.634 161.222 270.892 160.968V162.072C270.892 163.325 270.002 164.364 268.59 164.364ZM275.016 154.818H274.131V165H275.016V154.818Z" fill="#777777"/>
<path d="M16 213C16 202.507 24.5066 194 35 194H150C160.493 194 169 202.507 169 213C169 223.493 160.493 232 150 232H35C24.5066 232 16 223.493 16 213Z" fill="#EEEEEE"/>
<path d="M35.9545 207.364V215.756C35.9489 217.443 35.0966 218.205 33.8636 218.205C32.6648 218.205 31.767 217.494 31.7727 216.455H30.7273C30.7216 218.097 32.0568 219.159 33.8636 219.159C35.7102 219.159 37.0114 218.034 37.017 215.756V207.364H35.9545ZM45.4432 215.665C45.4432 217.267 44.2386 218.131 43.0568 218.131C41.7955 218.131 40.9091 217.227 40.9091 215.864V210.273H39.8977V215.926C39.8977 217.994 41.0909 219.114 42.767 219.114C44.0455 219.114 44.9545 218.449 45.3636 217.551H45.4432V219H46.4545V210.273H45.4432V215.665ZM50.1435 213.545C50.1435 212.023 51.1435 211.085 52.5185 211.085C53.8594 211.085 54.723 211.983 54.723 213.409V219H55.7344V213.347C55.7344 211.278 54.5355 210.159 52.7741 210.159C51.4957 210.159 50.6151 210.75 50.206 211.642H50.1151V210.273H49.1321V219H50.1435V213.545ZM61.9261 219.182C63.6761 219.182 64.8523 218.233 65.25 217.136L64.2898 216.824C63.9545 217.608 63.1648 218.256 61.9261 218.256C60.142 218.256 59.0114 216.955 58.9659 214.938H65.4659V214.438C65.4659 211.523 63.6648 210.153 61.7727 210.153C59.5114 210.153 57.9489 212.045 57.9489 214.688C57.9489 217.335 59.483 219.182 61.9261 219.182ZM58.9716 214.045C59.0795 212.42 60.1761 211.074 61.7727 211.074C63.3352 211.074 64.4318 212.364 64.4318 214.045H58.9716ZM72.1548 219H79.3878V218.045H73.6321V217.972L76.5185 214.75C78.4503 212.614 79.0241 211.648 79.0241 210.358C79.0241 208.585 77.6264 207.205 75.6776 207.205C73.7116 207.205 72.2514 208.591 72.2514 210.517H73.2685C73.2685 209.136 74.2116 208.142 75.6491 208.142C77.0014 208.142 78.0241 209.028 78.0241 210.358C78.0241 211.46 77.4389 212.278 75.956 213.949L72.1548 218.222V219ZM82.2557 219H83.375L88.6705 208.364V207.364H81.4489V208.318H87.5568V208.392L82.2557 219ZM90.6577 217.409H89.5554L89.4759 218.045C89.2713 219.585 88.9645 221.074 88.8168 221.841H89.5952C89.8679 221.04 90.3565 219.244 90.5554 218.017L90.6577 217.409ZM97.7955 219H105.028V218.045H99.2727V217.972L102.159 214.75C104.091 212.614 104.665 211.648 104.665 210.358C104.665 208.585 103.267 207.205 101.318 207.205C99.3523 207.205 97.892 208.591 97.892 210.517H98.9091C98.9091 209.136 99.8523 208.142 101.29 208.142C102.642 208.142 103.665 209.028 103.665 210.358C103.665 211.46 103.08 212.278 101.597 213.949L97.7955 218.222V219ZM111.175 219.159C113.624 219.159 115.061 216.949 115.061 213.182C115.061 209.432 113.612 207.205 111.175 207.205C108.737 207.205 107.288 209.432 107.288 213.182C107.288 216.949 108.726 219.159 111.175 219.159ZM111.175 218.205C109.385 218.205 108.317 216.369 108.317 213.182C108.317 210 109.391 208.142 111.175 208.142C112.959 208.142 114.033 210 114.033 213.182C114.033 216.369 112.964 218.205 111.175 218.205ZM117.374 219H124.607V218.045H118.851V217.972L121.737 214.75C123.669 212.614 124.243 211.648 124.243 210.358C124.243 208.585 122.845 207.205 120.896 207.205C118.93 207.205 117.47 208.591 117.47 210.517H118.487C118.487 209.136 119.43 208.142 120.868 208.142C122.22 208.142 123.243 209.028 123.243 210.358C123.243 211.46 122.658 212.278 121.175 213.949L117.374 218.222V219ZM130.73 207.364H129.622L126.872 209.188V210.29L129.599 208.477H129.668V219H130.73V207.364Z" fill="#444444"/>
<path d="M151.273 213L153.819 210.455C153.902 210.371 153.969 210.272 154.014 210.163C154.059 210.053 154.082 209.936 154.082 209.818C154.082 209.7 154.059 209.583 154.014 209.473C153.969 209.364 153.902 209.265 153.819 209.181C153.735 209.098 153.636 209.031 153.527 208.986C153.417 208.941 153.3 208.918 153.182 208.918C153.064 208.918 152.947 208.941 152.837 208.986C152.728 209.031 152.629 209.098 152.545 209.181L150 211.727L147.455 209.181C147.286 209.012 147.057 208.918 146.818 208.918C146.579 208.918 146.35 209.012 146.181 209.181C146.012 209.35 145.918 209.579 145.918 209.818C145.918 209.936 145.941 210.053 145.986 210.163C146.031 210.272 146.098 210.371 146.181 210.455L148.727 213L146.181 215.545C146.012 215.714 145.918 215.943 145.918 216.182C145.918 216.421 146.012 216.65 146.181 216.819C146.35 216.988 146.579 217.082 146.818 217.082C147.057 217.082 147.286 216.988 147.455 216.819L150 214.273L152.545 216.819C152.714 216.988 152.943 217.082 153.182 217.082C153.421 217.082 153.65 216.988 153.819 216.819C153.988 216.65 154.082 216.421 154.082 216.182C154.082 215.943 153.988 215.714 153.819 215.545L151.273 213ZM150 222C145.029 222 141 217.971 141 213C141 208.029 145.029 204 150 204C154.971 204 159 208.029 159 213C159 217.971 154.971 222 150 222Z" fill="#444444"/>
<path d="M35 195H150V193H35V195ZM150 231H35V233H150V231ZM35 231C25.0589 231 17 222.941 17 213H15C15 224.046 23.9543 233 35 233V231ZM168 213C168 222.941 159.941 231 150 231V233C161.046 233 170 224.046 170 213H168ZM150 195C159.941 195 168 203.059 168 213H170C170 201.954 161.046 193 150 193V195ZM35 193C23.9543 193 15 201.954 15 213H17C17 203.059 25.0589 195 35 195V193Z" fill="#444444"/>
<path d="M16 256H359" stroke="#DDDDDD"/>
<path d="M39.5455 307H40.608V302.295H43.3182C43.4716 302.295 43.6193 302.29 43.7614 302.278L46.3125 307H47.5398L44.8523 302.074C46.3011 301.597 47.0511 300.403 47.0511 298.847C47.0511 296.812 45.7727 295.364 43.3011 295.364H39.5455V307ZM40.608 301.324V296.318H43.2727C45.1136 296.318 46.0057 297.324 46.0057 298.847C46.0057 300.369 45.1136 301.324 43.2898 301.324H40.608ZM52.8636 307.182C54.6136 307.182 55.7898 306.233 56.1875 305.136L55.2273 304.824C54.892 305.608 54.1023 306.256 52.8636 306.256C51.0795 306.256 49.9489 304.955 49.9034 302.938H56.4034V302.438C56.4034 299.523 54.6023 298.153 52.7102 298.153C50.4489 298.153 48.8864 300.045 48.8864 302.688C48.8864 305.335 50.4205 307.182 52.8636 307.182ZM49.9091 302.045C50.017 300.42 51.1136 299.074 52.7102 299.074C54.2727 299.074 55.3693 300.364 55.3693 302.045H49.9091ZM59.6435 301.545C59.6435 300.023 60.6435 299.085 62.0185 299.085C63.3594 299.085 64.223 299.983 64.223 301.409V307H65.2344V301.347C65.2344 299.278 64.0355 298.159 62.2741 298.159C60.9957 298.159 60.1151 298.75 59.706 299.642H59.6151V298.273H58.6321V307H59.6435V301.545ZM71.3352 298.273H69.4886V296.182H68.4716V298.273H67.1705V299.153H68.4716V304.96C68.4716 306.386 69.5966 307.131 70.7159 307.131C71.1364 307.131 71.4205 307.051 71.6136 306.977L71.3977 306.062C71.2557 306.102 71.0739 306.142 70.8068 306.142C70.1193 306.142 69.4886 305.818 69.4886 304.722V299.153H71.3352V298.273ZM76.0696 307.199C77.5241 307.199 78.4105 306.392 78.7741 305.619H78.8366V307H79.848V301.074C79.848 298.733 78.0866 298.153 76.7514 298.153C75.4162 298.153 74.0412 298.682 73.4503 300.108L74.4105 300.455C74.7287 299.705 75.5185 299.062 76.7798 299.062C78.1037 299.062 78.8366 299.79 78.8366 300.983V301.188C78.8366 301.847 78.0185 301.858 76.5526 302.04C74.581 302.284 73.2003 302.835 73.2003 304.562C73.2003 306.244 74.4844 307.199 76.0696 307.199ZM76.206 306.273C75.0639 306.273 74.2116 305.665 74.2116 304.608C74.2116 303.551 75.0753 303.108 76.5526 302.926C77.2685 302.841 78.5412 302.682 78.8366 302.392V303.653C78.8366 305.085 77.8196 306.273 76.206 306.273ZM83.5497 295.364H82.5384V307H83.5497V295.364ZM94.3452 307C97.8452 307 99.8395 304.812 99.8452 301.153C99.8452 297.534 97.8793 295.364 94.5497 295.364H90.9361V307H94.3452ZM91.9986 306.045V296.318H94.4872C97.3111 296.318 98.8111 298.142 98.8168 301.153C98.8168 304.193 97.2827 306.045 94.2827 306.045H91.9986ZM107.756 303.665C107.756 305.267 106.551 306.131 105.369 306.131C104.108 306.131 103.222 305.227 103.222 303.864V298.273H102.21V303.926C102.21 305.994 103.403 307.114 105.08 307.114C106.358 307.114 107.267 306.449 107.676 305.551H107.756V307H108.767V298.273H107.756V303.665ZM111.445 307H112.456V301.364C112.456 300.068 113.45 299.131 114.814 299.131C115.081 299.131 115.331 299.176 115.422 299.188V298.159C115.286 298.153 115.053 298.142 114.888 298.142C113.791 298.142 112.854 298.733 112.501 299.614H112.428V298.273H111.445V307ZM119.585 307.199C121.04 307.199 121.926 306.392 122.29 305.619H122.352V307H123.364V301.074C123.364 298.733 121.602 298.153 120.267 298.153C118.932 298.153 117.557 298.682 116.966 300.108L117.926 300.455C118.244 299.705 119.034 299.062 120.295 299.062C121.619 299.062 122.352 299.79 122.352 300.983V301.188C122.352 301.847 121.534 301.858 120.068 302.04C118.097 302.284 116.716 302.835 116.716 304.562C116.716 306.244 118 307.199 119.585 307.199ZM119.722 306.273C118.58 306.273 117.727 305.665 117.727 304.608C117.727 303.551 118.591 303.108 120.068 302.926C120.784 302.841 122.057 302.682 122.352 302.392V303.653C122.352 305.085 121.335 306.273 119.722 306.273ZM129.491 298.273H127.645V296.182H126.628V298.273H125.327V299.153H126.628V304.96C126.628 306.386 127.753 307.131 128.872 307.131C129.293 307.131 129.577 307.051 129.77 306.977L129.554 306.062C129.412 306.102 129.23 306.142 128.963 306.142C128.276 306.142 127.645 305.818 127.645 304.722V299.153H129.491V298.273ZM131.8 307H132.817V298.273H131.8V307ZM132.317 296.773C132.732 296.773 133.078 296.443 133.078 296.045C133.078 295.648 132.732 295.318 132.317 295.318C131.902 295.318 131.561 295.648 131.561 296.045C131.561 296.443 131.902 296.773 132.317 296.773ZM138.884 307.182C141.145 307.182 142.724 305.335 142.724 302.676C142.724 300 141.145 298.153 138.884 298.153C136.622 298.153 135.043 300 135.043 302.676C135.043 305.335 136.622 307.182 138.884 307.182ZM138.884 306.256C137.071 306.256 136.06 304.631 136.06 302.676C136.06 300.722 137.071 299.074 138.884 299.074C140.696 299.074 141.707 300.722 141.707 302.676C141.707 304.631 140.696 306.256 138.884 306.256ZM145.956 301.545C145.956 300.023 146.956 299.085 148.331 299.085C149.672 299.085 150.536 299.983 150.536 301.409V307H151.547V301.347C151.547 299.278 150.348 298.159 148.587 298.159C147.308 298.159 146.428 298.75 146.018 299.642H145.928V298.273H144.945V307H145.956V301.545Z" fill="#444444"/>
<path d="M37 281H154V279H37V281ZM154 321H37V323H154V321ZM37 321C25.9543 321 17 312.046 17 301H15C15 313.15 24.8497 323 37 323V321ZM174 301C174 312.046 165.046 321 154 321V323C166.15 323 176 313.15 176 301H174ZM154 281C165.046 281 174 289.954 174 301H176C176 288.85 166.15 279 154 279V281ZM37 279C24.8497 279 15 288.85 15 301H17C17 289.954 25.9543 281 37 281V279Z" fill="#BBBBBB"/>
<path d="M17.3523 345H23.1342V344.165H18.282V334.818H17.3523V345ZM28.1307 345.159C29.6619 345.159 30.6911 344.329 31.0391 343.369L30.1989 343.096C29.9055 343.782 29.2145 344.349 28.1307 344.349C26.5696 344.349 25.5803 343.21 25.5405 341.445H31.228V341.008C31.228 338.457 29.652 337.259 27.9964 337.259C26.0178 337.259 24.6506 338.915 24.6506 341.227C24.6506 343.543 25.9929 345.159 28.1307 345.159ZM25.5455 340.665C25.6399 339.243 26.5994 338.065 27.9964 338.065C29.3636 338.065 30.3232 339.193 30.3232 340.665H25.5455ZM36.1859 337.364H34.5701V335.534H33.6802V337.364H32.5417V338.134H33.6802V343.215C33.6802 344.463 34.6646 345.114 35.644 345.114C36.0119 345.114 36.2605 345.045 36.4295 344.98L36.2406 344.18C36.1163 344.214 35.9572 344.249 35.7235 344.249C35.122 344.249 34.5701 343.966 34.5701 343.006V338.134H36.1859V337.364ZM45.141 337.364H43.5252V335.534H42.6353V337.364H41.4968V338.134H42.6353V343.215C42.6353 344.463 43.6197 345.114 44.5991 345.114C44.967 345.114 45.2156 345.045 45.3846 344.98L45.1957 344.18C45.0714 344.214 44.9123 344.249 44.6786 344.249C44.0771 344.249 43.5252 343.966 43.5252 343.006V338.134H45.141V337.364ZM48.1998 340.227C48.1998 338.895 49.0946 338.075 50.3176 338.075C51.5009 338.075 52.2566 338.85 52.2566 340.108V345H53.1465V340.053C53.1465 338.234 52.0925 337.264 50.5414 337.264C49.388 337.264 48.6373 337.771 48.2793 338.562H48.1998V334.818H47.3148V345H48.1998V340.227ZM58.5643 345.159C60.0955 345.159 61.1246 344.329 61.4727 343.369L60.6325 343.096C60.3391 343.782 59.6481 344.349 58.5643 344.349C57.0032 344.349 56.0138 343.21 55.9741 341.445H61.6616V341.008C61.6616 338.457 60.0856 337.259 58.43 337.259C56.4513 337.259 55.0842 338.915 55.0842 341.227C55.0842 343.543 56.4265 345.159 58.5643 345.159ZM55.979 340.665C56.0735 339.243 57.033 338.065 58.43 338.065C59.7972 338.065 60.7567 339.193 60.7567 340.665H55.979ZM68.4341 340.227C68.4341 338.895 69.329 338.075 70.552 338.075C71.7353 338.075 72.4909 338.85 72.4909 340.108V345H73.3809V340.053C73.3809 338.234 72.3269 337.264 70.7757 337.264C69.6223 337.264 68.8716 337.771 68.5137 338.562H68.4341V334.818H67.5492V345H68.4341V340.227ZM78.6793 345.159C80.658 345.159 82.0401 343.543 82.0401 341.217C82.0401 338.875 80.658 337.259 78.6793 337.259C76.7006 337.259 75.3185 338.875 75.3185 341.217C75.3185 343.543 76.7006 345.159 78.6793 345.159ZM78.6793 344.349C77.0934 344.349 76.2085 342.927 76.2085 341.217C76.2085 339.506 77.0934 338.065 78.6793 338.065C80.2653 338.065 81.1502 339.506 81.1502 341.217C81.1502 342.927 80.2653 344.349 78.6793 344.349ZM89.1135 339.039C88.7406 337.935 87.9252 337.259 86.5282 337.259C84.987 337.259 83.8684 338.139 83.8684 339.397C83.8684 340.421 84.4899 341.117 85.8173 341.435L87.0652 341.734C87.9054 341.933 88.3081 342.365 88.3081 342.977C88.3081 343.772 87.5474 344.364 86.3741 344.364C85.3301 344.364 84.6788 343.891 84.465 342.987L83.6149 343.195C83.8833 344.468 84.8926 345.159 86.389 345.159C88.0694 345.159 89.2228 344.234 89.2228 342.937C89.2228 341.918 88.5815 341.237 87.3038 340.923L86.1504 340.64C85.2008 340.401 84.7583 340.018 84.7583 339.357C84.7583 338.582 85.4991 338.04 86.5282 338.04C87.5574 338.04 88.0645 338.582 88.3031 339.268L89.1135 339.039ZM94.1683 337.364H92.5526V335.534H91.6626V337.364H90.5241V338.134H91.6626V343.215C91.6626 344.463 92.647 345.114 93.6264 345.114C93.9943 345.114 94.2429 345.045 94.4119 344.98L94.223 344.18C94.0987 344.214 93.9396 344.249 93.706 344.249C93.1044 344.249 92.5526 343.966 92.5526 343.006V338.134H94.1683V337.364ZM100.116 345H101.001V342.042L101.881 341.217L104.873 345H106.007L102.542 340.635L105.808 337.364H104.689L101.11 340.958H101.001V334.818H100.116V345ZM108.356 340.227C108.356 338.895 109.231 338.075 110.434 338.075C111.607 338.075 112.363 338.86 112.363 340.108V345H113.248V340.053C113.248 338.244 112.199 337.264 110.658 337.264C109.539 337.264 108.769 337.781 108.411 338.562H108.331V337.364H107.471V345H108.356V340.227ZM118.547 345.159C120.525 345.159 121.907 343.543 121.907 341.217C121.907 338.875 120.525 337.259 118.547 337.259C116.568 337.259 115.186 338.875 115.186 341.217C115.186 343.543 116.568 345.159 118.547 345.159ZM118.547 344.349C116.961 344.349 116.076 342.927 116.076 341.217C116.076 339.506 116.961 338.065 118.547 338.065C120.132 338.065 121.017 339.506 121.017 341.217C121.017 342.927 120.132 344.349 118.547 344.349ZM125.286 345H126.2L128.01 338.741H128.104L129.914 345H130.829L133.136 337.364H132.201L130.391 343.648H130.322L128.532 337.364H127.592L125.788 343.663H125.723L123.913 337.364H122.979L125.286 345ZM139.678 340.227C139.678 338.895 140.573 338.075 141.796 338.075C142.979 338.075 143.735 338.85 143.735 340.108V345H144.625V340.053C144.625 338.234 143.571 337.264 142.02 337.264C140.866 337.264 140.116 337.771 139.758 338.562H139.678V334.818H138.793V345H139.678V340.227ZM149.923 345.159C151.902 345.159 153.284 343.543 153.284 341.217C153.284 338.875 151.902 337.259 149.923 337.259C147.945 337.259 146.563 338.875 146.563 341.217C146.563 343.543 147.945 345.159 149.923 345.159ZM149.923 344.349C148.338 344.349 147.453 342.927 147.453 341.217C147.453 339.506 148.338 338.065 149.923 338.065C151.509 338.065 152.394 339.506 152.394 341.217C152.394 342.927 151.509 344.349 149.923 344.349ZM156.662 345H157.577L159.387 338.741H159.481L161.291 345H162.206L164.513 337.364H163.578L161.768 343.648H161.699L159.909 337.364H158.969L157.165 343.663H157.1L155.29 337.364H154.356L156.662 345ZM171.055 334.818H170.17V345H171.055V334.818ZM176.365 345.159C178.344 345.159 179.726 343.543 179.726 341.217C179.726 338.875 178.344 337.259 176.365 337.259C174.386 337.259 173.004 338.875 173.004 341.217C173.004 343.543 174.386 345.159 176.365 345.159ZM176.365 344.349C174.779 344.349 173.894 342.927 173.894 341.217C173.894 339.506 174.779 338.065 176.365 338.065C177.951 338.065 178.836 339.506 178.836 341.217C178.836 342.927 177.951 344.349 176.365 344.349ZM182.553 340.227C182.553 338.895 183.428 338.075 184.631 338.075C185.805 338.075 186.56 338.86 186.56 340.108V345H187.445V340.053C187.445 338.244 186.396 337.264 184.855 337.264C183.737 337.264 182.966 337.781 182.608 338.562H182.528V337.364H181.668V345H182.553V340.227ZM192.689 348.023C194.499 348.023 195.841 347.138 195.841 345.199V337.364H194.976V338.82H194.887C194.573 338.134 193.942 337.259 192.54 337.259C190.651 337.259 189.383 338.84 189.383 341.162C189.383 343.504 190.695 344.92 192.525 344.92C193.897 344.92 194.568 344.125 194.872 343.424H194.951V345.144C194.951 346.566 194.041 347.227 192.689 347.227C191.382 347.227 190.755 346.596 190.432 346.014L189.706 346.491C190.154 347.366 191.128 348.023 192.689 348.023ZM192.629 344.11C191.113 344.11 190.273 342.897 190.273 341.147C190.273 339.427 191.098 338.065 192.629 338.065C194.126 338.065 194.966 339.357 194.966 341.147C194.966 342.991 194.101 344.11 192.629 344.11ZM203.817 345H204.732L206.541 338.741H206.636L208.445 345H209.36L211.667 337.364H210.732L208.923 343.648H208.853L207.063 337.364H206.124L204.319 343.663H204.254L202.445 337.364H201.51L203.817 345ZM213.397 345H214.287V337.364H213.397V345ZM213.849 336.051C214.212 336.051 214.516 335.763 214.516 335.415C214.516 335.067 214.212 334.778 213.849 334.778C213.487 334.778 213.188 335.067 213.188 335.415C213.188 335.763 213.487 336.051 213.849 336.051ZM217.512 334.818H216.627V345H217.512V334.818ZM220.739 334.818H219.854V345H220.739V334.818ZM227.634 347.864C228.589 347.864 229.29 347.317 229.698 346.208L232.934 337.379L231.97 337.364L229.703 343.832H229.633L227.366 337.364H226.406L229.215 345.075L228.937 345.85C228.514 347.004 227.918 347.207 227.018 346.924L226.779 347.705C226.958 347.789 227.286 347.864 227.634 347.864ZM237.355 345.159C239.334 345.159 240.716 343.543 240.716 341.217C240.716 338.875 239.334 337.259 237.355 337.259C235.376 337.259 233.994 338.875 233.994 341.217C233.994 343.543 235.376 345.159 237.355 345.159ZM237.355 344.349C235.769 344.349 234.884 342.927 234.884 341.217C234.884 339.506 235.769 338.065 237.355 338.065C238.941 338.065 239.826 339.506 239.826 341.217C239.826 342.927 238.941 344.349 237.355 344.349ZM247.511 342.082C247.511 343.484 246.457 344.239 245.423 344.239C244.319 344.239 243.544 343.449 243.544 342.256V337.364H242.659V342.31C242.659 344.12 243.703 345.099 245.169 345.099C246.288 345.099 247.083 344.518 247.441 343.732H247.511V345H248.396V337.364H247.511V342.082ZM254.86 345H255.72V343.583H255.83C256.138 344.284 256.784 345.159 258.176 345.159C260.05 345.159 261.318 343.573 261.318 341.202C261.318 338.85 260.045 337.259 258.161 337.259C256.764 337.259 256.133 338.134 255.83 338.82H255.75V334.818H254.86V345ZM255.735 341.187C255.735 339.357 256.575 338.065 258.067 338.065C259.598 338.065 260.428 339.427 260.428 341.187C260.428 342.967 259.588 344.349 258.067 344.349C256.585 344.349 255.735 343.031 255.735 341.187ZM266.349 345.159C267.881 345.159 268.91 344.329 269.258 343.369L268.418 343.096C268.124 343.782 267.433 344.349 266.349 344.349C264.788 344.349 263.799 343.21 263.759 341.445H269.447V341.008C269.447 338.457 267.871 337.259 266.215 337.259C264.237 337.259 262.869 338.915 262.869 341.227C262.869 343.543 264.212 345.159 266.349 345.159ZM263.764 340.665C263.859 339.243 264.818 338.065 266.215 338.065C267.582 338.065 268.542 339.193 268.542 340.665H263.764ZM17.1683 365H18.0533V360.068C18.0533 358.935 18.9233 358.114 20.1165 358.114C20.3501 358.114 20.5689 358.154 20.6484 358.164V357.264C20.5291 357.259 20.3253 357.249 20.1811 357.249C19.2216 357.249 18.4013 357.766 18.093 358.537H18.0284V357.364H17.1683V365ZM25.0135 365.159C26.5447 365.159 27.5739 364.329 27.9219 363.369L27.0817 363.096C26.7884 363.782 26.0973 364.349 25.0135 364.349C23.4524 364.349 22.4631 363.21 22.4233 361.445H28.1108V361.008C28.1108 358.457 26.5348 357.259 24.8793 357.259C22.9006 357.259 21.5334 358.915 21.5334 361.227C21.5334 363.543 22.8757 365.159 25.0135 365.159ZM22.4283 360.665C22.5227 359.243 23.4822 358.065 24.8793 358.065C26.2464 358.065 27.206 359.193 27.206 360.665H22.4283ZM30.9458 360.227C30.9458 358.895 31.8208 358.075 33.024 358.075C34.1973 358.075 34.9529 358.86 34.9529 360.108V365H35.8379V360.053C35.8379 358.244 34.7889 357.264 33.2477 357.264C32.1291 357.264 31.3585 357.781 31.0005 358.562H30.921V357.364H30.0609V365H30.9458V360.227ZM41.1761 357.364H39.5604V355.534H38.6705V357.364H37.532V358.134H38.6705V363.215C38.6705 364.463 39.6548 365.114 40.6342 365.114C41.0021 365.114 41.2507 365.045 41.4197 364.98L41.2308 364.18C41.1065 364.214 40.9474 364.249 40.7138 364.249C40.1122 364.249 39.5604 363.966 39.5604 363.006V358.134H41.1761V357.364ZM43.1958 365H44.0858V357.364H43.1958V365ZM43.6483 356.051C44.0112 356.051 44.3145 355.763 44.3145 355.415C44.3145 355.067 44.0112 354.778 43.6483 354.778C43.2853 354.778 42.987 355.067 42.987 355.415C42.987 355.763 43.2853 356.051 43.6483 356.051ZM47.3111 360.227C47.3111 358.895 48.1861 358.075 49.3892 358.075C50.5625 358.075 51.3182 358.86 51.3182 360.108V365H52.2031V360.053C52.2031 358.244 51.1541 357.264 49.6129 357.264C48.4943 357.264 47.7237 357.781 47.3658 358.562H47.2862V357.364H46.4261V365H47.3111V360.227ZM57.4469 368.023C59.2566 368.023 60.5989 367.138 60.5989 365.199V357.364H59.7338V358.82H59.6444C59.3311 358.134 58.6998 357.259 57.2978 357.259C55.4086 357.259 54.1408 358.84 54.1408 361.162C54.1408 363.504 55.4533 364.92 57.2828 364.92C58.655 364.92 59.3262 364.125 59.6294 363.424H59.709V365.144C59.709 366.566 58.7992 367.227 57.4469 367.227C56.1394 367.227 55.513 366.596 55.1898 366.014L54.464 366.491C54.9114 367.366 55.8858 368.023 57.4469 368.023ZM57.3873 364.11C55.8709 364.11 55.0307 362.897 55.0307 361.147C55.0307 359.427 55.856 358.065 57.3873 358.065C58.8837 358.065 59.7239 359.357 59.7239 361.147C59.7239 362.991 58.8588 364.11 57.3873 364.11ZM69.8871 357.364H68.2713V355.534H67.3814V357.364H66.2429V358.134H67.3814V363.215C67.3814 364.463 68.3658 365.114 69.3452 365.114C69.7131 365.114 69.9616 365.045 70.1307 364.98L69.9418 364.18C69.8175 364.214 69.6584 364.249 69.4247 364.249C68.8232 364.249 68.2713 363.966 68.2713 363.006V358.134H69.8871V357.364ZM72.9458 360.227C72.9458 358.895 73.8407 358.075 75.0637 358.075C76.247 358.075 77.0027 358.85 77.0027 360.108V365H77.8926V360.053C77.8926 358.234 76.8386 357.264 75.2875 357.264C74.1341 357.264 73.3833 357.771 73.0254 358.562H72.9458V354.818H72.0609V365H72.9458V360.227ZM83.3104 365.159C84.8416 365.159 85.8707 364.329 86.2188 363.369L85.3786 363.096C85.0852 363.782 84.3942 364.349 83.3104 364.349C81.7493 364.349 80.7599 363.21 80.7202 361.445H86.4077V361.008C86.4077 358.457 84.8317 357.259 83.1761 357.259C81.1974 357.259 79.8303 358.915 79.8303 361.227C79.8303 363.543 81.1726 365.159 83.3104 365.159ZM80.7251 360.665C80.8196 359.243 81.7791 358.065 83.1761 358.065C84.5433 358.065 85.5028 359.193 85.5028 360.665H80.7251ZM93.9906 365H94.9054L96.715 358.741H96.8095L98.6191 365H99.5339L101.841 357.364H100.906L99.0964 363.648H99.0268L97.237 357.364H96.2974L94.4927 363.663H94.4281L92.6184 357.364H91.6838L93.9906 365ZM106.269 365.159C108.248 365.159 109.63 363.543 109.63 361.217C109.63 358.875 108.248 357.259 106.269 357.259C104.29 357.259 102.908 358.875 102.908 361.217C102.908 363.543 104.29 365.159 106.269 365.159ZM106.269 364.349C104.683 364.349 103.798 362.927 103.798 361.217C103.798 359.506 104.683 358.065 106.269 358.065C107.855 358.065 108.74 359.506 108.74 361.217C108.74 362.927 107.855 364.349 106.269 364.349ZM111.573 365H112.458V360.068C112.458 358.935 113.328 358.114 114.521 358.114C114.754 358.114 114.973 358.154 115.053 358.164V357.264C114.933 357.259 114.73 357.249 114.585 357.249C113.626 357.249 112.806 357.766 112.497 358.537H112.433V357.364H111.573V365ZM116.563 365H117.448V362.042L118.328 361.217L121.321 365H122.454L118.989 360.635L122.255 357.364H121.137L117.557 360.958H117.448V354.818H116.563V365ZM129.049 359.039C128.676 357.935 127.861 357.259 126.464 357.259C124.923 357.259 123.804 358.139 123.804 359.397C123.804 360.421 124.425 361.117 125.753 361.435L127.001 361.734C127.841 361.933 128.244 362.365 128.244 362.977C128.244 363.772 127.483 364.364 126.31 364.364C125.266 364.364 124.614 363.891 124.401 362.987L123.55 363.195C123.819 364.468 124.828 365.159 126.325 365.159C128.005 365.159 129.158 364.234 129.158 362.937C129.158 361.918 128.517 361.237 127.239 360.923L126.086 360.64C125.136 360.401 124.694 360.018 124.694 359.357C124.694 358.582 125.435 358.04 126.464 358.04C127.493 358.04 128 358.582 128.239 359.268L129.049 359.039ZM131.081 367.864H131.971V363.583H132.051C132.354 364.284 133.01 365.159 134.397 365.159C136.267 365.159 137.539 363.568 137.539 361.202C137.539 358.845 136.271 357.259 134.382 357.259C132.98 357.259 132.359 358.134 132.051 358.82H131.941V357.364H131.081V367.864ZM131.956 361.187C131.956 359.357 132.796 358.065 134.288 358.065C135.824 358.065 136.649 359.427 136.649 361.187C136.649 362.967 135.809 364.349 134.288 364.349C132.811 364.349 131.956 363.031 131.956 361.187ZM141.61 365.174C142.882 365.174 143.658 364.468 143.976 363.792H144.031V365H144.916V359.815C144.916 357.766 143.375 357.259 142.206 357.259C141.038 357.259 139.835 357.722 139.318 358.969L140.158 359.273C140.436 358.616 141.127 358.055 142.231 358.055C143.39 358.055 144.031 358.691 144.031 359.735V359.914C144.031 360.491 143.315 360.501 142.032 360.66C140.307 360.874 139.099 361.356 139.099 362.867C139.099 364.339 140.223 365.174 141.61 365.174ZM141.729 364.364C140.73 364.364 139.984 363.832 139.984 362.907C139.984 361.982 140.74 361.594 142.032 361.435C142.659 361.361 143.772 361.222 144.031 360.968V362.072C144.031 363.325 143.141 364.364 141.729 364.364ZM150.253 365.159C151.844 365.159 152.962 364.155 153.166 362.773H152.271C152.067 363.747 151.267 364.349 150.253 364.349C148.756 364.349 147.767 363.046 147.767 361.187C147.767 359.337 148.786 358.065 150.253 358.065C151.342 358.065 152.077 358.766 152.266 359.631H153.161C152.952 358.214 151.769 357.259 150.238 357.259C148.239 357.259 146.877 358.92 146.877 361.217C146.877 363.494 148.2 365.159 150.253 365.159ZM158.15 365.159C159.681 365.159 160.711 364.329 161.059 363.369L160.218 363.096C159.925 363.782 159.234 364.349 158.15 364.349C156.589 364.349 155.6 363.21 155.56 361.445H161.248V361.008C161.248 358.457 159.672 357.259 158.016 357.259C156.037 357.259 154.67 358.915 154.67 361.227C154.67 363.543 156.012 365.159 158.15 365.159ZM155.565 360.665C155.659 359.243 156.619 358.065 158.016 358.065C159.383 358.065 160.343 359.193 160.343 360.665H155.565Z" fill="#777777"/>
<path d="M16 394H359" stroke="#DDDDDD"/>
<rect y="599" width="375" height="68" fill="white"/>
<path d="M375 599H3.05176e-05" stroke="#DDDDDD"/>
<g filter="url(#filter0_d)">
<path d="M227 614C227 610.686 229.686 608 233 608H377C380.314 608 383 610.686 383 614V652C383 655.314 380.314 658 377 658H233C229.686 658 227 655.314 227 652V614Z" fill="#444444"/>
<path d="M265.943 631.148C265.545 628.659 263.597 627.205 261.136 627.205C258.125 627.205 255.903 629.46 255.903 633.182C255.903 636.903 258.114 639.159 261.136 639.159C263.693 639.159 265.562 637.557 265.943 635.256L264.17 635.25C263.869 636.739 262.619 637.557 261.148 637.557C259.153 637.557 257.648 636.028 257.648 633.182C257.648 630.358 259.148 628.807 261.153 628.807C262.636 628.807 263.881 629.642 264.17 631.148H265.943ZM271.584 639.176C274.044 639.176 275.652 637.375 275.652 634.676C275.652 631.96 274.044 630.159 271.584 630.159C269.124 630.159 267.516 631.96 267.516 634.676C267.516 637.375 269.124 639.176 271.584 639.176ZM271.589 637.75C269.982 637.75 269.232 636.347 269.232 634.67C269.232 633 269.982 631.58 271.589 631.58C273.186 631.58 273.936 633 273.936 634.67C273.936 636.347 273.186 637.75 271.589 637.75ZM279.247 633.818C279.247 632.426 280.099 631.631 281.281 631.631C282.435 631.631 283.134 632.386 283.134 633.653V639H284.832V633.449C284.832 631.29 283.645 630.159 281.861 630.159C280.548 630.159 279.69 630.767 279.287 631.693H279.179V630.273H277.548V639H279.247V633.818ZM291.185 630.273H289.395V628.182H287.696V630.273H286.418V631.636H287.696V636.79C287.69 638.375 288.901 639.142 290.241 639.114C290.781 639.108 291.145 639.006 291.344 638.932L291.037 637.528C290.923 637.551 290.713 637.602 290.44 637.602C289.889 637.602 289.395 637.42 289.395 636.438V631.636H291.185V630.273ZM295.604 639.193C297.047 639.193 297.859 638.46 298.183 637.807H298.251V639H299.911V633.205C299.911 630.665 297.911 630.159 296.524 630.159C294.945 630.159 293.49 630.795 292.922 632.386L294.518 632.75C294.768 632.131 295.405 631.534 296.547 631.534C297.643 631.534 298.206 632.108 298.206 633.097V633.136C298.206 633.756 297.57 633.744 296.001 633.926C294.348 634.119 292.655 634.551 292.655 636.534C292.655 638.25 293.945 639.193 295.604 639.193ZM295.973 637.83C295.013 637.83 294.32 637.398 294.32 636.557C294.32 635.648 295.126 635.324 296.109 635.193C296.661 635.119 297.967 634.972 298.212 634.727V635.852C298.212 636.886 297.388 637.83 295.973 637.83ZM305.849 639.176C307.912 639.176 309.247 637.938 309.435 636.239H307.781C307.565 637.182 306.832 637.739 305.861 637.739C304.423 637.739 303.497 636.54 303.497 634.636C303.497 632.767 304.44 631.591 305.861 631.591C306.94 631.591 307.599 632.273 307.781 633.091H309.435C309.253 631.33 307.815 630.159 305.832 630.159C303.372 630.159 301.781 632.011 301.781 634.676C301.781 637.307 303.315 639.176 305.849 639.176ZM315.325 630.273H313.536V628.182H311.837V630.273H310.558V631.636H311.837V636.79C311.831 638.375 313.041 639.142 314.382 639.114C314.922 639.108 315.286 639.006 315.484 638.932L315.178 637.528C315.064 637.551 314.854 637.602 314.581 637.602C314.03 637.602 313.536 637.42 313.536 636.438V631.636H315.325V630.273ZM323.138 633.818C323.138 632.426 324.018 631.631 325.229 631.631C326.399 631.631 327.098 632.375 327.098 633.653V639H328.797V633.449C328.797 631.273 327.604 630.159 325.808 630.159C324.45 630.159 323.632 630.75 323.223 631.693H323.115V627.364H321.439V639H323.138V633.818ZM334.74 639.176C337.2 639.176 338.808 637.375 338.808 634.676C338.808 631.96 337.2 630.159 334.74 630.159C332.28 630.159 330.672 631.96 330.672 634.676C330.672 637.375 332.28 639.176 334.74 639.176ZM334.746 637.75C333.138 637.75 332.388 636.347 332.388 634.67C332.388 633 333.138 631.58 334.746 631.58C336.342 631.58 337.092 633 337.092 634.67C337.092 636.347 336.342 637.75 334.746 637.75ZM347.244 632.403C346.892 631.045 345.83 630.159 343.943 630.159C341.972 630.159 340.574 631.199 340.574 632.744C340.574 633.983 341.324 634.807 342.96 635.17L344.438 635.494C345.278 635.682 345.67 636.057 345.67 636.602C345.67 637.278 344.949 637.807 343.835 637.807C342.818 637.807 342.165 637.369 341.96 636.511L340.318 636.761C340.602 638.307 341.886 639.176 343.847 639.176C345.955 639.176 347.415 638.057 347.415 636.477C347.415 635.244 346.631 634.483 345.028 634.114L343.642 633.795C342.682 633.568 342.267 633.244 342.273 632.653C342.267 631.983 342.994 631.506 343.96 631.506C345.017 631.506 345.506 632.091 345.705 632.676L347.244 632.403ZM353.357 630.273H351.567V628.182H349.868V630.273H348.589V631.636H349.868V636.79C349.862 638.375 351.072 639.142 352.413 639.114C352.953 639.108 353.317 639.006 353.516 638.932L353.209 637.528C353.095 637.551 352.885 637.602 352.612 637.602C352.061 637.602 351.567 637.42 351.567 636.438V631.636H353.357V630.273Z" fill="white"/>
</g>
<path d="M23.1176 644.182H24.9244L24.9329 642.23C28.5891 641.966 30.6857 639.955 30.6943 637.099C30.6857 634.074 28.1886 632.693 25.5636 632.071L25.0011 631.926L25.0352 627.06C26.3988 627.298 27.2766 628.116 27.413 629.344H30.4556C30.4045 626.634 28.2738 624.656 25.0522 624.349L25.0607 622.364H23.2539L23.2454 624.349C20.0494 624.673 17.7482 626.634 17.7568 629.455C17.7568 631.96 19.538 633.401 22.4102 634.142L23.1772 634.338L23.1431 639.494C21.6176 639.256 20.5181 638.386 20.4073 636.844H17.2965C17.4159 640.04 19.6147 641.94 23.1261 642.23L23.1176 644.182ZM24.9499 639.494L24.984 634.815C26.5352 635.267 27.5238 635.864 27.5323 637.074C27.5238 638.335 26.5096 639.239 24.9499 639.494ZM23.1943 631.466C22.0181 631.091 20.9443 630.469 20.9613 629.259C20.9698 628.159 21.7965 627.307 23.2284 627.06L23.1943 631.466ZM39.1269 642.239C42.8599 642.239 45.5786 640.099 45.5701 637.151C45.5786 634.969 44.215 633.401 41.7689 633.051V632.915C43.661 632.506 44.9309 631.099 44.9224 629.139C44.9309 626.48 42.6638 624.307 39.178 624.307C35.786 624.307 33.161 626.327 33.0928 629.25H36.1354C36.1866 627.784 37.5502 626.872 39.161 626.872C40.7888 626.872 41.8712 627.861 41.8627 629.327C41.8712 630.852 40.6099 631.866 38.803 631.866H37.2604V634.304H38.803C41.0104 634.304 42.3229 635.412 42.3144 636.989C42.3229 638.531 40.9849 639.588 39.1184 639.588C37.3627 639.588 36.0076 638.676 35.9309 637.253H32.7263C32.8116 640.202 35.4451 642.239 39.1269 642.239ZM54.4672 642.332C58.6774 642.341 61.1916 639.017 61.1916 633.29C61.1916 627.597 58.6604 624.307 54.4672 624.307C50.274 624.307 47.7513 627.588 47.7428 633.29C47.7428 639.009 50.257 642.332 54.4672 642.332ZM54.4672 639.665C52.2939 639.665 50.9303 637.483 50.9388 633.29C50.9473 629.131 52.3024 626.94 54.4672 626.94C56.6405 626.94 57.9956 629.131 58.0041 633.29C58.0041 637.483 56.649 639.665 54.4672 639.665ZM69.995 642.332C74.2053 642.341 76.7195 639.017 76.7195 633.29C76.7195 627.597 74.1882 624.307 69.995 624.307C65.8018 624.307 63.2791 627.588 63.2706 633.29C63.2706 639.009 65.7848 642.332 69.995 642.332ZM69.995 639.665C67.8217 639.665 66.4581 637.483 66.4666 633.29C66.4751 629.131 67.8303 626.94 69.995 626.94C72.1683 626.94 73.5234 629.131 73.532 633.29C73.532 637.483 72.1768 639.665 69.995 639.665Z" fill="#444444"/>
<path d="M87.3793 628.818H86.4304L82.6804 642.75H83.6293L87.3793 628.818ZM93.6321 641H94.6435V635.409C94.6435 634.051 95.5469 633.085 96.7571 633.085C97.9503 633.085 98.6435 633.881 98.6435 635.062V641H99.6776V635.256C99.6776 634 100.428 633.085 101.757 633.085C102.911 633.085 103.678 633.778 103.678 635.153V641H104.689V635.153C104.689 633.199 103.683 632.159 102.064 632.159C100.791 632.159 99.8707 632.778 99.4787 633.744H99.4048C99.0185 632.756 98.2514 632.159 97.0469 632.159C95.9048 632.159 95.0526 632.71 94.706 633.614H94.6151V632.273H93.6321V641ZM110.759 641.182C113.02 641.182 114.599 639.335 114.599 636.676C114.599 634 113.02 632.153 110.759 632.153C108.497 632.153 106.918 634 106.918 636.676C106.918 639.335 108.497 641.182 110.759 641.182ZM110.759 640.256C108.946 640.256 107.935 638.631 107.935 636.676C107.935 634.722 108.946 633.074 110.759 633.074C112.571 633.074 113.582 634.722 113.582 636.676C113.582 638.631 112.571 640.256 110.759 640.256ZM117.831 635.545C117.831 634.023 118.831 633.085 120.206 633.085C121.547 633.085 122.411 633.983 122.411 635.409V641H123.422V635.347C123.422 633.278 122.223 632.159 120.462 632.159C119.183 632.159 118.303 632.75 117.893 633.642H117.803V632.273H116.82V641H117.831V635.545ZM129.523 632.273H127.676V630.182H126.659V632.273H125.358V633.153H126.659V638.96C126.659 640.386 127.784 641.131 128.903 641.131C129.324 641.131 129.608 641.051 129.801 640.977L129.585 640.062C129.443 640.102 129.261 640.142 128.994 640.142C128.307 640.142 127.676 639.818 127.676 638.722V633.153H129.523V632.273ZM133.018 635.545C133.018 634.023 134.041 633.085 135.439 633.085C136.791 633.085 137.655 633.972 137.655 635.409V641H138.672V635.347C138.672 633.267 137.467 632.159 135.695 632.159C134.376 632.159 133.518 632.739 133.109 633.642H133.018V629.364H132.007V641H133.018V635.545Z" fill="#444444"/>
</g>
<defs>
<filter id="filter0_d" x="223" y="607" width="164" height="58" filterUnits="userSpaceOnUse" color-interpolation-filters="sRGB">
<feFlood flood-opacity="0" result="BackgroundImageFix"/>
<feColorMatrix in="SourceAlpha" type="matrix" values="0 0 0 0 0 0 0 0 0 0 0 0 0 0 0 0 0 0 127 0" result="hardAlpha"/>
<feOffset dy="3"/>
<feGaussianBlur stdDeviation="2"/>
<feColorMatrix type="matrix" values="0 0 0 0 0 0 0 0 0 0 0 0 0 0 0 0 0 0 0.16 0"/>
<feBlend mode="normal" in2="BackgroundImageFix" result="effect1_dropShadow"/>
<feBlend mode="normal" in="SourceGraphic" in2="effect1_dropShadow" result="shape"/>
</filter>
<clipPath id="clip0">
<rect width="375" height="667" fill="white"/>
</clipPath>
</defs>
</svg>
