<svg width="375" height="667" viewBox="0 0 375 667" fill="none" xmlns="http://www.w3.org/2000/svg">
<g clip-path="url(#clip0)">
<rect width="375" height="667" fill="white"/>
<path d="M41.5682 127H42.7045L45.4034 117.131H45.4773L48.1761 127H49.3125L52.5 115.364H51.4148L48.7784 125.369H48.6875L46.0511 115.364H44.8239L42.1875 125.369H42.0966L39.4602 115.364H38.3807L41.5682 127ZM56.7898 127.182C59.0511 127.182 60.6307 125.335 60.6307 122.676C60.6307 120 59.0511 118.153 56.7898 118.153C54.5284 118.153 52.9489 120 52.9489 122.676C52.9489 125.335 54.5284 127.182 56.7898 127.182ZM56.7898 126.256C54.9773 126.256 53.9659 124.631 53.9659 122.676C53.9659 120.722 54.9773 119.074 56.7898 119.074C58.6023 119.074 59.6136 120.722 59.6136 122.676C59.6136 124.631 58.6023 126.256 56.7898 126.256ZM62.8509 127H63.8622V121.364C63.8622 120.068 64.8565 119.131 66.2202 119.131C66.4872 119.131 66.7372 119.176 66.8281 119.188V118.159C66.6918 118.153 66.4588 118.142 66.294 118.142C65.1974 118.142 64.2599 118.733 63.9077 119.614H63.8338V118.273H62.8509V127ZM68.554 127H69.5653V123.619L70.571 122.676L73.9915 127H75.2869L71.3267 122.011L75.0597 118.273H73.7812L69.6903 122.381H69.5653V115.364H68.554V127ZM82.8239 120.188C82.3977 118.926 81.4659 118.153 79.8693 118.153C78.108 118.153 76.8295 119.159 76.8295 120.597C76.8295 121.767 77.5398 122.562 79.0568 122.926L80.483 123.267C81.4432 123.494 81.9034 123.989 81.9034 124.688C81.9034 125.597 81.0341 126.273 79.6932 126.273C78.5 126.273 77.7557 125.733 77.5114 124.699L76.5398 124.938C76.8466 126.392 78 127.182 79.7102 127.182C81.6307 127.182 82.9489 126.125 82.9489 124.642C82.9489 123.477 82.2159 122.699 80.7557 122.341L79.4375 122.017C78.3523 121.744 77.8466 121.307 77.8466 120.551C77.8466 119.665 78.6932 119.045 79.8693 119.045C81.0455 119.045 81.625 119.665 81.8977 120.449L82.8239 120.188ZM85.1463 130.273H86.1634V125.381H86.2543C86.6009 126.182 87.3509 127.182 88.9361 127.182C91.0724 127.182 92.527 125.364 92.527 122.659C92.527 119.966 91.0781 118.153 88.919 118.153C87.3168 118.153 86.6065 119.153 86.2543 119.938H86.1293V118.273H85.1463V130.273ZM86.1463 122.642C86.1463 120.551 87.1065 119.074 88.8111 119.074C90.5668 119.074 91.5099 120.631 91.5099 122.642C91.5099 124.676 90.5497 126.256 88.8111 126.256C87.1236 126.256 86.1463 124.75 86.1463 122.642ZM97.179 127.199C98.6335 127.199 99.5199 126.392 99.8835 125.619H99.946V127H100.957V121.074C100.957 118.733 99.196 118.153 97.8608 118.153C96.5256 118.153 95.1506 118.682 94.5597 120.108L95.5199 120.455C95.8381 119.705 96.6278 119.062 97.8892 119.062C99.2131 119.062 99.946 119.79 99.946 120.983V121.188C99.946 121.847 99.1278 121.858 97.6619 122.04C95.6903 122.284 94.3097 122.835 94.3097 124.562C94.3097 126.244 95.5938 127.199 97.179 127.199ZM97.3153 126.273C96.1733 126.273 95.321 125.665 95.321 124.608C95.321 123.551 96.1847 123.108 97.6619 122.926C98.3778 122.841 99.6506 122.682 99.946 122.392V123.653C99.946 125.085 98.929 126.273 97.3153 126.273ZM107.057 127.182C108.875 127.182 110.153 126.034 110.386 124.455H109.364C109.131 125.568 108.216 126.256 107.057 126.256C105.347 126.256 104.216 124.767 104.216 122.642C104.216 120.528 105.381 119.074 107.057 119.074C108.301 119.074 109.142 119.875 109.358 120.864H110.381C110.142 119.244 108.79 118.153 107.04 118.153C104.756 118.153 103.199 120.051 103.199 122.676C103.199 125.278 104.71 127.182 107.057 127.182ZM116.082 127.182C117.832 127.182 119.009 126.233 119.406 125.136L118.446 124.824C118.111 125.608 117.321 126.256 116.082 126.256C114.298 126.256 113.168 124.955 113.122 122.938H119.622V122.438C119.622 119.523 117.821 118.153 115.929 118.153C113.668 118.153 112.105 120.045 112.105 122.688C112.105 125.335 113.639 127.182 116.082 127.182ZM113.128 122.045C113.236 120.42 114.332 119.074 115.929 119.074C117.491 119.074 118.588 120.364 118.588 122.045H113.128ZM125.857 116.318H129.544V127H130.607V116.318H134.294V115.364H125.857V116.318ZM136.18 130.273C137.271 130.273 138.072 129.648 138.538 128.381L142.237 118.29L141.135 118.273L138.544 125.665H138.464L135.874 118.273H134.777L137.987 127.085L137.669 127.972C137.186 129.29 136.504 129.523 135.476 129.199L135.203 130.091C135.408 130.188 135.783 130.273 136.18 130.273ZM144.193 130.273H145.21V125.381H145.301C145.648 126.182 146.398 127.182 147.983 127.182C150.119 127.182 151.574 125.364 151.574 122.659C151.574 119.966 150.125 118.153 147.966 118.153C146.364 118.153 145.653 119.153 145.301 119.938H145.176V118.273H144.193V130.273ZM145.193 122.642C145.193 120.551 146.153 119.074 147.858 119.074C149.614 119.074 150.557 120.631 150.557 122.642C150.557 124.676 149.597 126.256 147.858 126.256C146.17 126.256 145.193 124.75 145.193 122.642ZM157.317 127.182C159.067 127.182 160.243 126.233 160.641 125.136L159.68 124.824C159.345 125.608 158.555 126.256 157.317 126.256C155.533 126.256 154.402 124.955 154.357 122.938H160.857V122.438C160.857 119.523 159.055 118.153 157.163 118.153C154.902 118.153 153.339 120.045 153.339 122.688C153.339 125.335 154.874 127.182 157.317 127.182ZM154.362 122.045C154.47 120.42 155.567 119.074 157.163 119.074C158.726 119.074 159.822 120.364 159.822 122.045H154.362ZM168.949 120.188C168.523 118.926 167.591 118.153 165.994 118.153C164.233 118.153 162.955 119.159 162.955 120.597C162.955 121.767 163.665 122.562 165.182 122.926L166.608 123.267C167.568 123.494 168.028 123.989 168.028 124.688C168.028 125.597 167.159 126.273 165.818 126.273C164.625 126.273 163.881 125.733 163.636 124.699L162.665 124.938C162.972 126.392 164.125 127.182 165.835 127.182C167.756 127.182 169.074 126.125 169.074 124.642C169.074 123.477 168.341 122.699 166.881 122.341L165.562 122.017C164.477 121.744 163.972 121.307 163.972 120.551C163.972 119.665 164.818 119.045 165.994 119.045C167.17 119.045 167.75 119.665 168.023 120.449L168.949 120.188Z" fill="#444444"/>
<path d="M37 101H171V99H37V101ZM171 141H37V143H171V141ZM37 141C25.9543 141 17 132.046 17 121H15C15 133.15 24.8497 143 37 143V141ZM191 121C191 132.046 182.046 141 171 141V143C183.15 143 193 133.15 193 121H191ZM171 101C182.046 101 191 109.954 191 121H193C193 108.85 183.15 99 171 99V101ZM37 99C24.8497 99 15 108.85 15 121H17C17 109.954 25.9543 101 37 101V99Z" fill="#BBBBBB"/>
<path d="M17.3523 165H18.282V160.322H22.7812V159.487H18.282V155.653H23.2436V154.818H17.3523V165ZM25.3814 165H26.2713V157.364H25.3814V165ZM25.8338 156.051C26.1967 156.051 26.5 155.763 26.5 155.415C26.5 155.067 26.1967 154.778 25.8338 154.778C25.4709 154.778 25.1726 155.067 25.1726 155.415C25.1726 155.763 25.4709 156.051 25.8338 156.051ZM29.4966 154.818H28.6117V165H29.4966V154.818ZM34.8461 157.364H33.2303V155.534H32.3404V157.364H31.2019V158.134H32.3404V163.215C32.3404 164.463 33.3248 165.114 34.3042 165.114C34.6721 165.114 34.9206 165.045 35.0897 164.98L34.9007 164.18C34.7765 164.214 34.6174 164.249 34.3837 164.249C33.7821 164.249 33.2303 163.966 33.2303 163.006V158.134H34.8461V157.364ZM39.8612 165.159C41.3924 165.159 42.4215 164.329 42.7695 163.369L41.9293 163.096C41.636 163.782 40.945 164.349 39.8612 164.349C38.3001 164.349 37.3107 163.21 37.271 161.445H42.9585V161.008C42.9585 158.457 41.3825 157.259 39.7269 157.259C37.7482 157.259 36.381 158.915 36.381 161.227C36.381 163.543 37.7234 165.159 39.8612 165.159ZM37.2759 160.665C37.3704 159.243 38.3299 158.065 39.7269 158.065C41.0941 158.065 42.0536 159.193 42.0536 160.665H37.2759ZM44.9086 165H45.7935V160.068C45.7935 158.935 46.6635 158.114 47.8567 158.114C48.0904 158.114 48.3091 158.154 48.3887 158.164V157.264C48.2694 157.259 48.0655 157.249 47.9213 157.249C46.9618 157.249 46.1415 157.766 45.8333 158.537H45.7686V157.364H44.9086V165ZM54.0202 165H54.8803V163.583H54.9897C55.2979 164.284 55.9442 165.159 57.3363 165.159C59.2106 165.159 60.4783 163.573 60.4783 161.202C60.4783 158.85 59.2056 157.259 57.3214 157.259C55.9244 157.259 55.293 158.134 54.9897 158.82H54.9102V154.818H54.0202V165ZM54.8952 161.187C54.8952 159.357 55.7354 158.065 57.2269 158.065C58.7582 158.065 59.5884 159.427 59.5884 161.187C59.5884 162.967 58.7482 164.349 57.2269 164.349C55.7454 164.349 54.8952 163.031 54.8952 161.187ZM62.7653 167.864C63.7198 167.864 64.4208 167.317 64.8285 166.208L68.065 157.379L67.1005 157.364L64.8335 163.832H64.7638L62.4968 157.364H61.5373L64.3462 165.075L64.0678 165.85C63.6452 167.004 63.0487 167.207 62.1488 166.924L61.9102 167.705C62.0891 167.789 62.4173 167.864 62.7653 167.864ZM73.714 167.864H74.6039V163.583H74.6834C74.9867 164.284 75.6429 165.159 77.03 165.159C78.8993 165.159 80.1721 163.568 80.1721 161.202C80.1721 158.845 78.9043 157.259 77.0151 157.259C75.6131 157.259 74.9917 158.134 74.6834 158.82H74.574V157.364H73.714V167.864ZM74.589 161.187C74.589 159.357 75.4292 158.065 76.9206 158.065C78.4569 158.065 79.2821 159.427 79.2821 161.187C79.2821 162.967 78.4419 164.349 76.9206 164.349C75.4441 164.349 74.589 163.031 74.589 161.187ZM82.1097 165H82.9947V160.068C82.9947 158.935 83.8647 158.114 85.0579 158.114C85.2915 158.114 85.5103 158.154 85.5898 158.164V157.264C85.4705 157.259 85.2667 157.249 85.1225 157.249C84.163 157.249 83.3427 157.766 83.0344 158.537H82.9698V157.364H82.1097V165ZM87.1099 165H87.9998V157.364H87.1099V165ZM87.5623 156.051C87.9252 156.051 88.2285 155.763 88.2285 155.415C88.2285 155.067 87.9252 154.778 87.5623 154.778C87.1994 154.778 86.9011 155.067 86.9011 155.415C86.9011 155.763 87.1994 156.051 87.5623 156.051ZM96.2514 157.364H95.2919L93.0249 163.832H92.9553L90.6882 157.364H89.7287L92.5178 165H93.4624L96.2514 157.364ZM99.8832 165.174C101.156 165.174 101.931 164.468 102.25 163.792H102.304V165H103.189V159.815C103.189 157.766 101.648 157.259 100.48 157.259C99.3114 157.259 98.1083 157.722 97.5913 158.969L98.4315 159.273C98.7099 158.616 99.4009 158.055 100.505 158.055C101.663 158.055 102.304 158.691 102.304 159.735V159.914C102.304 160.491 101.588 160.501 100.306 160.66C98.5806 160.874 97.3725 161.356 97.3725 162.867C97.3725 164.339 98.4961 165.174 99.8832 165.174ZM100.002 164.364C99.0032 164.364 98.2575 163.832 98.2575 162.907C98.2575 161.982 99.0131 161.594 100.306 161.435C100.932 161.361 102.046 161.222 102.304 160.968V162.072C102.304 163.325 101.414 164.364 100.002 164.364ZM108.551 157.364H106.935V155.534H106.045V157.364H104.907V158.134H106.045V163.215C106.045 164.463 107.03 165.114 108.009 165.114C108.377 165.114 108.626 165.045 108.795 164.98L108.606 164.18C108.482 164.214 108.322 164.249 108.089 164.249C107.487 164.249 106.935 163.966 106.935 163.006V158.134H108.551V157.364ZM113.566 165.159C115.097 165.159 116.127 164.329 116.475 163.369L115.634 163.096C115.341 163.782 114.65 164.349 113.566 164.349C112.005 164.349 111.016 163.21 110.976 161.445H116.664V161.008C116.664 158.457 115.088 157.259 113.432 157.259C111.453 157.259 110.086 158.915 110.086 161.227C110.086 163.543 111.428 165.159 113.566 165.159ZM110.981 160.665C111.075 159.243 112.035 158.065 113.432 158.065C114.799 158.065 115.759 159.193 115.759 160.665H110.981ZM125.857 154.341H125.027L121.746 166.531H122.576L125.857 154.341ZM136.459 159.039C136.086 157.935 135.271 157.259 133.874 157.259C132.333 157.259 131.214 158.139 131.214 159.397C131.214 160.421 131.836 161.117 133.163 161.435L134.411 161.734C135.251 161.933 135.654 162.365 135.654 162.977C135.654 163.772 134.893 164.364 133.72 164.364C132.676 164.364 132.025 163.891 131.811 162.987L130.961 163.195C131.229 164.468 132.238 165.159 133.735 165.159C135.415 165.159 136.569 164.234 136.569 162.937C136.569 161.918 135.927 161.237 134.65 160.923L133.496 160.64C132.547 160.401 132.104 160.018 132.104 159.357C132.104 158.582 132.845 158.04 133.874 158.04C134.903 158.04 135.41 158.582 135.649 159.268L136.459 159.039ZM139.391 160.227C139.391 158.895 140.286 158.075 141.509 158.075C142.692 158.075 143.448 158.85 143.448 160.108V165H144.338V160.053C144.338 158.234 143.284 157.264 141.733 157.264C140.579 157.264 139.829 157.771 139.471 158.562H139.391V154.818H138.506V165H139.391V160.227ZM148.801 165.174C150.074 165.174 150.849 164.468 151.168 163.792H151.222V165H152.107V159.815C152.107 157.766 150.566 157.259 149.398 157.259C148.229 157.259 147.026 157.722 146.509 158.969L147.349 159.273C147.628 158.616 148.319 158.055 149.423 158.055C150.581 158.055 151.222 158.691 151.222 159.735V159.914C151.222 160.491 150.506 160.501 149.224 160.66C147.499 160.874 146.29 161.356 146.29 162.867C146.29 164.339 147.414 165.174 148.801 165.174ZM148.92 164.364C147.921 164.364 147.175 163.832 147.175 162.907C147.175 161.982 147.931 161.594 149.224 161.435C149.85 161.361 150.964 161.222 151.222 160.968V162.072C151.222 163.325 150.332 164.364 148.92 164.364ZM154.461 165H155.346V160.068C155.346 158.935 156.216 158.114 157.409 158.114C157.643 158.114 157.862 158.154 157.941 158.164V157.264C157.822 157.259 157.618 157.249 157.474 157.249C156.515 157.249 155.694 157.766 155.386 158.537H155.321V157.364H154.461V165ZM162.306 165.159C163.838 165.159 164.867 164.329 165.215 163.369L164.375 163.096C164.081 163.782 163.39 164.349 162.306 164.349C160.745 164.349 159.756 163.21 159.716 161.445H165.404V161.008C165.404 158.457 163.828 157.259 162.172 157.259C160.194 157.259 158.826 158.915 158.826 161.227C158.826 163.543 160.169 165.159 162.306 165.159ZM159.721 160.665C159.816 159.243 160.775 158.065 162.172 158.065C163.539 158.065 164.499 159.193 164.499 160.665H159.721ZM170.103 165.159C171.49 165.159 172.137 164.279 172.45 163.583H172.554V165H173.419V154.818H172.529V158.82H172.45C172.146 158.134 171.515 157.259 170.118 157.259C168.234 157.259 166.961 158.85 166.961 161.202C166.961 163.573 168.229 165.159 170.103 165.159ZM170.208 164.349C168.686 164.349 167.851 162.967 167.851 161.187C167.851 159.427 168.676 158.065 170.208 158.065C171.699 158.065 172.544 159.357 172.544 161.187C172.544 163.031 171.689 164.349 170.208 164.349ZM181.573 165H182.487L184.297 158.741H184.392L186.201 165H187.116L189.423 157.364H188.488L186.678 163.648H186.609L184.819 157.364H183.879L182.075 163.663H182.01L180.2 157.364H179.266L181.573 165ZM193.851 165.159C195.83 165.159 197.212 163.543 197.212 161.217C197.212 158.875 195.83 157.259 193.851 157.259C191.873 157.259 190.49 158.875 190.49 161.217C190.49 163.543 191.873 165.159 193.851 165.159ZM193.851 164.349C192.265 164.349 191.38 162.927 191.38 161.217C191.38 159.506 192.265 158.065 193.851 158.065C195.437 158.065 196.322 159.506 196.322 161.217C196.322 162.927 195.437 164.349 193.851 164.349ZM199.155 165H200.04V160.068C200.04 158.935 200.91 158.114 202.103 158.114C202.336 158.114 202.555 158.154 202.635 158.164V157.264C202.515 157.259 202.312 157.249 202.167 157.249C201.208 157.249 200.388 157.766 200.079 158.537H200.015V157.364H199.155V165ZM204.145 165H205.03V162.042L205.91 161.217L208.903 165H210.036L206.571 160.635L209.837 157.364H208.719L205.139 160.958H205.03V154.818H204.145V165ZM216.631 159.039C216.258 157.935 215.443 157.259 214.046 157.259C212.505 157.259 211.386 158.139 211.386 159.397C211.386 160.421 212.007 161.117 213.335 161.435L214.583 161.734C215.423 161.933 215.826 162.365 215.826 162.977C215.826 163.772 215.065 164.364 213.892 164.364C212.848 164.364 212.196 163.891 211.983 162.987L211.132 163.195C211.401 164.468 212.41 165.159 213.907 165.159C215.587 165.159 216.74 164.234 216.74 162.937C216.74 161.918 216.099 161.237 214.821 160.923L213.668 160.64C212.718 160.401 212.276 160.018 212.276 159.357C212.276 158.582 213.017 158.04 214.046 158.04C215.075 158.04 215.582 158.582 215.821 159.268L216.631 159.039ZM218.663 167.864H219.553V163.583H219.633C219.936 164.284 220.592 165.159 221.979 165.159C223.849 165.159 225.121 163.568 225.121 161.202C225.121 158.845 223.854 157.259 221.964 157.259C220.562 157.259 219.941 158.134 219.633 158.82H219.523V157.364H218.663V167.864ZM219.538 161.187C219.538 159.357 220.378 158.065 221.87 158.065C223.406 158.065 224.231 159.427 224.231 161.187C224.231 162.967 223.391 164.349 221.87 164.349C220.393 164.349 219.538 163.031 219.538 161.187ZM229.192 165.174C230.464 165.174 231.24 164.468 231.558 163.792H231.613V165H232.498V159.815C232.498 157.766 230.957 157.259 229.788 157.259C228.62 157.259 227.417 157.722 226.9 158.969L227.74 159.273C228.018 158.616 228.71 158.055 229.813 158.055C230.972 158.055 231.613 158.691 231.613 159.735V159.914C231.613 160.491 230.897 160.501 229.614 160.66C227.889 160.874 226.681 161.356 226.681 162.867C226.681 164.339 227.805 165.174 229.192 165.174ZM229.311 164.364C228.312 164.364 227.566 163.832 227.566 162.907C227.566 161.982 228.322 161.594 229.614 161.435C230.241 161.361 231.354 161.222 231.613 160.968V162.072C231.613 163.325 230.723 164.364 229.311 164.364ZM237.835 165.159C239.426 165.159 240.544 164.155 240.748 162.773H239.853C239.65 163.747 238.849 164.349 237.835 164.349C236.338 164.349 235.349 163.046 235.349 161.187C235.349 159.337 236.368 158.065 237.835 158.065C238.924 158.065 239.659 158.766 239.848 159.631H240.743C240.534 158.214 239.351 157.259 237.82 157.259C235.821 157.259 234.459 158.92 234.459 161.217C234.459 163.494 235.782 165.159 237.835 165.159ZM245.732 165.159C247.263 165.159 248.293 164.329 248.641 163.369L247.8 163.096C247.507 163.782 246.816 164.349 245.732 164.349C244.171 164.349 243.182 163.21 243.142 161.445H248.83V161.008C248.83 158.457 247.254 157.259 245.598 157.259C243.619 157.259 242.252 158.915 242.252 161.227C242.252 163.543 243.594 165.159 245.732 165.159ZM243.147 160.665C243.241 159.243 244.201 158.065 245.598 158.065C246.965 158.065 247.925 159.193 247.925 160.665H243.147ZM251.486 165.075C251.883 165.075 252.202 164.751 252.202 164.359C252.202 163.961 251.883 163.643 251.486 163.643C251.093 163.643 250.77 163.961 250.77 164.359C250.77 164.751 251.093 165.075 251.486 165.075Z" fill="#777777"/>
<path d="M16 194H359" stroke="#DDDDDD"/>
<path d="M39.5455 245H40.608V240.295H43.3182C43.4716 240.295 43.6193 240.29 43.7614 240.278L46.3125 245H47.5398L44.8523 240.074C46.3011 239.597 47.0511 238.403 47.0511 236.847C47.0511 234.812 45.7727 233.364 43.3011 233.364H39.5455V245ZM40.608 239.324V234.318H43.2727C45.1136 234.318 46.0057 235.324 46.0057 236.847C46.0057 238.369 45.1136 239.324 43.2898 239.324H40.608ZM52.8636 245.182C54.6136 245.182 55.7898 244.233 56.1875 243.136L55.2273 242.824C54.892 243.608 54.1023 244.256 52.8636 244.256C51.0795 244.256 49.9489 242.955 49.9034 240.938H56.4034V240.438C56.4034 237.523 54.6023 236.153 52.7102 236.153C50.4489 236.153 48.8864 238.045 48.8864 240.688C48.8864 243.335 50.4205 245.182 52.8636 245.182ZM49.9091 240.045C50.017 238.42 51.1136 237.074 52.7102 237.074C54.2727 237.074 55.3693 238.364 55.3693 240.045H49.9091ZM59.6435 239.545C59.6435 238.023 60.6435 237.085 62.0185 237.085C63.3594 237.085 64.223 237.983 64.223 239.409V245H65.2344V239.347C65.2344 237.278 64.0355 236.159 62.2741 236.159C60.9957 236.159 60.1151 236.75 59.706 237.642H59.6151V236.273H58.6321V245H59.6435V239.545ZM71.3352 236.273H69.4886V234.182H68.4716V236.273H67.1705V237.153H68.4716V242.96C68.4716 244.386 69.5966 245.131 70.7159 245.131C71.1364 245.131 71.4205 245.051 71.6136 244.977L71.3977 244.062C71.2557 244.102 71.0739 244.142 70.8068 244.142C70.1193 244.142 69.4886 243.818 69.4886 242.722V237.153H71.3352V236.273ZM76.0696 245.199C77.5241 245.199 78.4105 244.392 78.7741 243.619H78.8366V245H79.848V239.074C79.848 236.733 78.0866 236.153 76.7514 236.153C75.4162 236.153 74.0412 236.682 73.4503 238.108L74.4105 238.455C74.7287 237.705 75.5185 237.062 76.7798 237.062C78.1037 237.062 78.8366 237.79 78.8366 238.983V239.188C78.8366 239.847 78.0185 239.858 76.5526 240.04C74.581 240.284 73.2003 240.835 73.2003 242.562C73.2003 244.244 74.4844 245.199 76.0696 245.199ZM76.206 244.273C75.0639 244.273 74.2116 243.665 74.2116 242.608C74.2116 241.551 75.0753 241.108 76.5526 240.926C77.2685 240.841 78.5412 240.682 78.8366 240.392V241.653C78.8366 243.085 77.8196 244.273 76.206 244.273ZM83.5497 233.364H82.5384V245H83.5497V233.364ZM90.2315 234.318H93.919V245H94.9815V234.318H98.669V233.364H90.2315V234.318ZM103.114 245.182C104.864 245.182 106.04 244.233 106.438 243.136L105.477 242.824C105.142 243.608 104.352 244.256 103.114 244.256C101.33 244.256 100.199 242.955 100.153 240.938H106.653V240.438C106.653 237.523 104.852 236.153 102.96 236.153C100.699 236.153 99.1364 238.045 99.1364 240.688C99.1364 243.335 100.67 245.182 103.114 245.182ZM100.159 240.045C100.267 238.42 101.364 237.074 102.96 237.074C104.523 237.074 105.619 238.364 105.619 240.045H100.159ZM108.882 245H109.893V239.364C109.893 238.068 110.888 237.131 112.251 237.131C112.518 237.131 112.768 237.176 112.859 237.188V236.159C112.723 236.153 112.49 236.142 112.325 236.142C111.229 236.142 110.291 236.733 109.939 237.614H109.865V236.273H108.882V245ZM114.585 245H115.597V239.409C115.597 238.051 116.5 237.085 117.71 237.085C118.903 237.085 119.597 237.881 119.597 239.062V245H120.631V239.256C120.631 238 121.381 237.085 122.71 237.085C123.864 237.085 124.631 237.778 124.631 239.153V245H125.642V239.153C125.642 237.199 124.636 236.159 123.017 236.159C121.744 236.159 120.824 236.778 120.432 237.744H120.358C119.972 236.756 119.205 236.159 118 236.159C116.858 236.159 116.006 236.71 115.659 237.614H115.568V236.273H114.585V245ZM134.183 238.188C133.757 236.926 132.825 236.153 131.229 236.153C129.467 236.153 128.189 237.159 128.189 238.597C128.189 239.767 128.899 240.562 130.416 240.926L131.842 241.267C132.803 241.494 133.263 241.989 133.263 242.688C133.263 243.597 132.393 244.273 131.053 244.273C129.859 244.273 129.115 243.733 128.871 242.699L127.899 242.938C128.206 244.392 129.359 245.182 131.07 245.182C132.99 245.182 134.308 244.125 134.308 242.642C134.308 241.477 133.575 240.699 132.115 240.341L130.797 240.017C129.712 239.744 129.206 239.307 129.206 238.551C129.206 237.665 130.053 237.045 131.229 237.045C132.405 237.045 132.984 237.665 133.257 238.449L134.183 238.188Z" fill="#444444"/>
<path d="M37 219H137V217H37V219ZM137 259H37V261H137V259ZM37 259C25.9543 259 17 250.046 17 239H15C15 251.15 24.8497 261 37 261V259ZM157 239C157 250.046 148.046 259 137 259V261C149.15 261 159 251.15 159 239H157ZM137 219C148.046 219 157 227.954 157 239H159C159 226.85 149.15 217 137 217V219ZM37 217C24.8497 217 15 226.85 15 239H17C17 227.954 25.9543 219 37 219V217Z" fill="#BBBBBB"/>
<path d="M17.3523 283H18.282V278.322H22.7812V277.487H18.282V273.653H23.2436V272.818H17.3523V283ZM25.3814 283H26.2713V275.364H25.3814V283ZM25.8338 274.051C26.1967 274.051 26.5 273.763 26.5 273.415C26.5 273.067 26.1967 272.778 25.8338 272.778C25.4709 272.778 25.1726 273.067 25.1726 273.415C25.1726 273.763 25.4709 274.051 25.8338 274.051ZM29.4966 272.818H28.6117V283H29.4966V272.818ZM34.8461 275.364H33.2303V273.534H32.3404V275.364H31.2019V276.134H32.3404V281.215C32.3404 282.463 33.3248 283.114 34.3042 283.114C34.6721 283.114 34.9206 283.045 35.0897 282.98L34.9007 282.18C34.7765 282.214 34.6174 282.249 34.3837 282.249C33.7821 282.249 33.2303 281.966 33.2303 281.006V276.134H34.8461V275.364ZM39.8612 283.159C41.3924 283.159 42.4215 282.329 42.7695 281.369L41.9293 281.096C41.636 281.782 40.945 282.349 39.8612 282.349C38.3001 282.349 37.3107 281.21 37.271 279.445H42.9585V279.008C42.9585 276.457 41.3825 275.259 39.7269 275.259C37.7482 275.259 36.381 276.915 36.381 279.227C36.381 281.543 37.7234 283.159 39.8612 283.159ZM37.2759 278.665C37.3704 277.243 38.3299 276.065 39.7269 276.065C41.0941 276.065 42.0536 277.193 42.0536 278.665H37.2759ZM44.9086 283H45.7935V278.068C45.7935 276.935 46.6635 276.114 47.8567 276.114C48.0904 276.114 48.3091 276.154 48.3887 276.164V275.264C48.2694 275.259 48.0655 275.249 47.9213 275.249C46.9618 275.249 46.1415 275.766 45.8333 276.537H45.7686V275.364H44.9086V283ZM54.0202 283H54.8803V281.583H54.9897C55.2979 282.284 55.9442 283.159 57.3363 283.159C59.2106 283.159 60.4783 281.573 60.4783 279.202C60.4783 276.85 59.2056 275.259 57.3214 275.259C55.9244 275.259 55.293 276.134 54.9897 276.82H54.9102V272.818H54.0202V283ZM54.8952 279.187C54.8952 277.357 55.7354 276.065 57.2269 276.065C58.7582 276.065 59.5884 277.427 59.5884 279.187C59.5884 280.967 58.7482 282.349 57.2269 282.349C55.7454 282.349 54.8952 281.031 54.8952 279.187ZM62.7653 285.864C63.7198 285.864 64.4208 285.317 64.8285 284.208L68.065 275.379L67.1005 275.364L64.8335 281.832H64.7638L62.4968 275.364H61.5373L64.3462 283.075L64.0678 283.85C63.6452 285.004 63.0487 285.207 62.1488 284.924L61.9102 285.705C62.0891 285.789 62.4173 285.864 62.7653 285.864ZM76.4782 283.159C77.8652 283.159 78.5115 282.279 78.8248 281.583H78.9292V283H79.7942V272.818H78.9043V276.82H78.8248C78.5215 276.134 77.8901 275.259 76.4931 275.259C74.6088 275.259 73.3361 276.85 73.3361 279.202C73.3361 281.573 74.6039 283.159 76.4782 283.159ZM76.5826 282.349C75.0613 282.349 74.226 280.967 74.226 279.187C74.226 277.427 75.0513 276.065 76.5826 276.065C78.074 276.065 78.9192 277.357 78.9192 279.187C78.9192 281.031 78.0641 282.349 76.5826 282.349ZM84.4476 283.174C85.7203 283.174 86.4959 282.468 86.8141 281.792H86.8688V283H87.7537V277.815C87.7537 275.766 86.2125 275.259 85.0442 275.259C83.8759 275.259 82.6728 275.722 82.1557 276.969L82.9959 277.273C83.2743 276.616 83.9654 276.055 85.0691 276.055C86.2275 276.055 86.8688 276.691 86.8688 277.735V277.914C86.8688 278.491 86.1529 278.501 84.8702 278.66C83.1451 278.874 81.937 279.356 81.937 280.867C81.937 282.339 83.0605 283.174 84.4476 283.174ZM84.5669 282.364C83.5676 282.364 82.8219 281.832 82.8219 280.907C82.8219 279.982 83.5776 279.594 84.8702 279.435C85.4966 279.361 86.6103 279.222 86.8688 278.968V280.072C86.8688 281.325 85.9789 282.364 84.5669 282.364ZM90.1177 283H91.0076V275.364H90.1177V283ZM90.5701 274.051C90.9331 274.051 91.2363 273.763 91.2363 273.415C91.2363 273.067 90.9331 272.778 90.5701 272.778C90.2072 272.778 89.9089 273.067 89.9089 273.415C89.9089 273.763 90.2072 274.051 90.5701 274.051ZM94.233 272.818H93.348V283H94.233V272.818ZM97.1911 285.864C98.1456 285.864 98.8466 285.317 99.2543 284.208L102.491 275.379L101.526 275.364L99.2592 281.832H99.1896L96.9226 275.364H95.9631L98.772 283.075L98.4936 283.85C98.071 285.004 97.4744 285.207 96.5746 284.924L96.3359 285.705C96.5149 285.789 96.843 285.864 97.1911 285.864ZM111.461 272.341H110.631L107.349 284.531H108.18L111.461 272.341ZM118.627 283H119.542L121.352 276.741H121.446L123.256 283H124.171L126.477 275.364H125.543L123.733 281.648H123.664L121.874 275.364H120.934L119.129 281.663H119.065L117.255 275.364H116.32L118.627 283ZM131.025 283.159C132.556 283.159 133.586 282.329 133.934 281.369L133.093 281.096C132.8 281.782 132.109 282.349 131.025 282.349C129.464 282.349 128.475 281.21 128.435 279.445H134.123V279.008C134.123 276.457 132.547 275.259 130.891 275.259C128.912 275.259 127.545 276.915 127.545 279.227C127.545 281.543 128.887 283.159 131.025 283.159ZM128.44 278.665C128.534 277.243 129.494 276.065 130.891 276.065C132.258 276.065 133.218 277.193 133.218 278.665H128.44ZM139.16 283.159C140.691 283.159 141.72 282.329 142.068 281.369L141.228 281.096C140.935 281.782 140.244 282.349 139.16 282.349C137.599 282.349 136.61 281.21 136.57 279.445H142.257V279.008C142.257 276.457 140.681 275.259 139.026 275.259C137.047 275.259 135.68 276.915 135.68 279.227C135.68 281.543 137.022 283.159 139.16 283.159ZM136.575 278.665C136.669 277.243 137.629 276.065 139.026 276.065C140.393 276.065 141.352 277.193 141.352 278.665H136.575ZM144.207 283H145.092V280.042L145.972 279.217L148.965 283H150.099L146.634 278.635L149.9 275.364H148.781L145.202 278.958H145.092V272.818H144.207V283ZM152.448 272.818H151.563V283H152.448V272.818ZM155.406 285.864C156.36 285.864 157.061 285.317 157.469 284.208L160.706 275.379L159.741 275.364L157.474 281.832H157.404L155.137 275.364H154.178L156.987 283.075L156.708 283.85C156.286 285.004 155.689 285.207 154.789 284.924L154.551 285.705C154.73 285.789 155.058 285.864 155.406 285.864ZM169.676 272.341H168.845L165.564 284.531H166.394L169.676 272.341ZM175.147 283H176.032V278.108C176.032 276.92 176.822 276.075 177.881 276.075C178.925 276.075 179.532 276.771 179.532 277.805V283H180.437V277.974C180.437 276.875 181.093 276.075 182.256 276.075C183.265 276.075 183.937 276.681 183.937 277.884V283H184.822V277.884C184.822 276.174 183.942 275.264 182.525 275.264C181.411 275.264 180.606 275.806 180.263 276.651H180.198C179.86 275.786 179.189 275.264 178.135 275.264C177.135 275.264 176.39 275.746 176.086 276.537H176.007V275.364H175.147V283ZM190.132 283.159C192.111 283.159 193.493 281.543 193.493 279.217C193.493 276.875 192.111 275.259 190.132 275.259C188.154 275.259 186.772 276.875 186.772 279.217C186.772 281.543 188.154 283.159 190.132 283.159ZM190.132 282.349C188.547 282.349 187.662 280.927 187.662 279.217C187.662 277.506 188.547 276.065 190.132 276.065C191.718 276.065 192.603 277.506 192.603 279.217C192.603 280.927 191.718 282.349 190.132 282.349ZM196.321 278.227C196.321 276.895 197.196 276.075 198.399 276.075C199.572 276.075 200.328 276.86 200.328 278.108V283H201.213V278.053C201.213 276.244 200.164 275.264 198.623 275.264C197.504 275.264 196.733 275.781 196.376 276.562H196.296V275.364H195.436V283H196.321V278.227ZM206.551 275.364H204.935V273.534H204.045V275.364H202.907V276.134H204.045V281.215C204.045 282.463 205.03 283.114 206.009 283.114C206.377 283.114 206.626 283.045 206.795 282.98L206.606 282.18C206.482 282.214 206.322 282.249 206.089 282.249C205.487 282.249 204.935 281.966 204.935 281.006V276.134H206.551V275.364ZM209.61 278.227C209.61 276.895 210.505 276.075 211.728 276.075C212.911 276.075 213.667 276.85 213.667 278.108V283H214.557V278.053C214.557 276.234 213.503 275.264 211.952 275.264C210.798 275.264 210.047 275.771 209.689 276.562H209.61V272.818H208.725V283H209.61V278.227ZM217.772 272.818H216.887V283H217.772V272.818ZM220.73 285.864C221.685 285.864 222.386 285.317 222.793 284.208L226.03 275.379L225.065 275.364L222.798 281.832H222.729L220.462 275.364H219.502L222.311 283.075L222.033 283.85C221.61 285.004 221.013 285.207 220.114 284.924L219.875 285.705C220.054 285.789 220.382 285.864 220.73 285.864ZM231.694 283H232.579V278.068C232.579 276.935 233.449 276.114 234.642 276.114C234.876 276.114 235.094 276.154 235.174 276.164V275.264C235.055 275.259 234.851 275.249 234.706 275.249C233.747 275.249 232.927 275.766 232.618 276.537H232.554V275.364H231.694V283ZM239.539 283.159C241.07 283.159 242.099 282.329 242.447 281.369L241.607 281.096C241.314 281.782 240.623 282.349 239.539 282.349C237.978 282.349 236.988 281.21 236.949 279.445H242.636V279.008C242.636 276.457 241.06 275.259 239.405 275.259C237.426 275.259 236.059 276.915 236.059 279.227C236.059 281.543 237.401 283.159 239.539 283.159ZM236.954 278.665C237.048 277.243 238.008 276.065 239.405 276.065C240.772 276.065 241.731 277.193 241.731 278.665H236.954ZM245.471 278.227C245.471 276.895 246.346 276.075 247.549 276.075C248.723 276.075 249.478 276.86 249.478 278.108V283H250.363V278.053C250.363 276.244 249.314 275.264 247.773 275.264C246.654 275.264 245.884 275.781 245.526 276.562H245.446V275.364H244.586V283H245.471V278.227ZM255.702 275.364H254.086V273.534H253.196V275.364H252.057V276.134H253.196V281.215C253.196 282.463 254.18 283.114 255.16 283.114C255.528 283.114 255.776 283.045 255.945 282.98L255.756 282.18C255.632 282.214 255.473 282.249 255.239 282.249C254.638 282.249 254.086 281.966 254.086 281.006V276.134H255.702V275.364ZM259.844 283.174C261.117 283.174 261.892 282.468 262.211 281.792H262.265V283H263.15V277.815C263.15 275.766 261.609 275.259 260.441 275.259C259.272 275.259 258.069 275.722 257.552 276.969L258.392 277.273C258.671 276.616 259.362 276.055 260.466 276.055C261.624 276.055 262.265 276.691 262.265 277.735V277.914C262.265 278.491 261.549 278.501 260.267 278.66C258.542 278.874 257.333 279.356 257.333 280.867C257.333 282.339 258.457 283.174 259.844 283.174ZM259.963 282.364C258.964 282.364 258.218 281.832 258.218 280.907C258.218 279.982 258.974 279.594 260.267 279.435C260.893 279.361 262.007 279.222 262.265 278.968V280.072C262.265 281.325 261.375 282.364 259.963 282.364ZM266.389 272.818H265.504V283H266.389V272.818ZM273.862 277.039C273.489 275.935 272.673 275.259 271.276 275.259C269.735 275.259 268.616 276.139 268.616 277.397C268.616 278.421 269.238 279.117 270.565 279.435L271.813 279.734C272.653 279.933 273.056 280.365 273.056 280.977C273.056 281.772 272.295 282.364 271.122 282.364C270.078 282.364 269.427 281.891 269.213 280.987L268.363 281.195C268.631 282.468 269.641 283.159 271.137 283.159C272.817 283.159 273.971 282.234 273.971 280.937C273.971 279.918 273.33 279.237 272.052 278.923L270.898 278.64C269.949 278.401 269.506 278.018 269.506 277.357C269.506 276.582 270.247 276.04 271.276 276.04C272.305 276.04 272.812 276.582 273.051 277.268L273.862 277.039ZM276.615 283.075C277.012 283.075 277.33 282.751 277.33 282.359C277.33 281.961 277.012 281.643 276.615 281.643C276.222 281.643 275.899 281.961 275.899 282.359C275.899 282.751 276.222 283.075 276.615 283.075ZM24.1385 292.818V299.495C24.1385 301.116 22.9851 302.299 21.2102 302.299C19.4354 302.299 18.282 301.116 18.282 299.495V292.818H17.3523V299.56C17.3473 301.638 18.9183 303.174 21.2102 303.174C23.5071 303.174 25.0682 301.638 25.0682 299.56V292.818H24.1385ZM32.717 297.039C32.3441 295.935 31.5288 295.259 30.1317 295.259C28.5906 295.259 27.4719 296.139 27.4719 297.397C27.4719 298.421 28.0934 299.117 29.4208 299.435L30.6687 299.734C31.5089 299.933 31.9116 300.365 31.9116 300.977C31.9116 301.772 31.1509 302.364 29.9776 302.364C28.9336 302.364 28.2823 301.891 28.0685 300.987L27.2184 301.195C27.4869 302.468 28.4961 303.159 29.9925 303.159C31.6729 303.159 32.8263 302.234 32.8263 300.937C32.8263 299.918 32.185 299.237 30.9073 298.923L29.7539 298.64C28.8043 298.401 28.3619 298.018 28.3619 297.357C28.3619 296.582 29.1026 296.04 30.1317 296.04C31.1609 296.04 31.668 296.582 31.9066 297.268L32.717 297.039ZM37.8514 303.159C39.3826 303.159 40.4118 302.329 40.7598 301.369L39.9196 301.096C39.6262 301.782 38.9352 302.349 37.8514 302.349C36.2903 302.349 35.301 301.21 35.2612 299.445H40.9487V299.008C40.9487 296.457 39.3727 295.259 37.7172 295.259C35.7385 295.259 34.3713 296.915 34.3713 299.227C34.3713 301.543 35.7136 303.159 37.8514 303.159ZM35.2662 298.665C35.3606 297.243 36.3201 296.065 37.7172 296.065C39.0843 296.065 40.0439 297.193 40.0439 298.665H35.2662ZM45.6481 303.159C47.0352 303.159 47.6815 302.279 47.9947 301.583H48.0991V303H48.9641V292.818H48.0742V296.82H47.9947C47.6914 296.134 47.06 295.259 45.663 295.259C43.7788 295.259 42.506 296.85 42.506 299.202C42.506 301.573 43.7738 303.159 45.6481 303.159ZM45.7525 302.349C44.2312 302.349 43.396 300.967 43.396 299.187C43.396 297.427 44.2212 296.065 45.7525 296.065C47.244 296.065 48.0891 297.357 48.0891 299.187C48.0891 301.031 47.234 302.349 45.7525 302.349ZM58.43 295.364H56.8143V293.534H55.9244V295.364H54.7859V296.134H55.9244V301.215C55.9244 302.463 56.9087 303.114 57.8881 303.114C58.256 303.114 58.5046 303.045 58.6737 302.98L58.4847 302.18C58.3604 302.214 58.2013 302.249 57.9677 302.249C57.3661 302.249 56.8143 301.966 56.8143 301.006V296.134H58.43V295.364ZM63.3258 303.159C65.3045 303.159 66.6866 301.543 66.6866 299.217C66.6866 296.875 65.3045 295.259 63.3258 295.259C61.3471 295.259 59.965 296.875 59.965 299.217C59.965 301.543 61.3471 303.159 63.3258 303.159ZM63.3258 302.349C61.7399 302.349 60.8549 300.927 60.8549 299.217C60.8549 297.506 61.7399 296.065 63.3258 296.065C64.9118 296.065 65.7967 297.506 65.7967 299.217C65.7967 300.927 64.9118 302.349 63.3258 302.349ZM75.3161 303.159C76.7031 303.159 77.3494 302.279 77.6626 301.583H77.767V303H78.6321V292.818H77.7422V296.82H77.6626C77.3594 296.134 76.728 295.259 75.331 295.259C73.4467 295.259 72.174 296.85 72.174 299.202C72.174 301.573 73.4418 303.159 75.3161 303.159ZM75.4205 302.349C73.8991 302.349 73.0639 300.967 73.0639 299.187C73.0639 297.427 73.8892 296.065 75.4205 296.065C76.9119 296.065 77.7571 297.357 77.7571 299.187C77.7571 301.031 76.902 302.349 75.4205 302.349ZM84.2401 303.159C85.7713 303.159 86.8004 302.329 87.1484 301.369L86.3082 301.096C86.0149 301.782 85.3239 302.349 84.2401 302.349C82.679 302.349 81.6896 301.21 81.6499 299.445H87.3374V299.008C87.3374 296.457 85.7614 295.259 84.1058 295.259C82.1271 295.259 80.7599 296.915 80.7599 299.227C80.7599 301.543 82.1023 303.159 84.2401 303.159ZM81.6548 298.665C81.7493 297.243 82.7088 296.065 84.1058 296.065C85.473 296.065 86.4325 297.193 86.4325 298.665H81.6548ZM92.2953 295.364H90.6795V293.534H89.7896V295.364H88.6511V296.134H89.7896V301.215C89.7896 302.463 90.774 303.114 91.7534 303.114C92.1213 303.114 92.3699 303.045 92.5389 302.98L92.35 302.18C92.2257 302.214 92.0666 302.249 91.8329 302.249C91.2314 302.249 90.6795 301.966 90.6795 301.006V296.134H92.2953V295.364ZM97.3104 303.159C98.8416 303.159 99.8707 302.329 100.219 301.369L99.3786 301.096C99.0852 301.782 98.3942 302.349 97.3104 302.349C95.7493 302.349 94.7599 301.21 94.7202 299.445H100.408V299.008C100.408 296.457 98.8317 295.259 97.1761 295.259C95.1974 295.259 93.8303 296.915 93.8303 299.227C93.8303 301.543 95.1726 303.159 97.3104 303.159ZM94.7251 298.665C94.8196 297.243 95.7791 296.065 97.1761 296.065C98.5433 296.065 99.5028 297.193 99.5028 298.665H94.7251ZM102.358 303H103.243V298.068C103.243 296.935 104.113 296.114 105.306 296.114C105.54 296.114 105.758 296.154 105.838 296.164V295.264C105.719 295.259 105.515 295.249 105.371 295.249C104.411 295.249 103.591 295.766 103.282 296.537H103.218V295.364H102.358V303ZM107.348 303H108.233V298.108C108.233 296.92 109.023 296.075 110.082 296.075C111.126 296.075 111.733 296.771 111.733 297.805V303H112.638V297.974C112.638 296.875 113.294 296.075 114.457 296.075C115.467 296.075 116.138 296.681 116.138 297.884V303H117.023V297.884C117.023 296.174 116.143 295.264 114.726 295.264C113.612 295.264 112.807 295.806 112.464 296.651H112.399C112.061 295.786 111.39 295.264 110.336 295.264C109.337 295.264 108.591 295.746 108.288 296.537H108.208V295.364H107.348V303ZM119.376 303H120.265V295.364H119.376V303ZM119.828 294.051C120.191 294.051 120.494 293.763 120.494 293.415C120.494 293.067 120.191 292.778 119.828 292.778C119.465 292.778 119.167 293.067 119.167 293.415C119.167 293.763 119.465 294.051 119.828 294.051ZM123.491 298.227C123.491 296.895 124.366 296.075 125.569 296.075C126.742 296.075 127.498 296.86 127.498 298.108V303H128.383V298.053C128.383 296.244 127.334 295.264 125.793 295.264C124.674 295.264 123.903 295.781 123.545 296.562H123.466V295.364H122.606V303H123.491V298.227ZM133.801 303.159C135.332 303.159 136.361 302.329 136.709 301.369L135.869 301.096C135.575 301.782 134.884 302.349 133.801 302.349C132.24 302.349 131.25 301.21 131.21 299.445H136.898V299.008C136.898 296.457 135.322 295.259 133.666 295.259C131.688 295.259 130.32 296.915 130.32 299.227C130.32 301.543 131.663 303.159 133.801 303.159ZM131.215 298.665C131.31 297.243 132.269 296.065 133.666 296.065C135.034 296.065 135.993 297.193 135.993 298.665H131.215ZM142.771 305.864H143.661V301.583H143.74C144.043 302.284 144.7 303.159 146.087 303.159C147.956 303.159 149.229 301.568 149.229 299.202C149.229 296.845 147.961 295.259 146.072 295.259C144.67 295.259 144.048 296.134 143.74 296.82H143.631V295.364H142.771V305.864ZM143.646 299.187C143.646 297.357 144.486 296.065 145.977 296.065C147.513 296.065 148.339 297.427 148.339 299.187C148.339 300.967 147.499 302.349 145.977 302.349C144.501 302.349 143.646 301.031 143.646 299.187ZM151.166 303H152.051V298.068C152.051 296.935 152.921 296.114 154.115 296.114C154.348 296.114 154.567 296.154 154.646 296.164V295.264C154.527 295.259 154.323 295.249 154.179 295.249C153.22 295.249 152.399 295.766 152.091 296.537H152.026V295.364H151.166V303ZM156.167 303H157.056V295.364H156.167V303ZM156.619 294.051C156.982 294.051 157.285 293.763 157.285 293.415C157.285 293.067 156.982 292.778 156.619 292.778C156.256 292.778 155.958 293.067 155.958 293.415C155.958 293.763 156.256 294.051 156.619 294.051ZM162.38 303.159C163.971 303.159 165.089 302.155 165.293 300.773H164.398C164.194 301.747 163.394 302.349 162.38 302.349C160.883 302.349 159.894 301.046 159.894 299.187C159.894 297.337 160.913 296.065 162.38 296.065C163.469 296.065 164.204 296.766 164.393 297.631H165.288C165.079 296.214 163.896 295.259 162.365 295.259C160.366 295.259 159.004 296.92 159.004 299.217C159.004 301.494 160.327 303.159 162.38 303.159ZM167.2 303H168.09V295.364H167.2V303ZM167.652 294.051C168.015 294.051 168.318 293.763 168.318 293.415C168.318 293.067 168.015 292.778 167.652 292.778C167.289 292.778 166.991 293.067 166.991 293.415C166.991 293.763 167.289 294.051 167.652 294.051ZM171.315 298.227C171.315 296.895 172.19 296.075 173.393 296.075C174.566 296.075 175.322 296.86 175.322 298.108V303H176.207V298.053C176.207 296.244 175.158 295.264 173.617 295.264C172.498 295.264 171.728 295.781 171.37 296.562H171.29V295.364H170.43V303H171.315V298.227ZM181.451 306.023C183.26 306.023 184.603 305.138 184.603 303.199V295.364H183.738V296.82H183.648C183.335 296.134 182.704 295.259 181.302 295.259C179.412 295.259 178.145 296.84 178.145 299.162C178.145 301.504 179.457 302.92 181.287 302.92C182.659 302.92 183.33 302.125 183.633 301.424H183.713V303.144C183.713 304.566 182.803 305.227 181.451 305.227C180.143 305.227 179.517 304.596 179.194 304.014L178.468 304.491C178.915 305.366 179.89 306.023 181.451 306.023ZM181.391 302.11C179.875 302.11 179.035 300.897 179.035 299.147C179.035 297.427 179.86 296.065 181.391 296.065C182.888 296.065 183.728 297.357 183.728 299.147C183.728 300.991 182.863 302.11 181.391 302.11ZM193.608 303.139C194.582 303.139 195.646 302.761 196.307 302.036L197.093 303H198.167L196.839 301.364C197.212 300.867 197.64 300.077 197.674 298.809L196.814 298.799C196.775 299.52 196.586 300.156 196.292 300.683L193.821 297.636L194.567 297.079C195.467 296.398 195.954 295.737 195.954 294.812C195.954 293.658 195.044 292.704 193.637 292.704C192.255 292.704 191.271 293.658 191.271 294.961C191.271 295.856 191.798 296.532 192.588 297.482L192.494 297.551C191.226 298.451 190.49 299.197 190.49 300.35C190.49 301.946 191.728 303.139 193.608 303.139ZM195.775 301.379C195.189 301.991 194.413 302.339 193.578 302.344C192.295 302.339 191.39 301.424 191.39 300.35C191.39 299.893 191.703 299.222 192.718 298.461L193.135 298.148L195.775 301.379ZM193.279 296.964C192.643 296.189 192.176 295.592 192.176 294.971C192.176 294.225 192.817 293.489 193.667 293.489C194.483 293.489 195.049 294.131 195.049 294.812C195.049 295.518 194.676 295.95 193.971 296.452L193.279 296.964ZM205.649 303.174C206.922 303.174 207.697 302.468 208.015 301.792H208.07V303H208.955V297.815C208.955 295.766 207.414 295.259 206.245 295.259C205.077 295.259 203.874 295.722 203.357 296.969L204.197 297.273C204.475 296.616 205.167 296.055 206.27 296.055C207.429 296.055 208.07 296.691 208.07 297.735V297.914C208.07 298.491 207.354 298.501 206.071 298.66C204.346 298.874 203.138 299.356 203.138 300.867C203.138 302.339 204.262 303.174 205.649 303.174ZM205.768 302.364C204.769 302.364 204.023 301.832 204.023 300.907C204.023 299.982 204.779 299.594 206.071 299.435C206.698 299.361 207.811 299.222 208.07 298.968V300.072C208.07 301.325 207.18 302.364 205.768 302.364ZM216.947 295.364H215.987L213.72 301.832H213.651L211.384 295.364H210.424L213.213 303H214.158L216.947 295.364ZM220.578 303.174C221.851 303.174 222.627 302.468 222.945 301.792H223V303H223.885V297.815C223.885 295.766 222.343 295.259 221.175 295.259C220.007 295.259 218.804 295.722 218.287 296.969L219.127 297.273C219.405 296.616 220.096 296.055 221.2 296.055C222.358 296.055 223 296.691 223 297.735V297.914C223 298.491 222.284 298.501 221.001 298.66C219.276 298.874 218.068 299.356 218.068 300.867C218.068 302.339 219.191 303.174 220.578 303.174ZM220.698 302.364C219.699 302.364 218.953 301.832 218.953 300.907C218.953 299.982 219.708 299.594 221.001 299.435C221.627 299.361 222.741 299.222 223 298.968V300.072C223 301.325 222.11 302.364 220.698 302.364ZM226.249 303H227.138V295.364H226.249V303ZM226.701 294.051C227.064 294.051 227.367 293.763 227.367 293.415C227.367 293.067 227.064 292.778 226.701 292.778C226.338 292.778 226.04 293.067 226.04 293.415C226.04 293.763 226.338 294.051 226.701 294.051ZM230.364 292.818H229.479V303H230.364V292.818ZM234.838 303.174C236.111 303.174 236.887 302.468 237.205 301.792H237.259V303H238.144V297.815C238.144 295.766 236.603 295.259 235.435 295.259C234.267 295.259 233.063 295.722 232.546 296.969L233.387 297.273C233.665 296.616 234.356 296.055 235.46 296.055C236.618 296.055 237.259 296.691 237.259 297.735V297.914C237.259 298.491 236.544 298.501 235.261 298.66C233.536 298.874 232.328 299.356 232.328 300.867C232.328 302.339 233.451 303.174 234.838 303.174ZM234.958 302.364C233.958 302.364 233.213 301.832 233.213 300.907C233.213 299.982 233.968 299.594 235.261 299.435C235.887 299.361 237.001 299.222 237.259 298.968V300.072C237.259 301.325 236.369 302.364 234.958 302.364ZM240.682 303H241.542V301.583H241.652C241.96 302.284 242.606 303.159 243.998 303.159C245.873 303.159 247.14 301.573 247.14 299.202C247.14 296.85 245.868 295.259 243.983 295.259C242.586 295.259 241.955 296.134 241.652 296.82H241.572V292.818H240.682V303ZM241.557 299.187C241.557 297.357 242.398 296.065 243.889 296.065C245.42 296.065 246.251 297.427 246.251 299.187C246.251 300.967 245.41 302.349 243.889 302.349C242.407 302.349 241.557 301.031 241.557 299.187ZM249.094 303H249.984V295.364H249.094V303ZM249.547 294.051C249.91 294.051 250.213 293.763 250.213 293.415C250.213 293.067 249.91 292.778 249.547 292.778C249.184 292.778 248.885 293.067 248.885 293.415C248.885 293.763 249.184 294.051 249.547 294.051ZM253.21 292.818H252.325V303H253.21V292.818ZM255.561 303H256.451V295.364H255.561V303ZM256.013 294.051C256.376 294.051 256.68 293.763 256.68 293.415C256.68 293.067 256.376 292.778 256.013 292.778C255.651 292.778 255.352 293.067 255.352 293.415C255.352 293.763 255.651 294.051 256.013 294.051ZM261.799 295.364H260.183V293.534H259.294V295.364H258.155V296.134H259.294V301.215C259.294 302.463 260.278 303.114 261.257 303.114C261.625 303.114 261.874 303.045 262.043 302.98L261.854 302.18C261.73 302.214 261.57 302.249 261.337 302.249C260.735 302.249 260.183 301.966 260.183 301.006V296.134H261.799V295.364ZM264.425 305.864C265.38 305.864 266.081 305.317 266.489 304.208L269.725 295.379L268.761 295.364L266.494 301.832H266.424L264.157 295.364H263.197L266.006 303.075L265.728 303.85C265.305 305.004 264.709 305.207 263.809 304.924L263.57 305.705C263.749 305.789 264.077 305.864 264.425 305.864ZM271.679 303.075C272.077 303.075 272.395 302.751 272.395 302.359C272.395 301.961 272.077 301.643 271.679 301.643C271.286 301.643 270.963 301.961 270.963 302.359C270.963 302.751 271.286 303.075 271.679 303.075Z" fill="#777777"/>
<path d="M16 332H359" stroke="#DDDDDD"/>
<path d="M39.5625 383L40.8068 379.494H45.6932L46.9375 383H48.0511L43.8182 371.364H42.6818L38.4489 383H39.5625ZM41.1477 378.54L43.2102 372.744H43.2898L45.3523 378.54H41.1477ZM49.8352 383H50.8466V377.409C50.8466 376.051 51.75 375.085 52.9602 375.085C54.1534 375.085 54.8466 375.881 54.8466 377.062V383H55.8807V377.256C55.8807 376 56.6307 375.085 57.9602 375.085C59.1136 375.085 59.8807 375.778 59.8807 377.153V383H60.892V377.153C60.892 375.199 59.8864 374.159 58.267 374.159C56.9943 374.159 56.0739 374.778 55.6818 375.744H55.608C55.2216 374.756 54.4545 374.159 53.25 374.159C52.108 374.159 51.2557 374.71 50.9091 375.614H50.8182V374.273H49.8352V383ZM67.098 383.182C68.848 383.182 70.0241 382.233 70.4219 381.136L69.4616 380.824C69.1264 381.608 68.3366 382.256 67.098 382.256C65.3139 382.256 64.1832 380.955 64.1378 378.938H70.6378V378.438C70.6378 375.523 68.8366 374.153 66.9446 374.153C64.6832 374.153 63.1207 376.045 63.1207 378.688C63.1207 381.335 64.6548 383.182 67.098 383.182ZM64.1435 378.045C64.2514 376.42 65.348 375.074 66.9446 375.074C68.5071 375.074 69.6037 376.364 69.6037 378.045H64.1435ZM73.8778 377.545C73.8778 376.023 74.8778 375.085 76.2528 375.085C77.5938 375.085 78.4574 375.983 78.4574 377.409V383H79.4688V377.347C79.4688 375.278 78.2699 374.159 76.5085 374.159C75.2301 374.159 74.3494 374.75 73.9403 375.642H73.8494V374.273H72.8665V383H73.8778V377.545ZM82.1435 383H83.1605V374.273H82.1435V383ZM82.6605 372.773C83.0753 372.773 83.4219 372.443 83.4219 372.045C83.4219 371.648 83.0753 371.318 82.6605 371.318C82.2457 371.318 81.9048 371.648 81.9048 372.045C81.9048 372.443 82.2457 372.773 82.6605 372.773ZM89.2727 374.273H87.4261V372.182H86.4091V374.273H85.108V375.153H86.4091V380.96C86.4091 382.386 87.5341 383.131 88.6534 383.131C89.0739 383.131 89.358 383.051 89.5511 382.977L89.3352 382.062C89.1932 382.102 89.0114 382.142 88.7443 382.142C88.0568 382.142 87.4261 381.818 87.4261 380.722V375.153H89.2727V374.273ZM91.581 383H92.598V374.273H91.581V383ZM92.098 372.773C92.5128 372.773 92.8594 372.443 92.8594 372.045C92.8594 371.648 92.5128 371.318 92.098 371.318C91.6832 371.318 91.3423 371.648 91.3423 372.045C91.3423 372.443 91.6832 372.773 92.098 372.773ZM98.8011 383.182C100.551 383.182 101.727 382.233 102.125 381.136L101.165 380.824C100.83 381.608 100.04 382.256 98.8011 382.256C97.017 382.256 95.8864 380.955 95.8409 378.938H102.341V378.438C102.341 375.523 100.54 374.153 98.6477 374.153C96.3864 374.153 94.8239 376.045 94.8239 378.688C94.8239 381.335 96.358 383.182 98.8011 383.182ZM95.8466 378.045C95.9545 376.42 97.0511 375.074 98.6477 375.074C100.21 375.074 101.307 376.364 101.307 378.045H95.8466ZM110.433 376.188C110.007 374.926 109.075 374.153 107.479 374.153C105.717 374.153 104.439 375.159 104.439 376.597C104.439 377.767 105.149 378.562 106.666 378.926L108.092 379.267C109.053 379.494 109.513 379.989 109.513 380.688C109.513 381.597 108.643 382.273 107.303 382.273C106.109 382.273 105.365 381.733 105.121 380.699L104.149 380.938C104.456 382.392 105.609 383.182 107.32 383.182C109.24 383.182 110.558 382.125 110.558 380.642C110.558 379.477 109.825 378.699 108.365 378.341L107.047 378.017C105.962 377.744 105.456 377.307 105.456 376.551C105.456 375.665 106.303 375.045 107.479 375.045C108.655 375.045 109.234 375.665 109.507 376.449L110.433 376.188Z" fill="#444444"/>
<path d="M37 357H113V355H37V357ZM113 397H37V399H113V397ZM37 397C25.9543 397 17 388.046 17 377H15C15 389.15 24.8497 399 37 399V397ZM133 377C133 388.046 124.046 397 113 397V399C125.15 399 135 389.15 135 377H133ZM113 357C124.046 357 133 365.954 133 377H135C135 364.85 125.15 355 113 355V357ZM37 355C24.8497 355 15 364.85 15 377H17C17 365.954 25.9543 357 37 357V355Z" fill="#BBBBBB"/>
<path d="M17.3523 421H18.282V416.322H22.7812V415.487H18.282V411.653H23.2436V410.818H17.3523V421ZM25.3814 421H26.2713V413.364H25.3814V421ZM25.8338 412.051C26.1967 412.051 26.5 411.763 26.5 411.415C26.5 411.067 26.1967 410.778 25.8338 410.778C25.4709 410.778 25.1726 411.067 25.1726 411.415C25.1726 411.763 25.4709 412.051 25.8338 412.051ZM29.4966 410.818H28.6117V421H29.4966V410.818ZM34.8461 413.364H33.2303V411.534H32.3404V413.364H31.2019V414.134H32.3404V419.215C32.3404 420.463 33.3248 421.114 34.3042 421.114C34.6721 421.114 34.9206 421.045 35.0897 420.98L34.9007 420.18C34.7765 420.214 34.6174 420.249 34.3837 420.249C33.7821 420.249 33.2303 419.966 33.2303 419.006V414.134H34.8461V413.364ZM39.8612 421.159C41.3924 421.159 42.4215 420.329 42.7695 419.369L41.9293 419.096C41.636 419.782 40.945 420.349 39.8612 420.349C38.3001 420.349 37.3107 419.21 37.271 417.445H42.9585V417.008C42.9585 414.457 41.3825 413.259 39.7269 413.259C37.7482 413.259 36.381 414.915 36.381 417.227C36.381 419.543 37.7234 421.159 39.8612 421.159ZM37.2759 416.665C37.3704 415.243 38.3299 414.065 39.7269 414.065C41.0941 414.065 42.0536 415.193 42.0536 416.665H37.2759ZM44.9086 421H45.7935V416.068C45.7935 414.935 46.6635 414.114 47.8567 414.114C48.0904 414.114 48.3091 414.154 48.3887 414.164V413.264C48.2694 413.259 48.0655 413.249 47.9213 413.249C46.9618 413.249 46.1415 413.766 45.8333 414.537H45.7686V413.364H44.9086V421ZM54.0202 421H54.8803V419.583H54.9897C55.2979 420.284 55.9442 421.159 57.3363 421.159C59.2106 421.159 60.4783 419.573 60.4783 417.202C60.4783 414.85 59.2056 413.259 57.3214 413.259C55.9244 413.259 55.293 414.134 54.9897 414.82H54.9102V410.818H54.0202V421ZM54.8952 417.187C54.8952 415.357 55.7354 414.065 57.2269 414.065C58.7582 414.065 59.5884 415.427 59.5884 417.187C59.5884 418.967 58.7482 420.349 57.2269 420.349C55.7454 420.349 54.8952 419.031 54.8952 417.187ZM62.7653 423.864C63.7198 423.864 64.4208 423.317 64.8285 422.208L68.065 413.379L67.1005 413.364L64.8335 419.832H64.7638L62.4968 413.364H61.5373L64.3462 421.075L64.0678 421.85C63.6452 423.004 63.0487 423.207 62.1488 422.924L61.9102 423.705C62.0891 423.789 62.4173 423.864 62.7653 423.864ZM75.8617 421.174C77.1344 421.174 77.91 420.468 78.2282 419.792H78.2828V421H79.1678V415.815C79.1678 413.766 77.6266 413.259 76.4583 413.259C75.29 413.259 74.0868 413.722 73.5698 414.969L74.41 415.273C74.6884 414.616 75.3794 414.055 76.4831 414.055C77.6415 414.055 78.2828 414.691 78.2828 415.735V415.914C78.2828 416.491 77.5669 416.501 76.2843 416.66C74.5591 416.874 73.351 417.356 73.351 418.867C73.351 420.339 74.4746 421.174 75.8617 421.174ZM75.981 420.364C74.9817 420.364 74.236 419.832 74.236 418.907C74.236 417.982 74.9917 417.594 76.2843 417.435C76.9107 417.361 78.0243 417.222 78.2828 416.968V418.072C78.2828 419.325 77.3929 420.364 75.981 420.364ZM87.1596 413.364H86.2001L83.9331 419.832H83.8635L81.5964 413.364H80.6369L83.426 421H84.3706L87.1596 413.364ZM90.7914 421.174C92.0641 421.174 92.8397 420.468 93.1578 419.792H93.2125V421H94.0975V415.815C94.0975 413.766 92.5563 413.259 91.388 413.259C90.2196 413.259 89.0165 413.722 88.4995 414.969L89.3397 415.273C89.6181 414.616 90.3091 414.055 91.4128 414.055C92.5712 414.055 93.2125 414.691 93.2125 415.735V415.914C93.2125 416.491 92.4966 416.501 91.214 416.66C89.4888 416.874 88.2807 417.356 88.2807 418.867C88.2807 420.339 89.4043 421.174 90.7914 421.174ZM90.9107 420.364C89.9114 420.364 89.1657 419.832 89.1657 418.907C89.1657 417.982 89.9213 417.594 91.214 417.435C91.8404 417.361 92.954 417.222 93.2125 416.968V418.072C93.2125 419.325 92.3226 420.364 90.9107 420.364ZM96.4615 421H97.3514V413.364H96.4615V421ZM96.9139 412.051C97.2768 412.051 97.5801 411.763 97.5801 411.415C97.5801 411.067 97.2768 410.778 96.9139 410.778C96.551 410.778 96.2527 411.067 96.2527 411.415C96.2527 411.763 96.551 412.051 96.9139 412.051ZM100.577 410.818H99.6918V421H100.577V410.818ZM105.051 421.174C106.324 421.174 107.099 420.468 107.418 419.792H107.472V421H108.357V415.815C108.357 413.766 106.816 413.259 105.648 413.259C104.479 413.259 103.276 413.722 102.759 414.969L103.599 415.273C103.878 414.616 104.569 414.055 105.673 414.055C106.831 414.055 107.472 414.691 107.472 415.735V415.914C107.472 416.491 106.756 416.501 105.474 416.66C103.749 416.874 102.54 417.356 102.54 418.867C102.54 420.339 103.664 421.174 105.051 421.174ZM105.17 420.364C104.171 420.364 103.425 419.832 103.425 418.907C103.425 417.982 104.181 417.594 105.474 417.435C106.1 417.361 107.214 417.222 107.472 416.968V418.072C107.472 419.325 106.582 420.364 105.17 420.364ZM110.895 421H111.755V419.583H111.865C112.173 420.284 112.819 421.159 114.211 421.159C116.086 421.159 117.353 419.573 117.353 417.202C117.353 414.85 116.081 413.259 114.196 413.259C112.799 413.259 112.168 414.134 111.865 414.82H111.785V410.818H110.895V421ZM111.77 417.187C111.77 415.357 112.61 414.065 114.102 414.065C115.633 414.065 116.463 415.427 116.463 417.187C116.463 418.967 115.623 420.349 114.102 420.349C112.62 420.349 111.77 419.031 111.77 417.187ZM120.182 410.818H119.297V421H120.182V410.818ZM125.611 421.159C127.142 421.159 128.172 420.329 128.52 419.369L127.679 419.096C127.386 419.782 126.695 420.349 125.611 420.349C124.05 420.349 123.061 419.21 123.021 417.445H128.708V417.008C128.708 414.457 127.132 413.259 125.477 413.259C123.498 413.259 122.131 414.915 122.131 417.227C122.131 419.543 123.473 421.159 125.611 421.159ZM123.026 416.665C123.12 415.243 124.08 414.065 125.477 414.065C126.844 414.065 127.804 415.193 127.804 416.665H123.026ZM136.729 421.174C138.002 421.174 138.777 420.468 139.095 419.792H139.15V421H140.035V415.815C140.035 413.766 138.494 413.259 137.325 413.259C136.157 413.259 134.954 413.722 134.437 414.969L135.277 415.273C135.556 414.616 136.247 414.055 137.35 414.055C138.509 414.055 139.15 414.691 139.15 415.735V415.914C139.15 416.491 138.434 416.501 137.151 416.66C135.426 416.874 134.218 417.356 134.218 418.867C134.218 420.339 135.342 421.174 136.729 421.174ZM136.848 420.364C135.849 420.364 135.103 419.832 135.103 418.907C135.103 417.982 135.859 417.594 137.151 417.435C137.778 417.361 138.892 417.222 139.15 416.968V418.072C139.15 419.325 138.26 420.364 136.848 420.364ZM142.389 421H143.274V416.108C143.274 414.92 144.064 414.075 145.123 414.075C146.167 414.075 146.774 414.771 146.774 415.805V421H147.679V415.974C147.679 414.875 148.335 414.075 149.498 414.075C150.508 414.075 151.179 414.681 151.179 415.884V421H152.064V415.884C152.064 414.174 151.184 413.264 149.767 413.264C148.653 413.264 147.848 413.806 147.505 414.651H147.44C147.102 413.786 146.431 413.264 145.377 413.264C144.378 413.264 143.632 413.746 143.329 414.537H143.249V413.364H142.389V421ZM157.494 421.159C159.025 421.159 160.054 420.329 160.402 419.369L159.562 419.096C159.269 419.782 158.578 420.349 157.494 420.349C155.933 420.349 154.944 419.21 154.904 417.445H160.591V417.008C160.591 414.457 159.015 413.259 157.36 413.259C155.381 413.259 154.014 414.915 154.014 417.227C154.014 419.543 155.356 421.159 157.494 421.159ZM154.909 416.665C155.003 415.243 155.963 414.065 157.36 414.065C158.727 414.065 159.686 415.193 159.686 416.665H154.909ZM163.426 416.227C163.426 414.895 164.301 414.075 165.504 414.075C166.678 414.075 167.433 414.86 167.433 416.108V421H168.318V416.053C168.318 414.244 167.269 413.264 165.728 413.264C164.61 413.264 163.839 413.781 163.481 414.562H163.401V413.364H162.541V421H163.426V416.227ZM170.659 421H171.549V413.364H170.659V421ZM171.111 412.051C171.474 412.051 171.777 411.763 171.777 411.415C171.777 411.067 171.474 410.778 171.111 410.778C170.748 410.778 170.45 411.067 170.45 411.415C170.45 411.763 170.748 412.051 171.111 412.051ZM176.897 413.364H175.281V411.534H174.391V413.364H173.253V414.134H174.391V419.215C174.391 420.463 175.376 421.114 176.355 421.114C176.723 421.114 176.971 421.045 177.14 420.98L176.952 420.18C176.827 420.214 176.668 420.249 176.434 420.249C175.833 420.249 175.281 419.966 175.281 419.006V414.134H176.897V413.364ZM181.912 421.159C183.443 421.159 184.472 420.329 184.82 419.369L183.98 419.096C183.687 419.782 182.996 420.349 181.912 420.349C180.351 420.349 179.362 419.21 179.322 417.445H185.009V417.008C185.009 414.457 183.433 413.259 181.778 413.259C179.799 413.259 178.432 414.915 178.432 417.227C178.432 419.543 179.774 421.159 181.912 421.159ZM179.327 416.665C179.421 415.243 180.381 414.065 181.778 414.065C183.145 414.065 184.104 415.193 184.104 416.665H179.327ZM192.09 415.039C191.717 413.935 190.902 413.259 189.505 413.259C187.964 413.259 186.845 414.139 186.845 415.397C186.845 416.421 187.466 417.117 188.794 417.435L190.042 417.734C190.882 417.933 191.285 418.365 191.285 418.977C191.285 419.772 190.524 420.364 189.351 420.364C188.307 420.364 187.655 419.891 187.442 418.987L186.591 419.195C186.86 420.468 187.869 421.159 189.366 421.159C191.046 421.159 192.199 420.234 192.199 418.937C192.199 417.918 191.558 417.237 190.28 416.923L189.127 416.64C188.177 416.401 187.735 416.018 187.735 415.357C187.735 414.582 188.476 414.04 189.505 414.04C190.534 414.04 191.041 414.582 191.28 415.268L192.09 415.039ZM194.843 421.075C195.241 421.075 195.559 420.751 195.559 420.359C195.559 419.961 195.241 419.643 194.843 419.643C194.45 419.643 194.127 419.961 194.127 420.359C194.127 420.751 194.45 421.075 194.843 421.075Z" fill="#777777"/>
<path d="M16 450H359" stroke="#DDDDDD"/>
<path d="M40.608 489.364H39.5455V501H40.608V489.364ZM44.5028 495.545C44.5028 494.023 45.5028 493.085 46.8778 493.085C48.2188 493.085 49.0824 493.983 49.0824 495.409V501H50.0938V495.347C50.0938 493.278 48.8949 492.159 47.1335 492.159C45.8551 492.159 44.9744 492.75 44.5653 493.642H44.4744V492.273H43.4915V501H44.5028V495.545ZM55.8991 501.182C57.4844 501.182 58.223 500.176 58.581 499.381H58.7003V501H59.6889V489.364H58.6719V493.938H58.581C58.2344 493.153 57.5128 492.153 55.9162 492.153C53.7628 492.153 52.3082 493.972 52.3082 496.659C52.3082 499.369 53.7571 501.182 55.8991 501.182ZM56.0185 500.256C54.2798 500.256 53.3253 498.676 53.3253 496.642C53.3253 494.631 54.2685 493.074 56.0185 493.074C57.723 493.074 58.6889 494.551 58.6889 496.642C58.6889 498.75 57.7116 500.256 56.0185 500.256ZM68.1151 497.665C68.1151 499.267 66.9105 500.131 65.7287 500.131C64.4673 500.131 63.581 499.227 63.581 497.864V492.273H62.5696V497.926C62.5696 499.994 63.7628 501.114 65.4389 501.114C66.7173 501.114 67.6264 500.449 68.0355 499.551H68.1151V501H69.1264V492.273H68.1151V497.665ZM77.6676 494.188C77.2415 492.926 76.3097 492.153 74.7131 492.153C72.9517 492.153 71.6733 493.159 71.6733 494.597C71.6733 495.767 72.3835 496.562 73.9006 496.926L75.3267 497.267C76.2869 497.494 76.7472 497.989 76.7472 498.688C76.7472 499.597 75.8778 500.273 74.5369 500.273C73.3438 500.273 72.5994 499.733 72.3551 498.699L71.3835 498.938C71.6903 500.392 72.8438 501.182 74.554 501.182C76.4744 501.182 77.7926 500.125 77.7926 498.642C77.7926 497.477 77.0597 496.699 75.5994 496.341L74.2812 496.017C73.196 495.744 72.6903 495.307 72.6903 494.551C72.6903 493.665 73.5369 493.045 74.7131 493.045C75.8892 493.045 76.4688 493.665 76.7415 494.449L77.6676 494.188ZM83.4446 492.273H81.598V490.182H80.581V492.273H79.2798V493.153H80.581V498.96C80.581 500.386 81.706 501.131 82.8253 501.131C83.2457 501.131 83.5298 501.051 83.723 500.977L83.5071 500.062C83.3651 500.102 83.1832 500.142 82.9162 500.142C82.2287 500.142 81.598 499.818 81.598 498.722V493.153H83.4446V492.273ZM85.7415 501H86.7528V495.364C86.7528 494.068 87.7472 493.131 89.1108 493.131C89.3778 493.131 89.6278 493.176 89.7188 493.188V492.159C89.5824 492.153 89.3494 492.142 89.1847 492.142C88.0881 492.142 87.1506 492.733 86.7983 493.614H86.7244V492.273H85.7415V501ZM92.4148 504.273C93.5057 504.273 94.3068 503.648 94.7727 502.381L98.4716 492.29L97.3693 492.273L94.7784 499.665H94.6989L92.108 492.273H91.0114L94.2216 501.085L93.9034 501.972C93.4205 503.29 92.7386 503.523 91.7102 503.199L91.4375 504.091C91.642 504.188 92.017 504.273 92.4148 504.273ZM106.217 489.364H105.155V501H106.217V489.364ZM110.112 495.545C110.112 494.023 111.112 493.085 112.487 493.085C113.828 493.085 114.692 493.983 114.692 495.409V501H115.703V495.347C115.703 493.278 114.504 492.159 112.743 492.159C111.464 492.159 110.584 492.75 110.175 493.642H110.084V492.273H109.101V501H110.112V495.545ZM121.804 492.273H119.957V490.182H118.94V492.273H117.639V493.153H118.94V498.96C118.94 500.386 120.065 501.131 121.185 501.131C121.605 501.131 121.889 501.051 122.082 500.977L121.866 500.062C121.724 500.102 121.543 500.142 121.276 500.142C120.588 500.142 119.957 499.818 119.957 498.722V493.153H121.804V492.273ZM127.536 501.182C129.286 501.182 130.462 500.233 130.859 499.136L129.899 498.824C129.564 499.608 128.774 500.256 127.536 500.256C125.751 500.256 124.621 498.955 124.575 496.938H131.075V496.438C131.075 493.523 129.274 492.153 127.382 492.153C125.121 492.153 123.558 494.045 123.558 496.688C123.558 499.335 125.092 501.182 127.536 501.182ZM124.581 496.045C124.689 494.42 125.786 493.074 127.382 493.074C128.945 493.074 130.041 494.364 130.041 496.045H124.581ZM133.304 501H134.315V495.364C134.315 494.068 135.31 493.131 136.673 493.131C136.94 493.131 137.19 493.176 137.281 493.188V492.159C137.145 492.153 136.912 492.142 136.747 492.142C135.651 492.142 134.713 492.733 134.361 493.614H134.287V492.273H133.304V501ZM142.27 501.182C144.02 501.182 145.196 500.233 145.594 499.136L144.634 498.824C144.298 499.608 143.509 500.256 142.27 500.256C140.486 500.256 139.355 498.955 139.31 496.938H145.81V496.438C145.81 493.523 144.009 492.153 142.116 492.153C139.855 492.153 138.293 494.045 138.293 496.688C138.293 499.335 139.827 501.182 142.27 501.182ZM139.315 496.045C139.423 494.42 140.52 493.074 142.116 493.074C143.679 493.074 144.776 494.364 144.776 496.045H139.315ZM153.902 494.188C153.476 492.926 152.544 492.153 150.947 492.153C149.186 492.153 147.908 493.159 147.908 494.597C147.908 495.767 148.618 496.562 150.135 496.926L151.561 497.267C152.521 497.494 152.982 497.989 152.982 498.688C152.982 499.597 152.112 500.273 150.771 500.273C149.578 500.273 148.834 499.733 148.589 498.699L147.618 498.938C147.925 500.392 149.078 501.182 150.788 501.182C152.709 501.182 154.027 500.125 154.027 498.642C154.027 497.477 153.294 496.699 151.834 496.341L150.516 496.017C149.43 495.744 148.925 495.307 148.925 494.551C148.925 493.665 149.771 493.045 150.947 493.045C152.124 493.045 152.703 493.665 152.976 494.449L153.902 494.188ZM159.679 492.273H157.832V490.182H156.815V492.273H155.514V493.153H156.815V498.96C156.815 500.386 157.94 501.131 159.06 501.131C159.48 501.131 159.764 501.051 159.957 500.977L159.741 500.062C159.599 500.102 159.418 500.142 159.151 500.142C158.463 500.142 157.832 499.818 157.832 498.722V493.153H159.679V492.273ZM167.683 494.188C167.257 492.926 166.325 492.153 164.729 492.153C162.967 492.153 161.689 493.159 161.689 494.597C161.689 495.767 162.399 496.562 163.916 496.926L165.342 497.267C166.303 497.494 166.763 497.989 166.763 498.688C166.763 499.597 165.893 500.273 164.553 500.273C163.359 500.273 162.615 499.733 162.371 498.699L161.399 498.938C161.706 500.392 162.859 501.182 164.57 501.182C166.49 501.182 167.808 500.125 167.808 498.642C167.808 497.477 167.075 496.699 165.615 496.341L164.297 496.017C163.212 495.744 162.706 495.307 162.706 494.551C162.706 493.665 163.553 493.045 164.729 493.045C165.905 493.045 166.484 493.665 166.757 494.449L167.683 494.188Z" fill="#444444"/>
<path d="M37 475H170V473H37V475ZM170 515H37V517H170V515ZM37 515C25.9543 515 17 506.046 17 495H15C15 507.15 24.8497 517 37 517V515ZM190 495C190 506.046 181.046 515 170 515V517C182.15 517 192 507.15 192 495H190ZM170 475C181.046 475 190 483.954 190 495H192C192 482.85 182.15 473 170 473V475ZM37 473C24.8497 473 15 482.85 15 495H17C17 483.954 25.9543 475 37 475V473Z" fill="#BBBBBB"/>
<path d="M17.3523 539H18.282V534.322H22.7812V533.487H18.282V529.653H23.2436V528.818H17.3523V539ZM25.3814 539H26.2713V531.364H25.3814V539ZM25.8338 530.051C26.1967 530.051 26.5 529.763 26.5 529.415C26.5 529.067 26.1967 528.778 25.8338 528.778C25.4709 528.778 25.1726 529.067 25.1726 529.415C25.1726 529.763 25.4709 530.051 25.8338 530.051ZM29.4966 528.818H28.6117V539H29.4966V528.818ZM34.8461 531.364H33.2303V529.534H32.3404V531.364H31.2019V532.134H32.3404V537.215C32.3404 538.463 33.3248 539.114 34.3042 539.114C34.6721 539.114 34.9206 539.045 35.0897 538.98L34.9007 538.18C34.7765 538.214 34.6174 538.249 34.3837 538.249C33.7821 538.249 33.2303 537.966 33.2303 537.006V532.134H34.8461V531.364ZM39.8612 539.159C41.3924 539.159 42.4215 538.329 42.7695 537.369L41.9293 537.096C41.636 537.782 40.945 538.349 39.8612 538.349C38.3001 538.349 37.3107 537.21 37.271 535.445H42.9585V535.008C42.9585 532.457 41.3825 531.259 39.7269 531.259C37.7482 531.259 36.381 532.915 36.381 535.227C36.381 537.543 37.7234 539.159 39.8612 539.159ZM37.2759 534.665C37.3704 533.243 38.3299 532.065 39.7269 532.065C41.0941 532.065 42.0536 533.193 42.0536 534.665H37.2759ZM44.9086 539H45.7935V534.068C45.7935 532.935 46.6635 532.114 47.8567 532.114C48.0904 532.114 48.3091 532.154 48.3887 532.164V531.264C48.2694 531.259 48.0655 531.249 47.9213 531.249C46.9618 531.249 46.1415 531.766 45.8333 532.537H45.7686V531.364H44.9086V539ZM54.0202 539H54.8803V537.583H54.9897C55.2979 538.284 55.9442 539.159 57.3363 539.159C59.2106 539.159 60.4783 537.573 60.4783 535.202C60.4783 532.85 59.2056 531.259 57.3214 531.259C55.9244 531.259 55.293 532.134 54.9897 532.82H54.9102V528.818H54.0202V539ZM54.8952 535.187C54.8952 533.357 55.7354 532.065 57.2269 532.065C58.7582 532.065 59.5884 533.427 59.5884 535.187C59.5884 536.967 58.7482 538.349 57.2269 538.349C55.7454 538.349 54.8952 537.031 54.8952 535.187ZM62.7653 541.864C63.7198 541.864 64.4208 541.317 64.8285 540.208L68.065 531.379L67.1005 531.364L64.8335 537.832H64.7638L62.4968 531.364H61.5373L64.3462 539.075L64.0678 539.85C63.6452 541.004 63.0487 541.207 62.1488 540.924L61.9102 541.705C62.0891 541.789 62.4173 541.864 62.7653 541.864ZM73.714 541.864H74.6039V537.583H74.6834C74.9867 538.284 75.6429 539.159 77.03 539.159C78.8993 539.159 80.1721 537.568 80.1721 535.202C80.1721 532.845 78.9043 531.259 77.0151 531.259C75.6131 531.259 74.9917 532.134 74.6834 532.82H74.574V531.364H73.714V541.864ZM74.589 535.187C74.589 533.357 75.4292 532.065 76.9206 532.065C78.4569 532.065 79.2821 533.427 79.2821 535.187C79.2821 536.967 78.4419 538.349 76.9206 538.349C75.4441 538.349 74.589 537.031 74.589 535.187ZM82.1097 539H82.9947V534.068C82.9947 532.935 83.8647 532.114 85.0579 532.114C85.2915 532.114 85.5103 532.154 85.5898 532.164V531.264C85.4705 531.259 85.2667 531.249 85.1225 531.249C84.163 531.249 83.3427 531.766 83.0344 532.537H82.9698V531.364H82.1097V539ZM89.8356 539.159C91.8143 539.159 93.1964 537.543 93.1964 535.217C93.1964 532.875 91.8143 531.259 89.8356 531.259C87.8569 531.259 86.4748 532.875 86.4748 535.217C86.4748 537.543 87.8569 539.159 89.8356 539.159ZM89.8356 538.349C88.2496 538.349 87.3647 536.927 87.3647 535.217C87.3647 533.506 88.2496 532.065 89.8356 532.065C91.4215 532.065 92.3065 533.506 92.3065 535.217C92.3065 536.927 91.4215 538.349 89.8356 538.349ZM95.1241 541.864H96.014V537.583H96.0936C96.3968 538.284 97.0531 539.159 98.4402 539.159C100.309 539.159 101.582 537.568 101.582 535.202C101.582 532.845 100.314 531.259 98.4252 531.259C97.0233 531.259 96.4018 532.134 96.0936 532.82H95.9842V531.364H95.1241V541.864ZM95.9991 535.187C95.9991 533.357 96.8393 532.065 98.3308 532.065C99.867 532.065 100.692 533.427 100.692 535.187C100.692 536.967 99.8521 538.349 98.3308 538.349C96.8542 538.349 95.9991 537.031 95.9991 535.187ZM106.607 539.159C108.138 539.159 109.168 538.329 109.516 537.369L108.675 537.096C108.382 537.782 107.691 538.349 106.607 538.349C105.046 538.349 104.057 537.21 104.017 535.445H109.705V535.008C109.705 532.457 108.129 531.259 106.473 531.259C104.494 531.259 103.127 532.915 103.127 535.227C103.127 537.543 104.469 539.159 106.607 539.159ZM104.022 534.665C104.116 533.243 105.076 532.065 106.473 532.065C107.84 532.065 108.8 533.193 108.8 534.665H104.022ZM111.655 539H112.54V534.068C112.54 532.935 113.41 532.114 114.603 532.114C114.836 532.114 115.055 532.154 115.135 532.164V531.264C115.015 531.259 114.812 531.249 114.667 531.249C113.708 531.249 112.888 531.766 112.579 532.537H112.515V531.364H111.655V539ZM120.131 531.364H118.515V529.534H117.626V531.364H116.487V532.134H117.626V537.215C117.626 538.463 118.61 539.114 119.589 539.114C119.957 539.114 120.206 539.045 120.375 538.98L120.186 538.18C120.062 538.214 119.903 538.249 119.669 538.249C119.067 538.249 118.515 537.966 118.515 537.006V532.134H120.131V531.364ZM122.757 541.864C123.712 541.864 124.413 541.317 124.821 540.208L128.057 531.379L127.093 531.364L124.826 537.832H124.756L122.489 531.364H121.529L124.338 539.075L124.06 539.85C123.637 541.004 123.041 541.207 122.141 540.924L121.902 541.705C122.081 541.789 122.409 541.864 122.757 541.864ZM131.054 528.818H130.209V529.728C130.209 530.479 129.816 531.214 129.319 531.796L129.801 532.219C130.596 531.582 131.054 530.528 131.054 529.713V528.818ZM136.787 533.039C136.414 531.935 135.599 531.259 134.202 531.259C132.661 531.259 131.542 532.139 131.542 533.397C131.542 534.421 132.164 535.117 133.491 535.435L134.739 535.734C135.579 535.933 135.982 536.365 135.982 536.977C135.982 537.772 135.221 538.364 134.048 538.364C133.004 538.364 132.353 537.891 132.139 536.987L131.289 537.195C131.557 538.468 132.566 539.159 134.063 539.159C135.743 539.159 136.897 538.234 136.897 536.937C136.897 535.918 136.255 535.237 134.978 534.923L133.824 534.64C132.875 534.401 132.432 534.018 132.432 533.357C132.432 532.582 133.173 532.04 134.202 532.04C135.231 532.04 135.738 532.582 135.977 533.268L136.787 533.039ZM142.782 539H143.672V531.364H142.782V539ZM143.234 530.051C143.597 530.051 143.9 529.763 143.9 529.415C143.9 529.067 143.597 528.778 143.234 528.778C142.871 528.778 142.573 529.067 142.573 529.415C142.573 529.763 142.871 530.051 143.234 530.051ZM146.897 534.227C146.897 532.895 147.772 532.075 148.975 532.075C150.148 532.075 150.904 532.86 150.904 534.108V539H151.789V534.053C151.789 532.244 150.74 531.264 149.199 531.264C148.08 531.264 147.31 531.781 146.952 532.562H146.872V531.364H146.012V539H146.897V534.227ZM156.869 539.159C158.256 539.159 158.902 538.279 159.215 537.583H159.32V539H160.185V528.818H159.295V532.82H159.215C158.912 532.134 158.281 531.259 156.884 531.259C154.999 531.259 153.727 532.85 153.727 535.202C153.727 537.573 154.994 539.159 156.869 539.159ZM156.973 538.349C155.452 538.349 154.617 536.967 154.617 535.187C154.617 533.427 155.442 532.065 156.973 532.065C158.465 532.065 159.31 533.357 159.31 535.187C159.31 537.031 158.455 538.349 156.973 538.349ZM167.558 536.082C167.558 537.484 166.504 538.239 165.47 538.239C164.366 538.239 163.59 537.449 163.59 536.256V531.364H162.705V536.31C162.705 538.12 163.749 539.099 165.216 539.099C166.335 539.099 167.13 538.518 167.488 537.732H167.558V539H168.443V531.364H167.558V536.082ZM175.916 533.039C175.543 531.935 174.728 531.259 173.331 531.259C171.79 531.259 170.671 532.139 170.671 533.397C170.671 534.421 171.293 535.117 172.62 535.435L173.868 535.734C174.708 535.933 175.111 536.365 175.111 536.977C175.111 537.772 174.35 538.364 173.177 538.364C172.133 538.364 171.482 537.891 171.268 536.987L170.418 537.195C170.686 538.468 171.695 539.159 173.192 539.159C174.872 539.159 176.026 538.234 176.026 536.937C176.026 535.918 175.384 535.237 174.107 534.923L172.953 534.64C172.004 534.401 171.561 534.018 171.561 533.357C171.561 532.582 172.302 532.04 173.331 532.04C174.36 532.04 174.867 532.582 175.106 533.268L175.916 533.039ZM180.971 531.364H179.355V529.534H178.465V531.364H177.327V532.134H178.465V537.215C178.465 538.463 179.45 539.114 180.429 539.114C180.797 539.114 181.046 539.045 181.215 538.98L181.026 538.18C180.901 538.214 180.742 538.249 180.509 538.249C179.907 538.249 179.355 537.966 179.355 537.006V532.134H180.971V531.364ZM182.981 539H183.866V534.068C183.866 532.935 184.736 532.114 185.929 532.114C186.163 532.114 186.381 532.154 186.461 532.164V531.264C186.342 531.259 186.138 531.249 185.994 531.249C185.034 531.249 184.214 531.766 183.906 532.537H183.841V531.364H182.981V539ZM188.82 541.864C189.775 541.864 190.475 541.317 190.883 540.208L194.12 531.379L193.155 531.364L190.888 537.832H190.819L188.551 531.364H187.592L190.401 539.075L190.123 539.85C189.7 541.004 189.103 541.207 188.203 540.924L187.965 541.705C188.144 541.789 188.472 541.864 188.82 541.864ZM199.794 539H200.683V531.364H199.794V539ZM200.246 530.051C200.609 530.051 200.912 529.763 200.912 529.415C200.912 529.067 200.609 528.778 200.246 528.778C199.883 528.778 199.585 529.067 199.585 529.415C199.585 529.763 199.883 530.051 200.246 530.051ZM203.909 534.227C203.909 532.895 204.784 532.075 205.987 532.075C207.16 532.075 207.916 532.86 207.916 534.108V539H208.801V534.053C208.801 532.244 207.752 531.264 206.211 531.264C205.092 531.264 204.321 531.781 203.963 532.562H203.884V531.364H203.024V539H203.909V534.227ZM214.139 531.364H212.523V529.534H211.633V531.364H210.495V532.134H211.633V537.215C211.633 538.463 212.618 539.114 213.597 539.114C213.965 539.114 214.214 539.045 214.383 538.98L214.194 538.18C214.069 538.214 213.91 538.249 213.677 538.249C213.075 538.249 212.523 537.966 212.523 537.006V532.134H214.139V531.364ZM219.154 539.159C220.685 539.159 221.714 538.329 222.062 537.369L221.222 537.096C220.929 537.782 220.238 538.349 219.154 538.349C217.593 538.349 216.604 537.21 216.564 535.445H222.251V535.008C222.251 532.457 220.675 531.259 219.02 531.259C217.041 531.259 215.674 532.915 215.674 535.227C215.674 537.543 217.016 539.159 219.154 539.159ZM216.569 534.665C216.663 533.243 217.623 532.065 219.02 532.065C220.387 532.065 221.347 533.193 221.347 534.665H216.569ZM224.202 539H225.086V534.068C225.086 532.935 225.956 532.114 227.15 532.114C227.383 532.114 227.602 532.154 227.682 532.164V531.264C227.562 531.259 227.358 531.249 227.214 531.249C226.255 531.249 225.434 531.766 225.126 532.537H225.062V531.364H224.202V539ZM232.047 539.159C233.578 539.159 234.607 538.329 234.955 537.369L234.115 537.096C233.822 537.782 233.131 538.349 232.047 538.349C230.486 538.349 229.496 537.21 229.456 535.445H235.144V535.008C235.144 532.457 233.568 531.259 231.912 531.259C229.934 531.259 228.567 532.915 228.567 535.227C228.567 537.543 229.909 539.159 232.047 539.159ZM229.461 534.665C229.556 533.243 230.515 532.065 231.912 532.065C233.28 532.065 234.239 533.193 234.239 534.665H229.461ZM242.225 533.039C241.852 531.935 241.037 531.259 239.64 531.259C238.098 531.259 236.98 532.139 236.98 533.397C236.98 534.421 237.601 535.117 238.929 535.435L240.176 535.734C241.017 535.933 241.419 536.365 241.419 536.977C241.419 537.772 240.659 538.364 239.485 538.364C238.441 538.364 237.79 537.891 237.576 536.987L236.726 537.195C236.995 538.468 238.004 539.159 239.5 539.159C241.181 539.159 242.334 538.234 242.334 536.937C242.334 535.918 241.693 535.237 240.415 534.923L239.262 534.64C238.312 534.401 237.87 534.018 237.87 533.357C237.87 532.582 238.61 532.04 239.64 532.04C240.669 532.04 241.176 532.582 241.414 533.268L242.225 533.039ZM247.28 531.364H245.664V529.534H244.774V531.364H243.635V532.134H244.774V537.215C244.774 538.463 245.758 539.114 246.738 539.114C247.106 539.114 247.354 539.045 247.523 538.98L247.334 538.18C247.21 538.214 247.051 538.249 246.817 538.249C246.216 538.249 245.664 537.966 245.664 537.006V532.134H247.28V531.364ZM254.283 533.039C253.911 531.935 253.095 531.259 251.698 531.259C250.157 531.259 249.038 532.139 249.038 533.397C249.038 534.421 249.66 535.117 250.987 535.435L252.235 535.734C253.075 535.933 253.478 536.365 253.478 536.977C253.478 537.772 252.717 538.364 251.544 538.364C250.5 538.364 249.849 537.891 249.635 536.987L248.785 537.195C249.053 538.468 250.062 539.159 251.559 539.159C253.239 539.159 254.393 538.234 254.393 536.937C254.393 535.918 253.751 535.237 252.474 534.923L251.32 534.64C250.371 534.401 249.928 534.018 249.928 533.357C249.928 532.582 250.669 532.04 251.698 532.04C252.727 532.04 253.234 532.582 253.473 533.268L254.283 533.039ZM257.036 539.075C257.434 539.075 257.752 538.751 257.752 538.359C257.752 537.961 257.434 537.643 257.036 537.643C256.644 537.643 256.32 537.961 256.32 538.359C256.32 538.751 256.644 539.075 257.036 539.075Z" fill="#777777"/>
<rect x="375" y="68" width="375" height="68" transform="rotate(-180 375 68)" fill="white"/>
<path d="M154.927 42H158.089V34.5852H165.342V31.9347H158.089V27.196H166.109V24.5455H154.927V42ZM168.373 42H171.459V28.9091H168.373V42ZM169.924 27.0511C170.905 27.0511 171.706 26.3011 171.706 25.3807C171.706 24.4517 170.905 23.7017 169.924 23.7017C168.936 23.7017 168.135 24.4517 168.135 25.3807C168.135 26.3011 168.936 27.0511 169.924 27.0511ZM177.236 24.5455H174.151V42H177.236V24.5455ZM186.466 28.9091H183.884V25.7727H180.798V28.9091H178.94V31.2955H180.798V38.5739C180.781 41.0369 182.571 42.2472 184.889 42.179C185.767 42.1534 186.372 41.983 186.705 41.8722L186.185 39.4602C186.014 39.5028 185.665 39.5795 185.281 39.5795C184.506 39.5795 183.884 39.3068 183.884 38.0625V31.2955H186.466V28.9091ZM194.221 42.2557C197.272 42.2557 199.369 40.7642 199.914 38.4886L197.033 38.1648C196.616 39.2727 195.593 39.8523 194.264 39.8523C192.269 39.8523 190.948 38.5398 190.923 36.2983H200.042V35.3523C200.042 30.7585 197.281 28.7386 194.059 28.7386C190.309 28.7386 187.863 31.4915 187.863 35.5312C187.863 39.6392 190.275 42.2557 194.221 42.2557ZM190.931 34.2188C191.025 32.5483 192.261 31.142 194.102 31.142C195.874 31.142 197.068 32.4375 197.085 34.2188H190.931ZM202.172 42H205.257V34.304C205.257 32.642 206.51 31.4659 208.206 31.4659C208.726 31.4659 209.374 31.5597 209.638 31.6449V28.8068C209.357 28.7557 208.871 28.7216 208.53 28.7216C207.03 28.7216 205.777 29.5739 205.3 31.0909H205.164V28.9091H202.172V42ZM221.554 32.3693C221.128 30.1534 219.355 28.7386 216.287 28.7386C213.134 28.7386 210.986 30.2898 210.995 32.7102C210.986 34.6193 212.162 35.8807 214.676 36.4006L216.909 36.8693C218.111 37.1335 218.674 37.6193 218.674 38.3608C218.674 39.2557 217.702 39.929 216.236 39.929C214.821 39.929 213.901 39.3153 213.637 38.1392L210.628 38.429C211.012 40.8324 213.032 42.2557 216.245 42.2557C219.517 42.2557 221.827 40.5597 221.836 38.0795C221.827 36.2131 220.625 35.071 218.154 34.5341L215.921 34.0568C214.591 33.7585 214.063 33.2983 214.071 32.5398C214.063 31.6534 215.043 31.0398 216.33 31.0398C217.753 31.0398 218.503 31.8153 218.742 32.6761L221.554 32.3693Z" fill="#444444"/>
<line x1="341" y1="41.8787" x2="355.849" y2="27.0294" stroke="#BBBBBB" stroke-width="3" stroke-linecap="round"/>
<line x1="341.121" y1="27" x2="355.971" y2="41.8492" stroke="#BBBBBB" stroke-width="3" stroke-linecap="round"/>
<path d="M375 67.5L3.05176e-05 67.5" stroke="#DDDDDD"/>
</g>
<defs>
<clipPath id="clip0">
<rect width="375" height="667" fill="white"/>
</clipPath>
</defs>
</svg>
