<svg width="375" height="1266" viewBox="0 0 375 1266" fill="none" xmlns="http://www.w3.org/2000/svg">
<g clip-path="url(#clip0)">
<rect width="375" height="1266" fill="white"/>
<path d="M19.9631 131L21.4034 126.696H27.9659L29.4148 131H32.7898L26.6364 113.545H22.733L16.5881 131H19.9631ZM22.2557 124.156L24.6165 117.125H24.7528L27.1136 124.156H22.2557ZM34.6088 131H37.6429V128.938H37.8218C38.3076 129.892 39.3218 131.23 41.5718 131.23C44.6571 131.23 46.9667 128.784 46.9667 124.472C46.9667 120.108 44.5889 117.739 41.5633 117.739C39.2537 117.739 38.2906 119.128 37.8218 120.074H37.694V113.545H34.6088V131ZM37.6343 124.455C37.6343 121.915 38.7253 120.27 40.7111 120.27C42.765 120.27 43.8218 122.017 43.8218 124.455C43.8218 126.909 42.748 128.699 40.7111 128.699C38.7423 128.699 37.6343 126.994 37.6343 124.455ZM54.8198 131.256C58.6551 131.256 61.0926 128.554 61.0926 124.506C61.0926 120.449 58.6551 117.739 54.8198 117.739C50.9846 117.739 48.5471 120.449 48.5471 124.506C48.5471 128.554 50.9846 131.256 54.8198 131.256ZM54.8369 128.784C52.7147 128.784 51.6749 126.892 51.6749 124.497C51.6749 122.102 52.7147 120.185 54.8369 120.185C56.9249 120.185 57.9647 122.102 57.9647 124.497C57.9647 126.892 56.9249 128.784 54.8369 128.784ZM71.5749 125.494C71.5749 127.489 70.1516 128.477 68.788 128.477C67.305 128.477 66.3164 127.429 66.3164 125.767V117.909H63.2312V126.244C63.2312 129.389 65.0209 131.17 67.5948 131.17C69.555 131.17 70.9357 130.139 71.5323 128.673H71.6687V131H74.6601V117.909H71.5749V125.494ZM83.8897 117.909H81.3073V114.773H78.222V117.909H76.3641V120.295H78.222V127.574C78.205 130.037 79.9948 131.247 82.313 131.179C83.1908 131.153 83.7959 130.983 84.1283 130.872L83.6084 128.46C83.438 128.503 83.0885 128.58 82.705 128.58C81.9294 128.58 81.3073 128.307 81.3073 127.062V120.295H83.8897V117.909ZM90.4062 113.545L96.7557 124.489V131H99.9091V124.489L106.258 113.545H102.687L98.4176 121.267H98.2471L93.9772 113.545H90.4062ZM111.154 131.256C114.989 131.256 117.427 128.554 117.427 124.506C117.427 120.449 114.989 117.739 111.154 117.739C107.319 117.739 104.881 120.449 104.881 124.506C104.881 128.554 107.319 131.256 111.154 131.256ZM111.171 128.784C109.049 128.784 108.009 126.892 108.009 124.497C108.009 122.102 109.049 120.185 111.171 120.185C113.259 120.185 114.299 122.102 114.299 124.497C114.299 126.892 113.259 128.784 111.171 128.784ZM127.909 125.494C127.909 127.489 126.486 128.477 125.122 128.477C123.639 128.477 122.651 127.429 122.651 125.767V117.909H119.566V126.244C119.566 129.389 121.355 131.17 123.929 131.17C125.889 131.17 127.27 130.139 127.867 128.673H128.003V131H130.995V117.909H127.909V125.494Z" fill="#333333"/>
<path d="M42.6591 184C42.2784 181.858 40.5284 180.205 38.0511 180.205C35.1136 180.205 33.0227 182.54 33.0227 186.182C33.0227 189.824 35.1136 192.159 38.0511 192.159C40.5284 192.159 42.2784 190.5 42.6591 188.364H41.5909C41.267 189.96 39.875 191.159 38.0511 191.159C35.8466 191.159 34.0511 189.415 34.0511 186.182C34.0511 182.96 35.8466 181.205 38.0511 181.205C39.875 181.205 41.267 182.409 41.5909 184H42.6591ZM45.1548 192H52.0185V191.045H46.2173V186.653H51.5469V185.699H46.2173V181.318H51.9048V180.364H45.1548V192ZM64.1946 186.182C64.1946 182.54 62.1037 180.205 59.1605 180.205C56.223 180.205 54.1321 182.545 54.1321 186.182C54.1321 189.818 56.2173 192.159 59.1605 192.159C62.1037 192.159 64.1946 189.824 64.1946 186.182ZM63.1605 186.182C63.1662 189.312 61.456 191.159 59.1605 191.159C56.8594 191.159 55.1605 189.301 55.1605 186.182C55.1605 183.045 56.8764 181.205 59.1605 181.205C61.456 181.205 63.1605 183.051 63.1605 186.182ZM73.4915 192.199C74.946 192.199 75.8324 191.392 76.196 190.619H76.2585V192H77.2699V186.074C77.2699 183.733 75.5085 183.153 74.1733 183.153C72.8381 183.153 71.4631 183.682 70.8722 185.108L71.8324 185.455C72.1506 184.705 72.9403 184.062 74.2017 184.062C75.5256 184.062 76.2585 184.79 76.2585 185.983V186.188C76.2585 186.847 75.4403 186.858 73.9744 187.04C72.0028 187.284 70.6222 187.835 70.6222 189.562C70.6222 191.244 71.9062 192.199 73.4915 192.199ZM73.6278 191.273C72.4858 191.273 71.6335 190.665 71.6335 189.608C71.6335 188.551 72.4972 188.108 73.9744 187.926C74.6903 187.841 75.9631 187.682 76.2585 187.392V188.653C76.2585 190.085 75.2415 191.273 73.6278 191.273ZM80.9716 186.545C80.9716 185.023 81.9716 184.085 83.3466 184.085C84.6875 184.085 85.5511 184.983 85.5511 186.409V192H86.5625V186.347C86.5625 184.278 85.3636 183.159 83.6023 183.159C82.3239 183.159 81.4432 183.75 81.0341 184.642H80.9432V183.273H79.9602V192H80.9716V186.545ZM92.3679 192.182C93.9531 192.182 94.6918 191.176 95.0497 190.381H95.169V192H96.1577V180.364H95.1406V184.938H95.0497C94.7031 184.153 93.9815 183.153 92.3849 183.153C90.2315 183.153 88.777 184.972 88.777 187.659C88.777 190.369 90.2259 192.182 92.3679 192.182ZM92.4872 191.256C90.7486 191.256 89.794 189.676 89.794 187.642C89.794 185.631 90.7372 184.074 92.4872 184.074C94.1918 184.074 95.1577 185.551 95.1577 187.642C95.1577 189.75 94.1804 191.256 92.4872 191.256ZM103.749 192H104.811V186.653H109.953V185.699H104.811V181.318H110.482V180.364H103.749V192ZM115.665 192.182C117.926 192.182 119.506 190.335 119.506 187.676C119.506 185 117.926 183.153 115.665 183.153C113.403 183.153 111.824 185 111.824 187.676C111.824 190.335 113.403 192.182 115.665 192.182ZM115.665 191.256C113.852 191.256 112.841 189.631 112.841 187.676C112.841 185.722 113.852 184.074 115.665 184.074C117.477 184.074 118.489 185.722 118.489 187.676C118.489 189.631 117.477 191.256 115.665 191.256ZM127.271 188.665C127.271 190.267 126.067 191.131 124.885 191.131C123.624 191.131 122.737 190.227 122.737 188.864V183.273H121.726V188.926C121.726 190.994 122.919 192.114 124.595 192.114C125.874 192.114 126.783 191.449 127.192 190.551H127.271V192H128.283V183.273H127.271V188.665ZM131.972 186.545C131.972 185.023 132.972 184.085 134.347 184.085C135.688 184.085 136.551 184.983 136.551 186.409V192H137.562V186.347C137.562 184.278 136.364 183.159 134.602 183.159C133.324 183.159 132.443 183.75 132.034 184.642H131.943V183.273H130.96V192H131.972V186.545ZM143.368 192.182C144.953 192.182 145.692 191.176 146.05 190.381H146.169V192H147.158V180.364H146.141V184.938H146.05C145.703 184.153 144.982 183.153 143.385 183.153C141.232 183.153 139.777 184.972 139.777 187.659C139.777 190.369 141.226 192.182 143.368 192.182ZM143.487 191.256C141.749 191.256 140.794 189.676 140.794 187.642C140.794 185.631 141.737 184.074 143.487 184.074C145.192 184.074 146.158 185.551 146.158 187.642C146.158 189.75 145.18 191.256 143.487 191.256ZM153.567 192.182C155.317 192.182 156.493 191.233 156.891 190.136L155.93 189.824C155.595 190.608 154.805 191.256 153.567 191.256C151.783 191.256 150.652 189.955 150.607 187.938H157.107V187.438C157.107 184.523 155.305 183.153 153.413 183.153C151.152 183.153 149.589 185.045 149.589 187.688C149.589 190.335 151.124 192.182 153.567 192.182ZM150.612 187.045C150.72 185.42 151.817 184.074 153.413 184.074C154.976 184.074 156.072 185.364 156.072 187.045H150.612ZM159.335 192H160.347V186.364C160.347 185.068 161.341 184.131 162.705 184.131C162.972 184.131 163.222 184.176 163.312 184.188V183.159C163.176 183.153 162.943 183.142 162.778 183.142C161.682 183.142 160.744 183.733 160.392 184.614H160.318V183.273H159.335V192ZM171.976 192.199C173.43 192.199 174.317 191.392 174.68 190.619H174.743V192H175.754V186.074C175.754 183.733 173.993 183.153 172.658 183.153C171.322 183.153 169.947 183.682 169.357 185.108L170.317 185.455C170.635 184.705 171.425 184.062 172.686 184.062C174.01 184.062 174.743 184.79 174.743 185.983V186.188C174.743 186.847 173.925 186.858 172.459 187.04C170.487 187.284 169.107 187.835 169.107 189.562C169.107 191.244 170.391 192.199 171.976 192.199ZM172.112 191.273C170.97 191.273 170.118 190.665 170.118 189.608C170.118 188.551 170.982 188.108 172.459 187.926C173.175 187.841 174.447 187.682 174.743 187.392V188.653C174.743 190.085 173.726 191.273 172.112 191.273ZM181.882 183.273H180.036V181.182H179.018V183.273H177.717V184.153H179.018V189.96C179.018 191.386 180.143 192.131 181.263 192.131C181.683 192.131 181.967 192.051 182.161 191.977L181.945 191.062C181.803 191.102 181.621 191.142 181.354 191.142C180.666 191.142 180.036 190.818 180.036 189.722V184.153H181.882V183.273ZM188.889 192H189.952V187.551H192.662C195.122 187.551 196.395 185.989 196.395 183.955C196.395 181.92 195.122 180.364 192.645 180.364H188.889V192ZM189.952 186.597V181.318H192.616C194.457 181.318 195.349 182.426 195.349 183.955C195.349 185.477 194.457 186.597 192.634 186.597H189.952ZM198.69 192H199.707V183.273H198.69V192ZM199.207 181.773C199.622 181.773 199.969 181.443 199.969 181.045C199.969 180.648 199.622 180.318 199.207 180.318C198.793 180.318 198.452 180.648 198.452 181.045C198.452 181.443 198.793 181.773 199.207 181.773ZM205.911 192.182C207.661 192.182 208.837 191.233 209.234 190.136L208.274 189.824C207.939 190.608 207.149 191.256 205.911 191.256C204.126 191.256 202.996 189.955 202.95 187.938H209.45V187.438C209.45 184.523 207.649 183.153 205.757 183.153C203.496 183.153 201.933 185.045 201.933 187.688C201.933 190.335 203.467 192.182 205.911 192.182ZM202.956 187.045C203.064 185.42 204.161 184.074 205.757 184.074C207.32 184.074 208.416 185.364 208.416 187.045H202.956ZM214.821 192.182C216.406 192.182 217.145 191.176 217.503 190.381H217.622V192H218.611V180.364H217.594V184.938H217.503C217.156 184.153 216.435 183.153 214.838 183.153C212.685 183.153 211.23 184.972 211.23 187.659C211.23 190.369 212.679 192.182 214.821 192.182ZM214.94 191.256C213.202 191.256 212.247 189.676 212.247 187.642C212.247 185.631 213.19 184.074 214.94 184.074C216.645 184.074 217.611 185.551 217.611 187.642C217.611 189.75 216.634 191.256 214.94 191.256ZM226.202 192H227.264V187.551H229.974C232.435 187.551 233.707 185.989 233.707 183.955C233.707 181.92 232.435 180.364 229.957 180.364H226.202V192ZM227.264 186.597V181.318H229.929C231.77 181.318 232.662 182.426 232.662 183.955C232.662 185.477 231.77 186.597 229.946 186.597H227.264ZM236.003 192H237.02V183.273H236.003V192ZM236.52 181.773C236.935 181.773 237.281 181.443 237.281 181.045C237.281 180.648 236.935 180.318 236.52 180.318C236.105 180.318 235.764 180.648 235.764 181.045C235.764 181.443 236.105 181.773 236.52 181.773ZM239.678 195.273H240.695V190.381H240.786C241.132 191.182 241.882 192.182 243.467 192.182C245.604 192.182 247.058 190.364 247.058 187.659C247.058 184.966 245.609 183.153 243.45 183.153C241.848 183.153 241.138 184.153 240.786 184.938H240.661V183.273H239.678V195.273ZM240.678 187.642C240.678 185.551 241.638 184.074 243.342 184.074C245.098 184.074 246.041 185.631 246.041 187.642C246.041 189.676 245.081 191.256 243.342 191.256C241.655 191.256 240.678 189.75 240.678 187.642ZM252.801 192.182C254.551 192.182 255.727 191.233 256.125 190.136L255.165 189.824C254.83 190.608 254.04 191.256 252.801 191.256C251.017 191.256 249.886 189.955 249.841 187.938H256.341V187.438C256.341 184.523 254.54 183.153 252.648 183.153C250.386 183.153 248.824 185.045 248.824 187.688C248.824 190.335 250.358 192.182 252.801 192.182ZM249.847 187.045C249.955 185.42 251.051 184.074 252.648 184.074C254.21 184.074 255.307 185.364 255.307 187.045H249.847ZM258.57 192H259.581V186.364C259.581 185.068 260.575 184.131 261.939 184.131C262.206 184.131 262.456 184.176 262.547 184.188V183.159C262.411 183.153 262.178 183.142 262.013 183.142C260.916 183.142 259.979 183.733 259.626 184.614H259.553V183.273H258.57V192Z" fill="#444444"/>
<rect x="16.5" y="161.5" width="342" height="49" rx="5.5" stroke="#BBBBBB"/>
<circle cx="45" cy="252" r="13" fill="#FAFAFA"/>
<path d="M48.05 247.2V247.35H48.2H50.6C51.1967 247.35 51.769 247.587 52.191 248.009C52.6129 248.431 52.85 249.003 52.85 249.6V256.8C52.85 257.397 52.6129 257.969 52.191 258.391C51.769 258.813 51.1967 259.05 50.6 259.05H39.4C38.8033 259.05 38.231 258.813 37.809 258.391C37.3871 257.969 37.15 257.397 37.15 256.8V249.6C37.15 249.003 37.3871 248.431 37.809 248.009C38.231 247.587 38.8033 247.35 39.4 247.35H41.8H41.95V247.2V246.4C41.95 245.803 42.1871 245.231 42.609 244.809C43.031 244.387 43.6033 244.15 44.2 244.15H45.8C46.3967 244.15 46.969 244.387 47.391 244.809C47.8129 245.231 48.05 245.803 48.05 246.4V247.2ZM46.6 247.35H46.75V247.2V246.4C46.75 246.148 46.6499 245.906 46.4718 245.728C46.2936 245.55 46.052 245.45 45.8 245.45H44.2C43.948 245.45 43.7064 245.55 43.5282 245.728C43.3501 245.906 43.25 246.148 43.25 246.4V247.2V247.35H43.4H46.6ZM38.6 252.61H38.45V252.76V256.8C38.45 257.052 38.5501 257.294 38.7282 257.472C38.9064 257.65 39.148 257.75 39.4 257.75H50.6C50.852 257.75 51.0936 257.65 51.2718 257.472C51.4499 257.294 51.55 257.052 51.55 256.8V252.76V252.61H51.4H49H48.85V252.76V253.6C48.85 253.772 48.7815 253.938 48.6596 254.06C48.5377 254.182 48.3724 254.25 48.2 254.25C48.0276 254.25 47.8623 254.182 47.7404 254.06C47.6185 253.938 47.55 253.772 47.55 253.6V252.76V252.61H47.4H42.6H42.45V252.76V253.6C42.45 253.772 42.3815 253.938 42.2596 254.06C42.1377 254.182 41.9724 254.25 41.8 254.25C41.6276 254.25 41.4623 254.182 41.3404 254.06C41.2185 253.938 41.15 253.772 41.15 253.6V252.76V252.61H41H38.6ZM51.4 251.35H51.55V251.2V249.6C51.55 249.348 51.4499 249.106 51.2718 248.928C51.0936 248.75 50.852 248.65 50.6 248.65H39.4C39.148 248.65 38.9064 248.75 38.7282 248.928C38.5501 249.106 38.45 249.348 38.45 249.6V251.2V251.35H38.6H51.4Z" fill="#444444" stroke="#FAFAFA" stroke-width="0.3"/>
<path d="M77.8636 249.273H78.892C78.8125 247.506 77.2841 246.199 75.1193 246.199C72.9716 246.199 71.3182 247.489 71.3182 249.364C71.3182 250.858 72.375 251.795 74.1989 252.335L75.5909 252.744C77.0341 253.165 78.0227 253.705 78.0227 254.892C78.0227 256.29 76.7557 257.227 75.017 257.227C73.4489 257.227 72.2216 256.472 72.108 255.091H71.017C71.142 256.932 72.642 258.199 75.017 258.199C77.5398 258.199 79.0511 256.773 79.0511 254.909C79.0511 252.977 77.3693 252.205 75.892 251.79L74.6648 251.438C73.5341 251.119 72.3466 250.545 72.3466 249.318C72.3466 248.068 73.4659 247.153 75.0909 247.153C76.6307 247.153 77.733 247.977 77.8636 249.273ZM84.7898 258.182C87.0511 258.182 88.6307 256.335 88.6307 253.676C88.6307 251 87.0511 249.153 84.7898 249.153C82.5284 249.153 80.9489 251 80.9489 253.676C80.9489 256.335 82.5284 258.182 84.7898 258.182ZM84.7898 257.256C82.9773 257.256 81.9659 255.631 81.9659 253.676C81.9659 251.722 82.9773 250.074 84.7898 250.074C86.6023 250.074 87.6136 251.722 87.6136 253.676C87.6136 255.631 86.6023 257.256 84.7898 257.256ZM94.4418 249.273H92.5099V248.205C92.5099 247.29 93.0043 246.778 93.8849 246.778C94.2202 246.778 94.4247 246.852 94.5781 246.903L94.8736 246.017C94.669 245.932 94.3281 245.824 93.794 245.824C92.6065 245.824 91.4929 246.585 91.4929 247.994V249.273H90.152V250.153H91.4929V258H92.5043L92.5099 250.153H94.4418V249.273ZM99.8977 249.273H98.0511V247.182H97.0341V249.273H95.733V250.153H97.0341V255.96C97.0341 257.386 98.1591 258.131 99.2784 258.131C99.6989 258.131 99.983 258.051 100.176 257.977L99.9602 257.062C99.8182 257.102 99.6364 257.142 99.3693 257.142C98.6818 257.142 98.0511 256.818 98.0511 255.722V250.153H99.8977V249.273ZM104.132 258H105.178L107.246 250.847H107.354L109.422 258H110.467L113.104 249.273H112.036L109.967 256.455H109.888L107.842 249.273H106.768L104.706 256.472H104.632L102.564 249.273H101.496L104.132 258ZM117.507 258.199C118.962 258.199 119.848 257.392 120.212 256.619H120.274V258H121.286V252.074C121.286 249.733 119.524 249.153 118.189 249.153C116.854 249.153 115.479 249.682 114.888 251.108L115.848 251.455C116.166 250.705 116.956 250.062 118.217 250.062C119.541 250.062 120.274 250.79 120.274 251.983V252.188C120.274 252.847 119.456 252.858 117.99 253.04C116.018 253.284 114.638 253.835 114.638 255.562C114.638 257.244 115.922 258.199 117.507 258.199ZM117.643 257.273C116.501 257.273 115.649 256.665 115.649 255.608C115.649 254.551 116.513 254.108 117.99 253.926C118.706 253.841 119.979 253.682 120.274 253.392V254.653C120.274 256.085 119.257 257.273 117.643 257.273ZM123.976 258H124.987V252.364C124.987 251.068 125.982 250.131 127.345 250.131C127.612 250.131 127.862 250.176 127.953 250.188V249.159C127.817 249.153 127.584 249.142 127.419 249.142C126.322 249.142 125.385 249.733 125.033 250.614H124.959V249.273H123.976V258ZM132.942 258.182C134.692 258.182 135.868 257.233 136.266 256.136L135.305 255.824C134.97 256.608 134.18 257.256 132.942 257.256C131.158 257.256 130.027 255.955 129.982 253.938H136.482V253.438C136.482 250.523 134.68 249.153 132.788 249.153C130.527 249.153 128.964 251.045 128.964 253.688C128.964 256.335 130.499 258.182 132.942 258.182ZM129.987 253.045C130.095 251.42 131.192 250.074 132.788 250.074C134.351 250.074 135.447 251.364 135.447 253.045H129.987ZM143.42 258H150.284V257.045H144.483V252.653H149.812V251.699H144.483V247.318H150.17V246.364H143.42V258ZM153.722 252.545C153.722 251.023 154.722 250.085 156.097 250.085C157.438 250.085 158.301 250.983 158.301 252.409V258H159.312V252.347C159.312 250.278 158.114 249.159 156.352 249.159C155.074 249.159 154.193 249.75 153.784 250.642H153.693V249.273H152.71V258H153.722V252.545ZM165.305 261.455C167.374 261.455 168.908 260.443 168.908 258.227V249.273H167.919V250.938H167.817C167.459 250.153 166.737 249.153 165.135 249.153C162.976 249.153 161.527 250.96 161.527 253.614C161.527 256.29 163.027 257.909 165.118 257.909C166.686 257.909 167.453 257 167.8 256.199H167.891V258.165C167.891 259.79 166.851 260.545 165.305 260.545C163.811 260.545 163.095 259.824 162.726 259.159L161.896 259.705C162.408 260.705 163.521 261.455 165.305 261.455ZM165.237 256.983C163.504 256.983 162.544 255.597 162.544 253.597C162.544 251.631 163.487 250.074 165.237 250.074C166.947 250.074 167.908 251.551 167.908 253.597C167.908 255.705 166.919 256.983 165.237 256.983ZM171.597 258H172.614V249.273H171.597V258ZM172.114 247.773C172.528 247.773 172.875 247.443 172.875 247.045C172.875 246.648 172.528 246.318 172.114 246.318C171.699 246.318 171.358 246.648 171.358 247.045C171.358 247.443 171.699 247.773 172.114 247.773ZM176.3 252.545C176.3 251.023 177.3 250.085 178.675 250.085C180.016 250.085 180.879 250.983 180.879 252.409V258H181.891V252.347C181.891 250.278 180.692 249.159 178.93 249.159C177.652 249.159 176.771 249.75 176.362 250.642H176.271V249.273H175.288V258H176.3V252.545ZM188.082 258.182C189.832 258.182 191.009 257.233 191.406 256.136L190.446 255.824C190.111 256.608 189.321 257.256 188.082 257.256C186.298 257.256 185.168 255.955 185.122 253.938H191.622V253.438C191.622 250.523 189.821 249.153 187.929 249.153C185.668 249.153 184.105 251.045 184.105 253.688C184.105 256.335 185.639 258.182 188.082 258.182ZM185.128 253.045C185.236 251.42 186.332 250.074 187.929 250.074C189.491 250.074 190.588 251.364 190.588 253.045H185.128ZM197.379 258.182C199.129 258.182 200.305 257.233 200.703 256.136L199.743 255.824C199.408 256.608 198.618 257.256 197.379 257.256C195.595 257.256 194.464 255.955 194.419 253.938H200.919V253.438C200.919 250.523 199.118 249.153 197.226 249.153C194.964 249.153 193.402 251.045 193.402 253.688C193.402 256.335 194.936 258.182 197.379 258.182ZM194.425 253.045C194.533 251.42 195.629 250.074 197.226 250.074C198.788 250.074 199.885 251.364 199.885 253.045H194.425ZM203.148 258H204.159V252.364C204.159 251.068 205.153 250.131 206.517 250.131C206.784 250.131 207.034 250.176 207.125 250.188V249.159C206.989 249.153 206.756 249.142 206.591 249.142C205.494 249.142 204.557 249.733 204.205 250.614H204.131V249.273H203.148V258Z" fill="#444444"/>
<rect x="16.5" y="227.5" width="342" height="49" rx="5.5" stroke="#BBBBBB"/>
<circle cx="45" cy="318" r="13" fill="#FAFAFA"/>
<path d="M37 314.71V325.222H53V311L47.24 314.71V311L41.736 314.71V311L37 314.71Z" stroke="#444444" stroke-linecap="round" stroke-linejoin="round"/>
<path d="M41.0178 317.754V318.749H40.4489H39.88V317.754H41.0178Z" fill="#444444"/>
<path d="M41.0178 321.418V322.414H40.4489H39.88V321.418H41.0178Z" fill="#444444"/>
<path d="M43.9334 317.754V318.749H43.3645H42.7956V317.754H43.9334Z" fill="#444444"/>
<path d="M43.9334 321.418V322.414H43.3645H42.7956V321.418H43.9334Z" fill="#444444"/>
<path d="M46.8489 317.754V318.749H46.28H45.7111V317.754H46.8489Z" fill="#444444"/>
<path d="M46.8489 321.418V322.414H46.28H45.7111V321.418H46.8489Z" fill="#444444"/>
<path d="M49.7644 317.754V318.749H49.1955H48.6266V317.754H49.7644Z" fill="#444444"/>
<path d="M49.7644 321.418V322.414H49.1955H48.6266V321.418H49.7644Z" fill="#444444"/>
<path d="M76.6591 316C76.2784 313.858 74.5284 312.205 72.0511 312.205C69.1136 312.205 67.0227 314.54 67.0227 318.182C67.0227 321.824 69.1136 324.159 72.0511 324.159C74.5284 324.159 76.2784 322.5 76.6591 320.364H75.5909C75.267 321.96 73.875 323.159 72.0511 323.159C69.8466 323.159 68.0511 321.415 68.0511 318.182C68.0511 314.96 69.8466 313.205 72.0511 313.205C73.875 313.205 75.267 314.409 75.5909 316H76.6591ZM82.3366 324.182C84.598 324.182 86.1776 322.335 86.1776 319.676C86.1776 317 84.598 315.153 82.3366 315.153C80.0753 315.153 78.4957 317 78.4957 319.676C78.4957 322.335 80.0753 324.182 82.3366 324.182ZM82.3366 323.256C80.5241 323.256 79.5128 321.631 79.5128 319.676C79.5128 317.722 80.5241 316.074 82.3366 316.074C84.1491 316.074 85.1605 317.722 85.1605 319.676C85.1605 321.631 84.1491 323.256 82.3366 323.256ZM88.3977 324H89.4091V318.409C89.4091 317.051 90.3125 316.085 91.5227 316.085C92.7159 316.085 93.4091 316.881 93.4091 318.062V324H94.4432V318.256C94.4432 317 95.1932 316.085 96.5227 316.085C97.6761 316.085 98.4432 316.778 98.4432 318.153V324H99.4545V318.153C99.4545 316.199 98.4489 315.159 96.8295 315.159C95.5568 315.159 94.6364 315.778 94.2443 316.744H94.1705C93.7841 315.756 93.017 315.159 91.8125 315.159C90.6705 315.159 89.8182 315.71 89.4716 316.614H89.3807V315.273H88.3977V324ZM102.115 327.273H103.132V322.381H103.223C103.57 323.182 104.32 324.182 105.905 324.182C108.041 324.182 109.496 322.364 109.496 319.659C109.496 316.966 108.047 315.153 105.888 315.153C104.286 315.153 103.575 316.153 103.223 316.938H103.098V315.273H102.115V327.273ZM103.115 319.642C103.115 317.551 104.075 316.074 105.78 316.074C107.536 316.074 108.479 317.631 108.479 319.642C108.479 321.676 107.518 323.256 105.78 323.256C104.092 323.256 103.115 321.75 103.115 319.642ZM117.256 320.665C117.256 322.267 116.051 323.131 114.869 323.131C113.608 323.131 112.722 322.227 112.722 320.864V315.273H111.71V320.926C111.71 322.994 112.903 324.114 114.58 324.114C115.858 324.114 116.767 323.449 117.176 322.551H117.256V324H118.267V315.273H117.256V320.665ZM124.382 315.273H122.536V313.182H121.518V315.273H120.217V316.153H121.518V321.96C121.518 323.386 122.643 324.131 123.763 324.131C124.183 324.131 124.467 324.051 124.661 323.977L124.445 323.062C124.303 323.102 124.121 323.142 123.854 323.142C123.166 323.142 122.536 322.818 122.536 321.722V316.153H124.382V315.273ZM130.114 324.182C131.864 324.182 133.04 323.233 133.438 322.136L132.477 321.824C132.142 322.608 131.352 323.256 130.114 323.256C128.33 323.256 127.199 321.955 127.153 319.938H133.653V319.438C133.653 316.523 131.852 315.153 129.96 315.153C127.699 315.153 126.136 317.045 126.136 319.688C126.136 322.335 127.67 324.182 130.114 324.182ZM127.159 319.045C127.267 317.42 128.364 316.074 129.96 316.074C131.523 316.074 132.619 317.364 132.619 319.045H127.159ZM135.882 324H136.893V318.364C136.893 317.068 137.888 316.131 139.251 316.131C139.518 316.131 139.768 316.176 139.859 316.188V315.159C139.723 315.153 139.49 315.142 139.325 315.142C138.229 315.142 137.291 315.733 136.939 316.614H136.865V315.273H135.882V324ZM152.614 315.273H153.642C153.562 313.506 152.034 312.199 149.869 312.199C147.722 312.199 146.068 313.489 146.068 315.364C146.068 316.858 147.125 317.795 148.949 318.335L150.341 318.744C151.784 319.165 152.773 319.705 152.773 320.892C152.773 322.29 151.506 323.227 149.767 323.227C148.199 323.227 146.972 322.472 146.858 321.091H145.767C145.892 322.932 147.392 324.199 149.767 324.199C152.29 324.199 153.801 322.773 153.801 320.909C153.801 318.977 152.119 318.205 150.642 317.79L149.415 317.438C148.284 317.119 147.097 316.545 147.097 315.318C147.097 314.068 148.216 313.153 149.841 313.153C151.381 313.153 152.483 313.977 152.614 315.273ZM159.54 324.182C161.801 324.182 163.381 322.335 163.381 319.676C163.381 317 161.801 315.153 159.54 315.153C157.278 315.153 155.699 317 155.699 319.676C155.699 322.335 157.278 324.182 159.54 324.182ZM159.54 323.256C157.727 323.256 156.716 321.631 156.716 319.676C156.716 317.722 157.727 316.074 159.54 316.074C161.352 316.074 162.364 317.722 162.364 319.676C162.364 321.631 161.352 323.256 159.54 323.256ZM169.192 315.273H167.26V314.205C167.26 313.29 167.754 312.778 168.635 312.778C168.97 312.778 169.175 312.852 169.328 312.903L169.624 312.017C169.419 311.932 169.078 311.824 168.544 311.824C167.357 311.824 166.243 312.585 166.243 313.994V315.273H164.902V316.153H166.243V324H167.254L167.26 316.153H169.192V315.273ZM174.648 315.273H172.801V313.182H171.784V315.273H170.483V316.153H171.784V321.96C171.784 323.386 172.909 324.131 174.028 324.131C174.449 324.131 174.733 324.051 174.926 323.977L174.71 323.062C174.568 323.102 174.386 323.142 174.119 323.142C173.432 323.142 172.801 322.818 172.801 321.722V316.153H174.648V315.273ZM178.882 324H179.928L181.996 316.847H182.104L184.172 324H185.217L187.854 315.273H186.786L184.717 322.455H184.638L182.592 315.273H181.518L179.456 322.472H179.382L177.314 315.273H176.246L178.882 324ZM192.257 324.199C193.712 324.199 194.598 323.392 194.962 322.619H195.024V324H196.036V318.074C196.036 315.733 194.274 315.153 192.939 315.153C191.604 315.153 190.229 315.682 189.638 317.108L190.598 317.455C190.916 316.705 191.706 316.062 192.967 316.062C194.291 316.062 195.024 316.79 195.024 317.983V318.188C195.024 318.847 194.206 318.858 192.74 319.04C190.768 319.284 189.388 319.835 189.388 321.562C189.388 323.244 190.672 324.199 192.257 324.199ZM192.393 323.273C191.251 323.273 190.399 322.665 190.399 321.608C190.399 320.551 191.263 320.108 192.74 319.926C193.456 319.841 194.729 319.682 195.024 319.392V320.653C195.024 322.085 194.007 323.273 192.393 323.273ZM198.726 324H199.737V318.364C199.737 317.068 200.732 316.131 202.095 316.131C202.362 316.131 202.612 316.176 202.703 316.188V315.159C202.567 315.153 202.334 315.142 202.169 315.142C201.072 315.142 200.135 315.733 199.783 316.614H199.709V315.273H198.726V324ZM207.692 324.182C209.442 324.182 210.618 323.233 211.016 322.136L210.055 321.824C209.72 322.608 208.93 323.256 207.692 323.256C205.908 323.256 204.777 321.955 204.732 319.938H211.232V319.438C211.232 316.523 209.43 315.153 207.538 315.153C205.277 315.153 203.714 317.045 203.714 319.688C203.714 322.335 205.249 324.182 207.692 324.182ZM204.737 319.045C204.845 317.42 205.942 316.074 207.538 316.074C209.101 316.074 210.197 317.364 210.197 319.045H204.737Z" fill="#444444"/>
<path d="M327 314.5L334 321.5L341 314.5" stroke="#BBBBBB" stroke-width="3" stroke-linecap="round" stroke-linejoin="round"/>
<rect x="16.5" y="293.5" width="342" height="49" rx="5.5" stroke="#BBBBBB"/>
<path opacity="0.5" d="M16 383H359" stroke="#DDDDDD" stroke-linecap="round"/>
<path d="M19.9631 446L21.4034 441.696H27.9659L29.4148 446H32.7898L26.6364 428.545H22.733L16.5881 446H19.9631ZM22.2557 439.156L24.6165 432.125H24.7528L27.1136 439.156H22.2557ZM39.7842 446.256C43.074 446.256 45.1706 444.304 45.3922 441.526H42.4433C42.1791 442.932 41.1649 443.741 39.8098 443.741C37.8836 443.741 36.6393 442.131 36.6393 439.455C36.6393 436.812 37.9092 435.227 39.8098 435.227C41.2927 435.227 42.2047 436.182 42.4433 437.443H45.3922C45.1791 434.605 42.9632 432.739 39.7672 432.739C35.9319 432.739 33.5115 435.509 33.5115 439.506C33.5115 443.469 35.8723 446.256 39.7842 446.256ZM53.1558 446.256C56.4455 446.256 58.5421 444.304 58.7637 441.526H55.8149C55.5507 442.932 54.5364 443.741 53.1813 443.741C51.2552 443.741 50.0109 442.131 50.0109 439.455C50.0109 436.812 51.2808 435.227 53.1813 435.227C54.6643 435.227 55.5762 436.182 55.8149 437.443H58.7637C58.5507 434.605 56.3347 432.739 53.1387 432.739C49.3035 432.739 46.883 435.509 46.883 439.506C46.883 443.469 49.2438 446.256 53.1558 446.256ZM66.5273 446.256C70.3626 446.256 72.8001 443.554 72.8001 439.506C72.8001 435.449 70.3626 432.739 66.5273 432.739C62.6921 432.739 60.2546 435.449 60.2546 439.506C60.2546 443.554 62.6921 446.256 66.5273 446.256ZM66.5444 443.784C64.4222 443.784 63.3824 441.892 63.3824 439.497C63.3824 437.102 64.4222 435.185 66.5444 435.185C68.6324 435.185 69.6722 437.102 69.6722 439.497C69.6722 441.892 68.6324 443.784 66.5444 443.784ZM83.2824 440.494C83.2824 442.489 81.8591 443.477 80.4955 443.477C79.0125 443.477 78.0239 442.429 78.0239 440.767V432.909H74.9387V441.244C74.9387 444.389 76.7284 446.17 79.3023 446.17C81.2625 446.17 82.6432 445.139 83.2398 443.673H83.3762V446H86.3676V432.909H83.2824V440.494ZM92.1455 438.33C92.1455 436.438 93.2875 435.347 94.9153 435.347C96.5091 435.347 97.4636 436.395 97.4636 438.142V446H100.549V437.665C100.557 434.528 98.7676 432.739 96.0659 432.739C94.1057 432.739 92.7591 433.676 92.1625 435.134H92.0091V432.909H89.0602V446H92.1455V438.33ZM109.742 432.909H107.16V429.773H104.075V432.909H102.217V435.295H104.075V442.574C104.058 445.037 105.847 446.247 108.165 446.179C109.043 446.153 109.648 445.983 109.981 445.872L109.461 443.46C109.29 443.503 108.941 443.58 108.558 443.58C107.782 443.58 107.16 443.307 107.16 442.062V435.295H109.742V432.909Z" fill="#333333"/>
<g opacity="0.5">
<circle cx="45" cy="501" r="13" fill="#FAFAFA"/>
<path fill-rule="evenodd" clip-rule="evenodd" d="M51.2222 495.889H38.7778C38.2869 495.889 37.8889 496.287 37.8889 496.778V505.444C37.8889 505.935 38.2869 506.333 38.7778 506.333H51.2222C51.7131 506.333 52.1111 505.935 52.1111 505.444V496.778C52.1111 496.287 51.7131 495.889 51.2222 495.889ZM38.7778 495C37.7959 495 37 495.796 37 496.778V505.444C37 506.426 37.7959 507.222 38.7778 507.222H51.2222C52.2041 507.222 53 506.426 53 505.444V496.778C53 495.796 52.2041 495 51.2222 495H38.7778Z" fill="#444444" stroke="#444444" stroke-width="0.1"/>
<path fill-rule="evenodd" clip-rule="evenodd" d="M51.2192 496.592C51.3834 496.775 51.3687 497.056 51.1862 497.22L47.0993 500.898L51.0837 504.678C51.2617 504.847 51.2691 505.129 51.1002 505.307C50.9313 505.485 50.65 505.492 50.4719 505.323L46.4403 501.498L45.3015 502.55C45.1312 502.707 44.8688 502.707 44.6985 502.55L43.5636 501.502L39.7544 505.208C39.5784 505.379 39.2971 505.376 39.1259 505.2C38.9547 505.024 38.9586 504.742 39.1345 504.571L42.9095 500.898L38.9208 497.216C38.7404 497.05 38.7291 496.769 38.8956 496.588C39.0621 496.408 39.3433 496.397 39.5237 496.563L45 501.618L46.143 500.563L46.1471 500.559L50.5916 496.559C50.774 496.395 51.055 496.41 51.2192 496.592Z" fill="#444444" stroke="#444444" stroke-width="0.1" stroke-linecap="round" stroke-linejoin="round"/>
</g>
<path opacity="0.5" d="M71.3352 507H72.3466V501.364C72.3466 500.068 73.3409 499.131 74.7045 499.131C74.9716 499.131 75.2216 499.176 75.3125 499.188V498.159C75.1761 498.153 74.9432 498.142 74.7784 498.142C73.6818 498.142 72.7443 498.733 72.392 499.614H72.3182V498.273H71.3352V507ZM77.0497 507H78.0668V498.273H77.0497V507ZM77.5668 496.773C77.9815 496.773 78.3281 496.443 78.3281 496.045C78.3281 495.648 77.9815 495.318 77.5668 495.318C77.152 495.318 76.8111 495.648 76.8111 496.045C76.8111 496.443 77.152 496.773 77.5668 496.773ZM84.1506 507.182C85.9688 507.182 87.2472 506.034 87.4801 504.455H86.4574C86.2244 505.568 85.3097 506.256 84.1506 506.256C82.4403 506.256 81.3097 504.767 81.3097 502.642C81.3097 500.528 82.4744 499.074 84.1506 499.074C85.3949 499.074 86.2358 499.875 86.4517 500.864H87.4744C87.2358 499.244 85.8835 498.153 84.1335 498.153C81.8494 498.153 80.2926 500.051 80.2926 502.676C80.2926 505.278 81.804 507.182 84.1506 507.182ZM90.6591 501.545C90.6591 500.023 91.6818 499.085 93.0795 499.085C94.4318 499.085 95.2955 499.972 95.2955 501.409V507H96.3125V501.347C96.3125 499.267 95.108 498.159 93.3352 498.159C92.017 498.159 91.1591 498.739 90.75 499.642H90.6591V495.364H89.6477V507H90.6591V501.545ZM101.413 507.199C102.868 507.199 103.754 506.392 104.118 505.619H104.18V507H105.192V501.074C105.192 498.733 103.43 498.153 102.095 498.153C100.76 498.153 99.3849 498.682 98.794 500.108L99.7543 500.455C100.072 499.705 100.862 499.062 102.124 499.062C103.447 499.062 104.18 499.79 104.18 500.983V501.188C104.18 501.847 103.362 501.858 101.896 502.04C99.9247 502.284 98.544 502.835 98.544 504.562C98.544 506.244 99.8281 507.199 101.413 507.199ZM101.55 506.273C100.408 506.273 99.5554 505.665 99.5554 504.608C99.5554 503.551 100.419 503.108 101.896 502.926C102.612 502.841 103.885 502.682 104.18 502.392V503.653C104.18 505.085 103.163 506.273 101.55 506.273ZM107.882 507H108.893V501.364C108.893 500.068 109.888 499.131 111.251 499.131C111.518 499.131 111.768 499.176 111.859 499.188V498.159C111.723 498.153 111.49 498.142 111.325 498.142C110.229 498.142 109.291 498.733 108.939 499.614H108.865V498.273H107.882V507ZM116.462 507.182C118.047 507.182 118.786 506.176 119.143 505.381H119.263V507H120.251V495.364H119.234V499.938H119.143C118.797 499.153 118.075 498.153 116.479 498.153C114.325 498.153 112.871 499.972 112.871 502.659C112.871 505.369 114.32 507.182 116.462 507.182ZM116.581 506.256C114.842 506.256 113.888 504.676 113.888 502.642C113.888 500.631 114.831 499.074 116.581 499.074C118.286 499.074 119.251 500.551 119.251 502.642C119.251 504.75 118.274 506.256 116.581 506.256ZM124.143 501.545C124.143 500.023 125.166 499.085 126.564 499.085C127.916 499.085 128.78 499.972 128.78 501.409V507H129.797V501.347C129.797 499.267 128.592 498.159 126.82 498.159C125.501 498.159 124.643 498.739 124.234 499.642H124.143V495.364H123.132V507H124.143V501.545ZM135.989 507.182C137.739 507.182 138.915 506.233 139.312 505.136L138.352 504.824C138.017 505.608 137.227 506.256 135.989 506.256C134.205 506.256 133.074 504.955 133.028 502.938H139.528V502.438C139.528 499.523 137.727 498.153 135.835 498.153C133.574 498.153 132.011 500.045 132.011 502.688C132.011 505.335 133.545 507.182 135.989 507.182ZM133.034 502.045C133.142 500.42 134.239 499.074 135.835 499.074C137.398 499.074 138.494 500.364 138.494 502.045H133.034ZM142.768 501.545C142.768 500.023 143.768 499.085 145.143 499.085C146.484 499.085 147.348 499.983 147.348 501.409V507H148.359V501.347C148.359 499.278 147.161 498.159 145.399 498.159C144.121 498.159 143.24 498.75 142.831 499.642H142.74V498.273H141.757V507H142.768V501.545ZM154.165 507.182C155.75 507.182 156.489 506.176 156.847 505.381H156.966V507H157.955V495.364H156.938V499.938H156.847C156.5 499.153 155.778 498.153 154.182 498.153C152.028 498.153 150.574 499.972 150.574 502.659C150.574 505.369 152.023 507.182 154.165 507.182ZM154.284 506.256C152.545 506.256 151.591 504.676 151.591 502.642C151.591 500.631 152.534 499.074 154.284 499.074C155.989 499.074 156.955 500.551 156.955 502.642C156.955 504.75 155.977 506.256 154.284 506.256ZM160.835 507H161.847V501.364C161.847 500.068 162.841 499.131 164.205 499.131C164.472 499.131 164.722 499.176 164.812 499.188V498.159C164.676 498.153 164.443 498.142 164.278 498.142C163.182 498.142 162.244 498.733 161.892 499.614H161.818V498.273H160.835V507ZM166.55 507H167.567V498.273H166.55V507ZM167.067 496.773C167.482 496.773 167.828 496.443 167.828 496.045C167.828 495.648 167.482 495.318 167.067 495.318C166.652 495.318 166.311 495.648 166.311 496.045C166.311 496.443 166.652 496.773 167.067 496.773ZM173.651 507.182C175.469 507.182 176.747 506.034 176.98 504.455H175.957C175.724 505.568 174.81 506.256 173.651 506.256C171.94 506.256 170.81 504.767 170.81 502.642C170.81 500.528 171.974 499.074 173.651 499.074C174.895 499.074 175.736 499.875 175.952 500.864H176.974C176.736 499.244 175.384 498.153 173.634 498.153C171.349 498.153 169.793 500.051 169.793 502.676C169.793 505.278 171.304 507.182 173.651 507.182ZM179.148 507H180.159V503.619L181.165 502.676L184.585 507H185.881L181.92 502.011L185.653 498.273H184.375L180.284 502.381H180.159V495.364H179.148V507ZM193.418 500.188C192.991 498.926 192.06 498.153 190.463 498.153C188.702 498.153 187.423 499.159 187.423 500.597C187.423 501.767 188.134 502.562 189.651 502.926L191.077 503.267C192.037 503.494 192.497 503.989 192.497 504.688C192.497 505.597 191.628 506.273 190.287 506.273C189.094 506.273 188.349 505.733 188.105 504.699L187.134 504.938C187.44 506.392 188.594 507.182 190.304 507.182C192.224 507.182 193.543 506.125 193.543 504.642C193.543 503.477 192.81 502.699 191.349 502.341L190.031 502.017C188.946 501.744 188.44 501.307 188.44 500.551C188.44 499.665 189.287 499.045 190.463 499.045C191.639 499.045 192.219 499.665 192.491 500.449L193.418 500.188ZM202.212 510.074C203.422 510.074 204.831 509.71 205.666 509.256L205.376 508.46C204.763 508.795 203.49 509.227 202.24 509.227C198.484 509.227 196.155 506.767 196.155 502.938C196.155 499.159 198.513 496.636 202.058 496.636C205.626 496.636 207.712 499.341 207.712 502.29C207.712 504.636 207.189 505.869 205.95 505.869C205.268 505.869 204.967 505.403 204.967 504.608V499.341H204.041V500.369H203.984C203.695 499.653 202.757 499.108 201.598 499.182C199.859 499.301 198.518 500.801 198.518 502.864C198.518 505 199.678 506.665 201.598 506.71C202.859 506.744 203.666 506.062 204.03 505.244H204.087C204.178 506.324 205.104 506.705 205.939 506.705C208.081 506.705 208.621 504.46 208.621 502.301C208.621 498.909 206.166 495.801 202.104 495.801C197.945 495.801 195.2 498.636 195.2 502.909C195.2 507.278 197.882 510.074 202.212 510.074ZM201.717 505.818C200.212 505.818 199.428 504.415 199.428 502.818C199.428 501.312 200.359 500.045 201.746 500.045C203.178 500.045 204.087 500.915 204.087 502.818C204.087 504.71 203.257 505.818 201.717 505.818ZM210.724 510.273H211.741V505.381H211.832C212.179 506.182 212.929 507.182 214.514 507.182C216.651 507.182 218.105 505.364 218.105 502.659C218.105 499.966 216.656 498.153 214.497 498.153C212.895 498.153 212.185 499.153 211.832 499.938H211.707V498.273H210.724V510.273ZM211.724 502.642C211.724 500.551 212.685 499.074 214.389 499.074C216.145 499.074 217.088 500.631 217.088 502.642C217.088 504.676 216.128 506.256 214.389 506.256C212.702 506.256 211.724 504.75 211.724 502.642ZM220.331 507H221.348V498.273H220.331V507ZM220.848 496.773C221.263 496.773 221.609 496.443 221.609 496.045C221.609 495.648 221.263 495.318 220.848 495.318C220.433 495.318 220.092 495.648 220.092 496.045C220.092 496.443 220.433 496.773 220.848 496.773ZM227.551 507.182C229.301 507.182 230.477 506.233 230.875 505.136L229.915 504.824C229.58 505.608 228.79 506.256 227.551 506.256C225.767 506.256 224.636 504.955 224.591 502.938H231.091V502.438C231.091 499.523 229.29 498.153 227.398 498.153C225.136 498.153 223.574 500.045 223.574 502.688C223.574 505.335 225.108 507.182 227.551 507.182ZM224.597 502.045C224.705 500.42 225.801 499.074 227.398 499.074C228.96 499.074 230.057 500.364 230.057 502.045H224.597ZM236.462 507.182C238.047 507.182 238.786 506.176 239.143 505.381H239.263V507H240.251V495.364H239.234V499.938H239.143C238.797 499.153 238.075 498.153 236.479 498.153C234.325 498.153 232.871 499.972 232.871 502.659C232.871 505.369 234.32 507.182 236.462 507.182ZM236.581 506.256C234.842 506.256 233.888 504.676 233.888 502.642C233.888 500.631 234.831 499.074 236.581 499.074C238.286 499.074 239.251 500.551 239.251 502.642C239.251 504.75 238.274 506.256 236.581 506.256ZM243.115 510.273H244.132V505.381H244.223C244.57 506.182 245.32 507.182 246.905 507.182C249.041 507.182 250.496 505.364 250.496 502.659C250.496 499.966 249.047 498.153 246.888 498.153C245.286 498.153 244.575 499.153 244.223 499.938H244.098V498.273H243.115V510.273ZM244.115 502.642C244.115 500.551 245.075 499.074 246.78 499.074C248.536 499.074 249.479 500.631 249.479 502.642C249.479 504.676 248.518 506.256 246.78 506.256C245.092 506.256 244.115 504.75 244.115 502.642ZM252.722 507H253.739V498.273H252.722V507ZM253.239 496.773C253.653 496.773 254 496.443 254 496.045C254 495.648 253.653 495.318 253.239 495.318C252.824 495.318 252.483 495.648 252.483 496.045C252.483 496.443 252.824 496.773 253.239 496.773ZM256.396 510.273H257.413V505.381H257.504C257.851 506.182 258.601 507.182 260.186 507.182C262.322 507.182 263.777 505.364 263.777 502.659C263.777 499.966 262.328 498.153 260.169 498.153C258.567 498.153 257.857 499.153 257.504 499.938H257.379V498.273H256.396V510.273ZM257.396 502.642C257.396 500.551 258.357 499.074 260.061 499.074C261.817 499.074 262.76 500.631 262.76 502.642C262.76 504.676 261.8 506.256 260.061 506.256C258.374 506.256 257.396 504.75 257.396 502.642ZM269.52 507.182C271.27 507.182 272.446 506.233 272.844 505.136L271.884 504.824C271.548 505.608 270.759 506.256 269.52 506.256C267.736 506.256 266.605 504.955 266.56 502.938H273.06V502.438C273.06 499.523 271.259 498.153 269.366 498.153C267.105 498.153 265.543 500.045 265.543 502.688C265.543 505.335 267.077 507.182 269.52 507.182ZM266.565 502.045C266.673 500.42 267.77 499.074 269.366 499.074C270.929 499.074 272.026 500.364 272.026 502.045H266.565ZM275.288 507H276.3V501.364C276.3 500.068 277.294 499.131 278.658 499.131C278.925 499.131 279.175 499.176 279.266 499.188V498.159C279.129 498.153 278.896 498.142 278.732 498.142C277.635 498.142 276.697 498.733 276.345 499.614H276.271V498.273H275.288V507ZM280.798 507.085C281.253 507.085 281.616 506.716 281.616 506.267C281.616 505.812 281.253 505.449 280.798 505.449C280.349 505.449 279.98 505.812 279.98 506.267C279.98 506.716 280.349 507.085 280.798 507.085ZM287.697 507.182C289.516 507.182 290.794 506.034 291.027 504.455H290.004C289.771 505.568 288.857 506.256 287.697 506.256C285.987 506.256 284.857 504.767 284.857 502.642C284.857 500.528 286.021 499.074 287.697 499.074C288.942 499.074 289.783 499.875 289.999 500.864H291.021C290.783 499.244 289.43 498.153 287.68 498.153C285.396 498.153 283.839 500.051 283.839 502.676C283.839 505.278 285.351 507.182 287.697 507.182ZM296.587 507.182C298.848 507.182 300.428 505.335 300.428 502.676C300.428 500 298.848 498.153 296.587 498.153C294.325 498.153 292.746 500 292.746 502.676C292.746 505.335 294.325 507.182 296.587 507.182ZM296.587 506.256C294.774 506.256 293.763 504.631 293.763 502.676C293.763 500.722 294.774 499.074 296.587 499.074C298.399 499.074 299.411 500.722 299.411 502.676C299.411 504.631 298.399 506.256 296.587 506.256ZM302.648 507H303.659V501.409C303.659 500.051 304.562 499.085 305.773 499.085C306.966 499.085 307.659 499.881 307.659 501.062V507H308.693V501.256C308.693 500 309.443 499.085 310.773 499.085C311.926 499.085 312.693 499.778 312.693 501.153V507H313.705V501.153C313.705 499.199 312.699 498.159 311.08 498.159C309.807 498.159 308.886 498.778 308.494 499.744H308.42C308.034 498.756 307.267 498.159 306.062 498.159C304.92 498.159 304.068 498.71 303.722 499.614H303.631V498.273H302.648V507Z" fill="#444444"/>
<rect x="16.5" y="476.5" width="342" height="49" rx="5.5" stroke="#BBBBBB"/>
<circle cx="45" cy="567" r="13" fill="#FAFAFA"/>
<path d="M39.4338 559.231C39.7034 558.93 40.1726 558.922 40.4522 559.214L43.7744 562.687C44.0351 562.96 44.0303 563.391 43.7636 563.658L42.4659 564.955C42.2055 565.216 42.1119 565.571 42.221 565.873C42.8531 567.621 44.3359 569.31 46.5687 569.821C46.8743 569.891 47.2088 569.764 47.4383 569.489L48.4462 568.279C48.7115 567.961 49.1949 567.944 49.4811 568.244L52.6276 571.541C52.8825 571.808 52.8837 572.228 52.6301 572.496L51.1635 574.049C50.3087 574.954 48.9825 575.276 47.8289 574.739C46.0249 573.898 43.1235 572.335 41.0781 570.175C39.0663 568.052 37.836 565.583 37.2029 564.056C36.7784 563.033 37.0461 561.9 37.7626 561.099L39.4338 559.231Z" stroke="#444444" stroke-linecap="round" stroke-linejoin="round"/>
<path d="M74.7955 561.205C72.5682 561.188 71.1136 562.932 71.1136 565C71.1136 567.188 72.7216 568.79 74.6648 568.79C75.9148 568.79 77.0227 568.114 77.5682 567.091H77.642C77.642 570.364 76.5398 572.205 74.6364 572.205C73.3125 572.205 72.4943 571.312 72.2898 570.068H71.2443C71.4602 571.903 72.7557 573.159 74.6364 573.159C77.3182 573.159 78.642 570.477 78.642 566.676C78.642 562.608 76.7273 561.222 74.7955 561.205ZM74.7955 562.159C76.2443 562.159 77.3182 563.341 77.4489 564.932C77.5625 566.46 76.3409 567.835 74.7955 567.835C73.2784 567.835 72.142 566.585 72.142 565C72.142 563.432 73.2784 562.159 74.7955 562.159ZM84.6364 561.364H83.5284L80.7784 563.188V564.29L83.5057 562.477H83.5739V573H84.6364V561.364ZM88.1705 573H95.4034V572.045H89.6477V571.972L92.5341 568.75C94.4659 566.614 95.0398 565.648 95.0398 564.358C95.0398 562.585 93.642 561.205 91.6932 561.205C89.7273 561.205 88.267 562.591 88.267 564.517H89.2841C89.2841 563.136 90.2273 562.142 91.6648 562.142C93.017 562.142 94.0398 563.028 94.0398 564.358C94.0398 565.46 93.4545 566.278 91.9716 567.949L88.1705 572.222V573ZM102.686 566.705H97.8452V567.659H102.686V566.705ZM104.639 573H111.872V572.045H106.116V571.972L109.003 568.75C110.935 566.614 111.509 565.648 111.509 564.358C111.509 562.585 110.111 561.205 108.162 561.205C106.196 561.205 104.736 562.591 104.736 564.517H105.753C105.753 563.136 106.696 562.142 108.134 562.142C109.486 562.142 110.509 563.028 110.509 564.358C110.509 565.46 109.923 566.278 108.44 567.949L104.639 572.222V573ZM114.405 573H121.638V572.045H115.882V571.972L118.768 568.75C120.7 566.614 121.274 565.648 121.274 564.358C121.274 562.585 119.876 561.205 117.928 561.205C115.962 561.205 114.501 562.591 114.501 564.517H115.518C115.518 563.136 116.462 562.142 117.899 562.142C119.251 562.142 120.274 563.028 120.274 564.358C120.274 565.46 119.689 566.278 118.206 567.949L114.405 572.222V573ZM127.949 573.159C130.131 573.159 131.722 571.75 131.722 569.886C131.722 568.409 130.812 567.324 129.33 567.028V566.955C130.551 566.591 131.324 565.602 131.324 564.273C131.324 562.608 130.017 561.205 127.972 561.205C126.023 561.205 124.466 562.455 124.42 564.273H125.449C125.483 562.972 126.608 562.142 127.96 562.142C129.364 562.142 130.29 563.034 130.29 564.318C130.29 565.676 129.205 566.545 127.699 566.545H127.017V567.5H127.699C129.54 567.5 130.676 568.472 130.676 569.886C130.676 571.227 129.545 572.205 127.938 572.205C126.455 572.205 125.295 571.364 125.239 570.091H124.165C124.222 571.903 125.79 573.159 127.949 573.159ZM138.983 566.705H134.142V567.659H138.983V566.705ZM141.017 570.5H146.449V573H147.46V570.5H149.006V569.545H147.46V561.364H146.205L141.017 569.636V570.5ZM146.449 569.545H142.205V569.472L146.369 562.812H146.449V569.545ZM155.089 573.159C157.271 573.159 158.862 571.75 158.862 569.886C158.862 568.409 157.953 567.324 156.47 567.028V566.955C157.692 566.591 158.464 565.602 158.464 564.273C158.464 562.608 157.158 561.205 155.112 561.205C153.163 561.205 151.607 562.455 151.561 564.273H152.589C152.624 562.972 153.749 562.142 155.101 562.142C156.504 562.142 157.43 563.034 157.43 564.318C157.43 565.676 156.345 566.545 154.839 566.545H154.158V567.5H154.839C156.68 567.5 157.817 568.472 157.817 569.886C157.817 571.227 156.686 572.205 155.078 572.205C153.595 572.205 152.436 571.364 152.379 570.091H151.305C151.362 571.903 152.93 573.159 155.089 573.159ZM164.964 561.364H163.857L161.107 563.188V564.29L163.834 562.477H163.902V573H164.964V561.364ZM172.112 573.159C174.561 573.159 175.999 570.949 175.999 567.182C175.999 563.432 174.55 561.205 172.112 561.205C169.675 561.205 168.226 563.432 168.226 567.182C168.226 570.949 169.663 573.159 172.112 573.159ZM172.112 572.205C170.322 572.205 169.254 570.369 169.254 567.182C169.254 564 170.328 562.142 172.112 562.142C173.896 562.142 174.97 564 174.97 567.182C174.97 570.369 173.902 572.205 172.112 572.205Z" fill="#444444"/>
<rect x="16.5" y="542.5" width="342" height="49" rx="5.5" stroke="#BBBBBB"/>
<path opacity="0.5" d="M16 632H359" stroke="#DDDDDD" stroke-linecap="round"/>
<path d="M20.0568 677.545H16.5881L22.733 695H26.6364L32.7898 677.545H29.3125L24.7784 691.284H24.5994L20.0568 677.545ZM36.8566 695.264C38.9106 695.264 40.1379 694.301 40.7004 693.202H40.8027V695H43.7686V686.239C43.7686 682.778 40.9476 681.739 38.4504 681.739C35.6976 681.739 33.5839 682.966 32.9021 685.352L35.7828 685.761C36.0896 684.866 36.9589 684.099 38.4674 684.099C39.8993 684.099 40.6834 684.832 40.6834 686.119V686.17C40.6834 687.057 39.7544 687.099 37.4447 687.347C34.9049 687.619 32.476 688.378 32.476 691.327C32.476 693.901 34.3595 695.264 36.8566 695.264ZM37.6578 692.997C36.3709 692.997 35.4504 692.409 35.4504 691.276C35.4504 690.091 36.4816 689.597 37.8623 689.401C38.672 689.29 40.2913 689.085 40.6919 688.761V690.304C40.6919 691.761 39.5157 692.997 37.6578 692.997ZM52.1011 695.256C55.3909 695.256 57.4874 693.304 57.709 690.526H54.7602C54.496 691.932 53.4818 692.741 52.1266 692.741C50.2005 692.741 48.9562 691.131 48.9562 688.455C48.9562 685.812 50.2261 684.227 52.1266 684.227C53.6096 684.227 54.5215 685.182 54.7602 686.443H57.709C57.496 683.605 55.2801 681.739 52.084 681.739C48.2488 681.739 45.8284 684.509 45.8284 688.506C45.8284 692.469 48.1891 695.256 52.1011 695.256ZM65.4726 695.256C68.7624 695.256 70.859 693.304 71.0806 690.526H68.1317C67.8675 691.932 66.8533 692.741 65.4982 692.741C63.5721 692.741 62.3278 691.131 62.3278 688.455C62.3278 685.812 63.5976 684.227 65.4982 684.227C66.9812 684.227 67.8931 685.182 68.1317 686.443H71.0806C70.8675 683.605 68.6516 681.739 65.4556 681.739C61.6204 681.739 59.1999 684.509 59.1999 688.506C59.1999 692.469 61.5607 695.256 65.4726 695.256ZM73.134 695H76.2192V681.909H73.134V695ZM74.6851 680.051C75.6652 680.051 76.4664 679.301 76.4664 678.381C76.4664 677.452 75.6652 676.702 74.6851 676.702C73.6965 676.702 72.8953 677.452 72.8953 678.381C72.8953 679.301 73.6965 680.051 74.6851 680.051ZM81.997 687.33C81.997 685.438 83.1391 684.347 84.7669 684.347C86.3607 684.347 87.3152 685.395 87.3152 687.142V695H90.4004V686.665C90.4089 683.528 88.6192 681.739 85.9175 681.739C83.9572 681.739 82.6107 682.676 82.0141 684.134H81.8607V681.909H78.9118V695H81.997V687.33ZM96.8238 695.264C98.8778 695.264 100.105 694.301 100.668 693.202H100.77V695H103.736V686.239C103.736 682.778 100.915 681.739 98.4176 681.739C95.6647 681.739 93.5511 682.966 92.8693 685.352L95.75 685.761C96.0568 684.866 96.9261 684.099 98.4346 684.099C99.8665 684.099 100.651 684.832 100.651 686.119V686.17C100.651 687.057 99.7216 687.099 97.4119 687.347C94.8721 687.619 92.4432 688.378 92.4432 691.327C92.4432 693.901 94.3267 695.264 96.8238 695.264ZM97.625 692.997C96.338 692.997 95.4176 692.409 95.4176 691.276C95.4176 690.091 96.4488 689.597 97.8295 689.401C98.6392 689.29 100.258 689.085 100.659 688.761V690.304C100.659 691.761 99.4829 692.997 97.625 692.997ZM112.895 681.909H110.313V678.773H107.227V681.909H105.369V684.295H107.227V691.574C107.21 694.037 109 695.247 111.318 695.179C112.196 695.153 112.801 694.983 113.134 694.872L112.614 692.46C112.443 692.503 112.094 692.58 111.71 692.58C110.935 692.58 110.313 692.307 110.313 691.062V684.295H112.895V681.909ZM114.995 695H118.08V681.909H114.995V695ZM116.546 680.051C117.526 680.051 118.328 679.301 118.328 678.381C118.328 677.452 117.526 676.702 116.546 676.702C115.558 676.702 114.757 677.452 114.757 678.381C114.757 679.301 115.558 680.051 116.546 680.051ZM126.483 695.256C130.318 695.256 132.756 692.554 132.756 688.506C132.756 684.449 130.318 681.739 126.483 681.739C122.648 681.739 120.211 684.449 120.211 688.506C120.211 692.554 122.648 695.256 126.483 695.256ZM126.5 692.784C124.378 692.784 123.338 690.892 123.338 688.497C123.338 686.102 124.378 684.185 126.5 684.185C128.588 684.185 129.628 686.102 129.628 688.497C129.628 690.892 128.588 692.784 126.5 692.784ZM137.98 687.33C137.98 685.438 139.122 684.347 140.75 684.347C142.343 684.347 143.298 685.395 143.298 687.142V695H146.383V686.665C146.392 683.528 144.602 681.739 141.9 681.739C139.94 681.739 138.593 682.676 137.997 684.134H137.843V681.909H134.895V695H137.98V687.33ZM164.135 682.344H167.178C167.118 679.395 164.604 677.307 160.888 677.307C157.223 677.307 154.47 679.369 154.479 682.455C154.479 684.96 156.26 686.401 159.132 687.142L161.118 687.653C163.001 688.131 164.246 688.719 164.254 690.074C164.246 691.565 162.831 692.562 160.768 692.562C158.791 692.562 157.257 691.676 157.129 689.844H154.018C154.146 693.312 156.729 695.264 160.794 695.264C164.979 695.264 167.408 693.176 167.416 690.099C167.408 687.074 164.91 685.693 162.285 685.071L160.649 684.662C159.217 684.321 157.666 683.716 157.683 682.259C157.692 680.946 158.868 679.983 160.845 679.983C162.729 679.983 163.973 680.861 164.135 682.344ZM176.156 681.909H173.573V678.773H170.488V681.909H168.63V684.295H170.488V691.574C170.471 694.037 172.261 695.247 174.579 695.179C175.457 695.153 176.062 694.983 176.394 694.872L175.874 692.46C175.704 692.503 175.354 692.58 174.971 692.58C174.195 692.58 173.573 692.307 173.573 691.062V684.295H176.156V681.909ZM182.023 695.264C184.077 695.264 185.304 694.301 185.867 693.202H185.969V695H188.935V686.239C188.935 682.778 186.114 681.739 183.617 681.739C180.864 681.739 178.75 682.966 178.068 685.352L180.949 685.761C181.256 684.866 182.125 684.099 183.634 684.099C185.066 684.099 185.85 684.832 185.85 686.119V686.17C185.85 687.057 184.921 687.099 182.611 687.347C180.071 687.619 177.642 688.378 177.642 691.327C177.642 693.901 179.526 695.264 182.023 695.264ZM182.824 692.997C181.537 692.997 180.617 692.409 180.617 691.276C180.617 690.091 181.648 689.597 183.029 689.401C183.838 689.29 185.458 689.085 185.858 688.761V690.304C185.858 691.761 184.682 692.997 182.824 692.997ZM198.094 681.909H195.512V678.773H192.426V681.909H190.568V684.295H192.426V691.574C192.409 694.037 194.199 695.247 196.517 695.179C197.395 695.153 198 694.983 198.333 694.872L197.813 692.46C197.642 692.503 197.293 692.58 196.909 692.58C196.134 692.58 195.512 692.307 195.512 691.062V684.295H198.094V681.909ZM208.538 689.494C208.538 691.489 207.115 692.477 205.751 692.477C204.268 692.477 203.28 691.429 203.28 689.767V681.909H200.194V690.244C200.194 693.389 201.984 695.17 204.558 695.17C206.518 695.17 207.899 694.139 208.495 692.673H208.632V695H211.623V681.909H208.538V689.494ZM224.662 685.369C224.236 683.153 222.464 681.739 219.395 681.739C216.242 681.739 214.094 683.29 214.103 685.71C214.094 687.619 215.27 688.881 217.785 689.401L220.018 689.869C221.219 690.134 221.782 690.619 221.782 691.361C221.782 692.256 220.81 692.929 219.344 692.929C217.929 692.929 217.009 692.315 216.745 691.139L213.736 691.429C214.12 693.832 216.14 695.256 219.353 695.256C222.626 695.256 224.935 693.56 224.944 691.08C224.935 689.213 223.733 688.071 221.262 687.534L219.029 687.057C217.699 686.759 217.171 686.298 217.179 685.54C217.171 684.653 218.151 684.04 219.438 684.04C220.861 684.04 221.611 684.815 221.85 685.676L224.662 685.369Z" fill="#333333"/>
<path fill-rule="evenodd" clip-rule="evenodd" d="M323.168 725.095C324.942 724.992 326.714 725 328.488 725C328.5 725 337.478 725 337.478 725C339.287 725 341.059 724.992 342.832 725.095C344.444 725.188 346.014 725.386 347.577 725.829C350.868 726.76 353.741 728.705 355.818 731.462C357.883 734.202 359 737.555 359 740.999C359 744.447 357.883 747.798 355.818 750.538C353.741 753.294 350.868 755.24 347.577 756.171C346.014 756.614 344.444 756.811 342.832 756.905C341.059 757.008 339.287 756.999 337.513 756.999C337.501 756.999 328.521 757 328.521 757C326.714 756.999 324.942 757.008 323.168 756.905C321.557 756.811 319.987 756.614 318.424 756.171C315.133 755.24 312.26 753.294 310.183 750.538C308.119 747.798 307 744.447 307 741C307 737.555 308.119 734.202 310.183 731.462C312.26 728.705 315.133 726.76 318.424 725.829C319.987 725.386 321.557 725.188 323.168 725.095Z" fill="#DDDDDD"/>
<g filter="url(#filter0_dd)">
<path fill-rule="evenodd" clip-rule="evenodd" d="M323 755C330.732 755 337 748.732 337 741C337 733.268 330.732 727 323 727C315.268 727 309 733.268 309 741C309 748.732 315.268 755 323 755Z" fill="white"/>
</g>
<path d="M53.4506 734.909H51.0792V748H53.4506V734.909ZM57.8787 734.909H56.0378V736.226C56.0378 737.268 55.6287 738.067 55.1621 738.77L56.2359 739.467C57.1756 738.687 57.8787 737.344 57.8787 736.213V734.909ZM59.3792 748H61.6931V742.03C61.6931 740.822 62.4985 740.004 63.4957 740.004C64.4737 740.004 65.1449 740.662 65.1449 741.672V748H67.414V741.876C67.414 740.771 68.0724 740.004 69.191 740.004C70.1243 740.004 70.8657 740.553 70.8657 741.768V748H73.186V741.41C73.186 739.217 71.9204 738.054 70.1179 738.054C68.6924 738.054 67.6058 738.757 67.1711 739.85H67.0689C66.6917 738.738 65.7393 738.054 64.4162 738.054C63.0994 738.054 62.115 738.732 61.7059 739.85H61.5909V738.182H59.3792V748ZM84.9714 738.182H82.9323V737.408C82.9323 736.641 83.2519 736.213 84.1148 736.213C84.4792 736.213 84.786 736.296 84.9778 736.354L85.4444 734.564C85.144 734.462 84.4856 734.295 83.6866 734.295C81.9799 734.295 80.6184 735.273 80.6184 737.255V738.182H79.1674V739.972H80.6184V748H82.9323V739.972H84.9714V738.182ZM93.0413 743.871C93.0413 745.366 91.9739 746.108 90.9511 746.108C89.8389 746.108 89.0974 745.322 89.0974 744.075V738.182H86.7835V744.433C86.7835 746.792 88.1259 748.128 90.0563 748.128C91.5264 748.128 92.5619 747.354 93.0094 746.255H93.1117V748H95.3553V738.182H93.0413V743.871ZM100.049 734.909H97.7347V748H100.049V734.909ZM104.742 734.909H102.428V748H104.742V734.909ZM108.56 751.682C110.362 751.682 111.404 750.755 111.96 749.189L115.904 738.195L113.43 738.182L111.161 745.597H111.059L108.796 738.182H106.342L109.902 748.205L109.704 748.735C109.276 749.854 108.598 749.93 107.588 749.636L107.051 751.439C107.364 751.567 107.927 751.682 108.56 751.682ZM130.745 738.182H128.284L126.021 745.475H125.919L123.662 738.182H121.195L124.692 748H127.248L130.745 738.182ZM134.89 748.198C136.431 748.198 137.351 747.476 137.773 746.651H137.85V748H140.074V741.429C140.074 738.834 137.958 738.054 136.085 738.054C134.021 738.054 132.436 738.974 131.924 740.764L134.085 741.071C134.315 740.4 134.967 739.825 136.098 739.825C137.172 739.825 137.76 740.374 137.76 741.339V741.378C137.76 742.043 137.063 742.075 135.331 742.26C133.426 742.464 131.605 743.033 131.605 745.245C131.605 747.175 133.017 748.198 134.89 748.198ZM135.491 746.498C134.526 746.498 133.835 746.057 133.835 745.207C133.835 744.318 134.609 743.947 135.644 743.8C136.252 743.717 137.466 743.564 137.766 743.321V744.478C137.766 745.571 136.884 746.498 135.491 746.498ZM146.683 748.192C149.151 748.192 150.723 746.728 150.889 744.644H148.678C148.48 745.699 147.719 746.306 146.703 746.306C145.258 746.306 144.325 745.098 144.325 743.091C144.325 741.109 145.277 739.92 146.703 739.92C147.815 739.92 148.499 740.636 148.678 741.582H150.889C150.73 739.454 149.068 738.054 146.671 738.054C143.794 738.054 141.979 740.131 141.979 743.129C141.979 746.102 143.749 748.192 146.683 748.192ZM157.072 748.192C159.539 748.192 161.112 746.728 161.278 744.644H159.066C158.868 745.699 158.108 746.306 157.091 746.306C155.647 746.306 154.713 745.098 154.713 743.091C154.713 741.109 155.666 739.92 157.091 739.92C158.203 739.92 158.887 740.636 159.066 741.582H161.278C161.118 739.454 159.456 738.054 157.059 738.054C154.183 738.054 152.368 740.131 152.368 743.129C152.368 746.102 154.138 748.192 157.072 748.192ZM163.178 748H165.492V738.182H163.178V748ZM164.341 736.788C165.076 736.788 165.677 736.226 165.677 735.536C165.677 734.839 165.076 734.276 164.341 734.276C163.6 734.276 162.999 734.839 162.999 735.536C162.999 736.226 163.6 736.788 164.341 736.788ZM170.185 742.247C170.185 740.828 171.042 740.01 172.263 740.01C173.458 740.01 174.174 740.796 174.174 742.107V748H176.488V741.749C176.494 739.396 175.152 738.054 173.126 738.054C171.656 738.054 170.646 738.757 170.198 739.85H170.083V738.182H167.871V748H170.185V742.247ZM181.665 748.198C183.206 748.198 184.126 747.476 184.548 746.651H184.625V748H186.849V741.429C186.849 738.834 184.734 738.054 182.861 738.054C180.796 738.054 179.211 738.974 178.7 740.764L180.86 741.071C181.09 740.4 181.742 739.825 182.874 739.825C183.947 739.825 184.535 740.374 184.535 741.339V741.378C184.535 742.043 183.839 742.075 182.107 742.26C180.202 742.464 178.38 743.033 178.38 745.245C178.38 747.175 179.793 748.198 181.665 748.198ZM182.266 746.498C181.301 746.498 180.611 746.057 180.611 745.207C180.611 744.318 181.384 743.947 182.42 743.8C183.027 743.717 184.241 743.564 184.542 743.321V744.478C184.542 745.571 183.66 746.498 182.266 746.498ZM194.079 738.182H192.142V735.83H189.828V738.182H188.435V739.972H189.828V745.43C189.815 747.278 191.158 748.185 192.896 748.134C193.555 748.115 194.008 747.987 194.258 747.904L193.868 746.095C193.74 746.127 193.478 746.185 193.19 746.185C192.609 746.185 192.142 745.98 192.142 745.047V739.972H194.079V738.182ZM200.255 748.192C202.543 748.192 204.116 747.073 204.525 745.366L202.364 745.124C202.051 745.955 201.284 746.389 200.287 746.389C198.791 746.389 197.801 745.405 197.781 743.724H204.621V743.014C204.621 739.569 202.55 738.054 200.134 738.054C197.321 738.054 195.487 740.119 195.487 743.148C195.487 746.229 197.296 748.192 200.255 748.192ZM197.788 742.164C197.858 740.911 198.785 739.857 200.166 739.857C201.495 739.857 202.39 740.828 202.403 742.164H197.788ZM210.222 748.173C211.909 748.173 212.67 747.169 213.034 746.453H213.175V748H215.451V734.909H213.13V739.805H213.034C212.683 739.096 211.961 738.054 210.228 738.054C207.959 738.054 206.176 739.831 206.176 743.104C206.176 746.338 207.908 748.173 210.222 748.173ZM210.868 746.274C209.34 746.274 208.534 744.932 208.534 743.091C208.534 741.263 209.327 739.952 210.868 739.952C212.357 739.952 213.175 741.186 213.175 743.091C213.175 744.996 212.344 746.274 210.868 746.274ZM220.748 734.909H218.274L218.479 744.152H220.537L220.748 734.909ZM219.508 748.141C220.262 748.141 220.908 747.514 220.914 746.734C220.908 745.967 220.262 745.341 219.508 745.341C218.728 745.341 218.095 745.967 218.102 746.734C218.095 747.514 218.728 748.141 219.508 748.141Z" fill="#BBBBBB"/>
<path d="M36.4387 733.307L27.3228 729.096C27.0508 728.97 26.7378 728.968 26.4643 729.09L17.6087 733.048C16.061 733.826 15.8699 734.604 16.061 737.198C16.5717 744.131 20.1157 751.572 26.6931 752.979C26.8253 753.008 26.9648 753.007 27.0967 752.978C34.6826 751.296 37.4728 741.826 37.7285 737.198C37.8297 735.367 37.9864 734.086 36.4387 733.307Z" stroke="#BBBBBB" stroke-width="1.25" stroke-linecap="round" stroke-linejoin="round"/>
<path fill-rule="evenodd" clip-rule="evenodd" d="M29.9909 737.38C30.4987 736.881 31.3095 736.872 31.8281 737.36C32.3763 737.875 32.3869 738.742 31.8515 739.27L26.4137 744.636C25.909 745.134 25.0936 745.119 24.6069 744.604L22.3446 742.207C21.8642 741.698 21.8892 740.895 22.4003 740.417C22.8983 739.952 23.6759 739.965 24.1574 740.448L25.4454 741.738C25.4743 741.767 25.5212 741.768 25.5505 741.739L29.9909 737.38Z" fill="#BBBBBB"/>
<path opacity="0.5" d="M16 797H359" stroke="#DDDDDD" stroke-linecap="round"/>
<path d="M27.2074 847.344H30.25C30.1903 844.395 27.6761 842.307 23.9602 842.307C20.2955 842.307 17.5426 844.369 17.5511 847.455C17.5511 849.96 19.3324 851.401 22.2045 852.142L24.1903 852.653C26.0739 853.131 27.3182 853.719 27.3267 855.074C27.3182 856.565 25.9034 857.562 23.8409 857.562C21.8636 857.562 20.3295 856.676 20.2017 854.844H17.0909C17.2188 858.312 19.8011 860.264 23.8665 860.264C28.0511 860.264 30.4801 858.176 30.4886 855.099C30.4801 852.074 27.983 850.693 25.358 850.071L23.7216 849.662C22.2898 849.321 20.7386 848.716 20.7557 847.259C20.7642 845.946 21.9403 844.983 23.9176 844.983C25.8011 844.983 27.0455 845.861 27.2074 847.344ZM38.4866 860.256C41.5378 860.256 43.6343 858.764 44.1798 856.489L41.2991 856.165C40.8815 857.273 39.8588 857.852 38.5292 857.852C36.5349 857.852 35.2139 856.54 35.1883 854.298H44.3076V853.352C44.3076 848.759 41.5463 846.739 38.3247 846.739C34.5747 846.739 32.1287 849.491 32.1287 853.531C32.1287 857.639 34.5406 860.256 38.4866 860.256ZM35.1968 852.219C35.2906 850.548 36.5264 849.142 38.3673 849.142C40.14 849.142 41.3332 850.438 41.3503 852.219H35.1968ZM49.523 842.545H46.4377V860H49.523V842.545ZM58.8462 846.909H56.1275V845.878C56.1275 844.855 56.5536 844.284 57.7042 844.284C58.19 844.284 58.5991 844.395 58.8547 844.472L59.4769 842.085C59.0763 841.949 58.1985 841.727 57.1332 841.727C54.8576 841.727 53.0422 843.031 53.0422 845.673V846.909H51.1076V849.295H53.0422V860H56.1275V849.295H58.8462V846.909ZM69.5538 842.545H66.3919V860H69.5538V842.545ZM75.4467 852.33C75.4467 850.438 76.5887 849.347 78.2166 849.347C79.8103 849.347 80.7649 850.395 80.7649 852.142V860H83.8501V851.665C83.8586 848.528 82.0689 846.739 79.3672 846.739C77.4069 846.739 76.0603 847.676 75.4637 849.134H75.3103V846.909H72.3615V860H75.4467V852.33ZM93.0434 846.909H90.461V843.773H87.3758V846.909H85.5178V849.295H87.3758V856.574C87.3587 859.037 89.1485 860.247 91.4667 860.179C92.3445 860.153 92.9497 859.983 93.282 859.872L92.7622 857.46C92.5917 857.503 92.2423 857.58 91.8587 857.58C91.0832 857.58 90.461 857.307 90.461 856.062V849.295H93.0434V846.909ZM95.1437 860H98.2289V852.304C98.2289 850.642 99.4817 849.466 101.178 849.466C101.698 849.466 102.345 849.56 102.61 849.645V846.807C102.328 846.756 101.843 846.722 101.502 846.722C100.002 846.722 98.7488 847.574 98.2715 849.091H98.1351V846.909H95.1437V860ZM109.35 860.256C113.186 860.256 115.623 857.554 115.623 853.506C115.623 849.449 113.186 846.739 109.35 846.739C105.515 846.739 103.078 849.449 103.078 853.506C103.078 857.554 105.515 860.256 109.35 860.256ZM109.368 857.784C107.245 857.784 106.206 855.892 106.206 853.497C106.206 851.102 107.245 849.185 109.368 849.185C111.456 849.185 112.495 851.102 112.495 853.497C112.495 855.892 111.456 857.784 109.368 857.784ZM122.62 860.23C124.87 860.23 125.884 858.892 126.37 857.938H126.557V860H129.591V842.545H126.498V849.074H126.37C125.901 848.128 124.938 846.739 122.628 846.739C119.603 846.739 117.225 849.108 117.225 853.472C117.225 857.784 119.535 860.23 122.62 860.23ZM123.481 857.699C121.444 857.699 120.37 855.909 120.37 853.455C120.37 851.017 121.427 849.27 123.481 849.27C125.466 849.27 126.557 850.915 126.557 853.455C126.557 855.994 125.449 857.699 123.481 857.699ZM140.743 854.494C140.743 856.489 139.319 857.477 137.956 857.477C136.473 857.477 135.484 856.429 135.484 854.767V846.909H132.399V855.244C132.399 858.389 134.189 860.17 136.763 860.17C138.723 860.17 140.104 859.139 140.7 857.673H140.836V860H143.828V846.909H140.743V854.494ZM152.231 860.256C155.521 860.256 157.617 858.304 157.839 855.526H154.89C154.626 856.932 153.611 857.741 152.256 857.741C150.33 857.741 149.086 856.131 149.086 853.455C149.086 850.812 150.356 849.227 152.256 849.227C153.739 849.227 154.651 850.182 154.89 851.443H157.839C157.626 848.605 155.41 846.739 152.214 846.739C148.378 846.739 145.958 849.509 145.958 853.506C145.958 857.469 148.319 860.256 152.231 860.256ZM166.429 846.909H163.847V843.773H160.761V846.909H158.903V849.295H160.761V856.574C160.744 859.037 162.534 860.247 164.852 860.179C165.73 860.153 166.335 859.983 166.668 859.872L166.148 857.46C165.977 857.503 165.628 857.58 165.244 857.58C164.469 857.58 163.847 857.307 163.847 856.062V849.295H166.429V846.909ZM168.529 860H171.615V846.909H168.529V860ZM170.08 845.051C171.061 845.051 171.862 844.301 171.862 843.381C171.862 842.452 171.061 841.702 170.08 841.702C169.092 841.702 168.291 842.452 168.291 843.381C168.291 844.301 169.092 845.051 170.08 845.051ZM180.017 860.256C183.853 860.256 186.29 857.554 186.29 853.506C186.29 849.449 183.853 846.739 180.017 846.739C176.182 846.739 173.745 849.449 173.745 853.506C173.745 857.554 176.182 860.256 180.017 860.256ZM180.034 857.784C177.912 857.784 176.872 855.892 176.872 853.497C176.872 851.102 177.912 849.185 180.034 849.185C182.122 849.185 183.162 851.102 183.162 853.497C183.162 855.892 182.122 857.784 180.034 857.784ZM191.514 852.33C191.514 850.438 192.656 849.347 194.284 849.347C195.878 849.347 196.832 850.395 196.832 852.142V860H199.917V851.665C199.926 848.528 198.136 846.739 195.434 846.739C193.474 846.739 192.128 847.676 191.531 849.134H191.378V846.909H188.429V860H191.514V852.33Z" fill="#333333"/>
<path opacity="0.5" d="M32.8409 910.318H36.5284V921H37.5909V910.318H41.2784V909.364H32.8409V910.318ZM45.723 921.182C47.473 921.182 48.6491 920.233 49.0469 919.136L48.0866 918.824C47.7514 919.608 46.9616 920.256 45.723 920.256C43.9389 920.256 42.8082 918.955 42.7628 916.938H49.2628V916.438C49.2628 913.523 47.4616 912.153 45.5696 912.153C43.3082 912.153 41.7457 914.045 41.7457 916.688C41.7457 919.335 43.2798 921.182 45.723 921.182ZM42.7685 916.045C42.8764 914.42 43.973 913.074 45.5696 913.074C47.1321 913.074 48.2287 914.364 48.2287 916.045H42.7685ZM52.5028 909.364H51.4915V921H52.5028V909.364ZM56.1903 909.364H55.179V921H56.1903V909.364ZM68.9119 917.665C68.9119 919.267 67.7074 920.131 66.5256 920.131C65.2642 920.131 64.3778 919.227 64.3778 917.864V912.273H63.3665V917.926C63.3665 919.994 64.5597 921.114 66.2358 921.114C67.5142 921.114 68.4233 920.449 68.8324 919.551H68.9119V921H69.9233V912.273H68.9119V917.665ZM78.4645 914.188C78.0384 912.926 77.1065 912.153 75.5099 912.153C73.7486 912.153 72.4702 913.159 72.4702 914.597C72.4702 915.767 73.1804 916.562 74.6974 916.926L76.1236 917.267C77.0838 917.494 77.544 917.989 77.544 918.688C77.544 919.597 76.6747 920.273 75.3338 920.273C74.1406 920.273 73.3963 919.733 73.152 918.699L72.1804 918.938C72.4872 920.392 73.6406 921.182 75.3509 921.182C77.2713 921.182 78.5895 920.125 78.5895 918.642C78.5895 917.477 77.8565 916.699 76.3963 916.341L75.0781 916.017C73.9929 915.744 73.4872 915.307 73.4872 914.551C73.4872 913.665 74.3338 913.045 75.5099 913.045C76.6861 913.045 77.2656 913.665 77.5384 914.449L78.4645 914.188ZM87.2415 921H88.2869L90.3551 913.847H90.4631L92.5312 921H93.5767L96.2131 912.273H95.1449L93.0767 919.455H92.9972L90.9517 912.273H89.8778L87.8153 919.472H87.7415L85.6733 912.273H84.6051L87.2415 921ZM99.1903 915.545C99.1903 914.023 100.213 913.085 101.611 913.085C102.963 913.085 103.827 913.972 103.827 915.409V921H104.844V915.347C104.844 913.267 103.639 912.159 101.866 912.159C100.548 912.159 99.6903 912.739 99.2812 913.642H99.1903V909.364H98.179V921H99.1903V915.545ZM107.899 924.273C108.99 924.273 109.791 923.648 110.257 922.381L113.956 912.29L112.854 912.273L110.263 919.665H110.183L107.592 912.273H106.496L109.706 921.085L109.388 921.972C108.905 923.29 108.223 923.523 107.195 923.199L106.922 924.091C107.126 924.188 107.501 924.273 107.899 924.273ZM121.134 924.273C122.224 924.273 123.026 923.648 123.491 922.381L127.19 912.29L126.088 912.273L123.497 919.665H123.418L120.827 912.273H119.73L122.94 921.085L122.622 921.972C122.139 923.29 121.457 923.523 120.429 923.199L120.156 924.091C120.361 924.188 120.736 924.273 121.134 924.273ZM132.243 921.182C134.504 921.182 136.084 919.335 136.084 916.676C136.084 914 134.504 912.153 132.243 912.153C129.982 912.153 128.402 914 128.402 916.676C128.402 919.335 129.982 921.182 132.243 921.182ZM132.243 920.256C130.43 920.256 129.419 918.631 129.419 916.676C129.419 914.722 130.43 913.074 132.243 913.074C134.055 913.074 135.067 914.722 135.067 916.676C135.067 918.631 134.055 920.256 132.243 920.256ZM143.849 917.665C143.849 919.267 142.645 920.131 141.463 920.131C140.202 920.131 139.315 919.227 139.315 917.864V912.273H138.304V917.926C138.304 919.994 139.497 921.114 141.173 921.114C142.452 921.114 143.361 920.449 143.77 919.551H143.849V921H144.861V912.273H143.849V917.665ZM154.476 921.199C155.93 921.199 156.817 920.392 157.18 919.619H157.243V921H158.254V915.074C158.254 912.733 156.493 912.153 155.158 912.153C153.822 912.153 152.447 912.682 151.857 914.108L152.817 914.455C153.135 913.705 153.925 913.062 155.186 913.062C156.51 913.062 157.243 913.79 157.243 914.983V915.188C157.243 915.847 156.425 915.858 154.959 916.04C152.987 916.284 151.607 916.835 151.607 918.562C151.607 920.244 152.891 921.199 154.476 921.199ZM154.612 920.273C153.47 920.273 152.618 919.665 152.618 918.608C152.618 917.551 153.482 917.108 154.959 916.926C155.675 916.841 156.947 916.682 157.243 916.392V917.653C157.243 919.085 156.226 920.273 154.612 920.273ZM160.945 921H161.956V915.364C161.956 914.068 162.95 913.131 164.314 913.131C164.581 913.131 164.831 913.176 164.922 913.188V912.159C164.786 912.153 164.553 912.142 164.388 912.142C163.291 912.142 162.354 912.733 162.001 913.614H161.928V912.273H160.945V921ZM169.911 921.182C171.661 921.182 172.837 920.233 173.234 919.136L172.274 918.824C171.939 919.608 171.149 920.256 169.911 920.256C168.126 920.256 166.996 918.955 166.95 916.938H173.45V916.438C173.45 913.523 171.649 912.153 169.757 912.153C167.496 912.153 165.933 914.045 165.933 916.688C165.933 919.335 167.467 921.182 169.911 921.182ZM166.956 916.045C167.064 914.42 168.161 913.074 169.757 913.074C171.32 913.074 172.416 914.364 172.416 916.045H166.956ZM181.19 915.545C181.19 914.023 182.213 913.085 183.611 913.085C184.963 913.085 185.827 913.972 185.827 915.409V921H186.844V915.347C186.844 913.267 185.639 912.159 183.866 912.159C182.548 912.159 181.69 912.739 181.281 913.642H181.19V909.364H180.179V921H181.19V915.545ZM193.036 921.182C194.786 921.182 195.962 920.233 196.359 919.136L195.399 918.824C195.064 919.608 194.274 920.256 193.036 920.256C191.251 920.256 190.121 918.955 190.075 916.938H196.575V916.438C196.575 913.523 194.774 912.153 192.882 912.153C190.621 912.153 189.058 914.045 189.058 916.688C189.058 919.335 190.592 921.182 193.036 921.182ZM190.081 916.045C190.189 914.42 191.286 913.074 192.882 913.074C194.445 913.074 195.541 914.364 195.541 916.045H190.081ZM198.804 921H199.815V915.364C199.815 914.068 200.81 913.131 202.173 913.131C202.44 913.131 202.69 913.176 202.781 913.188V912.159C202.645 912.153 202.412 912.142 202.247 912.142C201.151 912.142 200.213 912.733 199.861 913.614H199.787V912.273H198.804V921ZM207.77 921.182C209.52 921.182 210.696 920.233 211.094 919.136L210.134 918.824C209.798 919.608 209.009 920.256 207.77 920.256C205.986 920.256 204.855 918.955 204.81 916.938H211.31V916.438C211.31 913.523 209.509 912.153 207.616 912.153C205.355 912.153 203.793 914.045 203.793 916.688C203.793 919.335 205.327 921.182 207.77 921.182ZM204.815 916.045C204.923 914.42 206.02 913.074 207.616 913.074C209.179 913.074 210.276 914.364 210.276 916.045H204.815ZM215.294 917.665H216.322V917.358C216.339 916.108 216.68 915.54 217.709 914.864C218.788 914.159 219.334 913.352 219.334 912.199C219.334 910.466 218.038 909.205 216.152 909.205C214.339 909.205 212.936 910.403 212.879 912.273H213.953C214.01 910.864 215.016 910.114 216.152 910.114C217.351 910.114 218.3 910.926 218.3 912.153C218.3 913.028 217.834 913.659 217.004 914.199C215.874 914.92 215.305 915.562 215.294 917.358V917.665ZM215.839 921.085C216.294 921.085 216.658 920.716 216.658 920.267C216.658 919.812 216.294 919.449 215.839 919.449C215.391 919.449 215.021 919.812 215.021 920.267C215.021 920.716 215.391 921.085 215.839 921.085Z" fill="#444444"/>
<rect x="16.5" y="890.5" width="342" height="239" rx="5.5" stroke="#BBBBBB"/>
<path d="M191.352 1142.82V1153H192.227V1144.78H192.307L195.742 1153H196.587L200.023 1144.78H200.102V1153H200.977V1142.82H199.903L196.21 1151.69H196.12L192.426 1142.82H191.352ZM205.633 1153.17C206.906 1153.17 207.681 1152.47 208 1151.79H208.054V1153H208.939V1147.81C208.939 1145.77 207.398 1145.26 206.23 1145.26C205.061 1145.26 203.858 1145.72 203.341 1146.97L204.181 1147.27C204.46 1146.62 205.151 1146.05 206.255 1146.05C207.413 1146.05 208.054 1146.69 208.054 1147.74V1147.91C208.054 1148.49 207.338 1148.5 206.056 1148.66C204.331 1148.87 203.123 1149.36 203.123 1150.87C203.123 1152.34 204.246 1153.17 205.633 1153.17ZM205.752 1152.36C204.753 1152.36 204.007 1151.83 204.007 1150.91C204.007 1149.98 204.763 1149.59 206.056 1149.44C206.682 1149.36 207.796 1149.22 208.054 1148.97V1150.07C208.054 1151.32 207.164 1152.36 205.752 1152.36ZM211.84 1145.36H210.816L213.242 1149.18L210.816 1153H211.84L213.809 1149.85L215.778 1153H216.807L214.351 1149.18L216.807 1145.36H215.778L213.809 1148.62L211.84 1145.36ZM218.672 1153H219.562V1145.36H218.672V1153ZM219.125 1144.05C219.488 1144.05 219.791 1143.76 219.791 1143.41C219.791 1143.07 219.488 1142.78 219.125 1142.78C218.762 1142.78 218.464 1143.07 218.464 1143.41C218.464 1143.76 218.762 1144.05 219.125 1144.05ZM221.903 1153H222.788V1148.11C222.788 1146.92 223.578 1146.07 224.637 1146.07C225.681 1146.07 226.288 1146.77 226.288 1147.8V1153H227.192V1147.97C227.192 1146.88 227.849 1146.07 229.012 1146.07C230.021 1146.07 230.692 1146.68 230.692 1147.88V1153H231.577V1147.88C231.577 1146.17 230.697 1145.26 229.281 1145.26C228.167 1145.26 227.362 1145.81 227.018 1146.65H226.954C226.616 1145.79 225.945 1145.26 224.891 1145.26C223.891 1145.26 223.146 1145.75 222.842 1146.54H222.763V1145.36H221.903V1153ZM238.773 1150.08C238.773 1151.48 237.719 1152.24 236.684 1152.24C235.581 1152.24 234.805 1151.45 234.805 1150.26V1145.36H233.92V1150.31C233.92 1152.12 234.964 1153.1 236.431 1153.1C237.55 1153.1 238.345 1152.52 238.703 1151.73H238.773V1153H239.657V1145.36H238.773V1150.08ZM242 1153H242.885V1148.11C242.885 1146.92 243.676 1146.07 244.735 1146.07C245.779 1146.07 246.385 1146.77 246.385 1147.8V1153H247.29V1147.97C247.29 1146.88 247.946 1146.07 249.11 1146.07C250.119 1146.07 250.79 1146.68 250.79 1147.88V1153H251.675V1147.88C251.675 1146.17 250.795 1145.26 249.378 1145.26C248.265 1145.26 247.459 1145.81 247.116 1146.65H247.051C246.713 1145.79 246.042 1145.26 244.988 1145.26C243.989 1145.26 243.243 1145.75 242.94 1146.54H242.86V1145.36H242V1153ZM261.227 1153.14C263.136 1153.14 264.528 1151.91 264.528 1150.28C264.528 1148.98 263.732 1148.03 262.435 1147.77V1147.71C263.504 1147.39 264.18 1146.53 264.18 1145.36C264.18 1143.91 263.036 1142.68 261.247 1142.68C259.541 1142.68 258.179 1143.77 258.139 1145.36H259.039C259.069 1144.23 260.053 1143.5 261.237 1143.5C262.465 1143.5 263.275 1144.28 263.275 1145.4C263.275 1146.59 262.325 1147.35 261.008 1147.35H260.411V1148.19H261.008C262.619 1148.19 263.613 1149.04 263.613 1150.28C263.613 1151.45 262.624 1152.3 261.217 1152.3C259.919 1152.3 258.905 1151.57 258.855 1150.45H257.916C257.965 1152.04 259.338 1153.14 261.227 1153.14ZM269.887 1153.14C272.03 1153.14 273.288 1151.21 273.288 1147.91C273.288 1144.63 272.02 1142.68 269.887 1142.68C267.754 1142.68 266.487 1144.63 266.487 1147.91C266.487 1151.21 267.744 1153.14 269.887 1153.14ZM269.887 1152.3C268.321 1152.3 267.387 1150.7 267.387 1147.91C267.387 1145.12 268.326 1143.5 269.887 1143.5C271.448 1143.5 272.388 1145.12 272.388 1147.91C272.388 1150.7 271.453 1152.3 269.887 1152.3ZM278.473 1153.14C280.616 1153.14 281.874 1151.21 281.874 1147.91C281.874 1144.63 280.606 1142.68 278.473 1142.68C276.34 1142.68 275.073 1144.63 275.073 1147.91C275.073 1151.21 276.33 1153.14 278.473 1153.14ZM278.473 1152.3C276.907 1152.3 275.972 1150.7 275.972 1147.91C275.972 1145.12 276.912 1143.5 278.473 1143.5C280.034 1143.5 280.974 1145.12 280.974 1147.91C280.974 1150.7 280.039 1152.3 278.473 1152.3ZM296.028 1146C295.695 1144.13 294.164 1142.68 291.996 1142.68C289.426 1142.68 287.596 1144.72 287.596 1147.91C287.596 1151.1 289.426 1153.14 291.996 1153.14C294.164 1153.14 295.695 1151.69 296.028 1149.82H295.093C294.81 1151.22 293.592 1152.26 291.996 1152.26C290.067 1152.26 288.496 1150.74 288.496 1147.91C288.496 1145.09 290.067 1143.55 291.996 1143.55C293.592 1143.55 294.81 1144.61 295.093 1146H296.028ZM298.913 1148.23C298.913 1146.89 299.808 1146.07 301.031 1146.07C302.214 1146.07 302.969 1146.85 302.969 1148.11V1153H303.859V1148.05C303.859 1146.23 302.805 1145.26 301.254 1145.26C300.101 1145.26 299.35 1145.77 298.992 1146.56H298.913V1142.82H298.028V1153H298.913V1148.23ZM308.323 1153.17C309.595 1153.17 310.371 1152.47 310.689 1151.79H310.744V1153H311.629V1147.81C311.629 1145.77 310.088 1145.26 308.919 1145.26C307.751 1145.26 306.548 1145.72 306.031 1146.97L306.871 1147.27C307.149 1146.62 307.84 1146.05 308.944 1146.05C310.102 1146.05 310.744 1146.69 310.744 1147.74V1147.91C310.744 1148.49 310.028 1148.5 308.745 1148.66C307.02 1148.87 305.812 1149.36 305.812 1150.87C305.812 1152.34 306.936 1153.17 308.323 1153.17ZM308.442 1152.36C307.443 1152.36 306.697 1151.83 306.697 1150.91C306.697 1149.98 307.453 1149.59 308.745 1149.44C309.372 1149.36 310.485 1149.22 310.744 1148.97V1150.07C310.744 1151.32 309.854 1152.36 308.442 1152.36ZM313.983 1153H314.868V1148.07C314.868 1146.93 315.738 1146.11 316.931 1146.11C317.165 1146.11 317.383 1146.15 317.463 1146.16V1145.26C317.344 1145.26 317.14 1145.25 316.996 1145.25C316.036 1145.25 315.216 1145.77 314.907 1146.54H314.843V1145.36H313.983V1153ZM321.106 1153.17C322.379 1153.17 323.154 1152.47 323.472 1151.79H323.527V1153H324.412V1147.81C324.412 1145.77 322.871 1145.26 321.702 1145.26C320.534 1145.26 319.331 1145.72 318.814 1146.97L319.654 1147.27C319.933 1146.62 320.624 1146.05 321.727 1146.05C322.886 1146.05 323.527 1146.69 323.527 1147.74V1147.91C323.527 1148.49 322.811 1148.5 321.528 1148.66C319.803 1148.87 318.595 1149.36 318.595 1150.87C318.595 1152.34 319.719 1153.17 321.106 1153.17ZM321.225 1152.36C320.226 1152.36 319.48 1151.83 319.48 1150.91C319.48 1149.98 320.236 1149.59 321.528 1149.44C322.155 1149.36 323.268 1149.22 323.527 1148.97V1150.07C323.527 1151.32 322.637 1152.36 321.225 1152.36ZM329.749 1153.16C331.34 1153.16 332.458 1152.15 332.662 1150.77H331.767C331.564 1151.75 330.763 1152.35 329.749 1152.35C328.252 1152.35 327.263 1151.05 327.263 1149.19C327.263 1147.34 328.282 1146.06 329.749 1146.06C330.838 1146.06 331.574 1146.77 331.762 1147.63H332.657C332.449 1146.21 331.265 1145.26 329.734 1145.26C327.735 1145.26 326.373 1146.92 326.373 1149.22C326.373 1151.49 327.696 1153.16 329.749 1153.16ZM337.567 1145.36H335.951V1143.53H335.061V1145.36H333.923V1146.13H335.061V1151.22C335.061 1152.46 336.045 1153.11 337.025 1153.11C337.393 1153.11 337.641 1153.04 337.81 1152.98L337.621 1152.18C337.497 1152.21 337.338 1152.25 337.104 1152.25C336.503 1152.25 335.951 1151.97 335.951 1151.01V1146.13H337.567V1145.36ZM342.582 1153.16C344.113 1153.16 345.142 1152.33 345.49 1151.37L344.65 1151.1C344.357 1151.78 343.666 1152.35 342.582 1152.35C341.021 1152.35 340.031 1151.21 339.992 1149.45H345.679V1149.01C345.679 1146.46 344.103 1145.26 342.448 1145.26C340.469 1145.26 339.102 1146.91 339.102 1149.23C339.102 1151.54 340.444 1153.16 342.582 1153.16ZM339.997 1148.66C340.091 1147.24 341.051 1146.06 342.448 1146.06C343.815 1146.06 344.774 1147.19 344.774 1148.66H339.997ZM347.629 1153H348.514V1148.07C348.514 1146.93 349.384 1146.11 350.577 1146.11C350.811 1146.11 351.03 1146.15 351.109 1146.16V1145.26C350.99 1145.26 350.786 1145.25 350.642 1145.25C349.683 1145.25 348.862 1145.77 348.554 1146.54H348.489V1145.36H347.629V1153ZM357.75 1147.04C357.377 1145.94 356.562 1145.26 355.165 1145.26C353.624 1145.26 352.505 1146.14 352.505 1147.4C352.505 1148.42 353.127 1149.12 354.454 1149.44L355.702 1149.73C356.542 1149.93 356.945 1150.37 356.945 1150.98C356.945 1151.77 356.184 1152.36 355.011 1152.36C353.967 1152.36 353.316 1151.89 353.102 1150.99L352.252 1151.2C352.52 1152.47 353.529 1153.16 355.026 1153.16C356.706 1153.16 357.86 1152.23 357.86 1150.94C357.86 1149.92 357.218 1149.24 355.941 1148.92L354.787 1148.64C353.838 1148.4 353.395 1148.02 353.395 1147.36C353.395 1146.58 354.136 1146.04 355.165 1146.04C356.194 1146.04 356.701 1146.58 356.94 1147.27L357.75 1147.04Z" fill="#828282"/>
<rect x="375" y="68" width="375" height="68" transform="rotate(-180 375 68)" fill="white"/>
<path d="M129.944 42H141.364V39.3494H133.106V34.5852H140.708V31.9347H133.106V27.196H141.296V24.5455H129.944V42ZM148.763 42.2301C151.013 42.2301 152.028 40.892 152.513 39.9375H152.701V42H155.735V24.5455H152.641V31.0739H152.513C152.045 30.1278 151.082 28.7386 148.772 28.7386C145.746 28.7386 143.368 31.108 143.368 35.4716C143.368 39.7841 145.678 42.2301 148.763 42.2301ZM149.624 39.6989C147.587 39.6989 146.513 37.9091 146.513 35.4545C146.513 33.017 147.57 31.2699 149.624 31.2699C151.61 31.2699 152.701 32.9148 152.701 35.4545C152.701 37.9943 151.593 39.6989 149.624 39.6989ZM158.543 42H161.628V28.9091H158.543V42ZM160.094 27.0511C161.074 27.0511 161.875 26.3011 161.875 25.3807C161.875 24.4517 161.074 23.7017 160.094 23.7017C159.105 23.7017 158.304 24.4517 158.304 25.3807C158.304 26.3011 159.105 27.0511 160.094 27.0511ZM170.857 28.9091H168.275V25.7727H165.19V28.9091H163.332V31.2955H165.19V38.5739C165.173 41.0369 166.962 42.2472 169.281 42.179C170.158 42.1534 170.764 41.983 171.096 41.8722L170.576 39.4602C170.406 39.5028 170.056 39.5795 169.673 39.5795C168.897 39.5795 168.275 39.3068 168.275 38.0625V31.2955H170.857V28.9091ZM178.567 42H181.729V36.1023H185.07C189.101 36.1023 191.266 33.6818 191.266 30.3239C191.266 26.9915 189.127 24.5455 185.113 24.5455H178.567V42ZM181.729 33.5028V27.1875H184.627C186.996 27.1875 188.044 28.4659 188.044 30.3239C188.044 32.1818 186.996 33.5028 184.644 33.5028H181.729ZM193.396 42H196.481V34.304C196.481 32.642 197.734 31.4659 199.43 31.4659C199.95 31.4659 200.598 31.5597 200.862 31.6449V28.8068C200.581 28.7557 200.095 28.7216 199.754 28.7216C198.254 28.7216 197.001 29.5739 196.524 31.0909H196.387V28.9091H193.396V42ZM207.603 42.2557C211.438 42.2557 213.876 39.554 213.876 35.5057C213.876 31.4489 211.438 28.7386 207.603 28.7386C203.768 28.7386 201.33 31.4489 201.33 35.5057C201.33 39.554 203.768 42.2557 207.603 42.2557ZM207.62 39.7841C205.498 39.7841 204.458 37.892 204.458 35.4972C204.458 33.1023 205.498 31.1847 207.62 31.1847C209.708 31.1847 210.748 33.1023 210.748 35.4972C210.748 37.892 209.708 39.7841 207.62 39.7841ZM222.645 28.9091H219.926V27.8778C219.926 26.8551 220.352 26.2841 221.503 26.2841C221.989 26.2841 222.398 26.3949 222.653 26.4716L223.276 24.0852C222.875 23.9489 221.997 23.7273 220.932 23.7273C218.656 23.7273 216.841 25.0312 216.841 27.6733V28.9091H214.906V31.2955H216.841V42H219.926V31.2955H222.645V28.9091ZM224.581 42H227.666V28.9091H224.581V42ZM226.132 27.0511C227.112 27.0511 227.913 26.3011 227.913 25.3807C227.913 24.4517 227.112 23.7017 226.132 23.7017C225.144 23.7017 224.342 24.4517 224.342 25.3807C224.342 26.3011 225.144 27.0511 226.132 27.0511ZM233.444 24.5455H230.359V42H233.444V24.5455ZM241.932 42.2557C244.983 42.2557 247.08 40.7642 247.625 38.4886L244.745 38.1648C244.327 39.2727 243.304 39.8523 241.975 39.8523C239.98 39.8523 238.659 38.5398 238.634 36.2983H247.753V35.3523C247.753 30.7585 244.992 28.7386 241.77 28.7386C238.02 28.7386 235.574 31.4915 235.574 35.5312C235.574 39.6392 237.986 42.2557 241.932 42.2557ZM238.642 34.2188C238.736 32.5483 239.972 31.142 241.813 31.142C243.585 31.142 244.779 32.4375 244.796 34.2188H238.642Z" fill="#444444"/>
<line x1="341" y1="41.8787" x2="355.849" y2="27.0294" stroke="#BBBBBB" stroke-width="3" stroke-linecap="round"/>
<line x1="341.121" y1="27" x2="355.971" y2="41.8492" stroke="#BBBBBB" stroke-width="3" stroke-linecap="round"/>
<path d="M375 67.5L3.05176e-05 67.5" stroke="#DDDDDD"/>
<rect y="1198" width="375" height="68" fill="white"/>
<path d="M375 1198H3.05176e-05" stroke="#DDDDDD"/>
<g filter="url(#filter1_d)">
<path d="M267 1213C267 1209.69 269.686 1207 273 1207H397C400.314 1207 403 1209.69 403 1213V1251C403 1254.31 400.314 1257 397 1257H273C269.686 1257 267 1254.31 267 1251V1213Z" fill="#444444"/>
<path d="M302.625 1229.42H304.318C304.267 1227.56 302.619 1226.2 300.256 1226.2C297.92 1226.2 296.131 1227.54 296.131 1229.55C296.131 1231.16 297.29 1232.11 299.159 1232.62L300.534 1232.99C301.778 1233.32 302.739 1233.73 302.739 1234.77C302.739 1235.9 301.653 1236.65 300.159 1236.65C298.807 1236.65 297.682 1236.05 297.58 1234.78H295.818C295.932 1236.89 297.562 1238.19 300.17 1238.19C302.903 1238.19 304.477 1236.76 304.477 1234.78C304.477 1232.69 302.608 1231.88 301.131 1231.51L299.994 1231.22C299.085 1230.98 297.875 1230.56 297.881 1229.44C297.881 1228.45 298.784 1227.72 300.216 1227.72C301.551 1227.72 302.5 1228.35 302.625 1229.42ZM308.979 1238.19C310.422 1238.19 311.234 1237.46 311.558 1236.81H311.626V1238H313.286V1232.2C313.286 1229.66 311.286 1229.16 309.899 1229.16C308.32 1229.16 306.865 1229.8 306.297 1231.39L307.893 1231.75C308.143 1231.13 308.78 1230.53 309.922 1230.53C311.018 1230.53 311.581 1231.11 311.581 1232.1V1232.14C311.581 1232.76 310.945 1232.74 309.376 1232.93C307.723 1233.12 306.03 1233.55 306.03 1235.53C306.03 1237.25 307.32 1238.19 308.979 1238.19ZM309.348 1236.83C308.388 1236.83 307.695 1236.4 307.695 1235.56C307.695 1234.65 308.501 1234.32 309.484 1234.19C310.036 1234.12 311.342 1233.97 311.587 1233.73V1234.85C311.587 1235.89 310.763 1236.83 309.348 1236.83ZM322.702 1229.27H320.878L318.673 1235.99H318.582L316.372 1229.27H314.548L317.719 1238H319.537L322.702 1229.27ZM327.747 1238.18C329.651 1238.18 330.997 1237.24 331.384 1235.82L329.776 1235.53C329.469 1236.35 328.73 1236.77 327.764 1236.77C326.31 1236.77 325.332 1235.83 325.287 1234.15H331.491V1233.55C331.491 1230.39 329.605 1229.16 327.628 1229.16C325.196 1229.16 323.594 1231.01 323.594 1233.69C323.594 1236.4 325.173 1238.18 327.747 1238.18ZM325.293 1232.88C325.361 1231.64 326.259 1230.56 327.639 1230.56C328.957 1230.56 329.821 1231.54 329.827 1232.88H325.293ZM341.372 1238.18C343.276 1238.18 344.622 1237.24 345.009 1235.82L343.401 1235.53C343.094 1236.35 342.355 1236.77 341.389 1236.77C339.935 1236.77 338.957 1235.83 338.912 1234.15H345.116V1233.55C345.116 1230.39 343.23 1229.16 341.253 1229.16C338.821 1229.16 337.219 1231.01 337.219 1233.69C337.219 1236.4 338.798 1238.18 341.372 1238.18ZM338.918 1232.88C338.986 1231.64 339.884 1230.56 341.264 1230.56C342.582 1230.56 343.446 1231.54 343.452 1232.88H338.918ZM350.268 1238.17C351.859 1238.17 352.484 1237.2 352.791 1236.64H352.933V1238H354.592V1226.36H352.893V1230.69H352.791C352.484 1230.15 351.905 1229.16 350.28 1229.16C348.172 1229.16 346.621 1230.82 346.621 1233.65C346.621 1236.48 348.149 1238.17 350.268 1238.17ZM350.643 1236.72C349.126 1236.72 348.337 1235.39 348.337 1233.64C348.337 1231.9 349.109 1230.6 350.643 1230.6C352.126 1230.6 352.922 1231.81 352.922 1233.64C352.922 1235.47 352.109 1236.72 350.643 1236.72ZM357.017 1238H358.716V1229.27H357.017V1238ZM357.875 1227.93C358.46 1227.93 358.949 1227.47 358.949 1226.91C358.949 1226.36 358.46 1225.9 357.875 1225.9C357.284 1225.9 356.801 1226.36 356.801 1226.91C356.801 1227.47 357.284 1227.93 357.875 1227.93ZM365.075 1229.27H363.286V1227.18H361.587V1229.27H360.308V1230.64H361.587V1235.79C361.581 1237.38 362.791 1238.14 364.132 1238.11C364.672 1238.11 365.036 1238.01 365.234 1237.93L364.928 1236.53C364.814 1236.55 364.604 1236.6 364.331 1236.6C363.78 1236.6 363.286 1236.42 363.286 1235.44V1230.64H365.075V1229.27ZM373.354 1231.4C373.001 1230.05 371.939 1229.16 370.053 1229.16C368.081 1229.16 366.683 1230.2 366.683 1231.74C366.683 1232.98 367.433 1233.81 369.07 1234.17L370.547 1234.49C371.388 1234.68 371.78 1235.06 371.78 1235.6C371.78 1236.28 371.058 1236.81 369.945 1236.81C368.928 1236.81 368.274 1236.37 368.07 1235.51L366.428 1235.76C366.712 1237.31 367.996 1238.18 369.956 1238.18C372.064 1238.18 373.524 1237.06 373.524 1235.48C373.524 1234.24 372.74 1233.48 371.138 1233.11L369.751 1232.8C368.791 1232.57 368.376 1232.24 368.382 1231.65C368.376 1230.98 369.104 1230.51 370.07 1230.51C371.126 1230.51 371.615 1231.09 371.814 1231.68L373.354 1231.4Z" fill="white"/>
</g>
</g>
<defs>
<filter id="filter0_dd" x="301" y="722" width="44" height="44" filterUnits="userSpaceOnUse" color-interpolation-filters="sRGB">
<feFlood flood-opacity="0" result="BackgroundImageFix"/>
<feColorMatrix in="SourceAlpha" type="matrix" values="0 0 0 0 0 0 0 0 0 0 0 0 0 0 0 0 0 0 127 0" result="hardAlpha"/>
<feOffset dy="3"/>
<feGaussianBlur stdDeviation="0.5"/>
<feColorMatrix type="matrix" values="0 0 0 0 0 0 0 0 0 0 0 0 0 0 0 0 0 0 0.06 0"/>
<feBlend mode="normal" in2="BackgroundImageFix" result="effect1_dropShadow"/>
<feColorMatrix in="SourceAlpha" type="matrix" values="0 0 0 0 0 0 0 0 0 0 0 0 0 0 0 0 0 0 127 0" result="hardAlpha"/>
<feOffset dy="3"/>
<feGaussianBlur stdDeviation="4"/>
<feColorMatrix type="matrix" values="0 0 0 0 0 0 0 0 0 0 0 0 0 0 0 0 0 0 0.15 0"/>
<feBlend mode="normal" in2="effect1_dropShadow" result="effect2_dropShadow"/>
<feBlend mode="normal" in="SourceGraphic" in2="effect2_dropShadow" result="shape"/>
</filter>
<filter id="filter1_d" x="263" y="1206" width="144" height="58" filterUnits="userSpaceOnUse" color-interpolation-filters="sRGB">
<feFlood flood-opacity="0" result="BackgroundImageFix"/>
<feColorMatrix in="SourceAlpha" type="matrix" values="0 0 0 0 0 0 0 0 0 0 0 0 0 0 0 0 0 0 127 0" result="hardAlpha"/>
<feOffset dy="3"/>
<feGaussianBlur stdDeviation="2"/>
<feColorMatrix type="matrix" values="0 0 0 0 0 0 0 0 0 0 0 0 0 0 0 0 0 0 0.16 0"/>
<feBlend mode="normal" in2="BackgroundImageFix" result="effect1_dropShadow"/>
<feBlend mode="normal" in="SourceGraphic" in2="effect1_dropShadow" result="shape"/>
</filter>
<clipPath id="clip0">
<rect width="375" height="1266" fill="white"/>
</clipPath>
</defs>
</svg>
