<svg width="375" height="667" viewBox="0 0 375 667" fill="none" xmlns="http://www.w3.org/2000/svg">
<g clip-path="url(#clip0)">
<rect width="375" height="667" fill="white"/>
<g opacity="0.5">
<circle cx="45" cy="231" r="13" fill="#FAFAFA"/>
<path fill-rule="evenodd" clip-rule="evenodd" d="M51.2222 225.889H38.7778C38.2869 225.889 37.8889 226.287 37.8889 226.778V235.444C37.8889 235.935 38.2869 236.333 38.7778 236.333H51.2222C51.7131 236.333 52.1111 235.935 52.1111 235.444V226.778C52.1111 226.287 51.7131 225.889 51.2222 225.889ZM38.7778 225C37.7959 225 37 225.796 37 226.778V235.444C37 236.426 37.7959 237.222 38.7778 237.222H51.2222C52.2041 237.222 53 236.426 53 235.444V226.778C53 225.796 52.2041 225 51.2222 225H38.7778Z" fill="#444444" stroke="#444444" stroke-width="0.1"/>
<path fill-rule="evenodd" clip-rule="evenodd" d="M51.2192 226.592C51.3834 226.775 51.3687 227.056 51.1862 227.22L47.0993 230.898L51.0837 234.678C51.2617 234.847 51.2691 235.129 51.1002 235.307C50.9313 235.485 50.65 235.492 50.4719 235.323L46.4403 231.498L45.3015 232.55C45.1312 232.707 44.8688 232.707 44.6985 232.55L43.5636 231.502L39.7544 235.208C39.5784 235.379 39.2971 235.376 39.1259 235.2C38.9547 235.024 38.9586 234.742 39.1345 234.571L42.9095 230.898L38.9208 227.216C38.7404 227.05 38.7291 226.769 38.8956 226.588C39.0621 226.408 39.3433 226.397 39.5237 226.563L45 231.618L46.143 230.563L46.1471 230.559L50.5916 226.559C50.774 226.395 51.055 226.41 51.2192 226.592Z" fill="#444444" stroke="#444444" stroke-width="0.1" stroke-linecap="round" stroke-linejoin="round"/>
</g>
<path opacity="0.5" d="M71.3352 237H72.3466V231.364C72.3466 230.068 73.3409 229.131 74.7045 229.131C74.9716 229.131 75.2216 229.176 75.3125 229.188V228.159C75.1761 228.153 74.9432 228.142 74.7784 228.142C73.6818 228.142 72.7443 228.733 72.392 229.614H72.3182V228.273H71.3352V237ZM77.0497 237H78.0668V228.273H77.0497V237ZM77.5668 226.773C77.9815 226.773 78.3281 226.443 78.3281 226.045C78.3281 225.648 77.9815 225.318 77.5668 225.318C77.152 225.318 76.8111 225.648 76.8111 226.045C76.8111 226.443 77.152 226.773 77.5668 226.773ZM84.1506 237.182C85.9688 237.182 87.2472 236.034 87.4801 234.455H86.4574C86.2244 235.568 85.3097 236.256 84.1506 236.256C82.4403 236.256 81.3097 234.767 81.3097 232.642C81.3097 230.528 82.4744 229.074 84.1506 229.074C85.3949 229.074 86.2358 229.875 86.4517 230.864H87.4744C87.2358 229.244 85.8835 228.153 84.1335 228.153C81.8494 228.153 80.2926 230.051 80.2926 232.676C80.2926 235.278 81.804 237.182 84.1506 237.182ZM90.6591 231.545C90.6591 230.023 91.6818 229.085 93.0795 229.085C94.4318 229.085 95.2955 229.972 95.2955 231.409V237H96.3125V231.347C96.3125 229.267 95.108 228.159 93.3352 228.159C92.017 228.159 91.1591 228.739 90.75 229.642H90.6591V225.364H89.6477V237H90.6591V231.545ZM101.413 237.199C102.868 237.199 103.754 236.392 104.118 235.619H104.18V237H105.192V231.074C105.192 228.733 103.43 228.153 102.095 228.153C100.76 228.153 99.3849 228.682 98.794 230.108L99.7543 230.455C100.072 229.705 100.862 229.062 102.124 229.062C103.447 229.062 104.18 229.79 104.18 230.983V231.188C104.18 231.847 103.362 231.858 101.896 232.04C99.9247 232.284 98.544 232.835 98.544 234.562C98.544 236.244 99.8281 237.199 101.413 237.199ZM101.55 236.273C100.408 236.273 99.5554 235.665 99.5554 234.608C99.5554 233.551 100.419 233.108 101.896 232.926C102.612 232.841 103.885 232.682 104.18 232.392V233.653C104.18 235.085 103.163 236.273 101.55 236.273ZM107.882 237H108.893V231.364C108.893 230.068 109.888 229.131 111.251 229.131C111.518 229.131 111.768 229.176 111.859 229.188V228.159C111.723 228.153 111.49 228.142 111.325 228.142C110.229 228.142 109.291 228.733 108.939 229.614H108.865V228.273H107.882V237ZM116.462 237.182C118.047 237.182 118.786 236.176 119.143 235.381H119.263V237H120.251V225.364H119.234V229.938H119.143C118.797 229.153 118.075 228.153 116.479 228.153C114.325 228.153 112.871 229.972 112.871 232.659C112.871 235.369 114.32 237.182 116.462 237.182ZM116.581 236.256C114.842 236.256 113.888 234.676 113.888 232.642C113.888 230.631 114.831 229.074 116.581 229.074C118.286 229.074 119.251 230.551 119.251 232.642C119.251 234.75 118.274 236.256 116.581 236.256ZM124.143 231.545C124.143 230.023 125.166 229.085 126.564 229.085C127.916 229.085 128.78 229.972 128.78 231.409V237H129.797V231.347C129.797 229.267 128.592 228.159 126.82 228.159C125.501 228.159 124.643 228.739 124.234 229.642H124.143V225.364H123.132V237H124.143V231.545ZM135.989 237.182C137.739 237.182 138.915 236.233 139.312 235.136L138.352 234.824C138.017 235.608 137.227 236.256 135.989 236.256C134.205 236.256 133.074 234.955 133.028 232.938H139.528V232.438C139.528 229.523 137.727 228.153 135.835 228.153C133.574 228.153 132.011 230.045 132.011 232.688C132.011 235.335 133.545 237.182 135.989 237.182ZM133.034 232.045C133.142 230.42 134.239 229.074 135.835 229.074C137.398 229.074 138.494 230.364 138.494 232.045H133.034ZM142.768 231.545C142.768 230.023 143.768 229.085 145.143 229.085C146.484 229.085 147.348 229.983 147.348 231.409V237H148.359V231.347C148.359 229.278 147.161 228.159 145.399 228.159C144.121 228.159 143.24 228.75 142.831 229.642H142.74V228.273H141.757V237H142.768V231.545ZM154.165 237.182C155.75 237.182 156.489 236.176 156.847 235.381H156.966V237H157.955V225.364H156.938V229.938H156.847C156.5 229.153 155.778 228.153 154.182 228.153C152.028 228.153 150.574 229.972 150.574 232.659C150.574 235.369 152.023 237.182 154.165 237.182ZM154.284 236.256C152.545 236.256 151.591 234.676 151.591 232.642C151.591 230.631 152.534 229.074 154.284 229.074C155.989 229.074 156.955 230.551 156.955 232.642C156.955 234.75 155.977 236.256 154.284 236.256ZM160.835 237H161.847V231.364C161.847 230.068 162.841 229.131 164.205 229.131C164.472 229.131 164.722 229.176 164.812 229.188V228.159C164.676 228.153 164.443 228.142 164.278 228.142C163.182 228.142 162.244 228.733 161.892 229.614H161.818V228.273H160.835V237ZM166.55 237H167.567V228.273H166.55V237ZM167.067 226.773C167.482 226.773 167.828 226.443 167.828 226.045C167.828 225.648 167.482 225.318 167.067 225.318C166.652 225.318 166.311 225.648 166.311 226.045C166.311 226.443 166.652 226.773 167.067 226.773ZM173.651 237.182C175.469 237.182 176.747 236.034 176.98 234.455H175.957C175.724 235.568 174.81 236.256 173.651 236.256C171.94 236.256 170.81 234.767 170.81 232.642C170.81 230.528 171.974 229.074 173.651 229.074C174.895 229.074 175.736 229.875 175.952 230.864H176.974C176.736 229.244 175.384 228.153 173.634 228.153C171.349 228.153 169.793 230.051 169.793 232.676C169.793 235.278 171.304 237.182 173.651 237.182ZM179.148 237H180.159V233.619L181.165 232.676L184.585 237H185.881L181.92 232.011L185.653 228.273H184.375L180.284 232.381H180.159V225.364H179.148V237ZM193.418 230.188C192.991 228.926 192.06 228.153 190.463 228.153C188.702 228.153 187.423 229.159 187.423 230.597C187.423 231.767 188.134 232.562 189.651 232.926L191.077 233.267C192.037 233.494 192.497 233.989 192.497 234.688C192.497 235.597 191.628 236.273 190.287 236.273C189.094 236.273 188.349 235.733 188.105 234.699L187.134 234.938C187.44 236.392 188.594 237.182 190.304 237.182C192.224 237.182 193.543 236.125 193.543 234.642C193.543 233.477 192.81 232.699 191.349 232.341L190.031 232.017C188.946 231.744 188.44 231.307 188.44 230.551C188.44 229.665 189.287 229.045 190.463 229.045C191.639 229.045 192.219 229.665 192.491 230.449L193.418 230.188ZM202.212 240.074C203.422 240.074 204.831 239.71 205.666 239.256L205.376 238.46C204.763 238.795 203.49 239.227 202.24 239.227C198.484 239.227 196.155 236.767 196.155 232.938C196.155 229.159 198.513 226.636 202.058 226.636C205.626 226.636 207.712 229.341 207.712 232.29C207.712 234.636 207.189 235.869 205.95 235.869C205.268 235.869 204.967 235.403 204.967 234.608V229.341H204.041V230.369H203.984C203.695 229.653 202.757 229.108 201.598 229.182C199.859 229.301 198.518 230.801 198.518 232.864C198.518 235 199.678 236.665 201.598 236.71C202.859 236.744 203.666 236.062 204.03 235.244H204.087C204.178 236.324 205.104 236.705 205.939 236.705C208.081 236.705 208.621 234.46 208.621 232.301C208.621 228.909 206.166 225.801 202.104 225.801C197.945 225.801 195.2 228.636 195.2 232.909C195.2 237.278 197.882 240.074 202.212 240.074ZM201.717 235.818C200.212 235.818 199.428 234.415 199.428 232.818C199.428 231.312 200.359 230.045 201.746 230.045C203.178 230.045 204.087 230.915 204.087 232.818C204.087 234.71 203.257 235.818 201.717 235.818ZM210.724 240.273H211.741V235.381H211.832C212.179 236.182 212.929 237.182 214.514 237.182C216.651 237.182 218.105 235.364 218.105 232.659C218.105 229.966 216.656 228.153 214.497 228.153C212.895 228.153 212.185 229.153 211.832 229.938H211.707V228.273H210.724V240.273ZM211.724 232.642C211.724 230.551 212.685 229.074 214.389 229.074C216.145 229.074 217.088 230.631 217.088 232.642C217.088 234.676 216.128 236.256 214.389 236.256C212.702 236.256 211.724 234.75 211.724 232.642ZM220.331 237H221.348V228.273H220.331V237ZM220.848 226.773C221.263 226.773 221.609 226.443 221.609 226.045C221.609 225.648 221.263 225.318 220.848 225.318C220.433 225.318 220.092 225.648 220.092 226.045C220.092 226.443 220.433 226.773 220.848 226.773ZM227.551 237.182C229.301 237.182 230.477 236.233 230.875 235.136L229.915 234.824C229.58 235.608 228.79 236.256 227.551 236.256C225.767 236.256 224.636 234.955 224.591 232.938H231.091V232.438C231.091 229.523 229.29 228.153 227.398 228.153C225.136 228.153 223.574 230.045 223.574 232.688C223.574 235.335 225.108 237.182 227.551 237.182ZM224.597 232.045C224.705 230.42 225.801 229.074 227.398 229.074C228.96 229.074 230.057 230.364 230.057 232.045H224.597ZM236.462 237.182C238.047 237.182 238.786 236.176 239.143 235.381H239.263V237H240.251V225.364H239.234V229.938H239.143C238.797 229.153 238.075 228.153 236.479 228.153C234.325 228.153 232.871 229.972 232.871 232.659C232.871 235.369 234.32 237.182 236.462 237.182ZM236.581 236.256C234.842 236.256 233.888 234.676 233.888 232.642C233.888 230.631 234.831 229.074 236.581 229.074C238.286 229.074 239.251 230.551 239.251 232.642C239.251 234.75 238.274 236.256 236.581 236.256ZM243.115 240.273H244.132V235.381H244.223C244.57 236.182 245.32 237.182 246.905 237.182C249.041 237.182 250.496 235.364 250.496 232.659C250.496 229.966 249.047 228.153 246.888 228.153C245.286 228.153 244.575 229.153 244.223 229.938H244.098V228.273H243.115V240.273ZM244.115 232.642C244.115 230.551 245.075 229.074 246.78 229.074C248.536 229.074 249.479 230.631 249.479 232.642C249.479 234.676 248.518 236.256 246.78 236.256C245.092 236.256 244.115 234.75 244.115 232.642ZM252.722 237H253.739V228.273H252.722V237ZM253.239 226.773C253.653 226.773 254 226.443 254 226.045C254 225.648 253.653 225.318 253.239 225.318C252.824 225.318 252.483 225.648 252.483 226.045C252.483 226.443 252.824 226.773 253.239 226.773ZM256.396 240.273H257.413V235.381H257.504C257.851 236.182 258.601 237.182 260.186 237.182C262.322 237.182 263.777 235.364 263.777 232.659C263.777 229.966 262.328 228.153 260.169 228.153C258.567 228.153 257.857 229.153 257.504 229.938H257.379V228.273H256.396V240.273ZM257.396 232.642C257.396 230.551 258.357 229.074 260.061 229.074C261.817 229.074 262.76 230.631 262.76 232.642C262.76 234.676 261.8 236.256 260.061 236.256C258.374 236.256 257.396 234.75 257.396 232.642ZM269.52 237.182C271.27 237.182 272.446 236.233 272.844 235.136L271.884 234.824C271.548 235.608 270.759 236.256 269.52 236.256C267.736 236.256 266.605 234.955 266.56 232.938H273.06V232.438C273.06 229.523 271.259 228.153 269.366 228.153C267.105 228.153 265.543 230.045 265.543 232.688C265.543 235.335 267.077 237.182 269.52 237.182ZM266.565 232.045C266.673 230.42 267.77 229.074 269.366 229.074C270.929 229.074 272.026 230.364 272.026 232.045H266.565ZM275.288 237H276.3V231.364C276.3 230.068 277.294 229.131 278.658 229.131C278.925 229.131 279.175 229.176 279.266 229.188V228.159C279.129 228.153 278.896 228.142 278.732 228.142C277.635 228.142 276.697 228.733 276.345 229.614H276.271V228.273H275.288V237ZM280.798 237.085C281.253 237.085 281.616 236.716 281.616 236.267C281.616 235.812 281.253 235.449 280.798 235.449C280.349 235.449 279.98 235.812 279.98 236.267C279.98 236.716 280.349 237.085 280.798 237.085ZM287.697 237.182C289.516 237.182 290.794 236.034 291.027 234.455H290.004C289.771 235.568 288.857 236.256 287.697 236.256C285.987 236.256 284.857 234.767 284.857 232.642C284.857 230.528 286.021 229.074 287.697 229.074C288.942 229.074 289.783 229.875 289.999 230.864H291.021C290.783 229.244 289.43 228.153 287.68 228.153C285.396 228.153 283.839 230.051 283.839 232.676C283.839 235.278 285.351 237.182 287.697 237.182ZM296.587 237.182C298.848 237.182 300.428 235.335 300.428 232.676C300.428 230 298.848 228.153 296.587 228.153C294.325 228.153 292.746 230 292.746 232.676C292.746 235.335 294.325 237.182 296.587 237.182ZM296.587 236.256C294.774 236.256 293.763 234.631 293.763 232.676C293.763 230.722 294.774 229.074 296.587 229.074C298.399 229.074 299.411 230.722 299.411 232.676C299.411 234.631 298.399 236.256 296.587 236.256ZM302.648 237H303.659V231.409C303.659 230.051 304.562 229.085 305.773 229.085C306.966 229.085 307.659 229.881 307.659 231.062V237H308.693V231.256C308.693 230 309.443 229.085 310.773 229.085C311.926 229.085 312.693 229.778 312.693 231.153V237H313.705V231.153C313.705 229.199 312.699 228.159 311.08 228.159C309.807 228.159 308.886 228.778 308.494 229.744H308.42C308.034 228.756 307.267 228.159 306.062 228.159C304.92 228.159 304.068 228.71 303.722 229.614H303.631V228.273H302.648V237Z" fill="#444444"/>
<rect x="16.5" y="206.5" width="342" height="49" rx="5.5" stroke="#BBBBBB"/>
<g opacity="0.5">
<circle cx="45" cy="297" r="13" fill="#FAFAFA"/>
<path d="M39.4338 289.231C39.7034 288.93 40.1726 288.922 40.4522 289.214L43.7744 292.687C44.0351 292.96 44.0303 293.391 43.7636 293.658L42.4659 294.955C42.2055 295.216 42.1119 295.571 42.221 295.873C42.8531 297.621 44.3359 299.31 46.5687 299.821C46.8743 299.891 47.2088 299.764 47.4383 299.489L48.4462 298.279C48.7115 297.961 49.1949 297.944 49.4811 298.244L52.6276 301.541C52.8825 301.808 52.8837 302.228 52.6301 302.496L51.1635 304.049C50.3087 304.954 48.9825 305.276 47.8289 304.739C46.0249 303.898 43.1235 302.335 41.0781 300.175C39.0663 298.052 37.836 295.583 37.2029 294.056C36.7784 293.033 37.0461 291.9 37.7626 291.099L39.4338 289.231Z" stroke="#444444" stroke-linecap="round" stroke-linejoin="round"/>
</g>
<path opacity="0.5" d="M71.5455 303H72.608V298.551H75.3182C77.7784 298.551 79.0511 296.989 79.0511 294.955C79.0511 292.92 77.7784 291.364 75.3011 291.364H71.5455V303ZM72.608 297.597V292.318H75.2727C77.1136 292.318 78.0057 293.426 78.0057 294.955C78.0057 296.477 77.1136 297.597 75.2898 297.597H72.608ZM82.3466 297.545C82.3466 296.023 83.3693 295.085 84.767 295.085C86.1193 295.085 86.983 295.972 86.983 297.409V303H88V297.347C88 295.267 86.7955 294.159 85.0227 294.159C83.7045 294.159 82.8466 294.739 82.4375 295.642H82.3466V291.364H81.3352V303H82.3466V297.545ZM94.0554 303.182C96.3168 303.182 97.8963 301.335 97.8963 298.676C97.8963 296 96.3168 294.153 94.0554 294.153C91.794 294.153 90.2145 296 90.2145 298.676C90.2145 301.335 91.794 303.182 94.0554 303.182ZM94.0554 302.256C92.2429 302.256 91.2315 300.631 91.2315 298.676C91.2315 296.722 92.2429 295.074 94.0554 295.074C95.8679 295.074 96.8793 296.722 96.8793 298.676C96.8793 300.631 95.8679 302.256 94.0554 302.256ZM101.128 297.545C101.128 296.023 102.128 295.085 103.503 295.085C104.844 295.085 105.707 295.983 105.707 297.409V303H106.719V297.347C106.719 295.278 105.52 294.159 103.759 294.159C102.48 294.159 101.599 294.75 101.19 295.642H101.099V294.273H100.116V303H101.128V297.545ZM112.911 303.182C114.661 303.182 115.837 302.233 116.234 301.136L115.274 300.824C114.939 301.608 114.149 302.256 112.911 302.256C111.126 302.256 109.996 300.955 109.95 298.938H116.45V298.438C116.45 295.523 114.649 294.153 112.757 294.153C110.496 294.153 108.933 296.045 108.933 298.688C108.933 301.335 110.467 303.182 112.911 303.182ZM109.956 298.045C110.064 296.42 111.161 295.074 112.757 295.074C114.32 295.074 115.416 296.364 115.416 298.045H109.956ZM124.19 297.545C124.19 296.023 125.19 295.085 126.565 295.085C127.906 295.085 128.77 295.983 128.77 297.409V303H129.781V297.347C129.781 295.278 128.582 294.159 126.821 294.159C125.543 294.159 124.662 294.75 124.253 295.642H124.162V294.273H123.179V303H124.19V297.545ZM137.99 299.665C137.99 301.267 136.786 302.131 135.604 302.131C134.342 302.131 133.456 301.227 133.456 299.864V294.273H132.445V299.926C132.445 301.994 133.638 303.114 135.314 303.114C136.592 303.114 137.501 302.449 137.911 301.551H137.99V303H139.001V294.273H137.99V299.665ZM141.679 303H142.69V297.409C142.69 296.051 143.594 295.085 144.804 295.085C145.997 295.085 146.69 295.881 146.69 297.062V303H147.724V297.256C147.724 296 148.474 295.085 149.804 295.085C150.957 295.085 151.724 295.778 151.724 297.153V303H152.736V297.153C152.736 295.199 151.73 294.159 150.111 294.159C148.838 294.159 147.918 294.778 147.526 295.744H147.452C147.065 294.756 146.298 294.159 145.094 294.159C143.952 294.159 143.099 294.71 142.753 295.614H142.662V294.273H141.679V303ZM155.624 303H156.607V301.381H156.732C157.084 302.182 157.822 303.182 159.413 303.182C161.555 303.182 163.004 301.369 163.004 298.659C163.004 295.972 161.55 294.153 159.396 294.153C157.8 294.153 157.078 295.153 156.732 295.938H156.641V291.364H155.624V303ZM156.624 298.642C156.624 296.551 157.584 295.074 159.288 295.074C161.038 295.074 161.987 296.631 161.987 298.642C161.987 300.676 161.027 302.256 159.288 302.256C157.595 302.256 156.624 300.75 156.624 298.642ZM168.754 303.182C170.504 303.182 171.68 302.233 172.078 301.136L171.118 300.824C170.783 301.608 169.993 302.256 168.754 302.256C166.97 302.256 165.839 300.955 165.794 298.938H172.294V298.438C172.294 295.523 170.493 294.153 168.601 294.153C166.339 294.153 164.777 296.045 164.777 298.688C164.777 301.335 166.311 303.182 168.754 303.182ZM165.8 298.045C165.908 296.42 167.004 295.074 168.601 295.074C170.163 295.074 171.26 296.364 171.26 298.045H165.8ZM174.523 303H175.534V297.364C175.534 296.068 176.528 295.131 177.892 295.131C178.159 295.131 178.409 295.176 178.5 295.188V294.159C178.364 294.153 178.131 294.142 177.966 294.142C176.869 294.142 175.932 294.733 175.58 295.614H175.506V294.273H174.523V303ZM185.146 298.091C185.146 300.812 185.862 303.233 187.146 305.364H188.067C186.964 303.585 186.192 300.71 186.192 298.091C186.192 295.477 186.959 292.602 188.067 290.818H187.146C185.862 292.938 185.146 295.364 185.146 298.091ZM193.477 303.182C195.739 303.182 197.318 301.335 197.318 298.676C197.318 296 195.739 294.153 193.477 294.153C191.216 294.153 189.636 296 189.636 298.676C189.636 301.335 191.216 303.182 193.477 303.182ZM193.477 302.256C191.665 302.256 190.653 300.631 190.653 298.676C190.653 296.722 191.665 295.074 193.477 295.074C195.29 295.074 196.301 296.722 196.301 298.676C196.301 300.631 195.29 302.256 193.477 302.256ZM199.521 306.273H200.538V301.381H200.629C200.976 302.182 201.726 303.182 203.311 303.182C205.447 303.182 206.902 301.364 206.902 298.659C206.902 295.966 205.453 294.153 203.294 294.153C201.692 294.153 200.982 295.153 200.629 295.938H200.504V294.273H199.521V306.273ZM200.521 298.642C200.521 296.551 201.482 295.074 203.186 295.074C204.942 295.074 205.885 296.631 205.885 298.642C205.885 300.676 204.925 302.256 203.186 302.256C201.499 302.256 200.521 300.75 200.521 298.642ZM212.554 294.273H210.707V292.182H209.69V294.273H208.389V295.153H209.69V300.96C209.69 302.386 210.815 303.131 211.935 303.131C212.355 303.131 212.639 303.051 212.832 302.977L212.616 302.062C212.474 302.102 212.293 302.142 212.026 302.142C211.338 302.142 210.707 301.818 210.707 300.722V295.153H212.554V294.273ZM214.862 303H215.879V294.273H214.862V303ZM215.379 292.773C215.794 292.773 216.141 292.443 216.141 292.045C216.141 291.648 215.794 291.318 215.379 291.318C214.964 291.318 214.624 291.648 214.624 292.045C214.624 292.443 214.964 292.773 215.379 292.773ZM221.946 303.182C224.207 303.182 225.787 301.335 225.787 298.676C225.787 296 224.207 294.153 221.946 294.153C219.685 294.153 218.105 296 218.105 298.676C218.105 301.335 219.685 303.182 221.946 303.182ZM221.946 302.256C220.134 302.256 219.122 300.631 219.122 298.676C219.122 296.722 220.134 295.074 221.946 295.074C223.759 295.074 224.77 296.722 224.77 298.676C224.77 300.631 223.759 302.256 221.946 302.256ZM229.018 297.545C229.018 296.023 230.018 295.085 231.393 295.085C232.734 295.085 233.598 295.983 233.598 297.409V303H234.609V297.347C234.609 295.278 233.411 294.159 231.649 294.159C230.371 294.159 229.49 294.75 229.081 295.642H228.99V294.273H228.007V303H229.018V297.545ZM239.71 303.199C241.165 303.199 242.051 302.392 242.415 301.619H242.477V303H243.489V297.074C243.489 294.733 241.727 294.153 240.392 294.153C239.057 294.153 237.682 294.682 237.091 296.108L238.051 296.455C238.369 295.705 239.159 295.062 240.42 295.062C241.744 295.062 242.477 295.79 242.477 296.983V297.188C242.477 297.847 241.659 297.858 240.193 298.04C238.222 298.284 236.841 298.835 236.841 300.562C236.841 302.244 238.125 303.199 239.71 303.199ZM239.847 302.273C238.705 302.273 237.852 301.665 237.852 300.608C237.852 299.551 238.716 299.108 240.193 298.926C240.909 298.841 242.182 298.682 242.477 298.392V299.653C242.477 301.085 241.46 302.273 239.847 302.273ZM247.19 291.364H246.179V303H247.19V291.364ZM252.321 298.091C252.321 295.369 251.605 292.949 250.321 290.818H249.401C250.503 292.597 251.276 295.472 251.276 298.091C251.276 300.705 250.509 303.58 249.401 305.364H250.321C251.605 303.244 252.321 300.818 252.321 298.091Z" fill="#444444"/>
<rect x="16.5" y="272.5" width="342" height="49" rx="5.5" stroke="#BBBBBB"/>
<path d="M17.7699 149H22.0753V140.588H30.8153V149H35.1108V128.636H30.8153V137.038H22.0753V128.636H17.7699V149ZM45.2015 149.298C49.8351 149.298 52.7186 146.126 52.7186 141.423C52.7186 136.69 49.8351 133.528 45.2015 133.528C40.568 133.528 37.6845 136.69 37.6845 141.423C37.6845 146.126 40.568 149.298 45.2015 149.298ZM45.2214 146.017C43.0836 146.017 41.9899 144.058 41.9899 141.393C41.9899 138.729 43.0836 136.76 45.2214 136.76C47.3194 136.76 48.4132 138.729 48.4132 141.393C48.4132 144.058 47.3194 146.017 45.2214 146.017ZM57.8228 149H62.2972L64.9222 139.395H65.1112L67.7362 149H72.2205L76.3668 133.727H72.0913L69.7646 143.929H69.6353L67.1296 133.727H62.9237L60.4578 143.989H60.3185L57.9521 133.727H53.6666L57.8228 149ZM90.1747 149.249C92.6407 149.249 93.9233 147.827 94.51 146.554H94.6889V149H98.8651V128.636H94.6392V136.293H94.51C93.9432 135.05 92.7202 133.528 90.1648 133.528C86.8139 133.528 83.9801 136.134 83.9801 141.384C83.9801 146.494 86.6946 149.249 90.1747 149.249ZM91.5171 145.878C89.4389 145.878 88.3054 144.028 88.3054 141.364C88.3054 138.719 89.4191 136.899 91.5171 136.899C93.5753 136.899 94.7287 138.639 94.7287 141.364C94.7287 144.088 93.5554 145.878 91.5171 145.878ZM108.968 149.298C113.602 149.298 116.485 146.126 116.485 141.423C116.485 136.69 113.602 133.528 108.968 133.528C104.335 133.528 101.451 136.69 101.451 141.423C101.451 146.126 104.335 149.298 108.968 149.298ZM108.988 146.017C106.85 146.017 105.757 144.058 105.757 141.393C105.757 138.729 106.85 136.76 108.988 136.76C111.086 136.76 112.18 138.729 112.18 141.393C112.18 144.058 111.086 146.017 108.988 146.017ZM128.173 149H132.647L135.272 139.395H135.461L138.086 149H142.571L146.717 133.727H142.441L140.115 143.929H139.985L137.48 133.727H133.274L130.808 143.989H130.669L128.302 133.727H124.017L128.173 149ZM155.274 149.298C159.052 149.298 161.598 147.459 162.194 144.625L158.277 144.366C157.849 145.53 156.755 146.136 155.343 146.136C153.226 146.136 151.883 144.734 151.883 142.457V142.447H162.284V141.284C162.284 136.094 159.142 133.528 155.105 133.528C150.61 133.528 147.697 136.72 147.697 141.433C147.697 146.276 150.571 149.298 155.274 149.298ZM151.883 139.822C151.973 138.082 153.295 136.69 155.174 136.69C157.014 136.69 158.287 138.003 158.297 139.822H151.883ZM177.869 149.298C181.936 149.298 184.491 146.912 184.69 143.402H180.693C180.444 145.033 179.37 145.947 177.919 145.947C175.94 145.947 174.657 144.287 174.657 141.364C174.657 138.48 175.95 136.83 177.919 136.83C179.47 136.83 180.464 137.854 180.693 139.375H184.69C184.511 135.845 181.836 133.528 177.849 133.528C173.216 133.528 170.352 136.74 170.352 141.423C170.352 146.067 173.166 149.298 177.869 149.298ZM194.023 149.298C198.656 149.298 201.54 146.126 201.54 141.423C201.54 136.69 198.656 133.528 194.023 133.528C189.389 133.528 186.506 136.69 186.506 141.423C186.506 146.126 189.389 149.298 194.023 149.298ZM194.043 146.017C191.905 146.017 190.811 144.058 190.811 141.393C190.811 138.729 191.905 136.76 194.043 136.76C196.141 136.76 197.234 138.729 197.234 141.393C197.234 144.058 196.141 146.017 194.043 146.017ZM208.25 140.17C208.26 138.202 209.433 137.048 211.143 137.048C212.843 137.048 213.868 138.162 213.858 140.031V149H218.093V139.276C218.093 135.716 216.005 133.528 212.824 133.528C210.557 133.528 208.916 134.642 208.23 136.422H208.051V133.727H204.014V149H208.25V140.17ZM229.275 133.727H226.402V130.068H222.166V133.727H220.078V136.909H222.166V144.864C222.146 147.857 224.185 149.338 227.257 149.209C228.351 149.169 229.126 148.95 229.554 148.811L228.888 145.659C228.679 145.699 228.231 145.798 227.834 145.798C226.989 145.798 226.402 145.48 226.402 144.307V136.909H229.275V133.727ZM236.11 149.288C238.367 149.288 239.829 148.304 240.574 146.882H240.694V149H244.711V138.699C244.711 135.06 241.628 133.528 238.228 133.528C234.569 133.528 232.162 135.278 231.576 138.062L235.493 138.381C235.782 137.366 236.687 136.621 238.208 136.621C239.65 136.621 240.475 137.347 240.475 138.599V138.659C240.475 139.643 239.431 139.773 236.776 140.031C233.753 140.31 231.039 141.324 231.039 144.734C231.039 147.757 233.196 149.288 236.11 149.288ZM237.323 146.365C236.02 146.365 235.086 145.759 235.086 144.595C235.086 143.402 236.07 142.815 237.562 142.607C238.486 142.477 239.998 142.259 240.505 141.92V143.541C240.505 145.142 239.182 146.365 237.323 146.365ZM254.617 149.298C258.684 149.298 261.24 146.912 261.438 143.402H257.441C257.193 145.033 256.119 145.947 254.667 145.947C252.688 145.947 251.406 144.287 251.406 141.364C251.406 138.48 252.698 136.83 254.667 136.83C256.218 136.83 257.213 137.854 257.441 139.375H261.438C261.26 135.845 258.585 133.528 254.598 133.528C249.964 133.528 247.1 136.74 247.1 141.423C247.1 146.067 249.914 149.298 254.617 149.298ZM271.994 133.727H269.121V130.068H264.885V133.727H262.797V136.909H264.885V144.864C264.865 147.857 266.903 149.338 269.976 149.209C271.069 149.169 271.845 148.95 272.272 148.811L271.606 145.659C271.397 145.699 270.95 145.798 270.552 145.798C269.707 145.798 269.121 145.48 269.121 144.307V136.909H271.994V133.727ZM283.289 154.727C286.441 154.727 288.111 153.116 288.976 150.651L294.912 133.747L290.428 133.727L287.236 144.943H287.077L283.915 133.727H279.461L284.939 149.438L284.691 150.084C284.134 151.516 283.07 151.585 281.579 151.128L280.624 154.29C281.231 154.548 282.215 154.727 283.289 154.727ZM303.181 149.298C307.815 149.298 310.698 146.126 310.698 141.423C310.698 136.69 307.815 133.528 303.181 133.528C298.548 133.528 295.664 136.69 295.664 141.423C295.664 146.126 298.548 149.298 303.181 149.298ZM303.201 146.017C301.063 146.017 299.969 144.058 299.969 141.393C299.969 138.729 301.063 136.76 303.201 136.76C305.299 136.76 306.393 138.729 306.393 141.393C306.393 144.058 305.299 146.017 303.201 146.017ZM322.966 142.497C322.976 144.545 321.574 145.619 320.053 145.619C318.452 145.619 317.418 144.496 317.408 142.696V133.727H313.172V143.452C313.182 147.021 315.27 149.199 318.343 149.199C320.64 149.199 322.29 148.016 322.976 146.226H323.135V149H327.202V133.727H322.966V142.497ZM333.95 142.895H337.718V142.557C337.738 140.618 338.434 139.713 340.005 138.768C341.864 137.665 343.077 136.203 343.077 133.866C343.077 130.386 340.273 128.358 336.326 128.358C332.717 128.358 329.773 130.247 329.684 134.224H333.741C333.8 132.604 335.004 131.739 336.306 131.739C337.648 131.739 338.732 132.634 338.732 134.016C338.732 135.318 337.788 136.183 336.565 136.959C334.894 138.013 333.959 139.077 333.95 142.557V142.895ZM335.908 149.259C337.181 149.259 338.285 148.195 338.295 146.872C338.285 145.57 337.181 144.506 335.908 144.506C334.596 144.506 333.512 145.57 333.522 146.872C333.512 148.195 334.596 149.259 335.908 149.259Z" fill="#555555"/>
<rect x="375" y="68" width="375" height="68" transform="rotate(-180 375 68)" fill="white"/>
<path d="M155.636 29.3438H158.678C158.619 26.3949 156.104 24.3068 152.389 24.3068C148.724 24.3068 145.971 26.3693 145.979 29.4545C145.979 31.9602 147.761 33.4006 150.633 34.142L152.619 34.6534C154.502 35.1307 155.746 35.7188 155.755 37.0739C155.746 38.5653 154.332 39.5625 152.269 39.5625C150.292 39.5625 148.758 38.6761 148.63 36.8438H145.519C145.647 40.3125 148.229 42.2642 152.295 42.2642C156.479 42.2642 158.908 40.1761 158.917 37.0994C158.908 34.0739 156.411 32.6932 153.786 32.071L152.15 31.6619C150.718 31.321 149.167 30.7159 149.184 29.2585C149.192 27.946 150.369 26.983 152.346 26.983C154.229 26.983 155.474 27.8608 155.636 29.3438ZM161.119 42H164.205V28.9091H161.119V42ZM162.671 27.0511C163.651 27.0511 164.452 26.3011 164.452 25.3807C164.452 24.4517 163.651 23.7017 162.671 23.7017C161.682 23.7017 160.881 24.4517 160.881 25.3807C160.881 26.3011 161.682 27.0511 162.671 27.0511ZM172.59 47.1818C176.127 47.1818 178.735 45.5625 178.735 42.2131V28.9091H175.693V31.0739H175.522C175.054 30.1278 174.073 28.7386 171.764 28.7386C168.738 28.7386 166.36 31.108 166.36 35.4119C166.36 39.6818 168.738 41.8125 171.755 41.8125C173.997 41.8125 175.045 40.6108 175.522 39.6477H175.676V42.1278C175.676 44.054 174.397 44.8466 172.642 44.8466C170.784 44.8466 169.965 43.9688 169.59 43.2017L166.812 43.875C167.375 45.7074 169.258 47.1818 172.59 47.1818ZM172.616 39.392C170.579 39.392 169.505 37.8068 169.505 35.3949C169.505 33.017 170.562 31.2699 172.616 31.2699C174.602 31.2699 175.693 32.9148 175.693 35.3949C175.693 37.892 174.585 39.392 172.616 39.392ZM184.502 34.3295C184.502 32.4375 185.645 31.3466 187.272 31.3466C188.866 31.3466 189.821 32.3949 189.821 34.142V42H192.906V33.6648C192.914 30.5284 191.125 28.7386 188.423 28.7386C186.463 28.7386 185.116 29.6761 184.52 31.1335H184.366V28.9091H181.417V42H184.502V34.3295ZM212.175 24.5455V35.6847C212.175 37.875 210.649 39.4432 208.254 39.4432C205.851 39.4432 204.334 37.875 204.334 35.6847V24.5455H201.172V35.9489C201.172 39.6989 203.984 42.2642 208.254 42.2642C212.507 42.2642 215.337 39.6989 215.337 35.9489V24.5455H212.175ZM218.157 46.9091H221.242V39.9375H221.37C221.856 40.892 222.87 42.2301 225.12 42.2301C228.205 42.2301 230.515 39.7841 230.515 35.4716C230.515 31.108 228.137 28.7386 225.111 28.7386C222.802 28.7386 221.839 30.1278 221.37 31.0739H221.191V28.9091H218.157V46.9091ZM221.183 35.4545C221.183 32.9148 222.273 31.2699 224.259 31.2699C226.313 31.2699 227.37 33.017 227.37 35.4545C227.37 37.9091 226.296 39.6989 224.259 39.6989C222.29 39.6989 221.183 37.9943 221.183 35.4545Z" fill="#555555"/>
<line x1="341" y1="41.8787" x2="355.849" y2="27.0294" stroke="#BBBBBB" stroke-width="3" stroke-linecap="round"/>
<line x1="341.121" y1="27" x2="355.971" y2="41.8492" stroke="#BBBBBB" stroke-width="3" stroke-linecap="round"/>
<rect y="68" width="375" height="4" fill="#DDDDDD"/>
<rect y="68" width="187.5" height="4" fill="#444444"/>
<rect y="599" width="375" height="68" fill="white"/>
<path d="M375 599H3.05176e-05" stroke="#DDDDDD"/>
<g filter="url(#filter0_d)">
<path d="M233 614C233 610.686 235.686 608 239 608H353C356.314 608 359 610.686 359 614V652C359 655.314 356.314 658 353 658H239C235.686 658 233 655.314 233 652V614Z" fill="#BBBBBB"/>
<path d="M271.943 631.148C271.545 628.659 269.597 627.205 267.136 627.205C264.125 627.205 261.903 629.46 261.903 633.182C261.903 636.903 264.114 639.159 267.136 639.159C269.693 639.159 271.562 637.557 271.943 635.256L270.17 635.25C269.869 636.739 268.619 637.557 267.148 637.557C265.153 637.557 263.648 636.028 263.648 633.182C263.648 630.358 265.148 628.807 267.153 628.807C268.636 628.807 269.881 629.642 270.17 631.148H271.943ZM277.584 639.176C280.044 639.176 281.652 637.375 281.652 634.676C281.652 631.96 280.044 630.159 277.584 630.159C275.124 630.159 273.516 631.96 273.516 634.676C273.516 637.375 275.124 639.176 277.584 639.176ZM277.589 637.75C275.982 637.75 275.232 636.347 275.232 634.67C275.232 633 275.982 631.58 277.589 631.58C279.186 631.58 279.936 633 279.936 634.67C279.936 636.347 279.186 637.75 277.589 637.75ZM285.247 633.818C285.247 632.426 286.099 631.631 287.281 631.631C288.435 631.631 289.134 632.386 289.134 633.653V639H290.832V633.449C290.832 631.29 289.645 630.159 287.861 630.159C286.548 630.159 285.69 630.767 285.287 631.693H285.179V630.273H283.548V639H285.247V633.818ZM297.185 630.273H295.395V628.182H293.696V630.273H292.418V631.636H293.696V636.79C293.69 638.375 294.901 639.142 296.241 639.114C296.781 639.108 297.145 639.006 297.344 638.932L297.037 637.528C296.923 637.551 296.713 637.602 296.44 637.602C295.889 637.602 295.395 637.42 295.395 636.438V631.636H297.185V630.273ZM299.064 639H300.763V630.273H299.064V639ZM299.922 628.926C300.507 628.926 300.996 628.472 300.996 627.915C300.996 627.358 300.507 626.898 299.922 626.898C299.331 626.898 298.848 627.358 298.848 627.915C298.848 628.472 299.331 628.926 299.922 628.926ZM304.747 633.818C304.747 632.426 305.599 631.631 306.781 631.631C307.935 631.631 308.634 632.386 308.634 633.653V639H310.332V633.449C310.332 631.29 309.145 630.159 307.361 630.159C306.048 630.159 305.19 630.767 304.787 631.693H304.679V630.273H303.048V639H304.747V633.818ZM318.139 635.381C318.145 636.864 317.043 637.568 316.088 637.568C315.037 637.568 314.31 636.807 314.31 635.619V630.273H312.611V635.824C312.611 637.989 313.798 639.114 315.474 639.114C316.787 639.114 317.679 638.42 318.082 637.489H318.173V639H319.844V630.273H318.139V635.381ZM325.888 639.176C327.791 639.176 329.138 638.239 329.524 636.818L327.916 636.528C327.609 637.352 326.871 637.773 325.905 637.773C324.45 637.773 323.473 636.83 323.428 635.148H329.632V634.545C329.632 631.392 327.746 630.159 325.768 630.159C323.337 630.159 321.734 632.011 321.734 634.693C321.734 637.403 323.314 639.176 325.888 639.176ZM323.433 633.875C323.501 632.636 324.399 631.562 325.78 631.562C327.098 631.562 327.962 632.54 327.967 633.875H323.433Z" fill="white"/>
</g>
<path d="M23.625 630.42H25.3182C25.267 628.557 23.6193 627.205 21.2557 627.205C18.9205 627.205 17.1307 628.54 17.1307 630.545C17.1307 632.165 18.2898 633.114 20.1591 633.619L21.5341 633.994C22.7784 634.324 23.7386 634.733 23.7386 635.767C23.7386 636.903 22.6534 637.653 21.1591 637.653C19.8068 637.653 18.6818 637.051 18.5795 635.784H16.8182C16.9318 637.892 18.5625 639.193 21.1705 639.193C23.9034 639.193 25.4773 637.756 25.4773 635.784C25.4773 633.688 23.608 632.875 22.1307 632.511L20.9943 632.216C20.0852 631.983 18.875 631.557 18.8807 630.443C18.8807 629.455 19.7841 628.722 21.2159 628.722C22.5511 628.722 23.5 629.347 23.625 630.42ZM27.4389 639H29.1378V635.903L29.9844 635.057L32.9503 639H35.0355L31.2628 634.017L34.7969 630.273H32.7628L29.2855 633.966H29.1378V627.364H27.4389V639ZM36.3452 639H38.044V630.273H36.3452V639ZM37.2031 628.926C37.7884 628.926 38.277 628.472 38.277 627.915C38.277 627.358 37.7884 626.898 37.2031 626.898C36.6122 626.898 36.1293 627.358 36.1293 627.915C36.1293 628.472 36.6122 628.926 37.2031 628.926ZM40.3295 642.273H42.0284V637.642H42.1307C42.4375 638.199 43.0625 639.17 44.6534 639.17C46.767 639.17 48.3011 637.477 48.3011 634.653C48.3011 631.824 46.7443 630.159 44.6364 630.159C43.017 630.159 42.4318 631.148 42.1307 631.688H41.9886V630.273H40.3295V642.273ZM41.9943 634.636C41.9943 632.812 42.7898 631.602 44.2727 631.602C45.8125 631.602 46.5852 632.903 46.5852 634.636C46.5852 636.386 45.7898 637.722 44.2727 637.722C42.8125 637.722 41.9943 636.472 41.9943 634.636ZM58.5923 630.273H56.7116V629.489C56.7116 628.716 57.0298 628.295 57.8594 628.295C58.2116 628.295 58.4616 628.375 58.6207 628.426L59.0185 627.051C58.7798 626.96 58.2855 626.818 57.598 626.818C56.2173 626.818 55.0071 627.625 55.0071 629.261V630.273H53.6605V631.636H55.0071V639H56.7116V631.636H58.5923V630.273ZM63.6776 639.176C66.1378 639.176 67.7457 637.375 67.7457 634.676C67.7457 631.96 66.1378 630.159 63.6776 630.159C61.2173 630.159 59.6094 631.96 59.6094 634.676C59.6094 637.375 61.2173 639.176 63.6776 639.176ZM63.6832 637.75C62.0753 637.75 61.3253 636.347 61.3253 634.67C61.3253 633 62.0753 631.58 63.6832 631.58C65.2798 631.58 66.0298 633 66.0298 634.67C66.0298 636.347 65.2798 637.75 63.6832 637.75ZM69.642 639H71.3409V633.67C71.3409 632.528 72.2216 631.705 73.4261 631.705C73.7784 631.705 74.1761 631.767 74.3125 631.807V630.182C74.142 630.159 73.8068 630.142 73.5909 630.142C72.5682 630.142 71.6932 630.722 71.375 631.659H71.2841V630.273H69.642V639ZM81.7159 633.818C81.7159 632.426 82.5682 631.631 83.75 631.631C84.9034 631.631 85.6023 632.386 85.6023 633.653V639H87.3011V633.449C87.3011 631.29 86.1136 630.159 84.3295 630.159C83.017 630.159 82.1591 630.767 81.7557 631.693H81.6477V630.273H80.017V639H81.7159V633.818ZM93.2557 639.176C95.7159 639.176 97.3239 637.375 97.3239 634.676C97.3239 631.96 95.7159 630.159 93.2557 630.159C90.7955 630.159 89.1875 631.96 89.1875 634.676C89.1875 637.375 90.7955 639.176 93.2557 639.176ZM93.2614 637.75C91.6534 637.75 90.9034 636.347 90.9034 634.67C90.9034 633 91.6534 631.58 93.2614 631.58C94.858 631.58 95.608 633 95.608 634.67C95.608 636.347 94.858 637.75 93.2614 637.75ZM100.847 639H102.574L104.347 632.699H104.477L106.25 639H107.983L110.545 630.273H108.79L107.091 636.653H107.006L105.301 630.273H103.545L101.83 636.682H101.744L100.034 630.273H98.2784L100.847 639Z" fill="#444444"/>
<path d="M16 642.199H111.011V643.438H16V642.199Z" fill="#444444"/>
</g>
<defs>
<filter id="filter0_d" x="229" y="607" width="134" height="58" filterUnits="userSpaceOnUse" color-interpolation-filters="sRGB">
<feFlood flood-opacity="0" result="BackgroundImageFix"/>
<feColorMatrix in="SourceAlpha" type="matrix" values="0 0 0 0 0 0 0 0 0 0 0 0 0 0 0 0 0 0 127 0" result="hardAlpha"/>
<feOffset dy="3"/>
<feGaussianBlur stdDeviation="2"/>
<feColorMatrix type="matrix" values="0 0 0 0 0 0 0 0 0 0 0 0 0 0 0 0 0 0 0.16 0"/>
<feBlend mode="normal" in2="BackgroundImageFix" result="effect1_dropShadow"/>
<feBlend mode="normal" in="SourceGraphic" in2="effect1_dropShadow" result="shape"/>
</filter>
<clipPath id="clip0">
<rect width="375" height="667" fill="white"/>
</clipPath>
</defs>
</svg>
