<svg width="375" height="667" viewBox="0 0 375 667" fill="none" xmlns="http://www.w3.org/2000/svg">
<g clip-path="url(#clip0)">
<rect width="375" height="667" fill="white"/>
<path d="M16.9943 132.186H23.2287V149H27.4844V132.186H33.7188V128.636H16.9943V132.186ZM40.8588 149.298C44.6373 149.298 47.1827 147.459 47.7793 144.625L43.8617 144.366C43.4341 145.53 42.3404 146.136 40.9285 146.136C38.8106 146.136 37.4682 144.734 37.4682 142.457V142.447H47.8688V141.284C47.8688 136.094 44.7267 133.528 40.6898 133.528C36.1955 133.528 33.2821 136.72 33.2821 141.433C33.2821 146.276 36.1557 149.298 40.8588 149.298ZM37.4682 139.822C37.5577 138.082 38.8802 136.69 40.7594 136.69C42.5989 136.69 43.8716 138.003 43.8816 139.822H37.4682ZM54.5888 128.636H50.353V149H54.5888V128.636ZM61.9377 128.636H57.7019V149H61.9377V128.636ZM81.0453 142.497C81.0553 144.545 79.6533 145.619 78.132 145.619C76.5311 145.619 75.497 144.496 75.4871 142.696V133.727H71.2513V143.452C71.2612 147.021 73.3493 149.199 76.4217 149.199C78.7186 149.199 80.3692 148.016 81.0553 146.226H81.2143V149H85.2811V133.727H81.0453V142.497ZM101.097 138.082C100.719 135.268 98.4517 133.528 94.5938 133.528C90.6861 133.528 88.1108 135.338 88.1208 138.281C88.1108 140.568 89.5526 142.05 92.5356 142.646L95.1804 143.173C96.5128 143.442 97.1194 143.929 97.1392 144.695C97.1194 145.599 96.135 146.246 94.6535 146.246C93.1421 146.246 92.1378 145.599 91.8793 144.357L87.7131 144.575C88.1108 147.499 90.5966 149.298 94.6435 149.298C98.6009 149.298 101.435 147.28 101.445 144.267C101.435 142.06 99.9929 140.737 97.0299 140.131L94.2657 139.574C92.8438 139.266 92.3168 138.778 92.3267 138.043C92.3168 137.128 93.3509 136.531 94.6634 136.531C96.135 136.531 97.01 137.337 97.2188 138.321L101.097 138.082ZM112.647 154.727C115.799 154.727 117.47 153.116 118.335 150.651L124.271 133.747L119.787 133.727L116.595 144.943H116.436L113.274 133.727H108.819L114.298 149.438L114.049 150.084C113.493 151.516 112.429 151.585 110.937 151.128L109.983 154.29C110.589 154.548 111.574 154.727 112.647 154.727ZM132.54 149.298C137.173 149.298 140.057 146.126 140.057 141.423C140.057 136.69 137.173 133.528 132.54 133.528C127.906 133.528 125.023 136.69 125.023 141.423C125.023 146.126 127.906 149.298 132.54 149.298ZM132.56 146.017C130.422 146.017 129.328 144.058 129.328 141.393C129.328 138.729 130.422 136.76 132.56 136.76C134.658 136.76 135.751 138.729 135.751 141.393C135.751 144.058 134.658 146.017 132.56 146.017ZM152.325 142.497C152.335 144.545 150.933 145.619 149.412 145.619C147.811 145.619 146.777 144.496 146.767 142.696V133.727H142.531V143.452C142.541 147.021 144.629 149.199 147.701 149.199C149.998 149.199 151.649 148.016 152.335 146.226H152.494V149H156.561V133.727H152.325V142.497ZM159.669 149H163.905V140.359C163.905 138.48 165.277 137.188 167.146 137.188C167.733 137.188 168.538 137.287 168.936 137.416V133.658C168.558 133.568 168.031 133.509 167.604 133.509C165.893 133.509 164.491 134.503 163.935 136.392H163.775V133.727H159.669V149ZM189.754 138.082C189.376 135.268 187.109 133.528 183.251 133.528C179.343 133.528 176.768 135.338 176.778 138.281C176.768 140.568 178.21 142.05 181.193 142.646L183.838 143.173C185.17 143.442 185.777 143.929 185.796 144.695C185.777 145.599 184.792 146.246 183.311 146.246C181.799 146.246 180.795 145.599 180.536 144.357L176.37 144.575C176.768 147.499 179.254 149.298 183.301 149.298C187.258 149.298 190.092 147.28 190.102 144.267C190.092 142.06 188.65 140.737 185.687 140.131L182.923 139.574C181.501 139.266 180.974 138.778 180.984 138.043C180.974 137.128 182.008 136.531 183.321 136.531C184.792 136.531 185.667 137.337 185.876 138.321L189.754 138.082ZM200.613 133.727H197.739V130.068H193.503V133.727H191.415V136.909H193.503V144.864C193.483 147.857 195.522 149.338 198.594 149.209C199.688 149.169 200.464 148.95 200.891 148.811L200.225 145.659C200.016 145.699 199.569 145.798 199.171 145.798C198.326 145.798 197.739 145.48 197.739 144.307V136.909H200.613V133.727ZM209.828 149.298C214.462 149.298 217.345 146.126 217.345 141.423C217.345 136.69 214.462 133.528 209.828 133.528C205.195 133.528 202.311 136.69 202.311 141.423C202.311 146.126 205.195 149.298 209.828 149.298ZM209.848 146.017C207.711 146.017 206.617 144.058 206.617 141.393C206.617 138.729 207.711 136.76 209.848 136.76C211.946 136.76 213.04 138.729 213.04 141.393C213.04 144.058 211.946 146.017 209.848 146.017ZM219.82 149H224.056V140.359C224.056 138.48 225.428 137.188 227.297 137.188C227.884 137.188 228.689 137.287 229.087 137.416V133.658C228.709 133.568 228.182 133.509 227.754 133.509C226.044 133.509 224.642 134.503 224.085 136.392H223.926V133.727H219.82V149ZM234.077 154.727C237.229 154.727 238.899 153.116 239.764 150.651L245.7 133.747L241.216 133.727L238.024 144.943H237.865L234.703 133.727H230.249L235.727 149.438L235.479 150.084C234.922 151.516 233.858 151.585 232.366 151.128L231.412 154.29C232.018 154.548 233.003 154.727 234.077 154.727Z" fill="#444444"/>
<path opacity="0.5" d="M32.8409 226.318H36.5284V237H37.5909V226.318H41.2784V225.364H32.8409V226.318ZM45.723 237.182C47.473 237.182 48.6491 236.233 49.0469 235.136L48.0866 234.824C47.7514 235.608 46.9616 236.256 45.723 236.256C43.9389 236.256 42.8082 234.955 42.7628 232.938H49.2628V232.438C49.2628 229.523 47.4616 228.153 45.5696 228.153C43.3082 228.153 41.7457 230.045 41.7457 232.688C41.7457 235.335 43.2798 237.182 45.723 237.182ZM42.7685 232.045C42.8764 230.42 43.973 229.074 45.5696 229.074C47.1321 229.074 48.2287 230.364 48.2287 232.045H42.7685ZM52.5028 225.364H51.4915V237H52.5028V225.364ZM56.1903 225.364H55.179V237H56.1903V225.364ZM68.9119 233.665C68.9119 235.267 67.7074 236.131 66.5256 236.131C65.2642 236.131 64.3778 235.227 64.3778 233.864V228.273H63.3665V233.926C63.3665 235.994 64.5597 237.114 66.2358 237.114C67.5142 237.114 68.4233 236.449 68.8324 235.551H68.9119V237H69.9233V228.273H68.9119V233.665ZM78.4645 230.188C78.0384 228.926 77.1065 228.153 75.5099 228.153C73.7486 228.153 72.4702 229.159 72.4702 230.597C72.4702 231.767 73.1804 232.562 74.6974 232.926L76.1236 233.267C77.0838 233.494 77.544 233.989 77.544 234.688C77.544 235.597 76.6747 236.273 75.3338 236.273C74.1406 236.273 73.3963 235.733 73.152 234.699L72.1804 234.938C72.4872 236.392 73.6406 237.182 75.3509 237.182C77.2713 237.182 78.5895 236.125 78.5895 234.642C78.5895 233.477 77.8565 232.699 76.3963 232.341L75.0781 232.017C73.9929 231.744 73.4872 231.307 73.4872 230.551C73.4872 229.665 74.3338 229.045 75.5099 229.045C76.6861 229.045 77.2656 229.665 77.5384 230.449L78.4645 230.188ZM87.2415 237H88.2869L90.3551 229.847H90.4631L92.5312 237H93.5767L96.2131 228.273H95.1449L93.0767 235.455H92.9972L90.9517 228.273H89.8778L87.8153 235.472H87.7415L85.6733 228.273H84.6051L87.2415 237ZM99.1903 231.545C99.1903 230.023 100.213 229.085 101.611 229.085C102.963 229.085 103.827 229.972 103.827 231.409V237H104.844V231.347C104.844 229.267 103.639 228.159 101.866 228.159C100.548 228.159 99.6903 228.739 99.2812 229.642H99.1903V225.364H98.179V237H99.1903V231.545ZM107.899 240.273C108.99 240.273 109.791 239.648 110.257 238.381L113.956 228.29L112.854 228.273L110.263 235.665H110.183L107.592 228.273H106.496L109.706 237.085L109.388 237.972C108.905 239.29 108.223 239.523 107.195 239.199L106.922 240.091C107.126 240.188 107.501 240.273 107.899 240.273ZM121.134 240.273C122.224 240.273 123.026 239.648 123.491 238.381L127.19 228.29L126.088 228.273L123.497 235.665H123.418L120.827 228.273H119.73L122.94 237.085L122.622 237.972C122.139 239.29 121.457 239.523 120.429 239.199L120.156 240.091C120.361 240.188 120.736 240.273 121.134 240.273ZM132.243 237.182C134.504 237.182 136.084 235.335 136.084 232.676C136.084 230 134.504 228.153 132.243 228.153C129.982 228.153 128.402 230 128.402 232.676C128.402 235.335 129.982 237.182 132.243 237.182ZM132.243 236.256C130.43 236.256 129.419 234.631 129.419 232.676C129.419 230.722 130.43 229.074 132.243 229.074C134.055 229.074 135.067 230.722 135.067 232.676C135.067 234.631 134.055 236.256 132.243 236.256ZM143.849 233.665C143.849 235.267 142.645 236.131 141.463 236.131C140.202 236.131 139.315 235.227 139.315 233.864V228.273H138.304V233.926C138.304 235.994 139.497 237.114 141.173 237.114C142.452 237.114 143.361 236.449 143.77 235.551H143.849V237H144.861V228.273H143.849V233.665ZM154.476 237.199C155.93 237.199 156.817 236.392 157.18 235.619H157.243V237H158.254V231.074C158.254 228.733 156.493 228.153 155.158 228.153C153.822 228.153 152.447 228.682 151.857 230.108L152.817 230.455C153.135 229.705 153.925 229.062 155.186 229.062C156.51 229.062 157.243 229.79 157.243 230.983V231.188C157.243 231.847 156.425 231.858 154.959 232.04C152.987 232.284 151.607 232.835 151.607 234.562C151.607 236.244 152.891 237.199 154.476 237.199ZM154.612 236.273C153.47 236.273 152.618 235.665 152.618 234.608C152.618 233.551 153.482 233.108 154.959 232.926C155.675 232.841 156.947 232.682 157.243 232.392V233.653C157.243 235.085 156.226 236.273 154.612 236.273ZM160.945 237H161.956V231.364C161.956 230.068 162.95 229.131 164.314 229.131C164.581 229.131 164.831 229.176 164.922 229.188V228.159C164.786 228.153 164.553 228.142 164.388 228.142C163.291 228.142 162.354 228.733 162.001 229.614H161.928V228.273H160.945V237ZM169.911 237.182C171.661 237.182 172.837 236.233 173.234 235.136L172.274 234.824C171.939 235.608 171.149 236.256 169.911 236.256C168.126 236.256 166.996 234.955 166.95 232.938H173.45V232.438C173.45 229.523 171.649 228.153 169.757 228.153C167.496 228.153 165.933 230.045 165.933 232.688C165.933 235.335 167.467 237.182 169.911 237.182ZM166.956 232.045C167.064 230.42 168.161 229.074 169.757 229.074C171.32 229.074 172.416 230.364 172.416 232.045H166.956ZM181.19 231.545C181.19 230.023 182.213 229.085 183.611 229.085C184.963 229.085 185.827 229.972 185.827 231.409V237H186.844V231.347C186.844 229.267 185.639 228.159 183.866 228.159C182.548 228.159 181.69 228.739 181.281 229.642H181.19V225.364H180.179V237H181.19V231.545ZM193.036 237.182C194.786 237.182 195.962 236.233 196.359 235.136L195.399 234.824C195.064 235.608 194.274 236.256 193.036 236.256C191.251 236.256 190.121 234.955 190.075 232.938H196.575V232.438C196.575 229.523 194.774 228.153 192.882 228.153C190.621 228.153 189.058 230.045 189.058 232.688C189.058 235.335 190.592 237.182 193.036 237.182ZM190.081 232.045C190.189 230.42 191.286 229.074 192.882 229.074C194.445 229.074 195.541 230.364 195.541 232.045H190.081ZM198.804 237H199.815V231.364C199.815 230.068 200.81 229.131 202.173 229.131C202.44 229.131 202.69 229.176 202.781 229.188V228.159C202.645 228.153 202.412 228.142 202.247 228.142C201.151 228.142 200.213 228.733 199.861 229.614H199.787V228.273H198.804V237ZM207.77 237.182C209.52 237.182 210.696 236.233 211.094 235.136L210.134 234.824C209.798 235.608 209.009 236.256 207.77 236.256C205.986 236.256 204.855 234.955 204.81 232.938H211.31V232.438C211.31 229.523 209.509 228.153 207.616 228.153C205.355 228.153 203.793 230.045 203.793 232.688C203.793 235.335 205.327 237.182 207.77 237.182ZM204.815 232.045C204.923 230.42 206.02 229.074 207.616 229.074C209.179 229.074 210.276 230.364 210.276 232.045H204.815ZM214.345 237.085C214.8 237.085 215.163 236.716 215.163 236.267C215.163 235.812 214.8 235.449 214.345 235.449C213.896 235.449 213.527 235.812 213.527 236.267C213.527 236.716 213.896 237.085 214.345 237.085ZM218.642 237.085C219.097 237.085 219.46 236.716 219.46 236.267C219.46 235.812 219.097 235.449 218.642 235.449C218.193 235.449 217.824 235.812 217.824 236.267C217.824 236.716 218.193 237.085 218.642 237.085ZM222.939 237.085C223.393 237.085 223.757 236.716 223.757 236.267C223.757 235.812 223.393 235.449 222.939 235.449C222.49 235.449 222.121 235.812 222.121 236.267C222.121 236.716 222.49 237.085 222.939 237.085Z" fill="#444444"/>
<rect x="16.5" y="206.5" width="342" height="239" rx="5.5" stroke="#BBBBBB"/>
<path d="M191.352 458.818V469H192.227V460.782H192.307L195.742 469H196.587L200.023 460.782H200.102V469H200.977V458.818H199.903L196.21 467.688H196.12L192.426 458.818H191.352ZM205.633 469.174C206.906 469.174 207.681 468.468 208 467.792H208.054V469H208.939V463.815C208.939 461.766 207.398 461.259 206.23 461.259C205.061 461.259 203.858 461.722 203.341 462.969L204.181 463.273C204.46 462.616 205.151 462.055 206.255 462.055C207.413 462.055 208.054 462.691 208.054 463.735V463.914C208.054 464.491 207.338 464.501 206.056 464.66C204.331 464.874 203.123 465.356 203.123 466.867C203.123 468.339 204.246 469.174 205.633 469.174ZM205.752 468.364C204.753 468.364 204.007 467.832 204.007 466.907C204.007 465.982 204.763 465.594 206.056 465.435C206.682 465.361 207.796 465.222 208.054 464.968V466.072C208.054 467.325 207.164 468.364 205.752 468.364ZM211.84 461.364H210.816L213.242 465.182L210.816 469H211.84L213.809 465.848L215.778 469H216.807L214.351 465.182L216.807 461.364H215.778L213.809 464.62L211.84 461.364ZM218.672 469H219.562V461.364H218.672V469ZM219.125 460.051C219.488 460.051 219.791 459.763 219.791 459.415C219.791 459.067 219.488 458.778 219.125 458.778C218.762 458.778 218.464 459.067 218.464 459.415C218.464 459.763 218.762 460.051 219.125 460.051ZM221.903 469H222.788V464.108C222.788 462.92 223.578 462.075 224.637 462.075C225.681 462.075 226.288 462.771 226.288 463.805V469H227.192V463.974C227.192 462.875 227.849 462.075 229.012 462.075C230.021 462.075 230.692 462.681 230.692 463.884V469H231.577V463.884C231.577 462.174 230.697 461.264 229.281 461.264C228.167 461.264 227.362 461.806 227.018 462.651H226.954C226.616 461.786 225.945 461.264 224.891 461.264C223.891 461.264 223.146 461.746 222.842 462.537H222.763V461.364H221.903V469ZM238.773 466.082C238.773 467.484 237.719 468.239 236.684 468.239C235.581 468.239 234.805 467.449 234.805 466.256V461.364H233.92V466.31C233.92 468.12 234.964 469.099 236.431 469.099C237.55 469.099 238.345 468.518 238.703 467.732H238.773V469H239.657V461.364H238.773V466.082ZM242 469H242.885V464.108C242.885 462.92 243.676 462.075 244.735 462.075C245.779 462.075 246.385 462.771 246.385 463.805V469H247.29V463.974C247.29 462.875 247.946 462.075 249.11 462.075C250.119 462.075 250.79 462.681 250.79 463.884V469H251.675V463.884C251.675 462.174 250.795 461.264 249.378 461.264C248.265 461.264 247.459 461.806 247.116 462.651H247.051C246.713 461.786 246.042 461.264 244.988 461.264C243.989 461.264 243.243 461.746 242.94 462.537H242.86V461.364H242V469ZM261.227 469.139C263.136 469.139 264.528 467.906 264.528 466.276C264.528 464.983 263.732 464.033 262.435 463.775V463.71C263.504 463.392 264.18 462.527 264.18 461.364C264.18 459.907 263.036 458.679 261.247 458.679C259.541 458.679 258.179 459.773 258.139 461.364H259.039C259.069 460.225 260.053 459.499 261.237 459.499C262.465 459.499 263.275 460.28 263.275 461.403C263.275 462.592 262.325 463.352 261.008 463.352H260.411V464.188H261.008C262.619 464.188 263.613 465.038 263.613 466.276C263.613 467.449 262.624 468.304 261.217 468.304C259.919 468.304 258.905 467.568 258.855 466.455H257.916C257.965 468.04 259.338 469.139 261.227 469.139ZM269.887 469.139C272.03 469.139 273.288 467.205 273.288 463.909C273.288 460.628 272.02 458.679 269.887 458.679C267.754 458.679 266.487 460.628 266.487 463.909C266.487 467.205 267.744 469.139 269.887 469.139ZM269.887 468.304C268.321 468.304 267.387 466.698 267.387 463.909C267.387 461.125 268.326 459.499 269.887 459.499C271.448 459.499 272.388 461.125 272.388 463.909C272.388 466.698 271.453 468.304 269.887 468.304ZM278.473 469.139C280.616 469.139 281.874 467.205 281.874 463.909C281.874 460.628 280.606 458.679 278.473 458.679C276.34 458.679 275.073 460.628 275.073 463.909C275.073 467.205 276.33 469.139 278.473 469.139ZM278.473 468.304C276.907 468.304 275.972 466.698 275.972 463.909C275.972 461.125 276.912 459.499 278.473 459.499C280.034 459.499 280.974 461.125 280.974 463.909C280.974 466.698 280.039 468.304 278.473 468.304ZM296.028 462C295.695 460.126 294.164 458.679 291.996 458.679C289.426 458.679 287.596 460.722 287.596 463.909C287.596 467.096 289.426 469.139 291.996 469.139C294.164 469.139 295.695 467.688 296.028 465.818H295.093C294.81 467.215 293.592 468.264 291.996 468.264C290.067 468.264 288.496 466.738 288.496 463.909C288.496 461.09 290.067 459.554 291.996 459.554C293.592 459.554 294.81 460.608 295.093 462H296.028ZM298.913 464.227C298.913 462.895 299.808 462.075 301.031 462.075C302.214 462.075 302.969 462.85 302.969 464.108V469H303.859V464.053C303.859 462.234 302.805 461.264 301.254 461.264C300.101 461.264 299.35 461.771 298.992 462.562H298.913V458.818H298.028V469H298.913V464.227ZM308.323 469.174C309.595 469.174 310.371 468.468 310.689 467.792H310.744V469H311.629V463.815C311.629 461.766 310.088 461.259 308.919 461.259C307.751 461.259 306.548 461.722 306.031 462.969L306.871 463.273C307.149 462.616 307.84 462.055 308.944 462.055C310.102 462.055 310.744 462.691 310.744 463.735V463.914C310.744 464.491 310.028 464.501 308.745 464.66C307.02 464.874 305.812 465.356 305.812 466.867C305.812 468.339 306.936 469.174 308.323 469.174ZM308.442 468.364C307.443 468.364 306.697 467.832 306.697 466.907C306.697 465.982 307.453 465.594 308.745 465.435C309.372 465.361 310.485 465.222 310.744 464.968V466.072C310.744 467.325 309.854 468.364 308.442 468.364ZM313.983 469H314.868V464.068C314.868 462.935 315.738 462.114 316.931 462.114C317.165 462.114 317.383 462.154 317.463 462.164V461.264C317.344 461.259 317.14 461.249 316.996 461.249C316.036 461.249 315.216 461.766 314.907 462.537H314.843V461.364H313.983V469ZM321.106 469.174C322.379 469.174 323.154 468.468 323.472 467.792H323.527V469H324.412V463.815C324.412 461.766 322.871 461.259 321.702 461.259C320.534 461.259 319.331 461.722 318.814 462.969L319.654 463.273C319.933 462.616 320.624 462.055 321.727 462.055C322.886 462.055 323.527 462.691 323.527 463.735V463.914C323.527 464.491 322.811 464.501 321.528 464.66C319.803 464.874 318.595 465.356 318.595 466.867C318.595 468.339 319.719 469.174 321.106 469.174ZM321.225 468.364C320.226 468.364 319.48 467.832 319.48 466.907C319.48 465.982 320.236 465.594 321.528 465.435C322.155 465.361 323.268 465.222 323.527 464.968V466.072C323.527 467.325 322.637 468.364 321.225 468.364ZM329.749 469.159C331.34 469.159 332.458 468.155 332.662 466.773H331.767C331.564 467.747 330.763 468.349 329.749 468.349C328.252 468.349 327.263 467.046 327.263 465.187C327.263 463.337 328.282 462.065 329.749 462.065C330.838 462.065 331.574 462.766 331.762 463.631H332.657C332.449 462.214 331.265 461.259 329.734 461.259C327.735 461.259 326.373 462.92 326.373 465.217C326.373 467.494 327.696 469.159 329.749 469.159ZM337.567 461.364H335.951V459.534H335.061V461.364H333.923V462.134H335.061V467.215C335.061 468.463 336.045 469.114 337.025 469.114C337.393 469.114 337.641 469.045 337.81 468.98L337.621 468.18C337.497 468.214 337.338 468.249 337.104 468.249C336.503 468.249 335.951 467.966 335.951 467.006V462.134H337.567V461.364ZM342.582 469.159C344.113 469.159 345.142 468.329 345.49 467.369L344.65 467.096C344.357 467.782 343.666 468.349 342.582 468.349C341.021 468.349 340.031 467.21 339.992 465.445H345.679V465.008C345.679 462.457 344.103 461.259 342.448 461.259C340.469 461.259 339.102 462.915 339.102 465.227C339.102 467.543 340.444 469.159 342.582 469.159ZM339.997 464.665C340.091 463.243 341.051 462.065 342.448 462.065C343.815 462.065 344.774 463.193 344.774 464.665H339.997ZM347.629 469H348.514V464.068C348.514 462.935 349.384 462.114 350.577 462.114C350.811 462.114 351.03 462.154 351.109 462.164V461.264C350.99 461.259 350.786 461.249 350.642 461.249C349.683 461.249 348.862 461.766 348.554 462.537H348.489V461.364H347.629V469ZM357.75 463.039C357.377 461.935 356.562 461.259 355.165 461.259C353.624 461.259 352.505 462.139 352.505 463.397C352.505 464.421 353.127 465.117 354.454 465.435L355.702 465.734C356.542 465.933 356.945 466.365 356.945 466.977C356.945 467.772 356.184 468.364 355.011 468.364C353.967 468.364 353.316 467.891 353.102 466.987L352.252 467.195C352.52 468.468 353.529 469.159 355.026 469.159C356.706 469.159 357.86 468.234 357.86 466.937C357.86 465.918 357.218 465.237 355.941 464.923L354.787 464.64C353.838 464.401 353.395 464.018 353.395 463.357C353.395 462.582 354.136 462.04 355.165 462.04C356.194 462.04 356.701 462.582 356.94 463.268L357.75 463.039Z" fill="#828282"/>
<rect x="375" y="68" width="375" height="68" transform="rotate(-180 375 68)" fill="white"/>
<path d="M155.636 29.3438H158.678C158.619 26.3949 156.104 24.3068 152.389 24.3068C148.724 24.3068 145.971 26.3693 145.979 29.4545C145.979 31.9602 147.761 33.4006 150.633 34.142L152.619 34.6534C154.502 35.1307 155.746 35.7188 155.755 37.0739C155.746 38.5653 154.332 39.5625 152.269 39.5625C150.292 39.5625 148.758 38.6761 148.63 36.8438H145.519C145.647 40.3125 148.229 42.2642 152.295 42.2642C156.479 42.2642 158.908 40.1761 158.917 37.0994C158.908 34.0739 156.411 32.6932 153.786 32.071L152.15 31.6619C150.718 31.321 149.167 30.7159 149.184 29.2585C149.192 27.946 150.369 26.983 152.346 26.983C154.229 26.983 155.474 27.8608 155.636 29.3438ZM161.119 42H164.205V28.9091H161.119V42ZM162.671 27.0511C163.651 27.0511 164.452 26.3011 164.452 25.3807C164.452 24.4517 163.651 23.7017 162.671 23.7017C161.682 23.7017 160.881 24.4517 160.881 25.3807C160.881 26.3011 161.682 27.0511 162.671 27.0511ZM172.59 47.1818C176.127 47.1818 178.735 45.5625 178.735 42.2131V28.9091H175.693V31.0739H175.522C175.054 30.1278 174.073 28.7386 171.764 28.7386C168.738 28.7386 166.36 31.108 166.36 35.4119C166.36 39.6818 168.738 41.8125 171.755 41.8125C173.997 41.8125 175.045 40.6108 175.522 39.6477H175.676V42.1278C175.676 44.054 174.397 44.8466 172.642 44.8466C170.784 44.8466 169.965 43.9688 169.59 43.2017L166.812 43.875C167.375 45.7074 169.258 47.1818 172.59 47.1818ZM172.616 39.392C170.579 39.392 169.505 37.8068 169.505 35.3949C169.505 33.017 170.562 31.2699 172.616 31.2699C174.602 31.2699 175.693 32.9148 175.693 35.3949C175.693 37.892 174.585 39.392 172.616 39.392ZM184.502 34.3295C184.502 32.4375 185.645 31.3466 187.272 31.3466C188.866 31.3466 189.821 32.3949 189.821 34.142V42H192.906V33.6648C192.914 30.5284 191.125 28.7386 188.423 28.7386C186.463 28.7386 185.116 29.6761 184.52 31.1335H184.366V28.9091H181.417V42H184.502V34.3295ZM212.175 24.5455V35.6847C212.175 37.875 210.649 39.4432 208.254 39.4432C205.851 39.4432 204.334 37.875 204.334 35.6847V24.5455H201.172V35.9489C201.172 39.6989 203.984 42.2642 208.254 42.2642C212.507 42.2642 215.337 39.6989 215.337 35.9489V24.5455H212.175ZM218.157 46.9091H221.242V39.9375H221.37C221.856 40.892 222.87 42.2301 225.12 42.2301C228.205 42.2301 230.515 39.7841 230.515 35.4716C230.515 31.108 228.137 28.7386 225.111 28.7386C222.802 28.7386 221.839 30.1278 221.37 31.0739H221.191V28.9091H218.157V46.9091ZM221.183 35.4545C221.183 32.9148 222.273 31.2699 224.259 31.2699C226.313 31.2699 227.37 33.017 227.37 35.4545C227.37 37.9091 226.296 39.6989 224.259 39.6989C222.29 39.6989 221.183 37.9943 221.183 35.4545Z" fill="#444444"/>
<line x1="341" y1="41.8787" x2="355.849" y2="27.0294" stroke="#BBBBBB" stroke-width="3" stroke-linecap="round"/>
<line x1="341.121" y1="27" x2="355.971" y2="41.8492" stroke="#BBBBBB" stroke-width="3" stroke-linecap="round"/>
<rect y="68" width="375" height="4" fill="#DDDDDD"/>
<rect y="68" width="375" height="4" fill="#444444"/>
<rect y="599" width="375" height="68" fill="white"/>
<path d="M375 599H3.05176e-05" stroke="#DDDDDD"/>
<g filter="url(#filter0_d)">
<path d="M312 614C312 610.686 314.686 608 318 608H407C410.314 608 413 610.686 413 614V652C413 655.314 410.314 658 407 658H318C314.686 658 312 655.314 312 652V614Z" fill="#BBBBBB"/>
<path d="M345.045 639C348.591 639 350.642 636.801 350.642 633.165C350.642 629.545 348.591 627.364 345.165 627.364H341.278V639H345.045ZM343.034 637.466V628.898H345.057C347.602 628.898 348.915 630.42 348.915 633.165C348.915 635.92 347.602 637.466 344.949 637.466H343.034ZM356.365 639.176C358.825 639.176 360.433 637.375 360.433 634.676C360.433 631.96 358.825 630.159 356.365 630.159C353.905 630.159 352.297 631.96 352.297 634.676C352.297 637.375 353.905 639.176 356.365 639.176ZM356.371 637.75C354.763 637.75 354.013 636.347 354.013 634.67C354.013 633 354.763 631.58 356.371 631.58C357.967 631.58 358.717 633 358.717 634.67C358.717 636.347 357.967 637.75 356.371 637.75ZM364.028 633.818C364.028 632.426 364.881 631.631 366.062 631.631C367.216 631.631 367.915 632.386 367.915 633.653V639H369.614V633.449C369.614 631.29 368.426 630.159 366.642 630.159C365.33 630.159 364.472 630.767 364.068 631.693H363.96V630.273H362.33V639H364.028V633.818ZM375.653 639.176C377.557 639.176 378.903 638.239 379.29 636.818L377.682 636.528C377.375 637.352 376.636 637.773 375.67 637.773C374.216 637.773 373.239 636.83 373.193 635.148H379.398V634.545C379.398 631.392 377.511 630.159 375.534 630.159C373.102 630.159 371.5 632.011 371.5 634.693C371.5 637.403 373.08 639.176 375.653 639.176ZM373.199 633.875C373.267 632.636 374.165 631.562 375.545 631.562C376.864 631.562 377.727 632.54 377.733 633.875H373.199ZM383.425 627.364H381.555L381.703 635.653H383.277L383.425 627.364ZM382.487 639.108C383.107 639.108 383.624 638.602 383.624 637.972C383.624 637.352 383.107 636.841 382.487 636.841C381.862 636.841 381.351 637.352 381.351 637.972C381.351 638.602 381.862 639.108 382.487 639.108Z" fill="white"/>
</g>
<path d="M23.625 630.42H25.3182C25.267 628.557 23.6193 627.205 21.2557 627.205C18.9205 627.205 17.1307 628.54 17.1307 630.545C17.1307 632.165 18.2898 633.114 20.1591 633.619L21.5341 633.994C22.7784 634.324 23.7386 634.733 23.7386 635.767C23.7386 636.903 22.6534 637.653 21.1591 637.653C19.8068 637.653 18.6818 637.051 18.5795 635.784H16.8182C16.9318 637.892 18.5625 639.193 21.1705 639.193C23.9034 639.193 25.4773 637.756 25.4773 635.784C25.4773 633.688 23.608 632.875 22.1307 632.511L20.9943 632.216C20.0852 631.983 18.875 631.557 18.8807 630.443C18.8807 629.455 19.7841 628.722 21.2159 628.722C22.5511 628.722 23.5 629.347 23.625 630.42ZM27.4389 639H29.1378V635.903L29.9844 635.057L32.9503 639H35.0355L31.2628 634.017L34.7969 630.273H32.7628L29.2855 633.966H29.1378V627.364H27.4389V639ZM36.3452 639H38.044V630.273H36.3452V639ZM37.2031 628.926C37.7884 628.926 38.277 628.472 38.277 627.915C38.277 627.358 37.7884 626.898 37.2031 626.898C36.6122 626.898 36.1293 627.358 36.1293 627.915C36.1293 628.472 36.6122 628.926 37.2031 628.926ZM40.3295 642.273H42.0284V637.642H42.1307C42.4375 638.199 43.0625 639.17 44.6534 639.17C46.767 639.17 48.3011 637.477 48.3011 634.653C48.3011 631.824 46.7443 630.159 44.6364 630.159C43.017 630.159 42.4318 631.148 42.1307 631.688H41.9886V630.273H40.3295V642.273ZM41.9943 634.636C41.9943 632.812 42.7898 631.602 44.2727 631.602C45.8125 631.602 46.5852 632.903 46.5852 634.636C46.5852 636.386 45.7898 637.722 44.2727 637.722C42.8125 637.722 41.9943 636.472 41.9943 634.636ZM58.5923 630.273H56.7116V629.489C56.7116 628.716 57.0298 628.295 57.8594 628.295C58.2116 628.295 58.4616 628.375 58.6207 628.426L59.0185 627.051C58.7798 626.96 58.2855 626.818 57.598 626.818C56.2173 626.818 55.0071 627.625 55.0071 629.261V630.273H53.6605V631.636H55.0071V639H56.7116V631.636H58.5923V630.273ZM63.6776 639.176C66.1378 639.176 67.7457 637.375 67.7457 634.676C67.7457 631.96 66.1378 630.159 63.6776 630.159C61.2173 630.159 59.6094 631.96 59.6094 634.676C59.6094 637.375 61.2173 639.176 63.6776 639.176ZM63.6832 637.75C62.0753 637.75 61.3253 636.347 61.3253 634.67C61.3253 633 62.0753 631.58 63.6832 631.58C65.2798 631.58 66.0298 633 66.0298 634.67C66.0298 636.347 65.2798 637.75 63.6832 637.75ZM69.642 639H71.3409V633.67C71.3409 632.528 72.2216 631.705 73.4261 631.705C73.7784 631.705 74.1761 631.767 74.3125 631.807V630.182C74.142 630.159 73.8068 630.142 73.5909 630.142C72.5682 630.142 71.6932 630.722 71.375 631.659H71.2841V630.273H69.642V639ZM81.7159 633.818C81.7159 632.426 82.5682 631.631 83.75 631.631C84.9034 631.631 85.6023 632.386 85.6023 633.653V639H87.3011V633.449C87.3011 631.29 86.1136 630.159 84.3295 630.159C83.017 630.159 82.1591 630.767 81.7557 631.693H81.6477V630.273H80.017V639H81.7159V633.818ZM93.2557 639.176C95.7159 639.176 97.3239 637.375 97.3239 634.676C97.3239 631.96 95.7159 630.159 93.2557 630.159C90.7955 630.159 89.1875 631.96 89.1875 634.676C89.1875 637.375 90.7955 639.176 93.2557 639.176ZM93.2614 637.75C91.6534 637.75 90.9034 636.347 90.9034 634.67C90.9034 633 91.6534 631.58 93.2614 631.58C94.858 631.58 95.608 633 95.608 634.67C95.608 636.347 94.858 637.75 93.2614 637.75ZM100.847 639H102.574L104.347 632.699H104.477L106.25 639H107.983L110.545 630.273H108.79L107.091 636.653H107.006L105.301 630.273H103.545L101.83 636.682H101.744L100.034 630.273H98.2784L100.847 639Z" fill="#444444"/>
<path d="M16 642.199H111.011V643.438H16V642.199Z" fill="#444444"/>
</g>
<defs>
<filter id="filter0_d" x="308" y="607" width="109" height="58" filterUnits="userSpaceOnUse" color-interpolation-filters="sRGB">
<feFlood flood-opacity="0" result="BackgroundImageFix"/>
<feColorMatrix in="SourceAlpha" type="matrix" values="0 0 0 0 0 0 0 0 0 0 0 0 0 0 0 0 0 0 127 0" result="hardAlpha"/>
<feOffset dy="3"/>
<feGaussianBlur stdDeviation="2"/>
<feColorMatrix type="matrix" values="0 0 0 0 0 0 0 0 0 0 0 0 0 0 0 0 0 0 0.16 0"/>
<feBlend mode="normal" in2="BackgroundImageFix" result="effect1_dropShadow"/>
<feBlend mode="normal" in="SourceGraphic" in2="effect1_dropShadow" result="shape"/>
</filter>
<clipPath id="clip0">
<rect width="375" height="667" fill="white"/>
</clipPath>
</defs>
</svg>
