<svg width="375" height="1417" viewBox="0 0 375 1417" fill="none" xmlns="http://www.w3.org/2000/svg">
<g clip-path="url(#clip0)">
<rect width="375" height="1417" fill="white"/>
<path opacity="0.5" d="M18 1388H358" stroke="#9D9FA2"/>
<path d="M125.616 226.808L128.147 226.562C128.3 227.411 128.607 228.035 129.07 228.434C129.539 228.832 130.169 229.031 130.96 229.031C131.798 229.031 132.428 228.855 132.85 228.504C133.277 228.146 133.491 227.73 133.491 227.256C133.491 226.951 133.4 226.693 133.219 226.482C133.043 226.266 132.732 226.078 132.287 225.92C131.982 225.814 131.288 225.627 130.204 225.357C128.81 225.012 127.831 224.587 127.269 224.083C126.478 223.374 126.082 222.51 126.082 221.49C126.082 220.834 126.267 220.222 126.636 219.653C127.011 219.079 127.547 218.643 128.244 218.344C128.947 218.045 129.794 217.896 130.784 217.896C132.401 217.896 133.617 218.25 134.432 218.959C135.252 219.668 135.683 220.614 135.724 221.798L133.122 221.912C133.011 221.25 132.771 220.775 132.401 220.488C132.038 220.195 131.49 220.049 130.758 220.049C130.002 220.049 129.41 220.204 128.982 220.515C128.707 220.714 128.569 220.98 128.569 221.314C128.569 221.619 128.698 221.88 128.956 222.097C129.284 222.372 130.081 222.659 131.347 222.958C132.612 223.257 133.547 223.567 134.15 223.89C134.76 224.206 135.234 224.643 135.574 225.199C135.92 225.75 136.093 226.433 136.093 227.247C136.093 227.985 135.888 228.677 135.478 229.321C135.067 229.966 134.487 230.446 133.737 230.763C132.987 231.073 132.053 231.229 130.934 231.229C129.305 231.229 128.054 230.854 127.181 230.104C126.308 229.348 125.786 228.249 125.616 226.808ZM142.544 221.666V223.635H140.856V227.396C140.856 228.158 140.871 228.604 140.9 228.732C140.936 228.855 141.009 228.958 141.12 229.04C141.237 229.122 141.378 229.163 141.542 229.163C141.771 229.163 142.102 229.084 142.535 228.926L142.746 230.842C142.172 231.088 141.521 231.211 140.795 231.211C140.35 231.211 139.948 231.138 139.591 230.991C139.233 230.839 138.97 230.646 138.8 230.411C138.636 230.171 138.521 229.849 138.457 229.444C138.404 229.157 138.378 228.577 138.378 227.704V223.635H137.244V221.666H138.378V219.812L140.856 218.37V221.666H142.544ZM150.401 231V229.603C150.062 230.101 149.613 230.493 149.057 230.78C148.506 231.067 147.923 231.211 147.308 231.211C146.681 231.211 146.118 231.073 145.62 230.798C145.122 230.522 144.762 230.136 144.539 229.638C144.316 229.14 144.205 228.451 144.205 227.572V221.666H146.675V225.955C146.675 227.268 146.719 228.073 146.807 228.372C146.9 228.665 147.067 228.899 147.308 229.075C147.548 229.245 147.853 229.33 148.222 229.33C148.644 229.33 149.021 229.216 149.355 228.987C149.689 228.753 149.918 228.466 150.041 228.126C150.164 227.78 150.226 226.939 150.226 225.604V221.666H152.695V231H150.401ZM163.822 231H161.528V229.629C161.147 230.162 160.696 230.561 160.175 230.824C159.659 231.082 159.138 231.211 158.61 231.211C157.538 231.211 156.618 230.78 155.851 229.919C155.089 229.052 154.708 227.845 154.708 226.298C154.708 224.716 155.08 223.515 155.824 222.694C156.568 221.868 157.509 221.455 158.646 221.455C159.688 221.455 160.591 221.889 161.353 222.756V218.115H163.822V231ZM157.23 226.131C157.23 227.127 157.368 227.848 157.644 228.293C158.042 228.938 158.599 229.26 159.313 229.26C159.882 229.26 160.365 229.02 160.764 228.539C161.162 228.053 161.361 227.329 161.361 226.368C161.361 225.296 161.168 224.525 160.781 224.057C160.395 223.582 159.899 223.345 159.296 223.345C158.71 223.345 158.218 223.579 157.819 224.048C157.427 224.511 157.23 225.205 157.23 226.131ZM171.671 228.029L174.132 228.442C173.815 229.345 173.314 230.033 172.629 230.508C171.949 230.977 171.097 231.211 170.071 231.211C168.448 231.211 167.247 230.681 166.468 229.62C165.853 228.771 165.545 227.698 165.545 226.403C165.545 224.856 165.949 223.646 166.758 222.773C167.566 221.895 168.589 221.455 169.825 221.455C171.214 221.455 172.31 221.915 173.112 222.835C173.915 223.749 174.299 225.152 174.264 227.045H168.076C168.094 227.777 168.293 228.349 168.674 228.759C169.055 229.163 169.529 229.365 170.098 229.365C170.484 229.365 170.81 229.26 171.073 229.049C171.337 228.838 171.536 228.498 171.671 228.029ZM171.812 225.533C171.794 224.818 171.609 224.276 171.258 223.907C170.906 223.532 170.479 223.345 169.975 223.345C169.436 223.345 168.99 223.541 168.639 223.934C168.287 224.326 168.114 224.859 168.12 225.533H171.812ZM184.775 231H182.306V226.236C182.306 225.229 182.253 224.578 182.147 224.285C182.042 223.986 181.869 223.755 181.629 223.591C181.395 223.427 181.11 223.345 180.776 223.345C180.349 223.345 179.965 223.462 179.625 223.696C179.285 223.931 179.051 224.241 178.922 224.628C178.799 225.015 178.737 225.729 178.737 226.772V231H176.268V221.666H178.562V223.037C179.376 221.982 180.401 221.455 181.638 221.455C182.183 221.455 182.681 221.555 183.132 221.754C183.583 221.947 183.923 222.196 184.151 222.501C184.386 222.806 184.547 223.151 184.635 223.538C184.729 223.925 184.775 224.479 184.775 225.199V231ZM191.569 221.666V223.635H189.882V227.396C189.882 228.158 189.896 228.604 189.926 228.732C189.961 228.855 190.034 228.958 190.146 229.04C190.263 229.122 190.403 229.163 190.567 229.163C190.796 229.163 191.127 229.084 191.561 228.926L191.771 230.842C191.197 231.088 190.547 231.211 189.82 231.211C189.375 231.211 188.974 231.138 188.616 230.991C188.259 230.839 187.995 230.646 187.825 230.411C187.661 230.171 187.547 229.849 187.482 229.444C187.43 229.157 187.403 228.577 187.403 227.704V223.635H186.27V221.666H187.403V219.812L189.882 218.37V221.666H191.569ZM198.328 231V218.115H207.161V220.295H200.93V223.345H206.309V225.524H200.93V231H198.328ZM219.932 231H217.102L215.977 228.073H210.826L209.763 231H207.003L212.021 218.115H214.772L219.932 231ZM215.142 225.902L213.366 221.121L211.626 225.902H215.142ZM231.691 229.365C232.33 229.822 233.024 230.186 233.774 230.455L232.816 232.292C232.424 232.175 232.04 232.014 231.665 231.809C231.583 231.768 231.006 231.387 229.934 230.666C229.09 231.035 228.155 231.22 227.13 231.22C225.149 231.22 223.597 230.637 222.472 229.471C221.353 228.305 220.793 226.667 220.793 224.558C220.793 222.454 221.355 220.819 222.48 219.653C223.605 218.481 225.132 217.896 227.06 217.896C228.97 217.896 230.484 218.481 231.604 219.653C232.723 220.819 233.282 222.454 233.282 224.558C233.282 225.671 233.127 226.649 232.816 227.493C232.582 228.138 232.207 228.762 231.691 229.365ZM229.6 227.897C229.934 227.505 230.183 227.03 230.347 226.474C230.517 225.917 230.602 225.278 230.602 224.558C230.602 223.069 230.273 221.959 229.617 221.227C228.961 220.488 228.103 220.119 227.042 220.119C225.981 220.119 225.12 220.488 224.458 221.227C223.802 221.965 223.474 223.075 223.474 224.558C223.474 226.063 223.802 227.191 224.458 227.941C225.12 228.686 225.955 229.058 226.963 229.058C227.338 229.058 227.692 228.996 228.026 228.873C227.499 228.527 226.963 228.258 226.418 228.064L227.147 226.579C228.003 226.872 228.82 227.312 229.6 227.897ZM238.371 220.523H236.815L234.39 217.896H237.158L238.371 220.523ZM240.437 228.337L242.915 227.959C243.021 228.439 243.234 228.806 243.557 229.058C243.879 229.304 244.33 229.427 244.91 229.427C245.549 229.427 246.029 229.31 246.352 229.075C246.568 228.911 246.677 228.691 246.677 228.416C246.677 228.229 246.618 228.073 246.501 227.95C246.378 227.833 246.103 227.725 245.675 227.625C243.683 227.186 242.42 226.784 241.887 226.421C241.148 225.917 240.779 225.217 240.779 224.32C240.779 223.512 241.099 222.832 241.737 222.281C242.376 221.73 243.366 221.455 244.708 221.455C245.985 221.455 246.935 221.663 247.556 222.079C248.177 222.495 248.604 223.11 248.839 223.925L246.51 224.355C246.41 223.992 246.22 223.714 245.938 223.521C245.663 223.327 245.268 223.23 244.752 223.23C244.102 223.23 243.636 223.321 243.354 223.503C243.167 223.632 243.073 223.799 243.073 224.004C243.073 224.18 243.155 224.329 243.319 224.452C243.542 224.616 244.31 224.848 245.622 225.146C246.94 225.445 247.86 225.812 248.382 226.245C248.897 226.685 249.155 227.297 249.155 228.082C249.155 228.938 248.798 229.673 248.083 230.288C247.368 230.903 246.311 231.211 244.91 231.211C243.639 231.211 242.631 230.953 241.887 230.438C241.148 229.922 240.665 229.222 240.437 228.337Z" fill="#3B393D"/>
<circle cx="188" cy="138" r="58" stroke="#E66534" stroke-width="4"/>
<path d="M188.398 106C178.264 106 171.701 110.152 166.548 117.556C165.613 118.899 165.901 120.741 167.205 121.729L172.682 125.882C173.999 126.88 175.872 126.647 176.903 125.355C180.084 121.371 182.442 119.078 187.41 119.078C191.315 119.078 196.146 121.591 196.146 125.379C196.146 128.242 193.783 129.712 189.926 131.874C185.429 134.395 179.478 137.533 179.478 145.382V146.625C179.478 148.308 180.842 149.672 182.525 149.672H191.725C193.408 149.672 194.772 148.308 194.772 146.625V145.892C194.772 140.451 210.676 140.224 210.676 125.5C210.676 114.411 199.173 106 188.398 106ZM187.125 153.412C182.276 153.412 178.331 157.357 178.331 162.206C178.331 167.055 182.276 171 187.125 171C191.974 171 195.92 167.055 195.92 162.206C195.92 157.357 191.974 153.412 187.125 153.412Z" fill="#E66534"/>
<path d="M117.77 1281V1268.22H120.371V1278.83H126.84V1281H117.77ZM128.686 1270.4V1268.12H131.155V1270.4H128.686ZM128.686 1281V1271.67H131.155V1281H128.686ZM133.59 1281V1268.12H136.06V1272.76C136.821 1271.89 137.724 1271.46 138.767 1271.46C139.903 1271.46 140.844 1271.87 141.588 1272.69C142.332 1273.51 142.704 1274.7 142.704 1276.24C142.704 1277.83 142.323 1279.06 141.562 1279.92C140.806 1280.78 139.886 1281.21 138.802 1281.21C138.269 1281.21 137.741 1281.08 137.22 1280.82C136.704 1280.55 136.259 1280.15 135.884 1279.63V1281H133.59ZM136.042 1276.13C136.042 1277.1 136.194 1277.81 136.499 1278.28C136.927 1278.93 137.495 1279.26 138.204 1279.26C138.749 1279.26 139.212 1279.03 139.593 1278.57C139.979 1278.1 140.173 1277.36 140.173 1276.36C140.173 1275.29 139.979 1274.53 139.593 1274.06C139.206 1273.58 138.711 1273.34 138.107 1273.34C137.516 1273.34 137.023 1273.58 136.631 1274.04C136.238 1274.5 136.042 1275.19 136.042 1276.13ZM147.063 1281H144.594V1271.67H146.888V1272.99C147.28 1272.37 147.632 1271.95 147.942 1271.75C148.259 1271.55 148.616 1271.46 149.015 1271.46C149.577 1271.46 150.119 1271.61 150.641 1271.92L149.876 1274.07C149.46 1273.8 149.073 1273.67 148.716 1273.67C148.37 1273.67 148.077 1273.77 147.837 1273.96C147.597 1274.15 147.406 1274.49 147.266 1274.99C147.131 1275.49 147.063 1276.53 147.063 1278.12V1281ZM153.559 1274.51L151.317 1274.11C151.569 1273.21 152.003 1272.54 152.618 1272.11C153.233 1271.67 154.147 1271.46 155.36 1271.46C156.462 1271.46 157.282 1271.59 157.821 1271.85C158.36 1272.11 158.738 1272.44 158.955 1272.84C159.178 1273.24 159.289 1273.98 159.289 1275.05L159.263 1277.93C159.263 1278.75 159.301 1279.36 159.377 1279.75C159.459 1280.14 159.608 1280.55 159.825 1281H157.382C157.317 1280.84 157.238 1280.59 157.145 1280.27C157.104 1280.12 157.074 1280.03 157.057 1279.98C156.635 1280.39 156.184 1280.7 155.703 1280.9C155.223 1281.11 154.71 1281.21 154.165 1281.21C153.204 1281.21 152.445 1280.95 151.889 1280.43C151.338 1279.91 151.062 1279.25 151.062 1278.45C151.062 1277.92 151.188 1277.46 151.44 1277.04C151.692 1276.63 152.044 1276.31 152.495 1276.1C152.952 1275.87 153.608 1275.68 154.464 1275.52C155.618 1275.3 156.418 1275.1 156.863 1274.91V1274.66C156.863 1274.19 156.746 1273.85 156.512 1273.65C156.277 1273.45 155.835 1273.34 155.185 1273.34C154.745 1273.34 154.402 1273.43 154.156 1273.61C153.91 1273.78 153.711 1274.08 153.559 1274.51ZM156.863 1276.52C156.547 1276.62 156.046 1276.75 155.36 1276.9C154.675 1277.04 154.227 1277.19 154.016 1277.33C153.693 1277.55 153.532 1277.84 153.532 1278.2C153.532 1278.54 153.661 1278.84 153.919 1279.09C154.177 1279.34 154.505 1279.47 154.903 1279.47C155.349 1279.47 155.773 1279.32 156.178 1279.03C156.477 1278.81 156.673 1278.54 156.767 1278.21C156.831 1278 156.863 1277.6 156.863 1277.01V1276.52ZM164.097 1281H161.627V1271.67H163.921V1272.99C164.313 1272.37 164.665 1271.95 164.976 1271.75C165.292 1271.55 165.649 1271.46 166.048 1271.46C166.61 1271.46 167.152 1271.61 167.674 1271.92L166.909 1274.07C166.493 1273.8 166.106 1273.67 165.749 1273.67C165.403 1273.67 165.11 1273.77 164.87 1273.96C164.63 1274.15 164.439 1274.49 164.299 1274.99C164.164 1275.49 164.097 1276.53 164.097 1278.12V1281ZM167.577 1271.67H170.205L172.438 1278.29L174.617 1271.67H177.175L173.879 1280.65L173.29 1282.27C173.073 1282.82 172.865 1283.24 172.666 1283.52C172.473 1283.81 172.247 1284.04 171.989 1284.22C171.737 1284.4 171.424 1284.54 171.049 1284.64C170.68 1284.74 170.261 1284.79 169.792 1284.79C169.317 1284.79 168.852 1284.74 168.395 1284.64L168.175 1282.71C168.562 1282.78 168.91 1282.82 169.221 1282.82C169.795 1282.82 170.22 1282.65 170.495 1282.31C170.771 1281.98 170.981 1281.55 171.128 1281.03L167.577 1271.67ZM183.134 1276.81L185.665 1276.56C185.817 1277.41 186.125 1278.04 186.588 1278.43C187.057 1278.83 187.687 1279.03 188.478 1279.03C189.315 1279.03 189.945 1278.86 190.367 1278.5C190.795 1278.15 191.009 1277.73 191.009 1277.26C191.009 1276.95 190.918 1276.69 190.736 1276.48C190.561 1276.27 190.25 1276.08 189.805 1275.92C189.5 1275.81 188.806 1275.63 187.722 1275.36C186.327 1275.01 185.349 1274.59 184.786 1274.08C183.995 1273.37 183.6 1272.51 183.6 1271.49C183.6 1270.83 183.784 1270.22 184.153 1269.65C184.528 1269.08 185.064 1268.64 185.762 1268.34C186.465 1268.04 187.312 1267.9 188.302 1267.9C189.919 1267.9 191.135 1268.25 191.949 1268.96C192.77 1269.67 193.2 1270.61 193.241 1271.8L190.64 1271.91C190.528 1271.25 190.288 1270.78 189.919 1270.49C189.556 1270.2 189.008 1270.05 188.275 1270.05C187.52 1270.05 186.928 1270.2 186.5 1270.51C186.225 1270.71 186.087 1270.98 186.087 1271.31C186.087 1271.62 186.216 1271.88 186.474 1272.1C186.802 1272.37 187.599 1272.66 188.864 1272.96C190.13 1273.26 191.064 1273.57 191.668 1273.89C192.277 1274.21 192.752 1274.64 193.092 1275.2C193.438 1275.75 193.61 1276.43 193.61 1277.25C193.61 1277.99 193.405 1278.68 192.995 1279.32C192.585 1279.97 192.005 1280.45 191.255 1280.76C190.505 1281.07 189.57 1281.23 188.451 1281.23C186.822 1281.23 185.571 1280.85 184.698 1280.1C183.825 1279.35 183.304 1278.25 183.134 1276.81ZM201.187 1278.03L203.647 1278.44C203.331 1279.34 202.83 1280.03 202.145 1280.51C201.465 1280.98 200.612 1281.21 199.587 1281.21C197.964 1281.21 196.763 1280.68 195.983 1279.62C195.368 1278.77 195.061 1277.7 195.061 1276.4C195.061 1274.86 195.465 1273.65 196.273 1272.77C197.082 1271.89 198.104 1271.46 199.341 1271.46C200.729 1271.46 201.825 1271.92 202.628 1272.83C203.431 1273.75 203.814 1275.15 203.779 1277.04H197.592C197.609 1277.78 197.809 1278.35 198.189 1278.76C198.57 1279.16 199.045 1279.37 199.613 1279.37C200 1279.37 200.325 1279.26 200.589 1279.05C200.853 1278.84 201.052 1278.5 201.187 1278.03ZM201.327 1275.53C201.31 1274.82 201.125 1274.28 200.773 1273.91C200.422 1273.53 199.994 1273.34 199.49 1273.34C198.951 1273.34 198.506 1273.54 198.154 1273.93C197.803 1274.33 197.63 1274.86 197.636 1275.53H201.327ZM208.165 1281H205.695V1271.67H207.989V1272.99C208.382 1272.37 208.733 1271.95 209.044 1271.75C209.36 1271.55 209.718 1271.46 210.116 1271.46C210.679 1271.46 211.221 1271.61 211.742 1271.92L210.978 1274.07C210.562 1273.8 210.175 1273.67 209.817 1273.67C209.472 1273.67 209.179 1273.77 208.938 1273.96C208.698 1274.15 208.508 1274.49 208.367 1274.99C208.232 1275.49 208.165 1276.53 208.165 1278.12V1281ZM215.381 1281L211.619 1271.67H214.212L215.97 1276.43L216.479 1278.02C216.614 1277.62 216.699 1277.35 216.734 1277.22C216.816 1276.96 216.904 1276.69 216.998 1276.43L218.773 1271.67H221.313L217.604 1281H215.381ZM222.834 1270.4V1268.12H225.304V1270.4H222.834ZM222.834 1281V1271.67H225.304V1281H222.834ZM235.982 1274.43L233.548 1274.87C233.466 1274.38 233.278 1274.01 232.985 1273.77C232.698 1273.52 232.323 1273.4 231.86 1273.4C231.245 1273.4 230.753 1273.61 230.384 1274.04C230.021 1274.46 229.839 1275.17 229.839 1276.17C229.839 1277.27 230.023 1278.06 230.393 1278.51C230.768 1278.97 231.269 1279.2 231.896 1279.2C232.364 1279.2 232.748 1279.07 233.047 1278.8C233.346 1278.53 233.557 1278.07 233.68 1277.42L236.105 1277.84C235.854 1278.95 235.37 1279.79 234.655 1280.36C233.94 1280.93 232.982 1281.21 231.781 1281.21C230.416 1281.21 229.326 1280.78 228.512 1279.92C227.703 1279.06 227.299 1277.87 227.299 1276.34C227.299 1274.8 227.706 1273.6 228.521 1272.75C229.335 1271.89 230.437 1271.46 231.825 1271.46C232.962 1271.46 233.864 1271.7 234.532 1272.19C235.206 1272.68 235.689 1273.42 235.982 1274.43ZM243.269 1278.03L245.729 1278.44C245.413 1279.34 244.912 1280.03 244.227 1280.51C243.547 1280.98 242.694 1281.21 241.669 1281.21C240.046 1281.21 238.845 1280.68 238.065 1279.62C237.45 1278.77 237.143 1277.7 237.143 1276.4C237.143 1274.86 237.547 1273.65 238.355 1272.77C239.164 1271.89 240.187 1271.46 241.423 1271.46C242.812 1271.46 243.907 1271.92 244.71 1272.83C245.513 1273.75 245.896 1275.15 245.861 1277.04H239.674C239.691 1277.78 239.891 1278.35 240.271 1278.76C240.652 1279.16 241.127 1279.37 241.695 1279.37C242.082 1279.37 242.407 1279.26 242.671 1279.05C242.935 1278.84 243.134 1278.5 243.269 1278.03ZM243.409 1275.53C243.392 1274.82 243.207 1274.28 242.855 1273.91C242.504 1273.53 242.076 1273.34 241.572 1273.34C241.033 1273.34 240.588 1273.54 240.236 1273.93C239.885 1274.33 239.712 1274.86 239.718 1275.53H243.409ZM247.013 1278.34L249.491 1277.96C249.597 1278.44 249.811 1278.81 250.133 1279.06C250.455 1279.3 250.906 1279.43 251.486 1279.43C252.125 1279.43 252.605 1279.31 252.928 1279.08C253.145 1278.91 253.253 1278.69 253.253 1278.42C253.253 1278.23 253.194 1278.07 253.077 1277.95C252.954 1277.83 252.679 1277.72 252.251 1277.62C250.259 1277.19 248.996 1276.78 248.463 1276.42C247.725 1275.92 247.355 1275.22 247.355 1274.32C247.355 1273.51 247.675 1272.83 248.313 1272.28C248.952 1271.73 249.942 1271.46 251.284 1271.46C252.562 1271.46 253.511 1271.66 254.132 1272.08C254.753 1272.5 255.181 1273.11 255.415 1273.92L253.086 1274.36C252.986 1273.99 252.796 1273.71 252.515 1273.52C252.239 1273.33 251.844 1273.23 251.328 1273.23C250.678 1273.23 250.212 1273.32 249.931 1273.5C249.743 1273.63 249.649 1273.8 249.649 1274C249.649 1274.18 249.731 1274.33 249.896 1274.45C250.118 1274.62 250.886 1274.85 252.198 1275.15C253.517 1275.45 254.437 1275.81 254.958 1276.25C255.474 1276.68 255.731 1277.3 255.731 1278.08C255.731 1278.94 255.374 1279.67 254.659 1280.29C253.944 1280.9 252.887 1281.21 251.486 1281.21C250.215 1281.21 249.207 1280.95 248.463 1280.44C247.725 1279.92 247.241 1279.22 247.013 1278.34Z" fill="#3B393D"/>
<circle cx="187" cy="1188" r="58" stroke="#E66534" stroke-width="4"/>
<path d="M215.875 1201.7V1159.05C215.875 1157.36 214.517 1156 212.828 1156H171.188C164.459 1156 159 1161.46 159 1168.19V1208.81C159 1215.54 164.459 1221 171.188 1221H212.828C214.517 1221 215.875 1219.64 215.875 1217.95V1215.92C215.875 1214.97 215.431 1214.11 214.745 1213.55C214.212 1211.59 214.212 1206.02 214.745 1204.06C215.431 1203.52 215.875 1202.66 215.875 1201.7ZM175.25 1173.01C175.25 1172.59 175.593 1172.25 176.012 1172.25H202.926C203.345 1172.25 203.688 1172.59 203.688 1173.01V1175.55C203.688 1175.97 203.345 1176.31 202.926 1176.31H176.012C175.593 1176.31 175.25 1175.97 175.25 1175.55V1173.01ZM175.25 1181.14C175.25 1180.72 175.593 1180.38 176.012 1180.38H202.926C203.345 1180.38 203.688 1180.72 203.688 1181.14V1183.68C203.688 1184.09 203.345 1184.44 202.926 1184.44H176.012C175.593 1184.44 175.25 1184.09 175.25 1183.68V1181.14ZM207.42 1212.88H171.188C168.94 1212.88 167.125 1211.06 167.125 1208.81C167.125 1206.58 168.953 1204.75 171.188 1204.75H207.42C207.179 1206.92 207.179 1210.7 207.42 1212.88Z" fill="#E66534"/>
<path d="M73.9121 1071L70.8359 1058.12H73.499L75.4414 1066.97L77.7969 1058.12H80.8906L83.1494 1067.12L85.127 1058.12H87.7461L84.6172 1071H81.8574L79.291 1061.37L76.7334 1071H73.9121ZM91.0947 1071H88.625V1061.67H90.9189V1062.99C91.3115 1062.37 91.6631 1061.95 91.9736 1061.75C92.29 1061.55 92.6475 1061.46 93.0459 1061.46C93.6084 1061.46 94.1504 1061.61 94.6719 1061.92L93.9072 1064.07C93.4912 1063.8 93.1045 1063.67 92.7471 1063.67C92.4014 1063.67 92.1084 1063.77 91.8682 1063.96C91.6279 1064.15 91.4375 1064.49 91.2969 1064.99C91.1621 1065.49 91.0947 1066.53 91.0947 1068.12V1071ZM95.7441 1060.4V1058.12H98.2139V1060.4H95.7441ZM95.7441 1071V1061.67H98.2139V1071H95.7441ZM105.034 1061.67V1063.63H103.347V1067.4C103.347 1068.16 103.361 1068.6 103.391 1068.73C103.426 1068.86 103.499 1068.96 103.61 1069.04C103.728 1069.12 103.868 1069.16 104.032 1069.16C104.261 1069.16 104.592 1069.08 105.025 1068.93L105.236 1070.84C104.662 1071.09 104.012 1071.21 103.285 1071.21C102.84 1071.21 102.438 1071.14 102.081 1070.99C101.724 1070.84 101.46 1070.65 101.29 1070.41C101.126 1070.17 101.012 1069.85 100.947 1069.44C100.895 1069.16 100.868 1068.58 100.868 1067.7V1063.63H99.7344V1061.67H100.868V1059.81L103.347 1058.37V1061.67H105.034ZM111.028 1061.67V1063.63H109.341V1067.4C109.341 1068.16 109.355 1068.6 109.385 1068.73C109.42 1068.86 109.493 1068.96 109.604 1069.04C109.722 1069.12 109.862 1069.16 110.026 1069.16C110.255 1069.16 110.586 1069.08 111.02 1068.93L111.23 1070.84C110.656 1071.09 110.006 1071.21 109.279 1071.21C108.834 1071.21 108.433 1071.14 108.075 1070.99C107.718 1070.84 107.454 1070.65 107.284 1070.41C107.12 1070.17 107.006 1069.85 106.941 1069.44C106.889 1069.16 106.862 1068.58 106.862 1067.7V1063.63H105.729V1061.67H106.862V1059.81L109.341 1058.37V1061.67H111.028ZM121.232 1071H118.763V1066.24C118.763 1065.23 118.71 1064.58 118.604 1064.29C118.499 1063.99 118.326 1063.75 118.086 1063.59C117.852 1063.43 117.567 1063.34 117.233 1063.34C116.806 1063.34 116.422 1063.46 116.082 1063.7C115.742 1063.93 115.508 1064.24 115.379 1064.63C115.256 1065.01 115.194 1065.73 115.194 1066.77V1071H112.725V1061.67H115.019V1063.04C115.833 1061.98 116.858 1061.46 118.095 1061.46C118.64 1061.46 119.138 1061.55 119.589 1061.75C120.04 1061.95 120.38 1062.2 120.608 1062.5C120.843 1062.81 121.004 1063.15 121.092 1063.54C121.186 1063.92 121.232 1064.48 121.232 1065.2V1071ZM123.518 1071.62L126.339 1071.96C126.386 1072.29 126.494 1072.51 126.664 1072.63C126.898 1072.81 127.268 1072.9 127.771 1072.9C128.416 1072.9 128.899 1072.8 129.222 1072.61C129.438 1072.48 129.603 1072.27 129.714 1071.98C129.79 1071.78 129.828 1071.4 129.828 1070.85V1069.49C129.09 1070.5 128.158 1071 127.033 1071C125.779 1071 124.786 1070.47 124.054 1069.41C123.479 1068.57 123.192 1067.53 123.192 1066.28C123.192 1064.72 123.567 1063.52 124.317 1062.69C125.073 1061.87 126.011 1061.46 127.13 1061.46C128.284 1061.46 129.236 1061.96 129.986 1062.98V1061.67H132.298V1070.04C132.298 1071.14 132.207 1071.97 132.025 1072.51C131.844 1073.06 131.589 1073.48 131.261 1073.79C130.933 1074.11 130.493 1074.35 129.942 1074.52C129.397 1074.7 128.706 1074.79 127.868 1074.79C126.286 1074.79 125.164 1074.52 124.502 1073.97C123.84 1073.43 123.509 1072.75 123.509 1071.91C123.509 1071.83 123.512 1071.73 123.518 1071.62ZM125.724 1066.14C125.724 1067.13 125.914 1067.86 126.295 1068.32C126.682 1068.78 127.156 1069 127.719 1069C128.322 1069 128.832 1068.77 129.248 1068.3C129.664 1067.83 129.872 1067.13 129.872 1066.2C129.872 1065.23 129.673 1064.52 129.274 1064.05C128.876 1063.58 128.372 1063.34 127.763 1063.34C127.171 1063.34 126.682 1063.58 126.295 1064.04C125.914 1064.5 125.724 1065.2 125.724 1066.14ZM151.177 1069.43L149.683 1071.33C148.95 1070.98 148.247 1070.48 147.573 1069.86C147.052 1070.33 146.498 1070.67 145.912 1070.89C145.326 1071.12 144.629 1071.23 143.82 1071.23C142.215 1071.23 141.008 1070.78 140.199 1069.88C139.572 1069.18 139.259 1068.38 139.259 1067.47C139.259 1066.64 139.505 1065.9 139.997 1065.24C140.489 1064.58 141.225 1064.01 142.203 1063.52C141.764 1063 141.433 1062.5 141.21 1062.04C140.987 1061.56 140.876 1061.11 140.876 1060.69C140.876 1059.91 141.187 1059.25 141.808 1058.71C142.435 1058.17 143.325 1057.9 144.479 1057.9C145.593 1057.9 146.463 1058.18 147.09 1058.75C147.717 1059.32 148.03 1060.01 148.03 1060.83C148.03 1061.35 147.875 1061.85 147.564 1062.32C147.254 1062.79 146.627 1063.32 145.684 1063.91L147.477 1066.27C147.688 1065.9 147.869 1065.41 148.021 1064.8L150.254 1065.31C150.031 1066.1 149.838 1066.68 149.674 1067.05C149.51 1067.42 149.334 1067.72 149.146 1067.97C149.422 1068.23 149.776 1068.51 150.21 1068.82C150.649 1069.12 150.972 1069.33 151.177 1069.43ZM144.453 1062.42L145.121 1061.91C145.613 1061.53 145.859 1061.15 145.859 1060.78C145.859 1060.46 145.739 1060.19 145.499 1059.97C145.265 1059.75 144.945 1059.64 144.541 1059.64C144.148 1059.64 143.841 1059.74 143.618 1059.93C143.396 1060.13 143.284 1060.35 143.284 1060.61C143.284 1060.92 143.472 1061.29 143.847 1061.72L144.453 1062.42ZM143.486 1065.1C142.918 1065.39 142.493 1065.74 142.212 1066.14C141.931 1066.54 141.79 1066.96 141.79 1067.38C141.79 1067.91 141.963 1068.35 142.309 1068.69C142.66 1069.02 143.129 1069.19 143.715 1069.19C144.102 1069.19 144.474 1069.11 144.831 1068.96C145.188 1068.81 145.578 1068.56 146 1068.21L143.486 1065.1ZM160.695 1071V1060.29H156.872V1058.12H167.111V1060.29H163.297V1071H160.695ZM173.589 1071V1069.6C173.249 1070.1 172.801 1070.49 172.244 1070.78C171.693 1071.07 171.11 1071.21 170.495 1071.21C169.868 1071.21 169.306 1071.07 168.808 1070.8C168.31 1070.52 167.949 1070.14 167.727 1069.64C167.504 1069.14 167.393 1068.45 167.393 1067.57V1061.67H169.862V1065.96C169.862 1067.27 169.906 1068.07 169.994 1068.37C170.088 1068.67 170.255 1068.9 170.495 1069.08C170.735 1069.25 171.04 1069.33 171.409 1069.33C171.831 1069.33 172.209 1069.22 172.543 1068.99C172.877 1068.75 173.105 1068.47 173.229 1068.13C173.352 1067.78 173.413 1066.94 173.413 1065.6V1061.67H175.883V1071H173.589ZM182.729 1061.67V1063.63H181.042V1067.4C181.042 1068.16 181.057 1068.6 181.086 1068.73C181.121 1068.86 181.194 1068.96 181.306 1069.04C181.423 1069.12 181.563 1069.16 181.728 1069.16C181.956 1069.16 182.287 1069.08 182.721 1068.93L182.932 1070.84C182.357 1071.09 181.707 1071.21 180.98 1071.21C180.535 1071.21 180.134 1071.14 179.776 1070.99C179.419 1070.84 179.155 1070.65 178.985 1070.41C178.821 1070.17 178.707 1069.85 178.643 1069.44C178.59 1069.16 178.563 1068.58 178.563 1067.7V1063.63H177.43V1061.67H178.563V1059.81L181.042 1058.37V1061.67H182.729ZM183.872 1066.2C183.872 1065.38 184.074 1064.59 184.479 1063.82C184.883 1063.05 185.454 1062.47 186.192 1062.06C186.937 1061.66 187.766 1061.46 188.68 1061.46C190.092 1061.46 191.249 1061.92 192.151 1062.83C193.054 1063.75 193.505 1064.91 193.505 1066.31C193.505 1067.72 193.048 1068.89 192.134 1069.82C191.226 1070.75 190.08 1071.21 188.697 1071.21C187.842 1071.21 187.024 1071.02 186.245 1070.63C185.472 1070.24 184.883 1069.68 184.479 1068.93C184.074 1068.18 183.872 1067.27 183.872 1066.2ZM186.403 1066.33C186.403 1067.26 186.623 1067.97 187.062 1068.46C187.502 1068.95 188.044 1069.2 188.688 1069.2C189.333 1069.2 189.872 1068.95 190.306 1068.46C190.745 1067.97 190.965 1067.25 190.965 1066.32C190.965 1065.4 190.745 1064.7 190.306 1064.21C189.872 1063.71 189.333 1063.47 188.688 1063.47C188.044 1063.47 187.502 1063.71 187.062 1064.21C186.623 1064.7 186.403 1065.41 186.403 1066.33ZM197.812 1071H195.342V1061.67H197.636V1062.99C198.028 1062.37 198.38 1061.95 198.69 1061.75C199.007 1061.55 199.364 1061.46 199.763 1061.46C200.325 1061.46 200.867 1061.61 201.389 1061.92L200.624 1064.07C200.208 1063.8 199.821 1063.67 199.464 1063.67C199.118 1063.67 198.825 1063.77 198.585 1063.96C198.345 1064.15 198.154 1064.49 198.014 1064.99C197.879 1065.49 197.812 1066.53 197.812 1068.12V1071ZM202.461 1060.4V1058.12H204.931V1060.4H202.461ZM202.461 1071V1061.67H204.931V1071H202.461ZM215.961 1071H213.491V1066.24C213.491 1065.23 213.438 1064.58 213.333 1064.29C213.228 1063.99 213.055 1063.75 212.814 1063.59C212.58 1063.43 212.296 1063.34 211.962 1063.34C211.534 1063.34 211.15 1063.46 210.811 1063.7C210.471 1063.93 210.236 1064.24 210.107 1064.63C209.984 1065.01 209.923 1065.73 209.923 1066.77V1071H207.453V1061.67H209.747V1063.04C210.562 1061.98 211.587 1061.46 212.823 1061.46C213.368 1061.46 213.866 1061.55 214.317 1061.75C214.769 1061.95 215.108 1062.2 215.337 1062.5C215.571 1062.81 215.732 1063.15 215.82 1063.54C215.914 1063.92 215.961 1064.48 215.961 1065.2V1071ZM218.246 1071.62L221.067 1071.96C221.114 1072.29 221.223 1072.51 221.393 1072.63C221.627 1072.81 221.996 1072.9 222.5 1072.9C223.145 1072.9 223.628 1072.8 223.95 1072.61C224.167 1072.48 224.331 1072.27 224.442 1071.98C224.519 1071.78 224.557 1071.4 224.557 1070.85V1069.49C223.818 1070.5 222.887 1071 221.762 1071C220.508 1071 219.515 1070.47 218.782 1069.41C218.208 1068.57 217.921 1067.53 217.921 1066.28C217.921 1064.72 218.296 1063.52 219.046 1062.69C219.802 1061.87 220.739 1061.46 221.858 1061.46C223.013 1061.46 223.965 1061.96 224.715 1062.98V1061.67H227.026V1070.04C227.026 1071.14 226.936 1071.97 226.754 1072.51C226.572 1073.06 226.317 1073.48 225.989 1073.79C225.661 1074.11 225.222 1074.35 224.671 1074.52C224.126 1074.7 223.435 1074.79 222.597 1074.79C221.015 1074.79 219.893 1074.52 219.23 1073.97C218.568 1073.43 218.237 1072.75 218.237 1071.91C218.237 1071.83 218.24 1071.73 218.246 1071.62ZM220.452 1066.14C220.452 1067.13 220.643 1067.86 221.023 1068.32C221.41 1068.78 221.885 1069 222.447 1069C223.051 1069 223.561 1068.77 223.977 1068.3C224.393 1067.83 224.601 1067.13 224.601 1066.2C224.601 1065.23 224.401 1064.52 224.003 1064.05C223.604 1063.58 223.101 1063.34 222.491 1063.34C221.899 1063.34 221.41 1063.58 221.023 1064.04C220.643 1064.5 220.452 1065.2 220.452 1066.14ZM233.847 1066.81L236.378 1066.56C236.53 1067.41 236.838 1068.04 237.301 1068.43C237.77 1068.83 238.399 1069.03 239.19 1069.03C240.028 1069.03 240.658 1068.86 241.08 1068.5C241.508 1068.15 241.722 1067.73 241.722 1067.26C241.722 1066.95 241.631 1066.69 241.449 1066.48C241.273 1066.27 240.963 1066.08 240.518 1065.92C240.213 1065.81 239.519 1065.63 238.435 1065.36C237.04 1065.01 236.062 1064.59 235.499 1064.08C234.708 1063.37 234.312 1062.51 234.312 1061.49C234.312 1060.83 234.497 1060.22 234.866 1059.65C235.241 1059.08 235.777 1058.64 236.475 1058.34C237.178 1058.04 238.024 1057.9 239.015 1057.9C240.632 1057.9 241.848 1058.25 242.662 1058.96C243.482 1059.67 243.913 1060.61 243.954 1061.8L241.353 1061.91C241.241 1061.25 241.001 1060.78 240.632 1060.49C240.269 1060.2 239.721 1060.05 238.988 1060.05C238.232 1060.05 237.641 1060.2 237.213 1060.51C236.938 1060.71 236.8 1060.98 236.8 1061.31C236.8 1061.62 236.929 1061.88 237.187 1062.1C237.515 1062.37 238.312 1062.66 239.577 1062.96C240.843 1063.26 241.777 1063.57 242.381 1063.89C242.99 1064.21 243.465 1064.64 243.805 1065.2C244.15 1065.75 244.323 1066.43 244.323 1067.25C244.323 1067.99 244.118 1068.68 243.708 1069.32C243.298 1069.97 242.718 1070.45 241.968 1070.76C241.218 1071.07 240.283 1071.23 239.164 1071.23C237.535 1071.23 236.284 1070.85 235.411 1070.1C234.538 1069.35 234.017 1068.25 233.847 1066.81ZM252.638 1071V1069.6C252.298 1070.1 251.85 1070.49 251.293 1070.78C250.742 1071.07 250.159 1071.21 249.544 1071.21C248.917 1071.21 248.354 1071.07 247.856 1070.8C247.358 1070.52 246.998 1070.14 246.775 1069.64C246.553 1069.14 246.441 1068.45 246.441 1067.57V1061.67H248.911V1065.96C248.911 1067.27 248.955 1068.07 249.043 1068.37C249.137 1068.67 249.304 1068.9 249.544 1069.08C249.784 1069.25 250.089 1069.33 250.458 1069.33C250.88 1069.33 251.258 1069.22 251.592 1068.99C251.926 1068.75 252.154 1068.47 252.277 1068.13C252.4 1067.78 252.462 1066.94 252.462 1065.6V1061.67H254.932V1071H252.638ZM257.428 1061.67H259.73V1063.04C260.029 1062.57 260.434 1062.19 260.943 1061.89C261.453 1061.6 262.019 1061.46 262.64 1061.46C263.724 1061.46 264.644 1061.88 265.399 1062.73C266.155 1063.58 266.533 1064.76 266.533 1066.28C266.533 1067.84 266.152 1069.05 265.391 1069.92C264.629 1070.78 263.706 1071.21 262.622 1071.21C262.106 1071.21 261.638 1071.11 261.216 1070.9C260.8 1070.7 260.36 1070.35 259.897 1069.85V1074.55H257.428V1061.67ZM259.871 1066.17C259.871 1067.22 260.079 1068 260.495 1068.5C260.911 1069 261.418 1069.25 262.016 1069.25C262.59 1069.25 263.067 1069.02 263.448 1068.57C263.829 1068.1 264.02 1067.35 264.02 1066.3C264.02 1065.32 263.823 1064.59 263.431 1064.12C263.038 1063.64 262.552 1063.41 261.972 1063.41C261.368 1063.41 260.867 1063.64 260.469 1064.11C260.07 1064.57 259.871 1065.26 259.871 1066.17ZM268.432 1061.67H270.734V1063.04C271.033 1062.57 271.438 1062.19 271.947 1061.89C272.457 1061.6 273.022 1061.46 273.644 1061.46C274.728 1061.46 275.647 1061.88 276.403 1062.73C277.159 1063.58 277.537 1064.76 277.537 1066.28C277.537 1067.84 277.156 1069.05 276.395 1069.92C275.633 1070.78 274.71 1071.21 273.626 1071.21C273.11 1071.21 272.642 1071.11 272.22 1070.9C271.804 1070.7 271.364 1070.35 270.901 1069.85V1074.55H268.432V1061.67ZM270.875 1066.17C270.875 1067.22 271.083 1068 271.499 1068.5C271.915 1069 272.422 1069.25 273.02 1069.25C273.594 1069.25 274.071 1069.02 274.452 1068.57C274.833 1068.1 275.023 1067.35 275.023 1066.3C275.023 1065.32 274.827 1064.59 274.435 1064.12C274.042 1063.64 273.556 1063.41 272.976 1063.41C272.372 1063.41 271.871 1063.64 271.473 1064.11C271.074 1064.57 270.875 1065.26 270.875 1066.17ZM278.935 1066.2C278.935 1065.38 279.137 1064.59 279.541 1063.82C279.945 1063.05 280.517 1062.47 281.255 1062.06C281.999 1061.66 282.828 1061.46 283.742 1061.46C285.154 1061.46 286.312 1061.92 287.214 1062.83C288.116 1063.75 288.567 1064.91 288.567 1066.31C288.567 1067.72 288.11 1068.89 287.196 1069.82C286.288 1070.75 285.143 1071.21 283.76 1071.21C282.904 1071.21 282.087 1071.02 281.308 1070.63C280.534 1070.24 279.945 1069.68 279.541 1068.93C279.137 1068.18 278.935 1067.27 278.935 1066.2ZM281.466 1066.33C281.466 1067.26 281.686 1067.97 282.125 1068.46C282.564 1068.95 283.106 1069.2 283.751 1069.2C284.396 1069.2 284.935 1068.95 285.368 1068.46C285.808 1067.97 286.027 1067.25 286.027 1066.32C286.027 1065.4 285.808 1064.7 285.368 1064.21C284.935 1063.71 284.396 1063.47 283.751 1063.47C283.106 1063.47 282.564 1063.71 282.125 1064.21C281.686 1064.7 281.466 1065.41 281.466 1066.33ZM292.874 1071H290.404V1061.67H292.698V1062.99C293.091 1062.37 293.442 1061.95 293.753 1061.75C294.069 1061.55 294.427 1061.46 294.825 1061.46C295.388 1061.46 295.93 1061.61 296.451 1061.92L295.687 1064.07C295.271 1063.8 294.884 1063.67 294.526 1063.67C294.181 1063.67 293.888 1063.77 293.647 1063.96C293.407 1064.15 293.217 1064.49 293.076 1064.99C292.941 1065.49 292.874 1066.53 292.874 1068.12V1071ZM301.804 1061.67V1063.63H300.116V1067.4C300.116 1068.16 300.131 1068.6 300.16 1068.73C300.195 1068.86 300.269 1068.96 300.38 1069.04C300.497 1069.12 300.638 1069.16 300.802 1069.16C301.03 1069.16 301.361 1069.08 301.795 1068.93L302.006 1070.84C301.432 1071.09 300.781 1071.21 300.055 1071.21C299.609 1071.21 299.208 1071.14 298.851 1070.99C298.493 1070.84 298.229 1070.65 298.06 1070.41C297.896 1070.17 297.781 1069.85 297.717 1069.44C297.664 1069.16 297.638 1068.58 297.638 1067.7V1063.63H296.504V1061.67H297.638V1059.81L300.116 1058.37V1061.67H301.804Z" fill="#3B393D"/>
<circle cx="187" cy="978" r="58" stroke="#E66534" stroke-width="4"/>
<path d="M218.209 964.031L212.357 969.884C211.76 970.481 210.795 970.481 210.198 969.884L196.106 955.792C195.509 955.195 195.509 954.23 196.106 953.633L201.959 947.781C204.333 945.406 208.192 945.406 210.579 947.781L218.209 955.411C220.596 957.785 220.596 961.644 218.209 964.031ZM191.079 958.661L157.739 992L155.048 1007.43C154.68 1009.51 156.495 1011.31 158.577 1010.95L174.003 1008.25L207.342 974.912C207.939 974.315 207.939 973.35 207.342 972.753L193.249 958.661C192.64 958.064 191.675 958.064 191.079 958.661V958.661ZM170.752 989.144C170.054 988.445 170.054 987.328 170.752 986.63L190.304 967.078C191.002 966.38 192.12 966.38 192.818 967.078C193.516 967.777 193.516 968.894 192.818 969.592L173.266 989.144C172.568 989.842 171.451 989.842 170.752 989.144V989.144ZM166.169 999.821H172.263V1004.43L164.075 1005.86L160.126 1001.92L161.561 993.727H166.169V999.821Z" fill="#E66534"/>
<path d="M92.8525 644.637C92.8525 643.324 93.0488 642.223 93.4414 641.332C93.7344 640.676 94.1328 640.087 94.6367 639.565C95.1465 639.044 95.7031 638.657 96.3066 638.405C97.1094 638.065 98.0352 637.896 99.084 637.896C100.982 637.896 102.5 638.484 103.637 639.662C104.779 640.84 105.351 642.478 105.351 644.575C105.351 646.655 104.785 648.284 103.654 649.462C102.523 650.634 101.012 651.22 99.1191 651.22C97.2031 651.22 95.6797 650.637 94.5488 649.471C93.418 648.299 92.8525 646.688 92.8525 644.637ZM95.5332 644.549C95.5332 646.008 95.8701 647.115 96.5439 647.871C97.2178 648.621 98.0732 648.996 99.1104 648.996C100.147 648.996 100.997 648.624 101.659 647.88C102.327 647.13 102.661 646.008 102.661 644.514C102.661 643.037 102.336 641.936 101.686 641.209C101.041 640.482 100.183 640.119 99.1104 640.119C98.0381 640.119 97.1738 640.488 96.5176 641.227C95.8613 641.959 95.5332 643.066 95.5332 644.549ZM115.862 651H113.393V646.236C113.393 645.229 113.34 644.578 113.234 644.285C113.129 643.986 112.956 643.755 112.716 643.591C112.481 643.427 112.197 643.345 111.863 643.345C111.436 643.345 111.052 643.462 110.712 643.696C110.372 643.931 110.138 644.241 110.009 644.628C109.886 645.015 109.824 645.729 109.824 646.772V651H107.354V641.666H109.648V643.037C110.463 641.982 111.488 641.455 112.725 641.455C113.27 641.455 113.768 641.555 114.219 641.754C114.67 641.947 115.01 642.196 115.238 642.501C115.473 642.806 115.634 643.151 115.722 643.538C115.815 643.925 115.862 644.479 115.862 645.199V651ZM118.376 651V638.115H120.846V651H118.376ZM123.386 640.4V638.115H125.855V640.4H123.386ZM123.386 651V641.666H125.855V651H123.386ZM136.886 651H134.416V646.236C134.416 645.229 134.363 644.578 134.258 644.285C134.152 643.986 133.979 643.755 133.739 643.591C133.505 643.427 133.221 643.345 132.887 643.345C132.459 643.345 132.075 643.462 131.735 643.696C131.396 643.931 131.161 644.241 131.032 644.628C130.909 645.015 130.848 645.729 130.848 646.772V651H128.378V641.666H130.672V643.037C131.486 641.982 132.512 641.455 133.748 641.455C134.293 641.455 134.791 641.555 135.242 641.754C135.693 641.947 136.033 642.196 136.262 642.501C136.496 642.806 136.657 643.151 136.745 643.538C136.839 643.925 136.886 644.479 136.886 645.199V651ZM144.805 648.029L147.266 648.442C146.949 649.345 146.448 650.033 145.763 650.508C145.083 650.977 144.23 651.211 143.205 651.211C141.582 651.211 140.381 650.681 139.602 649.62C138.986 648.771 138.679 647.698 138.679 646.403C138.679 644.856 139.083 643.646 139.892 642.773C140.7 641.895 141.723 641.455 142.959 641.455C144.348 641.455 145.443 641.915 146.246 642.835C147.049 643.749 147.433 645.152 147.397 647.045H141.21C141.228 647.777 141.427 648.349 141.808 648.759C142.188 649.163 142.663 649.365 143.231 649.365C143.618 649.365 143.943 649.26 144.207 649.049C144.471 648.838 144.67 648.498 144.805 648.029ZM144.945 645.533C144.928 644.818 144.743 644.276 144.392 643.907C144.04 643.532 143.612 643.345 143.108 643.345C142.569 643.345 142.124 643.541 141.772 643.934C141.421 644.326 141.248 644.859 141.254 645.533H144.945ZM154.517 651V638.221H157.118V648.829H163.587V651H154.517ZM170.838 648.029L173.299 648.442C172.982 649.345 172.481 650.033 171.796 650.508C171.116 650.977 170.264 651.211 169.238 651.211C167.615 651.211 166.414 650.681 165.635 649.62C165.02 648.771 164.712 647.698 164.712 646.403C164.712 644.856 165.116 643.646 165.925 642.773C166.733 641.895 167.756 641.455 168.992 641.455C170.381 641.455 171.477 641.915 172.279 642.835C173.082 643.749 173.466 645.152 173.431 647.045H167.243C167.261 647.777 167.46 648.349 167.841 648.759C168.222 649.163 168.696 649.365 169.265 649.365C169.651 649.365 169.977 649.26 170.24 649.049C170.504 648.838 170.703 648.498 170.838 648.029ZM170.979 645.533C170.961 644.818 170.776 644.276 170.425 643.907C170.073 643.532 169.646 643.345 169.142 643.345C168.603 643.345 168.157 643.541 167.806 643.934C167.454 644.326 167.281 644.859 167.287 645.533H170.979ZM177.298 644.514L175.057 644.109C175.309 643.207 175.742 642.539 176.357 642.105C176.973 641.672 177.887 641.455 179.1 641.455C180.201 641.455 181.021 641.587 181.561 641.851C182.1 642.108 182.478 642.439 182.694 642.844C182.917 643.242 183.028 643.978 183.028 645.05L183.002 647.933C183.002 648.753 183.04 649.359 183.116 649.752C183.198 650.139 183.348 650.555 183.564 651H181.121C181.057 650.836 180.978 650.593 180.884 650.271C180.843 650.124 180.813 650.027 180.796 649.98C180.374 650.391 179.923 650.698 179.442 650.903C178.962 651.108 178.449 651.211 177.904 651.211C176.943 651.211 176.185 650.95 175.628 650.429C175.077 649.907 174.802 649.248 174.802 648.451C174.802 647.924 174.928 647.455 175.18 647.045C175.432 646.629 175.783 646.312 176.234 646.096C176.691 645.873 177.348 645.68 178.203 645.516C179.357 645.299 180.157 645.097 180.603 644.909V644.663C180.603 644.188 180.485 643.852 180.251 643.652C180.017 643.447 179.574 643.345 178.924 643.345C178.484 643.345 178.142 643.433 177.896 643.608C177.649 643.778 177.45 644.08 177.298 644.514ZM180.603 646.518C180.286 646.623 179.785 646.749 179.1 646.896C178.414 647.042 177.966 647.186 177.755 647.326C177.433 647.555 177.271 647.845 177.271 648.196C177.271 648.542 177.4 648.841 177.658 649.093C177.916 649.345 178.244 649.471 178.643 649.471C179.088 649.471 179.513 649.324 179.917 649.031C180.216 648.809 180.412 648.536 180.506 648.214C180.57 648.003 180.603 647.602 180.603 647.01V646.518ZM187.836 651H185.366V641.666H187.66V642.993C188.053 642.366 188.404 641.953 188.715 641.754C189.031 641.555 189.389 641.455 189.787 641.455C190.35 641.455 190.892 641.61 191.413 641.921L190.648 644.074C190.232 643.805 189.846 643.67 189.488 643.67C189.143 643.67 188.85 643.767 188.609 643.96C188.369 644.147 188.179 644.49 188.038 644.988C187.903 645.486 187.836 646.529 187.836 648.117V651ZM200.976 651H198.506V646.236C198.506 645.229 198.453 644.578 198.348 644.285C198.242 643.986 198.069 643.755 197.829 643.591C197.595 643.427 197.311 643.345 196.977 643.345C196.549 643.345 196.165 643.462 195.825 643.696C195.485 643.931 195.251 644.241 195.122 644.628C194.999 645.015 194.938 645.729 194.938 646.772V651H192.468V641.666H194.762V643.037C195.576 641.982 196.602 641.455 197.838 641.455C198.383 641.455 198.881 641.555 199.332 641.754C199.783 641.947 200.123 642.196 200.352 642.501C200.586 642.806 200.747 643.151 200.835 643.538C200.929 643.925 200.976 644.479 200.976 645.199V651ZM203.489 640.4V638.115H205.959V640.4H203.489ZM203.489 651V641.666H205.959V651H203.489ZM216.989 651H214.52V646.236C214.52 645.229 214.467 644.578 214.361 644.285C214.256 643.986 214.083 643.755 213.843 643.591C213.608 643.427 213.324 643.345 212.99 643.345C212.562 643.345 212.179 643.462 211.839 643.696C211.499 643.931 211.265 644.241 211.136 644.628C211.013 645.015 210.951 645.729 210.951 646.772V651H208.481V641.666H210.775V643.037C211.59 641.982 212.615 641.455 213.852 641.455C214.396 641.455 214.895 641.555 215.346 641.754C215.797 641.947 216.137 642.196 216.365 642.501C216.6 642.806 216.761 643.151 216.849 643.538C216.942 643.925 216.989 644.479 216.989 645.199V651ZM219.274 651.615L222.096 651.958C222.143 652.286 222.251 652.512 222.421 652.635C222.655 652.811 223.024 652.898 223.528 652.898C224.173 652.898 224.656 652.802 224.979 652.608C225.195 652.479 225.359 652.271 225.471 651.984C225.547 651.779 225.585 651.401 225.585 650.851V649.488C224.847 650.496 223.915 651 222.79 651C221.536 651 220.543 650.47 219.811 649.409C219.236 648.571 218.949 647.528 218.949 646.28C218.949 644.716 219.324 643.521 220.074 642.694C220.83 641.868 221.768 641.455 222.887 641.455C224.041 641.455 224.993 641.962 225.743 642.976V641.666H228.055V650.042C228.055 651.144 227.964 651.967 227.782 652.512C227.601 653.057 227.346 653.484 227.018 653.795C226.689 654.105 226.25 654.349 225.699 654.524C225.154 654.7 224.463 654.788 223.625 654.788C222.043 654.788 220.921 654.516 220.259 653.971C219.597 653.432 219.266 652.746 219.266 651.914C219.266 651.832 219.269 651.732 219.274 651.615ZM221.48 646.14C221.48 647.13 221.671 647.856 222.052 648.319C222.438 648.776 222.913 649.005 223.476 649.005C224.079 649.005 224.589 648.771 225.005 648.302C225.421 647.827 225.629 647.127 225.629 646.201C225.629 645.234 225.43 644.517 225.031 644.048C224.633 643.579 224.129 643.345 223.52 643.345C222.928 643.345 222.438 643.576 222.052 644.039C221.671 644.496 221.48 645.196 221.48 646.14ZM238.435 651V640.295H234.611V638.115H244.851V640.295H241.036V651H238.435ZM244.613 646.201C244.613 645.381 244.815 644.587 245.22 643.819C245.624 643.052 246.195 642.466 246.934 642.062C247.678 641.657 248.507 641.455 249.421 641.455C250.833 641.455 251.99 641.915 252.893 642.835C253.795 643.749 254.246 644.906 254.246 646.307C254.246 647.719 253.789 648.891 252.875 649.822C251.967 650.748 250.821 651.211 249.438 651.211C248.583 651.211 247.766 651.018 246.986 650.631C246.213 650.244 245.624 649.679 245.22 648.935C244.815 648.185 244.613 647.273 244.613 646.201ZM247.145 646.333C247.145 647.259 247.364 647.968 247.804 648.46C248.243 648.952 248.785 649.198 249.43 649.198C250.074 649.198 250.613 648.952 251.047 648.46C251.486 647.968 251.706 647.253 251.706 646.315C251.706 645.401 251.486 644.698 251.047 644.206C250.613 643.714 250.074 643.468 249.43 643.468C248.785 643.468 248.243 643.714 247.804 644.206C247.364 644.698 247.145 645.407 247.145 646.333ZM255.617 646.201C255.617 645.381 255.819 644.587 256.224 643.819C256.628 643.052 257.199 642.466 257.938 642.062C258.682 641.657 259.511 641.455 260.425 641.455C261.837 641.455 262.994 641.915 263.896 642.835C264.799 643.749 265.25 644.906 265.25 646.307C265.25 647.719 264.793 648.891 263.879 649.822C262.971 650.748 261.825 651.211 260.442 651.211C259.587 651.211 258.77 651.018 257.99 650.631C257.217 650.244 256.628 649.679 256.224 648.935C255.819 648.185 255.617 647.273 255.617 646.201ZM258.148 646.333C258.148 647.259 258.368 647.968 258.808 648.46C259.247 648.952 259.789 649.198 260.434 649.198C261.078 649.198 261.617 648.952 262.051 648.46C262.49 647.968 262.71 647.253 262.71 646.315C262.71 645.401 262.49 644.698 262.051 644.206C261.617 643.714 261.078 643.468 260.434 643.468C259.789 643.468 259.247 643.714 258.808 644.206C258.368 644.698 258.148 645.407 258.148 646.333ZM267.192 651V638.115H269.662V651H267.192ZM271.332 648.337L273.811 647.959C273.916 648.439 274.13 648.806 274.452 649.058C274.774 649.304 275.226 649.427 275.806 649.427C276.444 649.427 276.925 649.31 277.247 649.075C277.464 648.911 277.572 648.691 277.572 648.416C277.572 648.229 277.514 648.073 277.396 647.95C277.273 647.833 276.998 647.725 276.57 647.625C274.578 647.186 273.315 646.784 272.782 646.421C272.044 645.917 271.675 645.217 271.675 644.32C271.675 643.512 271.994 642.832 272.633 642.281C273.271 641.73 274.262 641.455 275.604 641.455C276.881 641.455 277.83 641.663 278.451 642.079C279.072 642.495 279.5 643.11 279.734 643.925L277.405 644.355C277.306 643.992 277.115 643.714 276.834 643.521C276.559 643.327 276.163 643.23 275.647 643.23C274.997 643.23 274.531 643.321 274.25 643.503C274.062 643.632 273.969 643.799 273.969 644.004C273.969 644.18 274.051 644.329 274.215 644.452C274.438 644.616 275.205 644.848 276.518 645.146C277.836 645.445 278.756 645.812 279.277 646.245C279.793 646.685 280.051 647.297 280.051 648.082C280.051 648.938 279.693 649.673 278.979 650.288C278.264 650.903 277.206 651.211 275.806 651.211C274.534 651.211 273.526 650.953 272.782 650.438C272.044 649.922 271.561 649.222 271.332 648.337Z" fill="#3B393D"/>
<circle cx="187" cy="558" r="58" stroke="#E66534" stroke-width="4"/>
<path d="M218.458 539.85C218.174 538.704 216.739 538.316 215.904 539.151L206.464 548.591L197.846 547.155L196.41 538.538L205.85 529.097C206.691 528.257 206.286 526.825 205.132 526.538C199.117 525.048 192.494 526.654 187.793 531.353C182.76 536.386 181.375 543.681 183.47 550.041L156.379 577.131C153.207 580.304 153.207 585.448 156.379 588.621C159.552 591.793 164.696 591.793 167.869 588.621L194.936 561.553C201.299 563.674 208.58 562.274 213.645 557.209C218.351 552.502 219.955 545.869 218.458 539.85V539.85ZM162.125 585.922C160.443 585.922 159.078 584.557 159.078 582.875C159.078 581.191 160.443 579.828 162.125 579.828C163.807 579.828 165.172 581.191 165.172 582.875C165.172 584.557 163.807 585.922 162.125 585.922Z" fill="#E66534"/>
<path d="M115.781 441V430.295H111.958V428.115H122.197V430.295H118.383V441H115.781ZM123.533 430.4V428.115H126.003V430.4H123.533ZM123.533 441V431.666H126.003V441H123.533ZM128.473 431.666H130.775V433.037C131.074 432.568 131.479 432.188 131.988 431.895C132.498 431.602 133.063 431.455 133.685 431.455C134.769 431.455 135.688 431.88 136.444 432.729C137.2 433.579 137.578 434.763 137.578 436.28C137.578 437.839 137.197 439.052 136.436 439.919C135.674 440.78 134.751 441.211 133.667 441.211C133.151 441.211 132.683 441.108 132.261 440.903C131.845 440.698 131.405 440.347 130.942 439.849V444.551H128.473V431.666ZM130.916 436.175C130.916 437.224 131.124 438 131.54 438.504C131.956 439.002 132.463 439.251 133.061 439.251C133.635 439.251 134.112 439.022 134.493 438.565C134.874 438.103 135.064 437.347 135.064 436.298C135.064 435.319 134.868 434.593 134.476 434.118C134.083 433.644 133.597 433.406 133.017 433.406C132.413 433.406 131.912 433.641 131.514 434.109C131.115 434.572 130.916 435.261 130.916 436.175ZM138.677 438.337L141.155 437.959C141.261 438.439 141.475 438.806 141.797 439.058C142.119 439.304 142.57 439.427 143.15 439.427C143.789 439.427 144.27 439.31 144.592 439.075C144.809 438.911 144.917 438.691 144.917 438.416C144.917 438.229 144.858 438.073 144.741 437.95C144.618 437.833 144.343 437.725 143.915 437.625C141.923 437.186 140.66 436.784 140.127 436.421C139.389 435.917 139.02 435.217 139.02 434.32C139.02 433.512 139.339 432.832 139.978 432.281C140.616 431.73 141.606 431.455 142.948 431.455C144.226 431.455 145.175 431.663 145.796 432.079C146.417 432.495 146.845 433.11 147.079 433.925L144.75 434.355C144.65 433.992 144.46 433.714 144.179 433.521C143.903 433.327 143.508 433.23 142.992 433.23C142.342 433.23 141.876 433.321 141.595 433.503C141.407 433.632 141.313 433.799 141.313 434.004C141.313 434.18 141.396 434.329 141.56 434.452C141.782 434.616 142.55 434.848 143.862 435.146C145.181 435.445 146.101 435.812 146.622 436.245C147.138 436.685 147.396 437.297 147.396 438.082C147.396 438.938 147.038 439.673 146.323 440.288C145.608 440.903 144.551 441.211 143.15 441.211C141.879 441.211 140.871 440.953 140.127 440.438C139.389 439.922 138.905 439.222 138.677 438.337ZM165.993 439.427L164.499 441.334C163.767 440.977 163.063 440.484 162.39 439.857C161.868 440.326 161.314 440.672 160.729 440.895C160.143 441.117 159.445 441.229 158.637 441.229C157.031 441.229 155.824 440.777 155.016 439.875C154.389 439.178 154.075 438.375 154.075 437.467C154.075 436.641 154.321 435.899 154.813 435.243C155.306 434.581 156.041 434.007 157.02 433.521C156.58 432.999 156.249 432.504 156.026 432.035C155.804 431.561 155.692 431.112 155.692 430.69C155.692 429.911 156.003 429.252 156.624 428.713C157.251 428.168 158.142 427.896 159.296 427.896C160.409 427.896 161.279 428.18 161.906 428.748C162.533 429.316 162.847 430.011 162.847 430.831C162.847 431.353 162.691 431.848 162.381 432.316C162.07 432.785 161.443 433.315 160.5 433.907L162.293 436.271C162.504 435.896 162.686 435.407 162.838 434.804L165.07 435.313C164.848 436.104 164.654 436.685 164.49 437.054C164.326 437.417 164.15 437.722 163.963 437.968C164.238 438.226 164.593 438.51 165.026 438.82C165.466 439.125 165.788 439.327 165.993 439.427ZM159.27 432.422L159.938 431.912C160.43 431.531 160.676 431.153 160.676 430.778C160.676 430.462 160.556 430.192 160.315 429.97C160.081 429.747 159.762 429.636 159.357 429.636C158.965 429.636 158.657 429.735 158.435 429.935C158.212 430.128 158.101 430.354 158.101 430.611C158.101 430.916 158.288 431.285 158.663 431.719L159.27 432.422ZM158.303 435.103C157.734 435.39 157.31 435.735 157.028 436.14C156.747 436.544 156.606 436.957 156.606 437.379C156.606 437.912 156.779 438.349 157.125 438.688C157.477 439.022 157.945 439.189 158.531 439.189C158.918 439.189 159.29 439.113 159.647 438.961C160.005 438.809 160.395 438.557 160.816 438.205L158.303 435.103ZM172.62 441V428.115H178.096C179.473 428.115 180.472 428.232 181.093 428.467C181.72 428.695 182.221 429.105 182.596 429.697C182.971 430.289 183.158 430.966 183.158 431.728C183.158 432.694 182.874 433.494 182.306 434.127C181.737 434.754 180.888 435.149 179.757 435.313C180.319 435.642 180.782 436.002 181.146 436.395C181.515 436.787 182.01 437.484 182.631 438.486L184.204 441H181.093L179.212 438.196C178.544 437.194 178.087 436.564 177.841 436.307C177.595 436.043 177.334 435.864 177.059 435.771C176.783 435.671 176.347 435.621 175.749 435.621H175.222V441H172.62ZM175.222 433.564H177.146C178.395 433.564 179.174 433.512 179.484 433.406C179.795 433.301 180.038 433.119 180.214 432.861C180.39 432.604 180.478 432.281 180.478 431.895C180.478 431.461 180.36 431.112 180.126 430.849C179.897 430.579 179.572 430.409 179.15 430.339C178.939 430.31 178.307 430.295 177.252 430.295H175.222V433.564ZM191.007 438.029L193.468 438.442C193.151 439.345 192.65 440.033 191.965 440.508C191.285 440.977 190.433 441.211 189.407 441.211C187.784 441.211 186.583 440.681 185.804 439.62C185.188 438.771 184.881 437.698 184.881 436.403C184.881 434.856 185.285 433.646 186.094 432.773C186.902 431.895 187.925 431.455 189.161 431.455C190.55 431.455 191.646 431.915 192.448 432.835C193.251 433.749 193.635 435.152 193.6 437.045H187.412C187.43 437.777 187.629 438.349 188.01 438.759C188.391 439.163 188.865 439.365 189.434 439.365C189.82 439.365 190.146 439.26 190.409 439.049C190.673 438.838 190.872 438.498 191.007 438.029ZM191.147 435.533C191.13 434.818 190.945 434.276 190.594 433.907C190.242 433.532 189.814 433.345 189.311 433.345C188.771 433.345 188.326 433.541 187.975 433.934C187.623 434.326 187.45 434.859 187.456 435.533H191.147ZM194.751 438.337L197.229 437.959C197.335 438.439 197.549 438.806 197.871 439.058C198.193 439.304 198.645 439.427 199.225 439.427C199.863 439.427 200.344 439.31 200.666 439.075C200.883 438.911 200.991 438.691 200.991 438.416C200.991 438.229 200.933 438.073 200.815 437.95C200.692 437.833 200.417 437.725 199.989 437.625C197.997 437.186 196.734 436.784 196.201 436.421C195.463 435.917 195.094 435.217 195.094 434.32C195.094 433.512 195.413 432.832 196.052 432.281C196.69 431.73 197.681 431.455 199.022 431.455C200.3 431.455 201.249 431.663 201.87 432.079C202.491 432.495 202.919 433.11 203.153 433.925L200.824 434.355C200.725 433.992 200.534 433.714 200.253 433.521C199.978 433.327 199.582 433.23 199.066 433.23C198.416 433.23 197.95 433.321 197.669 433.503C197.481 433.632 197.388 433.799 197.388 434.004C197.388 434.18 197.47 434.329 197.634 434.452C197.856 434.616 198.624 434.848 199.937 435.146C201.255 435.445 202.175 435.812 202.696 436.245C203.212 436.685 203.47 437.297 203.47 438.082C203.47 438.938 203.112 439.673 202.397 440.288C201.683 440.903 200.625 441.211 199.225 441.211C197.953 441.211 196.945 440.953 196.201 440.438C195.463 439.922 194.979 439.222 194.751 438.337ZM205.069 436.201C205.069 435.381 205.271 434.587 205.676 433.819C206.08 433.052 206.651 432.466 207.39 432.062C208.134 431.657 208.963 431.455 209.877 431.455C211.289 431.455 212.446 431.915 213.349 432.835C214.251 433.749 214.702 434.906 214.702 436.307C214.702 437.719 214.245 438.891 213.331 439.822C212.423 440.748 211.277 441.211 209.895 441.211C209.039 441.211 208.222 441.018 207.442 440.631C206.669 440.244 206.08 439.679 205.676 438.935C205.271 438.185 205.069 437.273 205.069 436.201ZM207.601 436.333C207.601 437.259 207.82 437.968 208.26 438.46C208.699 438.952 209.241 439.198 209.886 439.198C210.53 439.198 211.069 438.952 211.503 438.46C211.942 437.968 212.162 437.253 212.162 436.315C212.162 435.401 211.942 434.698 211.503 434.206C211.069 433.714 210.53 433.468 209.886 433.468C209.241 433.468 208.699 433.714 208.26 434.206C207.82 434.698 207.601 435.407 207.601 436.333ZM222.788 441V439.603C222.448 440.101 222 440.493 221.443 440.78C220.893 441.067 220.31 441.211 219.694 441.211C219.067 441.211 218.505 441.073 218.007 440.798C217.509 440.522 217.148 440.136 216.926 439.638C216.703 439.14 216.592 438.451 216.592 437.572V431.666H219.062V435.955C219.062 437.268 219.105 438.073 219.193 438.372C219.287 438.665 219.454 438.899 219.694 439.075C219.935 439.245 220.239 439.33 220.608 439.33C221.03 439.33 221.408 439.216 221.742 438.987C222.076 438.753 222.305 438.466 222.428 438.126C222.551 437.78 222.612 436.939 222.612 435.604V431.666H225.082V441H222.788ZM230.013 441H227.543V431.666H229.837V432.993C230.229 432.366 230.581 431.953 230.892 431.754C231.208 431.555 231.565 431.455 231.964 431.455C232.526 431.455 233.068 431.61 233.59 431.921L232.825 434.074C232.409 433.805 232.022 433.67 231.665 433.67C231.319 433.67 231.026 433.767 230.786 433.96C230.546 434.147 230.355 434.49 230.215 434.988C230.08 435.486 230.013 436.529 230.013 438.117V441ZM242.801 434.426L240.366 434.865C240.284 434.379 240.097 434.013 239.804 433.767C239.517 433.521 239.142 433.397 238.679 433.397C238.063 433.397 237.571 433.611 237.202 434.039C236.839 434.461 236.657 435.17 236.657 436.166C236.657 437.273 236.842 438.056 237.211 438.513C237.586 438.97 238.087 439.198 238.714 439.198C239.183 439.198 239.566 439.066 239.865 438.803C240.164 438.533 240.375 438.073 240.498 437.423L242.924 437.836C242.672 438.949 242.188 439.79 241.474 440.358C240.759 440.927 239.801 441.211 238.6 441.211C237.234 441.211 236.145 440.78 235.33 439.919C234.521 439.058 234.117 437.865 234.117 436.342C234.117 434.801 234.524 433.603 235.339 432.747C236.153 431.886 237.255 431.455 238.644 431.455C239.78 431.455 240.683 431.701 241.351 432.193C242.024 432.68 242.508 433.424 242.801 434.426ZM250.087 438.029L252.548 438.442C252.231 439.345 251.73 440.033 251.045 440.508C250.365 440.977 249.513 441.211 248.487 441.211C246.864 441.211 245.663 440.681 244.884 439.62C244.269 438.771 243.961 437.698 243.961 436.403C243.961 434.856 244.365 433.646 245.174 432.773C245.982 431.895 247.005 431.455 248.241 431.455C249.63 431.455 250.726 431.915 251.528 432.835C252.331 433.749 252.715 435.152 252.68 437.045H246.492C246.51 437.777 246.709 438.349 247.09 438.759C247.471 439.163 247.945 439.365 248.514 439.365C248.9 439.365 249.226 439.26 249.489 439.049C249.753 438.838 249.952 438.498 250.087 438.029ZM250.228 435.533C250.21 434.818 250.025 434.276 249.674 433.907C249.322 433.532 248.895 433.345 248.391 433.345C247.852 433.345 247.406 433.541 247.055 433.934C246.703 434.326 246.53 434.859 246.536 435.533H250.228ZM253.831 438.337L256.31 437.959C256.415 438.439 256.629 438.806 256.951 439.058C257.273 439.304 257.725 439.427 258.305 439.427C258.943 439.427 259.424 439.31 259.746 439.075C259.963 438.911 260.071 438.691 260.071 438.416C260.071 438.229 260.013 438.073 259.896 437.95C259.772 437.833 259.497 437.725 259.069 437.625C257.077 437.186 255.814 436.784 255.281 436.421C254.543 435.917 254.174 435.217 254.174 434.32C254.174 433.512 254.493 432.832 255.132 432.281C255.771 431.73 256.761 431.455 258.103 431.455C259.38 431.455 260.329 431.663 260.95 432.079C261.571 432.495 261.999 433.11 262.233 433.925L259.904 434.355C259.805 433.992 259.614 433.714 259.333 433.521C259.058 433.327 258.662 433.23 258.146 433.23C257.496 433.23 257.03 433.321 256.749 433.503C256.562 433.632 256.468 433.799 256.468 434.004C256.468 434.18 256.55 434.329 256.714 434.452C256.937 434.616 257.704 434.848 259.017 435.146C260.335 435.445 261.255 435.812 261.776 436.245C262.292 436.685 262.55 437.297 262.55 438.082C262.55 438.938 262.192 439.673 261.478 440.288C260.763 440.903 259.705 441.211 258.305 441.211C257.033 441.211 256.025 440.953 255.281 440.438C254.543 439.922 254.06 439.222 253.831 438.337Z" fill="#3B393D"/>
<circle cx="188" cy="348" r="58" stroke="#E66534" stroke-width="4"/>
<path d="M226.219 368.812H195.438C195.344 371.327 193.57 372.875 191.281 372.875H183.562C181.19 372.875 179.371 370.657 179.402 368.812H149.031C147.914 368.812 147 369.727 147 370.844V372.875C147 377.344 150.656 381 155.125 381H220.125C224.594 381 228.25 377.344 228.25 372.875V370.844C228.25 369.727 227.336 368.812 226.219 368.812ZM220.125 322.094C220.125 318.742 217.383 316 214.031 316H161.219C157.867 316 155.125 318.742 155.125 322.094V364.75H220.125V322.094ZM212 356.625H163.25V324.125H212V356.625Z" fill="#E66534"/>
<path d="M76.3203 861H73.4902L72.3652 858.073H67.2148L66.1514 861H63.3916L68.4102 848.115H71.1611L76.3203 861ZM71.5303 855.902L69.7549 851.121L68.0146 855.902H71.5303ZM77.6211 851.666H79.9238V853.037C80.2227 852.568 80.627 852.188 81.1367 851.895C81.6465 851.602 82.2119 851.455 82.833 851.455C83.917 851.455 84.8369 851.88 85.5928 852.729C86.3486 853.579 86.7266 854.763 86.7266 856.28C86.7266 857.839 86.3457 859.052 85.584 859.919C84.8223 860.78 83.8994 861.211 82.8154 861.211C82.2998 861.211 81.8311 861.108 81.4092 860.903C80.9932 860.698 80.5537 860.347 80.0908 859.849V864.551H77.6211V851.666ZM80.0645 856.175C80.0645 857.224 80.2725 858 80.6885 858.504C81.1045 859.002 81.6113 859.251 82.209 859.251C82.7832 859.251 83.2607 859.022 83.6416 858.565C84.0225 858.103 84.2129 857.347 84.2129 856.298C84.2129 855.319 84.0166 854.593 83.624 854.118C83.2314 853.644 82.7451 853.406 82.165 853.406C81.5615 853.406 81.0605 853.641 80.6621 854.109C80.2637 854.572 80.0645 855.261 80.0645 856.175ZM88.625 851.666H90.9277V853.037C91.2266 852.568 91.6309 852.188 92.1406 851.895C92.6504 851.602 93.2158 851.455 93.8369 851.455C94.9209 851.455 95.8408 851.88 96.5967 852.729C97.3525 853.579 97.7305 854.763 97.7305 856.28C97.7305 857.839 97.3496 859.052 96.5879 859.919C95.8262 860.78 94.9033 861.211 93.8193 861.211C93.3037 861.211 92.835 861.108 92.4131 860.903C91.9971 860.698 91.5576 860.347 91.0947 859.849V864.551H88.625V851.666ZM91.0684 856.175C91.0684 857.224 91.2764 858 91.6924 858.504C92.1084 859.002 92.6152 859.251 93.2129 859.251C93.7871 859.251 94.2646 859.022 94.6455 858.565C95.0264 858.103 95.2168 857.347 95.2168 856.298C95.2168 855.319 95.0205 854.593 94.6279 854.118C94.2354 853.644 93.749 853.406 93.1689 853.406C92.5654 853.406 92.0645 853.641 91.666 854.109C91.2676 854.572 91.0684 855.261 91.0684 856.175ZM98.8291 858.337L101.308 857.959C101.413 858.439 101.627 858.806 101.949 859.058C102.271 859.304 102.723 859.427 103.303 859.427C103.941 859.427 104.422 859.31 104.744 859.075C104.961 858.911 105.069 858.691 105.069 858.416C105.069 858.229 105.011 858.073 104.894 857.95C104.771 857.833 104.495 857.725 104.067 857.625C102.075 857.186 100.812 856.784 100.279 856.421C99.541 855.917 99.1719 855.217 99.1719 854.32C99.1719 853.512 99.4912 852.832 100.13 852.281C100.769 851.73 101.759 851.455 103.101 851.455C104.378 851.455 105.327 851.663 105.948 852.079C106.569 852.495 106.997 853.11 107.231 853.925L104.902 854.355C104.803 853.992 104.612 853.714 104.331 853.521C104.056 853.327 103.66 853.23 103.145 853.23C102.494 853.23 102.028 853.321 101.747 853.503C101.56 853.632 101.466 853.799 101.466 854.004C101.466 854.18 101.548 854.329 101.712 854.452C101.935 854.616 102.702 854.848 104.015 855.146C105.333 855.445 106.253 855.812 106.774 856.245C107.29 856.685 107.548 857.297 107.548 858.082C107.548 858.938 107.19 859.673 106.476 860.288C105.761 860.903 104.703 861.211 103.303 861.211C102.031 861.211 101.023 860.953 100.279 860.438C99.541 859.922 99.0576 859.222 98.8291 858.337ZM126.146 859.427L124.651 861.334C123.919 860.977 123.216 860.484 122.542 859.857C122.021 860.326 121.467 860.672 120.881 860.895C120.295 861.117 119.598 861.229 118.789 861.229C117.184 861.229 115.977 860.777 115.168 859.875C114.541 859.178 114.228 858.375 114.228 857.467C114.228 856.641 114.474 855.899 114.966 855.243C115.458 854.581 116.193 854.007 117.172 853.521C116.732 852.999 116.401 852.504 116.179 852.035C115.956 851.561 115.845 851.112 115.845 850.69C115.845 849.911 116.155 849.252 116.776 848.713C117.403 848.168 118.294 847.896 119.448 847.896C120.562 847.896 121.432 848.18 122.059 848.748C122.686 849.316 122.999 850.011 122.999 850.831C122.999 851.353 122.844 851.848 122.533 852.316C122.223 852.785 121.596 853.315 120.652 853.907L122.445 856.271C122.656 855.896 122.838 855.407 122.99 854.804L125.223 855.313C125 856.104 124.807 856.685 124.643 857.054C124.479 857.417 124.303 857.722 124.115 857.968C124.391 858.226 124.745 858.51 125.179 858.82C125.618 859.125 125.94 859.327 126.146 859.427ZM119.422 852.422L120.09 851.912C120.582 851.531 120.828 851.153 120.828 850.778C120.828 850.462 120.708 850.192 120.468 849.97C120.233 849.747 119.914 849.636 119.51 849.636C119.117 849.636 118.81 849.735 118.587 849.935C118.364 850.128 118.253 850.354 118.253 850.611C118.253 850.916 118.44 851.285 118.815 851.719L119.422 852.422ZM118.455 855.103C117.887 855.39 117.462 855.735 117.181 856.14C116.899 856.544 116.759 856.957 116.759 857.379C116.759 857.912 116.932 858.349 117.277 858.688C117.629 859.022 118.098 859.189 118.684 859.189C119.07 859.189 119.442 859.113 119.8 858.961C120.157 858.809 120.547 858.557 120.969 858.205L118.455 855.103ZM132.772 848.115H137.923C138.942 848.115 139.701 848.159 140.199 848.247C140.703 848.329 141.151 848.505 141.544 848.774C141.942 849.044 142.273 849.404 142.537 849.855C142.801 850.301 142.933 850.802 142.933 851.358C142.933 851.962 142.769 852.516 142.44 853.02C142.118 853.523 141.679 853.901 141.122 854.153C141.907 854.382 142.511 854.771 142.933 855.322C143.354 855.873 143.565 856.521 143.565 857.265C143.565 857.851 143.428 858.422 143.152 858.979C142.883 859.529 142.511 859.972 142.036 860.306C141.567 860.634 140.987 860.836 140.296 860.912C139.862 860.959 138.816 860.988 137.158 861H132.772V848.115ZM135.374 850.26V853.239H137.079C138.093 853.239 138.723 853.225 138.969 853.195C139.414 853.143 139.763 852.99 140.015 852.738C140.272 852.48 140.401 852.144 140.401 851.728C140.401 851.329 140.29 851.007 140.067 850.761C139.851 850.509 139.525 850.356 139.092 850.304C138.834 850.274 138.093 850.26 136.868 850.26H135.374ZM135.374 855.384V858.829H137.782C138.72 858.829 139.314 858.803 139.566 858.75C139.953 858.68 140.267 858.51 140.507 858.24C140.753 857.965 140.876 857.599 140.876 857.142C140.876 856.755 140.782 856.427 140.595 856.157C140.407 855.888 140.135 855.691 139.777 855.568C139.426 855.445 138.658 855.384 137.475 855.384H135.374ZM148.118 861H145.648V851.666H147.942V852.993C148.335 852.366 148.687 851.953 148.997 851.754C149.313 851.555 149.671 851.455 150.069 851.455C150.632 851.455 151.174 851.61 151.695 851.921L150.931 854.074C150.515 853.805 150.128 853.67 149.771 853.67C149.425 853.67 149.132 853.767 148.892 853.96C148.651 854.147 148.461 854.49 148.32 854.988C148.186 855.486 148.118 856.529 148.118 858.117V861ZM152.768 850.4V848.115H155.237V850.4H152.768ZM152.768 861V851.666H155.237V861H152.768ZM157.549 861.615L160.37 861.958C160.417 862.286 160.525 862.512 160.695 862.635C160.93 862.811 161.299 862.898 161.803 862.898C162.447 862.898 162.931 862.802 163.253 862.608C163.47 862.479 163.634 862.271 163.745 861.984C163.821 861.779 163.859 861.401 163.859 860.851V859.488C163.121 860.496 162.189 861 161.064 861C159.811 861 158.817 860.47 158.085 859.409C157.511 858.571 157.224 857.528 157.224 856.28C157.224 854.716 157.599 853.521 158.349 852.694C159.104 851.868 160.042 851.455 161.161 851.455C162.315 851.455 163.268 851.962 164.018 852.976V851.666H166.329V860.042C166.329 861.144 166.238 861.967 166.057 862.512C165.875 863.057 165.62 863.484 165.292 863.795C164.964 864.105 164.524 864.349 163.974 864.524C163.429 864.7 162.737 864.788 161.899 864.788C160.317 864.788 159.195 864.516 158.533 863.971C157.871 863.432 157.54 862.746 157.54 861.914C157.54 861.832 157.543 861.732 157.549 861.615ZM159.755 856.14C159.755 857.13 159.945 857.856 160.326 858.319C160.713 858.776 161.188 859.005 161.75 859.005C162.354 859.005 162.863 858.771 163.279 858.302C163.695 857.827 163.903 857.127 163.903 856.201C163.903 855.234 163.704 854.517 163.306 854.048C162.907 853.579 162.403 853.345 161.794 853.345C161.202 853.345 160.713 853.576 160.326 854.039C159.945 854.496 159.755 855.196 159.755 856.14ZM171.242 848.115V852.853C172.039 851.921 172.991 851.455 174.099 851.455C174.667 851.455 175.18 851.561 175.637 851.771C176.094 851.982 176.437 852.252 176.665 852.58C176.899 852.908 177.058 853.271 177.14 853.67C177.228 854.068 177.271 854.687 177.271 855.524V861H174.802V856.069C174.802 855.091 174.755 854.47 174.661 854.206C174.567 853.942 174.4 853.734 174.16 853.582C173.926 853.424 173.63 853.345 173.272 853.345C172.862 853.345 172.496 853.444 172.174 853.644C171.852 853.843 171.614 854.145 171.462 854.549C171.315 854.947 171.242 855.539 171.242 856.324V861H168.772V848.115H171.242ZM184.065 851.666V853.635H182.378V857.396C182.378 858.158 182.393 858.604 182.422 858.732C182.457 858.855 182.53 858.958 182.642 859.04C182.759 859.122 182.899 859.163 183.063 859.163C183.292 859.163 183.623 859.084 184.057 858.926L184.268 860.842C183.693 861.088 183.043 861.211 182.316 861.211C181.871 861.211 181.47 861.138 181.112 860.991C180.755 860.839 180.491 860.646 180.321 860.411C180.157 860.171 180.043 859.849 179.979 859.444C179.926 859.157 179.899 858.577 179.899 857.704V853.635H178.766V851.666H179.899V849.812L182.378 848.37V851.666H184.065ZM184.909 858.337L187.388 857.959C187.493 858.439 187.707 858.806 188.029 859.058C188.352 859.304 188.803 859.427 189.383 859.427C190.021 859.427 190.502 859.31 190.824 859.075C191.041 858.911 191.149 858.691 191.149 858.416C191.149 858.229 191.091 858.073 190.974 857.95C190.851 857.833 190.575 857.725 190.147 857.625C188.155 857.186 186.893 856.784 186.359 856.421C185.621 855.917 185.252 855.217 185.252 854.32C185.252 853.512 185.571 852.832 186.21 852.281C186.849 851.73 187.839 851.455 189.181 851.455C190.458 851.455 191.407 851.663 192.028 852.079C192.649 852.495 193.077 853.11 193.312 853.925L190.982 854.355C190.883 853.992 190.692 853.714 190.411 853.521C190.136 853.327 189.74 853.23 189.225 853.23C188.574 853.23 188.108 853.321 187.827 853.503C187.64 853.632 187.546 853.799 187.546 854.004C187.546 854.18 187.628 854.329 187.792 854.452C188.015 854.616 188.782 854.848 190.095 855.146C191.413 855.445 192.333 855.812 192.854 856.245C193.37 856.685 193.628 857.297 193.628 858.082C193.628 858.938 193.271 859.673 192.556 860.288C191.841 860.903 190.783 861.211 189.383 861.211C188.111 861.211 187.104 860.953 186.359 860.438C185.621 859.922 185.138 859.222 184.909 858.337ZM195.729 851.666H198.031V853.037C198.33 852.568 198.734 852.188 199.244 851.895C199.754 851.602 200.319 851.455 200.94 851.455C202.024 851.455 202.944 851.88 203.7 852.729C204.456 853.579 204.834 854.763 204.834 856.28C204.834 857.839 204.453 859.052 203.691 859.919C202.93 860.78 202.007 861.211 200.923 861.211C200.407 861.211 199.938 861.108 199.517 860.903C199.101 860.698 198.661 860.347 198.198 859.849V864.551H195.729V851.666ZM198.172 856.175C198.172 857.224 198.38 858 198.796 858.504C199.212 859.002 199.719 859.251 200.316 859.251C200.891 859.251 201.368 859.022 201.749 858.565C202.13 858.103 202.32 857.347 202.32 856.298C202.32 855.319 202.124 854.593 201.731 854.118C201.339 853.644 200.853 853.406 200.272 853.406C199.669 853.406 199.168 853.641 198.77 854.109C198.371 854.572 198.172 855.261 198.172 856.175ZM208.648 854.514L206.407 854.109C206.659 853.207 207.093 852.539 207.708 852.105C208.323 851.672 209.237 851.455 210.45 851.455C211.552 851.455 212.372 851.587 212.911 851.851C213.45 852.108 213.828 852.439 214.045 852.844C214.268 853.242 214.379 853.978 214.379 855.05L214.353 857.933C214.353 858.753 214.391 859.359 214.467 859.752C214.549 860.139 214.698 860.555 214.915 861H212.472C212.407 860.836 212.328 860.593 212.234 860.271C212.193 860.124 212.164 860.027 212.146 859.98C211.725 860.391 211.273 860.698 210.793 860.903C210.312 861.108 209.8 861.211 209.255 861.211C208.294 861.211 207.535 860.95 206.979 860.429C206.428 859.907 206.152 859.248 206.152 858.451C206.152 857.924 206.278 857.455 206.53 857.045C206.782 856.629 207.134 856.312 207.585 856.096C208.042 855.873 208.698 855.68 209.554 855.516C210.708 855.299 211.508 855.097 211.953 854.909V854.663C211.953 854.188 211.836 853.852 211.602 853.652C211.367 853.447 210.925 853.345 210.274 853.345C209.835 853.345 209.492 853.433 209.246 853.608C209 853.778 208.801 854.08 208.648 854.514ZM211.953 856.518C211.637 856.623 211.136 856.749 210.45 856.896C209.765 857.042 209.316 857.186 209.105 857.326C208.783 857.555 208.622 857.845 208.622 858.196C208.622 858.542 208.751 858.841 209.009 859.093C209.267 859.345 209.595 859.471 209.993 859.471C210.438 859.471 210.863 859.324 211.268 859.031C211.566 858.809 211.763 858.536 211.856 858.214C211.921 858.003 211.953 857.602 211.953 857.01V856.518ZM224.961 854.426L222.526 854.865C222.444 854.379 222.257 854.013 221.964 853.767C221.677 853.521 221.302 853.397 220.839 853.397C220.224 853.397 219.731 853.611 219.362 854.039C218.999 854.461 218.817 855.17 218.817 856.166C218.817 857.273 219.002 858.056 219.371 858.513C219.746 858.97 220.247 859.198 220.874 859.198C221.343 859.198 221.727 859.066 222.025 858.803C222.324 858.533 222.535 858.073 222.658 857.423L225.084 857.836C224.832 858.949 224.349 859.79 223.634 860.358C222.919 860.927 221.961 861.211 220.76 861.211C219.395 861.211 218.305 860.78 217.49 859.919C216.682 859.058 216.277 857.865 216.277 856.342C216.277 854.801 216.685 853.603 217.499 852.747C218.313 851.886 219.415 851.455 220.804 851.455C221.94 851.455 222.843 851.701 223.511 852.193C224.185 852.68 224.668 853.424 224.961 854.426ZM232.247 858.029L234.708 858.442C234.392 859.345 233.891 860.033 233.205 860.508C232.525 860.977 231.673 861.211 230.647 861.211C229.024 861.211 227.823 860.681 227.044 859.62C226.429 858.771 226.121 857.698 226.121 856.403C226.121 854.856 226.525 853.646 227.334 852.773C228.143 851.895 229.165 851.455 230.401 851.455C231.79 851.455 232.886 851.915 233.688 852.835C234.491 853.749 234.875 855.152 234.84 857.045H228.652C228.67 857.777 228.869 858.349 229.25 858.759C229.631 859.163 230.105 859.365 230.674 859.365C231.061 859.365 231.386 859.26 231.649 859.049C231.913 858.838 232.112 858.498 232.247 858.029ZM232.388 855.533C232.37 854.818 232.186 854.276 231.834 853.907C231.482 853.532 231.055 853.345 230.551 853.345C230.012 853.345 229.566 853.541 229.215 853.934C228.863 854.326 228.69 854.859 228.696 855.533H232.388ZM241.229 856.808L243.761 856.562C243.913 857.411 244.221 858.035 244.684 858.434C245.152 858.832 245.782 859.031 246.573 859.031C247.411 859.031 248.041 858.855 248.463 858.504C248.891 858.146 249.104 857.73 249.104 857.256C249.104 856.951 249.014 856.693 248.832 856.482C248.656 856.266 248.346 856.078 247.9 855.92C247.596 855.814 246.901 855.627 245.817 855.357C244.423 855.012 243.444 854.587 242.882 854.083C242.091 853.374 241.695 852.51 241.695 851.49C241.695 850.834 241.88 850.222 242.249 849.653C242.624 849.079 243.16 848.643 243.857 848.344C244.561 848.045 245.407 847.896 246.397 847.896C248.015 847.896 249.23 848.25 250.045 848.959C250.865 849.668 251.296 850.614 251.337 851.798L248.735 851.912C248.624 851.25 248.384 850.775 248.015 850.488C247.651 850.195 247.104 850.049 246.371 850.049C245.615 850.049 245.023 850.204 244.596 850.515C244.32 850.714 244.183 850.98 244.183 851.314C244.183 851.619 244.312 851.88 244.569 852.097C244.897 852.372 245.694 852.659 246.96 852.958C248.226 853.257 249.16 853.567 249.764 853.89C250.373 854.206 250.848 854.643 251.188 855.199C251.533 855.75 251.706 856.433 251.706 857.247C251.706 857.985 251.501 858.677 251.091 859.321C250.681 859.966 250.101 860.446 249.351 860.763C248.601 861.073 247.666 861.229 246.547 861.229C244.918 861.229 243.667 860.854 242.794 860.104C241.921 859.348 241.399 858.249 241.229 856.808ZM260.021 861V859.603C259.681 860.101 259.232 860.493 258.676 860.78C258.125 861.067 257.542 861.211 256.927 861.211C256.3 861.211 255.737 861.073 255.239 860.798C254.741 860.522 254.381 860.136 254.158 859.638C253.936 859.14 253.824 858.451 253.824 857.572V851.666H256.294V855.955C256.294 857.268 256.338 858.073 256.426 858.372C256.52 858.665 256.687 858.899 256.927 859.075C257.167 859.245 257.472 859.33 257.841 859.33C258.263 859.33 258.641 859.216 258.975 858.987C259.309 858.753 259.537 858.466 259.66 858.126C259.783 857.78 259.845 856.939 259.845 855.604V851.666H262.314V861H260.021ZM264.811 851.666H267.113V853.037C267.412 852.568 267.816 852.188 268.326 851.895C268.836 851.602 269.401 851.455 270.022 851.455C271.106 851.455 272.026 851.88 272.782 852.729C273.538 853.579 273.916 854.763 273.916 856.28C273.916 857.839 273.535 859.052 272.773 859.919C272.012 860.78 271.089 861.211 270.005 861.211C269.489 861.211 269.021 861.108 268.599 860.903C268.183 860.698 267.743 860.347 267.28 859.849V864.551H264.811V851.666ZM267.254 856.175C267.254 857.224 267.462 858 267.878 858.504C268.294 859.002 268.801 859.251 269.398 859.251C269.973 859.251 270.45 859.022 270.831 858.565C271.212 858.103 271.402 857.347 271.402 856.298C271.402 855.319 271.206 854.593 270.813 854.118C270.421 853.644 269.935 853.406 269.354 853.406C268.751 853.406 268.25 853.641 267.852 854.109C267.453 854.572 267.254 855.261 267.254 856.175ZM275.814 851.666H278.117V853.037C278.416 852.568 278.82 852.188 279.33 851.895C279.84 851.602 280.405 851.455 281.026 851.455C282.11 851.455 283.03 851.88 283.786 852.729C284.542 853.579 284.92 854.763 284.92 856.28C284.92 857.839 284.539 859.052 283.777 859.919C283.016 860.78 282.093 861.211 281.009 861.211C280.493 861.211 280.024 861.108 279.603 860.903C279.187 860.698 278.747 860.347 278.284 859.849V864.551H275.814V851.666ZM278.258 856.175C278.258 857.224 278.466 858 278.882 858.504C279.298 859.002 279.805 859.251 280.402 859.251C280.977 859.251 281.454 859.022 281.835 858.565C282.216 858.103 282.406 857.347 282.406 856.298C282.406 855.319 282.21 854.593 281.817 854.118C281.425 853.644 280.938 853.406 280.358 853.406C279.755 853.406 279.254 853.641 278.855 854.109C278.457 854.572 278.258 855.261 278.258 856.175ZM286.317 856.201C286.317 855.381 286.52 854.587 286.924 853.819C287.328 853.052 287.899 852.466 288.638 852.062C289.382 851.657 290.211 851.455 291.125 851.455C292.537 851.455 293.694 851.915 294.597 852.835C295.499 853.749 295.95 854.906 295.95 856.307C295.95 857.719 295.493 858.891 294.579 859.822C293.671 860.748 292.525 861.211 291.143 861.211C290.287 861.211 289.47 861.018 288.69 860.631C287.917 860.244 287.328 859.679 286.924 858.935C286.52 858.185 286.317 857.273 286.317 856.201ZM288.849 856.333C288.849 857.259 289.068 857.968 289.508 858.46C289.947 858.952 290.489 859.198 291.134 859.198C291.778 859.198 292.317 858.952 292.751 858.46C293.19 857.968 293.41 857.253 293.41 856.315C293.41 855.401 293.19 854.698 292.751 854.206C292.317 853.714 291.778 853.468 291.134 853.468C290.489 853.468 289.947 853.714 289.508 854.206C289.068 854.698 288.849 855.407 288.849 856.333ZM300.257 861H297.787V851.666H300.081V852.993C300.474 852.366 300.825 851.953 301.136 851.754C301.452 851.555 301.81 851.455 302.208 851.455C302.771 851.455 303.312 851.61 303.834 851.921L303.069 854.074C302.653 853.805 302.267 853.67 301.909 853.67C301.563 853.67 301.271 853.767 301.03 853.96C300.79 854.147 300.6 854.49 300.459 854.988C300.324 855.486 300.257 856.529 300.257 858.117V861ZM309.187 851.666V853.635H307.499V857.396C307.499 858.158 307.514 858.604 307.543 858.732C307.578 858.855 307.651 858.958 307.763 859.04C307.88 859.122 308.021 859.163 308.185 859.163C308.413 859.163 308.744 859.084 309.178 858.926L309.389 860.842C308.814 861.088 308.164 861.211 307.438 861.211C306.992 861.211 306.591 861.138 306.233 860.991C305.876 860.839 305.612 860.646 305.442 860.411C305.278 860.171 305.164 859.849 305.1 859.444C305.047 859.157 305.021 858.577 305.021 857.704V853.635H303.887V851.666H305.021V849.812L307.499 848.37V851.666H309.187Z" fill="#3B393D"/>
<circle cx="187" cy="768" r="58" stroke="#E66534" stroke-width="4"/>
<path d="M154 738C154 736.895 154.895 736 156 736H183.136C184.241 736 185.136 736.895 185.136 738V765.136C185.136 766.241 184.241 767.136 183.136 767.136H156C154.895 767.136 154 766.241 154 765.136V738ZM187.864 738C187.864 736.895 188.759 736 189.864 736H217C218.105 736 219 736.895 219 738V765.136C219 766.241 218.105 767.136 217 767.136H189.864C188.759 767.136 187.864 766.241 187.864 765.136V738ZM154 771.864C154 770.759 154.895 769.864 156 769.864H183.136C184.241 769.864 185.136 770.759 185.136 771.864V799C185.136 800.105 184.241 801 183.136 801H156C154.895 801 154 800.105 154 799V771.864ZM187.864 771.864C187.864 770.759 188.759 769.864 189.864 769.864H217C218.105 769.864 219 770.759 219 771.864V799C219 800.105 218.105 801 217 801H189.864C188.759 801 187.864 800.105 187.864 799V771.864Z" fill="#E66534"/>
</g>
<defs>
<clipPath id="clip0">
<rect width="375" height="1417" fill="white"/>
</clipPath>
</defs>
</svg>
