<svg width="1440" height="672" viewBox="0 0 1440 672" fill="none" xmlns="http://www.w3.org/2000/svg">
<g clip-path="url(#clip0)">
<rect width="1440" height="672" fill="white"/>
<path opacity="0.4" d="M0 84.5586L1441 84.5587" stroke="#81B7AE" stroke-width="5"/>
<path opacity="0.4" d="M200.824 671.762L200.824 -0.000336409" stroke="#81B7AE" stroke-width="5"/>
<rect x="562.779" y="292.195" width="82.2086" height="16.4417" transform="rotate(45 562.779 292.195)" fill="#DCEBE9"/>
<rect x="551.152" y="350.32" width="82.2086" height="16.4417" transform="rotate(-45 551.152 350.32)" fill="#DCEBE9"/>
<rect x="551.736" y="635.121" width="82.2086" height="16.4417" transform="rotate(-45 551.736 635.121)" fill="#DCEBE9"/>
<rect x="609.866" y="646.746" width="82.2086" height="16.4417" transform="rotate(-135 609.866 646.746)" fill="#DCEBE9"/>
<rect x="796.014" y="635.121" width="82.2086" height="16.4417" transform="rotate(-45 796.014 635.121)" fill="#DCEBE9"/>
<rect x="854.144" y="646.746" width="82.2086" height="16.4417" transform="rotate(-135 854.144 646.746)" fill="#DCEBE9"/>
<rect x="1052.03" y="635.121" width="82.2086" height="16.4417" transform="rotate(-45 1052.03 635.121)" fill="#DCEBE9"/>
<rect x="1110.17" y="646.746" width="82.2086" height="16.4417" transform="rotate(-135 1110.17 646.746)" fill="#DCEBE9"/>
<rect x="1052.03" y="350.32" width="82.2086" height="16.4417" transform="rotate(-45 1052.03 350.32)" fill="#DCEBE9"/>
<rect x="1110.17" y="361.949" width="82.2086" height="16.4417" transform="rotate(-135 1110.17 361.949)" fill="#DCEBE9"/>
<rect x="1052.03" y="201.766" width="82.2086" height="16.4417" transform="rotate(-45 1052.03 201.766)" fill="#DCEBE9"/>
<rect x="1110.17" y="213.387" width="82.2086" height="16.4417" transform="rotate(-135 1110.17 213.387)" fill="#DCEBE9"/>
<rect x="796.014" y="201.766" width="82.2086" height="16.4417" transform="rotate(-45 796.014 201.766)" fill="#DCEBE9"/>
<rect x="854.144" y="213.387" width="82.2086" height="16.4417" transform="rotate(-135 854.144 213.387)" fill="#DCEBE9"/>
<rect x="796.014" y="350.32" width="82.2086" height="16.4417" transform="rotate(-45 796.014 350.32)" fill="#DCEBE9"/>
<rect x="854.144" y="361.949" width="82.2086" height="16.4417" transform="rotate(-135 854.144 361.949)" fill="#DCEBE9"/>
<rect x="309.105" y="292.195" width="82.2086" height="16.4417" transform="rotate(45 309.105 292.195)" fill="#DCEBE9"/>
<rect x="297.48" y="350.32" width="82.2086" height="16.4417" transform="rotate(-45 297.48 350.32)" fill="#DCEBE9"/>
<rect x="309.105" y="144.219" width="82.2086" height="16.4417" transform="rotate(45 309.105 144.219)" fill="#DCEBE9"/>
<rect x="297.48" y="202.344" width="82.2086" height="16.4417" transform="rotate(-45 297.48 202.344)" fill="#DCEBE9"/>
<rect x="298.064" y="635.121" width="82.2086" height="16.4417" transform="rotate(-45 298.064 635.121)" fill="#DCEBE9"/>
<rect x="356.194" y="646.746" width="82.2086" height="16.4417" transform="rotate(-135 356.194 646.746)" fill="#DCEBE9"/>
<path d="M1305.75 40H1303.64V24.9883H1298.31V23.0898H1311.08V24.9883H1305.75V40ZM1314.71 29.3711C1313.77 29.3711 1312.98 29.6992 1312.36 30.3555C1311.74 31.0039 1311.4 31.8398 1311.34 32.8633H1317.96C1317.94 31.832 1317.63 30.9922 1317.04 30.3438C1316.44 29.6953 1315.67 29.3711 1314.71 29.3711ZM1317.91 36.5078H1319.92C1319.74 37.5859 1319.18 38.4727 1318.23 39.168C1317.29 39.8633 1316.16 40.2109 1314.84 40.2109C1313.1 40.2109 1311.73 39.6484 1310.73 38.5234C1309.73 37.3984 1309.23 35.875 1309.23 33.9531C1309.23 32.0469 1309.73 30.5117 1310.73 29.3477C1311.74 28.1836 1313.08 27.6016 1314.75 27.6016C1316.39 27.6016 1317.69 28.1523 1318.64 29.2539C1319.59 30.3555 1320.07 31.832 1320.07 33.6836V34.457H1311.33V34.5742C1311.33 35.7461 1311.65 36.6836 1312.29 37.3867C1312.93 38.0898 1313.8 38.4414 1314.89 38.4414C1315.66 38.4414 1316.31 38.2656 1316.85 37.9141C1317.39 37.5625 1317.74 37.0938 1317.91 36.5078ZM1322.13 40V27.8125H1324.05V29.7578H1324.1C1324.45 29.0781 1324.96 28.5508 1325.61 28.1758C1326.27 27.793 1327.05 27.6016 1327.97 27.6016C1329.3 27.6016 1330.33 28.0039 1331.07 28.8086C1331.82 29.6055 1332.19 30.6992 1332.19 32.0898V40H1330.15V32.4531C1330.15 31.4609 1329.91 30.707 1329.45 30.1914C1328.98 29.668 1328.28 29.4062 1327.35 29.4062C1326.39 29.4062 1325.62 29.7188 1325.04 30.3438C1324.46 30.9688 1324.17 31.7969 1324.17 32.8281V40H1322.13ZM1339.68 29.3711C1338.73 29.3711 1337.95 29.6992 1337.32 30.3555C1336.7 31.0039 1336.36 31.8398 1336.3 32.8633H1342.92C1342.9 31.832 1342.59 30.9922 1342 30.3438C1341.4 29.6953 1340.63 29.3711 1339.68 29.3711ZM1342.88 36.5078H1344.88C1344.7 37.5859 1344.14 38.4727 1343.19 39.168C1342.25 39.8633 1341.12 40.2109 1339.8 40.2109C1338.06 40.2109 1336.69 39.6484 1335.69 38.5234C1334.69 37.3984 1334.19 35.875 1334.19 33.9531C1334.19 32.0469 1334.69 30.5117 1335.69 29.3477C1336.7 28.1836 1338.04 27.6016 1339.71 27.6016C1341.35 27.6016 1342.65 28.1523 1343.6 29.2539C1344.55 30.3555 1345.03 31.832 1345.03 33.6836V34.457H1336.29V34.5742C1336.29 35.7461 1336.61 36.6836 1337.25 37.3867C1337.89 38.0898 1338.76 38.4414 1339.85 38.4414C1340.62 38.4414 1341.27 38.2656 1341.81 37.9141C1342.35 37.5625 1342.7 37.0938 1342.88 36.5078ZM1351.17 35.3594H1351.12L1348.18 40H1345.92L1350.07 33.9062L1345.99 27.8125H1348.27L1351.2 32.3828H1351.24L1354.14 27.8125H1356.41L1352.3 33.8242L1356.35 40H1354.09L1351.17 35.3594Z" fill="black"/>
<path d="M1024.31 24.9648V31.4453H1028.35C1029.44 31.4453 1030.28 31.1641 1030.86 30.6016C1031.46 30.0391 1031.75 29.2383 1031.75 28.1992C1031.75 27.1836 1031.44 26.3906 1030.83 25.8203C1030.21 25.25 1029.35 24.9648 1028.26 24.9648H1024.31ZM1024.31 33.3086V40H1022.2V23.0898H1028.54C1030.17 23.0898 1031.48 23.5508 1032.46 24.4727C1033.44 25.3867 1033.93 26.6055 1033.93 28.1289C1033.93 29.3086 1033.63 30.3281 1033.03 31.1875C1032.43 32.0469 1031.6 32.6445 1030.53 32.9805L1034.45 40H1031.98L1028.35 33.3086H1024.31ZM1041.16 29.3711C1040.22 29.3711 1039.43 29.6992 1038.81 30.3555C1038.19 31.0039 1037.85 31.8398 1037.79 32.8633H1044.41C1044.39 31.832 1044.08 30.9922 1043.48 30.3438C1042.89 29.6953 1042.12 29.3711 1041.16 29.3711ZM1044.36 36.5078H1046.37C1046.19 37.5859 1045.62 38.4727 1044.68 39.168C1043.74 39.8633 1042.61 40.2109 1041.29 40.2109C1039.55 40.2109 1038.18 39.6484 1037.18 38.5234C1036.18 37.3984 1035.68 35.875 1035.68 33.9531C1035.68 32.0469 1036.18 30.5117 1037.18 29.3477C1038.19 28.1836 1039.53 27.6016 1041.2 27.6016C1042.84 27.6016 1044.14 28.1523 1045.09 29.2539C1046.04 30.3555 1046.52 31.832 1046.52 33.6836V34.457H1037.78V34.5742C1037.78 35.7461 1038.1 36.6836 1038.74 37.3867C1039.38 38.0898 1040.25 38.4414 1041.34 38.4414C1042.1 38.4414 1042.76 38.2656 1043.3 37.9141C1043.83 37.5625 1044.19 37.0938 1044.36 36.5078ZM1056.25 34.0938H1048.56V32.1953H1056.25V34.0938ZM1069.45 38.1016V40H1059.19V23.0898H1061.3V38.1016H1069.45ZM1075.99 29.3711C1075.05 29.3711 1074.26 29.6992 1073.64 30.3555C1073.02 31.0039 1072.68 31.8398 1072.62 32.8633H1079.24C1079.21 31.832 1078.91 30.9922 1078.31 30.3438C1077.72 29.6953 1076.94 29.3711 1075.99 29.3711ZM1079.19 36.5078H1081.19C1081.01 37.5859 1080.45 38.4727 1079.51 39.168C1078.57 39.8633 1077.44 40.2109 1076.12 40.2109C1074.38 40.2109 1073.01 39.6484 1072.01 38.5234C1071.01 37.3984 1070.51 35.875 1070.51 33.9531C1070.51 32.0469 1071.01 30.5117 1072.01 29.3477C1073.01 28.1836 1074.35 27.6016 1076.03 27.6016C1077.67 27.6016 1078.96 28.1523 1079.92 29.2539C1080.87 30.3555 1081.35 31.832 1081.35 33.6836V34.457H1072.6V34.5742C1072.6 35.7461 1072.92 36.6836 1073.57 37.3867C1074.21 38.0898 1075.07 38.4414 1076.17 38.4414C1076.93 38.4414 1077.58 38.2656 1078.12 37.9141C1078.66 37.5625 1079.02 37.0938 1079.19 36.5078ZM1087.43 38.4766C1088.39 38.4766 1089.19 38.1797 1089.84 37.5859C1090.5 36.9844 1090.83 36.2461 1090.83 35.3711V34.375L1087.57 34.5742C1086.75 34.6289 1086.11 34.8281 1085.66 35.1719C1085.21 35.5156 1084.99 35.9766 1084.99 36.5547C1084.99 37.1328 1085.21 37.5977 1085.66 37.9492C1086.1 38.3008 1086.69 38.4766 1087.43 38.4766ZM1086.97 40.2109C1085.76 40.2109 1084.78 39.875 1084.03 39.2031C1083.29 38.5312 1082.92 37.6484 1082.92 36.5547C1082.92 35.5078 1083.3 34.6719 1084.07 34.0469C1084.84 33.4219 1085.93 33.0703 1087.33 32.9922L1090.83 32.793V31.7734C1090.83 31.0312 1090.59 30.4492 1090.12 30.0273C1089.66 29.6055 1089 29.3945 1088.16 29.3945C1087.38 29.3945 1086.75 29.5664 1086.27 29.9102C1085.78 30.2461 1085.48 30.7188 1085.34 31.3281H1083.37C1083.44 30.2422 1083.91 29.3516 1084.78 28.6562C1085.66 27.9531 1086.8 27.6016 1088.2 27.6016C1089.63 27.6016 1090.76 27.9609 1091.6 28.6797C1092.44 29.3984 1092.87 30.3633 1092.87 31.5742V40H1090.93V37.9023H1090.89C1090.52 38.5977 1089.98 39.1562 1089.27 39.5781C1088.56 40 1087.79 40.2109 1086.97 40.2109ZM1095.25 31.1758C1095.25 30.1289 1095.67 29.2734 1096.51 28.6094C1097.36 27.9375 1098.46 27.6016 1099.79 27.6016C1101.05 27.6016 1102.1 27.9375 1102.93 28.6094C1103.77 29.2812 1104.21 30.1328 1104.26 31.1641H1102.31C1102.24 30.5703 1101.98 30.1055 1101.51 29.7695C1101.06 29.4336 1100.46 29.2656 1099.72 29.2656C1098.98 29.2656 1098.38 29.4336 1097.93 29.7695C1097.48 30.0977 1097.25 30.5312 1097.25 31.0703C1097.25 31.8984 1097.92 32.4844 1099.28 32.8281L1101.16 33.2852C1102.39 33.5977 1103.25 34.0039 1103.75 34.5039C1104.26 34.9961 1104.51 35.6914 1104.51 36.5898C1104.51 37.6523 1104.06 38.5234 1103.16 39.2031C1102.25 39.875 1101.08 40.2109 1099.66 40.2109C1098.33 40.2109 1097.24 39.8828 1096.37 39.2266C1095.51 38.5625 1095.03 37.6875 1094.92 36.6016H1096.96C1097.18 37.8984 1098.13 38.5469 1099.79 38.5469C1100.61 38.5469 1101.26 38.3867 1101.74 38.0664C1102.22 37.7383 1102.46 37.2969 1102.46 36.7422C1102.46 36.3047 1102.32 35.957 1102.03 35.6992C1101.75 35.4414 1101.27 35.2227 1100.59 35.043L1098.44 34.4922C1096.31 33.9453 1095.25 32.8398 1095.25 31.1758ZM1111.52 29.3711C1110.58 29.3711 1109.79 29.6992 1109.17 30.3555C1108.55 31.0039 1108.21 31.8398 1108.15 32.8633H1114.77C1114.75 31.832 1114.44 30.9922 1113.84 30.3438C1113.25 29.6953 1112.48 29.3711 1111.52 29.3711ZM1114.72 36.5078H1116.73C1116.55 37.5859 1115.98 38.4727 1115.04 39.168C1114.1 39.8633 1112.97 40.2109 1111.65 40.2109C1109.91 40.2109 1108.54 39.6484 1107.54 38.5234C1106.54 37.3984 1106.04 35.875 1106.04 33.9531C1106.04 32.0469 1106.54 30.5117 1107.54 29.3477C1108.55 28.1836 1109.89 27.6016 1111.56 27.6016C1113.2 27.6016 1114.5 28.1523 1115.45 29.2539C1116.4 30.3555 1116.88 31.832 1116.88 33.6836V34.457H1108.14V34.5742C1108.14 35.7461 1108.46 36.6836 1109.1 37.3867C1109.74 38.0898 1110.6 38.4414 1111.7 38.4414C1112.46 38.4414 1113.12 38.2656 1113.66 37.9141C1114.19 37.5625 1114.55 37.0938 1114.72 36.5078ZM1123.56 40.2109C1122 40.2109 1120.73 39.6367 1119.77 38.4883C1118.82 37.3398 1118.34 35.8125 1118.34 33.9062C1118.34 32.0078 1118.82 30.4844 1119.77 29.3359C1120.73 28.1797 1121.97 27.6016 1123.51 27.6016C1124.37 27.6016 1125.14 27.7969 1125.82 28.1875C1126.5 28.5781 1127.02 29.1133 1127.39 29.793H1127.44V23.0898H1129.48V40H1127.53V37.9375H1127.5C1127.1 38.6484 1126.56 39.207 1125.88 39.6133C1125.2 40.0117 1124.42 40.2109 1123.56 40.2109ZM1123.94 29.3945C1122.87 29.3945 1122.01 29.8047 1121.38 30.625C1120.75 31.4375 1120.43 32.5312 1120.43 33.9062C1120.43 35.2891 1120.75 36.3867 1121.38 37.1992C1122.01 38.0117 1122.87 38.418 1123.94 38.418C1125 38.418 1125.85 38.0078 1126.49 37.1875C1127.13 36.3594 1127.45 35.2656 1127.45 33.9062C1127.45 32.5469 1127.12 31.457 1126.48 30.6367C1125.83 29.8086 1124.99 29.3945 1123.94 29.3945Z" fill="black"/>
<path d="M774.917 40H768.53V23.0898H774.94C776.386 23.0898 777.554 23.4766 778.444 24.25C779.343 25.0234 779.792 26.043 779.792 27.3086C779.792 28.1914 779.507 28.9922 778.937 29.7109C778.374 30.4219 777.687 30.8516 776.874 31V31.0938C778.022 31.2422 778.937 31.6914 779.616 32.4414C780.304 33.1914 780.647 34.1289 780.647 35.2539C780.647 36.7461 780.14 37.9102 779.124 38.7461C778.116 39.582 776.714 40 774.917 40ZM770.64 24.9531V30.3789H773.804C775.054 30.3789 776.007 30.1367 776.663 29.6523C777.327 29.168 777.659 28.4688 777.659 27.5547C777.659 26.7188 777.382 26.0781 776.827 25.6328C776.272 25.1797 775.483 24.9531 774.46 24.9531H770.64ZM770.64 38.1367H774.601C775.874 38.1367 776.839 37.8828 777.495 37.375C778.151 36.8672 778.479 36.125 778.479 35.1484C778.479 33.1797 777.12 32.1953 774.401 32.1953H770.64V38.1367ZM792.729 27.8125V40H790.796V38.0195H790.749C789.991 39.4805 788.702 40.2109 786.882 40.2109C785.562 40.2109 784.526 39.8125 783.776 39.0156C783.034 38.2109 782.663 37.1133 782.663 35.7227V27.8125H784.702V35.3594C784.702 37.3906 785.64 38.4062 787.515 38.4062C788.499 38.4062 789.272 38.0977 789.835 37.4805C790.405 36.8555 790.69 36.0195 790.69 34.9727V27.8125H792.729ZM795.483 40V27.8125H797.522V40H795.483ZM796.503 25.7617C796.159 25.7617 795.862 25.6367 795.612 25.3867C795.362 25.1367 795.237 24.8398 795.237 24.4961C795.237 24.1445 795.362 23.8477 795.612 23.6055C795.862 23.3555 796.159 23.2305 796.503 23.2305C796.854 23.2305 797.155 23.3555 797.405 23.6055C797.655 23.8477 797.78 24.1445 797.78 24.4961C797.78 24.8398 797.655 25.1367 797.405 25.3867C797.155 25.6367 796.854 25.7617 796.503 25.7617ZM800.382 40V23.0898H802.421V40H800.382ZM809.792 40.2109C808.229 40.2109 806.968 39.6367 806.007 38.4883C805.054 37.3398 804.577 35.8125 804.577 33.9062C804.577 32.0078 805.054 30.4844 806.007 29.3359C806.96 28.1797 808.206 27.6016 809.745 27.6016C810.604 27.6016 811.374 27.7969 812.054 28.1875C812.733 28.5781 813.257 29.1133 813.624 29.793H813.671V23.0898H815.71V40H813.765V37.9375H813.729C813.331 38.6484 812.792 39.207 812.112 39.6133C811.433 40.0117 810.659 40.2109 809.792 40.2109ZM810.179 29.3945C809.101 29.3945 808.245 29.8047 807.612 30.625C806.979 31.4375 806.663 32.5312 806.663 33.9062C806.663 35.2891 806.979 36.3867 807.612 37.1992C808.245 38.0117 809.101 38.418 810.179 38.418C811.233 38.418 812.081 38.0078 812.722 37.1875C813.362 36.3594 813.683 35.2656 813.683 33.9062C813.683 32.5469 813.358 31.457 812.71 30.6367C812.069 29.8086 811.226 29.3945 810.179 29.3945ZM818.569 40V27.8125H820.608V40H818.569ZM819.589 25.7617C819.245 25.7617 818.948 25.6367 818.698 25.3867C818.448 25.1367 818.323 24.8398 818.323 24.4961C818.323 24.1445 818.448 23.8477 818.698 23.6055C818.948 23.3555 819.245 23.2305 819.589 23.2305C819.94 23.2305 820.241 23.3555 820.491 23.6055C820.741 23.8477 820.866 24.1445 820.866 24.4961C820.866 24.8398 820.741 25.1367 820.491 25.3867C820.241 25.6367 819.94 25.7617 819.589 25.7617ZM823.362 40V27.8125H825.284V29.7578H825.331C825.683 29.0781 826.187 28.5508 826.843 28.1758C827.499 27.793 828.284 27.6016 829.198 27.6016C830.526 27.6016 831.562 28.0039 832.304 28.8086C833.046 29.6055 833.417 30.6992 833.417 32.0898V40H831.378V32.4531C831.378 31.4609 831.144 30.707 830.675 30.1914C830.206 29.668 829.507 29.4062 828.577 29.4062C827.616 29.4062 826.847 29.7188 826.269 30.3438C825.69 30.9688 825.401 31.7969 825.401 32.8281V40H823.362ZM840.976 38.3008C842.038 38.3008 842.894 37.8945 843.542 37.082C844.19 36.2695 844.515 35.1953 844.515 33.8594C844.515 32.5156 844.19 31.4375 843.542 30.625C842.894 29.8047 842.038 29.3945 840.976 29.3945C839.921 29.3945 839.077 29.8008 838.444 30.6133C837.819 31.418 837.507 32.5 837.507 33.8594C837.507 35.2188 837.819 36.3008 838.444 37.1055C839.077 37.9023 839.921 38.3008 840.976 38.3008ZM841.046 44.5938C839.71 44.5938 838.562 44.2539 837.601 43.5742C836.64 42.9023 836.073 42.0469 835.901 41.0078H837.999C838.202 41.5703 838.585 42.0195 839.147 42.3555C839.71 42.6914 840.37 42.8594 841.128 42.8594C842.175 42.8594 842.999 42.582 843.601 42.0273C844.21 41.4727 844.515 40.7383 844.515 39.8242V37.9023H844.468C844.085 38.5742 843.55 39.1094 842.862 39.5078C842.175 39.8984 841.409 40.0938 840.565 40.0938C839.011 40.0938 837.765 39.5273 836.827 38.3945C835.89 37.2617 835.421 35.75 835.421 33.8594C835.421 31.9531 835.89 30.4336 836.827 29.3008C837.772 28.168 839.034 27.6016 840.612 27.6016C841.472 27.6016 842.245 27.8008 842.933 28.1992C843.62 28.5977 844.167 29.1523 844.573 29.8633H844.608V27.8125H846.554V39.7539C846.554 41.2148 846.054 42.3867 845.054 43.2695C844.054 44.1523 842.718 44.5938 841.046 44.5938ZM859.796 38.1016V40H849.53V23.0898H851.64V38.1016H859.796ZM861.905 40V27.8125H863.944V40H861.905ZM862.925 25.7617C862.581 25.7617 862.284 25.6367 862.034 25.3867C861.784 25.1367 861.659 24.8398 861.659 24.4961C861.659 24.1445 861.784 23.8477 862.034 23.6055C862.284 23.3555 862.581 23.2305 862.925 23.2305C863.276 23.2305 863.577 23.3555 863.827 23.6055C864.077 23.8477 864.202 24.1445 864.202 24.4961C864.202 24.8398 864.077 25.1367 863.827 25.3867C863.577 25.6367 863.276 25.7617 862.925 25.7617ZM866.698 40V27.8125H868.62V29.7578H868.667C869.019 29.0781 869.522 28.5508 870.179 28.1758C870.835 27.793 871.62 27.6016 872.534 27.6016C873.862 27.6016 874.897 28.0039 875.64 28.8086C876.382 29.6055 876.753 30.6992 876.753 32.0898V40H874.714V32.4531C874.714 31.4609 874.479 30.707 874.011 30.1914C873.542 29.668 872.843 29.4062 871.913 29.4062C870.952 29.4062 870.183 29.7188 869.604 30.3438C869.026 30.9688 868.737 31.7969 868.737 32.8281V40H866.698ZM881.499 33.2266L886.89 27.8125H889.362L884.077 33.0742L889.526 40H887.159L882.636 34.3281L881.499 35.4062V40H879.46V23.0898H881.499V33.2266Z" fill="black"/>
<path d="M521.095 35.3477H523.216C523.318 36.2617 523.763 36.9961 524.552 37.5508C525.349 38.1055 526.353 38.3828 527.564 38.3828C528.705 38.3828 529.646 38.1133 530.388 37.5742C531.138 37.0273 531.513 36.3398 531.513 35.5117C531.513 34.8008 531.251 34.2148 530.728 33.7539C530.212 33.293 529.384 32.9141 528.244 32.6172L526.076 32.0547C524.513 31.6562 523.373 31.1016 522.654 30.3906C521.935 29.6719 521.576 28.7383 521.576 27.5898C521.576 26.1836 522.13 25.0352 523.24 24.1445C524.357 23.2539 525.794 22.8086 527.552 22.8086C529.232 22.8086 530.623 23.2617 531.724 24.168C532.826 25.0664 533.4 26.2227 533.447 27.6367H531.337C531.244 26.7305 530.853 26.0156 530.166 25.4922C529.478 24.9688 528.583 24.707 527.482 24.707C526.388 24.707 525.494 24.9648 524.798 25.4805C524.111 25.9961 523.767 26.668 523.767 27.4961C523.767 28.1367 524.017 28.6641 524.517 29.0781C525.025 29.4844 525.853 29.8359 527.001 30.1328L528.771 30.6016C530.521 31.0391 531.779 31.6211 532.544 32.3477C533.31 33.0742 533.693 34.043 533.693 35.2539C533.693 36.8008 533.123 38.0273 531.982 38.9336C530.849 39.832 529.31 40.2812 527.365 40.2812C525.568 40.2812 524.099 39.832 522.958 38.9336C521.818 38.0352 521.197 36.8398 521.095 35.3477ZM541.755 27.6016C543.318 27.6016 544.576 28.1758 545.529 29.3242C546.49 30.4727 546.97 32 546.97 33.9062C546.97 35.8047 546.494 37.332 545.541 38.4883C544.587 39.6367 543.341 40.2109 541.802 40.2109C540.943 40.2109 540.173 40.0156 539.494 39.625C538.814 39.2344 538.291 38.6992 537.923 38.0195H537.876V44.0664H535.837V27.8125H537.771V29.875H537.818C538.201 29.1719 538.736 28.6172 539.423 28.2109C540.111 27.8047 540.888 27.6016 541.755 27.6016ZM541.357 38.418C542.443 38.418 543.302 38.0117 543.935 37.1992C544.568 36.3867 544.884 35.2891 544.884 33.9062C544.884 32.5234 544.568 31.4258 543.935 30.6133C543.302 29.8008 542.443 29.3945 541.357 29.3945C540.31 29.3945 539.466 29.8086 538.826 30.6367C538.185 31.4648 537.865 32.5547 537.865 33.9062C537.865 35.2656 538.185 36.3594 538.826 37.1875C539.466 38.0078 540.31 38.418 541.357 38.418ZM553.052 38.4766C554.013 38.4766 554.818 38.1797 555.466 37.5859C556.123 36.9844 556.451 36.2461 556.451 35.3711V34.375L553.193 34.5742C552.373 34.6289 551.736 34.8281 551.283 35.1719C550.837 35.5156 550.615 35.9766 550.615 36.5547C550.615 37.1328 550.837 37.5977 551.283 37.9492C551.728 38.3008 552.318 38.4766 553.052 38.4766ZM552.595 40.2109C551.384 40.2109 550.404 39.875 549.654 39.2031C548.912 38.5312 548.541 37.6484 548.541 36.5547C548.541 35.5078 548.923 34.6719 549.689 34.0469C550.462 33.4219 551.552 33.0703 552.958 32.9922L556.451 32.793V31.7734C556.451 31.0312 556.216 30.4492 555.748 30.0273C555.279 29.6055 554.623 29.3945 553.779 29.3945C553.005 29.3945 552.376 29.5664 551.892 29.9102C551.408 30.2461 551.099 30.7188 550.966 31.3281H548.998C549.068 30.2422 549.537 29.3516 550.404 28.6562C551.279 27.9531 552.419 27.6016 553.826 27.6016C555.255 27.6016 556.388 27.9609 557.224 28.6797C558.068 29.3984 558.49 30.3633 558.49 31.5742V40H556.556V37.9023H556.509C556.142 38.5977 555.603 39.1562 554.892 39.5781C554.181 40 553.416 40.2109 552.595 40.2109ZM571.205 31.8086H569.212C569.056 31.1055 568.708 30.5273 568.169 30.0742C567.638 29.6211 566.947 29.3945 566.095 29.3945C565.033 29.3945 564.177 29.8047 563.529 30.625C562.88 31.4375 562.556 32.5312 562.556 33.9062C562.556 35.3047 562.88 36.4062 563.529 37.2109C564.185 38.0156 565.048 38.418 566.119 38.418C566.939 38.418 567.615 38.2148 568.146 37.8086C568.685 37.3945 569.044 36.8164 569.224 36.0742H571.228C571.072 37.293 570.521 38.2891 569.576 39.0625C568.638 39.8281 567.482 40.2109 566.107 40.2109C564.404 40.2109 563.041 39.6484 562.017 38.5234C560.994 37.3906 560.482 35.8516 560.482 33.9062C560.482 31.9922 560.994 30.4648 562.017 29.3242C563.041 28.1758 564.396 27.6016 566.083 27.6016C567.537 27.6016 568.716 28.0117 569.623 28.832C570.537 29.6523 571.064 30.6445 571.205 31.8086ZM577.99 29.3711C577.044 29.3711 576.259 29.6992 575.634 30.3555C575.017 31.0039 574.677 31.8398 574.615 32.8633H581.236C581.212 31.832 580.904 30.9922 580.31 30.3438C579.716 29.6953 578.943 29.3711 577.99 29.3711ZM581.189 36.5078H583.193C583.013 37.5859 582.451 38.4727 581.505 39.168C580.568 39.8633 579.439 40.2109 578.119 40.2109C576.376 40.2109 575.005 39.6484 574.005 38.5234C573.005 37.3984 572.505 35.875 572.505 33.9531C572.505 32.0469 573.005 30.5117 574.005 29.3477C575.013 28.1836 576.353 27.6016 578.025 27.6016C579.666 27.6016 580.962 28.1523 581.916 29.2539C582.869 30.3555 583.345 31.832 583.345 33.6836V34.457H574.603V34.5742C574.603 35.7461 574.923 36.6836 575.564 37.3867C576.205 38.0898 577.072 38.4414 578.166 38.4414C578.931 38.4414 579.583 38.2656 580.123 37.9141C580.662 37.5625 581.017 37.0938 581.189 36.5078ZM587.833 40H585.724V23.0898H595.99V24.9883H587.833V30.8008H595.322V32.6758H587.833V40ZM598.193 40V23.0898H600.232V40H598.193ZM608.037 40.2109C606.333 40.2109 604.966 39.6445 603.935 38.5117C602.904 37.3711 602.388 35.8359 602.388 33.9062C602.388 31.9766 602.904 30.4453 603.935 29.3125C604.966 28.1719 606.333 27.6016 608.037 27.6016C609.732 27.6016 611.095 28.1719 612.126 29.3125C613.158 30.4453 613.673 31.9766 613.673 33.9062C613.673 35.8281 613.158 37.3594 612.126 38.5C611.095 39.6406 609.732 40.2109 608.037 40.2109ZM605.423 37.2227C606.072 38.0195 606.943 38.418 608.037 38.418C609.13 38.418 609.998 38.0234 610.638 37.2344C611.279 36.4375 611.599 35.3281 611.599 33.9062C611.599 32.4844 611.279 31.3789 610.638 30.5898C609.998 29.793 609.13 29.3945 608.037 29.3945C606.943 29.3945 606.072 29.793 605.423 30.5898C604.783 31.3867 604.462 32.4922 604.462 33.9062C604.462 35.3203 604.783 36.4258 605.423 37.2227ZM631.24 27.8125L627.841 40H625.767L623.013 30.5664H622.966L620.224 40H618.15L614.74 27.8125H616.767L619.205 37.7266H619.251L622.005 27.8125H623.974L626.74 37.7266H626.787L629.224 27.8125H631.24Z" fill="black"/>
<path d="M257.002 40H250.615V23.0898H257.026C258.471 23.0898 259.639 23.4766 260.53 24.25C261.428 25.0234 261.877 26.043 261.877 27.3086C261.877 28.1914 261.592 28.9922 261.022 29.7109C260.459 30.4219 259.772 30.8516 258.959 31V31.0938C260.108 31.2422 261.022 31.6914 261.701 32.4414C262.389 33.1914 262.733 34.1289 262.733 35.2539C262.733 36.7461 262.225 37.9102 261.209 38.7461C260.201 39.582 258.799 40 257.002 40ZM252.725 24.9531V30.3789H255.889C257.139 30.3789 258.092 30.1367 258.748 29.6523C259.412 29.168 259.744 28.4688 259.744 27.5547C259.744 26.7188 259.467 26.0781 258.912 25.6328C258.358 25.1797 257.569 24.9531 256.545 24.9531H252.725ZM252.725 38.1367H256.686C257.959 38.1367 258.924 37.8828 259.58 37.375C260.237 36.8672 260.565 36.125 260.565 35.1484C260.565 33.1797 259.205 32.1953 256.487 32.1953H252.725V38.1367ZM274.815 27.8125V40H272.881V38.0195H272.834C272.076 39.4805 270.787 40.2109 268.967 40.2109C267.647 40.2109 266.612 39.8125 265.862 39.0156C265.119 38.2109 264.748 37.1133 264.748 35.7227V27.8125H266.787V35.3594C266.787 37.3906 267.725 38.4062 269.6 38.4062C270.584 38.4062 271.358 38.0977 271.92 37.4805C272.49 36.8555 272.776 36.0195 272.776 34.9727V27.8125H274.815ZM277.569 40V27.8125H279.608V40H277.569ZM278.588 25.7617C278.244 25.7617 277.948 25.6367 277.698 25.3867C277.448 25.1367 277.323 24.8398 277.323 24.4961C277.323 24.1445 277.448 23.8477 277.698 23.6055C277.948 23.3555 278.244 23.2305 278.588 23.2305C278.94 23.2305 279.24 23.3555 279.49 23.6055C279.74 23.8477 279.865 24.1445 279.865 24.4961C279.865 24.8398 279.74 25.1367 279.49 25.3867C279.24 25.6367 278.94 25.7617 278.588 25.7617ZM282.467 40V23.0898H284.506V40H282.467ZM291.877 40.2109C290.315 40.2109 289.053 39.6367 288.092 38.4883C287.139 37.3398 286.662 35.8125 286.662 33.9062C286.662 32.0078 287.139 30.4844 288.092 29.3359C289.045 28.1797 290.291 27.6016 291.83 27.6016C292.69 27.6016 293.459 27.7969 294.139 28.1875C294.819 28.5781 295.342 29.1133 295.709 29.793H295.756V23.0898H297.795V40H295.85V37.9375H295.815C295.416 38.6484 294.877 39.207 294.198 39.6133C293.518 40.0117 292.744 40.2109 291.877 40.2109ZM292.264 29.3945C291.186 29.3945 290.33 29.8047 289.698 30.625C289.065 31.4375 288.748 32.5312 288.748 33.9062C288.748 35.2891 289.065 36.3867 289.698 37.1992C290.33 38.0117 291.186 38.418 292.264 38.418C293.319 38.418 294.166 38.0078 294.807 37.1875C295.448 36.3594 295.768 35.2656 295.768 33.9062C295.768 32.5469 295.444 31.457 294.795 30.6367C294.155 29.8086 293.311 29.3945 292.264 29.3945ZM300.655 40V27.8125H302.694V40H300.655ZM301.674 25.7617C301.33 25.7617 301.033 25.6367 300.783 25.3867C300.533 25.1367 300.408 24.8398 300.408 24.4961C300.408 24.1445 300.533 23.8477 300.783 23.6055C301.033 23.3555 301.33 23.2305 301.674 23.2305C302.026 23.2305 302.326 23.3555 302.576 23.6055C302.826 23.8477 302.951 24.1445 302.951 24.4961C302.951 24.8398 302.826 25.1367 302.576 25.3867C302.326 25.6367 302.026 25.7617 301.674 25.7617ZM305.448 40V27.8125H307.369V29.7578H307.416C307.768 29.0781 308.272 28.5508 308.928 28.1758C309.584 27.793 310.369 27.6016 311.283 27.6016C312.612 27.6016 313.647 28.0039 314.389 28.8086C315.131 29.6055 315.502 30.6992 315.502 32.0898V40H313.463V32.4531C313.463 31.4609 313.229 30.707 312.76 30.1914C312.291 29.668 311.592 29.4062 310.662 29.4062C309.701 29.4062 308.932 29.7188 308.354 30.3438C307.776 30.9688 307.487 31.7969 307.487 32.8281V40H305.448ZM323.061 38.3008C324.123 38.3008 324.979 37.8945 325.627 37.082C326.276 36.2695 326.6 35.1953 326.6 33.8594C326.6 32.5156 326.276 31.4375 325.627 30.625C324.979 29.8047 324.123 29.3945 323.061 29.3945C322.006 29.3945 321.162 29.8008 320.53 30.6133C319.905 31.418 319.592 32.5 319.592 33.8594C319.592 35.2188 319.905 36.3008 320.53 37.1055C321.162 37.9023 322.006 38.3008 323.061 38.3008ZM323.131 44.5938C321.795 44.5938 320.647 44.2539 319.686 43.5742C318.725 42.9023 318.158 42.0469 317.987 41.0078H320.084C320.287 41.5703 320.67 42.0195 321.233 42.3555C321.795 42.6914 322.455 42.8594 323.213 42.8594C324.26 42.8594 325.084 42.582 325.686 42.0273C326.295 41.4727 326.6 40.7383 326.6 39.8242V37.9023H326.553C326.17 38.5742 325.635 39.1094 324.948 39.5078C324.26 39.8984 323.494 40.0938 322.651 40.0938C321.096 40.0938 319.85 39.5273 318.912 38.3945C317.975 37.2617 317.506 35.75 317.506 33.8594C317.506 31.9531 317.975 30.4336 318.912 29.3008C319.858 28.168 321.119 27.6016 322.698 27.6016C323.557 27.6016 324.33 27.8008 325.018 28.1992C325.705 28.5977 326.252 29.1523 326.658 29.8633H326.694V27.8125H328.639V39.7539C328.639 41.2148 328.139 42.3867 327.139 43.2695C326.139 44.1523 324.803 44.5938 323.131 44.5938ZM335.729 35.3477H337.85C337.951 36.2617 338.397 36.9961 339.186 37.5508C339.983 38.1055 340.987 38.3828 342.198 38.3828C343.338 38.3828 344.28 38.1133 345.022 37.5742C345.772 37.0273 346.147 36.3398 346.147 35.5117C346.147 34.8008 345.885 34.2148 345.362 33.7539C344.846 33.293 344.018 32.9141 342.877 32.6172L340.709 32.0547C339.147 31.6562 338.006 31.1016 337.287 30.3906C336.569 29.6719 336.209 28.7383 336.209 27.5898C336.209 26.1836 336.764 25.0352 337.873 24.1445C338.99 23.2539 340.428 22.8086 342.186 22.8086C343.865 22.8086 345.256 23.2617 346.358 24.168C347.459 25.0664 348.033 26.2227 348.08 27.6367H345.971C345.877 26.7305 345.487 26.0156 344.799 25.4922C344.112 24.9688 343.217 24.707 342.115 24.707C341.022 24.707 340.127 24.9648 339.432 25.4805C338.744 25.9961 338.401 26.668 338.401 27.4961C338.401 28.1367 338.651 28.6641 339.151 29.0781C339.658 29.4844 340.487 29.8359 341.635 30.1328L343.405 30.6016C345.155 31.0391 346.412 31.6211 347.178 32.3477C347.944 33.0742 348.326 34.043 348.326 35.2539C348.326 36.8008 347.756 38.0273 346.615 38.9336C345.483 39.832 343.944 40.2812 341.998 40.2812C340.201 40.2812 338.733 39.832 337.592 38.9336C336.451 38.0352 335.83 36.8398 335.729 35.3477ZM351.127 24.8711H353.166V27.8125H355.533V29.4883H353.166V36.7305C353.166 37.2852 353.287 37.6953 353.53 37.9609C353.772 38.2188 354.155 38.3477 354.678 38.3477C355.006 38.3477 355.287 38.3281 355.522 38.2891V40C355.256 40.0625 354.826 40.0938 354.233 40.0938C353.115 40.0938 352.319 39.8438 351.842 39.3438C351.365 38.8438 351.127 38.0078 351.127 36.8359V29.4883H349.311V27.8125H351.127V24.8711ZM361.498 38.4766C362.459 38.4766 363.264 38.1797 363.912 37.5859C364.569 36.9844 364.897 36.2461 364.897 35.3711V34.375L361.639 34.5742C360.819 34.6289 360.182 34.8281 359.729 35.1719C359.283 35.5156 359.061 35.9766 359.061 36.5547C359.061 37.1328 359.283 37.5977 359.729 37.9492C360.174 38.3008 360.764 38.4766 361.498 38.4766ZM361.041 40.2109C359.83 40.2109 358.85 39.875 358.1 39.2031C357.358 38.5312 356.987 37.6484 356.987 36.5547C356.987 35.5078 357.369 34.6719 358.135 34.0469C358.908 33.4219 359.998 33.0703 361.405 32.9922L364.897 32.793V31.7734C364.897 31.0312 364.662 30.4492 364.194 30.0273C363.725 29.6055 363.069 29.3945 362.225 29.3945C361.451 29.3945 360.823 29.5664 360.338 29.9102C359.854 30.2461 359.545 30.7188 359.412 31.3281H357.444C357.514 30.2422 357.983 29.3516 358.85 28.6562C359.725 27.9531 360.865 27.6016 362.272 27.6016C363.701 27.6016 364.834 27.9609 365.67 28.6797C366.514 29.3984 366.936 30.3633 366.936 31.5742V40H365.002V37.9023H364.955C364.588 38.5977 364.049 39.1562 363.338 39.5781C362.627 40 361.862 40.2109 361.041 40.2109ZM379.651 31.8086H377.658C377.502 31.1055 377.155 30.5273 376.615 30.0742C376.084 29.6211 375.393 29.3945 374.541 29.3945C373.479 29.3945 372.623 29.8047 371.975 30.625C371.326 31.4375 371.002 32.5312 371.002 33.9062C371.002 35.3047 371.326 36.4062 371.975 37.2109C372.631 38.0156 373.494 38.418 374.565 38.418C375.385 38.418 376.061 38.2148 376.592 37.8086C377.131 37.3945 377.49 36.8164 377.67 36.0742H379.674C379.518 37.293 378.967 38.2891 378.022 39.0625C377.084 39.8281 375.928 40.2109 374.553 40.2109C372.85 40.2109 371.487 39.6484 370.463 38.5234C369.44 37.3906 368.928 35.8516 368.928 33.9062C368.928 31.9922 369.44 30.4648 370.463 29.3242C371.487 28.1758 372.842 27.6016 374.53 27.6016C375.983 27.6016 377.162 28.0117 378.069 28.832C378.983 29.6523 379.51 30.6445 379.651 31.8086ZM383.694 33.2266L389.084 27.8125H391.557L386.272 33.0742L391.721 40H389.354L384.83 34.3281L383.694 35.4062V40H381.655V23.0898H383.694V33.2266Z" fill="black"/>
<path d="M46.9395 171.709V180.664C46.9395 181.693 47.2487 182.523 47.8672 183.154C48.4922 183.779 49.3548 184.092 50.4551 184.092C51.5553 184.092 52.418 183.779 53.043 183.154C53.668 182.523 53.9805 181.693 53.9805 180.664V171.709H56.1582V180.85C56.1582 182.393 55.6439 183.643 54.6152 184.6C53.5866 185.557 52.1999 186.035 50.4551 186.035C48.7103 186.035 47.3236 185.557 46.2949 184.6C45.2663 183.643 44.752 182.393 44.752 180.85V171.709H46.9395ZM60.9434 185.801H58.7559V171.709H60.9434V185.801ZM67.6035 171.709H72.5742C74.6706 171.709 76.3047 172.324 77.4766 173.555C78.6549 174.785 79.2441 176.51 79.2441 178.73C79.2441 180.957 78.6582 182.692 77.4863 183.936C76.3145 185.179 74.6771 185.801 72.5742 185.801H67.6035V171.709ZM69.791 173.594V183.906H72.3691C73.8665 183.906 75.0124 183.464 75.8066 182.578C76.6074 181.693 77.0078 180.417 77.0078 178.75C77.0078 177.09 76.6074 175.817 75.8066 174.932C75.0059 174.04 73.86 173.594 72.3691 173.594H69.791ZM87.1641 177.783C86.7018 177.288 86.1061 177.041 85.377 177.041C84.6478 177.041 84.0423 177.292 83.5605 177.793C83.0788 178.288 82.8118 178.929 82.7598 179.717H87.8965C87.8704 178.923 87.6263 178.278 87.1641 177.783ZM87.8867 182.783H89.8887C89.7389 183.727 89.2572 184.499 88.4434 185.098C87.6296 185.697 86.6367 185.996 85.4648 185.996C83.9609 185.996 82.776 185.524 81.9102 184.58C81.0508 183.63 80.6211 182.34 80.6211 180.713C80.6211 179.098 81.0508 177.799 81.9102 176.816C82.776 175.833 83.9316 175.342 85.377 175.342C86.7962 175.342 87.9225 175.807 88.7559 176.738C89.5892 177.663 90.0059 178.906 90.0059 180.469V181.191H82.75V181.318C82.75 182.217 83.0007 182.936 83.502 183.477C84.0033 184.017 84.6738 184.287 85.5137 184.287C86.1061 184.287 86.6139 184.15 87.0371 183.877C87.4603 183.604 87.7435 183.239 87.8867 182.783ZM91.4609 178.438C91.4609 177.52 91.832 176.774 92.5742 176.201C93.3164 175.628 94.2865 175.342 95.4844 175.342C96.6237 175.342 97.5579 175.632 98.2871 176.211C99.0228 176.784 99.4069 177.529 99.4395 178.447H97.457C97.4049 177.979 97.1999 177.611 96.8418 177.344C96.4837 177.077 96.0117 176.943 95.4258 176.943C94.8529 176.943 94.3906 177.07 94.0391 177.324C93.694 177.578 93.5215 177.907 93.5215 178.311C93.5215 178.936 94.0456 179.378 95.0938 179.639L96.8223 180.039C97.8574 180.286 98.5898 180.625 99.0195 181.055C99.4557 181.478 99.6738 182.07 99.6738 182.832C99.6738 183.77 99.2767 184.531 98.4824 185.117C97.6947 185.703 96.6693 185.996 95.4062 185.996C94.2018 185.996 93.2188 185.71 92.457 185.137C91.7018 184.564 91.2819 183.802 91.1973 182.852H93.2871C93.3717 183.346 93.6029 183.727 93.9805 183.994C94.3581 184.255 94.8659 184.385 95.5039 184.385C96.1354 184.385 96.6335 184.264 96.998 184.023C97.3691 183.776 97.5547 183.444 97.5547 183.027C97.5547 182.695 97.444 182.432 97.2227 182.236C97.0013 182.041 96.6237 181.875 96.0898 181.738L94.2539 181.289C92.3919 180.84 91.4609 179.889 91.4609 178.438ZM101.383 185.801V175.527H103.492V185.801H101.383ZM103.307 173.672C103.066 173.906 102.776 174.023 102.438 174.023C102.099 174.023 101.809 173.906 101.568 173.672C101.334 173.438 101.217 173.154 101.217 172.822C101.217 172.484 101.334 172.197 101.568 171.963C101.809 171.729 102.099 171.611 102.438 171.611C102.783 171.611 103.072 171.729 103.307 171.963C103.548 172.197 103.668 172.484 103.668 172.822C103.668 173.154 103.548 173.438 103.307 173.672ZM110.025 184.092C110.852 184.092 111.513 183.779 112.008 183.154C112.509 182.529 112.76 181.689 112.76 180.635C112.76 179.58 112.509 178.734 112.008 178.096C111.513 177.458 110.852 177.139 110.025 177.139C109.212 177.139 108.561 177.454 108.072 178.086C107.59 178.717 107.35 179.567 107.35 180.635C107.35 181.702 107.59 182.546 108.072 183.164C108.561 183.783 109.212 184.092 110.025 184.092ZM110.045 189.668C108.847 189.668 107.831 189.382 106.998 188.809C106.171 188.236 105.693 187.5 105.562 186.602H107.682C107.831 187.031 108.124 187.376 108.561 187.637C109.003 187.897 109.524 188.027 110.123 188.027C110.937 188.027 111.578 187.812 112.047 187.383C112.516 186.96 112.75 186.393 112.75 185.684V183.994H112.711C112.418 184.561 111.982 185.01 111.402 185.342C110.829 185.674 110.182 185.84 109.459 185.84C108.163 185.84 107.128 185.371 106.354 184.434C105.579 183.49 105.191 182.22 105.191 180.625C105.191 179.01 105.579 177.731 106.354 176.787C107.135 175.837 108.186 175.361 109.508 175.361C110.23 175.361 110.878 175.534 111.451 175.879C112.024 176.217 112.467 176.686 112.779 177.285H112.818V175.527H114.869V185.615C114.869 186.839 114.43 187.819 113.551 188.555C112.678 189.297 111.51 189.668 110.045 189.668ZM116.959 185.801V175.527H118.971V177.246H119.02C119.306 176.647 119.723 176.182 120.27 175.85C120.816 175.518 121.477 175.352 122.252 175.352C123.378 175.352 124.254 175.69 124.879 176.367C125.504 177.038 125.816 177.965 125.816 179.15V185.801H123.697V179.561C123.697 178.779 123.512 178.187 123.141 177.783C122.776 177.373 122.232 177.168 121.51 177.168C120.768 177.168 120.175 177.409 119.732 177.891C119.29 178.372 119.068 179.014 119.068 179.814V185.801H116.959Z" fill="black"/>
<path d="M37.5442 619.156H35.3567V605.064H44.1555V606.949H37.5442V611.412H43.5989V613.258H37.5442V619.156ZM45.8059 619.156V608.883H47.8176V610.631H47.8665C48.0357 610.032 48.3385 609.563 48.7747 609.225C49.2109 608.886 49.7317 608.717 50.3372 608.717C50.539 608.717 50.7799 608.743 51.0598 608.795V610.758C50.871 610.68 50.5553 610.641 50.1125 610.641C49.4355 610.641 48.8984 610.852 48.5012 611.275C48.1106 611.699 47.9153 612.275 47.9153 613.004V619.156H45.8059ZM58.0032 611.139C57.5409 610.644 56.9452 610.396 56.2161 610.396C55.4869 610.396 54.8814 610.647 54.3997 611.148C53.9179 611.643 53.651 612.285 53.5989 613.072H58.7356C58.7096 612.278 58.4654 611.633 58.0032 611.139ZM58.7258 616.139H60.7278C60.578 617.083 60.0963 617.854 59.2825 618.453C58.4687 619.052 57.4758 619.352 56.304 619.352C54.8 619.352 53.6152 618.88 52.7493 617.936C51.8899 616.985 51.4602 615.696 51.4602 614.068C51.4602 612.454 51.8899 611.155 52.7493 610.172C53.6152 609.189 54.7708 608.697 56.2161 608.697C57.6353 608.697 58.7616 609.163 59.595 610.094C60.4283 611.018 60.845 612.262 60.845 613.824V614.547H53.5891V614.674C53.5891 615.572 53.8398 616.292 54.3411 616.832C54.8424 617.372 55.5129 617.643 56.3528 617.643C56.9452 617.643 57.453 617.506 57.8762 617.232C58.2994 616.959 58.5826 616.594 58.7258 616.139ZM68.5696 611.139C68.1073 610.644 67.5116 610.396 66.7825 610.396C66.0533 610.396 65.4478 610.647 64.9661 611.148C64.4843 611.643 64.2174 612.285 64.1653 613.072H69.302C69.276 612.278 69.0318 611.633 68.5696 611.139ZM69.2922 616.139H71.2942C71.1444 617.083 70.6627 617.854 69.8489 618.453C69.0351 619.052 68.0422 619.352 66.8704 619.352C65.3665 619.352 64.1816 618.88 63.3157 617.936C62.4563 616.985 62.0266 615.696 62.0266 614.068C62.0266 612.454 62.4563 611.155 63.3157 610.172C64.1816 609.189 65.3372 608.697 66.7825 608.697C68.2017 608.697 69.328 609.163 70.1614 610.094C70.9947 611.018 71.4114 612.262 71.4114 613.824V614.547H64.1555V614.674C64.1555 615.572 64.4062 616.292 64.9075 616.832C65.4088 617.372 66.0793 617.643 66.9192 617.643C67.5116 617.643 68.0194 617.506 68.4426 617.232C68.8658 616.959 69.149 616.594 69.2922 616.139ZM77.7297 606.451H79.8489V608.883H81.802V610.553H79.8489V616.217C79.8489 616.66 79.9498 616.985 80.1516 617.193C80.3534 617.402 80.6692 617.506 81.0989 617.506C81.4114 617.506 81.6425 617.49 81.7922 617.457V619.127C81.5318 619.192 81.1412 619.225 80.6204 619.225C79.5852 619.225 78.843 619.013 78.3938 618.59C77.9511 618.16 77.7297 617.447 77.7297 616.451V610.553H76.2356V608.883H77.7297V606.451ZM91.2454 617.926C90.3599 618.876 89.1783 619.352 87.7004 619.352C86.2226 619.352 85.0409 618.876 84.1555 617.926C83.2701 616.969 82.8274 615.667 82.8274 614.02C82.8274 612.379 83.2701 611.083 84.1555 610.133C85.0409 609.176 86.2226 608.697 87.7004 608.697C89.1783 608.697 90.3599 609.176 91.2454 610.133C92.1308 611.083 92.5735 612.379 92.5735 614.02C92.5735 615.667 92.1308 616.969 91.2454 617.926ZM87.7004 617.613C88.5403 617.613 89.2043 617.298 89.6926 616.666C90.1809 616.035 90.425 615.152 90.425 614.02C90.425 612.893 90.1777 612.014 89.6829 611.383C89.1946 610.751 88.5338 610.436 87.7004 610.436C86.8671 610.436 86.203 610.751 85.7083 611.383C85.22 612.014 84.9758 612.893 84.9758 614.02C84.9758 615.152 85.22 616.035 85.7083 616.666C86.203 617.298 86.8671 617.613 87.7004 617.613ZM100.708 605.064V614.02C100.708 615.048 101.017 615.878 101.636 616.51C102.261 617.135 103.124 617.447 104.224 617.447C105.324 617.447 106.187 617.135 106.812 616.51C107.437 615.878 107.749 615.048 107.749 614.02V605.064H109.927V614.205C109.927 615.748 109.413 616.998 108.384 617.955C107.355 618.912 105.969 619.391 104.224 619.391C102.479 619.391 101.092 618.912 100.064 617.955C99.0351 616.998 98.5208 615.748 98.5208 614.205V605.064H100.708ZM112.085 611.793C112.085 610.875 112.456 610.13 113.198 609.557C113.941 608.984 114.911 608.697 116.109 608.697C117.248 608.697 118.182 608.987 118.911 609.566C119.647 610.139 120.031 610.885 120.064 611.803H118.081C118.029 611.334 117.824 610.966 117.466 610.699C117.108 610.432 116.636 610.299 116.05 610.299C115.477 610.299 115.015 610.426 114.663 610.68C114.318 610.934 114.146 611.262 114.146 611.666C114.146 612.291 114.67 612.734 115.718 612.994L117.447 613.395C118.482 613.642 119.214 613.98 119.644 614.41C120.08 614.833 120.298 615.426 120.298 616.188C120.298 617.125 119.901 617.887 119.107 618.473C118.319 619.059 117.294 619.352 116.031 619.352C114.826 619.352 113.843 619.065 113.081 618.492C112.326 617.919 111.906 617.158 111.822 616.207H113.911C113.996 616.702 114.227 617.083 114.605 617.35C114.982 617.61 115.49 617.74 116.128 617.74C116.76 617.74 117.258 617.62 117.622 617.379C117.993 617.132 118.179 616.799 118.179 616.383C118.179 616.051 118.068 615.787 117.847 615.592C117.626 615.396 117.248 615.23 116.714 615.094L114.878 614.645C113.016 614.195 112.085 613.245 112.085 611.793ZM128.023 611.139C127.56 610.644 126.965 610.396 126.236 610.396C125.506 610.396 124.901 610.647 124.419 611.148C123.937 611.643 123.67 612.285 123.618 613.072H128.755C128.729 612.278 128.485 611.633 128.023 611.139ZM128.745 616.139H130.747C130.598 617.083 130.116 617.854 129.302 618.453C128.488 619.052 127.495 619.352 126.323 619.352C124.82 619.352 123.635 618.88 122.769 617.936C121.909 616.985 121.48 615.696 121.48 614.068C121.48 612.454 121.909 611.155 122.769 610.172C123.635 609.189 124.79 608.697 126.236 608.697C127.655 608.697 128.781 609.163 129.615 610.094C130.448 611.018 130.865 612.262 130.865 613.824V614.547H123.609V614.674C123.609 615.572 123.859 616.292 124.361 616.832C124.862 617.372 125.532 617.643 126.372 617.643C126.965 617.643 127.473 617.506 127.896 617.232C128.319 616.959 128.602 616.594 128.745 616.139Z" fill="black"/>
<path d="M32.0472 333.219H29.8597V321.012H25.5433V319.127H36.3538V321.012H32.0472V333.219ZM41.4515 325.201C40.9892 324.706 40.3935 324.459 39.6644 324.459C38.9352 324.459 38.3297 324.71 37.8479 325.211C37.3662 325.706 37.0992 326.347 37.0472 327.135H42.1839C42.1578 326.34 41.9137 325.696 41.4515 325.201ZM42.1741 330.201H44.1761C44.0263 331.145 43.5446 331.917 42.7308 332.516C41.917 333.115 40.9241 333.414 39.7522 333.414C38.2483 333.414 37.0634 332.942 36.1976 331.998C35.3382 331.048 34.9085 329.758 34.9085 328.131C34.9085 326.516 35.3382 325.217 36.1976 324.234C37.0634 323.251 38.219 322.76 39.6644 322.76C41.0836 322.76 42.2099 323.225 43.0433 324.156C43.8766 325.081 44.2933 326.324 44.2933 327.887V328.609H37.0374V328.736C37.0374 329.635 37.2881 330.354 37.7894 330.895C38.2907 331.435 38.9612 331.705 39.8011 331.705C40.3935 331.705 40.9013 331.568 41.3245 331.295C41.7477 331.021 42.0309 330.657 42.1741 330.201ZM45.9339 333.219V322.945H47.9456V324.664H47.9944C48.2809 324.065 48.6976 323.6 49.2444 323.268C49.7913 322.936 50.4521 322.77 51.2269 322.77C52.3532 322.77 53.2288 323.108 53.8538 323.785C54.4788 324.456 54.7913 325.383 54.7913 326.568V333.219H52.6722V326.979C52.6722 326.197 52.4866 325.605 52.1155 325.201C51.7509 324.791 51.2073 324.586 50.4847 324.586C49.7425 324.586 49.15 324.827 48.7073 325.309C48.2646 325.79 48.0433 326.432 48.0433 327.232V333.219H45.9339ZM60.4261 331.725C61.1683 331.725 61.79 331.5 62.2913 331.051C62.7991 330.595 63.053 330.035 63.053 329.371V328.561L60.5237 328.717C59.8922 328.762 59.4039 328.919 59.0589 329.186C58.7203 329.446 58.5511 329.798 58.5511 330.24C58.5511 330.689 58.7203 331.051 59.0589 331.324C59.4039 331.591 59.8597 331.725 60.4261 331.725ZM59.8401 333.395C58.831 333.395 58.0075 333.108 57.3694 332.535C56.7379 331.962 56.4222 331.217 56.4222 330.299C56.4222 329.4 56.7542 328.688 57.4183 328.16C58.0823 327.626 59.0231 327.327 60.2405 327.262L63.053 327.096V326.305C63.053 325.732 62.8707 325.286 62.5061 324.967C62.1416 324.641 61.637 324.479 60.9925 324.479C60.3935 324.479 59.9052 324.612 59.5276 324.879C59.1565 325.146 58.9222 325.514 58.8245 325.982H56.8323C56.8909 325.032 57.3011 324.257 58.0628 323.658C58.8245 323.059 59.8271 322.76 61.0706 322.76C62.3141 322.76 63.3037 323.066 64.0394 323.678C64.7815 324.29 65.1526 325.11 65.1526 326.139V333.219H63.1311V331.529H63.0823C62.7894 332.096 62.3434 332.548 61.7444 332.887C61.152 333.225 60.5172 333.395 59.8401 333.395ZM67.2034 333.219V322.945H69.2151V324.664H69.264C69.5504 324.065 69.9671 323.6 70.514 323.268C71.0608 322.936 71.7216 322.77 72.4964 322.77C73.6227 322.77 74.4983 323.108 75.1233 323.785C75.7483 324.456 76.0608 325.383 76.0608 326.568V333.219H73.9417V326.979C73.9417 326.197 73.7561 325.605 73.3851 325.201C73.0205 324.791 72.4769 324.586 71.7542 324.586C71.012 324.586 70.4196 324.827 69.9769 325.309C69.5341 325.79 69.3128 326.432 69.3128 327.232V333.219H67.2034ZM78.7171 320.514H80.8362V322.945H82.7894V324.615H80.8362V330.279C80.8362 330.722 80.9371 331.048 81.139 331.256C81.3408 331.464 81.6565 331.568 82.0862 331.568C82.3987 331.568 82.6298 331.552 82.7796 331.52V333.189C82.5192 333.255 82.1285 333.287 81.6077 333.287C80.5726 333.287 79.8304 333.076 79.3811 332.652C78.9384 332.223 78.7171 331.51 78.7171 330.514V324.615H77.2229V322.945H78.7171V320.514ZM91.0315 333.219H88.844V319.127H97.6429V321.012H91.0315V325.475H97.0862V327.32H91.0315V333.219ZM106.901 331.988C106.015 332.939 104.834 333.414 103.356 333.414C101.878 333.414 100.696 332.939 99.8108 331.988C98.9254 331.031 98.4827 329.729 98.4827 328.082C98.4827 326.441 98.9254 325.146 99.8108 324.195C100.696 323.238 101.878 322.76 103.356 322.76C104.834 322.76 106.015 323.238 106.901 324.195C107.786 325.146 108.229 326.441 108.229 328.082C108.229 329.729 107.786 331.031 106.901 331.988ZM103.356 331.676C104.196 331.676 104.86 331.36 105.348 330.729C105.836 330.097 106.08 329.215 106.08 328.082C106.08 326.956 105.833 326.077 105.338 325.445C104.85 324.814 104.189 324.498 103.356 324.498C102.522 324.498 101.858 324.814 101.364 325.445C100.875 326.077 100.631 326.956 100.631 328.082C100.631 329.215 100.875 330.097 101.364 330.729C101.858 331.36 102.522 331.676 103.356 331.676ZM118.678 326.48H116.666C116.556 325.901 116.289 325.429 115.866 325.064C115.449 324.7 114.912 324.518 114.254 324.518C113.434 324.518 112.776 324.84 112.282 325.484C111.793 326.122 111.549 326.988 111.549 328.082C111.549 329.195 111.793 330.068 112.282 330.699C112.776 331.331 113.44 331.646 114.274 331.646C114.918 331.646 115.446 331.48 115.856 331.148C116.272 330.81 116.543 330.341 116.666 329.742H118.698C118.587 330.842 118.125 331.731 117.311 332.408C116.504 333.079 115.485 333.414 114.254 333.414C112.776 333.414 111.598 332.939 110.719 331.988C109.84 331.031 109.401 329.729 109.401 328.082C109.401 326.454 109.84 325.162 110.719 324.205C111.598 323.242 112.77 322.76 114.235 322.76C115.511 322.76 116.546 323.118 117.34 323.834C118.134 324.544 118.58 325.426 118.678 326.48ZM129 322.945V333.219H126.979V331.48H126.93C126.338 332.763 125.276 333.404 123.746 333.404C122.627 333.404 121.744 333.066 121.1 332.389C120.462 331.705 120.143 330.774 120.143 329.596V322.945H122.252V329.186C122.252 329.973 122.438 330.572 122.809 330.982C123.18 331.386 123.727 331.588 124.45 331.588C125.205 331.588 125.8 331.347 126.237 330.865C126.673 330.383 126.891 329.739 126.891 328.932V322.945H129ZM130.905 325.855C130.905 324.938 131.276 324.192 132.018 323.619C132.76 323.046 133.73 322.76 134.928 322.76C136.067 322.76 137.002 323.049 137.731 323.629C138.466 324.202 138.851 324.947 138.883 325.865H136.901C136.849 325.396 136.644 325.029 136.285 324.762C135.927 324.495 135.455 324.361 134.869 324.361C134.297 324.361 133.834 324.488 133.483 324.742C133.138 324.996 132.965 325.325 132.965 325.729C132.965 326.354 133.489 326.796 134.537 327.057L136.266 327.457C137.301 327.704 138.033 328.043 138.463 328.473C138.899 328.896 139.117 329.488 139.117 330.25C139.117 331.188 138.72 331.949 137.926 332.535C137.138 333.121 136.113 333.414 134.85 333.414C133.645 333.414 132.662 333.128 131.901 332.555C131.145 331.982 130.726 331.22 130.641 330.27H132.731C132.815 330.764 133.047 331.145 133.424 331.412C133.802 331.673 134.31 331.803 134.948 331.803C135.579 331.803 136.077 331.682 136.442 331.441C136.813 331.194 136.998 330.862 136.998 330.445C136.998 330.113 136.888 329.85 136.666 329.654C136.445 329.459 136.067 329.293 135.533 329.156L133.698 328.707C131.836 328.258 130.905 327.307 130.905 325.855ZM146.842 325.201C146.38 324.706 145.784 324.459 145.055 324.459C144.326 324.459 143.72 324.71 143.239 325.211C142.757 325.706 142.49 326.347 142.438 327.135H147.575C147.548 326.34 147.304 325.696 146.842 325.201ZM147.565 330.201H149.567C149.417 331.145 148.935 331.917 148.121 332.516C147.308 333.115 146.315 333.414 145.143 333.414C143.639 333.414 142.454 332.942 141.588 331.998C140.729 331.048 140.299 329.758 140.299 328.131C140.299 326.516 140.729 325.217 141.588 324.234C142.454 323.251 143.61 322.76 145.055 322.76C146.474 322.76 147.601 323.225 148.434 324.156C149.267 325.081 149.684 326.324 149.684 327.887V328.609H142.428V328.736C142.428 329.635 142.679 330.354 143.18 330.895C143.681 331.435 144.352 331.705 145.192 331.705C145.784 331.705 146.292 331.568 146.715 331.295C147.138 331.021 147.422 330.657 147.565 330.201ZM155.182 333.395C153.88 333.395 152.835 332.913 152.047 331.949C151.259 330.986 150.866 329.697 150.866 328.082C150.866 326.467 151.256 325.182 152.037 324.225C152.825 323.261 153.867 322.779 155.162 322.779C155.885 322.779 156.53 322.949 157.096 323.287C157.662 323.619 158.092 324.075 158.385 324.654H158.424V319.127H160.543V333.219H158.493V331.471H158.453C158.147 332.07 157.708 332.542 157.135 332.887C156.569 333.225 155.918 333.395 155.182 333.395ZM155.739 324.557C154.905 324.557 154.244 324.876 153.756 325.514C153.268 326.145 153.024 327.001 153.024 328.082C153.024 329.169 153.268 330.029 153.756 330.66C154.244 331.292 154.905 331.607 155.739 331.607C156.552 331.607 157.207 331.288 157.702 330.65C158.196 330.006 158.444 329.15 158.444 328.082C158.444 327.021 158.196 326.168 157.702 325.523C157.207 324.879 156.552 324.557 155.739 324.557Z" fill="black"/>
<path d="M51.6761 454.836H49.6741V444.465H49.6058L45.3577 454.729H43.7366L39.4788 444.465H39.4105V454.836H37.4183V440.744H39.9476L44.5081 451.867H44.5862L49.137 440.744H51.6761V454.836ZM57.3401 453.342C58.0823 453.342 58.7041 453.117 59.2054 452.668C59.7132 452.212 59.9671 451.652 59.9671 450.988V450.178L57.4378 450.334C56.8063 450.38 56.318 450.536 55.973 450.803C55.6344 451.063 55.4651 451.415 55.4651 451.857C55.4651 452.307 55.6344 452.668 55.973 452.941C56.318 453.208 56.7737 453.342 57.3401 453.342ZM56.7542 455.012C55.7451 455.012 54.9215 454.725 54.2835 454.152C53.652 453.579 53.3362 452.834 53.3362 451.916C53.3362 451.018 53.6683 450.305 54.3323 449.777C54.9964 449.243 55.9371 448.944 57.1546 448.879L59.9671 448.713V447.922C59.9671 447.349 59.7848 446.903 59.4202 446.584C59.0556 446.258 58.5511 446.096 57.9065 446.096C57.3076 446.096 56.8193 446.229 56.4417 446.496C56.0706 446.763 55.8362 447.131 55.7386 447.6H53.7464C53.805 446.649 54.2151 445.874 54.9769 445.275C55.7386 444.676 56.7412 444.377 57.9847 444.377C59.2282 444.377 60.2177 444.683 60.9534 445.295C61.6956 445.907 62.0667 446.727 62.0667 447.756V454.836H60.0452V453.146H59.9964C59.7034 453.713 59.2575 454.165 58.6585 454.504C58.0661 454.842 57.4313 455.012 56.7542 455.012ZM64.1175 454.836V444.562H66.1292V446.281H66.178C66.4645 445.682 66.8812 445.217 67.428 444.885C67.9749 444.553 68.6357 444.387 69.4105 444.387C70.5368 444.387 71.4124 444.725 72.0374 445.402C72.6624 446.073 72.9749 447.001 72.9749 448.186V454.836H70.8558V448.596C70.8558 447.814 70.6702 447.222 70.2991 446.818C69.9345 446.408 69.3909 446.203 68.6683 446.203C67.9261 446.203 67.3336 446.444 66.8909 446.926C66.4482 447.408 66.2269 448.049 66.2269 448.85V454.836H64.1175ZM78.6097 453.342C79.3519 453.342 79.9736 453.117 80.4749 452.668C80.9827 452.212 81.2366 451.652 81.2366 450.988V450.178L78.7073 450.334C78.0758 450.38 77.5875 450.536 77.2425 450.803C76.9039 451.063 76.7347 451.415 76.7347 451.857C76.7347 452.307 76.9039 452.668 77.2425 452.941C77.5875 453.208 78.0433 453.342 78.6097 453.342ZM78.0237 455.012C77.0146 455.012 76.1911 454.725 75.553 454.152C74.9215 453.579 74.6058 452.834 74.6058 451.916C74.6058 451.018 74.9378 450.305 75.6019 449.777C76.2659 449.243 77.2067 448.944 78.4241 448.879L81.2366 448.713V447.922C81.2366 447.349 81.0543 446.903 80.6898 446.584C80.3252 446.258 79.8206 446.096 79.1761 446.096C78.5771 446.096 78.0888 446.229 77.7112 446.496C77.3401 446.763 77.1058 447.131 77.0081 447.6H75.0159C75.0745 446.649 75.4847 445.874 76.2464 445.275C77.0081 444.676 78.0107 444.377 79.2542 444.377C80.4977 444.377 81.4873 444.683 82.223 445.295C82.9651 445.907 83.3362 446.727 83.3362 447.756V454.836H81.3148V453.146H81.2659C80.973 453.713 80.527 454.165 79.928 454.504C79.3356 454.842 78.7008 455.012 78.0237 455.012ZM89.762 453.127C90.5888 453.127 91.2496 452.814 91.7444 452.189C92.2457 451.564 92.4964 450.725 92.4964 449.67C92.4964 448.615 92.2457 447.769 91.7444 447.131C91.2496 446.493 90.5888 446.174 89.762 446.174C88.9482 446.174 88.2972 446.49 87.8089 447.121C87.3271 447.753 87.0862 448.602 87.0862 449.67C87.0862 450.738 87.3271 451.581 87.8089 452.199C88.2972 452.818 88.9482 453.127 89.762 453.127ZM89.7815 458.703C88.5836 458.703 87.568 458.417 86.7347 457.844C85.9078 457.271 85.4293 456.535 85.2991 455.637H87.4183C87.568 456.066 87.861 456.411 88.2972 456.672C88.7399 456.932 89.2607 457.062 89.8597 457.062C90.6735 457.062 91.3148 456.848 91.7835 456.418C92.2523 455.995 92.4866 455.428 92.4866 454.719V453.029H92.4476C92.1546 453.596 91.7184 454.045 91.139 454.377C90.5661 454.709 89.9183 454.875 89.1956 454.875C87.9 454.875 86.8649 454.406 86.0901 453.469C85.3154 452.525 84.928 451.255 84.928 449.66C84.928 448.046 85.3154 446.766 86.0901 445.822C86.8714 444.872 87.9228 444.396 89.2444 444.396C89.9671 444.396 90.6149 444.569 91.1878 444.914C91.7607 445.253 92.2034 445.721 92.5159 446.32H92.555V444.562H94.6058V454.65C94.6058 455.874 94.1663 456.854 93.2874 457.59C92.415 458.332 91.2464 458.703 89.7815 458.703ZM102.78 446.818C102.317 446.324 101.722 446.076 100.992 446.076C100.263 446.076 99.6578 446.327 99.1761 446.828C98.6943 447.323 98.4274 447.964 98.3753 448.752H103.512C103.486 447.958 103.242 447.313 102.78 446.818ZM103.502 451.818H105.504C105.354 452.762 104.873 453.534 104.059 454.133C103.245 454.732 102.252 455.031 101.08 455.031C99.5765 455.031 98.3916 454.559 97.5257 453.615C96.6663 452.665 96.2366 451.376 96.2366 449.748C96.2366 448.133 96.6663 446.835 97.5257 445.852C98.3916 444.868 99.5472 444.377 100.992 444.377C102.412 444.377 103.538 444.842 104.371 445.773C105.205 446.698 105.621 447.941 105.621 449.504V450.227H98.3655V450.354C98.3655 451.252 98.6162 451.971 99.1175 452.512C99.6188 453.052 100.289 453.322 101.129 453.322C101.722 453.322 102.229 453.186 102.653 452.912C103.076 452.639 103.359 452.274 103.502 451.818ZM107.262 454.836V444.562H109.274V446.291H109.323C109.557 445.712 109.931 445.249 110.446 444.904C110.96 444.559 111.559 444.387 112.242 444.387C112.952 444.387 113.554 444.562 114.049 444.914C114.55 445.266 114.905 445.76 115.114 446.398H115.162C115.429 445.773 115.846 445.282 116.412 444.924C116.985 444.566 117.636 444.387 118.366 444.387C119.381 444.387 120.195 444.696 120.807 445.314C121.419 445.933 121.725 446.753 121.725 447.775V454.836H119.606V448.283C119.606 447.619 119.433 447.105 119.088 446.74C118.75 446.376 118.268 446.193 117.643 446.193C117.018 446.193 116.507 446.402 116.11 446.818C115.719 447.235 115.524 447.769 115.524 448.42V454.836H113.453V448.127C113.453 447.535 113.278 447.066 112.926 446.721C112.575 446.369 112.103 446.193 111.51 446.193C110.885 446.193 110.371 446.411 109.967 446.848C109.57 447.277 109.371 447.824 109.371 448.488V454.836H107.262ZM129.85 446.818C129.388 446.324 128.792 446.076 128.063 446.076C127.334 446.076 126.728 446.327 126.246 446.828C125.765 447.323 125.498 447.964 125.446 448.752H130.582C130.556 447.958 130.312 447.313 129.85 446.818ZM130.573 451.818H132.575C132.425 452.762 131.943 453.534 131.129 454.133C130.315 454.732 129.323 455.031 128.151 455.031C126.647 455.031 125.462 454.559 124.596 453.615C123.737 452.665 123.307 451.376 123.307 449.748C123.307 448.133 123.737 446.835 124.596 445.852C125.462 444.868 126.617 444.377 128.063 444.377C129.482 444.377 130.608 444.842 131.442 445.773C132.275 446.698 132.692 447.941 132.692 449.504V450.227H125.436V450.354C125.436 451.252 125.686 451.971 126.188 452.512C126.689 453.052 127.36 453.322 128.2 453.322C128.792 453.322 129.3 453.186 129.723 452.912C130.146 452.639 130.429 452.274 130.573 451.818ZM134.332 454.836V444.562H136.344V446.281H136.393C136.679 445.682 137.096 445.217 137.643 444.885C138.19 444.553 138.851 444.387 139.625 444.387C140.752 444.387 141.627 444.725 142.252 445.402C142.877 446.073 143.19 447.001 143.19 448.186V454.836H141.071V448.596C141.071 447.814 140.885 447.222 140.514 446.818C140.149 446.408 139.606 446.203 138.883 446.203C138.141 446.203 137.548 446.444 137.106 446.926C136.663 447.408 136.442 448.049 136.442 448.85V454.836H134.332ZM145.846 442.131H147.965V444.562H149.918V446.232H147.965V451.896C147.965 452.339 148.066 452.665 148.268 452.873C148.47 453.081 148.785 453.186 149.215 453.186C149.528 453.186 149.759 453.169 149.908 453.137V454.807C149.648 454.872 149.257 454.904 148.737 454.904C147.701 454.904 146.959 454.693 146.51 454.27C146.067 453.84 145.846 453.127 145.846 452.131V446.232H144.352V444.562H145.846V442.131ZM59.7913 481.836H57.6038V467.744H66.4026V469.629H59.7913V474.092H65.846V475.938H59.7913V481.836ZM75.6605 480.605C74.775 481.556 73.5934 482.031 72.1155 482.031C70.6377 482.031 69.456 481.556 68.5706 480.605C67.6852 479.648 67.2425 478.346 67.2425 476.699C67.2425 475.059 67.6852 473.763 68.5706 472.812C69.456 471.855 70.6377 471.377 72.1155 471.377C73.5934 471.377 74.775 471.855 75.6605 472.812C76.5459 473.763 76.9886 475.059 76.9886 476.699C76.9886 478.346 76.5459 479.648 75.6605 480.605ZM72.1155 480.293C72.9554 480.293 73.6194 479.977 74.1077 479.346C74.596 478.714 74.8401 477.832 74.8401 476.699C74.8401 475.573 74.5927 474.694 74.098 474.062C73.6097 473.431 72.9489 473.115 72.1155 473.115C71.2822 473.115 70.6181 473.431 70.1233 474.062C69.6351 474.694 69.3909 475.573 69.3909 476.699C69.3909 477.832 69.6351 478.714 70.1233 479.346C70.6181 479.977 71.2822 480.293 72.1155 480.293ZM87.4378 475.098H85.4261C85.3154 474.518 85.0485 474.046 84.6253 473.682C84.2086 473.317 83.6715 473.135 83.014 473.135C82.1937 473.135 81.5361 473.457 81.0413 474.102C80.553 474.74 80.3089 475.605 80.3089 476.699C80.3089 477.812 80.553 478.685 81.0413 479.316C81.5361 479.948 82.2002 480.264 83.0335 480.264C83.678 480.264 84.2054 480.098 84.6155 479.766C85.0322 479.427 85.3024 478.958 85.4261 478.359H87.4573C87.3467 479.46 86.8844 480.348 86.0706 481.025C85.2633 481.696 84.2444 482.031 83.014 482.031C81.5361 482.031 80.3577 481.556 79.4788 480.605C78.5999 479.648 78.1605 478.346 78.1605 476.699C78.1605 475.072 78.5999 473.779 79.4788 472.822C80.3577 471.859 81.5296 471.377 82.9944 471.377C84.2705 471.377 85.3056 471.735 86.0999 472.451C86.8942 473.161 87.3401 474.043 87.4378 475.098ZM97.7601 471.562V481.836H95.7386V480.098H95.6898C95.0973 481.38 94.0361 482.021 92.5062 482.021C91.3864 482.021 90.5042 481.683 89.8597 481.006C89.2217 480.322 88.9026 479.391 88.9026 478.213V471.562H91.012V477.803C91.012 478.59 91.1976 479.189 91.5687 479.6C91.9398 480.003 92.4866 480.205 93.2093 480.205C93.9645 480.205 94.5602 479.964 94.9964 479.482C95.4326 479.001 95.6507 478.356 95.6507 477.549V471.562H97.7601ZM99.6644 474.473C99.6644 473.555 100.035 472.809 100.778 472.236C101.52 471.663 102.49 471.377 103.688 471.377C104.827 471.377 105.761 471.667 106.491 472.246C107.226 472.819 107.61 473.564 107.643 474.482H105.66C105.608 474.014 105.403 473.646 105.045 473.379C104.687 473.112 104.215 472.979 103.629 472.979C103.056 472.979 102.594 473.105 102.242 473.359C101.897 473.613 101.725 473.942 101.725 474.346C101.725 474.971 102.249 475.413 103.297 475.674L105.026 476.074C106.061 476.322 106.793 476.66 107.223 477.09C107.659 477.513 107.877 478.105 107.877 478.867C107.877 479.805 107.48 480.566 106.686 481.152C105.898 481.738 104.873 482.031 103.61 482.031C102.405 482.031 101.422 481.745 100.66 481.172C99.9052 480.599 99.4853 479.837 99.4007 478.887H101.491C101.575 479.382 101.806 479.762 102.184 480.029C102.561 480.29 103.069 480.42 103.707 480.42C104.339 480.42 104.837 480.299 105.201 480.059C105.573 479.811 105.758 479.479 105.758 479.062C105.758 478.73 105.647 478.467 105.426 478.271C105.205 478.076 104.827 477.91 104.293 477.773L102.457 477.324C100.595 476.875 99.6644 475.924 99.6644 474.473ZM115.602 473.818C115.14 473.324 114.544 473.076 113.815 473.076C113.086 473.076 112.48 473.327 111.998 473.828C111.517 474.323 111.25 474.964 111.198 475.752H116.334C116.308 474.958 116.064 474.313 115.602 473.818ZM116.325 478.818H118.326C118.177 479.762 117.695 480.534 116.881 481.133C116.067 481.732 115.075 482.031 113.903 482.031C112.399 482.031 111.214 481.559 110.348 480.615C109.489 479.665 109.059 478.376 109.059 476.748C109.059 475.133 109.489 473.835 110.348 472.852C111.214 471.868 112.369 471.377 113.815 471.377C115.234 471.377 116.36 471.842 117.194 472.773C118.027 473.698 118.444 474.941 118.444 476.504V477.227H111.188V477.354C111.188 478.252 111.438 478.971 111.94 479.512C112.441 480.052 113.112 480.322 113.951 480.322C114.544 480.322 115.052 480.186 115.475 479.912C115.898 479.639 116.181 479.274 116.325 478.818ZM123.942 482.012C122.64 482.012 121.595 481.53 120.807 480.566C120.019 479.603 119.625 478.314 119.625 476.699C119.625 475.085 120.016 473.799 120.797 472.842C121.585 471.878 122.627 471.396 123.922 471.396C124.645 471.396 125.289 471.566 125.856 471.904C126.422 472.236 126.852 472.692 127.145 473.271H127.184V467.744H129.303V481.836H127.252V480.088H127.213C126.907 480.687 126.468 481.159 125.895 481.504C125.328 481.842 124.677 482.012 123.942 482.012ZM124.498 473.174C123.665 473.174 123.004 473.493 122.516 474.131C122.028 474.762 121.784 475.618 121.784 476.699C121.784 477.786 122.028 478.646 122.516 479.277C123.004 479.909 123.665 480.225 124.498 480.225C125.312 480.225 125.966 479.906 126.461 479.268C126.956 478.623 127.203 477.767 127.203 476.699C127.203 475.638 126.956 474.785 126.461 474.141C125.966 473.496 125.312 473.174 124.498 473.174Z" fill="black"/>
<g filter="url(#filter0_d)">
<circle cx="332.358" cy="461.542" r="25" stroke="#81B7AE" stroke-width="25.1622"/>
</g>
<g filter="url(#filter1_d)">
<circle cx="586.03" cy="178.511" r="25" stroke="#81B7AE" stroke-width="25.1622"/>
</g>
<g filter="url(#filter2_d)">
<circle cx="586.03" cy="461.542" r="25" stroke="#81B7AE" stroke-width="25.1622"/>
</g>
<g filter="url(#filter3_d)">
<circle cx="830.308" cy="461.542" r="25" stroke="#81B7AE" stroke-width="25.1622"/>
</g>
<g filter="url(#filter4_d)">
<circle cx="1086.33" cy="461.542" r="25" stroke="#81B7AE" stroke-width="25.1622"/>
</g>
<g filter="url(#filter5_d)">
<circle cx="1332.95" cy="461.542" r="25" stroke="#81B7AE" stroke-width="25.1622"/>
</g>
<g filter="url(#filter6_d)">
<circle cx="1332.95" cy="611.866" r="25" stroke="#81B7AE" stroke-width="25.1622"/>
</g>
<g filter="url(#filter7_d)">
<circle cx="1332.95" cy="326.487" r="25" stroke="#81B7AE" stroke-width="25.1622"/>
</g>
<g filter="url(#filter8_d)">
<circle cx="1332.95" cy="178.511" r="25" stroke="#81B7AE" stroke-width="25.1622"/>
</g>
</g>
<defs>
<filter id="filter0_d" x="294.777" y="423.961" width="83.1622" height="83.1622" filterUnits="userSpaceOnUse" color-interpolation-filters="sRGB">
<feFlood flood-opacity="0" result="BackgroundImageFix"/>
<feColorMatrix in="SourceAlpha" type="matrix" values="0 0 0 0 0 0 0 0 0 0 0 0 0 0 0 0 0 0 127 0" result="hardAlpha"/>
<feOffset dx="4" dy="4"/>
<feGaussianBlur stdDeviation="2"/>
<feColorMatrix type="matrix" values="0 0 0 0 0 0 0 0 0 0 0 0 0 0 0 0 0 0 0.25 0"/>
<feBlend mode="normal" in2="BackgroundImageFix" result="effect1_dropShadow"/>
<feBlend mode="normal" in="SourceGraphic" in2="effect1_dropShadow" result="shape"/>
</filter>
<filter id="filter1_d" x="548.449" y="140.93" width="83.1622" height="83.1622" filterUnits="userSpaceOnUse" color-interpolation-filters="sRGB">
<feFlood flood-opacity="0" result="BackgroundImageFix"/>
<feColorMatrix in="SourceAlpha" type="matrix" values="0 0 0 0 0 0 0 0 0 0 0 0 0 0 0 0 0 0 127 0" result="hardAlpha"/>
<feOffset dx="4" dy="4"/>
<feGaussianBlur stdDeviation="2"/>
<feColorMatrix type="matrix" values="0 0 0 0 0 0 0 0 0 0 0 0 0 0 0 0 0 0 0.25 0"/>
<feBlend mode="normal" in2="BackgroundImageFix" result="effect1_dropShadow"/>
<feBlend mode="normal" in="SourceGraphic" in2="effect1_dropShadow" result="shape"/>
</filter>
<filter id="filter2_d" x="548.449" y="423.961" width="83.1622" height="83.1622" filterUnits="userSpaceOnUse" color-interpolation-filters="sRGB">
<feFlood flood-opacity="0" result="BackgroundImageFix"/>
<feColorMatrix in="SourceAlpha" type="matrix" values="0 0 0 0 0 0 0 0 0 0 0 0 0 0 0 0 0 0 127 0" result="hardAlpha"/>
<feOffset dx="4" dy="4"/>
<feGaussianBlur stdDeviation="2"/>
<feColorMatrix type="matrix" values="0 0 0 0 0 0 0 0 0 0 0 0 0 0 0 0 0 0 0.25 0"/>
<feBlend mode="normal" in2="BackgroundImageFix" result="effect1_dropShadow"/>
<feBlend mode="normal" in="SourceGraphic" in2="effect1_dropShadow" result="shape"/>
</filter>
<filter id="filter3_d" x="792.727" y="423.961" width="83.1622" height="83.1622" filterUnits="userSpaceOnUse" color-interpolation-filters="sRGB">
<feFlood flood-opacity="0" result="BackgroundImageFix"/>
<feColorMatrix in="SourceAlpha" type="matrix" values="0 0 0 0 0 0 0 0 0 0 0 0 0 0 0 0 0 0 127 0" result="hardAlpha"/>
<feOffset dx="4" dy="4"/>
<feGaussianBlur stdDeviation="2"/>
<feColorMatrix type="matrix" values="0 0 0 0 0 0 0 0 0 0 0 0 0 0 0 0 0 0 0.25 0"/>
<feBlend mode="normal" in2="BackgroundImageFix" result="effect1_dropShadow"/>
<feBlend mode="normal" in="SourceGraphic" in2="effect1_dropShadow" result="shape"/>
</filter>
<filter id="filter4_d" x="1048.75" y="423.961" width="83.1622" height="83.1622" filterUnits="userSpaceOnUse" color-interpolation-filters="sRGB">
<feFlood flood-opacity="0" result="BackgroundImageFix"/>
<feColorMatrix in="SourceAlpha" type="matrix" values="0 0 0 0 0 0 0 0 0 0 0 0 0 0 0 0 0 0 127 0" result="hardAlpha"/>
<feOffset dx="4" dy="4"/>
<feGaussianBlur stdDeviation="2"/>
<feColorMatrix type="matrix" values="0 0 0 0 0 0 0 0 0 0 0 0 0 0 0 0 0 0 0.25 0"/>
<feBlend mode="normal" in2="BackgroundImageFix" result="effect1_dropShadow"/>
<feBlend mode="normal" in="SourceGraphic" in2="effect1_dropShadow" result="shape"/>
</filter>
<filter id="filter5_d" x="1295.37" y="423.961" width="83.1622" height="83.1622" filterUnits="userSpaceOnUse" color-interpolation-filters="sRGB">
<feFlood flood-opacity="0" result="BackgroundImageFix"/>
<feColorMatrix in="SourceAlpha" type="matrix" values="0 0 0 0 0 0 0 0 0 0 0 0 0 0 0 0 0 0 127 0" result="hardAlpha"/>
<feOffset dx="4" dy="4"/>
<feGaussianBlur stdDeviation="2"/>
<feColorMatrix type="matrix" values="0 0 0 0 0 0 0 0 0 0 0 0 0 0 0 0 0 0 0.25 0"/>
<feBlend mode="normal" in2="BackgroundImageFix" result="effect1_dropShadow"/>
<feBlend mode="normal" in="SourceGraphic" in2="effect1_dropShadow" result="shape"/>
</filter>
<filter id="filter6_d" x="1295.37" y="574.285" width="83.1622" height="83.1622" filterUnits="userSpaceOnUse" color-interpolation-filters="sRGB">
<feFlood flood-opacity="0" result="BackgroundImageFix"/>
<feColorMatrix in="SourceAlpha" type="matrix" values="0 0 0 0 0 0 0 0 0 0 0 0 0 0 0 0 0 0 127 0" result="hardAlpha"/>
<feOffset dx="4" dy="4"/>
<feGaussianBlur stdDeviation="2"/>
<feColorMatrix type="matrix" values="0 0 0 0 0 0 0 0 0 0 0 0 0 0 0 0 0 0 0.25 0"/>
<feBlend mode="normal" in2="BackgroundImageFix" result="effect1_dropShadow"/>
<feBlend mode="normal" in="SourceGraphic" in2="effect1_dropShadow" result="shape"/>
</filter>
<filter id="filter7_d" x="1295.37" y="288.906" width="83.1622" height="83.1622" filterUnits="userSpaceOnUse" color-interpolation-filters="sRGB">
<feFlood flood-opacity="0" result="BackgroundImageFix"/>
<feColorMatrix in="SourceAlpha" type="matrix" values="0 0 0 0 0 0 0 0 0 0 0 0 0 0 0 0 0 0 127 0" result="hardAlpha"/>
<feOffset dx="4" dy="4"/>
<feGaussianBlur stdDeviation="2"/>
<feColorMatrix type="matrix" values="0 0 0 0 0 0 0 0 0 0 0 0 0 0 0 0 0 0 0.25 0"/>
<feBlend mode="normal" in2="BackgroundImageFix" result="effect1_dropShadow"/>
<feBlend mode="normal" in="SourceGraphic" in2="effect1_dropShadow" result="shape"/>
</filter>
<filter id="filter8_d" x="1295.37" y="140.93" width="83.1622" height="83.1622" filterUnits="userSpaceOnUse" color-interpolation-filters="sRGB">
<feFlood flood-opacity="0" result="BackgroundImageFix"/>
<feColorMatrix in="SourceAlpha" type="matrix" values="0 0 0 0 0 0 0 0 0 0 0 0 0 0 0 0 0 0 127 0" result="hardAlpha"/>
<feOffset dx="4" dy="4"/>
<feGaussianBlur stdDeviation="2"/>
<feColorMatrix type="matrix" values="0 0 0 0 0 0 0 0 0 0 0 0 0 0 0 0 0 0 0.25 0"/>
<feBlend mode="normal" in2="BackgroundImageFix" result="effect1_dropShadow"/>
<feBlend mode="normal" in="SourceGraphic" in2="effect1_dropShadow" result="shape"/>
</filter>
<clipPath id="clip0">
<rect width="1440" height="672" fill="white"/>
</clipPath>
</defs>
</svg>
